%TF.GenerationSoftware,KiCad,Pcbnew,7.0.6*%
%TF.CreationDate,2023-07-17T12:15:40-04:00*%
%TF.ProjectId,mcp23s17_single_breakout,6d637032-3373-4313-975f-73696e676c65,rev?*%
%TF.SameCoordinates,Original*%
%TF.FileFunction,Legend,Top*%
%TF.FilePolarity,Positive*%
%FSLAX46Y46*%
G04 Gerber Fmt 4.6, Leading zero omitted, Abs format (unit mm)*
G04 Created by KiCad (PCBNEW 7.0.6) date 2023-07-17 12:15:40*
%MOMM*%
%LPD*%
G01*
G04 APERTURE LIST*
%ADD10C,0.150000*%
%ADD11C,0.120000*%
G04 APERTURE END LIST*
D10*
X180921819Y-95241428D02*
X179921819Y-95241428D01*
X179921819Y-95241428D02*
X180636104Y-94908095D01*
X180636104Y-94908095D02*
X179921819Y-94574762D01*
X179921819Y-94574762D02*
X180921819Y-94574762D01*
X180826580Y-93527143D02*
X180874200Y-93574762D01*
X180874200Y-93574762D02*
X180921819Y-93717619D01*
X180921819Y-93717619D02*
X180921819Y-93812857D01*
X180921819Y-93812857D02*
X180874200Y-93955714D01*
X180874200Y-93955714D02*
X180778961Y-94050952D01*
X180778961Y-94050952D02*
X180683723Y-94098571D01*
X180683723Y-94098571D02*
X180493247Y-94146190D01*
X180493247Y-94146190D02*
X180350390Y-94146190D01*
X180350390Y-94146190D02*
X180159914Y-94098571D01*
X180159914Y-94098571D02*
X180064676Y-94050952D01*
X180064676Y-94050952D02*
X179969438Y-93955714D01*
X179969438Y-93955714D02*
X179921819Y-93812857D01*
X179921819Y-93812857D02*
X179921819Y-93717619D01*
X179921819Y-93717619D02*
X179969438Y-93574762D01*
X179969438Y-93574762D02*
X180017057Y-93527143D01*
X180921819Y-93098571D02*
X179921819Y-93098571D01*
X179921819Y-93098571D02*
X179921819Y-92717619D01*
X179921819Y-92717619D02*
X179969438Y-92622381D01*
X179969438Y-92622381D02*
X180017057Y-92574762D01*
X180017057Y-92574762D02*
X180112295Y-92527143D01*
X180112295Y-92527143D02*
X180255152Y-92527143D01*
X180255152Y-92527143D02*
X180350390Y-92574762D01*
X180350390Y-92574762D02*
X180398009Y-92622381D01*
X180398009Y-92622381D02*
X180445628Y-92717619D01*
X180445628Y-92717619D02*
X180445628Y-93098571D01*
X180017057Y-92146190D02*
X179969438Y-92098571D01*
X179969438Y-92098571D02*
X179921819Y-92003333D01*
X179921819Y-92003333D02*
X179921819Y-91765238D01*
X179921819Y-91765238D02*
X179969438Y-91670000D01*
X179969438Y-91670000D02*
X180017057Y-91622381D01*
X180017057Y-91622381D02*
X180112295Y-91574762D01*
X180112295Y-91574762D02*
X180207533Y-91574762D01*
X180207533Y-91574762D02*
X180350390Y-91622381D01*
X180350390Y-91622381D02*
X180921819Y-92193809D01*
X180921819Y-92193809D02*
X180921819Y-91574762D01*
X179921819Y-91241428D02*
X179921819Y-90622381D01*
X179921819Y-90622381D02*
X180302771Y-90955714D01*
X180302771Y-90955714D02*
X180302771Y-90812857D01*
X180302771Y-90812857D02*
X180350390Y-90717619D01*
X180350390Y-90717619D02*
X180398009Y-90670000D01*
X180398009Y-90670000D02*
X180493247Y-90622381D01*
X180493247Y-90622381D02*
X180731342Y-90622381D01*
X180731342Y-90622381D02*
X180826580Y-90670000D01*
X180826580Y-90670000D02*
X180874200Y-90717619D01*
X180874200Y-90717619D02*
X180921819Y-90812857D01*
X180921819Y-90812857D02*
X180921819Y-91098571D01*
X180921819Y-91098571D02*
X180874200Y-91193809D01*
X180874200Y-91193809D02*
X180826580Y-91241428D01*
X180874200Y-90241428D02*
X180921819Y-90098571D01*
X180921819Y-90098571D02*
X180921819Y-89860476D01*
X180921819Y-89860476D02*
X180874200Y-89765238D01*
X180874200Y-89765238D02*
X180826580Y-89717619D01*
X180826580Y-89717619D02*
X180731342Y-89670000D01*
X180731342Y-89670000D02*
X180636104Y-89670000D01*
X180636104Y-89670000D02*
X180540866Y-89717619D01*
X180540866Y-89717619D02*
X180493247Y-89765238D01*
X180493247Y-89765238D02*
X180445628Y-89860476D01*
X180445628Y-89860476D02*
X180398009Y-90050952D01*
X180398009Y-90050952D02*
X180350390Y-90146190D01*
X180350390Y-90146190D02*
X180302771Y-90193809D01*
X180302771Y-90193809D02*
X180207533Y-90241428D01*
X180207533Y-90241428D02*
X180112295Y-90241428D01*
X180112295Y-90241428D02*
X180017057Y-90193809D01*
X180017057Y-90193809D02*
X179969438Y-90146190D01*
X179969438Y-90146190D02*
X179921819Y-90050952D01*
X179921819Y-90050952D02*
X179921819Y-89812857D01*
X179921819Y-89812857D02*
X179969438Y-89670000D01*
X180921819Y-88717619D02*
X180921819Y-89289047D01*
X180921819Y-89003333D02*
X179921819Y-89003333D01*
X179921819Y-89003333D02*
X180064676Y-89098571D01*
X180064676Y-89098571D02*
X180159914Y-89193809D01*
X180159914Y-89193809D02*
X180207533Y-89289047D01*
X179921819Y-88384285D02*
X179921819Y-87717619D01*
X179921819Y-87717619D02*
X180921819Y-88146190D01*
X181017057Y-87574762D02*
X181017057Y-86812857D01*
X180874200Y-86622380D02*
X180921819Y-86479523D01*
X180921819Y-86479523D02*
X180921819Y-86241428D01*
X180921819Y-86241428D02*
X180874200Y-86146190D01*
X180874200Y-86146190D02*
X180826580Y-86098571D01*
X180826580Y-86098571D02*
X180731342Y-86050952D01*
X180731342Y-86050952D02*
X180636104Y-86050952D01*
X180636104Y-86050952D02*
X180540866Y-86098571D01*
X180540866Y-86098571D02*
X180493247Y-86146190D01*
X180493247Y-86146190D02*
X180445628Y-86241428D01*
X180445628Y-86241428D02*
X180398009Y-86431904D01*
X180398009Y-86431904D02*
X180350390Y-86527142D01*
X180350390Y-86527142D02*
X180302771Y-86574761D01*
X180302771Y-86574761D02*
X180207533Y-86622380D01*
X180207533Y-86622380D02*
X180112295Y-86622380D01*
X180112295Y-86622380D02*
X180017057Y-86574761D01*
X180017057Y-86574761D02*
X179969438Y-86527142D01*
X179969438Y-86527142D02*
X179921819Y-86431904D01*
X179921819Y-86431904D02*
X179921819Y-86193809D01*
X179921819Y-86193809D02*
X179969438Y-86050952D01*
X180921819Y-85622380D02*
X179921819Y-85622380D01*
X179921819Y-85622380D02*
X179921819Y-85241428D01*
X179921819Y-85241428D02*
X179969438Y-85146190D01*
X179969438Y-85146190D02*
X180017057Y-85098571D01*
X180017057Y-85098571D02*
X180112295Y-85050952D01*
X180112295Y-85050952D02*
X180255152Y-85050952D01*
X180255152Y-85050952D02*
X180350390Y-85098571D01*
X180350390Y-85098571D02*
X180398009Y-85146190D01*
X180398009Y-85146190D02*
X180445628Y-85241428D01*
X180445628Y-85241428D02*
X180445628Y-85622380D01*
%TO.C,kibuzzard-64B56916*%
G36*
X189079303Y-110132943D02*
G01*
X188659277Y-110132943D01*
X188542108Y-110132943D01*
X188511730Y-110132943D01*
X188360933Y-110132943D01*
X188335814Y-110132943D01*
X187972273Y-110132943D01*
X187328758Y-110132943D01*
X186752723Y-110132943D01*
X186332697Y-110132943D01*
X186332697Y-109691521D01*
X186752723Y-109691521D01*
X186963387Y-109691521D01*
X187009470Y-109456169D01*
X187281030Y-109456169D01*
X187328758Y-109691521D01*
X187546006Y-109691521D01*
X187512010Y-109547667D01*
X187477499Y-109409058D01*
X187442474Y-109275695D01*
X187415838Y-109179672D01*
X187618422Y-109179672D01*
X187628480Y-109344254D01*
X187658653Y-109478114D01*
X187708942Y-109581252D01*
X187820034Y-109680000D01*
X187972273Y-109712917D01*
X188124511Y-109680000D01*
X188235603Y-109581252D01*
X188285892Y-109478114D01*
X188316065Y-109344254D01*
X188326123Y-109179672D01*
X188316065Y-109016096D01*
X188285892Y-108883060D01*
X188235603Y-108780562D01*
X188124511Y-108682430D01*
X187972273Y-108649719D01*
X187822092Y-108682636D01*
X187710588Y-108781385D01*
X187659385Y-108884157D01*
X187628663Y-109016919D01*
X187618422Y-109179672D01*
X187415838Y-109179672D01*
X187406935Y-109147579D01*
X187359114Y-108983272D01*
X187336083Y-108907333D01*
X187311112Y-108824999D01*
X187262926Y-108672761D01*
X187042386Y-108672761D01*
X186995755Y-108823719D01*
X186948026Y-108980346D01*
X186899200Y-109142641D01*
X186862272Y-109269832D01*
X186825550Y-109403709D01*
X186789033Y-109544272D01*
X186752723Y-109691521D01*
X186332697Y-109691521D01*
X186332697Y-107171365D01*
X186752906Y-107171365D01*
X186966182Y-107171365D01*
X187012836Y-106933096D01*
X187287763Y-106933096D01*
X187336083Y-107171365D01*
X187556024Y-107171365D01*
X187521606Y-107025727D01*
X187486667Y-106885400D01*
X187451208Y-106750384D01*
X187415228Y-106620680D01*
X187366815Y-106454335D01*
X187343591Y-106377762D01*
X187336663Y-106354918D01*
X187650998Y-106354918D01*
X187717647Y-106524872D01*
X187819286Y-106484050D01*
X187925924Y-106424899D01*
X187925924Y-107001411D01*
X187709316Y-107001411D01*
X187709316Y-107171365D01*
X188335814Y-107171365D01*
X188335814Y-107001411D01*
X188130869Y-107001411D01*
X188130869Y-106139975D01*
X187990907Y-106139975D01*
X187919260Y-106204958D01*
X187830950Y-106264942D01*
X187737642Y-106316595D01*
X187650998Y-106354918D01*
X187336663Y-106354918D01*
X187318217Y-106294101D01*
X187269434Y-106139975D01*
X187046161Y-106139975D01*
X186998951Y-106292805D01*
X186950631Y-106451373D01*
X186901200Y-106615681D01*
X186863814Y-106744448D01*
X186826636Y-106879985D01*
X186789667Y-107022290D01*
X186752906Y-107171365D01*
X186332697Y-107171365D01*
X186332697Y-104651209D01*
X186753094Y-104651209D01*
X186969048Y-104651209D01*
X187016287Y-104409949D01*
X187294664Y-104409949D01*
X187343591Y-104651209D01*
X187566293Y-104651209D01*
X187531443Y-104503743D01*
X187496066Y-104361654D01*
X187460162Y-104224944D01*
X187423730Y-104093611D01*
X187386982Y-103966707D01*
X187351291Y-103847173D01*
X187350129Y-103843282D01*
X187313170Y-103723338D01*
X187312616Y-103721598D01*
X187654024Y-103721598D01*
X187756939Y-103866691D01*
X187863229Y-103787396D01*
X187966144Y-103763776D01*
X188063998Y-103798363D01*
X188102802Y-103897060D01*
X188071590Y-103986478D01*
X187992294Y-104077583D01*
X187889379Y-104176281D01*
X187786464Y-104287631D01*
X187707169Y-104418384D01*
X187675957Y-104573601D01*
X187675113Y-104609030D01*
X187679331Y-104651209D01*
X188360933Y-104651209D01*
X188360933Y-104479121D01*
X187912155Y-104479121D01*
X187929870Y-104423446D01*
X187972892Y-104363552D01*
X188026881Y-104306190D01*
X188077495Y-104258106D01*
X188163538Y-104173750D01*
X188239459Y-104082645D01*
X188293448Y-103985634D01*
X188313693Y-103881876D01*
X188286699Y-103751123D01*
X188214152Y-103657487D01*
X188109550Y-103601811D01*
X187986389Y-103583253D01*
X187956128Y-103586156D01*
X187898447Y-103591689D01*
X187810084Y-103616996D01*
X187726782Y-103660018D01*
X187654024Y-103721598D01*
X187312616Y-103721598D01*
X187276106Y-103606873D01*
X187050030Y-103606873D01*
X187002228Y-103761620D01*
X186953301Y-103922179D01*
X186903249Y-104088550D01*
X186865394Y-104218933D01*
X186827750Y-104356171D01*
X186790317Y-104500263D01*
X186753094Y-104651209D01*
X186332697Y-104651209D01*
X186332697Y-102131052D01*
X186753287Y-102131052D01*
X186971986Y-102131052D01*
X187019826Y-101886725D01*
X187301742Y-101886725D01*
X187351291Y-102131052D01*
X187576823Y-102131052D01*
X187568344Y-102095172D01*
X187662252Y-102095172D01*
X187715218Y-102113967D01*
X187789542Y-102132761D01*
X187873262Y-102147284D01*
X187956128Y-102153264D01*
X188054799Y-102147070D01*
X188138946Y-102128490D01*
X188265381Y-102058438D01*
X188338850Y-101951651D01*
X188362770Y-101816674D01*
X188351451Y-101730817D01*
X188317493Y-101657776D01*
X188263032Y-101599257D01*
X188190204Y-101556969D01*
X188285884Y-101468123D01*
X188321764Y-101346814D01*
X188309276Y-101275008D01*
X188301261Y-101228922D01*
X188238044Y-101134096D01*
X188129549Y-101071733D01*
X187974923Y-101049521D01*
X187884154Y-101057423D01*
X187803210Y-101081130D01*
X187681047Y-101143493D01*
X187756224Y-101297265D01*
X187857885Y-101248571D01*
X187976631Y-101228922D01*
X188073166Y-101262239D01*
X188108192Y-101353648D01*
X188091960Y-101418574D01*
X188050100Y-101459580D01*
X187992008Y-101481792D01*
X187927082Y-101488626D01*
X187848488Y-101488626D01*
X187848488Y-101662901D01*
X187913414Y-101662901D01*
X188006958Y-101671231D01*
X188082563Y-101696219D01*
X188149198Y-101813256D01*
X188105629Y-101927731D01*
X188046042Y-101962330D01*
X187954420Y-101973863D01*
X187804919Y-101955069D01*
X187703258Y-101919188D01*
X187662252Y-102095172D01*
X187568344Y-102095172D01*
X187541530Y-101981712D01*
X187505704Y-101837817D01*
X187469343Y-101699369D01*
X187432448Y-101566367D01*
X187395233Y-101437849D01*
X187359188Y-101317132D01*
X187357911Y-101312856D01*
X187320483Y-101191387D01*
X187282947Y-101073441D01*
X187053998Y-101073441D01*
X187017797Y-101190425D01*
X186980956Y-101310720D01*
X186943474Y-101434325D01*
X186905351Y-101561241D01*
X186867015Y-101693282D01*
X186828892Y-101832264D01*
X186790983Y-101978188D01*
X186753287Y-102131052D01*
X186332697Y-102131052D01*
X186332697Y-99610896D01*
X186753485Y-99610896D01*
X186975000Y-99610896D01*
X187023456Y-99363423D01*
X187309001Y-99363423D01*
X187359188Y-99610896D01*
X187587625Y-99610896D01*
X187551877Y-99459633D01*
X187526630Y-99358232D01*
X187649926Y-99358232D01*
X188096415Y-99358232D01*
X188096415Y-99610896D01*
X188309276Y-99610896D01*
X188309276Y-99358232D01*
X188425225Y-99358232D01*
X188425225Y-99183443D01*
X188309276Y-99183443D01*
X188309276Y-98539668D01*
X188118913Y-98539668D01*
X188049689Y-98613433D01*
X187980466Y-98696285D01*
X187968623Y-98711734D01*
X187912974Y-98784328D01*
X187848942Y-98873669D01*
X187789237Y-98962578D01*
X187734724Y-99049323D01*
X187687566Y-99130444D01*
X187649926Y-99202479D01*
X187649926Y-99358232D01*
X187526630Y-99358232D01*
X187515589Y-99313886D01*
X187478760Y-99173654D01*
X187441391Y-99038940D01*
X187403697Y-98908768D01*
X187367292Y-98786846D01*
X187365894Y-98782165D01*
X187327984Y-98659132D01*
X187289965Y-98539668D01*
X187058067Y-98539668D01*
X187021401Y-98658158D01*
X186984085Y-98780002D01*
X186946121Y-98905198D01*
X186907507Y-99033748D01*
X186868677Y-99167489D01*
X186830064Y-99308261D01*
X186791666Y-99456063D01*
X186753485Y-99610896D01*
X186332697Y-99610896D01*
X186332697Y-97090740D01*
X186753689Y-97090740D01*
X186978092Y-97090740D01*
X187027180Y-96840039D01*
X187316450Y-96840039D01*
X187367292Y-97090740D01*
X187598708Y-97090740D01*
X187590836Y-97057430D01*
X187675847Y-97057430D01*
X187725812Y-97076715D01*
X187798567Y-97095123D01*
X187882719Y-97108271D01*
X187968623Y-97113531D01*
X188068991Y-97106957D01*
X188156210Y-97087234D01*
X188291203Y-97013601D01*
X188371848Y-96902276D01*
X188398145Y-96762900D01*
X188371410Y-96616512D01*
X188291203Y-96506940D01*
X188207636Y-96454735D01*
X188099525Y-96419672D01*
X187966870Y-96401751D01*
X187975636Y-96301821D01*
X187984401Y-96184360D01*
X188357823Y-96184360D01*
X188357823Y-96005539D01*
X188086138Y-96005539D01*
X187803827Y-96005539D01*
X187797252Y-96139436D01*
X187788048Y-96278154D01*
X187775776Y-96420817D01*
X187759998Y-96566547D01*
X187880527Y-96570273D01*
X187975636Y-96581449D01*
X188102739Y-96623525D01*
X188162346Y-96688392D01*
X188177248Y-96771666D01*
X188168482Y-96829520D01*
X188136049Y-96879485D01*
X188071182Y-96915425D01*
X187966870Y-96929450D01*
X187817852Y-96913672D01*
X187719675Y-96878609D01*
X187675847Y-97057430D01*
X187590836Y-97057430D01*
X187562494Y-96937503D01*
X187525733Y-96789855D01*
X187488424Y-96647795D01*
X187450567Y-96511323D01*
X187412381Y-96379453D01*
X187375610Y-96256304D01*
X187374085Y-96251199D01*
X187335680Y-96126561D01*
X187297166Y-96005539D01*
X187062243Y-96005539D01*
X187025099Y-96125575D01*
X186987296Y-96249008D01*
X186948836Y-96375837D01*
X186909719Y-96506064D01*
X186870383Y-96641549D01*
X186831266Y-96784157D01*
X186792368Y-96933888D01*
X186753689Y-97090740D01*
X186332697Y-97090740D01*
X186332697Y-94570584D01*
X186753897Y-94570584D01*
X186981266Y-94570584D01*
X187031003Y-94316570D01*
X187324096Y-94316570D01*
X187375610Y-94570584D01*
X187610084Y-94570584D01*
X187573392Y-94415322D01*
X187536145Y-94265723D01*
X187498342Y-94121785D01*
X187498173Y-94121174D01*
X187707782Y-94121174D01*
X187718538Y-94269102D01*
X187750808Y-94388412D01*
X187804591Y-94479103D01*
X187923383Y-94565033D01*
X188086138Y-94593676D01*
X188242455Y-94559038D01*
X188350810Y-94469333D01*
X188413870Y-94348543D01*
X188434297Y-94218872D01*
X188415646Y-94083872D01*
X188354363Y-93971963D01*
X188245119Y-93895581D01*
X188171180Y-93874266D01*
X188082586Y-93867160D01*
X188025743Y-93875154D01*
X187960020Y-93897358D01*
X188021303Y-93781897D01*
X188119888Y-93706403D01*
X188244231Y-93664660D01*
X188382784Y-93650449D01*
X188370350Y-93463935D01*
X188227800Y-93474593D01*
X188098573Y-93506567D01*
X187984888Y-93559413D01*
X187888967Y-93632686D01*
X187875581Y-93648888D01*
X187811919Y-93725943D01*
X187754854Y-93838739D01*
X187719550Y-93970631D01*
X187707782Y-94121174D01*
X187498173Y-94121174D01*
X187459985Y-93983509D01*
X187421294Y-93849897D01*
X187384150Y-93725498D01*
X187382493Y-93719948D01*
X187343580Y-93593662D01*
X187304557Y-93471041D01*
X187066530Y-93471041D01*
X187028894Y-93592663D01*
X186990592Y-93717727D01*
X186951624Y-93846233D01*
X186911990Y-93978180D01*
X186872134Y-94115457D01*
X186832499Y-94259949D01*
X186793087Y-94411658D01*
X186753897Y-94570584D01*
X186332697Y-94570584D01*
X186332697Y-92050427D01*
X186754111Y-92050427D01*
X186984526Y-92050427D01*
X187034929Y-91793011D01*
X187331947Y-91793011D01*
X187384150Y-92050427D01*
X187621765Y-92050427D01*
X187584582Y-91893086D01*
X187546835Y-91741483D01*
X187508527Y-91595618D01*
X187469656Y-91455491D01*
X187430447Y-91320088D01*
X187391126Y-91188399D01*
X187369979Y-91119770D01*
X187726172Y-91119770D01*
X188194201Y-91119770D01*
X188144247Y-91208650D01*
X188091594Y-91313282D01*
X188039616Y-91429164D01*
X187991688Y-91551797D01*
X187949160Y-91678479D01*
X187913383Y-91806512D01*
X187887732Y-91931845D01*
X187875581Y-92050427D01*
X188100595Y-92050427D01*
X188117021Y-91906194D01*
X188148298Y-91761510D01*
X188190150Y-91620876D01*
X188238303Y-91488793D01*
X188291182Y-91367735D01*
X188347210Y-91260178D01*
X188402563Y-91170623D01*
X188453417Y-91103569D01*
X188453417Y-90936158D01*
X188106321Y-90936158D01*
X187726172Y-90936158D01*
X187726172Y-91119770D01*
X187369979Y-91119770D01*
X187351692Y-91060422D01*
X187312146Y-90936158D01*
X187150258Y-90936158D01*
X187070931Y-90936158D01*
X187032791Y-91059410D01*
X186993976Y-91186149D01*
X186954486Y-91316376D01*
X186914321Y-91450090D01*
X186873931Y-91589205D01*
X186833766Y-91735633D01*
X186793826Y-91889374D01*
X186754111Y-92050427D01*
X186332697Y-92050427D01*
X186332697Y-89512026D01*
X186836436Y-89512026D01*
X186995171Y-89536657D01*
X187150258Y-89544868D01*
X187240345Y-89540534D01*
X187324502Y-89527534D01*
X187464992Y-89469149D01*
X187558957Y-89359676D01*
X187584956Y-89282817D01*
X187593623Y-89189081D01*
X187552571Y-89039468D01*
X187493045Y-88975609D01*
X187468033Y-88962837D01*
X187714043Y-88962837D01*
X187725193Y-89145292D01*
X187758643Y-89293688D01*
X187814393Y-89408027D01*
X187891430Y-89489118D01*
X187988739Y-89537772D01*
X188106321Y-89553990D01*
X188223903Y-89537772D01*
X188321212Y-89489118D01*
X188398248Y-89408027D01*
X188453999Y-89293688D01*
X188487449Y-89145292D01*
X188498599Y-88962837D01*
X188487449Y-88781497D01*
X188453999Y-88634013D01*
X188398248Y-88520384D01*
X188321212Y-88439800D01*
X188223903Y-88391449D01*
X188106321Y-88375333D01*
X187990563Y-88391551D01*
X187893862Y-88440205D01*
X187816218Y-88521296D01*
X187759454Y-88635229D01*
X187725396Y-88782409D01*
X187714043Y-88962837D01*
X187468033Y-88962837D01*
X187396572Y-88926346D01*
X187501483Y-88827820D01*
X187540711Y-88685506D01*
X187524290Y-88579682D01*
X187462256Y-88483893D01*
X187336362Y-88414560D01*
X187244222Y-88394718D01*
X187155933Y-88389678D01*
X187128363Y-88388104D01*
X186976926Y-88396315D01*
X186836436Y-88415473D01*
X186836436Y-89512026D01*
X186332697Y-89512026D01*
X186332697Y-86991618D01*
X186837792Y-86991618D01*
X186998712Y-87016589D01*
X187155933Y-87024912D01*
X187247259Y-87020519D01*
X187332575Y-87007340D01*
X187474998Y-86948151D01*
X187570255Y-86837172D01*
X187596613Y-86759255D01*
X187605399Y-86664229D01*
X187563782Y-86512557D01*
X187503437Y-86447820D01*
X187405636Y-86397879D01*
X187511991Y-86297997D01*
X187551759Y-86153724D01*
X187544010Y-86103784D01*
X187751522Y-86103784D01*
X187825508Y-86292448D01*
X187938337Y-86247132D01*
X188056715Y-86181469D01*
X188056715Y-86821450D01*
X187816260Y-86821450D01*
X187816260Y-87010115D01*
X188511730Y-87010115D01*
X188511730Y-86821450D01*
X188284223Y-86821450D01*
X188284223Y-85865178D01*
X188128852Y-85865178D01*
X188049316Y-85937314D01*
X187951285Y-86003902D01*
X187847704Y-86061241D01*
X187751522Y-86103784D01*
X187544010Y-86103784D01*
X187535112Y-86046444D01*
X187472224Y-85949337D01*
X187344597Y-85879050D01*
X187251190Y-85858935D01*
X187161765Y-85853830D01*
X187133737Y-85852230D01*
X186980215Y-85860554D01*
X186837792Y-85879975D01*
X186837792Y-86991618D01*
X186332697Y-86991618D01*
X186332697Y-84471204D01*
X186839185Y-84471204D01*
X187002351Y-84496523D01*
X187161765Y-84504962D01*
X187254366Y-84500508D01*
X187340872Y-84487145D01*
X187485283Y-84427131D01*
X187581870Y-84314603D01*
X187608595Y-84235599D01*
X187617503Y-84139247D01*
X187575305Y-83985459D01*
X187514118Y-83919817D01*
X187414953Y-83869180D01*
X187522792Y-83767905D01*
X187563115Y-83621618D01*
X187546236Y-83512841D01*
X187509798Y-83456577D01*
X187756288Y-83456577D01*
X187870691Y-83617867D01*
X187988845Y-83529721D01*
X188103249Y-83503464D01*
X188212026Y-83541911D01*
X188255162Y-83651626D01*
X188220465Y-83751025D01*
X188132319Y-83852301D01*
X188017915Y-83962015D01*
X187958838Y-84021561D01*
X187903512Y-84085796D01*
X187854750Y-84155423D01*
X187815365Y-84231145D01*
X187789343Y-84313665D01*
X187780669Y-84403687D01*
X187779731Y-84443072D01*
X187784420Y-84489959D01*
X188542108Y-84489959D01*
X188542108Y-84298661D01*
X188043234Y-84298661D01*
X188062926Y-84236771D01*
X188110751Y-84170192D01*
X188170766Y-84106426D01*
X188227030Y-84052975D01*
X188322678Y-83959202D01*
X188407074Y-83857927D01*
X188467089Y-83750088D01*
X188489595Y-83634747D01*
X188459587Y-83489398D01*
X188378942Y-83385310D01*
X188262663Y-83323419D01*
X188125754Y-83302789D01*
X188094040Y-83305831D01*
X188027996Y-83312167D01*
X187929768Y-83340299D01*
X187837167Y-83388123D01*
X187756288Y-83456577D01*
X187509798Y-83456577D01*
X187482470Y-83414379D01*
X187353063Y-83343112D01*
X187258352Y-83322716D01*
X187167763Y-83317545D01*
X187139260Y-83315918D01*
X186983596Y-83324357D01*
X186839185Y-83344050D01*
X186839185Y-84471204D01*
X186332697Y-84471204D01*
X186332697Y-81950782D01*
X186840619Y-81950782D01*
X187006093Y-81976459D01*
X187167763Y-81985018D01*
X187261675Y-81980501D01*
X187349405Y-81966949D01*
X187438650Y-81929860D01*
X187766895Y-81929860D01*
X187825857Y-81950782D01*
X187908594Y-81971704D01*
X188001792Y-81987871D01*
X188094040Y-81994529D01*
X188203880Y-81987634D01*
X188297554Y-81966949D01*
X188438302Y-81888967D01*
X188520089Y-81770092D01*
X188546717Y-81619834D01*
X188534116Y-81524258D01*
X188496314Y-81442947D01*
X188435687Y-81377803D01*
X188354614Y-81330729D01*
X188461127Y-81231825D01*
X188501069Y-81096782D01*
X188489720Y-81031529D01*
X188478245Y-80965544D01*
X188407870Y-80859983D01*
X188287093Y-80790560D01*
X188207447Y-80772015D01*
X188114962Y-80765833D01*
X188013918Y-80774630D01*
X187923810Y-80801021D01*
X187787817Y-80870444D01*
X187871505Y-81041624D01*
X187984674Y-80987417D01*
X188116864Y-80965544D01*
X188224327Y-81002633D01*
X188263318Y-81104390D01*
X188245249Y-81176666D01*
X188198650Y-81222315D01*
X188133982Y-81247041D01*
X188061706Y-81254649D01*
X187974213Y-81254649D01*
X187974213Y-81448653D01*
X188046490Y-81448653D01*
X188150624Y-81457925D01*
X188234788Y-81485742D01*
X188290422Y-81536859D01*
X188308966Y-81616030D01*
X188260465Y-81743464D01*
X188194133Y-81781979D01*
X188092138Y-81794818D01*
X188002030Y-81789587D01*
X187925712Y-81773896D01*
X187812543Y-81733954D01*
X187766895Y-81929860D01*
X187438650Y-81929860D01*
X187495859Y-81906085D01*
X187593812Y-81791965D01*
X187620916Y-81711843D01*
X187629950Y-81614128D01*
X187587155Y-81458163D01*
X187525102Y-81391593D01*
X187424534Y-81340239D01*
X187533899Y-81237531D01*
X187574792Y-81089174D01*
X187557674Y-80978858D01*
X187493006Y-80879003D01*
X187361768Y-80806727D01*
X187265717Y-80786042D01*
X187173933Y-80780803D01*
X187144939Y-80779147D01*
X186987073Y-80787707D01*
X186840619Y-80807678D01*
X186840619Y-81950782D01*
X186332697Y-81950782D01*
X186332697Y-79430353D01*
X186842093Y-79430353D01*
X186925535Y-79445546D01*
X187009942Y-79456399D01*
X187173933Y-79465081D01*
X187269193Y-79460499D01*
X187358182Y-79446752D01*
X187506739Y-79385014D01*
X187606098Y-79269256D01*
X187633591Y-79187984D01*
X187635442Y-79167967D01*
X187754655Y-79167967D01*
X188252416Y-79167967D01*
X188252416Y-79449646D01*
X188489720Y-79449646D01*
X188489720Y-79167967D01*
X188618984Y-79167967D01*
X188618984Y-78973108D01*
X188489720Y-78973108D01*
X188489720Y-78255406D01*
X188277497Y-78255406D01*
X188200324Y-78337642D01*
X188123152Y-78430008D01*
X188112007Y-78444546D01*
X188047909Y-78528161D01*
X187976525Y-78627762D01*
X187909964Y-78726880D01*
X187849191Y-78823586D01*
X187796617Y-78914023D01*
X187754655Y-78994330D01*
X187754655Y-79167967D01*
X187635442Y-79167967D01*
X187642755Y-79088866D01*
X187631903Y-79007835D01*
X187599345Y-78930663D01*
X187536402Y-78863137D01*
X187434390Y-78811046D01*
X187545325Y-78706863D01*
X187586805Y-78556377D01*
X187569441Y-78444478D01*
X187503845Y-78343189D01*
X187370723Y-78269875D01*
X187273293Y-78248894D01*
X187180283Y-78243585D01*
X187150782Y-78241901D01*
X186990649Y-78250582D01*
X186842093Y-78270840D01*
X186842093Y-79430353D01*
X186332697Y-79430353D01*
X186332697Y-76909916D01*
X186843610Y-76909916D01*
X186928268Y-76925330D01*
X187013904Y-76936341D01*
X187180283Y-76945149D01*
X187276930Y-76940500D01*
X187367215Y-76926554D01*
X187449641Y-76892299D01*
X187785121Y-76892299D01*
X187840907Y-76913831D01*
X187922139Y-76934383D01*
X188016094Y-76949064D01*
X188112007Y-76954936D01*
X188224068Y-76947596D01*
X188321449Y-76925575D01*
X188404149Y-76890342D01*
X188472169Y-76843364D01*
X188562210Y-76719069D01*
X188591571Y-76563456D01*
X188578304Y-76449926D01*
X188538503Y-76354666D01*
X188472169Y-76277675D01*
X188378866Y-76219388D01*
X188258160Y-76180240D01*
X188110050Y-76160231D01*
X188119837Y-76048659D01*
X188129624Y-75917513D01*
X188546551Y-75917513D01*
X188546551Y-75717858D01*
X188245535Y-75717858D01*
X187928011Y-75717858D01*
X187920671Y-75867354D01*
X187910395Y-76022234D01*
X187896693Y-76181517D01*
X187879076Y-76344226D01*
X188013648Y-76348386D01*
X188119837Y-76360864D01*
X188261748Y-76407842D01*
X188328300Y-76480266D01*
X188344938Y-76573243D01*
X188335151Y-76637837D01*
X188298939Y-76693623D01*
X188226515Y-76733750D01*
X188110050Y-76749409D01*
X188018541Y-76745005D01*
X187943670Y-76731792D01*
X187834056Y-76692644D01*
X187785121Y-76892299D01*
X187449641Y-76892299D01*
X187517935Y-76863917D01*
X187618742Y-76746473D01*
X187646635Y-76664017D01*
X187655932Y-76563456D01*
X187644922Y-76481245D01*
X187611891Y-76402949D01*
X187548030Y-76334439D01*
X187444533Y-76281590D01*
X187557083Y-76175890D01*
X187599168Y-76023212D01*
X187581551Y-75909683D01*
X187514999Y-75806919D01*
X187379938Y-75732538D01*
X187281090Y-75711251D01*
X187186821Y-75705870D01*
X187156794Y-75704156D01*
X186994330Y-75712964D01*
X186843610Y-75733517D01*
X186843610Y-76909916D01*
X186332697Y-76909916D01*
X186332697Y-74389470D01*
X186845172Y-74389470D01*
X186931081Y-74405113D01*
X187017983Y-74416286D01*
X187103892Y-74422990D01*
X187186821Y-74425224D01*
X187284896Y-74420507D01*
X187376515Y-74406354D01*
X187458948Y-74381028D01*
X187529463Y-74342792D01*
X187631759Y-74223612D01*
X187660064Y-74139938D01*
X187669499Y-74037890D01*
X187658326Y-73954464D01*
X187638215Y-73906792D01*
X187822446Y-73906792D01*
X187834475Y-74072209D01*
X187870560Y-74205625D01*
X187930701Y-74307038D01*
X188013796Y-74378215D01*
X188118741Y-74420921D01*
X188245535Y-74435156D01*
X188339885Y-74425473D01*
X188420332Y-74396423D01*
X188541498Y-74296113D01*
X188612013Y-74161042D01*
X188634855Y-74016040D01*
X188613999Y-73865079D01*
X188545471Y-73739940D01*
X188423311Y-73654528D01*
X188340630Y-73630692D01*
X188241562Y-73622747D01*
X188178000Y-73631685D01*
X188104505Y-73656515D01*
X188173034Y-73527403D01*
X188283275Y-73442984D01*
X188422318Y-73396305D01*
X188577252Y-73380415D01*
X188563348Y-73171850D01*
X188403945Y-73183768D01*
X188259439Y-73219522D01*
X188132314Y-73278615D01*
X188025052Y-73360551D01*
X188012101Y-73376227D01*
X187938895Y-73464834D01*
X187875084Y-73590966D01*
X187835606Y-73738451D01*
X187822446Y-73906792D01*
X187638215Y-73906792D01*
X187624807Y-73875011D01*
X187560003Y-73805489D01*
X187454975Y-73751858D01*
X187569189Y-73644597D01*
X187611895Y-73489663D01*
X187594019Y-73374456D01*
X187526483Y-73270173D01*
X187389427Y-73194693D01*
X187289117Y-73173092D01*
X187193555Y-73167636D01*
X187162985Y-73165891D01*
X186998120Y-73174830D01*
X186845172Y-73195686D01*
X186845172Y-74389470D01*
X186332697Y-74389470D01*
X186332697Y-71869016D01*
X186846781Y-71869016D01*
X186933978Y-71884893D01*
X187022184Y-71896234D01*
X187109381Y-71903038D01*
X187193555Y-71905306D01*
X187293101Y-71900518D01*
X187386094Y-71886153D01*
X187469764Y-71860448D01*
X187541336Y-71821637D01*
X187645167Y-71700670D01*
X187673896Y-71615740D01*
X187683473Y-71512162D01*
X187672132Y-71427485D01*
X187638110Y-71346840D01*
X187572334Y-71276275D01*
X187465731Y-71221840D01*
X187581659Y-71112969D01*
X187614169Y-71039381D01*
X187625005Y-70955712D01*
X187606860Y-70838776D01*
X187538312Y-70732930D01*
X187399199Y-70656317D01*
X187328981Y-70641196D01*
X187844763Y-70641196D01*
X187844763Y-70846841D01*
X188368955Y-70846841D01*
X188313008Y-70946387D01*
X188254036Y-71063574D01*
X188195821Y-71193362D01*
X188142141Y-71330711D01*
X188094510Y-71472596D01*
X188054440Y-71615993D01*
X188025710Y-71756365D01*
X188012101Y-71889177D01*
X188264117Y-71889177D01*
X188282514Y-71727635D01*
X188317544Y-71565589D01*
X188364419Y-71408080D01*
X188418350Y-71260146D01*
X188477574Y-71124562D01*
X188540326Y-71004099D01*
X188602322Y-70903796D01*
X188659277Y-70828696D01*
X188659277Y-70641196D01*
X187844763Y-70641196D01*
X187328981Y-70641196D01*
X187297385Y-70634392D01*
X187169361Y-70627083D01*
X187002023Y-70636156D01*
X186846781Y-70657325D01*
X186846781Y-71869016D01*
X186332697Y-71869016D01*
X186332697Y-70207057D01*
X186752723Y-70207057D01*
X188659277Y-70207057D01*
X189079303Y-70207057D01*
X189079303Y-110132943D01*
G37*
G36*
X188188197Y-88592226D02*
G01*
X188247723Y-88668172D01*
X188283986Y-88792470D01*
X188296074Y-88962837D01*
X188283986Y-89134572D01*
X188247723Y-89259326D01*
X188188197Y-89335273D01*
X188108145Y-89360024D01*
X188106321Y-89360588D01*
X188025585Y-89335273D01*
X187965831Y-89259326D01*
X187928884Y-89134572D01*
X187916568Y-88962837D01*
X187917887Y-88944591D01*
X188005971Y-88944591D01*
X188033339Y-89029433D01*
X188108145Y-89065012D01*
X188180215Y-89029433D01*
X188208496Y-88944591D01*
X188180215Y-88858838D01*
X188108145Y-88822347D01*
X188033339Y-88858838D01*
X188005971Y-88944591D01*
X187917887Y-88944591D01*
X187928884Y-88792470D01*
X187965831Y-88668172D01*
X188025585Y-88592226D01*
X188106321Y-88566910D01*
X188188197Y-88592226D01*
G37*
G36*
X188046129Y-108845366D02*
G01*
X188099823Y-108913873D01*
X188132534Y-109025994D01*
X188143437Y-109179672D01*
X188132534Y-109334585D01*
X188099823Y-109447117D01*
X188046129Y-109515625D01*
X187973918Y-109537951D01*
X187972273Y-109538460D01*
X187899445Y-109515625D01*
X187845545Y-109447117D01*
X187812217Y-109334585D01*
X187801108Y-109179672D01*
X187802298Y-109163214D01*
X187881753Y-109163214D01*
X187906440Y-109239745D01*
X187973918Y-109271838D01*
X188038928Y-109239745D01*
X188064438Y-109163214D01*
X188038928Y-109085861D01*
X187973918Y-109052944D01*
X187906440Y-109085861D01*
X187881753Y-109163214D01*
X187802298Y-109163214D01*
X187812217Y-109025994D01*
X187845545Y-108913873D01*
X187899445Y-108845366D01*
X187972273Y-108822530D01*
X188046129Y-108845366D01*
G37*
G36*
X188297676Y-73838016D02*
G01*
X188354783Y-73876004D01*
X188396496Y-74020013D01*
X188387557Y-74089535D01*
X188359749Y-74155083D01*
X188311084Y-74204742D01*
X188239576Y-74224605D01*
X188153170Y-74199776D01*
X188098546Y-74133234D01*
X188070738Y-74038883D01*
X188062792Y-73928642D01*
X188063786Y-73890902D01*
X188066765Y-73855148D01*
X188132314Y-73833298D01*
X188209781Y-73825353D01*
X188297676Y-73838016D01*
G37*
G36*
X187219440Y-91271879D02*
G01*
X187248242Y-91383486D01*
X187272543Y-91494193D01*
X187294145Y-91609400D01*
X187076331Y-91609400D01*
X187098833Y-91494193D01*
X187124034Y-91383486D01*
X187152836Y-91271879D01*
X187186138Y-91152172D01*
X187219440Y-91271879D01*
G37*
G36*
X188252416Y-78973108D02*
G01*
X187982313Y-78973108D01*
X188040192Y-78863137D01*
X188108682Y-78752202D01*
X188181031Y-78647055D01*
X188252416Y-78552519D01*
X188252416Y-78973108D01*
G37*
G36*
X187213076Y-93802325D02*
G01*
X187241497Y-93912457D01*
X187265478Y-94021700D01*
X187286794Y-94135385D01*
X187071859Y-94135385D01*
X187094063Y-94021700D01*
X187118931Y-93912457D01*
X187147352Y-93802325D01*
X187180214Y-93684199D01*
X187213076Y-93802325D01*
G37*
G36*
X187206878Y-96332502D02*
G01*
X187234929Y-96441197D01*
X187258596Y-96549016D01*
X187279634Y-96661218D01*
X187067503Y-96661218D01*
X187089417Y-96549016D01*
X187113961Y-96441197D01*
X187142012Y-96332502D01*
X187174445Y-96215917D01*
X187206878Y-96332502D01*
G37*
G36*
X187382062Y-71382122D02*
G01*
X187439522Y-71512162D01*
X187419361Y-71601880D01*
X187367949Y-71656315D01*
X187296377Y-71682525D01*
X187213716Y-71689581D01*
X187152224Y-71687565D01*
X187094764Y-71681517D01*
X187094764Y-71342808D01*
X187227829Y-71342808D01*
X187382062Y-71382122D01*
G37*
G36*
X187200840Y-98862421D02*
G01*
X187228530Y-98969717D01*
X187251892Y-99076147D01*
X187272659Y-99186904D01*
X187063259Y-99186904D01*
X187084891Y-99076147D01*
X187109120Y-98969717D01*
X187136809Y-98862421D01*
X187168825Y-98747337D01*
X187200840Y-98862421D01*
G37*
G36*
X187372543Y-73909772D02*
G01*
X187429153Y-74037890D01*
X187409290Y-74126282D01*
X187358638Y-74179913D01*
X187288124Y-74205735D01*
X187206684Y-74212687D01*
X187146101Y-74210701D01*
X187089491Y-74204742D01*
X187089491Y-73871038D01*
X187220588Y-73871038D01*
X187372543Y-73909772D01*
G37*
G36*
X187194956Y-101392091D02*
G01*
X187222293Y-101498023D01*
X187245359Y-101603101D01*
X187265862Y-101712450D01*
X187059123Y-101712450D01*
X187080481Y-101603101D01*
X187104401Y-101498023D01*
X187131738Y-101392091D01*
X187163347Y-101278471D01*
X187194956Y-101392091D01*
G37*
G36*
X187363300Y-76437203D02*
G01*
X187419086Y-76563456D01*
X187399512Y-76650560D01*
X187349599Y-76703410D01*
X187280111Y-76728856D01*
X187199857Y-76735707D01*
X187140157Y-76733750D01*
X187084371Y-76727877D01*
X187084371Y-76399034D01*
X187213559Y-76399034D01*
X187363300Y-76437203D01*
G37*
G36*
X187189219Y-103921523D02*
G01*
X187216213Y-104026126D01*
X187238989Y-104129884D01*
X187259235Y-104237861D01*
X187055091Y-104237861D01*
X187076181Y-104129884D01*
X187099800Y-104026126D01*
X187126795Y-103921523D01*
X187158007Y-103809329D01*
X187189219Y-103921523D01*
G37*
G36*
X187183624Y-106450725D02*
G01*
X187210283Y-106554031D01*
X187232777Y-106656503D01*
X187252772Y-106763141D01*
X187051159Y-106763141D01*
X187071987Y-106656503D01*
X187095314Y-106554031D01*
X187121974Y-106450725D01*
X187152799Y-106339922D01*
X187183624Y-106450725D01*
G37*
G36*
X187354324Y-78964426D02*
G01*
X187409309Y-79088866D01*
X187390016Y-79174720D01*
X187340818Y-79226811D01*
X187272328Y-79251892D01*
X187193227Y-79258645D01*
X187134383Y-79256716D01*
X187079397Y-79250928D01*
X187079397Y-78926804D01*
X187206732Y-78926804D01*
X187354324Y-78964426D01*
G37*
G36*
X188183836Y-94093641D02*
G01*
X188221139Y-94222425D01*
X188213145Y-94284596D01*
X188188277Y-94343215D01*
X188144757Y-94387623D01*
X188080809Y-94405386D01*
X188003539Y-94383182D01*
X187954691Y-94323675D01*
X187929822Y-94239300D01*
X187922717Y-94140714D01*
X187923605Y-94106964D01*
X187926269Y-94074990D01*
X187984888Y-94055450D01*
X188054165Y-94048345D01*
X188183836Y-94093641D01*
G37*
G36*
X187178166Y-108979706D02*
G01*
X187204499Y-109081746D01*
X187226718Y-109182964D01*
X187246468Y-109288296D01*
X187047324Y-109288296D01*
X187067896Y-109182964D01*
X187090938Y-109081746D01*
X187117271Y-108979706D01*
X187147719Y-108870259D01*
X187178166Y-108979706D01*
G37*
G36*
X187345601Y-81491448D02*
G01*
X187399808Y-81614128D01*
X187380788Y-81698767D01*
X187332287Y-81750121D01*
X187264766Y-81774847D01*
X187186783Y-81781504D01*
X187128772Y-81779602D01*
X187074565Y-81773896D01*
X187074565Y-81454359D01*
X187200097Y-81454359D01*
X187345601Y-81491448D01*
G37*
G36*
X187337121Y-84018279D02*
G01*
X187390572Y-84139247D01*
X187371817Y-84222705D01*
X187323993Y-84273342D01*
X187257414Y-84297724D01*
X187180520Y-84304288D01*
X187123318Y-84302412D01*
X187069868Y-84296786D01*
X187069868Y-83981708D01*
X187193648Y-83981708D01*
X187337121Y-84018279D01*
G37*
G36*
X187328875Y-86544926D02*
G01*
X187381591Y-86664229D01*
X187363094Y-86746539D01*
X187315928Y-86796480D01*
X187250265Y-86820525D01*
X187174429Y-86826999D01*
X187118015Y-86825149D01*
X187065299Y-86819600D01*
X187065299Y-86508858D01*
X187187377Y-86508858D01*
X187328875Y-86544926D01*
G37*
G36*
X188096415Y-99183443D02*
G01*
X187854134Y-99183443D01*
X187906051Y-99084800D01*
X187967487Y-98985292D01*
X188032384Y-98890975D01*
X188096415Y-98806177D01*
X188096415Y-99183443D01*
G37*
G36*
X187320853Y-89071397D02*
G01*
X187372853Y-89189081D01*
X187354607Y-89270273D01*
X187308081Y-89319536D01*
X187243310Y-89343255D01*
X187168503Y-89349641D01*
X187112855Y-89347816D01*
X187060855Y-89342343D01*
X187060855Y-89035819D01*
X187181275Y-89035819D01*
X187320853Y-89071397D01*
G37*
G36*
X187274200Y-70847849D02*
G01*
X187330651Y-70868010D01*
X187368957Y-70910349D01*
X187383070Y-70981921D01*
X187334683Y-71095832D01*
X187191538Y-71137163D01*
X187094764Y-71137163D01*
X187094764Y-70850873D01*
X187149200Y-70844825D01*
X187207667Y-70842809D01*
X187274200Y-70847849D01*
G37*
G36*
X187266274Y-73383394D02*
G01*
X187321891Y-73403258D01*
X187359632Y-73444970D01*
X187373536Y-73515485D01*
X187325864Y-73627713D01*
X187184835Y-73668433D01*
X187089491Y-73668433D01*
X187089491Y-73386374D01*
X187143122Y-73380415D01*
X187200725Y-73378428D01*
X187266274Y-73383394D01*
G37*
G36*
X187258579Y-75918491D02*
G01*
X187313387Y-75938065D01*
X187350577Y-75979171D01*
X187364279Y-76048659D01*
X187317302Y-76159252D01*
X187178326Y-76199379D01*
X187084371Y-76199379D01*
X187084371Y-75921427D01*
X187137220Y-75915555D01*
X187193985Y-75913598D01*
X187258579Y-75918491D01*
G37*
G36*
X187251106Y-78453160D02*
G01*
X187305126Y-78472453D01*
X187341783Y-78512968D01*
X187355288Y-78581458D01*
X187308985Y-78690464D01*
X187172004Y-78730015D01*
X187079397Y-78730015D01*
X187079397Y-78456053D01*
X187131489Y-78450266D01*
X187187439Y-78448336D01*
X187251106Y-78453160D01*
G37*
G36*
X187243844Y-80987417D02*
G01*
X187297100Y-81006437D01*
X187333238Y-81046379D01*
X187346552Y-81113900D01*
X187300904Y-81221364D01*
X187165861Y-81260355D01*
X187074565Y-81260355D01*
X187074565Y-80990270D01*
X187125919Y-80984564D01*
X187181077Y-80982662D01*
X187243844Y-80987417D01*
G37*
G36*
X187236784Y-83521281D02*
G01*
X187289297Y-83540036D01*
X187324931Y-83579420D01*
X187338059Y-83645999D01*
X187293048Y-83751963D01*
X187159890Y-83790410D01*
X187069868Y-83790410D01*
X187069868Y-83524094D01*
X187120505Y-83518468D01*
X187174894Y-83516592D01*
X187236784Y-83521281D01*
G37*
G36*
X187229919Y-86054768D02*
G01*
X187281709Y-86073264D01*
X187316853Y-86112107D01*
X187329800Y-86177770D01*
X187285408Y-86282275D01*
X187154083Y-86320193D01*
X187065299Y-86320193D01*
X187065299Y-86057542D01*
X187115240Y-86051993D01*
X187168880Y-86050143D01*
X187229919Y-86054768D01*
G37*
G36*
X187223240Y-88587892D02*
G01*
X187274327Y-88606138D01*
X187308994Y-88644453D01*
X187321765Y-88709225D01*
X187277976Y-88812312D01*
X187148433Y-88849715D01*
X187060855Y-88849715D01*
X187060855Y-88590629D01*
X187110118Y-88585156D01*
X187163030Y-88583331D01*
X187223240Y-88587892D01*
G37*
%TO.C,kibuzzard-64B17C80*%
G36*
X177870048Y-111194652D02*
G01*
X177934144Y-111203581D01*
X178039712Y-111243269D01*
X178109562Y-111316294D01*
X178134962Y-111428213D01*
X178134962Y-111445675D01*
X178133375Y-111463138D01*
X177472975Y-111463138D01*
X177469006Y-111434563D01*
X177468212Y-111405988D01*
X177495994Y-111299625D01*
X177569812Y-111234538D01*
X177676175Y-111201200D01*
X177800000Y-111191675D01*
X177870048Y-111194652D01*
G37*
G36*
X178643492Y-111974313D02*
G01*
X178643492Y-112887125D01*
X178643492Y-113288763D01*
X178643492Y-113619492D01*
X176956508Y-113619492D01*
X176956508Y-113288763D01*
X176956508Y-112863313D01*
X177287237Y-112863313D01*
X177295373Y-112949434D01*
X177319781Y-113030000D01*
X177360461Y-113102628D01*
X177417412Y-113164938D01*
X177490239Y-113216134D01*
X177578544Y-113255425D01*
X177681930Y-113280428D01*
X177800000Y-113288763D01*
X177919261Y-113281619D01*
X178023044Y-113260188D01*
X178111150Y-113225659D01*
X178183381Y-113179225D01*
X178239737Y-113121480D01*
X178280219Y-113053019D01*
X178304627Y-112974636D01*
X178312762Y-112887125D01*
X178308794Y-112790089D01*
X178296887Y-112708531D01*
X178268312Y-112599788D01*
X177777775Y-112599788D01*
X177777775Y-112795050D01*
X178136550Y-112795050D01*
X178141312Y-112833150D01*
X178142900Y-112871250D01*
X178122064Y-112966103D01*
X178059556Y-113034763D01*
X177993675Y-113065631D01*
X177907156Y-113084151D01*
X177800000Y-113090325D01*
X177727173Y-113086952D01*
X177661094Y-113076831D01*
X177553144Y-113032381D01*
X177482500Y-112953800D01*
X177457100Y-112836325D01*
X177474562Y-112731550D01*
X177514250Y-112645825D01*
X177358675Y-112595025D01*
X177339625Y-112627569D01*
X177315812Y-112682338D01*
X177295969Y-112760919D01*
X177287237Y-112863313D01*
X176956508Y-112863313D01*
X176956508Y-112464850D01*
X177309462Y-112464850D01*
X178292125Y-112464850D01*
X178292125Y-112288638D01*
X177639662Y-112288638D01*
X177748583Y-112229635D01*
X177857326Y-112173279D01*
X177965894Y-112119569D01*
X178074461Y-112068504D01*
X178183205Y-112020085D01*
X178292125Y-111974313D01*
X178292125Y-111817150D01*
X177309462Y-111817150D01*
X177309462Y-111993363D01*
X177914300Y-111993363D01*
X177852387Y-112021342D01*
X177780950Y-112054481D01*
X177703559Y-112091788D01*
X177623787Y-112132269D01*
X177542627Y-112174933D01*
X177461069Y-112218788D01*
X177382289Y-112263238D01*
X177309462Y-112307688D01*
X177309462Y-112464850D01*
X176956508Y-112464850D01*
X176956508Y-111423450D01*
X177298350Y-111423450D01*
X177303112Y-111532988D01*
X177322162Y-111658400D01*
X178281012Y-111658400D01*
X178299269Y-111551244D01*
X178304825Y-111448850D01*
X178297880Y-111353005D01*
X178277044Y-111265494D01*
X178241127Y-111187905D01*
X178188937Y-111121825D01*
X178119683Y-111068048D01*
X178032569Y-111027369D01*
X177926405Y-111001770D01*
X177800000Y-110993237D01*
X177676373Y-111000977D01*
X177572194Y-111024194D01*
X177486072Y-111061302D01*
X177416619Y-111110713D01*
X177363636Y-111172427D01*
X177326925Y-111246444D01*
X177305494Y-111330780D01*
X177298350Y-111423450D01*
X176956508Y-111423450D01*
X176956508Y-110993237D01*
X176956508Y-110662508D01*
X178643492Y-110662508D01*
X178643492Y-110993237D01*
X178643492Y-111448850D01*
X178643492Y-111974313D01*
G37*
D11*
%TO.C,J2*%
X165480000Y-88700000D02*
X163740000Y-88700000D01*
X163740000Y-88700000D02*
X163740000Y-90200000D01*
X171100000Y-88940000D02*
X163980000Y-88940000D01*
X171100000Y-88940000D02*
X171100000Y-110760000D01*
X165540000Y-88940000D02*
X165540000Y-110760000D01*
X163980000Y-88940000D02*
X163980000Y-110760000D01*
X171100000Y-110760000D02*
X163980000Y-110760000D01*
X168248000Y-89668000D02*
G75*
G03*
X167032258Y-89667891I-608000J-1432000D01*
G01*
X169072000Y-91708000D02*
G75*
G03*
X169072109Y-90492258I-1432000J608000D01*
G01*
X166208001Y-90492000D02*
G75*
G03*
X166084508Y-91127011I1431987J-607998D01*
G01*
X166085001Y-91100000D02*
G75*
G03*
X166208616Y-91707587I1554999J0D01*
G01*
X167032000Y-92532000D02*
G75*
G03*
X168247742Y-92532109I607999J1432003D01*
G01*
X169195000Y-94600000D02*
G75*
G03*
X169195000Y-94600000I-1555000J0D01*
G01*
X169195000Y-98100000D02*
G75*
G03*
X169195000Y-98100000I-1555000J0D01*
G01*
X169195000Y-101600000D02*
G75*
G03*
X169195000Y-101600000I-1555000J0D01*
G01*
X169195000Y-105100000D02*
G75*
G03*
X169195000Y-105100000I-1555000J0D01*
G01*
X169195000Y-108600000D02*
G75*
G03*
X169195000Y-108600000I-1555000J0D01*
G01*
%TO.C,kibuzzard-64B17C80*%
G36*
X195777048Y-67252652D02*
G01*
X195841144Y-67261581D01*
X195946712Y-67301269D01*
X196016562Y-67374294D01*
X196041962Y-67486213D01*
X196041962Y-67503675D01*
X196040375Y-67521138D01*
X195379975Y-67521138D01*
X195376006Y-67492563D01*
X195375212Y-67463988D01*
X195402994Y-67357625D01*
X195476812Y-67292538D01*
X195583175Y-67259200D01*
X195707000Y-67249675D01*
X195777048Y-67252652D01*
G37*
G36*
X196550492Y-68032313D02*
G01*
X196550492Y-68945125D01*
X196550492Y-69346763D01*
X196550492Y-69677492D01*
X194863508Y-69677492D01*
X194863508Y-69346763D01*
X194863508Y-68921313D01*
X195194237Y-68921313D01*
X195202373Y-69007434D01*
X195226781Y-69088000D01*
X195267461Y-69160628D01*
X195324412Y-69222938D01*
X195397239Y-69274134D01*
X195485544Y-69313425D01*
X195588930Y-69338428D01*
X195707000Y-69346763D01*
X195826261Y-69339619D01*
X195930044Y-69318188D01*
X196018150Y-69283659D01*
X196090381Y-69237225D01*
X196146737Y-69179480D01*
X196187219Y-69111019D01*
X196211627Y-69032636D01*
X196219762Y-68945125D01*
X196215794Y-68848089D01*
X196203887Y-68766531D01*
X196175312Y-68657788D01*
X195684775Y-68657788D01*
X195684775Y-68853050D01*
X196043550Y-68853050D01*
X196048312Y-68891150D01*
X196049900Y-68929250D01*
X196029064Y-69024103D01*
X195966556Y-69092763D01*
X195900675Y-69123631D01*
X195814156Y-69142151D01*
X195707000Y-69148325D01*
X195634173Y-69144952D01*
X195568094Y-69134831D01*
X195460144Y-69090381D01*
X195389500Y-69011800D01*
X195364100Y-68894325D01*
X195381562Y-68789550D01*
X195421250Y-68703825D01*
X195265675Y-68653025D01*
X195246625Y-68685569D01*
X195222812Y-68740338D01*
X195202969Y-68818919D01*
X195194237Y-68921313D01*
X194863508Y-68921313D01*
X194863508Y-68522850D01*
X195216462Y-68522850D01*
X196199125Y-68522850D01*
X196199125Y-68346638D01*
X195546662Y-68346638D01*
X195655583Y-68287635D01*
X195764326Y-68231279D01*
X195872894Y-68177569D01*
X195981461Y-68126504D01*
X196090205Y-68078085D01*
X196199125Y-68032313D01*
X196199125Y-67875150D01*
X195216462Y-67875150D01*
X195216462Y-68051363D01*
X195821300Y-68051363D01*
X195759387Y-68079342D01*
X195687950Y-68112481D01*
X195610559Y-68149788D01*
X195530787Y-68190269D01*
X195449627Y-68232933D01*
X195368069Y-68276788D01*
X195289289Y-68321238D01*
X195216462Y-68365688D01*
X195216462Y-68522850D01*
X194863508Y-68522850D01*
X194863508Y-67481450D01*
X195205350Y-67481450D01*
X195210112Y-67590988D01*
X195229162Y-67716400D01*
X196188012Y-67716400D01*
X196206269Y-67609244D01*
X196211825Y-67506850D01*
X196204880Y-67411005D01*
X196184044Y-67323494D01*
X196148127Y-67245905D01*
X196095937Y-67179825D01*
X196026683Y-67126048D01*
X195939569Y-67085369D01*
X195833405Y-67059770D01*
X195707000Y-67051237D01*
X195583373Y-67058977D01*
X195479194Y-67082194D01*
X195393072Y-67119302D01*
X195323619Y-67168713D01*
X195270636Y-67230427D01*
X195233925Y-67304444D01*
X195212494Y-67388780D01*
X195205350Y-67481450D01*
X194863508Y-67481450D01*
X194863508Y-67051237D01*
X194863508Y-66720508D01*
X196550492Y-66720508D01*
X196550492Y-67051237D01*
X196550492Y-67506850D01*
X196550492Y-68032313D01*
G37*
%TO.C,J1*%
X185420000Y-66421000D02*
X185420000Y-58801000D01*
X185420000Y-58801000D02*
X175260000Y-58801000D01*
X175260000Y-66421000D02*
X185420000Y-66421000D01*
X175260000Y-60071000D02*
X185420000Y-60071000D01*
X175260000Y-58801000D02*
X175260000Y-66421000D01*
%TO.C,kibuzzard-64B17BDD*%
G36*
X172808900Y-81980087D02*
G01*
X172855731Y-82053112D01*
X172877956Y-82161856D01*
X172882123Y-82226745D01*
X172883512Y-82296000D01*
X172882123Y-82365056D01*
X172877956Y-82429350D01*
X172855731Y-82538094D01*
X172808106Y-82611912D01*
X172727937Y-82638900D01*
X172646975Y-82611912D01*
X172600144Y-82538887D01*
X172577919Y-82430144D01*
X172573752Y-82365255D01*
X172572362Y-82296000D01*
X172573752Y-82226944D01*
X172577919Y-82162650D01*
X172600144Y-82053906D01*
X172646975Y-81980087D01*
X172727937Y-81953100D01*
X172808900Y-81980087D01*
G37*
G36*
X174958904Y-83139492D02*
G01*
X174628175Y-83139492D01*
X174004287Y-83139492D01*
X173493113Y-83139492D01*
X172729525Y-83139492D01*
X172294550Y-83139492D01*
X171573825Y-83139492D01*
X171243096Y-83139492D01*
X171243096Y-82788125D01*
X171573825Y-82788125D01*
X171753212Y-82788125D01*
X171745275Y-82024537D01*
X171861162Y-82440462D01*
X172004037Y-82440462D01*
X172124687Y-82024537D01*
X172115162Y-82788125D01*
X172294550Y-82788125D01*
X172290978Y-82662514D01*
X172286612Y-82539681D01*
X172281255Y-82418634D01*
X172274706Y-82298381D01*
X172274549Y-82296000D01*
X172373925Y-82296000D01*
X172379630Y-82415211D01*
X172396745Y-82518845D01*
X172425271Y-82606902D01*
X172465206Y-82679381D01*
X172535144Y-82751260D01*
X172623251Y-82794387D01*
X172729525Y-82808762D01*
X172833242Y-82794387D01*
X172920025Y-82751260D01*
X172936652Y-82734150D01*
X173188313Y-82734150D01*
X173297850Y-82782569D01*
X173383178Y-82802214D01*
X173493113Y-82808762D01*
X173604502Y-82800384D01*
X173695254Y-82775249D01*
X173765369Y-82733356D01*
X173832639Y-82642273D01*
X173855063Y-82519837D01*
X173848316Y-82445820D01*
X173828075Y-82385694D01*
X173759019Y-82296794D01*
X173666944Y-82239644D01*
X173570900Y-82200750D01*
X173509781Y-82176937D01*
X173454219Y-82147569D01*
X173413738Y-82109469D01*
X173397863Y-82059462D01*
X173415149Y-81996844D01*
X173467007Y-81959274D01*
X173553438Y-81946750D01*
X173665356Y-81962625D01*
X173753462Y-82000725D01*
X173810613Y-81849912D01*
X173701019Y-81805462D01*
X174004287Y-81805462D01*
X174004287Y-81967387D01*
X174218600Y-81967387D01*
X174218600Y-82626200D01*
X174004287Y-82626200D01*
X174004287Y-82788125D01*
X174628175Y-82788125D01*
X174628175Y-82626200D01*
X174415450Y-82626200D01*
X174415450Y-81967387D01*
X174628175Y-81967387D01*
X174628175Y-81805462D01*
X174004287Y-81805462D01*
X173701019Y-81805462D01*
X173697106Y-81803875D01*
X173623883Y-81788397D01*
X173539150Y-81783237D01*
X173441872Y-81791881D01*
X173359586Y-81817810D01*
X173292294Y-81861025D01*
X173225023Y-81953894D01*
X173202600Y-82076925D01*
X173228000Y-82193606D01*
X173292294Y-82272187D01*
X173378812Y-82324575D01*
X173470887Y-82361087D01*
X173537563Y-82388869D01*
X173597888Y-82422206D01*
X173642337Y-82464275D01*
X173659800Y-82518250D01*
X173652656Y-82565081D01*
X173626463Y-82606356D01*
X173574869Y-82634931D01*
X173493113Y-82645250D01*
X173413936Y-82639694D01*
X173347856Y-82623025D01*
X173245463Y-82575400D01*
X173188313Y-82734150D01*
X172936652Y-82734150D01*
X172989875Y-82679381D01*
X173030158Y-82606902D01*
X173058931Y-82518845D01*
X173076195Y-82415211D01*
X173081950Y-82296000D01*
X173076295Y-82176789D01*
X173059328Y-82073155D01*
X173031051Y-81985098D01*
X172991463Y-81912619D01*
X172921965Y-81840740D01*
X172834124Y-81797613D01*
X172727937Y-81783237D01*
X172624926Y-81797613D01*
X172538143Y-81840740D01*
X172467587Y-81912619D01*
X172426610Y-81985098D01*
X172397341Y-82073155D01*
X172379779Y-82176789D01*
X172373925Y-82296000D01*
X172274549Y-82296000D01*
X172266769Y-82177930D01*
X172257244Y-82056287D01*
X172246727Y-81932462D01*
X172235812Y-81805462D01*
X172073887Y-81805462D01*
X172045312Y-81889600D01*
X172010387Y-81998344D01*
X171970700Y-82118994D01*
X171931012Y-82240437D01*
X171894500Y-82126137D01*
X171856400Y-82003900D01*
X171820681Y-81891187D01*
X171792900Y-81805462D01*
X171630975Y-81805462D01*
X171620458Y-81913016D01*
X171611131Y-82029300D01*
X171602995Y-82151934D01*
X171596050Y-82278537D01*
X171589898Y-82407522D01*
X171584144Y-82537300D01*
X171578786Y-82665094D01*
X171573825Y-82788125D01*
X171243096Y-82788125D01*
X171243096Y-81452508D01*
X171573825Y-81452508D01*
X174628175Y-81452508D01*
X174958904Y-81452508D01*
X174958904Y-83139492D01*
G37*
%TO.C,J7*%
X196910000Y-110550000D02*
X195580000Y-110550000D01*
X196910000Y-109220000D02*
X196910000Y-110550000D01*
X196910000Y-107950000D02*
X196910000Y-69790000D01*
X196910000Y-107950000D02*
X194250000Y-107950000D01*
X196910000Y-69790000D02*
X194250000Y-69790000D01*
X194250000Y-107950000D02*
X194250000Y-69790000D01*
%TO.C,kibuzzard-64B17C26*%
G36*
X174283688Y-104960737D02*
G01*
X174309088Y-105059163D01*
X174330519Y-105156794D01*
X174349569Y-105258394D01*
X174157481Y-105258394D01*
X174177325Y-105156794D01*
X174199550Y-105059163D01*
X174224950Y-104960737D01*
X174254319Y-104855169D01*
X174283688Y-104960737D01*
G37*
G36*
X174969223Y-105978060D02*
G01*
X174638494Y-105978060D01*
X174428944Y-105978060D01*
X173560581Y-105978060D01*
X172835094Y-105978060D01*
X171563506Y-105978060D01*
X171232777Y-105978060D01*
X171232777Y-104664669D01*
X171563506Y-104664669D01*
X171563506Y-104826594D01*
X171777819Y-104826594D01*
X171777819Y-105485406D01*
X171563506Y-105485406D01*
X171563506Y-105647331D01*
X172187394Y-105647331D01*
X172187394Y-105485406D01*
X171974669Y-105485406D01*
X171974669Y-104826594D01*
X172187394Y-104826594D01*
X172187394Y-104664669D01*
X172344556Y-104664669D01*
X172344556Y-105647331D01*
X172520769Y-105647331D01*
X172520769Y-104994869D01*
X172579771Y-105103789D01*
X172636127Y-105212533D01*
X172689837Y-105321100D01*
X172740902Y-105429667D01*
X172789321Y-105538411D01*
X172835094Y-105647331D01*
X172992256Y-105647331D01*
X172992256Y-104664669D01*
X173104969Y-104664669D01*
X173104969Y-104826594D01*
X173363731Y-104826594D01*
X173363731Y-105647331D01*
X173560581Y-105647331D01*
X173873319Y-105647331D01*
X174076519Y-105647331D01*
X174120969Y-105420319D01*
X174382906Y-105420319D01*
X174428944Y-105647331D01*
X174638494Y-105647331D01*
X174612300Y-105535921D01*
X174585789Y-105427748D01*
X174558960Y-105322815D01*
X174531814Y-105221119D01*
X174504350Y-105122662D01*
X174469772Y-105003253D01*
X174435095Y-104887117D01*
X174400319Y-104774256D01*
X174365444Y-104664669D01*
X174152719Y-104664669D01*
X174119084Y-104773363D01*
X174084853Y-104885133D01*
X174050027Y-104999979D01*
X174014606Y-105117900D01*
X173986095Y-105215531D01*
X173957710Y-105317290D01*
X173929453Y-105423176D01*
X173901322Y-105533190D01*
X173873319Y-105647331D01*
X173560581Y-105647331D01*
X173560581Y-104826594D01*
X173819344Y-104826594D01*
X173819344Y-104664669D01*
X173104969Y-104664669D01*
X172992256Y-104664669D01*
X172816044Y-104664669D01*
X172816044Y-105269506D01*
X172788064Y-105207594D01*
X172754925Y-105136156D01*
X172717619Y-105058766D01*
X172677138Y-104978994D01*
X172634473Y-104897833D01*
X172590619Y-104816275D01*
X172546169Y-104737495D01*
X172501719Y-104664669D01*
X172344556Y-104664669D01*
X172187394Y-104664669D01*
X171563506Y-104664669D01*
X171232777Y-104664669D01*
X171232777Y-104333940D01*
X171563506Y-104333940D01*
X174638494Y-104333940D01*
X174969223Y-104333940D01*
X174969223Y-105978060D01*
G37*
%TO.C,kibuzzard-64B17BDD*%
G36*
X172808900Y-97855087D02*
G01*
X172855731Y-97928112D01*
X172877956Y-98036856D01*
X172882123Y-98101745D01*
X172883512Y-98171000D01*
X172882123Y-98240056D01*
X172877956Y-98304350D01*
X172855731Y-98413094D01*
X172808106Y-98486912D01*
X172727937Y-98513900D01*
X172646975Y-98486912D01*
X172600144Y-98413887D01*
X172577919Y-98305144D01*
X172573752Y-98240255D01*
X172572362Y-98171000D01*
X172573752Y-98101944D01*
X172577919Y-98037650D01*
X172600144Y-97928906D01*
X172646975Y-97855087D01*
X172727937Y-97828100D01*
X172808900Y-97855087D01*
G37*
G36*
X174958904Y-99014492D02*
G01*
X174628175Y-99014492D01*
X174004287Y-99014492D01*
X173493113Y-99014492D01*
X172729525Y-99014492D01*
X172294550Y-99014492D01*
X171573825Y-99014492D01*
X171243096Y-99014492D01*
X171243096Y-98663125D01*
X171573825Y-98663125D01*
X171753212Y-98663125D01*
X171745275Y-97899537D01*
X171861162Y-98315462D01*
X172004037Y-98315462D01*
X172124687Y-97899537D01*
X172115162Y-98663125D01*
X172294550Y-98663125D01*
X172290978Y-98537514D01*
X172286612Y-98414681D01*
X172281255Y-98293634D01*
X172274706Y-98173381D01*
X172274549Y-98171000D01*
X172373925Y-98171000D01*
X172379630Y-98290211D01*
X172396745Y-98393845D01*
X172425271Y-98481902D01*
X172465206Y-98554381D01*
X172535144Y-98626260D01*
X172623251Y-98669387D01*
X172729525Y-98683762D01*
X172833242Y-98669387D01*
X172920025Y-98626260D01*
X172936652Y-98609150D01*
X173188313Y-98609150D01*
X173297850Y-98657569D01*
X173383178Y-98677214D01*
X173493113Y-98683762D01*
X173604502Y-98675384D01*
X173695254Y-98650249D01*
X173765369Y-98608356D01*
X173832639Y-98517273D01*
X173855063Y-98394837D01*
X173848316Y-98320820D01*
X173828075Y-98260694D01*
X173759019Y-98171794D01*
X173666944Y-98114644D01*
X173570900Y-98075750D01*
X173509781Y-98051937D01*
X173454219Y-98022569D01*
X173413738Y-97984469D01*
X173397863Y-97934462D01*
X173415149Y-97871844D01*
X173467007Y-97834274D01*
X173553438Y-97821750D01*
X173665356Y-97837625D01*
X173753462Y-97875725D01*
X173810613Y-97724912D01*
X173701019Y-97680462D01*
X174004287Y-97680462D01*
X174004287Y-97842387D01*
X174218600Y-97842387D01*
X174218600Y-98501200D01*
X174004287Y-98501200D01*
X174004287Y-98663125D01*
X174628175Y-98663125D01*
X174628175Y-98501200D01*
X174415450Y-98501200D01*
X174415450Y-97842387D01*
X174628175Y-97842387D01*
X174628175Y-97680462D01*
X174004287Y-97680462D01*
X173701019Y-97680462D01*
X173697106Y-97678875D01*
X173623883Y-97663397D01*
X173539150Y-97658237D01*
X173441872Y-97666881D01*
X173359586Y-97692810D01*
X173292294Y-97736025D01*
X173225023Y-97828894D01*
X173202600Y-97951925D01*
X173228000Y-98068606D01*
X173292294Y-98147187D01*
X173378812Y-98199575D01*
X173470887Y-98236087D01*
X173537563Y-98263869D01*
X173597888Y-98297206D01*
X173642337Y-98339275D01*
X173659800Y-98393250D01*
X173652656Y-98440081D01*
X173626463Y-98481356D01*
X173574869Y-98509931D01*
X173493113Y-98520250D01*
X173413936Y-98514694D01*
X173347856Y-98498025D01*
X173245463Y-98450400D01*
X173188313Y-98609150D01*
X172936652Y-98609150D01*
X172989875Y-98554381D01*
X173030158Y-98481902D01*
X173058931Y-98393845D01*
X173076195Y-98290211D01*
X173081950Y-98171000D01*
X173076295Y-98051789D01*
X173059328Y-97948155D01*
X173031051Y-97860098D01*
X172991463Y-97787619D01*
X172921965Y-97715740D01*
X172834124Y-97672613D01*
X172727937Y-97658237D01*
X172624926Y-97672613D01*
X172538143Y-97715740D01*
X172467587Y-97787619D01*
X172426610Y-97860098D01*
X172397341Y-97948155D01*
X172379779Y-98051789D01*
X172373925Y-98171000D01*
X172274549Y-98171000D01*
X172266769Y-98052930D01*
X172257244Y-97931287D01*
X172246727Y-97807462D01*
X172235812Y-97680462D01*
X172073887Y-97680462D01*
X172045312Y-97764600D01*
X172010387Y-97873344D01*
X171970700Y-97993994D01*
X171931012Y-98115437D01*
X171894500Y-98001137D01*
X171856400Y-97878900D01*
X171820681Y-97766187D01*
X171792900Y-97680462D01*
X171630975Y-97680462D01*
X171620458Y-97788016D01*
X171611131Y-97904300D01*
X171602995Y-98026934D01*
X171596050Y-98153537D01*
X171589898Y-98282522D01*
X171584144Y-98412300D01*
X171578786Y-98540094D01*
X171573825Y-98663125D01*
X171243096Y-98663125D01*
X171243096Y-97327508D01*
X171573825Y-97327508D01*
X174628175Y-97327508D01*
X174958904Y-97327508D01*
X174958904Y-99014492D01*
G37*
%TO.C,J4*%
X165480000Y-72840000D02*
X163740000Y-72840000D01*
X163740000Y-72840000D02*
X163740000Y-74340000D01*
X171100000Y-73080000D02*
X163980000Y-73080000D01*
X171100000Y-73080000D02*
X171100000Y-84400000D01*
X165540000Y-73080000D02*
X165540000Y-84400000D01*
X163980000Y-73080000D02*
X163980000Y-84400000D01*
X171100000Y-84400000D02*
X163980000Y-84400000D01*
X168248000Y-73808000D02*
G75*
G03*
X167032258Y-73807891I-608000J-1432000D01*
G01*
X169072000Y-75848000D02*
G75*
G03*
X169072109Y-74632258I-1432000J608000D01*
G01*
X166208001Y-74632000D02*
G75*
G03*
X166084508Y-75267011I1431987J-607998D01*
G01*
X166085001Y-75240000D02*
G75*
G03*
X166208616Y-75847587I1554999J0D01*
G01*
X167032000Y-76672000D02*
G75*
G03*
X168247742Y-76672109I607999J1432003D01*
G01*
X169195000Y-78740000D02*
G75*
G03*
X169195000Y-78740000I-1555000J0D01*
G01*
X169195000Y-82240000D02*
G75*
G03*
X169195000Y-82240000I-1555000J0D01*
G01*
%TO.C,U2*%
X177690000Y-72330000D02*
X177690000Y-108010000D01*
X177690000Y-108010000D02*
X182990000Y-108010000D01*
X179340000Y-72330000D02*
X177690000Y-72330000D01*
X182990000Y-72330000D02*
X181340000Y-72330000D01*
X182990000Y-108010000D02*
X182990000Y-72330000D01*
X179340000Y-72330000D02*
G75*
G03*
X181340000Y-72330000I1000000J0D01*
G01*
%TO.C,kibuzzard-64B17BBB*%
G36*
X174375763Y-78424087D02*
G01*
X174422594Y-78497112D01*
X174444819Y-78605856D01*
X174448986Y-78670745D01*
X174450375Y-78740000D01*
X174448986Y-78809056D01*
X174444819Y-78873350D01*
X174422594Y-78982094D01*
X174374969Y-79055912D01*
X174294800Y-79082900D01*
X174213837Y-79055912D01*
X174167006Y-78982887D01*
X174144781Y-78874144D01*
X174140614Y-78809255D01*
X174139225Y-78740000D01*
X174140614Y-78670944D01*
X174144781Y-78606650D01*
X174167006Y-78497906D01*
X174213837Y-78424087D01*
X174294800Y-78397100D01*
X174375763Y-78424087D01*
G37*
G36*
X174979542Y-79583492D02*
G01*
X174648813Y-79583492D01*
X174296388Y-79583492D01*
X173472475Y-79583492D01*
X172396150Y-79583492D01*
X172273912Y-79583492D01*
X171553187Y-79583492D01*
X171222458Y-79583492D01*
X171222458Y-79232125D01*
X171553187Y-79232125D01*
X171732575Y-79232125D01*
X171724637Y-78468537D01*
X171840525Y-78884462D01*
X171983400Y-78884462D01*
X172104050Y-78468537D01*
X172094525Y-79232125D01*
X172273912Y-79232125D01*
X172270341Y-79106514D01*
X172265975Y-78983681D01*
X172260617Y-78862634D01*
X172254069Y-78742381D01*
X172246131Y-78621930D01*
X172236606Y-78500287D01*
X172226089Y-78376462D01*
X172215175Y-78249462D01*
X172396150Y-78249462D01*
X172396150Y-78411387D01*
X172610462Y-78411387D01*
X172610462Y-79070200D01*
X172396150Y-79070200D01*
X172396150Y-79232125D01*
X173020037Y-79232125D01*
X173020037Y-79178150D01*
X173167675Y-79178150D01*
X173277212Y-79226569D01*
X173362541Y-79246214D01*
X173472475Y-79252762D01*
X173583865Y-79244384D01*
X173674617Y-79219249D01*
X173744731Y-79177356D01*
X173812002Y-79086273D01*
X173834425Y-78963837D01*
X173827678Y-78889820D01*
X173807437Y-78829694D01*
X173738381Y-78740794D01*
X173737102Y-78740000D01*
X173940788Y-78740000D01*
X173946493Y-78859211D01*
X173963608Y-78962845D01*
X173992133Y-79050902D01*
X174032069Y-79123381D01*
X174102007Y-79195260D01*
X174190113Y-79238387D01*
X174296388Y-79252762D01*
X174400104Y-79238387D01*
X174486888Y-79195260D01*
X174556738Y-79123381D01*
X174597020Y-79050902D01*
X174625794Y-78962845D01*
X174643058Y-78859211D01*
X174648813Y-78740000D01*
X174643157Y-78620789D01*
X174626191Y-78517155D01*
X174597913Y-78429098D01*
X174558325Y-78356619D01*
X174488828Y-78284740D01*
X174400986Y-78241613D01*
X174294800Y-78227237D01*
X174191789Y-78241613D01*
X174105006Y-78284740D01*
X174034450Y-78356619D01*
X173993473Y-78429098D01*
X173964203Y-78517155D01*
X173946641Y-78620789D01*
X173940788Y-78740000D01*
X173737102Y-78740000D01*
X173646306Y-78683644D01*
X173550262Y-78644750D01*
X173489144Y-78620937D01*
X173433581Y-78591569D01*
X173393100Y-78553469D01*
X173377225Y-78503462D01*
X173394511Y-78440844D01*
X173446369Y-78403274D01*
X173532800Y-78390750D01*
X173644719Y-78406625D01*
X173732825Y-78444725D01*
X173789975Y-78293912D01*
X173676469Y-78247875D01*
X173603245Y-78232397D01*
X173518512Y-78227237D01*
X173421234Y-78235881D01*
X173338949Y-78261810D01*
X173271656Y-78305025D01*
X173204386Y-78397894D01*
X173181962Y-78520925D01*
X173207362Y-78637606D01*
X173271656Y-78716187D01*
X173358175Y-78768575D01*
X173450250Y-78805087D01*
X173516925Y-78832869D01*
X173577250Y-78866206D01*
X173621700Y-78908275D01*
X173639163Y-78962250D01*
X173632019Y-79009081D01*
X173605825Y-79050356D01*
X173554231Y-79078931D01*
X173472475Y-79089250D01*
X173393298Y-79083694D01*
X173327219Y-79067025D01*
X173224825Y-79019400D01*
X173167675Y-79178150D01*
X173020037Y-79178150D01*
X173020037Y-79070200D01*
X172807312Y-79070200D01*
X172807312Y-78411387D01*
X173020037Y-78411387D01*
X173020037Y-78249462D01*
X172396150Y-78249462D01*
X172215175Y-78249462D01*
X172053250Y-78249462D01*
X172024675Y-78333600D01*
X171989750Y-78442344D01*
X171950062Y-78562994D01*
X171910375Y-78684437D01*
X171873862Y-78570137D01*
X171835762Y-78447900D01*
X171800044Y-78335187D01*
X171772262Y-78249462D01*
X171610337Y-78249462D01*
X171599820Y-78357016D01*
X171590494Y-78473300D01*
X171582358Y-78595934D01*
X171575412Y-78722537D01*
X171569261Y-78851522D01*
X171563506Y-78981300D01*
X171558148Y-79109094D01*
X171553187Y-79232125D01*
X171222458Y-79232125D01*
X171222458Y-77896508D01*
X171553187Y-77896508D01*
X174648813Y-77896508D01*
X174979542Y-77896508D01*
X174979542Y-79583492D01*
G37*
%TO.C,kibuzzard-64B17C80*%
G36*
X177870048Y-67125652D02*
G01*
X177934144Y-67134581D01*
X178039712Y-67174269D01*
X178109562Y-67247294D01*
X178134962Y-67359213D01*
X178134962Y-67376675D01*
X178133375Y-67394138D01*
X177472975Y-67394138D01*
X177469006Y-67365563D01*
X177468212Y-67336988D01*
X177495994Y-67230625D01*
X177569812Y-67165538D01*
X177676175Y-67132200D01*
X177800000Y-67122675D01*
X177870048Y-67125652D01*
G37*
G36*
X178643492Y-67905313D02*
G01*
X178643492Y-68818125D01*
X178643492Y-69219763D01*
X178643492Y-69550492D01*
X176956508Y-69550492D01*
X176956508Y-69219763D01*
X176956508Y-68794313D01*
X177287237Y-68794313D01*
X177295373Y-68880434D01*
X177319781Y-68961000D01*
X177360461Y-69033628D01*
X177417412Y-69095938D01*
X177490239Y-69147134D01*
X177578544Y-69186425D01*
X177681930Y-69211428D01*
X177800000Y-69219763D01*
X177919261Y-69212619D01*
X178023044Y-69191188D01*
X178111150Y-69156659D01*
X178183381Y-69110225D01*
X178239737Y-69052480D01*
X178280219Y-68984019D01*
X178304627Y-68905636D01*
X178312762Y-68818125D01*
X178308794Y-68721089D01*
X178296887Y-68639531D01*
X178268312Y-68530788D01*
X177777775Y-68530788D01*
X177777775Y-68726050D01*
X178136550Y-68726050D01*
X178141312Y-68764150D01*
X178142900Y-68802250D01*
X178122064Y-68897103D01*
X178059556Y-68965763D01*
X177993675Y-68996631D01*
X177907156Y-69015151D01*
X177800000Y-69021325D01*
X177727173Y-69017952D01*
X177661094Y-69007831D01*
X177553144Y-68963381D01*
X177482500Y-68884800D01*
X177457100Y-68767325D01*
X177474562Y-68662550D01*
X177514250Y-68576825D01*
X177358675Y-68526025D01*
X177339625Y-68558569D01*
X177315812Y-68613338D01*
X177295969Y-68691919D01*
X177287237Y-68794313D01*
X176956508Y-68794313D01*
X176956508Y-68395850D01*
X177309462Y-68395850D01*
X178292125Y-68395850D01*
X178292125Y-68219638D01*
X177639662Y-68219638D01*
X177748583Y-68160635D01*
X177857326Y-68104279D01*
X177965894Y-68050569D01*
X178074461Y-67999504D01*
X178183205Y-67951085D01*
X178292125Y-67905313D01*
X178292125Y-67748150D01*
X177309462Y-67748150D01*
X177309462Y-67924363D01*
X177914300Y-67924363D01*
X177852387Y-67952342D01*
X177780950Y-67985481D01*
X177703559Y-68022788D01*
X177623787Y-68063269D01*
X177542627Y-68105933D01*
X177461069Y-68149788D01*
X177382289Y-68194238D01*
X177309462Y-68238688D01*
X177309462Y-68395850D01*
X176956508Y-68395850D01*
X176956508Y-67354450D01*
X177298350Y-67354450D01*
X177303112Y-67463988D01*
X177322162Y-67589400D01*
X178281012Y-67589400D01*
X178299269Y-67482244D01*
X178304825Y-67379850D01*
X178297880Y-67284005D01*
X178277044Y-67196494D01*
X178241127Y-67118905D01*
X178188937Y-67052825D01*
X178119683Y-66999048D01*
X178032569Y-66958369D01*
X177926405Y-66932770D01*
X177800000Y-66924237D01*
X177676373Y-66931977D01*
X177572194Y-66955194D01*
X177486072Y-66992302D01*
X177416619Y-67041713D01*
X177363636Y-67103427D01*
X177326925Y-67177444D01*
X177305494Y-67261780D01*
X177298350Y-67354450D01*
X176956508Y-67354450D01*
X176956508Y-66924237D01*
X176956508Y-66593508D01*
X178643492Y-66593508D01*
X178643492Y-66924237D01*
X178643492Y-67379850D01*
X178643492Y-67905313D01*
G37*
%TO.C,kibuzzard-64B17C58*%
G36*
X193883492Y-112053688D02*
G01*
X193883492Y-113022063D01*
X193883492Y-113296700D01*
X193883492Y-113627429D01*
X192196508Y-113627429D01*
X192196508Y-113296700D01*
X192549462Y-113296700D01*
X192638362Y-113278444D01*
X192749487Y-113252250D01*
X192832655Y-113231260D01*
X192919174Y-113208506D01*
X193009044Y-113183988D01*
X193100678Y-113158058D01*
X193192488Y-113131071D01*
X193284475Y-113103025D01*
X193415444Y-113061353D01*
X193532125Y-113022063D01*
X193532125Y-112820450D01*
X193447547Y-112790111D01*
X193361028Y-112760478D01*
X193272569Y-112731550D01*
X193183669Y-112703769D01*
X193095827Y-112677575D01*
X193009044Y-112652969D01*
X192882639Y-112619234D01*
X192762187Y-112589469D01*
X192650269Y-112563870D01*
X192549462Y-112542638D01*
X192549462Y-112747425D01*
X192632012Y-112761713D01*
X192727262Y-112779175D01*
X192830252Y-112799019D01*
X192936019Y-112820450D01*
X193042381Y-112843469D01*
X193147156Y-112868075D01*
X193245383Y-112893475D01*
X193332100Y-112918875D01*
X193244192Y-112944473D01*
X193145569Y-112970469D01*
X193040794Y-112995869D01*
X192934431Y-113019681D01*
X192828862Y-113041708D01*
X192726469Y-113061750D01*
X192631814Y-113078419D01*
X192549462Y-113090325D01*
X192549462Y-113296700D01*
X192196508Y-113296700D01*
X192196508Y-112034638D01*
X192527237Y-112034638D01*
X192535770Y-112127705D01*
X192561369Y-112213231D01*
X192603437Y-112289431D01*
X192661381Y-112354519D01*
X192734605Y-112407502D01*
X192822512Y-112447388D01*
X192924509Y-112472391D01*
X193040000Y-112480725D01*
X193155987Y-112473879D01*
X193257884Y-112453341D01*
X193345693Y-112419110D01*
X193419412Y-112371188D01*
X193493496Y-112287226D01*
X193537946Y-112181393D01*
X193552762Y-112053688D01*
X193547405Y-111966970D01*
X193531331Y-111890969D01*
X193484500Y-111779050D01*
X193330512Y-111828263D01*
X193365437Y-111908431D01*
X193382900Y-112034638D01*
X193360477Y-112147945D01*
X193293206Y-112224344D01*
X193224679Y-112256535D01*
X193138690Y-112275849D01*
X193035237Y-112282288D01*
X192946337Y-112276930D01*
X192873312Y-112260856D01*
X192769331Y-112205294D01*
X192713769Y-112127506D01*
X192697100Y-112037813D01*
X192713769Y-111919544D01*
X192754250Y-111831438D01*
X192598675Y-111780638D01*
X192579625Y-111813181D01*
X192555812Y-111866363D01*
X192535969Y-111940181D01*
X192527237Y-112034638D01*
X192196508Y-112034638D01*
X192196508Y-111240888D01*
X192527237Y-111240888D01*
X192535770Y-111333955D01*
X192561369Y-111419481D01*
X192603437Y-111495681D01*
X192661381Y-111560769D01*
X192734605Y-111613752D01*
X192822512Y-111653638D01*
X192924509Y-111678641D01*
X193040000Y-111686975D01*
X193155987Y-111680129D01*
X193257884Y-111659591D01*
X193345693Y-111625360D01*
X193419412Y-111577437D01*
X193493496Y-111493476D01*
X193537946Y-111387643D01*
X193552762Y-111259938D01*
X193547405Y-111173220D01*
X193531331Y-111097219D01*
X193484500Y-110985300D01*
X193330512Y-111034513D01*
X193365437Y-111114681D01*
X193382900Y-111240888D01*
X193360477Y-111354195D01*
X193293206Y-111430594D01*
X193224679Y-111462785D01*
X193138690Y-111482099D01*
X193035237Y-111488538D01*
X192946337Y-111483180D01*
X192873312Y-111467106D01*
X192769331Y-111411544D01*
X192713769Y-111333756D01*
X192697100Y-111244062D01*
X192713769Y-111125794D01*
X192754250Y-111037688D01*
X192598675Y-110986888D01*
X192579625Y-111019431D01*
X192555812Y-111072613D01*
X192535969Y-111146431D01*
X192527237Y-111240888D01*
X192196508Y-111240888D01*
X192196508Y-110985300D01*
X192196508Y-110654571D01*
X193883492Y-110654571D01*
X193883492Y-110985300D01*
X193883492Y-111259938D01*
X193883492Y-112053688D01*
G37*
%TO.C,kibuzzard-64B17C80*%
G36*
X195650048Y-111194652D02*
G01*
X195714144Y-111203581D01*
X195819712Y-111243269D01*
X195889562Y-111316294D01*
X195914962Y-111428213D01*
X195914962Y-111445675D01*
X195913375Y-111463138D01*
X195252975Y-111463138D01*
X195249006Y-111434563D01*
X195248212Y-111405988D01*
X195275994Y-111299625D01*
X195349812Y-111234538D01*
X195456175Y-111201200D01*
X195580000Y-111191675D01*
X195650048Y-111194652D01*
G37*
G36*
X196423492Y-111974313D02*
G01*
X196423492Y-112887125D01*
X196423492Y-113288763D01*
X196423492Y-113619492D01*
X194736508Y-113619492D01*
X194736508Y-113288763D01*
X194736508Y-112863313D01*
X195067237Y-112863313D01*
X195075373Y-112949434D01*
X195099781Y-113030000D01*
X195140461Y-113102628D01*
X195197412Y-113164938D01*
X195270239Y-113216134D01*
X195358544Y-113255425D01*
X195461930Y-113280428D01*
X195580000Y-113288763D01*
X195699261Y-113281619D01*
X195803044Y-113260188D01*
X195891150Y-113225659D01*
X195963381Y-113179225D01*
X196019737Y-113121480D01*
X196060219Y-113053019D01*
X196084627Y-112974636D01*
X196092762Y-112887125D01*
X196088794Y-112790089D01*
X196076887Y-112708531D01*
X196048312Y-112599788D01*
X195557775Y-112599788D01*
X195557775Y-112795050D01*
X195916550Y-112795050D01*
X195921312Y-112833150D01*
X195922900Y-112871250D01*
X195902064Y-112966103D01*
X195839556Y-113034763D01*
X195773675Y-113065631D01*
X195687156Y-113084151D01*
X195580000Y-113090325D01*
X195507173Y-113086952D01*
X195441094Y-113076831D01*
X195333144Y-113032381D01*
X195262500Y-112953800D01*
X195237100Y-112836325D01*
X195254562Y-112731550D01*
X195294250Y-112645825D01*
X195138675Y-112595025D01*
X195119625Y-112627569D01*
X195095812Y-112682338D01*
X195075969Y-112760919D01*
X195067237Y-112863313D01*
X194736508Y-112863313D01*
X194736508Y-112464850D01*
X195089462Y-112464850D01*
X196072125Y-112464850D01*
X196072125Y-112288638D01*
X195419662Y-112288638D01*
X195528583Y-112229635D01*
X195637326Y-112173279D01*
X195745894Y-112119569D01*
X195854461Y-112068504D01*
X195963205Y-112020085D01*
X196072125Y-111974313D01*
X196072125Y-111817150D01*
X195089462Y-111817150D01*
X195089462Y-111993363D01*
X195694300Y-111993363D01*
X195632387Y-112021342D01*
X195560950Y-112054481D01*
X195483559Y-112091788D01*
X195403787Y-112132269D01*
X195322627Y-112174933D01*
X195241069Y-112218788D01*
X195162289Y-112263238D01*
X195089462Y-112307688D01*
X195089462Y-112464850D01*
X194736508Y-112464850D01*
X194736508Y-111423450D01*
X195078350Y-111423450D01*
X195083112Y-111532988D01*
X195102162Y-111658400D01*
X196061012Y-111658400D01*
X196079269Y-111551244D01*
X196084825Y-111448850D01*
X196077880Y-111353005D01*
X196057044Y-111265494D01*
X196021127Y-111187905D01*
X195968937Y-111121825D01*
X195899683Y-111068048D01*
X195812569Y-111027369D01*
X195706405Y-111001770D01*
X195580000Y-110993237D01*
X195456373Y-111000977D01*
X195352194Y-111024194D01*
X195266072Y-111061302D01*
X195196619Y-111110713D01*
X195143636Y-111172427D01*
X195106925Y-111246444D01*
X195085494Y-111330780D01*
X195078350Y-111423450D01*
X194736508Y-111423450D01*
X194736508Y-110993237D01*
X194736508Y-110662508D01*
X196423492Y-110662508D01*
X196423492Y-110993237D01*
X196423492Y-111448850D01*
X196423492Y-111974313D01*
G37*
%TO.C,kibuzzard-64B17B8E*%
G36*
X174200873Y-91775492D02*
G01*
X173870144Y-91775492D01*
X173649481Y-91775492D01*
X172770006Y-91775492D01*
X171874656Y-91775492D01*
X171569856Y-91775492D01*
X171239127Y-91775492D01*
X171239127Y-91370150D01*
X171569856Y-91370150D01*
X171679394Y-91418569D01*
X171764722Y-91438214D01*
X171874656Y-91444762D01*
X171986046Y-91436384D01*
X172076798Y-91411249D01*
X172146912Y-91369356D01*
X172214183Y-91278273D01*
X172236606Y-91155837D01*
X172229859Y-91081820D01*
X172209619Y-91021694D01*
X172140562Y-90932794D01*
X172139283Y-90932000D01*
X172342969Y-90932000D01*
X172349815Y-91047987D01*
X172370353Y-91149884D01*
X172404584Y-91237693D01*
X172452506Y-91311412D01*
X172536467Y-91385496D01*
X172642301Y-91429946D01*
X172770006Y-91444762D01*
X172856723Y-91439405D01*
X172932725Y-91423331D01*
X173044644Y-91376500D01*
X172995431Y-91222512D01*
X172915262Y-91257437D01*
X172789056Y-91274900D01*
X172675748Y-91252477D01*
X172599350Y-91185206D01*
X172567159Y-91116679D01*
X172547844Y-91030690D01*
X172541406Y-90927237D01*
X172546764Y-90838337D01*
X172562837Y-90765312D01*
X172618400Y-90661331D01*
X172696187Y-90605769D01*
X172785881Y-90589100D01*
X172904150Y-90605769D01*
X172992256Y-90646250D01*
X173043056Y-90490675D01*
X173010512Y-90471625D01*
X172957331Y-90447812D01*
X172933708Y-90441462D01*
X173165294Y-90441462D01*
X173165294Y-91424125D01*
X173360556Y-91424125D01*
X173360556Y-90974862D01*
X173443900Y-91064556D01*
X173486564Y-91119722D01*
X173527244Y-91178856D01*
X173565145Y-91240769D01*
X173599475Y-91304269D01*
X173649481Y-91424125D01*
X173870144Y-91424125D01*
X173844347Y-91353283D01*
X173811406Y-91280456D01*
X173772711Y-91207431D01*
X173729650Y-91135994D01*
X173683017Y-91067533D01*
X173633606Y-91003437D01*
X173583203Y-90945097D01*
X173533594Y-90893900D01*
X173581814Y-90835559D01*
X173628050Y-90774837D01*
X173671905Y-90713520D01*
X173712981Y-90653394D01*
X173750486Y-90595053D01*
X173783625Y-90539094D01*
X173836806Y-90441462D01*
X173616144Y-90441462D01*
X173568519Y-90536712D01*
X173505812Y-90643075D01*
X173433581Y-90751025D01*
X173360556Y-90849450D01*
X173360556Y-90441462D01*
X173165294Y-90441462D01*
X172933708Y-90441462D01*
X172883512Y-90427969D01*
X172789056Y-90419237D01*
X172695989Y-90427770D01*
X172610462Y-90453369D01*
X172534262Y-90495437D01*
X172469175Y-90553381D01*
X172416192Y-90626605D01*
X172376306Y-90714512D01*
X172351303Y-90816509D01*
X172342969Y-90932000D01*
X172139283Y-90932000D01*
X172048487Y-90875644D01*
X171952444Y-90836750D01*
X171891325Y-90812937D01*
X171835762Y-90783569D01*
X171795281Y-90745469D01*
X171779406Y-90695462D01*
X171796692Y-90632844D01*
X171848551Y-90595274D01*
X171934981Y-90582750D01*
X172046900Y-90598625D01*
X172135006Y-90636725D01*
X172192156Y-90485912D01*
X172078650Y-90439875D01*
X172005427Y-90424397D01*
X171920694Y-90419237D01*
X171823415Y-90427881D01*
X171741130Y-90453810D01*
X171673837Y-90497025D01*
X171606567Y-90589894D01*
X171584144Y-90712925D01*
X171609544Y-90829606D01*
X171673837Y-90908187D01*
X171760356Y-90960575D01*
X171852431Y-90997087D01*
X171919106Y-91024869D01*
X171979431Y-91058206D01*
X172023881Y-91100275D01*
X172041344Y-91154250D01*
X172034200Y-91201081D01*
X172008006Y-91242356D01*
X171956412Y-91270931D01*
X171874656Y-91281250D01*
X171795480Y-91275694D01*
X171729400Y-91259025D01*
X171627006Y-91211400D01*
X171569856Y-91370150D01*
X171239127Y-91370150D01*
X171239127Y-90088508D01*
X171569856Y-90088508D01*
X173870144Y-90088508D01*
X174200873Y-90088508D01*
X174200873Y-91775492D01*
G37*
%TO.C,kibuzzard-64B17C58*%
G36*
X183850492Y-67984688D02*
G01*
X183850492Y-68953063D01*
X183850492Y-69227700D01*
X183850492Y-69558429D01*
X182163508Y-69558429D01*
X182163508Y-69227700D01*
X182516462Y-69227700D01*
X182605362Y-69209444D01*
X182716487Y-69183250D01*
X182799655Y-69162260D01*
X182886174Y-69139506D01*
X182976044Y-69114988D01*
X183067678Y-69089058D01*
X183159488Y-69062071D01*
X183251475Y-69034025D01*
X183382444Y-68992353D01*
X183499125Y-68953063D01*
X183499125Y-68751450D01*
X183414547Y-68721111D01*
X183328028Y-68691478D01*
X183239569Y-68662550D01*
X183150669Y-68634769D01*
X183062827Y-68608575D01*
X182976044Y-68583969D01*
X182849639Y-68550234D01*
X182729187Y-68520469D01*
X182617269Y-68494870D01*
X182516462Y-68473638D01*
X182516462Y-68678425D01*
X182599012Y-68692713D01*
X182694262Y-68710175D01*
X182797252Y-68730019D01*
X182903019Y-68751450D01*
X183009381Y-68774469D01*
X183114156Y-68799075D01*
X183212383Y-68824475D01*
X183299100Y-68849875D01*
X183211192Y-68875473D01*
X183112569Y-68901469D01*
X183007794Y-68926869D01*
X182901431Y-68950681D01*
X182795862Y-68972708D01*
X182693469Y-68992750D01*
X182598814Y-69009419D01*
X182516462Y-69021325D01*
X182516462Y-69227700D01*
X182163508Y-69227700D01*
X182163508Y-67965638D01*
X182494237Y-67965638D01*
X182502770Y-68058705D01*
X182528369Y-68144231D01*
X182570437Y-68220431D01*
X182628381Y-68285519D01*
X182701605Y-68338502D01*
X182789512Y-68378388D01*
X182891509Y-68403391D01*
X183007000Y-68411725D01*
X183122987Y-68404879D01*
X183224884Y-68384341D01*
X183312693Y-68350110D01*
X183386412Y-68302188D01*
X183460496Y-68218226D01*
X183504946Y-68112393D01*
X183519762Y-67984688D01*
X183514405Y-67897970D01*
X183498331Y-67821969D01*
X183451500Y-67710050D01*
X183297512Y-67759263D01*
X183332437Y-67839431D01*
X183349900Y-67965638D01*
X183327477Y-68078945D01*
X183260206Y-68155344D01*
X183191679Y-68187535D01*
X183105690Y-68206849D01*
X183002237Y-68213288D01*
X182913337Y-68207930D01*
X182840312Y-68191856D01*
X182736331Y-68136294D01*
X182680769Y-68058506D01*
X182664100Y-67968813D01*
X182680769Y-67850544D01*
X182721250Y-67762438D01*
X182565675Y-67711638D01*
X182546625Y-67744181D01*
X182522812Y-67797363D01*
X182502969Y-67871181D01*
X182494237Y-67965638D01*
X182163508Y-67965638D01*
X182163508Y-67171888D01*
X182494237Y-67171888D01*
X182502770Y-67264955D01*
X182528369Y-67350481D01*
X182570437Y-67426681D01*
X182628381Y-67491769D01*
X182701605Y-67544752D01*
X182789512Y-67584638D01*
X182891509Y-67609641D01*
X183007000Y-67617975D01*
X183122987Y-67611129D01*
X183224884Y-67590591D01*
X183312693Y-67556360D01*
X183386412Y-67508437D01*
X183460496Y-67424476D01*
X183504946Y-67318643D01*
X183519762Y-67190938D01*
X183514405Y-67104220D01*
X183498331Y-67028219D01*
X183451500Y-66916300D01*
X183297512Y-66965513D01*
X183332437Y-67045681D01*
X183349900Y-67171888D01*
X183327477Y-67285195D01*
X183260206Y-67361594D01*
X183191679Y-67393785D01*
X183105690Y-67413099D01*
X183002237Y-67419538D01*
X182913337Y-67414180D01*
X182840312Y-67398106D01*
X182736331Y-67342544D01*
X182680769Y-67264756D01*
X182664100Y-67175062D01*
X182680769Y-67056794D01*
X182721250Y-66968688D01*
X182565675Y-66917888D01*
X182546625Y-66950431D01*
X182522812Y-67003613D01*
X182502969Y-67077431D01*
X182494237Y-67171888D01*
X182163508Y-67171888D01*
X182163508Y-66916300D01*
X182163508Y-66585571D01*
X183850492Y-66585571D01*
X183850492Y-66916300D01*
X183850492Y-67190938D01*
X183850492Y-67984688D01*
G37*
%TO.C,kibuzzard-64B17BBB*%
G36*
X174375763Y-94299087D02*
G01*
X174422594Y-94372112D01*
X174444819Y-94480856D01*
X174448986Y-94545745D01*
X174450375Y-94615000D01*
X174448986Y-94684056D01*
X174444819Y-94748350D01*
X174422594Y-94857094D01*
X174374969Y-94930912D01*
X174294800Y-94957900D01*
X174213837Y-94930912D01*
X174167006Y-94857887D01*
X174144781Y-94749144D01*
X174140614Y-94684255D01*
X174139225Y-94615000D01*
X174140614Y-94545944D01*
X174144781Y-94481650D01*
X174167006Y-94372906D01*
X174213837Y-94299087D01*
X174294800Y-94272100D01*
X174375763Y-94299087D01*
G37*
G36*
X174979542Y-95458492D02*
G01*
X174648813Y-95458492D01*
X174296388Y-95458492D01*
X173472475Y-95458492D01*
X172396150Y-95458492D01*
X172273912Y-95458492D01*
X171553187Y-95458492D01*
X171222458Y-95458492D01*
X171222458Y-95107125D01*
X171553187Y-95107125D01*
X171732575Y-95107125D01*
X171724637Y-94343537D01*
X171840525Y-94759462D01*
X171983400Y-94759462D01*
X172104050Y-94343537D01*
X172094525Y-95107125D01*
X172273912Y-95107125D01*
X172270341Y-94981514D01*
X172265975Y-94858681D01*
X172260617Y-94737634D01*
X172254069Y-94617381D01*
X172246131Y-94496930D01*
X172236606Y-94375287D01*
X172226089Y-94251462D01*
X172215175Y-94124462D01*
X172396150Y-94124462D01*
X172396150Y-94286387D01*
X172610462Y-94286387D01*
X172610462Y-94945200D01*
X172396150Y-94945200D01*
X172396150Y-95107125D01*
X173020037Y-95107125D01*
X173020037Y-95053150D01*
X173167675Y-95053150D01*
X173277212Y-95101569D01*
X173362541Y-95121214D01*
X173472475Y-95127762D01*
X173583865Y-95119384D01*
X173674617Y-95094249D01*
X173744731Y-95052356D01*
X173812002Y-94961273D01*
X173834425Y-94838837D01*
X173827678Y-94764820D01*
X173807437Y-94704694D01*
X173738381Y-94615794D01*
X173737102Y-94615000D01*
X173940788Y-94615000D01*
X173946493Y-94734211D01*
X173963608Y-94837845D01*
X173992133Y-94925902D01*
X174032069Y-94998381D01*
X174102007Y-95070260D01*
X174190113Y-95113387D01*
X174296388Y-95127762D01*
X174400104Y-95113387D01*
X174486888Y-95070260D01*
X174556738Y-94998381D01*
X174597020Y-94925902D01*
X174625794Y-94837845D01*
X174643058Y-94734211D01*
X174648813Y-94615000D01*
X174643157Y-94495789D01*
X174626191Y-94392155D01*
X174597913Y-94304098D01*
X174558325Y-94231619D01*
X174488828Y-94159740D01*
X174400986Y-94116613D01*
X174294800Y-94102237D01*
X174191789Y-94116613D01*
X174105006Y-94159740D01*
X174034450Y-94231619D01*
X173993473Y-94304098D01*
X173964203Y-94392155D01*
X173946641Y-94495789D01*
X173940788Y-94615000D01*
X173737102Y-94615000D01*
X173646306Y-94558644D01*
X173550262Y-94519750D01*
X173489144Y-94495937D01*
X173433581Y-94466569D01*
X173393100Y-94428469D01*
X173377225Y-94378462D01*
X173394511Y-94315844D01*
X173446369Y-94278274D01*
X173532800Y-94265750D01*
X173644719Y-94281625D01*
X173732825Y-94319725D01*
X173789975Y-94168912D01*
X173676469Y-94122875D01*
X173603245Y-94107397D01*
X173518512Y-94102237D01*
X173421234Y-94110881D01*
X173338949Y-94136810D01*
X173271656Y-94180025D01*
X173204386Y-94272894D01*
X173181962Y-94395925D01*
X173207362Y-94512606D01*
X173271656Y-94591187D01*
X173358175Y-94643575D01*
X173450250Y-94680087D01*
X173516925Y-94707869D01*
X173577250Y-94741206D01*
X173621700Y-94783275D01*
X173639163Y-94837250D01*
X173632019Y-94884081D01*
X173605825Y-94925356D01*
X173554231Y-94953931D01*
X173472475Y-94964250D01*
X173393298Y-94958694D01*
X173327219Y-94942025D01*
X173224825Y-94894400D01*
X173167675Y-95053150D01*
X173020037Y-95053150D01*
X173020037Y-94945200D01*
X172807312Y-94945200D01*
X172807312Y-94286387D01*
X173020037Y-94286387D01*
X173020037Y-94124462D01*
X172396150Y-94124462D01*
X172215175Y-94124462D01*
X172053250Y-94124462D01*
X172024675Y-94208600D01*
X171989750Y-94317344D01*
X171950062Y-94437994D01*
X171910375Y-94559437D01*
X171873862Y-94445137D01*
X171835762Y-94322900D01*
X171800044Y-94210187D01*
X171772262Y-94124462D01*
X171610337Y-94124462D01*
X171599820Y-94232016D01*
X171590494Y-94348300D01*
X171582358Y-94470934D01*
X171575412Y-94597537D01*
X171569261Y-94726522D01*
X171563506Y-94856300D01*
X171558148Y-94984094D01*
X171553187Y-95107125D01*
X171222458Y-95107125D01*
X171222458Y-93771508D01*
X171553187Y-93771508D01*
X174648813Y-93771508D01*
X174979542Y-93771508D01*
X174979542Y-95458492D01*
G37*
%TO.C,J3*%
X185420000Y-121539000D02*
X185420000Y-113919000D01*
X185420000Y-113919000D02*
X175260000Y-113919000D01*
X175260000Y-121539000D02*
X185420000Y-121539000D01*
X175260000Y-115189000D02*
X185420000Y-115189000D01*
X175260000Y-113919000D02*
X175260000Y-121539000D01*
%TO.C,kibuzzard-64B17C33*%
G36*
X174383700Y-108676281D02*
G01*
X174428944Y-108778675D01*
X174413069Y-108849319D01*
X174372588Y-108892181D01*
X174316231Y-108912819D01*
X174251144Y-108918375D01*
X174202725Y-108916788D01*
X174157481Y-108912025D01*
X174157481Y-108645325D01*
X174262256Y-108645325D01*
X174383700Y-108676281D01*
G37*
G36*
X174298769Y-108255594D02*
G01*
X174343219Y-108271469D01*
X174373381Y-108304806D01*
X174384494Y-108361162D01*
X174346394Y-108450856D01*
X174233681Y-108483400D01*
X174157481Y-108483400D01*
X174157481Y-108257975D01*
X174200344Y-108253212D01*
X174246381Y-108251625D01*
X174298769Y-108255594D01*
G37*
G36*
X174951760Y-109418967D02*
G01*
X174621031Y-109418967D01*
X174235269Y-109418967D01*
X173578044Y-109418967D01*
X172852556Y-109418967D01*
X171580969Y-109418967D01*
X171250240Y-109418967D01*
X171250240Y-108092875D01*
X171580969Y-108092875D01*
X171580969Y-108254800D01*
X171795281Y-108254800D01*
X171795281Y-108913613D01*
X171580969Y-108913613D01*
X171580969Y-109075538D01*
X172204856Y-109075538D01*
X172204856Y-108913613D01*
X171992131Y-108913613D01*
X171992131Y-108254800D01*
X172204856Y-108254800D01*
X172204856Y-108092875D01*
X172362019Y-108092875D01*
X172362019Y-109075538D01*
X172538231Y-109075538D01*
X172538231Y-108423075D01*
X172597233Y-108531995D01*
X172653590Y-108640739D01*
X172707300Y-108749306D01*
X172758365Y-108857874D01*
X172806783Y-108966617D01*
X172852556Y-109075538D01*
X173009719Y-109075538D01*
X173009719Y-108092875D01*
X173122431Y-108092875D01*
X173122431Y-108254800D01*
X173381194Y-108254800D01*
X173381194Y-109075538D01*
X173578044Y-109075538D01*
X173578044Y-109059663D01*
X173962219Y-109059663D01*
X174030878Y-109072164D01*
X174100331Y-109081094D01*
X174168991Y-109086452D01*
X174235269Y-109088238D01*
X174313652Y-109084467D01*
X174386875Y-109073156D01*
X174452756Y-109052916D01*
X174509113Y-109022356D01*
X174590869Y-108927106D01*
X174613491Y-108860233D01*
X174621031Y-108778675D01*
X174612102Y-108712000D01*
X174585313Y-108648500D01*
X174533520Y-108592938D01*
X174449581Y-108550075D01*
X174540862Y-108464350D01*
X174566461Y-108406406D01*
X174574994Y-108340525D01*
X174560706Y-108248450D01*
X174506731Y-108165106D01*
X174397194Y-108104781D01*
X174317025Y-108087517D01*
X174216219Y-108081762D01*
X174084456Y-108088906D01*
X173962219Y-108105575D01*
X173962219Y-109059663D01*
X173578044Y-109059663D01*
X173578044Y-108254800D01*
X173836806Y-108254800D01*
X173836806Y-108092875D01*
X173122431Y-108092875D01*
X173009719Y-108092875D01*
X172833506Y-108092875D01*
X172833506Y-108697713D01*
X172805527Y-108635800D01*
X172772387Y-108564362D01*
X172735081Y-108486972D01*
X172694600Y-108407200D01*
X172651936Y-108326039D01*
X172608081Y-108244481D01*
X172563631Y-108165702D01*
X172519181Y-108092875D01*
X172362019Y-108092875D01*
X172204856Y-108092875D01*
X171580969Y-108092875D01*
X171250240Y-108092875D01*
X171250240Y-107751033D01*
X171580969Y-107751033D01*
X174621031Y-107751033D01*
X174951760Y-107751033D01*
X174951760Y-109418967D01*
G37*
%TO.C,kibuzzard-64B17E8C*%
G36*
X167112584Y-69441126D02*
G01*
X167145429Y-69467519D01*
X167164197Y-69504469D01*
X167170062Y-69547285D01*
X166949533Y-69547285D01*
X166959504Y-69503883D01*
X166980618Y-69466346D01*
X167014636Y-69440539D01*
X167063317Y-69431155D01*
X167112584Y-69441126D01*
G37*
G36*
X173053407Y-67872507D02*
G01*
X173072457Y-67946325D01*
X173088530Y-68019549D01*
X173102818Y-68095749D01*
X172958752Y-68095749D01*
X172973635Y-68019549D01*
X172990304Y-67946325D01*
X173009354Y-67872507D01*
X173031380Y-67793330D01*
X173053407Y-67872507D01*
G37*
G36*
X171329382Y-68088010D02*
G01*
X171363315Y-68164805D01*
X171351408Y-68217788D01*
X171321047Y-68249935D01*
X171278780Y-68265413D01*
X171229965Y-68269580D01*
X171193651Y-68268390D01*
X171159718Y-68264818D01*
X171159718Y-68064793D01*
X171238299Y-68064793D01*
X171329382Y-68088010D01*
G37*
G36*
X171265683Y-67772494D02*
G01*
X171299021Y-67784400D01*
X171321643Y-67809404D01*
X171329977Y-67851671D01*
X171301402Y-67918941D01*
X171216868Y-67943349D01*
X171159718Y-67943349D01*
X171159718Y-67774280D01*
X171191865Y-67770708D01*
X171226393Y-67769518D01*
X171265683Y-67772494D01*
G37*
G36*
X170622288Y-69431155D02*
G01*
X170651614Y-69435847D01*
X170651614Y-69700952D01*
X170614664Y-69716201D01*
X170570675Y-69722066D01*
X170493255Y-69686289D01*
X170474780Y-69642447D01*
X170468621Y-69582476D01*
X170482698Y-69497757D01*
X170524927Y-69446926D01*
X170595309Y-69429982D01*
X170622288Y-69431155D01*
G37*
G36*
X171851769Y-67776364D02*
G01*
X171893143Y-67796902D01*
X171919932Y-67832025D01*
X171928861Y-67882627D01*
X171895524Y-67965375D01*
X171851769Y-67987253D01*
X171787177Y-67994546D01*
X171755030Y-67994546D01*
X171755030Y-67773090D01*
X171778843Y-67770113D01*
X171799083Y-67769518D01*
X171851769Y-67776364D01*
G37*
G36*
X167117695Y-67776215D02*
G01*
X167158622Y-67796307D01*
X167184965Y-67832472D01*
X167193746Y-67887390D01*
X167184816Y-67945284D01*
X167158027Y-67983235D01*
X167113676Y-68004220D01*
X167052061Y-68011215D01*
X166992530Y-68011215D01*
X166992530Y-67773090D01*
X167028844Y-67770113D01*
X167065158Y-67769518D01*
X167117695Y-67776215D01*
G37*
G36*
X169455271Y-69447138D02*
G01*
X169489728Y-69481009D01*
X169509523Y-69533355D01*
X169516121Y-69600071D01*
X169508937Y-69666934D01*
X169487382Y-69719720D01*
X169451751Y-69754031D01*
X169402338Y-69765469D01*
X169351751Y-69754031D01*
X169317293Y-69719720D01*
X169297498Y-69666934D01*
X169290900Y-69600071D01*
X169298085Y-69533355D01*
X169319639Y-69481009D01*
X169355270Y-69447138D01*
X169404684Y-69435847D01*
X169455271Y-69447138D01*
G37*
G36*
X174283918Y-67781424D02*
G01*
X174319041Y-67836193D01*
X174335710Y-67917750D01*
X174338835Y-67966417D01*
X174339877Y-68018358D01*
X174338835Y-68070150D01*
X174335710Y-68118371D01*
X174319041Y-68199929D01*
X174283322Y-68255293D01*
X174223196Y-68275533D01*
X174162474Y-68255293D01*
X174127351Y-68200524D01*
X174110682Y-68118966D01*
X174107556Y-68070299D01*
X174106515Y-68018358D01*
X174107556Y-67966566D01*
X174110682Y-67918346D01*
X174127351Y-67836788D01*
X174162474Y-67781424D01*
X174223196Y-67761183D01*
X174283918Y-67781424D01*
G37*
G36*
X169399864Y-70769714D02*
G01*
X169437577Y-70817830D01*
X169460551Y-70896579D01*
X169468209Y-71004515D01*
X169460551Y-71113319D01*
X169437577Y-71192356D01*
X169399864Y-71240473D01*
X169349147Y-71256154D01*
X169347991Y-71256512D01*
X169296840Y-71240473D01*
X169258983Y-71192356D01*
X169235575Y-71113319D01*
X169227773Y-71004515D01*
X169228609Y-70992956D01*
X169284414Y-70992956D01*
X169301753Y-71046707D01*
X169349147Y-71069248D01*
X169394807Y-71046707D01*
X169412724Y-70992956D01*
X169394807Y-70938626D01*
X169349147Y-70915507D01*
X169301753Y-70938626D01*
X169284414Y-70992956D01*
X169228609Y-70992956D01*
X169235575Y-70896579D01*
X169258983Y-70817830D01*
X169296840Y-70769714D01*
X169347991Y-70753675D01*
X169399864Y-70769714D01*
G37*
G36*
X175929758Y-71806260D02*
G01*
X175681711Y-71806260D01*
X175487640Y-71806260D01*
X174816127Y-71806260D01*
X174224386Y-71806260D01*
X173746946Y-71806260D01*
X173162349Y-71806260D01*
X172895620Y-71806260D01*
X172336085Y-71806260D01*
X171973618Y-71806260D01*
X171261589Y-71806260D01*
X170461168Y-71806260D01*
X170214074Y-71806260D01*
X170171025Y-71806260D01*
X169347991Y-71806260D01*
X169063332Y-71806260D01*
X169015078Y-71806260D01*
X168226018Y-71806260D01*
X167927171Y-71806260D01*
X167462642Y-71806260D01*
X167127418Y-71806260D01*
X166689120Y-71806260D01*
X166458125Y-71806260D01*
X166159093Y-71806260D01*
X165843161Y-71806260D01*
X165618549Y-71806260D01*
X165370502Y-71806260D01*
X165316260Y-71805595D01*
X165262050Y-71803598D01*
X165207905Y-71800272D01*
X165153859Y-71795617D01*
X165099943Y-71789638D01*
X165046190Y-71782338D01*
X164992632Y-71773720D01*
X164939302Y-71763791D01*
X164886231Y-71752556D01*
X164833453Y-71740022D01*
X164780997Y-71726196D01*
X164728897Y-71711087D01*
X164677184Y-71694705D01*
X164625888Y-71677058D01*
X164575040Y-71658157D01*
X164524672Y-71638014D01*
X164474813Y-71616642D01*
X164425494Y-71594052D01*
X164376744Y-71570258D01*
X164328593Y-71545276D01*
X164314296Y-71537407D01*
X167348203Y-71537407D01*
X167397331Y-71552434D01*
X167462642Y-71558214D01*
X167537201Y-71547810D01*
X167594998Y-71516022D01*
X167642392Y-71461114D01*
X167685740Y-71381354D01*
X167713627Y-71316910D01*
X167739491Y-71250732D01*
X167763622Y-71182964D01*
X167786307Y-71113752D01*
X167807837Y-71042950D01*
X167828499Y-70970415D01*
X167849162Y-70896290D01*
X167870691Y-70820720D01*
X167725042Y-70820720D01*
X167704813Y-70913195D01*
X167682272Y-71009717D01*
X167657997Y-71104505D01*
X167633722Y-71191779D01*
X167600564Y-71106916D01*
X167599622Y-71104505D01*
X167583294Y-71057255D01*
X167567833Y-71009139D01*
X167553239Y-70960589D01*
X167539513Y-70912039D01*
X167515816Y-70820720D01*
X167367855Y-70820720D01*
X167389240Y-70898204D01*
X167411780Y-70972293D01*
X167435477Y-71042987D01*
X167460330Y-71110284D01*
X167494238Y-71194476D01*
X167528146Y-71272117D01*
X167562054Y-71343208D01*
X167521595Y-71409096D01*
X167454551Y-71436839D01*
X167415826Y-71432793D01*
X167374790Y-71418344D01*
X167348203Y-71537407D01*
X164314296Y-71537407D01*
X164281069Y-71519119D01*
X164234201Y-71491804D01*
X164188018Y-71463346D01*
X164142547Y-71433764D01*
X164097816Y-71403075D01*
X164053851Y-71371298D01*
X164010680Y-71338451D01*
X163981961Y-71315465D01*
X165639714Y-71315465D01*
X165721787Y-71360547D01*
X165776405Y-71374418D01*
X165843161Y-71379042D01*
X165907316Y-71373985D01*
X165961068Y-71358813D01*
X166040250Y-71303905D01*
X166084176Y-71222989D01*
X166094146Y-71175306D01*
X166097469Y-71124734D01*
X166097469Y-70820720D01*
X166237339Y-70820720D01*
X166237339Y-71123578D01*
X166239651Y-71176751D01*
X166246586Y-71225301D01*
X166280687Y-71305639D01*
X166348310Y-71358235D01*
X166397148Y-71372106D01*
X166458125Y-71376730D01*
X166521557Y-71374129D01*
X166580077Y-71366326D01*
X166675443Y-71345519D01*
X166675443Y-70820720D01*
X166532105Y-70820720D01*
X166532105Y-71247264D01*
X166467372Y-71253044D01*
X166397437Y-71216631D01*
X166383999Y-71170538D01*
X166379520Y-71105083D01*
X166379520Y-70820720D01*
X166237339Y-70820720D01*
X166097469Y-70820720D01*
X166097469Y-70648484D01*
X165714851Y-70648484D01*
X165714851Y-70766390D01*
X165954132Y-70766390D01*
X165954132Y-71116642D01*
X165945607Y-71183831D01*
X165920031Y-71225879D01*
X165880585Y-71247986D01*
X165830446Y-71255356D01*
X165758199Y-71238016D01*
X165694044Y-71202182D01*
X165665065Y-71262605D01*
X165639714Y-71315465D01*
X163981961Y-71315465D01*
X163968328Y-71304554D01*
X163926820Y-71269629D01*
X163886182Y-71233695D01*
X163846438Y-71196775D01*
X163807612Y-71158890D01*
X163769727Y-71120064D01*
X163732807Y-71080320D01*
X163696873Y-71039682D01*
X163661948Y-70998174D01*
X163628051Y-70955822D01*
X163595204Y-70912651D01*
X163563427Y-70868686D01*
X163532738Y-70823955D01*
X163503156Y-70778484D01*
X163474698Y-70732301D01*
X163447383Y-70685433D01*
X163421226Y-70637910D01*
X163396244Y-70589758D01*
X163385977Y-70568723D01*
X166788725Y-70568723D01*
X166788725Y-70686630D01*
X166938998Y-70686630D01*
X166938998Y-71147853D01*
X166950269Y-71246541D01*
X166984080Y-71318355D01*
X167042456Y-71362136D01*
X167127418Y-71376730D01*
X167191573Y-71372106D01*
X167239544Y-71361125D01*
X167271333Y-71348987D01*
X167286938Y-71340896D01*
X167268443Y-71226457D01*
X167230297Y-71241484D01*
X167158628Y-71253044D01*
X167103200Y-71233413D01*
X167103143Y-71233393D01*
X167081180Y-71158256D01*
X167081180Y-70727088D01*
X168530737Y-70727088D01*
X168601250Y-70826499D01*
X168674074Y-70772170D01*
X168744587Y-70755987D01*
X168811632Y-70779684D01*
X168838219Y-70847306D01*
X168816834Y-70908572D01*
X168762504Y-70970993D01*
X168691991Y-71038616D01*
X168655579Y-71075317D01*
X168621479Y-71114908D01*
X168591424Y-71157823D01*
X168567149Y-71204494D01*
X168551110Y-71255356D01*
X168545764Y-71310841D01*
X168545186Y-71335116D01*
X168548076Y-71364015D01*
X169015078Y-71364015D01*
X169015078Y-71246108D01*
X168707597Y-71246108D01*
X168719734Y-71207962D01*
X168749211Y-71166926D01*
X168786201Y-71127623D01*
X168820879Y-71094679D01*
X168879833Y-71036882D01*
X168906805Y-71004515D01*
X169099463Y-71004515D01*
X169103436Y-71093234D01*
X169115357Y-71169816D01*
X169135225Y-71234260D01*
X169163040Y-71286566D01*
X169211846Y-71337942D01*
X169273497Y-71368767D01*
X169347991Y-71379042D01*
X169422485Y-71368767D01*
X169484136Y-71337942D01*
X169532943Y-71286566D01*
X169560757Y-71234260D01*
X169580625Y-71169816D01*
X169592546Y-71093234D01*
X169596520Y-71004515D01*
X169592546Y-70916338D01*
X169580625Y-70840226D01*
X169560757Y-70776180D01*
X169534489Y-70727088D01*
X169686683Y-70727088D01*
X169757196Y-70826499D01*
X169830021Y-70772170D01*
X169900534Y-70755987D01*
X169967578Y-70779684D01*
X169994165Y-70847306D01*
X169972780Y-70908572D01*
X169918451Y-70970993D01*
X169847938Y-71038616D01*
X169811526Y-71075317D01*
X169777425Y-71114908D01*
X169747371Y-71157823D01*
X169723096Y-71204494D01*
X169707057Y-71255356D01*
X169701711Y-71310841D01*
X169701133Y-71335116D01*
X169704023Y-71364015D01*
X170171025Y-71364015D01*
X170171025Y-71339740D01*
X170262345Y-71339740D01*
X170298179Y-71352455D01*
X170348463Y-71365170D01*
X170405104Y-71374996D01*
X170461168Y-71379042D01*
X170527924Y-71374852D01*
X170584854Y-71362281D01*
X170632248Y-71342052D01*
X170670394Y-71314887D01*
X170720100Y-71242640D01*
X170736283Y-71151320D01*
X170728625Y-71093234D01*
X170705650Y-71043817D01*
X170668805Y-71004226D01*
X170619532Y-70975616D01*
X170684265Y-70915507D01*
X170708540Y-70833435D01*
X170694669Y-70753675D01*
X170651899Y-70689520D01*
X170578496Y-70647328D01*
X170530091Y-70636057D01*
X170522581Y-70635555D01*
X170473883Y-70632300D01*
X170412473Y-70637647D01*
X170357710Y-70653685D01*
X170275060Y-70695877D01*
X170325922Y-70799913D01*
X170394701Y-70766968D01*
X170475039Y-70753675D01*
X170540350Y-70776216D01*
X170564047Y-70838059D01*
X170553065Y-70881985D01*
X170524745Y-70909728D01*
X170485443Y-70924755D01*
X170441517Y-70929379D01*
X170388343Y-70929379D01*
X170388343Y-71047285D01*
X170432269Y-71047285D01*
X170495557Y-71052920D01*
X170546708Y-71069826D01*
X170580519Y-71100892D01*
X170591790Y-71149008D01*
X170562313Y-71226457D01*
X170521999Y-71249865D01*
X170460012Y-71257667D01*
X170405249Y-71254489D01*
X170358866Y-71244952D01*
X170290088Y-71220677D01*
X170262345Y-71339740D01*
X170171025Y-71339740D01*
X170171025Y-71246108D01*
X169863543Y-71246108D01*
X169875681Y-71207962D01*
X169905157Y-71166926D01*
X169942148Y-71127623D01*
X169976826Y-71094679D01*
X170035779Y-71036882D01*
X170087797Y-70974461D01*
X170124787Y-70907994D01*
X170138659Y-70836903D01*
X170120163Y-70747317D01*
X170070458Y-70683162D01*
X169998789Y-70645016D01*
X169914405Y-70632300D01*
X169854151Y-70638080D01*
X169793608Y-70655419D01*
X169736534Y-70684896D01*
X169709536Y-70707746D01*
X169686683Y-70727088D01*
X169534489Y-70727088D01*
X169532943Y-70724198D01*
X169484136Y-70673144D01*
X169422485Y-70642511D01*
X169404684Y-70640071D01*
X169347991Y-70632300D01*
X169274653Y-70642575D01*
X169213387Y-70673401D01*
X169164196Y-70724776D01*
X169135875Y-70776938D01*
X169115646Y-70840949D01*
X169103508Y-70916808D01*
X169099463Y-71004515D01*
X168906805Y-71004515D01*
X168931850Y-70974461D01*
X168968841Y-70907994D01*
X168982712Y-70836903D01*
X168964217Y-70747317D01*
X168914511Y-70683162D01*
X168842842Y-70645016D01*
X168758458Y-70632300D01*
X168698205Y-70638080D01*
X168637662Y-70655419D01*
X168580587Y-70684896D01*
X168530737Y-70727088D01*
X167081180Y-70727088D01*
X167081180Y-70568723D01*
X166788725Y-70568723D01*
X163385977Y-70568723D01*
X163372450Y-70541008D01*
X163349860Y-70491689D01*
X163328488Y-70441830D01*
X163308345Y-70391462D01*
X163289444Y-70340614D01*
X163271798Y-70289318D01*
X163255415Y-70237605D01*
X163240306Y-70185505D01*
X163226480Y-70133049D01*
X163213946Y-70080271D01*
X163202711Y-70027200D01*
X163192782Y-69973870D01*
X163184164Y-69920313D01*
X163176864Y-69866559D01*
X163170885Y-69812643D01*
X163166230Y-69758597D01*
X163162904Y-69704452D01*
X163160907Y-69650243D01*
X163160242Y-69596000D01*
X163160907Y-69541757D01*
X163162904Y-69487548D01*
X163166230Y-69433403D01*
X163170885Y-69379357D01*
X163176864Y-69325441D01*
X163184164Y-69271687D01*
X163192782Y-69218130D01*
X163202711Y-69164800D01*
X163205923Y-69149628D01*
X165665065Y-69149628D01*
X165665065Y-69875733D01*
X166130758Y-69875733D01*
X166256272Y-69875733D01*
X166689120Y-69875733D01*
X166689120Y-69756084D01*
X166428708Y-69756084D01*
X166458767Y-69711949D01*
X166492638Y-69664001D01*
X166528415Y-69615174D01*
X166536379Y-69604763D01*
X166800558Y-69604763D01*
X166805837Y-69670746D01*
X166821673Y-69727932D01*
X166847333Y-69776466D01*
X166882084Y-69816495D01*
X166925486Y-69847874D01*
X166977099Y-69870455D01*
X167036484Y-69884091D01*
X167103200Y-69888637D01*
X167198215Y-69879839D01*
X167213307Y-69875733D01*
X167455109Y-69875733D01*
X167600564Y-69875733D01*
X167600564Y-69466346D01*
X167660389Y-69455202D01*
X167720213Y-69452270D01*
X167751885Y-69453443D01*
X167790595Y-69457548D01*
X167829892Y-69464000D01*
X167863323Y-69471038D01*
X167889129Y-69337313D01*
X167843968Y-69326169D01*
X167794114Y-69319131D01*
X167747779Y-69315025D01*
X167714348Y-69313852D01*
X167638541Y-69317078D01*
X167572998Y-69326755D01*
X167513320Y-69341712D01*
X167455109Y-69360773D01*
X167455109Y-69875733D01*
X167213307Y-69875733D01*
X167277981Y-69858138D01*
X167258040Y-69734970D01*
X167191763Y-69753738D01*
X167109065Y-69763122D01*
X167045135Y-69755351D01*
X166994108Y-69732037D01*
X166960677Y-69695233D01*
X166949533Y-69646993D01*
X167307307Y-69646993D01*
X167309066Y-69622359D01*
X167309653Y-69593033D01*
X167302615Y-69508119D01*
X167281500Y-69437933D01*
X167246309Y-69382474D01*
X167197563Y-69342396D01*
X167135784Y-69318349D01*
X167060971Y-69310333D01*
X167012290Y-69315025D01*
X166992530Y-69320880D01*
X166964782Y-69329102D01*
X166920500Y-69352415D01*
X166881497Y-69384820D01*
X166848652Y-69426316D01*
X166822846Y-69476903D01*
X166806130Y-69536434D01*
X166800558Y-69604763D01*
X166536379Y-69604763D01*
X166564193Y-69568400D01*
X166598650Y-69524851D01*
X166630469Y-69485701D01*
X166677390Y-69429982D01*
X166677390Y-69324409D01*
X166538902Y-69324409D01*
X166268003Y-69324409D01*
X166268003Y-69444058D01*
X166495570Y-69444058D01*
X166440438Y-69517959D01*
X166409646Y-69560042D01*
X166378267Y-69604177D01*
X166346596Y-69649778D01*
X166314924Y-69696260D01*
X166284425Y-69742594D01*
X166256272Y-69787756D01*
X166256272Y-69875733D01*
X166130758Y-69875733D01*
X166130758Y-69756084D01*
X165809348Y-69756084D01*
X165809348Y-69551977D01*
X166066242Y-69551977D01*
X166066242Y-69432328D01*
X165809348Y-69432328D01*
X165809348Y-69269277D01*
X166104952Y-69269277D01*
X166104952Y-69149628D01*
X168607024Y-69149628D01*
X168607024Y-69875733D01*
X169063332Y-69875733D01*
X169063332Y-69756084D01*
X168843952Y-69756084D01*
X168752479Y-69756084D01*
X168752479Y-69598898D01*
X169144271Y-69598898D01*
X169148963Y-69661509D01*
X169163040Y-69717961D01*
X169185767Y-69767668D01*
X169216412Y-69810044D01*
X169254243Y-69844355D01*
X169298525Y-69869868D01*
X169348818Y-69885704D01*
X169404684Y-69890983D01*
X169460549Y-69885704D01*
X169492216Y-69875733D01*
X169770669Y-69875733D01*
X169914952Y-69875733D01*
X169914952Y-69442885D01*
X169948383Y-69439366D01*
X169980641Y-69438193D01*
X170052196Y-69472211D01*
X170065393Y-69517080D01*
X170069791Y-69583649D01*
X170069791Y-69875733D01*
X170214074Y-69875733D01*
X170214074Y-69582476D01*
X170321993Y-69582476D01*
X170328184Y-69657159D01*
X170346757Y-69720111D01*
X170377712Y-69771334D01*
X170446481Y-69822360D01*
X170541349Y-69839369D01*
X170595895Y-69833504D01*
X170651614Y-69815909D01*
X170651614Y-69838196D01*
X170645749Y-69882185D01*
X170625807Y-69917962D01*
X170587097Y-69942009D01*
X170524927Y-69950807D01*
X170431085Y-69939663D01*
X170359530Y-69915616D01*
X170332550Y-70037611D01*
X170423460Y-70062245D01*
X170471994Y-70070163D01*
X170522581Y-70072802D01*
X170609972Y-70065634D01*
X170679767Y-70044128D01*
X170731967Y-70008286D01*
X170768135Y-69957454D01*
X170789836Y-69890983D01*
X170797070Y-69808871D01*
X170797070Y-69444058D01*
X170912027Y-69444058D01*
X171064521Y-69444058D01*
X171064521Y-69646993D01*
X171066867Y-69701245D01*
X171073905Y-69749046D01*
X171106163Y-69824707D01*
X171167161Y-69872214D01*
X171261589Y-69888637D01*
X171333731Y-69881012D01*
X171349137Y-69875733D01*
X171530213Y-69875733D01*
X171674496Y-69875733D01*
X171674496Y-69442885D01*
X171707927Y-69439366D01*
X171740186Y-69438193D01*
X171811740Y-69472211D01*
X171824937Y-69517080D01*
X171829336Y-69583649D01*
X171829336Y-69875733D01*
X171973618Y-69875733D01*
X171973618Y-69631743D01*
X172112036Y-69631743D01*
X172114382Y-69685703D01*
X172121420Y-69734970D01*
X172156025Y-69816495D01*
X172224647Y-69869868D01*
X172274207Y-69883945D01*
X172336085Y-69888637D01*
X172400455Y-69885997D01*
X172459839Y-69878079D01*
X172556614Y-69856965D01*
X172556614Y-69842888D01*
X172692686Y-69842888D01*
X172773625Y-69872214D01*
X172829343Y-69884531D01*
X172895620Y-69888637D01*
X172960430Y-69885411D01*
X173014096Y-69875733D01*
X173092102Y-69840542D01*
X173134918Y-69787756D01*
X173147821Y-69723239D01*
X173130226Y-69649925D01*
X173085064Y-69600658D01*
X173023480Y-69568400D01*
X172957790Y-69544939D01*
X172916148Y-69530276D01*
X172882130Y-69514440D01*
X172858669Y-69496258D01*
X172849871Y-69473384D01*
X172869226Y-69444645D01*
X172943714Y-69431155D01*
X173038729Y-69444645D01*
X173100900Y-69464000D01*
X173123187Y-69342005D01*
X173042835Y-69318544D01*
X172994594Y-69312386D01*
X172942541Y-69310333D01*
X172884769Y-69313706D01*
X172835795Y-69323823D01*
X172762481Y-69361360D01*
X172720252Y-69416492D01*
X172706762Y-69482768D01*
X172724357Y-69554910D01*
X172768932Y-69602417D01*
X172828757Y-69633503D01*
X172893274Y-69655204D01*
X172936089Y-69669280D01*
X172972453Y-69683943D01*
X172997087Y-69702125D01*
X173005884Y-69727932D01*
X172977732Y-69759017D01*
X172896793Y-69766642D01*
X172802364Y-69752565D01*
X172714973Y-69722066D01*
X172692686Y-69842888D01*
X172556614Y-69842888D01*
X172556614Y-69324409D01*
X172411158Y-69324409D01*
X172411158Y-69757257D01*
X172345469Y-69763122D01*
X172274500Y-69726172D01*
X172260864Y-69679397D01*
X172256319Y-69612975D01*
X172256319Y-69324409D01*
X172214611Y-69324409D01*
X172126505Y-69324409D01*
X172112036Y-69324409D01*
X172112036Y-69631743D01*
X171973618Y-69631743D01*
X171973618Y-69564880D01*
X171970979Y-69511068D01*
X171963061Y-69462240D01*
X171927284Y-69382474D01*
X171858662Y-69330861D01*
X171809688Y-69317225D01*
X171749570Y-69312679D01*
X171685200Y-69315025D01*
X171625815Y-69322063D01*
X171530213Y-69342005D01*
X171530213Y-69875733D01*
X171349137Y-69875733D01*
X171417602Y-69852273D01*
X171398834Y-69736143D01*
X171335490Y-69757844D01*
X171287396Y-69763122D01*
X171226985Y-69739075D01*
X171218058Y-69703080D01*
X171208803Y-69665761D01*
X171208803Y-69324409D01*
X171111442Y-69324409D01*
X170912027Y-69324409D01*
X170912027Y-69444058D01*
X170797070Y-69444058D01*
X170797070Y-69342005D01*
X170728382Y-69325713D01*
X170663084Y-69315938D01*
X170601174Y-69312679D01*
X170521147Y-69320108D01*
X170453111Y-69342396D01*
X170397067Y-69379542D01*
X170355359Y-69431807D01*
X170330334Y-69499451D01*
X170321993Y-69582476D01*
X170214074Y-69582476D01*
X170214074Y-69564880D01*
X170211435Y-69511068D01*
X170203517Y-69462240D01*
X170167739Y-69382474D01*
X170099117Y-69330861D01*
X170050143Y-69317225D01*
X169990025Y-69312679D01*
X169925655Y-69315025D01*
X169915515Y-69316227D01*
X169866271Y-69322063D01*
X169770669Y-69342005D01*
X169770669Y-69875733D01*
X169492216Y-69875733D01*
X169510843Y-69869868D01*
X169554978Y-69844355D01*
X169592368Y-69810044D01*
X169622574Y-69767668D01*
X169645155Y-69717961D01*
X169659231Y-69661509D01*
X169663923Y-69598898D01*
X169659231Y-69537168D01*
X169645155Y-69481009D01*
X169622427Y-69431448D01*
X169591782Y-69389513D01*
X169553952Y-69355788D01*
X169509670Y-69330861D01*
X169459669Y-69315465D01*
X169404684Y-69310333D01*
X169350431Y-69315465D01*
X169300284Y-69330861D01*
X169255562Y-69355788D01*
X169217585Y-69389513D01*
X169186793Y-69431448D01*
X169163626Y-69481009D01*
X169149110Y-69537168D01*
X169144271Y-69598898D01*
X168752479Y-69598898D01*
X168752479Y-69166050D01*
X171021118Y-69166050D01*
X171047512Y-69232913D01*
X171111442Y-69257547D01*
X171175958Y-69232913D01*
X171202938Y-69166050D01*
X171175958Y-69098015D01*
X171111442Y-69073381D01*
X171047512Y-69098015D01*
X171021118Y-69166050D01*
X168752479Y-69166050D01*
X168752479Y-69149628D01*
X168607024Y-69149628D01*
X166104952Y-69149628D01*
X165665065Y-69149628D01*
X163205923Y-69149628D01*
X163213946Y-69111729D01*
X163226480Y-69058951D01*
X163240306Y-69006495D01*
X163255415Y-68954395D01*
X163271798Y-68902682D01*
X163289444Y-68851386D01*
X163308345Y-68800538D01*
X163328488Y-68750170D01*
X163349860Y-68700311D01*
X163372450Y-68650992D01*
X163396244Y-68602242D01*
X163421226Y-68554090D01*
X163447383Y-68506567D01*
X163474698Y-68459699D01*
X163503156Y-68413516D01*
X163520112Y-68387452D01*
X165618549Y-68387452D01*
X165753090Y-68387452D01*
X165747136Y-67814761D01*
X165834052Y-68126705D01*
X165941208Y-68126705D01*
X166031696Y-67814761D01*
X166024552Y-68387452D01*
X166159093Y-68387452D01*
X166156414Y-68293244D01*
X166153140Y-68201119D01*
X166149121Y-68110334D01*
X166144210Y-68020144D01*
X166144092Y-68018358D01*
X166218624Y-68018358D01*
X166223759Y-68105348D01*
X166239162Y-68181772D01*
X166264835Y-68247628D01*
X166300777Y-68302918D01*
X166363748Y-68358480D01*
X166443123Y-68391818D01*
X166538902Y-68402930D01*
X166603940Y-68398912D01*
X166658128Y-68387452D01*
X166846083Y-68387452D01*
X166992530Y-68387452D01*
X166992530Y-68138611D01*
X167044918Y-68138611D01*
X167132958Y-68132063D01*
X167206578Y-68112418D01*
X167265779Y-68079675D01*
X167309104Y-68032249D01*
X167335099Y-67968550D01*
X167343765Y-67888580D01*
X167335166Y-67809404D01*
X167309369Y-67746499D01*
X167295465Y-67731418D01*
X167428299Y-67731418D01*
X167500927Y-67833811D01*
X167575936Y-67777852D01*
X167648565Y-67761183D01*
X167717621Y-67785591D01*
X167745005Y-67855243D01*
X167722979Y-67918346D01*
X167667019Y-67982640D01*
X167631896Y-68016721D01*
X167594391Y-68052291D01*
X167556886Y-68090093D01*
X167521763Y-68130872D01*
X167490807Y-68175074D01*
X167465804Y-68223146D01*
X167449284Y-68275533D01*
X167443777Y-68332683D01*
X167443182Y-68357686D01*
X167446158Y-68387452D01*
X167927171Y-68387452D01*
X167927171Y-68362449D01*
X168021230Y-68362449D01*
X168058140Y-68375546D01*
X168109932Y-68388643D01*
X168168272Y-68398763D01*
X168226018Y-68402930D01*
X168294776Y-68398614D01*
X168353415Y-68385666D01*
X168402230Y-68364830D01*
X168427309Y-68346971D01*
X168615352Y-68346971D01*
X168697505Y-68383285D01*
X168761501Y-68398019D01*
X168843952Y-68402930D01*
X168927494Y-68396646D01*
X168995558Y-68377795D01*
X169048144Y-68346375D01*
X169098597Y-68278063D01*
X169115415Y-68186236D01*
X169110354Y-68130724D01*
X169095174Y-68085629D01*
X169043382Y-68018954D01*
X168974326Y-67976091D01*
X168902293Y-67946921D01*
X168856454Y-67929061D01*
X168814782Y-67907035D01*
X168784421Y-67878460D01*
X168772515Y-67840955D01*
X168782704Y-67804046D01*
X169220190Y-67804046D01*
X169267815Y-67925490D01*
X169340443Y-67896319D01*
X169416643Y-67854052D01*
X169416643Y-68266008D01*
X169261861Y-68266008D01*
X169261861Y-68387452D01*
X169709536Y-68387452D01*
X169709536Y-68266008D01*
X169563090Y-68266008D01*
X169563090Y-67650455D01*
X169816693Y-67650455D01*
X169816693Y-67771899D01*
X170126255Y-67771899D01*
X170093215Y-67830686D01*
X170058390Y-67899891D01*
X170024010Y-67976538D01*
X169992310Y-68057649D01*
X169964181Y-68141439D01*
X169940518Y-68226122D01*
X169923551Y-68309020D01*
X169915515Y-68387452D01*
X170064343Y-68387452D01*
X170065699Y-68375546D01*
X171013271Y-68375546D01*
X171064765Y-68384922D01*
X171116855Y-68391619D01*
X171168350Y-68395638D01*
X171218058Y-68396977D01*
X171276845Y-68394149D01*
X171320201Y-68387452D01*
X171608583Y-68387452D01*
X171755030Y-68387452D01*
X171755030Y-68115990D01*
X171831230Y-68115990D01*
X171871563Y-68183409D01*
X171909216Y-68249935D01*
X171943298Y-68317354D01*
X171972915Y-68387452D01*
X172126505Y-68387452D01*
X172092572Y-68309466D01*
X172051496Y-68227313D01*
X172007443Y-68148732D01*
X171964580Y-68080271D01*
X172016670Y-68046636D01*
X172051496Y-68000499D01*
X172071141Y-67945135D01*
X172077690Y-67883818D01*
X172072778Y-67825924D01*
X172058044Y-67776066D01*
X172001490Y-67700461D01*
X171961008Y-67674565D01*
X171913383Y-67656408D01*
X171883286Y-67650455D01*
X172214611Y-67650455D01*
X172214611Y-68387452D01*
X172687290Y-68387452D01*
X172745630Y-68387452D01*
X172898030Y-68387452D01*
X172931368Y-68217193D01*
X173127821Y-68217193D01*
X173162349Y-68387452D01*
X173319511Y-68387452D01*
X173299866Y-68303894D01*
X173279983Y-68222765D01*
X173259861Y-68144064D01*
X173239501Y-68067793D01*
X173218904Y-67993950D01*
X173192970Y-67904393D01*
X173166963Y-67817292D01*
X173140881Y-67732646D01*
X173114724Y-67650455D01*
X173383805Y-67650455D01*
X173383805Y-68387452D01*
X173530252Y-68387452D01*
X173530252Y-68050505D01*
X173592760Y-68117775D01*
X173624758Y-68159150D01*
X173655268Y-68203500D01*
X173683694Y-68249935D01*
X173709441Y-68297560D01*
X173746946Y-68387452D01*
X173912443Y-68387452D01*
X173893095Y-68334320D01*
X173868390Y-68279700D01*
X173839368Y-68224932D01*
X173807072Y-68171354D01*
X173772098Y-68120008D01*
X173735040Y-68071936D01*
X173697237Y-68028181D01*
X173687719Y-68018358D01*
X173957686Y-68018358D01*
X173961965Y-68107767D01*
X173974802Y-68185492D01*
X173996196Y-68251535D01*
X174026147Y-68305894D01*
X174078601Y-68359803D01*
X174144681Y-68392148D01*
X174224386Y-68402930D01*
X174302174Y-68392148D01*
X174367261Y-68359803D01*
X174419649Y-68305894D01*
X174449861Y-68251535D01*
X174471441Y-68185492D01*
X174484389Y-68107767D01*
X174488705Y-68018358D01*
X174484464Y-67928950D01*
X174471739Y-67851224D01*
X174450531Y-67785182D01*
X174420840Y-67730822D01*
X174368717Y-67676914D01*
X174314826Y-67650455D01*
X174567286Y-67650455D01*
X174567286Y-68120752D01*
X174570263Y-68182069D01*
X174579193Y-68237433D01*
X174595266Y-68285951D01*
X174619674Y-68326730D01*
X174696469Y-68383285D01*
X174750494Y-68398019D01*
X174816127Y-68402930D01*
X174882802Y-68398019D01*
X174937571Y-68383285D01*
X174981624Y-68359324D01*
X175016152Y-68326730D01*
X175041453Y-68285951D01*
X175057824Y-68237433D01*
X175066754Y-68182069D01*
X175069730Y-68120752D01*
X175069730Y-67650455D01*
X175145930Y-67650455D01*
X175145930Y-67771899D01*
X175340002Y-67771899D01*
X175340002Y-68387452D01*
X175487640Y-68387452D01*
X175487640Y-67771899D01*
X175681711Y-67771899D01*
X175681711Y-67650455D01*
X175145930Y-67650455D01*
X175069730Y-67650455D01*
X174923283Y-67650455D01*
X174923283Y-68110036D01*
X174918521Y-68188022D01*
X174901852Y-68239219D01*
X174869705Y-68267199D01*
X174818508Y-68275533D01*
X174767311Y-68267199D01*
X174735760Y-68239815D01*
X174719686Y-68189213D01*
X174714924Y-68111227D01*
X174714924Y-67650455D01*
X174567286Y-67650455D01*
X174314826Y-67650455D01*
X174302835Y-67644568D01*
X174223196Y-67633786D01*
X174145938Y-67644568D01*
X174080850Y-67676914D01*
X174027933Y-67730822D01*
X173997200Y-67785182D01*
X173975248Y-67851224D01*
X173962077Y-67928950D01*
X173957686Y-68018358D01*
X173687719Y-68018358D01*
X173660030Y-67989783D01*
X173696195Y-67946028D01*
X173730872Y-67900486D01*
X173763763Y-67854499D01*
X173794571Y-67809404D01*
X173822699Y-67765648D01*
X173847554Y-67723679D01*
X173887440Y-67650455D01*
X173721943Y-67650455D01*
X173686224Y-67721893D01*
X173639194Y-67801665D01*
X173585021Y-67882627D01*
X173530252Y-67956446D01*
X173530252Y-67650455D01*
X173383805Y-67650455D01*
X173114724Y-67650455D01*
X172955180Y-67650455D01*
X172929954Y-67731976D01*
X172904281Y-67815803D01*
X172878162Y-67901937D01*
X172851596Y-67990379D01*
X172830212Y-68063602D01*
X172808924Y-68139921D01*
X172787731Y-68219336D01*
X172766633Y-68301846D01*
X172745630Y-68387452D01*
X172687290Y-68387452D01*
X172687290Y-68266008D01*
X172361058Y-68266008D01*
X172361058Y-68058840D01*
X172621805Y-68058840D01*
X172621805Y-67937396D01*
X172361058Y-67937396D01*
X172361058Y-67771899D01*
X172661096Y-67771899D01*
X172661096Y-67650455D01*
X172214611Y-67650455D01*
X171883286Y-67650455D01*
X171859210Y-67645693D01*
X171799083Y-67642121D01*
X171757411Y-67643311D01*
X171707405Y-67646288D01*
X171655613Y-67652241D01*
X171608583Y-67661171D01*
X171608583Y-68387452D01*
X171320201Y-68387452D01*
X171331763Y-68385666D01*
X171381174Y-68370486D01*
X171423441Y-68347566D01*
X171484758Y-68276129D01*
X171501725Y-68225974D01*
X171507380Y-68164805D01*
X171500683Y-68114799D01*
X171480591Y-68067174D01*
X171441747Y-68025502D01*
X171378793Y-67993355D01*
X171447254Y-67929061D01*
X171466452Y-67885604D01*
X171472852Y-67836193D01*
X171462136Y-67767136D01*
X171421655Y-67704629D01*
X171339502Y-67659385D01*
X171279376Y-67646437D01*
X171203771Y-67642121D01*
X171104949Y-67647479D01*
X171013271Y-67659980D01*
X171013271Y-68375546D01*
X170065699Y-68375546D01*
X170075207Y-68292053D01*
X170095894Y-68196357D01*
X170123576Y-68103339D01*
X170155426Y-68015977D01*
X170190400Y-67935908D01*
X170227458Y-67864768D01*
X170264070Y-67805534D01*
X170297705Y-67761183D01*
X170297705Y-67650455D01*
X169816693Y-67650455D01*
X169563090Y-67650455D01*
X169463077Y-67650455D01*
X169411880Y-67696890D01*
X169348777Y-67739752D01*
X169282102Y-67776661D01*
X169220190Y-67804046D01*
X168782704Y-67804046D01*
X168785479Y-67793992D01*
X168824373Y-67765814D01*
X168889196Y-67756421D01*
X168973135Y-67768327D01*
X169039215Y-67796902D01*
X169082077Y-67683793D01*
X168996947Y-67649265D01*
X168942030Y-67637656D01*
X168878480Y-67633786D01*
X168805521Y-67640269D01*
X168743807Y-67659716D01*
X168693338Y-67692127D01*
X168642885Y-67761779D01*
X168626068Y-67854052D01*
X168645118Y-67941563D01*
X168693338Y-68000499D01*
X168758227Y-68039790D01*
X168827283Y-68067174D01*
X168877290Y-68088010D01*
X168922533Y-68113013D01*
X168955871Y-68144565D01*
X168968968Y-68185046D01*
X168963610Y-68220169D01*
X168943965Y-68251125D01*
X168905269Y-68272557D01*
X168843952Y-68280296D01*
X168784570Y-68276129D01*
X168735010Y-68263627D01*
X168658215Y-68227908D01*
X168615352Y-68346971D01*
X168427309Y-68346971D01*
X168441521Y-68336850D01*
X168492718Y-68262436D01*
X168509386Y-68168377D01*
X168501499Y-68108548D01*
X168477835Y-68057649D01*
X168439884Y-68016870D01*
X168389133Y-67987402D01*
X168455808Y-67925490D01*
X168480811Y-67840955D01*
X168466524Y-67758802D01*
X168422471Y-67692722D01*
X168346866Y-67649265D01*
X168297009Y-67637656D01*
X168239115Y-67633786D01*
X168175863Y-67639293D01*
X168119457Y-67655813D01*
X168034327Y-67699271D01*
X168086715Y-67806427D01*
X168157557Y-67772494D01*
X168240305Y-67758802D01*
X168307576Y-67782019D01*
X168331983Y-67845718D01*
X168320672Y-67890961D01*
X168291502Y-67919536D01*
X168251021Y-67935015D01*
X168205777Y-67939777D01*
X168151008Y-67939777D01*
X168151008Y-68061221D01*
X168196252Y-68061221D01*
X168261439Y-68067025D01*
X168314124Y-68084438D01*
X168348950Y-68116436D01*
X168360558Y-68165996D01*
X168330197Y-68245768D01*
X168288674Y-68269878D01*
X168224827Y-68277915D01*
X168168421Y-68274640D01*
X168120647Y-68264818D01*
X168049805Y-68239815D01*
X168021230Y-68362449D01*
X167927171Y-68362449D01*
X167927171Y-68266008D01*
X167610465Y-68266008D01*
X167622966Y-68226718D01*
X167653327Y-68184450D01*
X167691427Y-68143969D01*
X167727146Y-68110036D01*
X167787868Y-68050505D01*
X167841446Y-67986211D01*
X167879546Y-67917750D01*
X167893833Y-67844527D01*
X167874783Y-67752254D01*
X167823586Y-67686174D01*
X167749768Y-67646883D01*
X167662852Y-67633786D01*
X167600791Y-67639740D01*
X167538432Y-67657599D01*
X167479645Y-67687960D01*
X167428299Y-67731418D01*
X167295465Y-67731418D01*
X167266374Y-67699866D01*
X167207769Y-67667785D01*
X167135141Y-67648537D01*
X167048490Y-67642121D01*
X167002055Y-67643311D01*
X166948477Y-67646288D01*
X166894304Y-67651646D01*
X166846083Y-67659980D01*
X166846083Y-68387452D01*
X166658128Y-68387452D01*
X166660941Y-68386857D01*
X166744880Y-68351733D01*
X166707971Y-68236243D01*
X166647844Y-68262436D01*
X166553190Y-68275533D01*
X166468209Y-68258716D01*
X166410910Y-68208263D01*
X166386767Y-68156868D01*
X166372281Y-68092375D01*
X166367452Y-68014786D01*
X166371470Y-67948111D01*
X166383526Y-67893343D01*
X166425197Y-67815357D01*
X166483538Y-67773685D01*
X166550808Y-67761183D01*
X166639510Y-67773685D01*
X166705590Y-67804046D01*
X166743690Y-67687365D01*
X166719282Y-67673077D01*
X166679396Y-67655218D01*
X166624032Y-67640335D01*
X166553190Y-67633786D01*
X166483389Y-67640186D01*
X166419244Y-67659385D01*
X166362094Y-67690936D01*
X166313279Y-67734394D01*
X166273542Y-67789312D01*
X166243627Y-67855243D01*
X166224875Y-67931740D01*
X166218624Y-68018358D01*
X166144092Y-68018358D01*
X166138257Y-67929806D01*
X166131113Y-67838574D01*
X166123225Y-67745705D01*
X166115040Y-67650455D01*
X165993596Y-67650455D01*
X165972165Y-67713558D01*
X165945971Y-67795116D01*
X165916205Y-67885604D01*
X165886440Y-67976686D01*
X165859055Y-67890961D01*
X165830480Y-67799283D01*
X165803691Y-67714749D01*
X165782855Y-67650455D01*
X165661411Y-67650455D01*
X165653524Y-67731120D01*
X165646529Y-67818333D01*
X165640427Y-67910309D01*
X165635218Y-68005261D01*
X165630604Y-68102000D01*
X165626288Y-68199333D01*
X165622270Y-68295179D01*
X165618549Y-68387452D01*
X163520112Y-68387452D01*
X163532738Y-68368045D01*
X163563427Y-68323314D01*
X163595204Y-68279349D01*
X163628051Y-68236178D01*
X163661948Y-68193826D01*
X163696873Y-68152318D01*
X163732807Y-68111680D01*
X163769727Y-68071936D01*
X163807612Y-68033110D01*
X163846438Y-67995225D01*
X163886182Y-67958305D01*
X163926820Y-67922371D01*
X163968328Y-67887446D01*
X164010680Y-67853549D01*
X164053851Y-67820702D01*
X164097816Y-67788925D01*
X164142547Y-67758236D01*
X164188018Y-67728654D01*
X164234201Y-67700196D01*
X164281069Y-67672881D01*
X164328593Y-67646724D01*
X164376744Y-67621742D01*
X164425494Y-67597948D01*
X164474813Y-67575358D01*
X164524672Y-67553986D01*
X164575040Y-67533843D01*
X164625888Y-67514942D01*
X164677184Y-67497295D01*
X164728897Y-67480913D01*
X164780997Y-67465804D01*
X164833453Y-67451978D01*
X164886231Y-67439444D01*
X164939302Y-67428209D01*
X164992632Y-67418280D01*
X165046190Y-67409662D01*
X165099943Y-67402362D01*
X165153859Y-67396383D01*
X165207905Y-67391728D01*
X165262050Y-67388402D01*
X165316260Y-67386405D01*
X165370502Y-67385740D01*
X165618549Y-67385740D01*
X175681711Y-67385740D01*
X175929758Y-67385740D01*
X175929758Y-71806260D01*
G37*
%TO.C,kibuzzard-64B17B8E*%
G36*
X174200873Y-76027492D02*
G01*
X173870144Y-76027492D01*
X173649481Y-76027492D01*
X172770006Y-76027492D01*
X171874656Y-76027492D01*
X171569856Y-76027492D01*
X171239127Y-76027492D01*
X171239127Y-75622150D01*
X171569856Y-75622150D01*
X171679394Y-75670569D01*
X171764722Y-75690214D01*
X171874656Y-75696762D01*
X171986046Y-75688384D01*
X172076798Y-75663249D01*
X172146912Y-75621356D01*
X172214183Y-75530273D01*
X172236606Y-75407837D01*
X172229859Y-75333820D01*
X172209619Y-75273694D01*
X172140562Y-75184794D01*
X172139283Y-75184000D01*
X172342969Y-75184000D01*
X172349815Y-75299987D01*
X172370353Y-75401884D01*
X172404584Y-75489693D01*
X172452506Y-75563412D01*
X172536467Y-75637496D01*
X172642301Y-75681946D01*
X172770006Y-75696762D01*
X172856723Y-75691405D01*
X172932725Y-75675331D01*
X173044644Y-75628500D01*
X172995431Y-75474512D01*
X172915262Y-75509437D01*
X172789056Y-75526900D01*
X172675748Y-75504477D01*
X172599350Y-75437206D01*
X172567159Y-75368679D01*
X172547844Y-75282690D01*
X172541406Y-75179237D01*
X172546764Y-75090337D01*
X172562837Y-75017312D01*
X172618400Y-74913331D01*
X172696187Y-74857769D01*
X172785881Y-74841100D01*
X172904150Y-74857769D01*
X172992256Y-74898250D01*
X173043056Y-74742675D01*
X173010512Y-74723625D01*
X172957331Y-74699812D01*
X172933708Y-74693462D01*
X173165294Y-74693462D01*
X173165294Y-75676125D01*
X173360556Y-75676125D01*
X173360556Y-75226862D01*
X173443900Y-75316556D01*
X173486564Y-75371722D01*
X173527244Y-75430856D01*
X173565145Y-75492769D01*
X173599475Y-75556269D01*
X173649481Y-75676125D01*
X173870144Y-75676125D01*
X173844347Y-75605283D01*
X173811406Y-75532456D01*
X173772711Y-75459431D01*
X173729650Y-75387994D01*
X173683017Y-75319533D01*
X173633606Y-75255437D01*
X173583203Y-75197097D01*
X173533594Y-75145900D01*
X173581814Y-75087559D01*
X173628050Y-75026837D01*
X173671905Y-74965520D01*
X173712981Y-74905394D01*
X173750486Y-74847053D01*
X173783625Y-74791094D01*
X173836806Y-74693462D01*
X173616144Y-74693462D01*
X173568519Y-74788712D01*
X173505812Y-74895075D01*
X173433581Y-75003025D01*
X173360556Y-75101450D01*
X173360556Y-74693462D01*
X173165294Y-74693462D01*
X172933708Y-74693462D01*
X172883512Y-74679969D01*
X172789056Y-74671237D01*
X172695989Y-74679770D01*
X172610462Y-74705369D01*
X172534262Y-74747437D01*
X172469175Y-74805381D01*
X172416192Y-74878605D01*
X172376306Y-74966512D01*
X172351303Y-75068509D01*
X172342969Y-75184000D01*
X172139283Y-75184000D01*
X172048487Y-75127644D01*
X171952444Y-75088750D01*
X171891325Y-75064937D01*
X171835762Y-75035569D01*
X171795281Y-74997469D01*
X171779406Y-74947462D01*
X171796692Y-74884844D01*
X171848551Y-74847274D01*
X171934981Y-74834750D01*
X172046900Y-74850625D01*
X172135006Y-74888725D01*
X172192156Y-74737912D01*
X172078650Y-74691875D01*
X172005427Y-74676397D01*
X171920694Y-74671237D01*
X171823415Y-74679881D01*
X171741130Y-74705810D01*
X171673837Y-74749025D01*
X171606567Y-74841894D01*
X171584144Y-74964925D01*
X171609544Y-75081606D01*
X171673837Y-75160187D01*
X171760356Y-75212575D01*
X171852431Y-75249087D01*
X171919106Y-75276869D01*
X171979431Y-75310206D01*
X172023881Y-75352275D01*
X172041344Y-75406250D01*
X172034200Y-75453081D01*
X172008006Y-75494356D01*
X171956412Y-75522931D01*
X171874656Y-75533250D01*
X171795480Y-75527694D01*
X171729400Y-75511025D01*
X171627006Y-75463400D01*
X171569856Y-75622150D01*
X171239127Y-75622150D01*
X171239127Y-74340508D01*
X171569856Y-74340508D01*
X173870144Y-74340508D01*
X174200873Y-74340508D01*
X174200873Y-76027492D01*
G37*
%TO.C,kibuzzard-64B17C16*%
G36*
X173410298Y-102570492D02*
G01*
X173079569Y-102570492D01*
X172717619Y-102570492D01*
X172025469Y-102570492D01*
X171598431Y-102570492D01*
X171267702Y-102570492D01*
X171267702Y-101727000D01*
X171598431Y-101727000D01*
X171605277Y-101842987D01*
X171625816Y-101944884D01*
X171660046Y-102032693D01*
X171707969Y-102106412D01*
X171791930Y-102180496D01*
X171897763Y-102224946D01*
X172025469Y-102239762D01*
X172112186Y-102234405D01*
X172188188Y-102218331D01*
X172300106Y-102171500D01*
X172298077Y-102165150D01*
X172412819Y-102165150D01*
X172522356Y-102213569D01*
X172607684Y-102233214D01*
X172717619Y-102239762D01*
X172829008Y-102231384D01*
X172919760Y-102206249D01*
X172989875Y-102164356D01*
X173057145Y-102073273D01*
X173079569Y-101950837D01*
X173072822Y-101876820D01*
X173052581Y-101816694D01*
X172983525Y-101727794D01*
X172891450Y-101670644D01*
X172795406Y-101631750D01*
X172734288Y-101607937D01*
X172678725Y-101578569D01*
X172638244Y-101540469D01*
X172622369Y-101490462D01*
X172639655Y-101427844D01*
X172691513Y-101390274D01*
X172777944Y-101377750D01*
X172889863Y-101393625D01*
X172977969Y-101431725D01*
X173035119Y-101280912D01*
X172921613Y-101234875D01*
X172848389Y-101219397D01*
X172763656Y-101214237D01*
X172666378Y-101222881D01*
X172584092Y-101248810D01*
X172516800Y-101292025D01*
X172449530Y-101384894D01*
X172427106Y-101507925D01*
X172452506Y-101624606D01*
X172516800Y-101703187D01*
X172603319Y-101755575D01*
X172695394Y-101792087D01*
X172762069Y-101819869D01*
X172822394Y-101853206D01*
X172866844Y-101895275D01*
X172884306Y-101949250D01*
X172877163Y-101996081D01*
X172850969Y-102037356D01*
X172799375Y-102065931D01*
X172717619Y-102076250D01*
X172638442Y-102070694D01*
X172572363Y-102054025D01*
X172469969Y-102006400D01*
X172412819Y-102165150D01*
X172298077Y-102165150D01*
X172250894Y-102017512D01*
X172170725Y-102052437D01*
X172044519Y-102069900D01*
X171931211Y-102047477D01*
X171854813Y-101980206D01*
X171822622Y-101911679D01*
X171803307Y-101825690D01*
X171796869Y-101722237D01*
X171802227Y-101633337D01*
X171818300Y-101560312D01*
X171873863Y-101456331D01*
X171951650Y-101400769D01*
X172041344Y-101384100D01*
X172159613Y-101400769D01*
X172247719Y-101441250D01*
X172298519Y-101285675D01*
X172265975Y-101266625D01*
X172212794Y-101242812D01*
X172138975Y-101222969D01*
X172044519Y-101214237D01*
X171951452Y-101222770D01*
X171865925Y-101248369D01*
X171789725Y-101290437D01*
X171724638Y-101348381D01*
X171671655Y-101421605D01*
X171631769Y-101509512D01*
X171606766Y-101611509D01*
X171598431Y-101727000D01*
X171267702Y-101727000D01*
X171267702Y-100883508D01*
X171598431Y-100883508D01*
X173079569Y-100883508D01*
X173410298Y-100883508D01*
X173410298Y-102570492D01*
G37*
%TO.C,J5*%
X191830000Y-110550000D02*
X190500000Y-110550000D01*
X191830000Y-109220000D02*
X191830000Y-110550000D01*
X191830000Y-107950000D02*
X191830000Y-69790000D01*
X191830000Y-107950000D02*
X189170000Y-107950000D01*
X191830000Y-69790000D02*
X189170000Y-69790000D01*
X189170000Y-107950000D02*
X189170000Y-69790000D01*
%TO.C,J6*%
X194370000Y-110550000D02*
X193040000Y-110550000D01*
X194370000Y-109220000D02*
X194370000Y-110550000D01*
X194370000Y-107950000D02*
X194370000Y-69790000D01*
X194370000Y-107950000D02*
X191710000Y-107950000D01*
X194370000Y-69790000D02*
X191710000Y-69790000D01*
X191710000Y-107950000D02*
X191710000Y-69790000D01*
%TO.C,kibuzzard-64B17C58*%
G36*
X183850492Y-112053688D02*
G01*
X183850492Y-113022063D01*
X183850492Y-113296700D01*
X183850492Y-113627429D01*
X182163508Y-113627429D01*
X182163508Y-113296700D01*
X182516462Y-113296700D01*
X182605362Y-113278444D01*
X182716487Y-113252250D01*
X182799655Y-113231260D01*
X182886174Y-113208506D01*
X182976044Y-113183988D01*
X183067678Y-113158058D01*
X183159488Y-113131071D01*
X183251475Y-113103025D01*
X183382444Y-113061353D01*
X183499125Y-113022063D01*
X183499125Y-112820450D01*
X183414547Y-112790111D01*
X183328028Y-112760478D01*
X183239569Y-112731550D01*
X183150669Y-112703769D01*
X183062827Y-112677575D01*
X182976044Y-112652969D01*
X182849639Y-112619234D01*
X182729187Y-112589469D01*
X182617269Y-112563870D01*
X182516462Y-112542638D01*
X182516462Y-112747425D01*
X182599012Y-112761713D01*
X182694262Y-112779175D01*
X182797252Y-112799019D01*
X182903019Y-112820450D01*
X183009381Y-112843469D01*
X183114156Y-112868075D01*
X183212383Y-112893475D01*
X183299100Y-112918875D01*
X183211192Y-112944473D01*
X183112569Y-112970469D01*
X183007794Y-112995869D01*
X182901431Y-113019681D01*
X182795862Y-113041708D01*
X182693469Y-113061750D01*
X182598814Y-113078419D01*
X182516462Y-113090325D01*
X182516462Y-113296700D01*
X182163508Y-113296700D01*
X182163508Y-112034638D01*
X182494237Y-112034638D01*
X182502770Y-112127705D01*
X182528369Y-112213231D01*
X182570437Y-112289431D01*
X182628381Y-112354519D01*
X182701605Y-112407502D01*
X182789512Y-112447388D01*
X182891509Y-112472391D01*
X183007000Y-112480725D01*
X183122987Y-112473879D01*
X183224884Y-112453341D01*
X183312693Y-112419110D01*
X183386412Y-112371188D01*
X183460496Y-112287226D01*
X183504946Y-112181393D01*
X183519762Y-112053688D01*
X183514405Y-111966970D01*
X183498331Y-111890969D01*
X183451500Y-111779050D01*
X183297512Y-111828263D01*
X183332437Y-111908431D01*
X183349900Y-112034638D01*
X183327477Y-112147945D01*
X183260206Y-112224344D01*
X183191679Y-112256535D01*
X183105690Y-112275849D01*
X183002237Y-112282288D01*
X182913337Y-112276930D01*
X182840312Y-112260856D01*
X182736331Y-112205294D01*
X182680769Y-112127506D01*
X182664100Y-112037813D01*
X182680769Y-111919544D01*
X182721250Y-111831438D01*
X182565675Y-111780638D01*
X182546625Y-111813181D01*
X182522812Y-111866363D01*
X182502969Y-111940181D01*
X182494237Y-112034638D01*
X182163508Y-112034638D01*
X182163508Y-111240888D01*
X182494237Y-111240888D01*
X182502770Y-111333955D01*
X182528369Y-111419481D01*
X182570437Y-111495681D01*
X182628381Y-111560769D01*
X182701605Y-111613752D01*
X182789512Y-111653638D01*
X182891509Y-111678641D01*
X183007000Y-111686975D01*
X183122987Y-111680129D01*
X183224884Y-111659591D01*
X183312693Y-111625360D01*
X183386412Y-111577437D01*
X183460496Y-111493476D01*
X183504946Y-111387643D01*
X183519762Y-111259938D01*
X183514405Y-111173220D01*
X183498331Y-111097219D01*
X183451500Y-110985300D01*
X183297512Y-111034513D01*
X183332437Y-111114681D01*
X183349900Y-111240888D01*
X183327477Y-111354195D01*
X183260206Y-111430594D01*
X183191679Y-111462785D01*
X183105690Y-111482099D01*
X183002237Y-111488538D01*
X182913337Y-111483180D01*
X182840312Y-111467106D01*
X182736331Y-111411544D01*
X182680769Y-111333756D01*
X182664100Y-111244062D01*
X182680769Y-111125794D01*
X182721250Y-111037688D01*
X182565675Y-110986888D01*
X182546625Y-111019431D01*
X182522812Y-111072613D01*
X182502969Y-111146431D01*
X182494237Y-111240888D01*
X182163508Y-111240888D01*
X182163508Y-110985300D01*
X182163508Y-110654571D01*
X183850492Y-110654571D01*
X183850492Y-110985300D01*
X183850492Y-111259938D01*
X183850492Y-112053688D01*
G37*
G36*
X193883492Y-68111688D02*
G01*
X193883492Y-69080063D01*
X193883492Y-69354700D01*
X193883492Y-69685429D01*
X192196508Y-69685429D01*
X192196508Y-69354700D01*
X192549462Y-69354700D01*
X192638362Y-69336444D01*
X192749487Y-69310250D01*
X192832655Y-69289260D01*
X192919174Y-69266506D01*
X193009044Y-69241988D01*
X193100678Y-69216058D01*
X193192488Y-69189071D01*
X193284475Y-69161025D01*
X193415444Y-69119353D01*
X193532125Y-69080063D01*
X193532125Y-68878450D01*
X193447547Y-68848111D01*
X193361028Y-68818478D01*
X193272569Y-68789550D01*
X193183669Y-68761769D01*
X193095827Y-68735575D01*
X193009044Y-68710969D01*
X192882639Y-68677234D01*
X192762187Y-68647469D01*
X192650269Y-68621870D01*
X192549462Y-68600638D01*
X192549462Y-68805425D01*
X192632012Y-68819713D01*
X192727262Y-68837175D01*
X192830252Y-68857019D01*
X192936019Y-68878450D01*
X193042381Y-68901469D01*
X193147156Y-68926075D01*
X193245383Y-68951475D01*
X193332100Y-68976875D01*
X193244192Y-69002473D01*
X193145569Y-69028469D01*
X193040794Y-69053869D01*
X192934431Y-69077681D01*
X192828862Y-69099708D01*
X192726469Y-69119750D01*
X192631814Y-69136419D01*
X192549462Y-69148325D01*
X192549462Y-69354700D01*
X192196508Y-69354700D01*
X192196508Y-68092638D01*
X192527237Y-68092638D01*
X192535770Y-68185705D01*
X192561369Y-68271231D01*
X192603437Y-68347431D01*
X192661381Y-68412519D01*
X192734605Y-68465502D01*
X192822512Y-68505388D01*
X192924509Y-68530391D01*
X193040000Y-68538725D01*
X193155987Y-68531879D01*
X193257884Y-68511341D01*
X193345693Y-68477110D01*
X193419412Y-68429188D01*
X193493496Y-68345226D01*
X193537946Y-68239393D01*
X193552762Y-68111688D01*
X193547405Y-68024970D01*
X193531331Y-67948969D01*
X193484500Y-67837050D01*
X193330512Y-67886263D01*
X193365437Y-67966431D01*
X193382900Y-68092638D01*
X193360477Y-68205945D01*
X193293206Y-68282344D01*
X193224679Y-68314535D01*
X193138690Y-68333849D01*
X193035237Y-68340288D01*
X192946337Y-68334930D01*
X192873312Y-68318856D01*
X192769331Y-68263294D01*
X192713769Y-68185506D01*
X192697100Y-68095813D01*
X192713769Y-67977544D01*
X192754250Y-67889438D01*
X192598675Y-67838638D01*
X192579625Y-67871181D01*
X192555812Y-67924363D01*
X192535969Y-67998181D01*
X192527237Y-68092638D01*
X192196508Y-68092638D01*
X192196508Y-67298888D01*
X192527237Y-67298888D01*
X192535770Y-67391955D01*
X192561369Y-67477481D01*
X192603437Y-67553681D01*
X192661381Y-67618769D01*
X192734605Y-67671752D01*
X192822512Y-67711638D01*
X192924509Y-67736641D01*
X193040000Y-67744975D01*
X193155987Y-67738129D01*
X193257884Y-67717591D01*
X193345693Y-67683360D01*
X193419412Y-67635437D01*
X193493496Y-67551476D01*
X193537946Y-67445643D01*
X193552762Y-67317938D01*
X193547405Y-67231220D01*
X193531331Y-67155219D01*
X193484500Y-67043300D01*
X193330512Y-67092513D01*
X193365437Y-67172681D01*
X193382900Y-67298888D01*
X193360477Y-67412195D01*
X193293206Y-67488594D01*
X193224679Y-67520785D01*
X193138690Y-67540099D01*
X193035237Y-67546538D01*
X192946337Y-67541180D01*
X192873312Y-67525106D01*
X192769331Y-67469544D01*
X192713769Y-67391756D01*
X192697100Y-67302062D01*
X192713769Y-67183794D01*
X192754250Y-67095688D01*
X192598675Y-67044888D01*
X192579625Y-67077431D01*
X192555812Y-67130613D01*
X192535969Y-67204431D01*
X192527237Y-67298888D01*
X192196508Y-67298888D01*
X192196508Y-67043300D01*
X192196508Y-66712571D01*
X193883492Y-66712571D01*
X193883492Y-67043300D01*
X193883492Y-67317938D01*
X193883492Y-68111688D01*
G37*
%TD*%
M02*
