M48
; DRILL file {KiCad 7.0.6} date Mon Jul 17 12:15:37 2023
; FORMAT={-:-/ absolute / metric / decimal}
; #@! TF.CreationDate,2023-07-17T12:15:37-04:00
; #@! TF.GenerationSoftware,Kicad,Pcbnew,7.0.6
; #@! TF.FileFunction,Plated,1,2,PTH
FMAT,2
METRIC
; #@! TA.AperFunction,Plated,PTH,ComponentDrill
T1C0.800
; #@! TA.AperFunction,Plated,PTH,ComponentDrill
T2C1.000
; #@! TA.AperFunction,Plated,PTH,ComponentDrill
T3C1.200
; #@! TA.AperFunction,Plated,PTH,ComponentDrill
T4C1.520
; #@! TA.AperFunction,Plated,PTH,ComponentDrill
T5C3.200
%
G90
G05
T1
X176.53Y-73.66
X176.53Y-76.2
X176.53Y-78.74
X176.53Y-81.28
X176.53Y-83.82
X176.53Y-86.36
X176.53Y-88.9
X176.53Y-91.44
X176.53Y-93.98
X176.53Y-96.52
X176.53Y-99.06
X176.53Y-101.6
X176.53Y-104.14
X176.53Y-106.68
X184.15Y-73.66
X184.15Y-76.2
X184.15Y-78.74
X184.15Y-81.28
X184.15Y-83.82
X184.15Y-86.36
X184.15Y-88.9
X184.15Y-91.44
X184.15Y-93.98
X184.15Y-96.52
X184.15Y-99.06
X184.15Y-101.6
X184.15Y-104.14
X184.15Y-106.68
T2
X190.5Y-71.12
X190.5Y-73.66
X190.5Y-76.2
X190.5Y-78.74
X190.5Y-81.28
X190.5Y-83.82
X190.5Y-86.36
X190.5Y-88.9
X190.5Y-91.44
X190.5Y-93.98
X190.5Y-96.52
X190.5Y-99.06
X190.5Y-101.6
X190.5Y-104.14
X190.5Y-106.68
X190.5Y-109.22
X193.04Y-71.12
X193.04Y-73.66
X193.04Y-76.2
X193.04Y-78.74
X193.04Y-81.28
X193.04Y-83.82
X193.04Y-86.36
X193.04Y-88.9
X193.04Y-91.44
X193.04Y-93.98
X193.04Y-96.52
X193.04Y-99.06
X193.04Y-101.6
X193.04Y-104.14
X193.04Y-106.68
X193.04Y-109.22
X195.58Y-71.12
X195.58Y-73.66
X195.58Y-76.2
X195.58Y-78.74
X195.58Y-81.28
X195.58Y-83.82
X195.58Y-86.36
X195.58Y-88.9
X195.58Y-91.44
X195.58Y-93.98
X195.58Y-96.52
X195.58Y-99.06
X195.58Y-101.6
X195.58Y-104.14
X195.58Y-106.68
X195.58Y-109.22
T3
X167.64Y-75.24
X167.64Y-78.74
X167.64Y-82.24
X167.64Y-91.1
X167.64Y-94.6
X167.64Y-98.1
X167.64Y-101.6
X167.64Y-105.1
X167.64Y-108.6
T4
X177.8Y-62.611
X177.8Y-117.729
X182.88Y-62.611
X182.88Y-117.729
T5
X167.64Y-63.5
X167.64Y-116.84
X193.04Y-63.5
X193.04Y-116.84
T0
M30
