%TF.GenerationSoftware,KiCad,Pcbnew,7.0.6*%
%TF.CreationDate,2023-07-17T12:15:40-04:00*%
%TF.ProjectId,mcp23s17_single_breakout,6d637032-3373-4313-975f-73696e676c65,rev?*%
%TF.SameCoordinates,Original*%
%TF.FileFunction,Copper,L2,Bot*%
%TF.FilePolarity,Positive*%
%FSLAX46Y46*%
G04 Gerber Fmt 4.6, Leading zero omitted, Abs format (unit mm)*
G04 Created by KiCad (PCBNEW 7.0.6) date 2023-07-17 12:15:40*
%MOMM*%
%LPD*%
G01*
G04 APERTURE LIST*
%TA.AperFunction,ComponentPad*%
%ADD10R,2.400000X2.400000*%
%TD*%
%TA.AperFunction,ComponentPad*%
%ADD11C,2.400000*%
%TD*%
%TA.AperFunction,ComponentPad*%
%ADD12R,3.000000X3.000000*%
%TD*%
%TA.AperFunction,ComponentPad*%
%ADD13C,3.000000*%
%TD*%
%TA.AperFunction,ComponentPad*%
%ADD14R,1.700000X1.700000*%
%TD*%
%TA.AperFunction,ComponentPad*%
%ADD15O,1.700000X1.700000*%
%TD*%
%TA.AperFunction,ComponentPad*%
%ADD16R,1.600000X1.600000*%
%TD*%
%TA.AperFunction,ComponentPad*%
%ADD17O,1.600000X1.600000*%
%TD*%
%TA.AperFunction,ComponentPad*%
%ADD18C,5.600000*%
%TD*%
%TA.AperFunction,Conductor*%
%ADD19C,0.800000*%
%TD*%
%TA.AperFunction,Conductor*%
%ADD20C,0.400000*%
%TD*%
G04 APERTURE END LIST*
D10*
%TO.P,J2,1,Pin_1*%
%TO.N,SCK*%
X167640000Y-91100000D03*
D11*
%TO.P,J2,2,Pin_2*%
%TO.N,MISO*%
X167640000Y-94600000D03*
%TO.P,J2,3,Pin_3*%
%TO.N,MOSI*%
X167640000Y-98100000D03*
%TO.P,J2,4,Pin_4*%
%TO.N,CS0*%
X167640000Y-101600000D03*
%TO.P,J2,5,Pin_5*%
%TO.N,INTA0*%
X167640000Y-105100000D03*
%TO.P,J2,6,Pin_6*%
%TO.N,INTB0*%
X167640000Y-108600000D03*
%TD*%
D12*
%TO.P,J1,1,Pin_1*%
%TO.N,VCC*%
X182880000Y-62611000D03*
D13*
%TO.P,J1,2,Pin_2*%
%TO.N,GND*%
X177800000Y-62611000D03*
%TD*%
D14*
%TO.P,J7,1,Pin_1*%
%TO.N,GND*%
X195580000Y-109220000D03*
D15*
%TO.P,J7,2,Pin_2*%
X195580000Y-106680000D03*
%TO.P,J7,3,Pin_3*%
X195580000Y-104140000D03*
%TO.P,J7,4,Pin_4*%
X195580000Y-101600000D03*
%TO.P,J7,5,Pin_5*%
X195580000Y-99060000D03*
%TO.P,J7,6,Pin_6*%
X195580000Y-96520000D03*
%TO.P,J7,7,Pin_7*%
X195580000Y-93980000D03*
%TO.P,J7,8,Pin_8*%
X195580000Y-91440000D03*
%TO.P,J7,9,Pin_9*%
X195580000Y-88900000D03*
%TO.P,J7,10,Pin_10*%
X195580000Y-86360000D03*
%TO.P,J7,11,Pin_11*%
X195580000Y-83820000D03*
%TO.P,J7,12,Pin_12*%
X195580000Y-81280000D03*
%TO.P,J7,13,Pin_13*%
X195580000Y-78740000D03*
%TO.P,J7,14,Pin_14*%
X195580000Y-76200000D03*
%TO.P,J7,15,Pin_15*%
X195580000Y-73660000D03*
%TO.P,J7,16,Pin_16*%
X195580000Y-71120000D03*
%TD*%
D10*
%TO.P,J4,1,Pin_1*%
%TO.N,SCK*%
X167640000Y-75240000D03*
D11*
%TO.P,J4,2,Pin_2*%
%TO.N,MISO*%
X167640000Y-78740000D03*
%TO.P,J4,3,Pin_3*%
%TO.N,MOSI*%
X167640000Y-82240000D03*
%TD*%
D16*
%TO.P,U2,1,GPB0*%
%TO.N,Net-(J5-Pin_9)*%
X176530000Y-73660000D03*
D17*
%TO.P,U2,2,GPB1*%
%TO.N,Net-(J5-Pin_10)*%
X176530000Y-76200000D03*
%TO.P,U2,3,GPB2*%
%TO.N,Net-(J5-Pin_11)*%
X176530000Y-78740000D03*
%TO.P,U2,4,GPB3*%
%TO.N,Net-(J5-Pin_12)*%
X176530000Y-81280000D03*
%TO.P,U2,5,GPB4*%
%TO.N,Net-(J5-Pin_13)*%
X176530000Y-83820000D03*
%TO.P,U2,6,GPB5*%
%TO.N,Net-(J5-Pin_14)*%
X176530000Y-86360000D03*
%TO.P,U2,7,GPB6*%
%TO.N,Net-(J5-Pin_15)*%
X176530000Y-88900000D03*
%TO.P,U2,8,GPB7*%
%TO.N,Net-(J5-Pin_16)*%
X176530000Y-91440000D03*
%TO.P,U2,9,VDD*%
%TO.N,VCC*%
X176530000Y-93980000D03*
%TO.P,U2,10,VSS*%
%TO.N,GND*%
X176530000Y-96520000D03*
%TO.P,U2,11,~{CS}*%
%TO.N,CS0*%
X176530000Y-99060000D03*
%TO.P,U2,12,SCK*%
%TO.N,SCK*%
X176530000Y-101600000D03*
%TO.P,U2,13,SI*%
%TO.N,MOSI*%
X176530000Y-104140000D03*
%TO.P,U2,14,SO*%
%TO.N,MISO*%
X176530000Y-106680000D03*
%TO.P,U2,15,A0*%
%TO.N,GND*%
X184150000Y-106680000D03*
%TO.P,U2,16,A1*%
X184150000Y-104140000D03*
%TO.P,U2,17,A2*%
X184150000Y-101600000D03*
%TO.P,U2,18,~{RESET}*%
%TO.N,VCC*%
X184150000Y-99060000D03*
%TO.P,U2,19,INTB*%
%TO.N,INTB0*%
X184150000Y-96520000D03*
%TO.P,U2,20,INTA*%
%TO.N,INTA0*%
X184150000Y-93980000D03*
%TO.P,U2,21,GPA0*%
%TO.N,Net-(J5-Pin_1)*%
X184150000Y-91440000D03*
%TO.P,U2,22,GPA1*%
%TO.N,Net-(J5-Pin_2)*%
X184150000Y-88900000D03*
%TO.P,U2,23,GPA2*%
%TO.N,Net-(J5-Pin_3)*%
X184150000Y-86360000D03*
%TO.P,U2,24,GPA3*%
%TO.N,Net-(J5-Pin_4)*%
X184150000Y-83820000D03*
%TO.P,U2,25,GPA4*%
%TO.N,Net-(J5-Pin_5)*%
X184150000Y-81280000D03*
%TO.P,U2,26,GPA5*%
%TO.N,Net-(J5-Pin_6)*%
X184150000Y-78740000D03*
%TO.P,U2,27,GPA6*%
%TO.N,Net-(J5-Pin_7)*%
X184150000Y-76200000D03*
%TO.P,U2,28,GPA7*%
%TO.N,Net-(J5-Pin_8)*%
X184150000Y-73660000D03*
%TD*%
D18*
%TO.P,H1,1*%
%TO.N,N/C*%
X167640000Y-63500000D03*
%TD*%
%TO.P,H3,1*%
%TO.N,N/C*%
X193040000Y-63500000D03*
%TD*%
D12*
%TO.P,J3,1,Pin_1*%
%TO.N,VCC*%
X182880000Y-117729000D03*
D13*
%TO.P,J3,2,Pin_2*%
%TO.N,GND*%
X177800000Y-117729000D03*
%TD*%
D14*
%TO.P,J5,1,Pin_1*%
%TO.N,Net-(J5-Pin_1)*%
X190500000Y-109220000D03*
D15*
%TO.P,J5,2,Pin_2*%
%TO.N,Net-(J5-Pin_2)*%
X190500000Y-106680000D03*
%TO.P,J5,3,Pin_3*%
%TO.N,Net-(J5-Pin_3)*%
X190500000Y-104140000D03*
%TO.P,J5,4,Pin_4*%
%TO.N,Net-(J5-Pin_4)*%
X190500000Y-101600000D03*
%TO.P,J5,5,Pin_5*%
%TO.N,Net-(J5-Pin_5)*%
X190500000Y-99060000D03*
%TO.P,J5,6,Pin_6*%
%TO.N,Net-(J5-Pin_6)*%
X190500000Y-96520000D03*
%TO.P,J5,7,Pin_7*%
%TO.N,Net-(J5-Pin_7)*%
X190500000Y-93980000D03*
%TO.P,J5,8,Pin_8*%
%TO.N,Net-(J5-Pin_8)*%
X190500000Y-91440000D03*
%TO.P,J5,9,Pin_9*%
%TO.N,Net-(J5-Pin_9)*%
X190500000Y-88900000D03*
%TO.P,J5,10,Pin_10*%
%TO.N,Net-(J5-Pin_10)*%
X190500000Y-86360000D03*
%TO.P,J5,11,Pin_11*%
%TO.N,Net-(J5-Pin_11)*%
X190500000Y-83820000D03*
%TO.P,J5,12,Pin_12*%
%TO.N,Net-(J5-Pin_12)*%
X190500000Y-81280000D03*
%TO.P,J5,13,Pin_13*%
%TO.N,Net-(J5-Pin_13)*%
X190500000Y-78740000D03*
%TO.P,J5,14,Pin_14*%
%TO.N,Net-(J5-Pin_14)*%
X190500000Y-76200000D03*
%TO.P,J5,15,Pin_15*%
%TO.N,Net-(J5-Pin_15)*%
X190500000Y-73660000D03*
%TO.P,J5,16,Pin_16*%
%TO.N,Net-(J5-Pin_16)*%
X190500000Y-71120000D03*
%TD*%
D14*
%TO.P,J6,1,Pin_1*%
%TO.N,VCC*%
X193040000Y-109220000D03*
D15*
%TO.P,J6,2,Pin_2*%
X193040000Y-106680000D03*
%TO.P,J6,3,Pin_3*%
X193040000Y-104140000D03*
%TO.P,J6,4,Pin_4*%
X193040000Y-101600000D03*
%TO.P,J6,5,Pin_5*%
X193040000Y-99060000D03*
%TO.P,J6,6,Pin_6*%
X193040000Y-96520000D03*
%TO.P,J6,7,Pin_7*%
X193040000Y-93980000D03*
%TO.P,J6,8,Pin_8*%
X193040000Y-91440000D03*
%TO.P,J6,9,Pin_9*%
X193040000Y-88900000D03*
%TO.P,J6,10,Pin_10*%
X193040000Y-86360000D03*
%TO.P,J6,11,Pin_11*%
X193040000Y-83820000D03*
%TO.P,J6,12,Pin_12*%
X193040000Y-81280000D03*
%TO.P,J6,13,Pin_13*%
X193040000Y-78740000D03*
%TO.P,J6,14,Pin_14*%
X193040000Y-76200000D03*
%TO.P,J6,15,Pin_15*%
X193040000Y-73660000D03*
%TO.P,J6,16,Pin_16*%
X193040000Y-71120000D03*
%TD*%
D18*
%TO.P,H4,1*%
%TO.N,N/C*%
X193040000Y-116840000D03*
%TD*%
%TO.P,H2,1*%
%TO.N,N/C*%
X167640000Y-116840000D03*
%TD*%
D19*
%TO.N,VCC*%
X181610000Y-63881000D02*
X181610000Y-93980000D01*
X181864000Y-98298000D02*
X182626000Y-99060000D01*
X181610000Y-93980000D02*
X180721000Y-94869000D01*
X180721000Y-94869000D02*
X181864000Y-96012000D01*
X182880000Y-62611000D02*
X181610000Y-63881000D01*
X182626000Y-99060000D02*
X184150000Y-99060000D01*
X176530000Y-93980000D02*
X179832000Y-93980000D01*
X179832000Y-93980000D02*
X180721000Y-94869000D01*
X181864000Y-96012000D02*
X181864000Y-98298000D01*
D20*
%TO.N,Net-(J5-Pin_2)*%
X185630000Y-89618000D02*
X185630000Y-101810000D01*
X184150000Y-88900000D02*
X184912000Y-88900000D01*
X185630000Y-101810000D02*
X190500000Y-106680000D01*
X184912000Y-88900000D02*
X185630000Y-89618000D01*
%TO.N,Net-(J5-Pin_3)*%
X186230000Y-101072081D02*
X189297919Y-104140000D01*
X184150000Y-86360000D02*
X185722000Y-86360000D01*
X185722000Y-86360000D02*
X186230000Y-86868000D01*
X186230000Y-86868000D02*
X186230000Y-101072081D01*
X189297919Y-104140000D02*
X190500000Y-104140000D01*
%TO.N,Net-(J5-Pin_4)*%
X186830000Y-84722000D02*
X186830000Y-99708000D01*
X186830000Y-99708000D02*
X188722000Y-101600000D01*
X185928000Y-83820000D02*
X186830000Y-84722000D01*
X184150000Y-83820000D02*
X185928000Y-83820000D01*
X188722000Y-101600000D02*
X190500000Y-101600000D01*
%TO.N,Net-(J5-Pin_5)*%
X184150000Y-81280000D02*
X186668000Y-81280000D01*
X188976000Y-99060000D02*
X190500000Y-99060000D01*
X187430000Y-82042000D02*
X187430000Y-97514000D01*
X187430000Y-97514000D02*
X188976000Y-99060000D01*
X186668000Y-81280000D02*
X187430000Y-82042000D01*
%TO.N,Net-(J5-Pin_6)*%
X184150000Y-78740000D02*
X187198000Y-78740000D01*
X188030000Y-95574000D02*
X188976000Y-96520000D01*
X188976000Y-96520000D02*
X190500000Y-96520000D01*
X187198000Y-78740000D02*
X188030000Y-79572000D01*
X188030000Y-79572000D02*
X188030000Y-95574000D01*
%TO.N,Net-(J5-Pin_7)*%
X184150000Y-76200000D02*
X187706000Y-76200000D01*
X189484000Y-93980000D02*
X190500000Y-93980000D01*
X188630000Y-93126000D02*
X189484000Y-93980000D01*
X187706000Y-76200000D02*
X188630000Y-77124000D01*
X188630000Y-77124000D02*
X188630000Y-93126000D01*
%TO.N,Net-(J5-Pin_8)*%
X189992000Y-91440000D02*
X189230000Y-90678000D01*
X189230000Y-74930000D02*
X189230000Y-90678000D01*
X187960000Y-73660000D02*
X189230000Y-74930000D01*
X184150000Y-73660000D02*
X187960000Y-73660000D01*
X190500000Y-91440000D02*
X189992000Y-91440000D01*
%TO.N,MISO*%
X167640000Y-78740000D02*
X169418000Y-78740000D01*
X170434000Y-79756000D02*
X170434000Y-93980000D01*
X169418000Y-78740000D02*
X170434000Y-79756000D01*
X169814000Y-94600000D02*
X167640000Y-94600000D01*
X170434000Y-93980000D02*
X169814000Y-94600000D01*
%TO.N,CS0*%
X167640000Y-101600000D02*
X171450000Y-101600000D01*
X173990000Y-99060000D02*
X176530000Y-99060000D01*
X171450000Y-101600000D02*
X173990000Y-99060000D01*
%TD*%
%TA.AperFunction,Conductor*%
%TO.N,GND*%
G36*
X195830000Y-108784498D02*
G01*
X195722315Y-108735320D01*
X195615763Y-108720000D01*
X195544237Y-108720000D01*
X195437685Y-108735320D01*
X195330000Y-108784498D01*
X195330000Y-107115501D01*
X195437685Y-107164680D01*
X195544237Y-107180000D01*
X195615763Y-107180000D01*
X195722315Y-107164680D01*
X195830000Y-107115501D01*
X195830000Y-108784498D01*
G37*
%TD.AperFunction*%
%TA.AperFunction,Conductor*%
G36*
X184400000Y-106364314D02*
G01*
X184388045Y-106352359D01*
X184275148Y-106294835D01*
X184181481Y-106280000D01*
X184118519Y-106280000D01*
X184024852Y-106294835D01*
X183911955Y-106352359D01*
X183900000Y-106364314D01*
X183900000Y-104455686D01*
X183911955Y-104467641D01*
X184024852Y-104525165D01*
X184118519Y-104540000D01*
X184181481Y-104540000D01*
X184275148Y-104525165D01*
X184388045Y-104467641D01*
X184400000Y-104455685D01*
X184400000Y-106364314D01*
G37*
%TD.AperFunction*%
%TA.AperFunction,Conductor*%
G36*
X195830000Y-106244498D02*
G01*
X195722315Y-106195320D01*
X195615763Y-106180000D01*
X195544237Y-106180000D01*
X195437685Y-106195320D01*
X195330000Y-106244498D01*
X195330000Y-104575501D01*
X195437685Y-104624680D01*
X195544237Y-104640000D01*
X195615763Y-104640000D01*
X195722315Y-104624680D01*
X195830000Y-104575501D01*
X195830000Y-106244498D01*
G37*
%TD.AperFunction*%
%TA.AperFunction,Conductor*%
G36*
X184400000Y-103824314D02*
G01*
X184388045Y-103812359D01*
X184275148Y-103754835D01*
X184181481Y-103740000D01*
X184118519Y-103740000D01*
X184024852Y-103754835D01*
X183911955Y-103812359D01*
X183900000Y-103824314D01*
X183900000Y-101915686D01*
X183911955Y-101927641D01*
X184024852Y-101985165D01*
X184118519Y-102000000D01*
X184181481Y-102000000D01*
X184275148Y-101985165D01*
X184388045Y-101927641D01*
X184400000Y-101915686D01*
X184400000Y-103824314D01*
G37*
%TD.AperFunction*%
%TA.AperFunction,Conductor*%
G36*
X195830000Y-103704498D02*
G01*
X195722315Y-103655320D01*
X195615763Y-103640000D01*
X195544237Y-103640000D01*
X195437685Y-103655320D01*
X195330000Y-103704498D01*
X195330000Y-102035501D01*
X195437685Y-102084680D01*
X195544237Y-102100000D01*
X195615763Y-102100000D01*
X195722315Y-102084680D01*
X195830000Y-102035501D01*
X195830000Y-103704498D01*
G37*
%TD.AperFunction*%
%TA.AperFunction,Conductor*%
G36*
X195830000Y-101164498D02*
G01*
X195722315Y-101115320D01*
X195615763Y-101100000D01*
X195544237Y-101100000D01*
X195437685Y-101115320D01*
X195330000Y-101164498D01*
X195330000Y-99495501D01*
X195437685Y-99544680D01*
X195544237Y-99560000D01*
X195615763Y-99560000D01*
X195722315Y-99544680D01*
X195830000Y-99495501D01*
X195830000Y-101164498D01*
G37*
%TD.AperFunction*%
%TA.AperFunction,Conductor*%
G36*
X195830000Y-98624498D02*
G01*
X195722315Y-98575320D01*
X195615763Y-98560000D01*
X195544237Y-98560000D01*
X195437685Y-98575320D01*
X195330000Y-98624498D01*
X195330000Y-96955501D01*
X195437685Y-97004680D01*
X195544237Y-97020000D01*
X195615763Y-97020000D01*
X195722315Y-97004680D01*
X195830000Y-96955501D01*
X195830000Y-98624498D01*
G37*
%TD.AperFunction*%
%TA.AperFunction,Conductor*%
G36*
X195830000Y-96084498D02*
G01*
X195722315Y-96035320D01*
X195615763Y-96020000D01*
X195544237Y-96020000D01*
X195437685Y-96035320D01*
X195330000Y-96084498D01*
X195330000Y-94415501D01*
X195437685Y-94464680D01*
X195544237Y-94480000D01*
X195615763Y-94480000D01*
X195722315Y-94464680D01*
X195830000Y-94415501D01*
X195830000Y-96084498D01*
G37*
%TD.AperFunction*%
%TA.AperFunction,Conductor*%
G36*
X195830000Y-93544498D02*
G01*
X195722315Y-93495320D01*
X195615763Y-93480000D01*
X195544237Y-93480000D01*
X195437685Y-93495320D01*
X195330000Y-93544498D01*
X195330000Y-91875501D01*
X195437685Y-91924680D01*
X195544237Y-91940000D01*
X195615763Y-91940000D01*
X195722315Y-91924680D01*
X195830000Y-91875501D01*
X195830000Y-93544498D01*
G37*
%TD.AperFunction*%
%TA.AperFunction,Conductor*%
G36*
X195830000Y-91004498D02*
G01*
X195722315Y-90955320D01*
X195615763Y-90940000D01*
X195544237Y-90940000D01*
X195437685Y-90955320D01*
X195330000Y-91004498D01*
X195330000Y-89335501D01*
X195437685Y-89384680D01*
X195544237Y-89400000D01*
X195615763Y-89400000D01*
X195722315Y-89384680D01*
X195830000Y-89335501D01*
X195830000Y-91004498D01*
G37*
%TD.AperFunction*%
%TA.AperFunction,Conductor*%
G36*
X195830000Y-88464498D02*
G01*
X195722315Y-88415320D01*
X195615763Y-88400000D01*
X195544237Y-88400000D01*
X195437685Y-88415320D01*
X195330000Y-88464498D01*
X195330000Y-86795501D01*
X195437685Y-86844680D01*
X195544237Y-86860000D01*
X195615763Y-86860000D01*
X195722315Y-86844680D01*
X195830000Y-86795501D01*
X195830000Y-88464498D01*
G37*
%TD.AperFunction*%
%TA.AperFunction,Conductor*%
G36*
X195830000Y-85924498D02*
G01*
X195722315Y-85875320D01*
X195615763Y-85860000D01*
X195544237Y-85860000D01*
X195437685Y-85875320D01*
X195330000Y-85924498D01*
X195330000Y-84255501D01*
X195437685Y-84304680D01*
X195544237Y-84320000D01*
X195615763Y-84320000D01*
X195722315Y-84304680D01*
X195830000Y-84255501D01*
X195830000Y-85924498D01*
G37*
%TD.AperFunction*%
%TA.AperFunction,Conductor*%
G36*
X195830000Y-83384498D02*
G01*
X195722315Y-83335320D01*
X195615763Y-83320000D01*
X195544237Y-83320000D01*
X195437685Y-83335320D01*
X195330000Y-83384498D01*
X195330000Y-81715501D01*
X195437685Y-81764680D01*
X195544237Y-81780000D01*
X195615763Y-81780000D01*
X195722315Y-81764680D01*
X195830000Y-81715501D01*
X195830000Y-83384498D01*
G37*
%TD.AperFunction*%
%TA.AperFunction,Conductor*%
G36*
X195830000Y-80844498D02*
G01*
X195722315Y-80795320D01*
X195615763Y-80780000D01*
X195544237Y-80780000D01*
X195437685Y-80795320D01*
X195330000Y-80844498D01*
X195330000Y-79175501D01*
X195437685Y-79224680D01*
X195544237Y-79240000D01*
X195615763Y-79240000D01*
X195722315Y-79224680D01*
X195830000Y-79175501D01*
X195830000Y-80844498D01*
G37*
%TD.AperFunction*%
%TA.AperFunction,Conductor*%
G36*
X195830000Y-78304498D02*
G01*
X195722315Y-78255320D01*
X195615763Y-78240000D01*
X195544237Y-78240000D01*
X195437685Y-78255320D01*
X195330000Y-78304498D01*
X195330000Y-76635501D01*
X195437685Y-76684680D01*
X195544237Y-76700000D01*
X195615763Y-76700000D01*
X195722315Y-76684680D01*
X195830000Y-76635501D01*
X195830000Y-78304498D01*
G37*
%TD.AperFunction*%
%TA.AperFunction,Conductor*%
G36*
X195830000Y-75764498D02*
G01*
X195722315Y-75715320D01*
X195615763Y-75700000D01*
X195544237Y-75700000D01*
X195437685Y-75715320D01*
X195330000Y-75764498D01*
X195330000Y-74095501D01*
X195437685Y-74144680D01*
X195544237Y-74160000D01*
X195615763Y-74160000D01*
X195722315Y-74144680D01*
X195830000Y-74095501D01*
X195830000Y-75764498D01*
G37*
%TD.AperFunction*%
%TA.AperFunction,Conductor*%
G36*
X195830000Y-73224498D02*
G01*
X195722315Y-73175320D01*
X195615763Y-73160000D01*
X195544237Y-73160000D01*
X195437685Y-73175320D01*
X195330000Y-73224498D01*
X195330000Y-71555501D01*
X195437685Y-71604680D01*
X195544237Y-71620000D01*
X195615763Y-71620000D01*
X195722315Y-71604680D01*
X195830000Y-71555501D01*
X195830000Y-73224498D01*
G37*
%TD.AperFunction*%
%TA.AperFunction,Conductor*%
G36*
X194311513Y-58420575D02*
G01*
X194374875Y-58423687D01*
X194462455Y-58427989D01*
X194688034Y-58439812D01*
X194693842Y-58440393D01*
X194873383Y-58467025D01*
X195070138Y-58498188D01*
X195075449Y-58499271D01*
X195256852Y-58544711D01*
X195417397Y-58587730D01*
X195444283Y-58594934D01*
X195449127Y-58596446D01*
X195627420Y-58660240D01*
X195806749Y-58729078D01*
X195810992Y-58730893D01*
X195983402Y-58812437D01*
X196153703Y-58899210D01*
X196157403Y-58901259D01*
X196321713Y-58999743D01*
X196481623Y-59103590D01*
X196484789Y-59105789D01*
X196639105Y-59220237D01*
X196787201Y-59340162D01*
X196789820Y-59342407D01*
X196931313Y-59470648D01*
X196933517Y-59472747D01*
X197067251Y-59606481D01*
X197069350Y-59608685D01*
X197197591Y-59750178D01*
X197199836Y-59752797D01*
X197319762Y-59900894D01*
X197434209Y-60055209D01*
X197436408Y-60058375D01*
X197540260Y-60218292D01*
X197638730Y-60382579D01*
X197640794Y-60386307D01*
X197727567Y-60556609D01*
X197809094Y-60728982D01*
X197810930Y-60733274D01*
X197879762Y-60912588D01*
X197943552Y-61090873D01*
X197945064Y-61095715D01*
X197995295Y-61283174D01*
X198040721Y-61464524D01*
X198041816Y-61469893D01*
X198072980Y-61666660D01*
X198099602Y-61846131D01*
X198100188Y-61851987D01*
X198112014Y-62077627D01*
X198119425Y-62228487D01*
X198119500Y-62231530D01*
X198119500Y-118108469D01*
X198119425Y-118111512D01*
X198112014Y-118262372D01*
X198100188Y-118488011D01*
X198099602Y-118493867D01*
X198072980Y-118673339D01*
X198041816Y-118870105D01*
X198040721Y-118875474D01*
X197995295Y-119056825D01*
X197945064Y-119244283D01*
X197943552Y-119249124D01*
X197879762Y-119427411D01*
X197810930Y-119606725D01*
X197809094Y-119611016D01*
X197727567Y-119783390D01*
X197640793Y-119953691D01*
X197638730Y-119957419D01*
X197540260Y-120121707D01*
X197436408Y-120281623D01*
X197434209Y-120284789D01*
X197319762Y-120439105D01*
X197199835Y-120587201D01*
X197197591Y-120589820D01*
X197069350Y-120731313D01*
X197067251Y-120733517D01*
X196933517Y-120867251D01*
X196931313Y-120869350D01*
X196789820Y-120997591D01*
X196787201Y-120999835D01*
X196639105Y-121119762D01*
X196484789Y-121234209D01*
X196481623Y-121236408D01*
X196321707Y-121340260D01*
X196157419Y-121438730D01*
X196153691Y-121440793D01*
X195983390Y-121527567D01*
X195811016Y-121609094D01*
X195806725Y-121610930D01*
X195627411Y-121679762D01*
X195449124Y-121743552D01*
X195444283Y-121745064D01*
X195256825Y-121795295D01*
X195075474Y-121840721D01*
X195070105Y-121841816D01*
X194873339Y-121872980D01*
X194693867Y-121899602D01*
X194688011Y-121900188D01*
X194462372Y-121912014D01*
X194311513Y-121919425D01*
X194308470Y-121919500D01*
X166371530Y-121919500D01*
X166368487Y-121919425D01*
X166217627Y-121912014D01*
X165991987Y-121900188D01*
X165986131Y-121899602D01*
X165806660Y-121872980D01*
X165609893Y-121841816D01*
X165604524Y-121840721D01*
X165423174Y-121795295D01*
X165235715Y-121745064D01*
X165230873Y-121743552D01*
X165052588Y-121679762D01*
X164873274Y-121610930D01*
X164868982Y-121609094D01*
X164696609Y-121527567D01*
X164526307Y-121440794D01*
X164522579Y-121438730D01*
X164358292Y-121340260D01*
X164198375Y-121236408D01*
X164195209Y-121234209D01*
X164040894Y-121119762D01*
X163892797Y-120999836D01*
X163890178Y-120997591D01*
X163748685Y-120869350D01*
X163746481Y-120867251D01*
X163612747Y-120733517D01*
X163610648Y-120731313D01*
X163556945Y-120672061D01*
X163482407Y-120589820D01*
X163480162Y-120587201D01*
X163360237Y-120439105D01*
X163245789Y-120284789D01*
X163243590Y-120281623D01*
X163139739Y-120121707D01*
X163109557Y-120071351D01*
X163041259Y-119957403D01*
X163039210Y-119953703D01*
X162952432Y-119783390D01*
X162932460Y-119741163D01*
X162870893Y-119610992D01*
X162869078Y-119606749D01*
X162800237Y-119427411D01*
X162736446Y-119249124D01*
X162734934Y-119244283D01*
X162701253Y-119118586D01*
X162684711Y-119056852D01*
X162639271Y-118875449D01*
X162638188Y-118870138D01*
X162607019Y-118673339D01*
X162590497Y-118561958D01*
X162580393Y-118493842D01*
X162579812Y-118488034D01*
X162567989Y-118262455D01*
X162563687Y-118174875D01*
X162560575Y-118111513D01*
X162560500Y-118108471D01*
X162560500Y-116840002D01*
X164326640Y-116840002D01*
X164346063Y-117198234D01*
X164404106Y-117552279D01*
X164404107Y-117552282D01*
X164500082Y-117897955D01*
X164500083Y-117897957D01*
X164632872Y-118231233D01*
X164632881Y-118231251D01*
X164800928Y-118548220D01*
X164800929Y-118548223D01*
X165002256Y-118845157D01*
X165002264Y-118845167D01*
X165182048Y-119056825D01*
X165234516Y-119118595D01*
X165494977Y-119365317D01*
X165780586Y-119582431D01*
X166087995Y-119767393D01*
X166087997Y-119767394D01*
X166087999Y-119767395D01*
X166088003Y-119767397D01*
X166387127Y-119905786D01*
X166413599Y-119918033D01*
X166753583Y-120032587D01*
X167103958Y-120109711D01*
X167460618Y-120148500D01*
X167460624Y-120148500D01*
X167819376Y-120148500D01*
X167819382Y-120148500D01*
X168176042Y-120109711D01*
X168526417Y-120032587D01*
X168866401Y-119918033D01*
X169192005Y-119767393D01*
X169499414Y-119582431D01*
X169785023Y-119365317D01*
X170045484Y-119118595D01*
X170277742Y-118845159D01*
X170394239Y-118673339D01*
X170479070Y-118548223D01*
X170479070Y-118548221D01*
X170479075Y-118548215D01*
X170647123Y-118231243D01*
X170779915Y-117897961D01*
X170789936Y-117861871D01*
X170826826Y-117729001D01*
X175794891Y-117729001D01*
X175815300Y-118014362D01*
X175876109Y-118293895D01*
X175976091Y-118561958D01*
X176113191Y-118813038D01*
X176113196Y-118813046D01*
X176219882Y-118955561D01*
X176219883Y-118955562D01*
X177115195Y-118060250D01*
X177137340Y-118111587D01*
X177243433Y-118254094D01*
X177379530Y-118368294D01*
X177469216Y-118413335D01*
X176573436Y-119309115D01*
X176715960Y-119415807D01*
X176715961Y-119415808D01*
X176967042Y-119552908D01*
X176967041Y-119552908D01*
X177235104Y-119652890D01*
X177514637Y-119713699D01*
X177799999Y-119734109D01*
X177800001Y-119734109D01*
X178085362Y-119713699D01*
X178364895Y-119652890D01*
X178632958Y-119552908D01*
X178884047Y-119415803D01*
X179026561Y-119309116D01*
X179026562Y-119309115D01*
X178995101Y-119277654D01*
X180871500Y-119277654D01*
X180878011Y-119338202D01*
X180878011Y-119338204D01*
X180906957Y-119415808D01*
X180929111Y-119475204D01*
X181016739Y-119592261D01*
X181133796Y-119679889D01*
X181270799Y-119730989D01*
X181298050Y-119733918D01*
X181331345Y-119737499D01*
X181331362Y-119737500D01*
X184428638Y-119737500D01*
X184428654Y-119737499D01*
X184455692Y-119734591D01*
X184489201Y-119730989D01*
X184626204Y-119679889D01*
X184743261Y-119592261D01*
X184830889Y-119475204D01*
X184881989Y-119338201D01*
X184885591Y-119304692D01*
X184888499Y-119277654D01*
X184888500Y-119277637D01*
X184888500Y-116840002D01*
X189726640Y-116840002D01*
X189746063Y-117198234D01*
X189804106Y-117552279D01*
X189804107Y-117552282D01*
X189900082Y-117897955D01*
X189900083Y-117897957D01*
X190032872Y-118231233D01*
X190032881Y-118231251D01*
X190200928Y-118548220D01*
X190200929Y-118548223D01*
X190402256Y-118845157D01*
X190402264Y-118845167D01*
X190582048Y-119056825D01*
X190634516Y-119118595D01*
X190894977Y-119365317D01*
X191180586Y-119582431D01*
X191487995Y-119767393D01*
X191487997Y-119767394D01*
X191487999Y-119767395D01*
X191488003Y-119767397D01*
X191787127Y-119905786D01*
X191813599Y-119918033D01*
X192153583Y-120032587D01*
X192503958Y-120109711D01*
X192860618Y-120148500D01*
X192860624Y-120148500D01*
X193219376Y-120148500D01*
X193219382Y-120148500D01*
X193576042Y-120109711D01*
X193926417Y-120032587D01*
X194266401Y-119918033D01*
X194592005Y-119767393D01*
X194899414Y-119582431D01*
X195185023Y-119365317D01*
X195445484Y-119118595D01*
X195677742Y-118845159D01*
X195794239Y-118673339D01*
X195879070Y-118548223D01*
X195879070Y-118548221D01*
X195879075Y-118548215D01*
X196047123Y-118231243D01*
X196179915Y-117897961D01*
X196189936Y-117861871D01*
X196226827Y-117728999D01*
X196275895Y-117552274D01*
X196333936Y-117198237D01*
X196353359Y-116840000D01*
X196333936Y-116481763D01*
X196275895Y-116127726D01*
X196232673Y-115972057D01*
X196179917Y-115782044D01*
X196179916Y-115782042D01*
X196155395Y-115720500D01*
X196047123Y-115448757D01*
X195879075Y-115131785D01*
X195879071Y-115131779D01*
X195879070Y-115131776D01*
X195677743Y-114834842D01*
X195677735Y-114834832D01*
X195445491Y-114561413D01*
X195445486Y-114561407D01*
X195445484Y-114561405D01*
X195185023Y-114314683D01*
X195185016Y-114314677D01*
X195185013Y-114314675D01*
X195117266Y-114263175D01*
X194899414Y-114097569D01*
X194592005Y-113912607D01*
X194592004Y-113912606D01*
X194592000Y-113912604D01*
X194591996Y-113912602D01*
X194266411Y-113761971D01*
X194266406Y-113761969D01*
X194266401Y-113761967D01*
X194100678Y-113706128D01*
X193926416Y-113647412D01*
X193576040Y-113570288D01*
X193219383Y-113531500D01*
X193219382Y-113531500D01*
X192860618Y-113531500D01*
X192860616Y-113531500D01*
X192503959Y-113570288D01*
X192153583Y-113647412D01*
X191890768Y-113735965D01*
X191813599Y-113761967D01*
X191813596Y-113761968D01*
X191813588Y-113761971D01*
X191488003Y-113912602D01*
X191487999Y-113912604D01*
X191259061Y-114050351D01*
X191180586Y-114097569D01*
X191092060Y-114164864D01*
X190894986Y-114314675D01*
X190894977Y-114314683D01*
X190634513Y-114561407D01*
X190634508Y-114561413D01*
X190402264Y-114834832D01*
X190402256Y-114834842D01*
X190200929Y-115131776D01*
X190200928Y-115131779D01*
X190032881Y-115448748D01*
X190032872Y-115448766D01*
X189900083Y-115782042D01*
X189900082Y-115782044D01*
X189804107Y-116127717D01*
X189804106Y-116127720D01*
X189746063Y-116481765D01*
X189726640Y-116839997D01*
X189726640Y-116840002D01*
X184888500Y-116840002D01*
X184888500Y-116180362D01*
X184888499Y-116180345D01*
X184882841Y-116127726D01*
X184881989Y-116119799D01*
X184830889Y-115982796D01*
X184743261Y-115865739D01*
X184626204Y-115778111D01*
X184626204Y-115778110D01*
X184489203Y-115727011D01*
X184428654Y-115720500D01*
X184428638Y-115720500D01*
X181331362Y-115720500D01*
X181331345Y-115720500D01*
X181270797Y-115727011D01*
X181270795Y-115727011D01*
X181133795Y-115778111D01*
X181016739Y-115865739D01*
X180929111Y-115982795D01*
X180878011Y-116119795D01*
X180878011Y-116119797D01*
X180871500Y-116180345D01*
X180871500Y-119277654D01*
X178995101Y-119277654D01*
X178133748Y-118416300D01*
X178143409Y-118412784D01*
X178291844Y-118315157D01*
X178413764Y-118185930D01*
X178485768Y-118061215D01*
X179380115Y-118955562D01*
X179380116Y-118955561D01*
X179486803Y-118813047D01*
X179623908Y-118561958D01*
X179723890Y-118293895D01*
X179784699Y-118014362D01*
X179805109Y-117729001D01*
X179805109Y-117728998D01*
X179784699Y-117443637D01*
X179723890Y-117164104D01*
X179623908Y-116896041D01*
X179486808Y-116644961D01*
X179486807Y-116644960D01*
X179380115Y-116502436D01*
X178484803Y-117397747D01*
X178462660Y-117346413D01*
X178356567Y-117203906D01*
X178220470Y-117089706D01*
X178130782Y-117044663D01*
X179026562Y-116148883D01*
X179026561Y-116148882D01*
X178884046Y-116042196D01*
X178884038Y-116042191D01*
X178632957Y-115905091D01*
X178632958Y-115905091D01*
X178364895Y-115805109D01*
X178085362Y-115744300D01*
X177800001Y-115723891D01*
X177799999Y-115723891D01*
X177514637Y-115744300D01*
X177235104Y-115805109D01*
X176967041Y-115905091D01*
X176715961Y-116042191D01*
X176715953Y-116042196D01*
X176573437Y-116148882D01*
X176573436Y-116148883D01*
X177466252Y-117041699D01*
X177456591Y-117045216D01*
X177308156Y-117142843D01*
X177186236Y-117272070D01*
X177114231Y-117396784D01*
X176219883Y-116502436D01*
X176219882Y-116502437D01*
X176113196Y-116644953D01*
X176113191Y-116644961D01*
X175976091Y-116896041D01*
X175876109Y-117164104D01*
X175815300Y-117443637D01*
X175794891Y-117728998D01*
X175794891Y-117729001D01*
X170826826Y-117729001D01*
X170826827Y-117728999D01*
X170875895Y-117552274D01*
X170933936Y-117198237D01*
X170953359Y-116840000D01*
X170933936Y-116481763D01*
X170875895Y-116127726D01*
X170832673Y-115972057D01*
X170779917Y-115782044D01*
X170779916Y-115782042D01*
X170755395Y-115720500D01*
X170647123Y-115448757D01*
X170479075Y-115131785D01*
X170479071Y-115131779D01*
X170479070Y-115131776D01*
X170277743Y-114834842D01*
X170277735Y-114834832D01*
X170045491Y-114561413D01*
X170045486Y-114561407D01*
X170045484Y-114561405D01*
X169785023Y-114314683D01*
X169785016Y-114314677D01*
X169785013Y-114314675D01*
X169717266Y-114263175D01*
X169499414Y-114097569D01*
X169192005Y-113912607D01*
X169192004Y-113912606D01*
X169192000Y-113912604D01*
X169191996Y-113912602D01*
X168866411Y-113761971D01*
X168866406Y-113761969D01*
X168866401Y-113761967D01*
X168700678Y-113706128D01*
X168526416Y-113647412D01*
X168176040Y-113570288D01*
X167819383Y-113531500D01*
X167819382Y-113531500D01*
X167460618Y-113531500D01*
X167460616Y-113531500D01*
X167103959Y-113570288D01*
X166753583Y-113647412D01*
X166490768Y-113735965D01*
X166413599Y-113761967D01*
X166413596Y-113761968D01*
X166413588Y-113761971D01*
X166088003Y-113912602D01*
X166087999Y-113912604D01*
X165859061Y-114050351D01*
X165780586Y-114097569D01*
X165692060Y-114164864D01*
X165494986Y-114314675D01*
X165494977Y-114314683D01*
X165234513Y-114561407D01*
X165234508Y-114561413D01*
X165002264Y-114834832D01*
X165002256Y-114834842D01*
X164800929Y-115131776D01*
X164800928Y-115131779D01*
X164632881Y-115448748D01*
X164632872Y-115448766D01*
X164500083Y-115782042D01*
X164500082Y-115782044D01*
X164404107Y-116127717D01*
X164404106Y-116127720D01*
X164346063Y-116481765D01*
X164326640Y-116839997D01*
X164326640Y-116840002D01*
X162560500Y-116840002D01*
X162560500Y-108600004D01*
X165926709Y-108600004D01*
X165945843Y-108855343D01*
X165945844Y-108855348D01*
X166002822Y-109104987D01*
X166002824Y-109104996D01*
X166002826Y-109105001D01*
X166096378Y-109343369D01*
X166224413Y-109565131D01*
X166353367Y-109726835D01*
X166384072Y-109765338D01*
X166561271Y-109929753D01*
X166571781Y-109939505D01*
X166783355Y-110083754D01*
X166783360Y-110083756D01*
X166783361Y-110083757D01*
X166783362Y-110083758D01*
X166905890Y-110142764D01*
X167014061Y-110194856D01*
X167014062Y-110194856D01*
X167014065Y-110194858D01*
X167258757Y-110270335D01*
X167258758Y-110270335D01*
X167258761Y-110270336D01*
X167511958Y-110308499D01*
X167511963Y-110308499D01*
X167511966Y-110308500D01*
X167511967Y-110308500D01*
X167768033Y-110308500D01*
X167768034Y-110308500D01*
X167768041Y-110308499D01*
X168021238Y-110270336D01*
X168021239Y-110270335D01*
X168021243Y-110270335D01*
X168265935Y-110194858D01*
X168496646Y-110083754D01*
X168708219Y-109939505D01*
X168895931Y-109765334D01*
X169055587Y-109565131D01*
X169183622Y-109343369D01*
X169277174Y-109105001D01*
X169334155Y-108855353D01*
X169343150Y-108735320D01*
X169353291Y-108600004D01*
X169353291Y-108599995D01*
X169334156Y-108344656D01*
X169334155Y-108344651D01*
X169334155Y-108344647D01*
X169277174Y-108094999D01*
X169183622Y-107856631D01*
X169055587Y-107634869D01*
X168895931Y-107434666D01*
X168895930Y-107434665D01*
X168895927Y-107434661D01*
X168770809Y-107318570D01*
X168708219Y-107260495D01*
X168590155Y-107180000D01*
X168496649Y-107116248D01*
X168496638Y-107116241D01*
X168265940Y-107005144D01*
X168265924Y-107005138D01*
X168147115Y-106968490D01*
X168088856Y-106929919D01*
X168060698Y-106865975D01*
X168071582Y-106796958D01*
X168118051Y-106744781D01*
X168147115Y-106731508D01*
X168177783Y-106722048D01*
X168265918Y-106694864D01*
X168265925Y-106694860D01*
X168265935Y-106694858D01*
X168496646Y-106583754D01*
X168708219Y-106439505D01*
X168895931Y-106265334D01*
X169055587Y-106065131D01*
X169183622Y-105843369D01*
X169277174Y-105605001D01*
X169334155Y-105355353D01*
X169335022Y-105343788D01*
X169353291Y-105100004D01*
X169353291Y-105099995D01*
X169334156Y-104844656D01*
X169334155Y-104844651D01*
X169334155Y-104844647D01*
X169277174Y-104594999D01*
X169183622Y-104356631D01*
X169055587Y-104134869D01*
X168895931Y-103934666D01*
X168895930Y-103934665D01*
X168895927Y-103934661D01*
X168760713Y-103809202D01*
X168708219Y-103760495D01*
X168699917Y-103754835D01*
X168496649Y-103616248D01*
X168496638Y-103616241D01*
X168265940Y-103505144D01*
X168265921Y-103505137D01*
X168147116Y-103468491D01*
X168088857Y-103429921D01*
X168060699Y-103365977D01*
X168071581Y-103296960D01*
X168118050Y-103244783D01*
X168147116Y-103231509D01*
X168215268Y-103210486D01*
X168265935Y-103194858D01*
X168496646Y-103083754D01*
X168708219Y-102939505D01*
X168895931Y-102765334D01*
X169055587Y-102565131D01*
X169167957Y-102370500D01*
X169218525Y-102322284D01*
X169275345Y-102308500D01*
X171426710Y-102308500D01*
X171430455Y-102308613D01*
X171433812Y-102308816D01*
X171493093Y-102312402D01*
X171554818Y-102301090D01*
X171558514Y-102300527D01*
X171620801Y-102292965D01*
X171630499Y-102289286D01*
X171652116Y-102283260D01*
X171662329Y-102281389D01*
X171719577Y-102255622D01*
X171722978Y-102254213D01*
X171781675Y-102231954D01*
X171790213Y-102226060D01*
X171809764Y-102215033D01*
X171819226Y-102210775D01*
X171868640Y-102172060D01*
X171871615Y-102169870D01*
X171923273Y-102134215D01*
X171964916Y-102087208D01*
X171967435Y-102084533D01*
X174247151Y-99804819D01*
X174308475Y-99771334D01*
X174334833Y-99768500D01*
X175364164Y-99768500D01*
X175431203Y-99788185D01*
X175465738Y-99821376D01*
X175523802Y-99904300D01*
X175685700Y-100066198D01*
X175873250Y-100197523D01*
X175873251Y-100197523D01*
X175916345Y-100217618D01*
X175968784Y-100263791D01*
X175987936Y-100330984D01*
X175967720Y-100397865D01*
X175916345Y-100442382D01*
X175873251Y-100462476D01*
X175748126Y-100550090D01*
X175685700Y-100593802D01*
X175685698Y-100593803D01*
X175685695Y-100593806D01*
X175523806Y-100755695D01*
X175523803Y-100755698D01*
X175523802Y-100755700D01*
X175453130Y-100856630D01*
X175392476Y-100943252D01*
X175392475Y-100943254D01*
X175295718Y-101150750D01*
X175295714Y-101150761D01*
X175236457Y-101371910D01*
X175236456Y-101371918D01*
X175216502Y-101599998D01*
X175216502Y-101600001D01*
X175236456Y-101828081D01*
X175236457Y-101828089D01*
X175295714Y-102049238D01*
X175295718Y-102049249D01*
X175391291Y-102254205D01*
X175392477Y-102256749D01*
X175523802Y-102444300D01*
X175685700Y-102606198D01*
X175862700Y-102730135D01*
X175873251Y-102737523D01*
X175916345Y-102757618D01*
X175968784Y-102803791D01*
X175987936Y-102870984D01*
X175967720Y-102937865D01*
X175916345Y-102982382D01*
X175873251Y-103002476D01*
X175757180Y-103083751D01*
X175685700Y-103133802D01*
X175685698Y-103133803D01*
X175685695Y-103133806D01*
X175523806Y-103295695D01*
X175523803Y-103295698D01*
X175523802Y-103295700D01*
X175456722Y-103391500D01*
X175392476Y-103483252D01*
X175392475Y-103483254D01*
X175295718Y-103690750D01*
X175295714Y-103690761D01*
X175236457Y-103911910D01*
X175236456Y-103911918D01*
X175216502Y-104139998D01*
X175216502Y-104140001D01*
X175236456Y-104368081D01*
X175236457Y-104368089D01*
X175295714Y-104589238D01*
X175295718Y-104589249D01*
X175392475Y-104796745D01*
X175392477Y-104796749D01*
X175523802Y-104984300D01*
X175685700Y-105146198D01*
X175873251Y-105277523D01*
X175916345Y-105297618D01*
X175968783Y-105343788D01*
X175987936Y-105410981D01*
X175967721Y-105477863D01*
X175916347Y-105522380D01*
X175873252Y-105542476D01*
X175873249Y-105542477D01*
X175873251Y-105542477D01*
X175685700Y-105673802D01*
X175685698Y-105673803D01*
X175685695Y-105673806D01*
X175523806Y-105835695D01*
X175523803Y-105835698D01*
X175523802Y-105835700D01*
X175441767Y-105952856D01*
X175392476Y-106023252D01*
X175392475Y-106023254D01*
X175295718Y-106230750D01*
X175295714Y-106230761D01*
X175236457Y-106451910D01*
X175236456Y-106451918D01*
X175216502Y-106679998D01*
X175216502Y-106680001D01*
X175236456Y-106908081D01*
X175236457Y-106908089D01*
X175295714Y-107129238D01*
X175295718Y-107129249D01*
X175392475Y-107336745D01*
X175392477Y-107336749D01*
X175523802Y-107524300D01*
X175685700Y-107686198D01*
X175873251Y-107817523D01*
X175998091Y-107875736D01*
X176080750Y-107914281D01*
X176080752Y-107914281D01*
X176080757Y-107914284D01*
X176301913Y-107973543D01*
X176464832Y-107987796D01*
X176529998Y-107993498D01*
X176530000Y-107993498D01*
X176530002Y-107993498D01*
X176587021Y-107988509D01*
X176758087Y-107973543D01*
X176979243Y-107914284D01*
X177186749Y-107817523D01*
X177374300Y-107686198D01*
X177536198Y-107524300D01*
X177667523Y-107336749D01*
X177764284Y-107129243D01*
X177823543Y-106908087D01*
X177843498Y-106680000D01*
X177843497Y-106679994D01*
X177835078Y-106583757D01*
X177823543Y-106451913D01*
X177764284Y-106230757D01*
X177667523Y-106023251D01*
X177536198Y-105835700D01*
X177374300Y-105673802D01*
X177186749Y-105542477D01*
X177178889Y-105538812D01*
X177143655Y-105522382D01*
X177091215Y-105476210D01*
X177072063Y-105409017D01*
X177092278Y-105342136D01*
X177143655Y-105297618D01*
X177146882Y-105296112D01*
X177186749Y-105277523D01*
X177374300Y-105146198D01*
X177536198Y-104984300D01*
X177667523Y-104796749D01*
X177764284Y-104589243D01*
X177823543Y-104368087D01*
X177843498Y-104140000D01*
X177823543Y-103911913D01*
X177764284Y-103690757D01*
X177667523Y-103483251D01*
X177536198Y-103295700D01*
X177374300Y-103133802D01*
X177186749Y-103002477D01*
X177178889Y-102998812D01*
X177143655Y-102982382D01*
X177091215Y-102936210D01*
X177072063Y-102869017D01*
X177092278Y-102802136D01*
X177143655Y-102757618D01*
X177146882Y-102756112D01*
X177186749Y-102737523D01*
X177374300Y-102606198D01*
X177536198Y-102444300D01*
X177667523Y-102256749D01*
X177764284Y-102049243D01*
X177823543Y-101828087D01*
X177843498Y-101600000D01*
X177823543Y-101371913D01*
X177764284Y-101150757D01*
X177667523Y-100943251D01*
X177536198Y-100755700D01*
X177374300Y-100593802D01*
X177186749Y-100462477D01*
X177178889Y-100458812D01*
X177143655Y-100442382D01*
X177091215Y-100396210D01*
X177072063Y-100329017D01*
X177092278Y-100262136D01*
X177143655Y-100217618D01*
X177146882Y-100216112D01*
X177186749Y-100197523D01*
X177374300Y-100066198D01*
X177536198Y-99904300D01*
X177667523Y-99716749D01*
X177764284Y-99509243D01*
X177823543Y-99288087D01*
X177843498Y-99060000D01*
X177823543Y-98831913D01*
X177764284Y-98610757D01*
X177761602Y-98605006D01*
X177708036Y-98490132D01*
X177667523Y-98403251D01*
X177536198Y-98215700D01*
X177374300Y-98053802D01*
X177186749Y-97922477D01*
X177133596Y-97897691D01*
X177081158Y-97851519D01*
X177062007Y-97784325D01*
X177082223Y-97717444D01*
X177133600Y-97672927D01*
X177182483Y-97650133D01*
X177368820Y-97519657D01*
X177529657Y-97358820D01*
X177660134Y-97172482D01*
X177756265Y-96966326D01*
X177756269Y-96966317D01*
X177808872Y-96770000D01*
X176845686Y-96770000D01*
X176857641Y-96758045D01*
X176915165Y-96645148D01*
X176934986Y-96520000D01*
X176915165Y-96394852D01*
X176857641Y-96281955D01*
X176845686Y-96270000D01*
X177808872Y-96270000D01*
X177808872Y-96269999D01*
X177756269Y-96073682D01*
X177756265Y-96073673D01*
X177660134Y-95867517D01*
X177529657Y-95681179D01*
X177368820Y-95520342D01*
X177182481Y-95389865D01*
X177182479Y-95389864D01*
X177133599Y-95367071D01*
X177081159Y-95320899D01*
X177062007Y-95253706D01*
X177082223Y-95186824D01*
X177133599Y-95142307D01*
X177136520Y-95140945D01*
X177186749Y-95117523D01*
X177374300Y-94986198D01*
X177435678Y-94924819D01*
X177497002Y-94891334D01*
X177523360Y-94888500D01*
X179404325Y-94888500D01*
X179471364Y-94908185D01*
X179492006Y-94924819D01*
X180919181Y-96351994D01*
X180952666Y-96413317D01*
X180955500Y-96439675D01*
X180955500Y-98216743D01*
X180953973Y-98236140D01*
X180951748Y-98250190D01*
X180953639Y-98286277D01*
X180955415Y-98320158D01*
X180955500Y-98323404D01*
X180955500Y-98345610D01*
X180956523Y-98355348D01*
X180957820Y-98367693D01*
X180958074Y-98370925D01*
X180961742Y-98440901D01*
X180961743Y-98440903D01*
X180963972Y-98449224D01*
X180965424Y-98454640D01*
X180968969Y-98473767D01*
X180970457Y-98487927D01*
X180981378Y-98521540D01*
X180992121Y-98554604D01*
X180993028Y-98557663D01*
X180997760Y-98575320D01*
X181011171Y-98625373D01*
X181017631Y-98638051D01*
X181025073Y-98656018D01*
X181029470Y-98669550D01*
X181029471Y-98669553D01*
X181029473Y-98669556D01*
X181064521Y-98730262D01*
X181066059Y-98733094D01*
X181097868Y-98795524D01*
X181097873Y-98795533D01*
X181106827Y-98806590D01*
X181117838Y-98822610D01*
X181123210Y-98831913D01*
X181124962Y-98834947D01*
X181171846Y-98887017D01*
X181173946Y-98889476D01*
X181187928Y-98906741D01*
X181187930Y-98906744D01*
X181187931Y-98906744D01*
X181203625Y-98922438D01*
X181205846Y-98924777D01*
X181252747Y-98976866D01*
X181264257Y-98985228D01*
X181279052Y-98997865D01*
X181926133Y-99644946D01*
X181938768Y-99659739D01*
X181947132Y-99671251D01*
X181947134Y-99671253D01*
X181999204Y-99718137D01*
X182001560Y-99720373D01*
X182017262Y-99736075D01*
X182034516Y-99750048D01*
X182036982Y-99752154D01*
X182059470Y-99772401D01*
X182089056Y-99799040D01*
X182089058Y-99799041D01*
X182101374Y-99806152D01*
X182117405Y-99817169D01*
X182128471Y-99826130D01*
X182190917Y-99857948D01*
X182193763Y-99859493D01*
X182254444Y-99894527D01*
X182267976Y-99898923D01*
X182285949Y-99906368D01*
X182298630Y-99912830D01*
X182366338Y-99930971D01*
X182369417Y-99931884D01*
X182436072Y-99953542D01*
X182447642Y-99954757D01*
X182450222Y-99955029D01*
X182469360Y-99958576D01*
X182483097Y-99962257D01*
X182483096Y-99962257D01*
X182488481Y-99962539D01*
X182553084Y-99965924D01*
X182556294Y-99966177D01*
X182578390Y-99968500D01*
X182600596Y-99968500D01*
X182603839Y-99968584D01*
X182673810Y-99972252D01*
X182687859Y-99970026D01*
X182707257Y-99968500D01*
X183156640Y-99968500D01*
X183223679Y-99988185D01*
X183244321Y-100004819D01*
X183305700Y-100066198D01*
X183493251Y-100197522D01*
X183493251Y-100197523D01*
X183546401Y-100222307D01*
X183598840Y-100268479D01*
X183617992Y-100335673D01*
X183597776Y-100402554D01*
X183546401Y-100447071D01*
X183497517Y-100469865D01*
X183311179Y-100600342D01*
X183150342Y-100761179D01*
X183019865Y-100947517D01*
X182923734Y-101153673D01*
X182923730Y-101153682D01*
X182871127Y-101349999D01*
X182871128Y-101350000D01*
X183834314Y-101350000D01*
X183822359Y-101361955D01*
X183764835Y-101474852D01*
X183745014Y-101600000D01*
X183764835Y-101725148D01*
X183822359Y-101838045D01*
X183834314Y-101850000D01*
X182871128Y-101850000D01*
X182923730Y-102046317D01*
X182923734Y-102046326D01*
X183019865Y-102252482D01*
X183150342Y-102438820D01*
X183311179Y-102599657D01*
X183497517Y-102730134D01*
X183556457Y-102757618D01*
X183608896Y-102803790D01*
X183628048Y-102870984D01*
X183607832Y-102937865D01*
X183556457Y-102982382D01*
X183497517Y-103009865D01*
X183311179Y-103140342D01*
X183150342Y-103301179D01*
X183019865Y-103487517D01*
X182923734Y-103693673D01*
X182923730Y-103693682D01*
X182871127Y-103889999D01*
X182871128Y-103890000D01*
X183834314Y-103890000D01*
X183822359Y-103901955D01*
X183764835Y-104014852D01*
X183745014Y-104140000D01*
X183764835Y-104265148D01*
X183822359Y-104378045D01*
X183834314Y-104390000D01*
X182871128Y-104390000D01*
X182923730Y-104586317D01*
X182923734Y-104586326D01*
X183019865Y-104792482D01*
X183150342Y-104978820D01*
X183311179Y-105139657D01*
X183497517Y-105270134D01*
X183556457Y-105297618D01*
X183608896Y-105343790D01*
X183628048Y-105410984D01*
X183607832Y-105477865D01*
X183556457Y-105522382D01*
X183497517Y-105549865D01*
X183311179Y-105680342D01*
X183150342Y-105841179D01*
X183019865Y-106027517D01*
X182923734Y-106233673D01*
X182923730Y-106233682D01*
X182871127Y-106429999D01*
X182871128Y-106430000D01*
X183834314Y-106430000D01*
X183822359Y-106441955D01*
X183764835Y-106554852D01*
X183745014Y-106680000D01*
X183764835Y-106805148D01*
X183822359Y-106918045D01*
X183834314Y-106930000D01*
X182871128Y-106930000D01*
X182923730Y-107126317D01*
X182923734Y-107126326D01*
X183019865Y-107332482D01*
X183150342Y-107518820D01*
X183311179Y-107679657D01*
X183497517Y-107810134D01*
X183703673Y-107906265D01*
X183703682Y-107906269D01*
X183899999Y-107958872D01*
X183900000Y-107958871D01*
X183900000Y-106995685D01*
X183911955Y-107007641D01*
X184024852Y-107065165D01*
X184118519Y-107080000D01*
X184181481Y-107080000D01*
X184275148Y-107065165D01*
X184388045Y-107007641D01*
X184400000Y-106995686D01*
X184400000Y-107958872D01*
X184596317Y-107906269D01*
X184596326Y-107906265D01*
X184802482Y-107810134D01*
X184988820Y-107679657D01*
X185149657Y-107518820D01*
X185280134Y-107332482D01*
X185376265Y-107126326D01*
X185376269Y-107126317D01*
X185428872Y-106930000D01*
X184465686Y-106930000D01*
X184477641Y-106918045D01*
X184535165Y-106805148D01*
X184554986Y-106680000D01*
X184535165Y-106554852D01*
X184477641Y-106441955D01*
X184465686Y-106430000D01*
X185428872Y-106430000D01*
X185428872Y-106429999D01*
X185376269Y-106233682D01*
X185376265Y-106233673D01*
X185280134Y-106027517D01*
X185149657Y-105841179D01*
X184988820Y-105680342D01*
X184802481Y-105549865D01*
X184802479Y-105549864D01*
X184743543Y-105522382D01*
X184691103Y-105476210D01*
X184671951Y-105409017D01*
X184692166Y-105342136D01*
X184743543Y-105297618D01*
X184802479Y-105270135D01*
X184802481Y-105270134D01*
X184988820Y-105139657D01*
X185149657Y-104978820D01*
X185280134Y-104792482D01*
X185376265Y-104586326D01*
X185376269Y-104586317D01*
X185428872Y-104390000D01*
X184465686Y-104390000D01*
X184477641Y-104378045D01*
X184535165Y-104265148D01*
X184554986Y-104140000D01*
X184535165Y-104014852D01*
X184477641Y-103901955D01*
X184465686Y-103890000D01*
X185428872Y-103890000D01*
X185428872Y-103889999D01*
X185376269Y-103693682D01*
X185376265Y-103693673D01*
X185280134Y-103487517D01*
X185149657Y-103301179D01*
X184988820Y-103140342D01*
X184802481Y-103009865D01*
X184802479Y-103009864D01*
X184743543Y-102982382D01*
X184691103Y-102936210D01*
X184671951Y-102869017D01*
X184692166Y-102802136D01*
X184743543Y-102757618D01*
X184802479Y-102730135D01*
X184802481Y-102730134D01*
X184988820Y-102599657D01*
X185115573Y-102472905D01*
X185176896Y-102439420D01*
X185246588Y-102444404D01*
X185290935Y-102472905D01*
X189129504Y-106311474D01*
X189162989Y-106372797D01*
X189162029Y-106429593D01*
X189155435Y-106455630D01*
X189155435Y-106455633D01*
X189136844Y-106679994D01*
X189136844Y-106680005D01*
X189155434Y-106904359D01*
X189155436Y-106904371D01*
X189210703Y-107122614D01*
X189301140Y-107328792D01*
X189424276Y-107517265D01*
X189424284Y-107517276D01*
X189569489Y-107675008D01*
X189600412Y-107737662D01*
X189592552Y-107807088D01*
X189548405Y-107861244D01*
X189521596Y-107875172D01*
X189403794Y-107919111D01*
X189286739Y-108006739D01*
X189199111Y-108123795D01*
X189148011Y-108260795D01*
X189148011Y-108260797D01*
X189141500Y-108321345D01*
X189141500Y-110118654D01*
X189148011Y-110179202D01*
X189148011Y-110179204D01*
X189197575Y-110312086D01*
X189199111Y-110316204D01*
X189286739Y-110433261D01*
X189403796Y-110520889D01*
X189518297Y-110563596D01*
X189535463Y-110569999D01*
X189540799Y-110571989D01*
X189568050Y-110574918D01*
X189601345Y-110578499D01*
X189601362Y-110578500D01*
X191398638Y-110578500D01*
X191398654Y-110578499D01*
X191425692Y-110575591D01*
X191459201Y-110571989D01*
X191464537Y-110569999D01*
X191502897Y-110555690D01*
X191596204Y-110520889D01*
X191596204Y-110520888D01*
X191596206Y-110520888D01*
X191596207Y-110520887D01*
X191695689Y-110446415D01*
X191761153Y-110421997D01*
X191829426Y-110436848D01*
X191844311Y-110446415D01*
X191943792Y-110520887D01*
X191943793Y-110520888D01*
X192075464Y-110569999D01*
X192080799Y-110571989D01*
X192108050Y-110574918D01*
X192141345Y-110578499D01*
X192141362Y-110578500D01*
X193938638Y-110578500D01*
X193938654Y-110578499D01*
X193965692Y-110575591D01*
X193999201Y-110571989D01*
X194004537Y-110569999D01*
X194021703Y-110563596D01*
X194136204Y-110520889D01*
X194242782Y-110441105D01*
X194308244Y-110416689D01*
X194376517Y-110431540D01*
X194391402Y-110441106D01*
X194487911Y-110513353D01*
X194487913Y-110513354D01*
X194622620Y-110563596D01*
X194622627Y-110563598D01*
X194682155Y-110569999D01*
X194682172Y-110570000D01*
X195330000Y-110570000D01*
X195330000Y-109655501D01*
X195437685Y-109704680D01*
X195544237Y-109720000D01*
X195615763Y-109720000D01*
X195722315Y-109704680D01*
X195830000Y-109655501D01*
X195830000Y-110570000D01*
X196477828Y-110570000D01*
X196477844Y-110569999D01*
X196537372Y-110563598D01*
X196537379Y-110563596D01*
X196672086Y-110513354D01*
X196672093Y-110513350D01*
X196787187Y-110427190D01*
X196787190Y-110427187D01*
X196873350Y-110312093D01*
X196873354Y-110312086D01*
X196923596Y-110177379D01*
X196923598Y-110177372D01*
X196929999Y-110117844D01*
X196930000Y-110117827D01*
X196930000Y-109470000D01*
X196013686Y-109470000D01*
X196039493Y-109429844D01*
X196080000Y-109291889D01*
X196080000Y-109148111D01*
X196039493Y-109010156D01*
X196013686Y-108970000D01*
X196930000Y-108970000D01*
X196930000Y-108322172D01*
X196929999Y-108322155D01*
X196923598Y-108262627D01*
X196923596Y-108262620D01*
X196873354Y-108127913D01*
X196873350Y-108127906D01*
X196787190Y-108012812D01*
X196787187Y-108012809D01*
X196672093Y-107926649D01*
X196672086Y-107926645D01*
X196540013Y-107877385D01*
X196484079Y-107835514D01*
X196459662Y-107770049D01*
X196474514Y-107701776D01*
X196495665Y-107673521D01*
X196618108Y-107551078D01*
X196753600Y-107357578D01*
X196853429Y-107143492D01*
X196853432Y-107143486D01*
X196910636Y-106930000D01*
X196013686Y-106930000D01*
X196039493Y-106889844D01*
X196080000Y-106751889D01*
X196080000Y-106608111D01*
X196039493Y-106470156D01*
X196013686Y-106430000D01*
X196910636Y-106430000D01*
X196910635Y-106429999D01*
X196853432Y-106216513D01*
X196853429Y-106216507D01*
X196753600Y-106002422D01*
X196753599Y-106002420D01*
X196618113Y-105808926D01*
X196618108Y-105808920D01*
X196451082Y-105641894D01*
X196264968Y-105511575D01*
X196221344Y-105456998D01*
X196214151Y-105387499D01*
X196245673Y-105325145D01*
X196264968Y-105308425D01*
X196451082Y-105178105D01*
X196618105Y-105011082D01*
X196753600Y-104817578D01*
X196853429Y-104603492D01*
X196853432Y-104603486D01*
X196910636Y-104390000D01*
X196013686Y-104390000D01*
X196039493Y-104349844D01*
X196080000Y-104211889D01*
X196080000Y-104068111D01*
X196039493Y-103930156D01*
X196013686Y-103890000D01*
X196910636Y-103890000D01*
X196910635Y-103889999D01*
X196853432Y-103676513D01*
X196853429Y-103676507D01*
X196753600Y-103462422D01*
X196753599Y-103462420D01*
X196618113Y-103268926D01*
X196618108Y-103268920D01*
X196451082Y-103101894D01*
X196264968Y-102971575D01*
X196221344Y-102916998D01*
X196214151Y-102847499D01*
X196245673Y-102785145D01*
X196264968Y-102768425D01*
X196451082Y-102638105D01*
X196618105Y-102471082D01*
X196753600Y-102277578D01*
X196853429Y-102063492D01*
X196853432Y-102063486D01*
X196910636Y-101850000D01*
X196013686Y-101850000D01*
X196039493Y-101809844D01*
X196080000Y-101671889D01*
X196080000Y-101528111D01*
X196039493Y-101390156D01*
X196013686Y-101350000D01*
X196910636Y-101350000D01*
X196910635Y-101349999D01*
X196853432Y-101136513D01*
X196853429Y-101136507D01*
X196753600Y-100922422D01*
X196753599Y-100922420D01*
X196618113Y-100728926D01*
X196618108Y-100728920D01*
X196451082Y-100561894D01*
X196264968Y-100431575D01*
X196221344Y-100376998D01*
X196214151Y-100307499D01*
X196245673Y-100245145D01*
X196264968Y-100228425D01*
X196451082Y-100098105D01*
X196618105Y-99931082D01*
X196753600Y-99737578D01*
X196853429Y-99523492D01*
X196853432Y-99523486D01*
X196910636Y-99310000D01*
X196013686Y-99310000D01*
X196039493Y-99269844D01*
X196080000Y-99131889D01*
X196080000Y-98988111D01*
X196039493Y-98850156D01*
X196013686Y-98810000D01*
X196910636Y-98810000D01*
X196910635Y-98809999D01*
X196853432Y-98596513D01*
X196853429Y-98596507D01*
X196753600Y-98382422D01*
X196753599Y-98382420D01*
X196618113Y-98188926D01*
X196618108Y-98188920D01*
X196451082Y-98021894D01*
X196264968Y-97891575D01*
X196221344Y-97836998D01*
X196214151Y-97767499D01*
X196245673Y-97705145D01*
X196264968Y-97688425D01*
X196451082Y-97558105D01*
X196618105Y-97391082D01*
X196753600Y-97197578D01*
X196853429Y-96983492D01*
X196853432Y-96983486D01*
X196910636Y-96770000D01*
X196013686Y-96770000D01*
X196039493Y-96729844D01*
X196080000Y-96591889D01*
X196080000Y-96448111D01*
X196039493Y-96310156D01*
X196013686Y-96270000D01*
X196910636Y-96270000D01*
X196910635Y-96269999D01*
X196853432Y-96056513D01*
X196853429Y-96056507D01*
X196753600Y-95842422D01*
X196753599Y-95842420D01*
X196618113Y-95648926D01*
X196618108Y-95648920D01*
X196451082Y-95481894D01*
X196264968Y-95351575D01*
X196221344Y-95296998D01*
X196214151Y-95227499D01*
X196245673Y-95165145D01*
X196264968Y-95148425D01*
X196451082Y-95018105D01*
X196618105Y-94851082D01*
X196753600Y-94657578D01*
X196853429Y-94443492D01*
X196853432Y-94443486D01*
X196910636Y-94230000D01*
X196013686Y-94230000D01*
X196039493Y-94189844D01*
X196080000Y-94051889D01*
X196080000Y-93908111D01*
X196039493Y-93770156D01*
X196013686Y-93730000D01*
X196910636Y-93730000D01*
X196910635Y-93729999D01*
X196853432Y-93516513D01*
X196853429Y-93516507D01*
X196753600Y-93302422D01*
X196753599Y-93302420D01*
X196618113Y-93108926D01*
X196618108Y-93108920D01*
X196451082Y-92941894D01*
X196264968Y-92811575D01*
X196221344Y-92756998D01*
X196214151Y-92687499D01*
X196245673Y-92625145D01*
X196264968Y-92608425D01*
X196451082Y-92478105D01*
X196618105Y-92311082D01*
X196753600Y-92117578D01*
X196853429Y-91903492D01*
X196853432Y-91903486D01*
X196910636Y-91690000D01*
X196013686Y-91690000D01*
X196039493Y-91649844D01*
X196080000Y-91511889D01*
X196080000Y-91368111D01*
X196039493Y-91230156D01*
X196013686Y-91190000D01*
X196910636Y-91190000D01*
X196910635Y-91189999D01*
X196853432Y-90976513D01*
X196853429Y-90976507D01*
X196753600Y-90762422D01*
X196753599Y-90762420D01*
X196618113Y-90568926D01*
X196618108Y-90568920D01*
X196451082Y-90401894D01*
X196264968Y-90271575D01*
X196221344Y-90216998D01*
X196214151Y-90147499D01*
X196245673Y-90085145D01*
X196264968Y-90068425D01*
X196451082Y-89938105D01*
X196618105Y-89771082D01*
X196753600Y-89577578D01*
X196853429Y-89363492D01*
X196853432Y-89363486D01*
X196910636Y-89150000D01*
X196013686Y-89150000D01*
X196039493Y-89109844D01*
X196080000Y-88971889D01*
X196080000Y-88828111D01*
X196039493Y-88690156D01*
X196013686Y-88650000D01*
X196910636Y-88650000D01*
X196910635Y-88649999D01*
X196853432Y-88436513D01*
X196853429Y-88436507D01*
X196753600Y-88222422D01*
X196753599Y-88222420D01*
X196618113Y-88028926D01*
X196618108Y-88028920D01*
X196451082Y-87861894D01*
X196264968Y-87731575D01*
X196221344Y-87676998D01*
X196214151Y-87607499D01*
X196245673Y-87545145D01*
X196264968Y-87528425D01*
X196451082Y-87398105D01*
X196618105Y-87231082D01*
X196753600Y-87037578D01*
X196853429Y-86823492D01*
X196853432Y-86823486D01*
X196910636Y-86610000D01*
X196013686Y-86610000D01*
X196039493Y-86569844D01*
X196080000Y-86431889D01*
X196080000Y-86288111D01*
X196039493Y-86150156D01*
X196013686Y-86110000D01*
X196910636Y-86110000D01*
X196910635Y-86109999D01*
X196853432Y-85896513D01*
X196853429Y-85896507D01*
X196753600Y-85682422D01*
X196753599Y-85682420D01*
X196618113Y-85488926D01*
X196618108Y-85488920D01*
X196451082Y-85321894D01*
X196264968Y-85191575D01*
X196221344Y-85136998D01*
X196214151Y-85067499D01*
X196245673Y-85005145D01*
X196264968Y-84988425D01*
X196451082Y-84858105D01*
X196618105Y-84691082D01*
X196753600Y-84497578D01*
X196853429Y-84283492D01*
X196853432Y-84283486D01*
X196910636Y-84070000D01*
X196013686Y-84070000D01*
X196039493Y-84029844D01*
X196080000Y-83891889D01*
X196080000Y-83748111D01*
X196039493Y-83610156D01*
X196013686Y-83570000D01*
X196910636Y-83570000D01*
X196910635Y-83569999D01*
X196853432Y-83356513D01*
X196853429Y-83356507D01*
X196753600Y-83142422D01*
X196753599Y-83142420D01*
X196618113Y-82948926D01*
X196618108Y-82948920D01*
X196451082Y-82781894D01*
X196264968Y-82651575D01*
X196221344Y-82596998D01*
X196214151Y-82527499D01*
X196245673Y-82465145D01*
X196264968Y-82448425D01*
X196451082Y-82318105D01*
X196618105Y-82151082D01*
X196753600Y-81957578D01*
X196853429Y-81743492D01*
X196853432Y-81743486D01*
X196910636Y-81530000D01*
X196013686Y-81530000D01*
X196039493Y-81489844D01*
X196080000Y-81351889D01*
X196080000Y-81208111D01*
X196039493Y-81070156D01*
X196013686Y-81030000D01*
X196910636Y-81030000D01*
X196910635Y-81029999D01*
X196853432Y-80816513D01*
X196853429Y-80816507D01*
X196753600Y-80602422D01*
X196753599Y-80602420D01*
X196618113Y-80408926D01*
X196618108Y-80408920D01*
X196451082Y-80241894D01*
X196264968Y-80111575D01*
X196221344Y-80056998D01*
X196214151Y-79987499D01*
X196245673Y-79925145D01*
X196264968Y-79908425D01*
X196451082Y-79778105D01*
X196618105Y-79611082D01*
X196753600Y-79417578D01*
X196853429Y-79203492D01*
X196853432Y-79203486D01*
X196910636Y-78990000D01*
X196013686Y-78990000D01*
X196039493Y-78949844D01*
X196080000Y-78811889D01*
X196080000Y-78668111D01*
X196039493Y-78530156D01*
X196013686Y-78490000D01*
X196910636Y-78490000D01*
X196910635Y-78489999D01*
X196853432Y-78276513D01*
X196853429Y-78276507D01*
X196753600Y-78062422D01*
X196753599Y-78062420D01*
X196618113Y-77868926D01*
X196618108Y-77868920D01*
X196451082Y-77701894D01*
X196264968Y-77571575D01*
X196221344Y-77516998D01*
X196214151Y-77447499D01*
X196245673Y-77385145D01*
X196264968Y-77368425D01*
X196451082Y-77238105D01*
X196618105Y-77071082D01*
X196753600Y-76877578D01*
X196853429Y-76663492D01*
X196853432Y-76663486D01*
X196910636Y-76450000D01*
X196013686Y-76450000D01*
X196039493Y-76409844D01*
X196080000Y-76271889D01*
X196080000Y-76128111D01*
X196039493Y-75990156D01*
X196013686Y-75950000D01*
X196910636Y-75950000D01*
X196910635Y-75949999D01*
X196853432Y-75736513D01*
X196853429Y-75736507D01*
X196753600Y-75522422D01*
X196753599Y-75522420D01*
X196618113Y-75328926D01*
X196618108Y-75328920D01*
X196451082Y-75161894D01*
X196264968Y-75031575D01*
X196221344Y-74976998D01*
X196214151Y-74907499D01*
X196245673Y-74845145D01*
X196264968Y-74828425D01*
X196451082Y-74698105D01*
X196618105Y-74531082D01*
X196753600Y-74337578D01*
X196853429Y-74123492D01*
X196853432Y-74123486D01*
X196910636Y-73910000D01*
X196013686Y-73910000D01*
X196039493Y-73869844D01*
X196080000Y-73731889D01*
X196080000Y-73588111D01*
X196039493Y-73450156D01*
X196013686Y-73410000D01*
X196910636Y-73410000D01*
X196910635Y-73409999D01*
X196853432Y-73196513D01*
X196853429Y-73196507D01*
X196753600Y-72982422D01*
X196753599Y-72982420D01*
X196618113Y-72788926D01*
X196618108Y-72788920D01*
X196451082Y-72621894D01*
X196264968Y-72491575D01*
X196221344Y-72436998D01*
X196214151Y-72367499D01*
X196245673Y-72305145D01*
X196264968Y-72288425D01*
X196451082Y-72158105D01*
X196618105Y-71991082D01*
X196753600Y-71797578D01*
X196853429Y-71583492D01*
X196853432Y-71583486D01*
X196910636Y-71370000D01*
X196013686Y-71370000D01*
X196039493Y-71329844D01*
X196080000Y-71191889D01*
X196080000Y-71048111D01*
X196039493Y-70910156D01*
X196013686Y-70870000D01*
X196910636Y-70870000D01*
X196910635Y-70869999D01*
X196853432Y-70656513D01*
X196853429Y-70656507D01*
X196753600Y-70442422D01*
X196753599Y-70442420D01*
X196618113Y-70248926D01*
X196618108Y-70248920D01*
X196451082Y-70081894D01*
X196257578Y-69946399D01*
X196043492Y-69846570D01*
X196043486Y-69846567D01*
X195830000Y-69789364D01*
X195830000Y-70684498D01*
X195722315Y-70635320D01*
X195615763Y-70620000D01*
X195544237Y-70620000D01*
X195437685Y-70635320D01*
X195330000Y-70684498D01*
X195330000Y-69789364D01*
X195329999Y-69789364D01*
X195116513Y-69846567D01*
X195116507Y-69846570D01*
X194902422Y-69946399D01*
X194902420Y-69946400D01*
X194708926Y-70081886D01*
X194708920Y-70081891D01*
X194541891Y-70248920D01*
X194541890Y-70248922D01*
X194415131Y-70429952D01*
X194360554Y-70473577D01*
X194291055Y-70480769D01*
X194228701Y-70449247D01*
X194209752Y-70426656D01*
X194115722Y-70282732D01*
X194115715Y-70282725D01*
X194115715Y-70282723D01*
X193963243Y-70117097D01*
X193963238Y-70117092D01*
X193785577Y-69978812D01*
X193785572Y-69978808D01*
X193587580Y-69871661D01*
X193587577Y-69871659D01*
X193587574Y-69871658D01*
X193587571Y-69871657D01*
X193587569Y-69871656D01*
X193374637Y-69798556D01*
X193152569Y-69761500D01*
X192927431Y-69761500D01*
X192705362Y-69798556D01*
X192492430Y-69871656D01*
X192492419Y-69871661D01*
X192294427Y-69978808D01*
X192294422Y-69978812D01*
X192116761Y-70117092D01*
X192116756Y-70117097D01*
X191964284Y-70282723D01*
X191964276Y-70282734D01*
X191873808Y-70421206D01*
X191820662Y-70466562D01*
X191751431Y-70475986D01*
X191688095Y-70446484D01*
X191666192Y-70421206D01*
X191575723Y-70282734D01*
X191575715Y-70282723D01*
X191423243Y-70117097D01*
X191423238Y-70117092D01*
X191245577Y-69978812D01*
X191245572Y-69978808D01*
X191047580Y-69871661D01*
X191047577Y-69871659D01*
X191047574Y-69871658D01*
X191047571Y-69871657D01*
X191047569Y-69871656D01*
X190834637Y-69798556D01*
X190612569Y-69761500D01*
X190387431Y-69761500D01*
X190165362Y-69798556D01*
X189952430Y-69871656D01*
X189952419Y-69871661D01*
X189754427Y-69978808D01*
X189754422Y-69978812D01*
X189576761Y-70117092D01*
X189576756Y-70117097D01*
X189424284Y-70282723D01*
X189424276Y-70282734D01*
X189301140Y-70471207D01*
X189210703Y-70677385D01*
X189155436Y-70895628D01*
X189155434Y-70895640D01*
X189136844Y-71119994D01*
X189136844Y-71120005D01*
X189155434Y-71344359D01*
X189155436Y-71344371D01*
X189210703Y-71562614D01*
X189301140Y-71768792D01*
X189424276Y-71957265D01*
X189424284Y-71957276D01*
X189576756Y-72122902D01*
X189576760Y-72122906D01*
X189754424Y-72261189D01*
X189790930Y-72280945D01*
X189840519Y-72330162D01*
X189855629Y-72398378D01*
X189831459Y-72463934D01*
X189790932Y-72499052D01*
X189754432Y-72518805D01*
X189754422Y-72518812D01*
X189576761Y-72657092D01*
X189576756Y-72657097D01*
X189424284Y-72822723D01*
X189424276Y-72822734D01*
X189301140Y-73011207D01*
X189210703Y-73217385D01*
X189155436Y-73435628D01*
X189155434Y-73435639D01*
X189145553Y-73554886D01*
X189120400Y-73620070D01*
X189063997Y-73661308D01*
X188994254Y-73665506D01*
X188934296Y-73632326D01*
X188711969Y-73409999D01*
X188477434Y-73175464D01*
X188474900Y-73172772D01*
X188433273Y-73125785D01*
X188433272Y-73125784D01*
X188433271Y-73125783D01*
X188381628Y-73090136D01*
X188378611Y-73087916D01*
X188329227Y-73049225D01*
X188323235Y-73046528D01*
X188319760Y-73044964D01*
X188300216Y-73033941D01*
X188295210Y-73030486D01*
X188291677Y-73028047D01*
X188291672Y-73028044D01*
X188233015Y-73005798D01*
X188229555Y-73004365D01*
X188172331Y-72978611D01*
X188172332Y-72978611D01*
X188162110Y-72976738D01*
X188140510Y-72970716D01*
X188130801Y-72967035D01*
X188130797Y-72967034D01*
X188130796Y-72967034D01*
X188068511Y-72959470D01*
X188064810Y-72958907D01*
X188003096Y-72947598D01*
X188003090Y-72947598D01*
X187940455Y-72951387D01*
X187936710Y-72951500D01*
X185315836Y-72951500D01*
X185248797Y-72931815D01*
X185214261Y-72898623D01*
X185161123Y-72822734D01*
X185156198Y-72815700D01*
X184994300Y-72653802D01*
X184806749Y-72522477D01*
X184806745Y-72522475D01*
X184599249Y-72425718D01*
X184599238Y-72425714D01*
X184378089Y-72366457D01*
X184378081Y-72366456D01*
X184150002Y-72346502D01*
X184149998Y-72346502D01*
X183921918Y-72366456D01*
X183921910Y-72366457D01*
X183700761Y-72425714D01*
X183700750Y-72425718D01*
X183493254Y-72522475D01*
X183493252Y-72522476D01*
X183493249Y-72522477D01*
X183493251Y-72522477D01*
X183305700Y-72653802D01*
X183305698Y-72653803D01*
X183305695Y-72653806D01*
X183143806Y-72815695D01*
X183143803Y-72815698D01*
X183143802Y-72815700D01*
X183138877Y-72822734D01*
X183012476Y-73003252D01*
X183012475Y-73003254D01*
X182915718Y-73210750D01*
X182915714Y-73210761D01*
X182856457Y-73431910D01*
X182856456Y-73431918D01*
X182836502Y-73659998D01*
X182836502Y-73660001D01*
X182856456Y-73888081D01*
X182856457Y-73888089D01*
X182915714Y-74109238D01*
X182915718Y-74109249D01*
X183012475Y-74316745D01*
X183012477Y-74316749D01*
X183143802Y-74504300D01*
X183305700Y-74666198D01*
X183493251Y-74797523D01*
X183536345Y-74817618D01*
X183588783Y-74863788D01*
X183607936Y-74930981D01*
X183587721Y-74997863D01*
X183536347Y-75042380D01*
X183493252Y-75062476D01*
X183493249Y-75062477D01*
X183493251Y-75062477D01*
X183305700Y-75193802D01*
X183305698Y-75193803D01*
X183305695Y-75193806D01*
X183143806Y-75355695D01*
X183143803Y-75355698D01*
X183143802Y-75355700D01*
X183138877Y-75362734D01*
X183012476Y-75543252D01*
X183012475Y-75543254D01*
X182915718Y-75750750D01*
X182915714Y-75750761D01*
X182856457Y-75971910D01*
X182856456Y-75971918D01*
X182836502Y-76199998D01*
X182836502Y-76200001D01*
X182856456Y-76428081D01*
X182856457Y-76428089D01*
X182915714Y-76649238D01*
X182915718Y-76649249D01*
X183012475Y-76856745D01*
X183012477Y-76856749D01*
X183143802Y-77044300D01*
X183305700Y-77206198D01*
X183493251Y-77337523D01*
X183536345Y-77357618D01*
X183588783Y-77403788D01*
X183607936Y-77470981D01*
X183587721Y-77537863D01*
X183536347Y-77582380D01*
X183493252Y-77602476D01*
X183493249Y-77602477D01*
X183493251Y-77602477D01*
X183305700Y-77733802D01*
X183305698Y-77733803D01*
X183305695Y-77733806D01*
X183143806Y-77895695D01*
X183143803Y-77895698D01*
X183143802Y-77895700D01*
X183138877Y-77902734D01*
X183012476Y-78083252D01*
X183012475Y-78083254D01*
X182915718Y-78290750D01*
X182915714Y-78290761D01*
X182856457Y-78511910D01*
X182856456Y-78511918D01*
X182836502Y-78739998D01*
X182836502Y-78740001D01*
X182856456Y-78968081D01*
X182856457Y-78968089D01*
X182915714Y-79189238D01*
X182915718Y-79189249D01*
X183012237Y-79396234D01*
X183012477Y-79396749D01*
X183143802Y-79584300D01*
X183305700Y-79746198D01*
X183476036Y-79865469D01*
X183493251Y-79877523D01*
X183536345Y-79897618D01*
X183588784Y-79943791D01*
X183607936Y-80010984D01*
X183587720Y-80077865D01*
X183536345Y-80122382D01*
X183493251Y-80142476D01*
X183377180Y-80223751D01*
X183305700Y-80273802D01*
X183305698Y-80273803D01*
X183305695Y-80273806D01*
X183143806Y-80435695D01*
X183143803Y-80435698D01*
X183143802Y-80435700D01*
X183085739Y-80518623D01*
X183012476Y-80623252D01*
X183012475Y-80623254D01*
X182915718Y-80830750D01*
X182915714Y-80830761D01*
X182856457Y-81051910D01*
X182856456Y-81051918D01*
X182836502Y-81279998D01*
X182836502Y-81280001D01*
X182856456Y-81508081D01*
X182856457Y-81508089D01*
X182915714Y-81729238D01*
X182915718Y-81729249D01*
X183012475Y-81936745D01*
X183012477Y-81936749D01*
X183143802Y-82124300D01*
X183305700Y-82286198D01*
X183449420Y-82386832D01*
X183493251Y-82417523D01*
X183536345Y-82437618D01*
X183588784Y-82483791D01*
X183607936Y-82550984D01*
X183587720Y-82617865D01*
X183536345Y-82662382D01*
X183493251Y-82682476D01*
X183368126Y-82770090D01*
X183305700Y-82813802D01*
X183305698Y-82813803D01*
X183305695Y-82813806D01*
X183143806Y-82975695D01*
X183143803Y-82975698D01*
X183143802Y-82975700D01*
X183085739Y-83058623D01*
X183012476Y-83163252D01*
X183012475Y-83163254D01*
X182915718Y-83370750D01*
X182915714Y-83370761D01*
X182856457Y-83591910D01*
X182856456Y-83591918D01*
X182836502Y-83819998D01*
X182836502Y-83820001D01*
X182856456Y-84048081D01*
X182856457Y-84048089D01*
X182915714Y-84269238D01*
X182915718Y-84269249D01*
X183012475Y-84476745D01*
X183012477Y-84476749D01*
X183143802Y-84664300D01*
X183305700Y-84826198D01*
X183493250Y-84957522D01*
X183493251Y-84957523D01*
X183536345Y-84977618D01*
X183588784Y-85023791D01*
X183607936Y-85090984D01*
X183587720Y-85157865D01*
X183536345Y-85202382D01*
X183493251Y-85222476D01*
X183368126Y-85310090D01*
X183305700Y-85353802D01*
X183305698Y-85353803D01*
X183305695Y-85353806D01*
X183143806Y-85515695D01*
X183143803Y-85515698D01*
X183143802Y-85515700D01*
X183138877Y-85522734D01*
X183012476Y-85703252D01*
X183012475Y-85703254D01*
X182915718Y-85910750D01*
X182915714Y-85910761D01*
X182856457Y-86131910D01*
X182856456Y-86131918D01*
X182836502Y-86359998D01*
X182836502Y-86360001D01*
X182856456Y-86588081D01*
X182856457Y-86588089D01*
X182915714Y-86809238D01*
X182915718Y-86809249D01*
X183012475Y-87016745D01*
X183012477Y-87016749D01*
X183143802Y-87204300D01*
X183305700Y-87366198D01*
X183493251Y-87497523D01*
X183536345Y-87517618D01*
X183588784Y-87563791D01*
X183607936Y-87630984D01*
X183587720Y-87697865D01*
X183536345Y-87742382D01*
X183493251Y-87762476D01*
X183368126Y-87850090D01*
X183305700Y-87893802D01*
X183305698Y-87893803D01*
X183305695Y-87893806D01*
X183143806Y-88055695D01*
X183143803Y-88055698D01*
X183143802Y-88055700D01*
X183138877Y-88062734D01*
X183012476Y-88243252D01*
X183012475Y-88243254D01*
X182915718Y-88450750D01*
X182915714Y-88450761D01*
X182856457Y-88671910D01*
X182856456Y-88671918D01*
X182836502Y-88899998D01*
X182836502Y-88900001D01*
X182856456Y-89128081D01*
X182856457Y-89128089D01*
X182915714Y-89349238D01*
X182915718Y-89349249D01*
X183012475Y-89556745D01*
X183012477Y-89556749D01*
X183143802Y-89744300D01*
X183305700Y-89906198D01*
X183493250Y-90037522D01*
X183493251Y-90037523D01*
X183536345Y-90057618D01*
X183588784Y-90103791D01*
X183607936Y-90170984D01*
X183587720Y-90237865D01*
X183536345Y-90282382D01*
X183493251Y-90302476D01*
X183378501Y-90382826D01*
X183305700Y-90433802D01*
X183305698Y-90433803D01*
X183305695Y-90433806D01*
X183143806Y-90595695D01*
X183143803Y-90595698D01*
X183143802Y-90595700D01*
X183138877Y-90602734D01*
X183012476Y-90783252D01*
X183012475Y-90783254D01*
X182915718Y-90990750D01*
X182915714Y-90990761D01*
X182856457Y-91211910D01*
X182856456Y-91211918D01*
X182836502Y-91439998D01*
X182836502Y-91440001D01*
X182856456Y-91668081D01*
X182856457Y-91668089D01*
X182915714Y-91889238D01*
X182915718Y-91889249D01*
X183012475Y-92096745D01*
X183012477Y-92096749D01*
X183143802Y-92284300D01*
X183305700Y-92446198D01*
X183448523Y-92546204D01*
X183493251Y-92577523D01*
X183536345Y-92597618D01*
X183588784Y-92643791D01*
X183607936Y-92710984D01*
X183587720Y-92777865D01*
X183536345Y-92822382D01*
X183493251Y-92842476D01*
X183378501Y-92922826D01*
X183305700Y-92973802D01*
X183305698Y-92973803D01*
X183305695Y-92973806D01*
X183143806Y-93135695D01*
X183143803Y-93135698D01*
X183143802Y-93135700D01*
X183136959Y-93145473D01*
X183012476Y-93323252D01*
X183012475Y-93323254D01*
X182915718Y-93530750D01*
X182915714Y-93530761D01*
X182856457Y-93751910D01*
X182856456Y-93751918D01*
X182836502Y-93979998D01*
X182836502Y-93980001D01*
X182856456Y-94208081D01*
X182856457Y-94208089D01*
X182915714Y-94429238D01*
X182915718Y-94429249D01*
X183012475Y-94636745D01*
X183012477Y-94636749D01*
X183143802Y-94824300D01*
X183305700Y-94986198D01*
X183450010Y-95087245D01*
X183493251Y-95117523D01*
X183536345Y-95137618D01*
X183588784Y-95183791D01*
X183607936Y-95250984D01*
X183587720Y-95317865D01*
X183536345Y-95362382D01*
X183493251Y-95382476D01*
X183378501Y-95462826D01*
X183305700Y-95513802D01*
X183305698Y-95513803D01*
X183305695Y-95513806D01*
X183143806Y-95675695D01*
X183143803Y-95675698D01*
X183143802Y-95675700D01*
X183081037Y-95765338D01*
X183012476Y-95863252D01*
X182999093Y-95891952D01*
X182952920Y-95944390D01*
X182885726Y-95963541D01*
X182818845Y-95943324D01*
X182773512Y-95890158D01*
X182766936Y-95871635D01*
X182766257Y-95869101D01*
X182766257Y-95869096D01*
X182762572Y-95855346D01*
X182759029Y-95836221D01*
X182758023Y-95826650D01*
X182757542Y-95822072D01*
X182735882Y-95755411D01*
X182734961Y-95752301D01*
X182733347Y-95746276D01*
X182716829Y-95684630D01*
X182710367Y-95671949D01*
X182702923Y-95653975D01*
X182701281Y-95648922D01*
X182698527Y-95640444D01*
X182663478Y-95579739D01*
X182661939Y-95576902D01*
X182654734Y-95562761D01*
X182630129Y-95514470D01*
X182621168Y-95503404D01*
X182610152Y-95487374D01*
X182603041Y-95475058D01*
X182603040Y-95475056D01*
X182574976Y-95443887D01*
X182556154Y-95422982D01*
X182554048Y-95420516D01*
X182540075Y-95403262D01*
X182524373Y-95387560D01*
X182522137Y-95385204D01*
X182475253Y-95333134D01*
X182475251Y-95333132D01*
X182463739Y-95324768D01*
X182448946Y-95312133D01*
X182093493Y-94956680D01*
X182060008Y-94895357D01*
X182064992Y-94825665D01*
X182093490Y-94781322D01*
X182194952Y-94679859D01*
X182209738Y-94667231D01*
X182221253Y-94658866D01*
X182268144Y-94606786D01*
X182270346Y-94604465D01*
X182286072Y-94588741D01*
X182300074Y-94571449D01*
X182302115Y-94569058D01*
X182349040Y-94516944D01*
X182356153Y-94504623D01*
X182367173Y-94488589D01*
X182376129Y-94477530D01*
X182407959Y-94415058D01*
X182409484Y-94412251D01*
X182444527Y-94351556D01*
X182448922Y-94338026D01*
X182456365Y-94320056D01*
X182462830Y-94307370D01*
X182480970Y-94239665D01*
X182481889Y-94236566D01*
X182503541Y-94169931D01*
X182503540Y-94169931D01*
X182503542Y-94169928D01*
X182505029Y-94155769D01*
X182508573Y-94136648D01*
X182512257Y-94122903D01*
X182515925Y-94052911D01*
X182516178Y-94049698D01*
X182518500Y-94027610D01*
X182518500Y-94005404D01*
X182518585Y-94002158D01*
X182519746Y-93979998D01*
X182522252Y-93932190D01*
X182520026Y-93918140D01*
X182518500Y-93898743D01*
X182518500Y-64743500D01*
X182538185Y-64676461D01*
X182590989Y-64630706D01*
X182642500Y-64619500D01*
X184428638Y-64619500D01*
X184428654Y-64619499D01*
X184455692Y-64616591D01*
X184489201Y-64612989D01*
X184626204Y-64561889D01*
X184743261Y-64474261D01*
X184830889Y-64357204D01*
X184881989Y-64220201D01*
X184885591Y-64186692D01*
X184888499Y-64159654D01*
X184888500Y-64159637D01*
X184888500Y-63500002D01*
X189726640Y-63500002D01*
X189746063Y-63858234D01*
X189759936Y-63942856D01*
X189795478Y-64159654D01*
X189804106Y-64212279D01*
X189804107Y-64212282D01*
X189900082Y-64557955D01*
X189900083Y-64557957D01*
X190032872Y-64891233D01*
X190032881Y-64891251D01*
X190200928Y-65208220D01*
X190200929Y-65208223D01*
X190402256Y-65505157D01*
X190402264Y-65505167D01*
X190634508Y-65778586D01*
X190634516Y-65778595D01*
X190894977Y-66025317D01*
X191180586Y-66242431D01*
X191487995Y-66427393D01*
X191487997Y-66427394D01*
X191487999Y-66427395D01*
X191488003Y-66427397D01*
X191813588Y-66578028D01*
X191813599Y-66578033D01*
X192153583Y-66692587D01*
X192503958Y-66769711D01*
X192860618Y-66808500D01*
X192860624Y-66808500D01*
X193219376Y-66808500D01*
X193219382Y-66808500D01*
X193576042Y-66769711D01*
X193926417Y-66692587D01*
X194266401Y-66578033D01*
X194592005Y-66427393D01*
X194899414Y-66242431D01*
X195185023Y-66025317D01*
X195445484Y-65778595D01*
X195677742Y-65505159D01*
X195879075Y-65208215D01*
X196047123Y-64891243D01*
X196179915Y-64557961D01*
X196275895Y-64212274D01*
X196333936Y-63858237D01*
X196353359Y-63500000D01*
X196350426Y-63445913D01*
X196336939Y-63197157D01*
X196333936Y-63141763D01*
X196275895Y-62787726D01*
X196226827Y-62610999D01*
X196179917Y-62442044D01*
X196179916Y-62442042D01*
X196047127Y-62108766D01*
X196047118Y-62108748D01*
X196012156Y-62042802D01*
X195879075Y-61791785D01*
X195879071Y-61791779D01*
X195879070Y-61791776D01*
X195677743Y-61494842D01*
X195677735Y-61494832D01*
X195445491Y-61221413D01*
X195445486Y-61221407D01*
X195445484Y-61221405D01*
X195185023Y-60974683D01*
X195185016Y-60974677D01*
X195185013Y-60974675D01*
X195103338Y-60912588D01*
X194899414Y-60757569D01*
X194592005Y-60572607D01*
X194592004Y-60572606D01*
X194592000Y-60572604D01*
X194591996Y-60572602D01*
X194266411Y-60421971D01*
X194266406Y-60421969D01*
X194266401Y-60421967D01*
X194100678Y-60366128D01*
X193926416Y-60307412D01*
X193576040Y-60230288D01*
X193219383Y-60191500D01*
X193219382Y-60191500D01*
X192860618Y-60191500D01*
X192860616Y-60191500D01*
X192503959Y-60230288D01*
X192153583Y-60307412D01*
X191930501Y-60382578D01*
X191813599Y-60421967D01*
X191813596Y-60421968D01*
X191813588Y-60421971D01*
X191488003Y-60572602D01*
X191487999Y-60572604D01*
X191342562Y-60660111D01*
X191180586Y-60757569D01*
X191092060Y-60824864D01*
X190894986Y-60974675D01*
X190894977Y-60974683D01*
X190634513Y-61221407D01*
X190634508Y-61221413D01*
X190402264Y-61494832D01*
X190402256Y-61494842D01*
X190200929Y-61791776D01*
X190200928Y-61791779D01*
X190032881Y-62108748D01*
X190032872Y-62108766D01*
X189900083Y-62442042D01*
X189900082Y-62442044D01*
X189804107Y-62787717D01*
X189804106Y-62787720D01*
X189746063Y-63141765D01*
X189726640Y-63499997D01*
X189726640Y-63500002D01*
X184888500Y-63500002D01*
X184888500Y-61062362D01*
X184888499Y-61062345D01*
X184885116Y-61030882D01*
X184881989Y-61001799D01*
X184830889Y-60864796D01*
X184743261Y-60747739D01*
X184626204Y-60660111D01*
X184489203Y-60609011D01*
X184428654Y-60602500D01*
X184428638Y-60602500D01*
X181331362Y-60602500D01*
X181331345Y-60602500D01*
X181270797Y-60609011D01*
X181270795Y-60609011D01*
X181133795Y-60660111D01*
X181016739Y-60747739D01*
X180929111Y-60864795D01*
X180878011Y-61001795D01*
X180878011Y-61001797D01*
X180871500Y-61062345D01*
X180871500Y-63305440D01*
X180851815Y-63372479D01*
X180843872Y-63383469D01*
X180812053Y-63445913D01*
X180810505Y-63448765D01*
X180775471Y-63509445D01*
X180771071Y-63522988D01*
X180763630Y-63540951D01*
X180757171Y-63553628D01*
X180757169Y-63553634D01*
X180745876Y-63595777D01*
X180739031Y-63621324D01*
X180738115Y-63624416D01*
X180716457Y-63691074D01*
X180716457Y-63691077D01*
X180714970Y-63705223D01*
X180711427Y-63724344D01*
X180707742Y-63738097D01*
X180704074Y-63808073D01*
X180703820Y-63811304D01*
X180701500Y-63833392D01*
X180701500Y-63855594D01*
X180701415Y-63858839D01*
X180697748Y-63928809D01*
X180699973Y-63942856D01*
X180701500Y-63962256D01*
X180701500Y-93261885D01*
X180681815Y-93328924D01*
X180629011Y-93374679D01*
X180559853Y-93384623D01*
X180496297Y-93355598D01*
X180494530Y-93354037D01*
X180458795Y-93321862D01*
X180456457Y-93319644D01*
X180440741Y-93303928D01*
X180423476Y-93289946D01*
X180421017Y-93287846D01*
X180368947Y-93240962D01*
X180368944Y-93240960D01*
X180356610Y-93233838D01*
X180340590Y-93222827D01*
X180329533Y-93213873D01*
X180329531Y-93213872D01*
X180329530Y-93213871D01*
X180267087Y-93182055D01*
X180264262Y-93180521D01*
X180203556Y-93145473D01*
X180203557Y-93145473D01*
X180203553Y-93145471D01*
X180203550Y-93145470D01*
X180190018Y-93141073D01*
X180172051Y-93133631D01*
X180159373Y-93127171D01*
X180126200Y-93118282D01*
X180091663Y-93109028D01*
X180088604Y-93108121D01*
X180055540Y-93097378D01*
X180021927Y-93086457D01*
X180007767Y-93084969D01*
X179988644Y-93081424D01*
X179982579Y-93079799D01*
X179974901Y-93077742D01*
X179904925Y-93074074D01*
X179901693Y-93073820D01*
X179896776Y-93073303D01*
X179879610Y-93071500D01*
X179879603Y-93071500D01*
X179857404Y-93071500D01*
X179854160Y-93071415D01*
X179784190Y-93067748D01*
X179784189Y-93067748D01*
X179784188Y-93067748D01*
X179770142Y-93069973D01*
X179750743Y-93071500D01*
X177523360Y-93071500D01*
X177456321Y-93051815D01*
X177435679Y-93035181D01*
X177374304Y-92973806D01*
X177374300Y-92973802D01*
X177186749Y-92842477D01*
X177178889Y-92838812D01*
X177143655Y-92822382D01*
X177091215Y-92776210D01*
X177072063Y-92709017D01*
X177092278Y-92642136D01*
X177143655Y-92597618D01*
X177146882Y-92596112D01*
X177186749Y-92577523D01*
X177374300Y-92446198D01*
X177536198Y-92284300D01*
X177667523Y-92096749D01*
X177764284Y-91889243D01*
X177823543Y-91668087D01*
X177843498Y-91440000D01*
X177823543Y-91211913D01*
X177764284Y-90990757D01*
X177667523Y-90783251D01*
X177536198Y-90595700D01*
X177374300Y-90433802D01*
X177186749Y-90302477D01*
X177178889Y-90298812D01*
X177143655Y-90282382D01*
X177091215Y-90236210D01*
X177072063Y-90169017D01*
X177092278Y-90102136D01*
X177143655Y-90057618D01*
X177146882Y-90056112D01*
X177186749Y-90037523D01*
X177374300Y-89906198D01*
X177536198Y-89744300D01*
X177667523Y-89556749D01*
X177764284Y-89349243D01*
X177823543Y-89128087D01*
X177843498Y-88900000D01*
X177823543Y-88671913D01*
X177764284Y-88450757D01*
X177667523Y-88243251D01*
X177536198Y-88055700D01*
X177374300Y-87893802D01*
X177186749Y-87762477D01*
X177178889Y-87758812D01*
X177143655Y-87742382D01*
X177091215Y-87696210D01*
X177072063Y-87629017D01*
X177092278Y-87562136D01*
X177143655Y-87517618D01*
X177146882Y-87516112D01*
X177186749Y-87497523D01*
X177374300Y-87366198D01*
X177536198Y-87204300D01*
X177667523Y-87016749D01*
X177764284Y-86809243D01*
X177823543Y-86588087D01*
X177843498Y-86360000D01*
X177823543Y-86131913D01*
X177764284Y-85910757D01*
X177667523Y-85703251D01*
X177536198Y-85515700D01*
X177374300Y-85353802D01*
X177186749Y-85222477D01*
X177178889Y-85218812D01*
X177143655Y-85202382D01*
X177091215Y-85156210D01*
X177072063Y-85089017D01*
X177092278Y-85022136D01*
X177143655Y-84977618D01*
X177146882Y-84976112D01*
X177186749Y-84957523D01*
X177374300Y-84826198D01*
X177536198Y-84664300D01*
X177667523Y-84476749D01*
X177764284Y-84269243D01*
X177823543Y-84048087D01*
X177843498Y-83820000D01*
X177823543Y-83591913D01*
X177764284Y-83370757D01*
X177667523Y-83163251D01*
X177536198Y-82975700D01*
X177374300Y-82813802D01*
X177186749Y-82682477D01*
X177178889Y-82678812D01*
X177143655Y-82662382D01*
X177091215Y-82616210D01*
X177072063Y-82549017D01*
X177092278Y-82482136D01*
X177143655Y-82437618D01*
X177146882Y-82436112D01*
X177186749Y-82417523D01*
X177374300Y-82286198D01*
X177536198Y-82124300D01*
X177667523Y-81936749D01*
X177764284Y-81729243D01*
X177823543Y-81508087D01*
X177843498Y-81280000D01*
X177823543Y-81051913D01*
X177764284Y-80830757D01*
X177667523Y-80623251D01*
X177536198Y-80435700D01*
X177374300Y-80273802D01*
X177186749Y-80142477D01*
X177178889Y-80138812D01*
X177143655Y-80122382D01*
X177091215Y-80076210D01*
X177072063Y-80009017D01*
X177092278Y-79942136D01*
X177143655Y-79897618D01*
X177158977Y-79890473D01*
X177186749Y-79877523D01*
X177374300Y-79746198D01*
X177536198Y-79584300D01*
X177667523Y-79396749D01*
X177764284Y-79189243D01*
X177823543Y-78968087D01*
X177843498Y-78740000D01*
X177823543Y-78511913D01*
X177764284Y-78290757D01*
X177747603Y-78254985D01*
X177707003Y-78167916D01*
X177667523Y-78083251D01*
X177536198Y-77895700D01*
X177374300Y-77733802D01*
X177186749Y-77602477D01*
X177186743Y-77602474D01*
X177143653Y-77582380D01*
X177091214Y-77536207D01*
X177072063Y-77469014D01*
X177092280Y-77402133D01*
X177143654Y-77357618D01*
X177186749Y-77337523D01*
X177374300Y-77206198D01*
X177536198Y-77044300D01*
X177667523Y-76856749D01*
X177764284Y-76649243D01*
X177823543Y-76428087D01*
X177843498Y-76200000D01*
X177823543Y-75971913D01*
X177764284Y-75750757D01*
X177667523Y-75543251D01*
X177536198Y-75355700D01*
X177374300Y-75193802D01*
X177366627Y-75188429D01*
X177323006Y-75133853D01*
X177315814Y-75064355D01*
X177347338Y-75002001D01*
X177407568Y-74966588D01*
X177424489Y-74963570D01*
X177439201Y-74961989D01*
X177576204Y-74910889D01*
X177693261Y-74823261D01*
X177780889Y-74706204D01*
X177831989Y-74569201D01*
X177836088Y-74531078D01*
X177838499Y-74508654D01*
X177838500Y-74508637D01*
X177838500Y-72811362D01*
X177838499Y-72811345D01*
X177835157Y-72780270D01*
X177831989Y-72750799D01*
X177780889Y-72613796D01*
X177693261Y-72496739D01*
X177576204Y-72409111D01*
X177547428Y-72398378D01*
X177439203Y-72358011D01*
X177378654Y-72351500D01*
X177378638Y-72351500D01*
X175681362Y-72351500D01*
X175681345Y-72351500D01*
X175620797Y-72358011D01*
X175620795Y-72358011D01*
X175483795Y-72409111D01*
X175366739Y-72496739D01*
X175279111Y-72613795D01*
X175228011Y-72750795D01*
X175228011Y-72750797D01*
X175221500Y-72811345D01*
X175221500Y-74508654D01*
X175228011Y-74569202D01*
X175228011Y-74569204D01*
X175264189Y-74666198D01*
X175279111Y-74706204D01*
X175366739Y-74823261D01*
X175483796Y-74910889D01*
X175557507Y-74938382D01*
X175620793Y-74961987D01*
X175620799Y-74961989D01*
X175635499Y-74963569D01*
X175700048Y-74990305D01*
X175739897Y-75047696D01*
X175742393Y-75117521D01*
X175706742Y-75177611D01*
X175693377Y-75188425D01*
X175693371Y-75188431D01*
X175685696Y-75193805D01*
X175523806Y-75355695D01*
X175523803Y-75355698D01*
X175523802Y-75355700D01*
X175518877Y-75362734D01*
X175392476Y-75543252D01*
X175392475Y-75543254D01*
X175295718Y-75750750D01*
X175295714Y-75750761D01*
X175236457Y-75971910D01*
X175236456Y-75971918D01*
X175216502Y-76199998D01*
X175216502Y-76200001D01*
X175236456Y-76428081D01*
X175236457Y-76428089D01*
X175295714Y-76649238D01*
X175295718Y-76649249D01*
X175392475Y-76856745D01*
X175392477Y-76856749D01*
X175523802Y-77044300D01*
X175685700Y-77206198D01*
X175873250Y-77337522D01*
X175873251Y-77337523D01*
X175916345Y-77357618D01*
X175968784Y-77403791D01*
X175987936Y-77470984D01*
X175967720Y-77537865D01*
X175916345Y-77582382D01*
X175873251Y-77602476D01*
X175748126Y-77690090D01*
X175685700Y-77733802D01*
X175685698Y-77733803D01*
X175685695Y-77733806D01*
X175523806Y-77895695D01*
X175523803Y-77895698D01*
X175523802Y-77895700D01*
X175518877Y-77902734D01*
X175392476Y-78083252D01*
X175392475Y-78083254D01*
X175295718Y-78290750D01*
X175295714Y-78290761D01*
X175236457Y-78511910D01*
X175236456Y-78511918D01*
X175216502Y-78739998D01*
X175216502Y-78740001D01*
X175236456Y-78968081D01*
X175236457Y-78968089D01*
X175295714Y-79189238D01*
X175295718Y-79189249D01*
X175392237Y-79396234D01*
X175392477Y-79396749D01*
X175523802Y-79584300D01*
X175685700Y-79746198D01*
X175856036Y-79865469D01*
X175873251Y-79877523D01*
X175916345Y-79897618D01*
X175968784Y-79943791D01*
X175987936Y-80010984D01*
X175967720Y-80077865D01*
X175916345Y-80122382D01*
X175873251Y-80142476D01*
X175757180Y-80223751D01*
X175685700Y-80273802D01*
X175685698Y-80273803D01*
X175685695Y-80273806D01*
X175523806Y-80435695D01*
X175523803Y-80435698D01*
X175523802Y-80435700D01*
X175465739Y-80518623D01*
X175392476Y-80623252D01*
X175392475Y-80623254D01*
X175295718Y-80830750D01*
X175295714Y-80830761D01*
X175236457Y-81051910D01*
X175236456Y-81051918D01*
X175216502Y-81279998D01*
X175216502Y-81280001D01*
X175236456Y-81508081D01*
X175236457Y-81508089D01*
X175295714Y-81729238D01*
X175295718Y-81729249D01*
X175392475Y-81936745D01*
X175392477Y-81936749D01*
X175523802Y-82124300D01*
X175685700Y-82286198D01*
X175829420Y-82386832D01*
X175873251Y-82417523D01*
X175916345Y-82437618D01*
X175968784Y-82483791D01*
X175987936Y-82550984D01*
X175967720Y-82617865D01*
X175916345Y-82662382D01*
X175873251Y-82682476D01*
X175748126Y-82770090D01*
X175685700Y-82813802D01*
X175685698Y-82813803D01*
X175685695Y-82813806D01*
X175523806Y-82975695D01*
X175523803Y-82975698D01*
X175523802Y-82975700D01*
X175465739Y-83058623D01*
X175392476Y-83163252D01*
X175392475Y-83163254D01*
X175295718Y-83370750D01*
X175295714Y-83370761D01*
X175236457Y-83591910D01*
X175236456Y-83591918D01*
X175216502Y-83819998D01*
X175216502Y-83820001D01*
X175236456Y-84048081D01*
X175236457Y-84048089D01*
X175295714Y-84269238D01*
X175295718Y-84269249D01*
X175392475Y-84476745D01*
X175392477Y-84476749D01*
X175523802Y-84664300D01*
X175685700Y-84826198D01*
X175873251Y-84957522D01*
X175873251Y-84957523D01*
X175916345Y-84977618D01*
X175968784Y-85023791D01*
X175987936Y-85090984D01*
X175967720Y-85157865D01*
X175916345Y-85202382D01*
X175873251Y-85222476D01*
X175748126Y-85310090D01*
X175685700Y-85353802D01*
X175685698Y-85353803D01*
X175685695Y-85353806D01*
X175523806Y-85515695D01*
X175523803Y-85515698D01*
X175523802Y-85515700D01*
X175518877Y-85522734D01*
X175392476Y-85703252D01*
X175392475Y-85703254D01*
X175295718Y-85910750D01*
X175295714Y-85910761D01*
X175236457Y-86131910D01*
X175236456Y-86131918D01*
X175216502Y-86359998D01*
X175216502Y-86360001D01*
X175236456Y-86588081D01*
X175236457Y-86588089D01*
X175295714Y-86809238D01*
X175295718Y-86809249D01*
X175392475Y-87016745D01*
X175392477Y-87016749D01*
X175523802Y-87204300D01*
X175685700Y-87366198D01*
X175873250Y-87497522D01*
X175873251Y-87497523D01*
X175916345Y-87517618D01*
X175968784Y-87563791D01*
X175987936Y-87630984D01*
X175967720Y-87697865D01*
X175916345Y-87742382D01*
X175873251Y-87762476D01*
X175748126Y-87850090D01*
X175685700Y-87893802D01*
X175685698Y-87893803D01*
X175685695Y-87893806D01*
X175523806Y-88055695D01*
X175523803Y-88055698D01*
X175523802Y-88055700D01*
X175518877Y-88062734D01*
X175392476Y-88243252D01*
X175392475Y-88243254D01*
X175295718Y-88450750D01*
X175295714Y-88450761D01*
X175236457Y-88671910D01*
X175236456Y-88671918D01*
X175216502Y-88899998D01*
X175216502Y-88900001D01*
X175236456Y-89128081D01*
X175236457Y-89128089D01*
X175295714Y-89349238D01*
X175295718Y-89349249D01*
X175392475Y-89556745D01*
X175392477Y-89556749D01*
X175523802Y-89744300D01*
X175685700Y-89906198D01*
X175873251Y-90037522D01*
X175873251Y-90037523D01*
X175916345Y-90057618D01*
X175968784Y-90103791D01*
X175987936Y-90170984D01*
X175967720Y-90237865D01*
X175916345Y-90282382D01*
X175873251Y-90302476D01*
X175758501Y-90382826D01*
X175685700Y-90433802D01*
X175685698Y-90433803D01*
X175685695Y-90433806D01*
X175523806Y-90595695D01*
X175523803Y-90595698D01*
X175523802Y-90595700D01*
X175518877Y-90602734D01*
X175392476Y-90783252D01*
X175392475Y-90783254D01*
X175295718Y-90990750D01*
X175295714Y-90990761D01*
X175236457Y-91211910D01*
X175236456Y-91211918D01*
X175216502Y-91439998D01*
X175216502Y-91440001D01*
X175236456Y-91668081D01*
X175236457Y-91668089D01*
X175295714Y-91889238D01*
X175295718Y-91889249D01*
X175392475Y-92096745D01*
X175392477Y-92096749D01*
X175523802Y-92284300D01*
X175685700Y-92446198D01*
X175828523Y-92546204D01*
X175873251Y-92577523D01*
X175916345Y-92597618D01*
X175968784Y-92643791D01*
X175987936Y-92710984D01*
X175967720Y-92777865D01*
X175916345Y-92822382D01*
X175873251Y-92842476D01*
X175758501Y-92922826D01*
X175685700Y-92973802D01*
X175685698Y-92973803D01*
X175685695Y-92973806D01*
X175523806Y-93135695D01*
X175523803Y-93135698D01*
X175523802Y-93135700D01*
X175516959Y-93145473D01*
X175392476Y-93323252D01*
X175392475Y-93323254D01*
X175295718Y-93530750D01*
X175295714Y-93530761D01*
X175236457Y-93751910D01*
X175236456Y-93751918D01*
X175216502Y-93979998D01*
X175216502Y-93980001D01*
X175236456Y-94208081D01*
X175236457Y-94208089D01*
X175295714Y-94429238D01*
X175295718Y-94429249D01*
X175392475Y-94636745D01*
X175392477Y-94636749D01*
X175523802Y-94824300D01*
X175685700Y-94986198D01*
X175830010Y-95087245D01*
X175873251Y-95117523D01*
X175926401Y-95142307D01*
X175978840Y-95188479D01*
X175997992Y-95255673D01*
X175977776Y-95322554D01*
X175926401Y-95367071D01*
X175877517Y-95389865D01*
X175691179Y-95520342D01*
X175530342Y-95681179D01*
X175399865Y-95867517D01*
X175303734Y-96073673D01*
X175303730Y-96073682D01*
X175251127Y-96269999D01*
X175251128Y-96270000D01*
X176214314Y-96270000D01*
X176202359Y-96281955D01*
X176144835Y-96394852D01*
X176125014Y-96520000D01*
X176144835Y-96645148D01*
X176202359Y-96758045D01*
X176214314Y-96770000D01*
X175251128Y-96770000D01*
X175303730Y-96966317D01*
X175303734Y-96966326D01*
X175399865Y-97172482D01*
X175530342Y-97358820D01*
X175691179Y-97519657D01*
X175877517Y-97650133D01*
X175926399Y-97672927D01*
X175978839Y-97719099D01*
X175997992Y-97786292D01*
X175977777Y-97853174D01*
X175926402Y-97897691D01*
X175873256Y-97922474D01*
X175873252Y-97922476D01*
X175822510Y-97958006D01*
X175685700Y-98053802D01*
X175685698Y-98053803D01*
X175685695Y-98053806D01*
X175523803Y-98215698D01*
X175465739Y-98298623D01*
X175411163Y-98342248D01*
X175364164Y-98351500D01*
X174013279Y-98351500D01*
X174009535Y-98351387D01*
X173946909Y-98347599D01*
X173946904Y-98347599D01*
X173885198Y-98358907D01*
X173881496Y-98359470D01*
X173819202Y-98367034D01*
X173819199Y-98367035D01*
X173809483Y-98370719D01*
X173787885Y-98376739D01*
X173777672Y-98378611D01*
X173777668Y-98378612D01*
X173720450Y-98404364D01*
X173717015Y-98405786D01*
X173666300Y-98425021D01*
X173658322Y-98428047D01*
X173649773Y-98433948D01*
X173630239Y-98444965D01*
X173620777Y-98449224D01*
X173620771Y-98449227D01*
X173571389Y-98487915D01*
X173568375Y-98490132D01*
X173516727Y-98525784D01*
X173475123Y-98572744D01*
X173472556Y-98575471D01*
X171192849Y-100855181D01*
X171131526Y-100888666D01*
X171105168Y-100891500D01*
X169275345Y-100891500D01*
X169208306Y-100871815D01*
X169167958Y-100829500D01*
X169129409Y-100762732D01*
X169055587Y-100634869D01*
X168895931Y-100434666D01*
X168895930Y-100434665D01*
X168895927Y-100434661D01*
X168744635Y-100294284D01*
X168708219Y-100260495D01*
X168661181Y-100228425D01*
X168496649Y-100116248D01*
X168496638Y-100116241D01*
X168265940Y-100005144D01*
X168265921Y-100005137D01*
X168147116Y-99968491D01*
X168088857Y-99929921D01*
X168060699Y-99865977D01*
X168071581Y-99796960D01*
X168118050Y-99744783D01*
X168147116Y-99731509D01*
X168236255Y-99704013D01*
X168265935Y-99694858D01*
X168474921Y-99594216D01*
X168496638Y-99583758D01*
X168496638Y-99583757D01*
X168496646Y-99583754D01*
X168708219Y-99439505D01*
X168875417Y-99284368D01*
X168895927Y-99265338D01*
X168895927Y-99265336D01*
X168895931Y-99265334D01*
X169055587Y-99065131D01*
X169183622Y-98843369D01*
X169277174Y-98605001D01*
X169334155Y-98355353D01*
X169334155Y-98355345D01*
X169334157Y-98355339D01*
X169353291Y-98100004D01*
X169353291Y-98099995D01*
X169334156Y-97844656D01*
X169334155Y-97844651D01*
X169334155Y-97844647D01*
X169277174Y-97594999D01*
X169183622Y-97356631D01*
X169055587Y-97134869D01*
X168895931Y-96934666D01*
X168895930Y-96934665D01*
X168895927Y-96934661D01*
X168774988Y-96822448D01*
X168708219Y-96760495D01*
X168684565Y-96744368D01*
X168496649Y-96616248D01*
X168496638Y-96616241D01*
X168265940Y-96505144D01*
X168265921Y-96505137D01*
X168147116Y-96468491D01*
X168088857Y-96429921D01*
X168060699Y-96365977D01*
X168071581Y-96296960D01*
X168118050Y-96244783D01*
X168147116Y-96231509D01*
X168215268Y-96210486D01*
X168265935Y-96194858D01*
X168496646Y-96083754D01*
X168708219Y-95939505D01*
X168878835Y-95781197D01*
X168895927Y-95765338D01*
X168895927Y-95765336D01*
X168895931Y-95765334D01*
X169055587Y-95565131D01*
X169161043Y-95382477D01*
X169167958Y-95370500D01*
X169218525Y-95322284D01*
X169275345Y-95308500D01*
X169790710Y-95308500D01*
X169794455Y-95308613D01*
X169798612Y-95308864D01*
X169857093Y-95312402D01*
X169918818Y-95301090D01*
X169922514Y-95300527D01*
X169984801Y-95292965D01*
X169994499Y-95289286D01*
X170016116Y-95283260D01*
X170026329Y-95281389D01*
X170083577Y-95255622D01*
X170086978Y-95254213D01*
X170145675Y-95231954D01*
X170154213Y-95226060D01*
X170173764Y-95215033D01*
X170183226Y-95210775D01*
X170232640Y-95172060D01*
X170235615Y-95169870D01*
X170287273Y-95134215D01*
X170328915Y-95087209D01*
X170331434Y-95084534D01*
X170918542Y-94497427D01*
X170921217Y-94494908D01*
X170968215Y-94453273D01*
X171003878Y-94401604D01*
X171006057Y-94398643D01*
X171044775Y-94349226D01*
X171049033Y-94339764D01*
X171060060Y-94320213D01*
X171065954Y-94311675D01*
X171088207Y-94252996D01*
X171089627Y-94249566D01*
X171115388Y-94192330D01*
X171117258Y-94182123D01*
X171123285Y-94160502D01*
X171126965Y-94150801D01*
X171134527Y-94088511D01*
X171135091Y-94084808D01*
X171137948Y-94069215D01*
X171146401Y-94023093D01*
X171142610Y-93960432D01*
X171142500Y-93956754D01*
X171142500Y-79779294D01*
X171142613Y-79775551D01*
X171146402Y-79712908D01*
X171135091Y-79651184D01*
X171134527Y-79647480D01*
X171133458Y-79638675D01*
X171126965Y-79585199D01*
X171126624Y-79584301D01*
X171123287Y-79575501D01*
X171117260Y-79553881D01*
X171115389Y-79543671D01*
X171115387Y-79543667D01*
X171089634Y-79486447D01*
X171088200Y-79482984D01*
X171065954Y-79424325D01*
X171060058Y-79415783D01*
X171049035Y-79396239D01*
X171044775Y-79386774D01*
X171006067Y-79337368D01*
X171003867Y-79334377D01*
X170968215Y-79282727D01*
X170968210Y-79282722D01*
X170921245Y-79241115D01*
X170918533Y-79238563D01*
X169935434Y-78255464D01*
X169932900Y-78252772D01*
X169891273Y-78205785D01*
X169891272Y-78205784D01*
X169891271Y-78205783D01*
X169839628Y-78170136D01*
X169836611Y-78167916D01*
X169787227Y-78129225D01*
X169781235Y-78126528D01*
X169777760Y-78124964D01*
X169758216Y-78113941D01*
X169753210Y-78110486D01*
X169749677Y-78108047D01*
X169749672Y-78108044D01*
X169691015Y-78085798D01*
X169687555Y-78084365D01*
X169630331Y-78058611D01*
X169630332Y-78058611D01*
X169620110Y-78056738D01*
X169598510Y-78050716D01*
X169588801Y-78047035D01*
X169588797Y-78047034D01*
X169588796Y-78047034D01*
X169526511Y-78039470D01*
X169522810Y-78038907D01*
X169461096Y-78027598D01*
X169461090Y-78027598D01*
X169398455Y-78031387D01*
X169394710Y-78031500D01*
X169275345Y-78031500D01*
X169208306Y-78011815D01*
X169167958Y-77969500D01*
X169129409Y-77902732D01*
X169055587Y-77774869D01*
X168895931Y-77574666D01*
X168895930Y-77574665D01*
X168895927Y-77574661D01*
X168758877Y-77447499D01*
X168708219Y-77400495D01*
X168661181Y-77368425D01*
X168496649Y-77256248D01*
X168496638Y-77256241D01*
X168347082Y-77184220D01*
X168295222Y-77137398D01*
X168276909Y-77069971D01*
X168297957Y-77003347D01*
X168351683Y-76958679D01*
X168400883Y-76948500D01*
X168888638Y-76948500D01*
X168888654Y-76948499D01*
X168915692Y-76945591D01*
X168949201Y-76941989D01*
X169086204Y-76890889D01*
X169203261Y-76803261D01*
X169290889Y-76686204D01*
X169341989Y-76549201D01*
X169345591Y-76515692D01*
X169348499Y-76488654D01*
X169348500Y-76488637D01*
X169348500Y-73991362D01*
X169348499Y-73991345D01*
X169345157Y-73960270D01*
X169341989Y-73930799D01*
X169334231Y-73910000D01*
X169312103Y-73850673D01*
X169290889Y-73793796D01*
X169203261Y-73676739D01*
X169086204Y-73589111D01*
X169083523Y-73588111D01*
X168949203Y-73538011D01*
X168888654Y-73531500D01*
X168888638Y-73531500D01*
X166391362Y-73531500D01*
X166391345Y-73531500D01*
X166330797Y-73538011D01*
X166330795Y-73538011D01*
X166193795Y-73589111D01*
X166076739Y-73676739D01*
X165989111Y-73793795D01*
X165938011Y-73930795D01*
X165938011Y-73930797D01*
X165931500Y-73991345D01*
X165931500Y-76488654D01*
X165938011Y-76549202D01*
X165938011Y-76549204D01*
X165980640Y-76663492D01*
X165989111Y-76686204D01*
X166076739Y-76803261D01*
X166193796Y-76890889D01*
X166330799Y-76941989D01*
X166357123Y-76944819D01*
X166391345Y-76948499D01*
X166391362Y-76948500D01*
X166879117Y-76948500D01*
X166946156Y-76968185D01*
X166991911Y-77020989D01*
X167001855Y-77090147D01*
X166972830Y-77153703D01*
X166932918Y-77184220D01*
X166783363Y-77256241D01*
X166783361Y-77256242D01*
X166571780Y-77400495D01*
X166384072Y-77574661D01*
X166224413Y-77774869D01*
X166096378Y-77996630D01*
X166002828Y-78234993D01*
X166002822Y-78235012D01*
X165945844Y-78484651D01*
X165945843Y-78484656D01*
X165926709Y-78739995D01*
X165926709Y-78740004D01*
X165945843Y-78995343D01*
X165945844Y-78995348D01*
X166002822Y-79244987D01*
X166002824Y-79244996D01*
X166002826Y-79245001D01*
X166096378Y-79483369D01*
X166224413Y-79705131D01*
X166257159Y-79746193D01*
X166384072Y-79905338D01*
X166528336Y-80039194D01*
X166571781Y-80079505D01*
X166783355Y-80223754D01*
X166783360Y-80223756D01*
X166783361Y-80223757D01*
X166783362Y-80223758D01*
X166894117Y-80277094D01*
X167014061Y-80334856D01*
X167014062Y-80334856D01*
X167014065Y-80334858D01*
X167108210Y-80363897D01*
X167132885Y-80371509D01*
X167191144Y-80410080D01*
X167219302Y-80474024D01*
X167208418Y-80543041D01*
X167161949Y-80595218D01*
X167132885Y-80608491D01*
X167014061Y-80645143D01*
X166783362Y-80756241D01*
X166783361Y-80756242D01*
X166571780Y-80900495D01*
X166384072Y-81074661D01*
X166224413Y-81274869D01*
X166096378Y-81496630D01*
X166002828Y-81734993D01*
X166002822Y-81735012D01*
X165945844Y-81984651D01*
X165945843Y-81984656D01*
X165926709Y-82239995D01*
X165926709Y-82240004D01*
X165945843Y-82495343D01*
X165945844Y-82495348D01*
X166002822Y-82744987D01*
X166002824Y-82744996D01*
X166002826Y-82745001D01*
X166096378Y-82983369D01*
X166224413Y-83205131D01*
X166328235Y-83335320D01*
X166384072Y-83405338D01*
X166474457Y-83489202D01*
X166571781Y-83579505D01*
X166783355Y-83723754D01*
X166783360Y-83723756D01*
X166783361Y-83723757D01*
X166783362Y-83723758D01*
X166905890Y-83782764D01*
X167014061Y-83834856D01*
X167014062Y-83834856D01*
X167014065Y-83834858D01*
X167258757Y-83910335D01*
X167258758Y-83910335D01*
X167258761Y-83910336D01*
X167511958Y-83948499D01*
X167511963Y-83948499D01*
X167511966Y-83948500D01*
X167511967Y-83948500D01*
X167768033Y-83948500D01*
X167768034Y-83948500D01*
X167768041Y-83948499D01*
X168021238Y-83910336D01*
X168021239Y-83910335D01*
X168021243Y-83910335D01*
X168265935Y-83834858D01*
X168496646Y-83723754D01*
X168708219Y-83579505D01*
X168874777Y-83424962D01*
X168895927Y-83405338D01*
X168895927Y-83405336D01*
X168895931Y-83405334D01*
X169055587Y-83205131D01*
X169183622Y-82983369D01*
X169277174Y-82745001D01*
X169334155Y-82495353D01*
X169334544Y-82490165D01*
X169353291Y-82240004D01*
X169353291Y-82239995D01*
X169334156Y-81984656D01*
X169334155Y-81984651D01*
X169334155Y-81984647D01*
X169277174Y-81734999D01*
X169183622Y-81496631D01*
X169055587Y-81274869D01*
X168895931Y-81074666D01*
X168895930Y-81074665D01*
X168895927Y-81074661D01*
X168760713Y-80949202D01*
X168708219Y-80900495D01*
X168531486Y-80780000D01*
X168496649Y-80756248D01*
X168496638Y-80756241D01*
X168265940Y-80645144D01*
X168265921Y-80645137D01*
X168147116Y-80608491D01*
X168088857Y-80569921D01*
X168060699Y-80505977D01*
X168071581Y-80436960D01*
X168118050Y-80384783D01*
X168147116Y-80371509D01*
X168215268Y-80350486D01*
X168265935Y-80334858D01*
X168496646Y-80223754D01*
X168708219Y-80079505D01*
X168895931Y-79905334D01*
X169055587Y-79705131D01*
X169093956Y-79638672D01*
X169144521Y-79590459D01*
X169213128Y-79577235D01*
X169277993Y-79603203D01*
X169289023Y-79612993D01*
X169689181Y-80013151D01*
X169722666Y-80074474D01*
X169725500Y-80100832D01*
X169725500Y-93635167D01*
X169705815Y-93702206D01*
X169689185Y-93722843D01*
X169556847Y-93855182D01*
X169495527Y-93888666D01*
X169469168Y-93891500D01*
X169275345Y-93891500D01*
X169208306Y-93871815D01*
X169167958Y-93829500D01*
X169125310Y-93755632D01*
X169055587Y-93634869D01*
X168895931Y-93434666D01*
X168895930Y-93434665D01*
X168895927Y-93434661D01*
X168755032Y-93303931D01*
X168708219Y-93260495D01*
X168669132Y-93233846D01*
X168496649Y-93116248D01*
X168496638Y-93116241D01*
X168347082Y-93044220D01*
X168295222Y-92997398D01*
X168276909Y-92929971D01*
X168297957Y-92863347D01*
X168351683Y-92818679D01*
X168400883Y-92808500D01*
X168888638Y-92808500D01*
X168888654Y-92808499D01*
X168915692Y-92805591D01*
X168949201Y-92801989D01*
X169086204Y-92750889D01*
X169203261Y-92663261D01*
X169290889Y-92546204D01*
X169341989Y-92409201D01*
X169345591Y-92375692D01*
X169348499Y-92348654D01*
X169348500Y-92348637D01*
X169348500Y-89851362D01*
X169348499Y-89851345D01*
X169345157Y-89820270D01*
X169341989Y-89790799D01*
X169334633Y-89771078D01*
X169319522Y-89730564D01*
X169290889Y-89653796D01*
X169203261Y-89536739D01*
X169086204Y-89449111D01*
X169086203Y-89449110D01*
X168949203Y-89398011D01*
X168888654Y-89391500D01*
X168888638Y-89391500D01*
X166391362Y-89391500D01*
X166391345Y-89391500D01*
X166330797Y-89398011D01*
X166330795Y-89398011D01*
X166193795Y-89449111D01*
X166076739Y-89536739D01*
X165989111Y-89653795D01*
X165938011Y-89790795D01*
X165938011Y-89790797D01*
X165931500Y-89851345D01*
X165931500Y-92348654D01*
X165938011Y-92409202D01*
X165938011Y-92409204D01*
X165963711Y-92478105D01*
X165989111Y-92546204D01*
X166076739Y-92663261D01*
X166193796Y-92750889D01*
X166330799Y-92801989D01*
X166358050Y-92804918D01*
X166391345Y-92808499D01*
X166391362Y-92808500D01*
X166879117Y-92808500D01*
X166946156Y-92828185D01*
X166991911Y-92880989D01*
X167001855Y-92950147D01*
X166972830Y-93013703D01*
X166932918Y-93044220D01*
X166783363Y-93116241D01*
X166783361Y-93116242D01*
X166571780Y-93260495D01*
X166384072Y-93434661D01*
X166224413Y-93634869D01*
X166096378Y-93856630D01*
X166002828Y-94094993D01*
X166002822Y-94095012D01*
X165945844Y-94344651D01*
X165945843Y-94344656D01*
X165926709Y-94599995D01*
X165926709Y-94600004D01*
X165945843Y-94855343D01*
X165945844Y-94855348D01*
X165945844Y-94855352D01*
X165945845Y-94855353D01*
X165954352Y-94892624D01*
X166002822Y-95104987D01*
X166002824Y-95104996D01*
X166002826Y-95105001D01*
X166096378Y-95343369D01*
X166224413Y-95565131D01*
X166318197Y-95682733D01*
X166384072Y-95765338D01*
X166518597Y-95890158D01*
X166571781Y-95939505D01*
X166783355Y-96083754D01*
X166783360Y-96083756D01*
X166783361Y-96083757D01*
X166783362Y-96083758D01*
X166889426Y-96134835D01*
X167014061Y-96194856D01*
X167014062Y-96194856D01*
X167014065Y-96194858D01*
X167108210Y-96223897D01*
X167132885Y-96231509D01*
X167191144Y-96270080D01*
X167219302Y-96334024D01*
X167208418Y-96403041D01*
X167161949Y-96455218D01*
X167132885Y-96468491D01*
X167014061Y-96505143D01*
X166783362Y-96616241D01*
X166783361Y-96616242D01*
X166571780Y-96760495D01*
X166384072Y-96934661D01*
X166224413Y-97134869D01*
X166096379Y-97356629D01*
X166096378Y-97356629D01*
X166002828Y-97594993D01*
X166002822Y-97595012D01*
X165945844Y-97844651D01*
X165945843Y-97844656D01*
X165926709Y-98099995D01*
X165926709Y-98100004D01*
X165945843Y-98355339D01*
X165945844Y-98355348D01*
X165945844Y-98355352D01*
X165945845Y-98355353D01*
X165948511Y-98367034D01*
X166002822Y-98604987D01*
X166002824Y-98604996D01*
X166002826Y-98605001D01*
X166096378Y-98843369D01*
X166224413Y-99065131D01*
X166277651Y-99131889D01*
X166384072Y-99265338D01*
X166489508Y-99363167D01*
X166571781Y-99439505D01*
X166783355Y-99583754D01*
X166783360Y-99583756D01*
X166783361Y-99583757D01*
X166783362Y-99583758D01*
X166879089Y-99629857D01*
X167014061Y-99694856D01*
X167014062Y-99694856D01*
X167014065Y-99694858D01*
X167096783Y-99720373D01*
X167132885Y-99731509D01*
X167191144Y-99770080D01*
X167219302Y-99834024D01*
X167208418Y-99903041D01*
X167161949Y-99955218D01*
X167132885Y-99968491D01*
X167014061Y-100005143D01*
X166783362Y-100116241D01*
X166783361Y-100116242D01*
X166571780Y-100260495D01*
X166384072Y-100434661D01*
X166224413Y-100634869D01*
X166096378Y-100856630D01*
X166002828Y-101094993D01*
X166002822Y-101095012D01*
X165945844Y-101344651D01*
X165945843Y-101344656D01*
X165926709Y-101599995D01*
X165926709Y-101600004D01*
X165945843Y-101855343D01*
X165945844Y-101855348D01*
X166002822Y-102104987D01*
X166002824Y-102104996D01*
X166002826Y-102105001D01*
X166096378Y-102343369D01*
X166224413Y-102565131D01*
X166257159Y-102606193D01*
X166384072Y-102765338D01*
X166535365Y-102905716D01*
X166571781Y-102939505D01*
X166783355Y-103083754D01*
X166783360Y-103083756D01*
X166783361Y-103083757D01*
X166783362Y-103083758D01*
X166894117Y-103137094D01*
X167014061Y-103194856D01*
X167014062Y-103194856D01*
X167014065Y-103194858D01*
X167100680Y-103221575D01*
X167132885Y-103231509D01*
X167191144Y-103270080D01*
X167219302Y-103334024D01*
X167208418Y-103403041D01*
X167161949Y-103455218D01*
X167132885Y-103468491D01*
X167014061Y-103505143D01*
X166783362Y-103616241D01*
X166783361Y-103616242D01*
X166571780Y-103760495D01*
X166384072Y-103934661D01*
X166224413Y-104134869D01*
X166096378Y-104356630D01*
X166002828Y-104594993D01*
X166002822Y-104595012D01*
X165945844Y-104844651D01*
X165945843Y-104844656D01*
X165926709Y-105099995D01*
X165926709Y-105100004D01*
X165945843Y-105355343D01*
X165945844Y-105355348D01*
X166002822Y-105604987D01*
X166002824Y-105604996D01*
X166002826Y-105605001D01*
X166096378Y-105843369D01*
X166224413Y-106065131D01*
X166316018Y-106180000D01*
X166384072Y-106265338D01*
X166561098Y-106429593D01*
X166571781Y-106439505D01*
X166783355Y-106583754D01*
X166783360Y-106583756D01*
X166783361Y-106583757D01*
X166783362Y-106583758D01*
X166905890Y-106642764D01*
X167014061Y-106694856D01*
X167014062Y-106694856D01*
X167014065Y-106694858D01*
X167108210Y-106723897D01*
X167132885Y-106731509D01*
X167191144Y-106770080D01*
X167219302Y-106834024D01*
X167208418Y-106903041D01*
X167161949Y-106955218D01*
X167132885Y-106968491D01*
X167014061Y-107005143D01*
X166783362Y-107116241D01*
X166783361Y-107116242D01*
X166571780Y-107260495D01*
X166384072Y-107434661D01*
X166224413Y-107634869D01*
X166096378Y-107856630D01*
X166002828Y-108094993D01*
X166002822Y-108095012D01*
X165945844Y-108344651D01*
X165945843Y-108344656D01*
X165926709Y-108599995D01*
X165926709Y-108600004D01*
X162560500Y-108600004D01*
X162560500Y-63500002D01*
X164326640Y-63500002D01*
X164346063Y-63858234D01*
X164359936Y-63942856D01*
X164395478Y-64159654D01*
X164404106Y-64212279D01*
X164404107Y-64212282D01*
X164500082Y-64557955D01*
X164500083Y-64557957D01*
X164632872Y-64891233D01*
X164632881Y-64891251D01*
X164800928Y-65208220D01*
X164800929Y-65208223D01*
X165002256Y-65505157D01*
X165002264Y-65505167D01*
X165234508Y-65778586D01*
X165234516Y-65778595D01*
X165494977Y-66025317D01*
X165780586Y-66242431D01*
X166087995Y-66427393D01*
X166087997Y-66427394D01*
X166087999Y-66427395D01*
X166088003Y-66427397D01*
X166413588Y-66578028D01*
X166413599Y-66578033D01*
X166753583Y-66692587D01*
X167103958Y-66769711D01*
X167460618Y-66808500D01*
X167460624Y-66808500D01*
X167819376Y-66808500D01*
X167819382Y-66808500D01*
X168176042Y-66769711D01*
X168526417Y-66692587D01*
X168866401Y-66578033D01*
X169192005Y-66427393D01*
X169499414Y-66242431D01*
X169785023Y-66025317D01*
X170045484Y-65778595D01*
X170277742Y-65505159D01*
X170479075Y-65208215D01*
X170647123Y-64891243D01*
X170779915Y-64557961D01*
X170875895Y-64212274D01*
X170933936Y-63858237D01*
X170953359Y-63500000D01*
X170950426Y-63445913D01*
X170936939Y-63197157D01*
X170933936Y-63141763D01*
X170875895Y-62787726D01*
X170826828Y-62611001D01*
X175794891Y-62611001D01*
X175815300Y-62896362D01*
X175876109Y-63175895D01*
X175976091Y-63443958D01*
X176113191Y-63695038D01*
X176113196Y-63695046D01*
X176219882Y-63837561D01*
X176219883Y-63837562D01*
X177115195Y-62942250D01*
X177137340Y-62993587D01*
X177243433Y-63136094D01*
X177379530Y-63250294D01*
X177469216Y-63295335D01*
X176573436Y-64191115D01*
X176715960Y-64297807D01*
X176715961Y-64297808D01*
X176967042Y-64434908D01*
X176967041Y-64434908D01*
X177235104Y-64534890D01*
X177514637Y-64595699D01*
X177799999Y-64616109D01*
X177800001Y-64616109D01*
X178085362Y-64595699D01*
X178364895Y-64534890D01*
X178632958Y-64434908D01*
X178884047Y-64297803D01*
X179026561Y-64191116D01*
X179026562Y-64191115D01*
X178133748Y-63298300D01*
X178143409Y-63294784D01*
X178291844Y-63197157D01*
X178413764Y-63067930D01*
X178485768Y-62943215D01*
X179380115Y-63837562D01*
X179380116Y-63837561D01*
X179486803Y-63695047D01*
X179623908Y-63443958D01*
X179723890Y-63175895D01*
X179784699Y-62896362D01*
X179805109Y-62611001D01*
X179805109Y-62610998D01*
X179784699Y-62325637D01*
X179723890Y-62046104D01*
X179623908Y-61778041D01*
X179486808Y-61526961D01*
X179486807Y-61526960D01*
X179380115Y-61384436D01*
X178484803Y-62279747D01*
X178462660Y-62228413D01*
X178356567Y-62085906D01*
X178220470Y-61971706D01*
X178130781Y-61926663D01*
X179026562Y-61030883D01*
X179026561Y-61030882D01*
X178884046Y-60924196D01*
X178884038Y-60924191D01*
X178632957Y-60787091D01*
X178632958Y-60787091D01*
X178364895Y-60687109D01*
X178085362Y-60626300D01*
X177800001Y-60605891D01*
X177799999Y-60605891D01*
X177514637Y-60626300D01*
X177235104Y-60687109D01*
X176967041Y-60787091D01*
X176715961Y-60924191D01*
X176715953Y-60924196D01*
X176573436Y-61030882D01*
X176573436Y-61030883D01*
X177466251Y-61923699D01*
X177456591Y-61927216D01*
X177308156Y-62024843D01*
X177186236Y-62154070D01*
X177114231Y-62278784D01*
X176219883Y-61384436D01*
X176219882Y-61384437D01*
X176113196Y-61526953D01*
X176113191Y-61526961D01*
X175976091Y-61778041D01*
X175876109Y-62046104D01*
X175815300Y-62325637D01*
X175794891Y-62610998D01*
X175794891Y-62611001D01*
X170826828Y-62611001D01*
X170826827Y-62610999D01*
X170779917Y-62442044D01*
X170779916Y-62442042D01*
X170647127Y-62108766D01*
X170647118Y-62108748D01*
X170612156Y-62042802D01*
X170479075Y-61791785D01*
X170479071Y-61791779D01*
X170479070Y-61791776D01*
X170277743Y-61494842D01*
X170277735Y-61494832D01*
X170045491Y-61221413D01*
X170045486Y-61221407D01*
X170045484Y-61221405D01*
X169785023Y-60974683D01*
X169785016Y-60974677D01*
X169785013Y-60974675D01*
X169703338Y-60912588D01*
X169499414Y-60757569D01*
X169192005Y-60572607D01*
X169192004Y-60572606D01*
X169192000Y-60572604D01*
X169191996Y-60572602D01*
X168866411Y-60421971D01*
X168866406Y-60421969D01*
X168866401Y-60421967D01*
X168700678Y-60366128D01*
X168526416Y-60307412D01*
X168176040Y-60230288D01*
X167819383Y-60191500D01*
X167819382Y-60191500D01*
X167460618Y-60191500D01*
X167460616Y-60191500D01*
X167103959Y-60230288D01*
X166753583Y-60307412D01*
X166530501Y-60382578D01*
X166413599Y-60421967D01*
X166413596Y-60421968D01*
X166413588Y-60421971D01*
X166088003Y-60572602D01*
X166087999Y-60572604D01*
X165942562Y-60660111D01*
X165780586Y-60757569D01*
X165692060Y-60824864D01*
X165494986Y-60974675D01*
X165494977Y-60974683D01*
X165234513Y-61221407D01*
X165234508Y-61221413D01*
X165002264Y-61494832D01*
X165002256Y-61494842D01*
X164800929Y-61791776D01*
X164800928Y-61791779D01*
X164632881Y-62108748D01*
X164632872Y-62108766D01*
X164500083Y-62442042D01*
X164500082Y-62442044D01*
X164404107Y-62787717D01*
X164404106Y-62787720D01*
X164346063Y-63141765D01*
X164326640Y-63499997D01*
X164326640Y-63500002D01*
X162560500Y-63500002D01*
X162560500Y-62231528D01*
X162560575Y-62228486D01*
X162564230Y-62154070D01*
X162567994Y-62077447D01*
X162579812Y-61851960D01*
X162580392Y-61846162D01*
X162607020Y-61666647D01*
X162638190Y-61469852D01*
X162639269Y-61464559D01*
X162684715Y-61283132D01*
X162734936Y-61095705D01*
X162736441Y-61090886D01*
X162800246Y-60912564D01*
X162869086Y-60733231D01*
X162870885Y-60729026D01*
X162952437Y-60556597D01*
X163039223Y-60386271D01*
X163041237Y-60382632D01*
X163139754Y-60218267D01*
X163243607Y-60058349D01*
X163245789Y-60055209D01*
X163360237Y-59900894D01*
X163480193Y-59752759D01*
X163482381Y-59750207D01*
X163610694Y-59608636D01*
X163612707Y-59606522D01*
X163746522Y-59472707D01*
X163748636Y-59470694D01*
X163890207Y-59342381D01*
X163892759Y-59340193D01*
X164040882Y-59220246D01*
X164195216Y-59105783D01*
X164198349Y-59103607D01*
X164358267Y-58999754D01*
X164522632Y-58901237D01*
X164526271Y-58899223D01*
X164696600Y-58812436D01*
X164869026Y-58730885D01*
X164873231Y-58729086D01*
X165052564Y-58660246D01*
X165230886Y-58596441D01*
X165235705Y-58594936D01*
X165423132Y-58544715D01*
X165604559Y-58499269D01*
X165609852Y-58498190D01*
X165806637Y-58467022D01*
X165986162Y-58440392D01*
X165991960Y-58439812D01*
X166217447Y-58427994D01*
X166316841Y-58423111D01*
X166368487Y-58420575D01*
X166371529Y-58420500D01*
X194308471Y-58420500D01*
X194311513Y-58420575D01*
G37*
%TD.AperFunction*%
%TD*%
M02*
