%TF.GenerationSoftware,KiCad,Pcbnew,7.0.6*%
%TF.CreationDate,2023-07-17T12:15:40-04:00*%
%TF.ProjectId,mcp23s17_single_breakout,6d637032-3373-4313-975f-73696e676c65,rev?*%
%TF.SameCoordinates,Original*%
%TF.FileFunction,Copper,L1,Top*%
%TF.FilePolarity,Positive*%
%FSLAX46Y46*%
G04 Gerber Fmt 4.6, Leading zero omitted, Abs format (unit mm)*
G04 Created by KiCad (PCBNEW 7.0.6) date 2023-07-17 12:15:40*
%MOMM*%
%LPD*%
G01*
G04 APERTURE LIST*
%TA.AperFunction,ComponentPad*%
%ADD10R,2.400000X2.400000*%
%TD*%
%TA.AperFunction,ComponentPad*%
%ADD11C,2.400000*%
%TD*%
%TA.AperFunction,ComponentPad*%
%ADD12R,3.000000X3.000000*%
%TD*%
%TA.AperFunction,ComponentPad*%
%ADD13C,3.000000*%
%TD*%
%TA.AperFunction,ComponentPad*%
%ADD14R,1.700000X1.700000*%
%TD*%
%TA.AperFunction,ComponentPad*%
%ADD15O,1.700000X1.700000*%
%TD*%
%TA.AperFunction,ComponentPad*%
%ADD16R,1.600000X1.600000*%
%TD*%
%TA.AperFunction,ComponentPad*%
%ADD17O,1.600000X1.600000*%
%TD*%
%TA.AperFunction,ComponentPad*%
%ADD18C,5.600000*%
%TD*%
%TA.AperFunction,Conductor*%
%ADD19C,0.800000*%
%TD*%
%TA.AperFunction,Conductor*%
%ADD20C,0.400000*%
%TD*%
G04 APERTURE END LIST*
D10*
%TO.P,J2,1,Pin_1*%
%TO.N,SCK*%
X167640000Y-91100000D03*
D11*
%TO.P,J2,2,Pin_2*%
%TO.N,MISO*%
X167640000Y-94600000D03*
%TO.P,J2,3,Pin_3*%
%TO.N,MOSI*%
X167640000Y-98100000D03*
%TO.P,J2,4,Pin_4*%
%TO.N,CS0*%
X167640000Y-101600000D03*
%TO.P,J2,5,Pin_5*%
%TO.N,INTA0*%
X167640000Y-105100000D03*
%TO.P,J2,6,Pin_6*%
%TO.N,INTB0*%
X167640000Y-108600000D03*
%TD*%
D12*
%TO.P,J1,1,Pin_1*%
%TO.N,VCC*%
X182880000Y-62611000D03*
D13*
%TO.P,J1,2,Pin_2*%
%TO.N,GND*%
X177800000Y-62611000D03*
%TD*%
D14*
%TO.P,J7,1,Pin_1*%
%TO.N,GND*%
X195580000Y-109220000D03*
D15*
%TO.P,J7,2,Pin_2*%
X195580000Y-106680000D03*
%TO.P,J7,3,Pin_3*%
X195580000Y-104140000D03*
%TO.P,J7,4,Pin_4*%
X195580000Y-101600000D03*
%TO.P,J7,5,Pin_5*%
X195580000Y-99060000D03*
%TO.P,J7,6,Pin_6*%
X195580000Y-96520000D03*
%TO.P,J7,7,Pin_7*%
X195580000Y-93980000D03*
%TO.P,J7,8,Pin_8*%
X195580000Y-91440000D03*
%TO.P,J7,9,Pin_9*%
X195580000Y-88900000D03*
%TO.P,J7,10,Pin_10*%
X195580000Y-86360000D03*
%TO.P,J7,11,Pin_11*%
X195580000Y-83820000D03*
%TO.P,J7,12,Pin_12*%
X195580000Y-81280000D03*
%TO.P,J7,13,Pin_13*%
X195580000Y-78740000D03*
%TO.P,J7,14,Pin_14*%
X195580000Y-76200000D03*
%TO.P,J7,15,Pin_15*%
X195580000Y-73660000D03*
%TO.P,J7,16,Pin_16*%
X195580000Y-71120000D03*
%TD*%
D10*
%TO.P,J4,1,Pin_1*%
%TO.N,SCK*%
X167640000Y-75240000D03*
D11*
%TO.P,J4,2,Pin_2*%
%TO.N,MISO*%
X167640000Y-78740000D03*
%TO.P,J4,3,Pin_3*%
%TO.N,MOSI*%
X167640000Y-82240000D03*
%TD*%
D16*
%TO.P,U2,1,GPB0*%
%TO.N,Net-(J5-Pin_9)*%
X176530000Y-73660000D03*
D17*
%TO.P,U2,2,GPB1*%
%TO.N,Net-(J5-Pin_10)*%
X176530000Y-76200000D03*
%TO.P,U2,3,GPB2*%
%TO.N,Net-(J5-Pin_11)*%
X176530000Y-78740000D03*
%TO.P,U2,4,GPB3*%
%TO.N,Net-(J5-Pin_12)*%
X176530000Y-81280000D03*
%TO.P,U2,5,GPB4*%
%TO.N,Net-(J5-Pin_13)*%
X176530000Y-83820000D03*
%TO.P,U2,6,GPB5*%
%TO.N,Net-(J5-Pin_14)*%
X176530000Y-86360000D03*
%TO.P,U2,7,GPB6*%
%TO.N,Net-(J5-Pin_15)*%
X176530000Y-88900000D03*
%TO.P,U2,8,GPB7*%
%TO.N,Net-(J5-Pin_16)*%
X176530000Y-91440000D03*
%TO.P,U2,9,VDD*%
%TO.N,VCC*%
X176530000Y-93980000D03*
%TO.P,U2,10,VSS*%
%TO.N,GND*%
X176530000Y-96520000D03*
%TO.P,U2,11,~{CS}*%
%TO.N,CS0*%
X176530000Y-99060000D03*
%TO.P,U2,12,SCK*%
%TO.N,SCK*%
X176530000Y-101600000D03*
%TO.P,U2,13,SI*%
%TO.N,MOSI*%
X176530000Y-104140000D03*
%TO.P,U2,14,SO*%
%TO.N,MISO*%
X176530000Y-106680000D03*
%TO.P,U2,15,A0*%
%TO.N,GND*%
X184150000Y-106680000D03*
%TO.P,U2,16,A1*%
X184150000Y-104140000D03*
%TO.P,U2,17,A2*%
X184150000Y-101600000D03*
%TO.P,U2,18,~{RESET}*%
%TO.N,VCC*%
X184150000Y-99060000D03*
%TO.P,U2,19,INTB*%
%TO.N,INTB0*%
X184150000Y-96520000D03*
%TO.P,U2,20,INTA*%
%TO.N,INTA0*%
X184150000Y-93980000D03*
%TO.P,U2,21,GPA0*%
%TO.N,Net-(J5-Pin_1)*%
X184150000Y-91440000D03*
%TO.P,U2,22,GPA1*%
%TO.N,Net-(J5-Pin_2)*%
X184150000Y-88900000D03*
%TO.P,U2,23,GPA2*%
%TO.N,Net-(J5-Pin_3)*%
X184150000Y-86360000D03*
%TO.P,U2,24,GPA3*%
%TO.N,Net-(J5-Pin_4)*%
X184150000Y-83820000D03*
%TO.P,U2,25,GPA4*%
%TO.N,Net-(J5-Pin_5)*%
X184150000Y-81280000D03*
%TO.P,U2,26,GPA5*%
%TO.N,Net-(J5-Pin_6)*%
X184150000Y-78740000D03*
%TO.P,U2,27,GPA6*%
%TO.N,Net-(J5-Pin_7)*%
X184150000Y-76200000D03*
%TO.P,U2,28,GPA7*%
%TO.N,Net-(J5-Pin_8)*%
X184150000Y-73660000D03*
%TD*%
D18*
%TO.P,H1,1*%
%TO.N,N/C*%
X167640000Y-63500000D03*
%TD*%
%TO.P,H3,1*%
%TO.N,N/C*%
X193040000Y-63500000D03*
%TD*%
D12*
%TO.P,J3,1,Pin_1*%
%TO.N,VCC*%
X182880000Y-117729000D03*
D13*
%TO.P,J3,2,Pin_2*%
%TO.N,GND*%
X177800000Y-117729000D03*
%TD*%
D14*
%TO.P,J5,1,Pin_1*%
%TO.N,Net-(J5-Pin_1)*%
X190500000Y-109220000D03*
D15*
%TO.P,J5,2,Pin_2*%
%TO.N,Net-(J5-Pin_2)*%
X190500000Y-106680000D03*
%TO.P,J5,3,Pin_3*%
%TO.N,Net-(J5-Pin_3)*%
X190500000Y-104140000D03*
%TO.P,J5,4,Pin_4*%
%TO.N,Net-(J5-Pin_4)*%
X190500000Y-101600000D03*
%TO.P,J5,5,Pin_5*%
%TO.N,Net-(J5-Pin_5)*%
X190500000Y-99060000D03*
%TO.P,J5,6,Pin_6*%
%TO.N,Net-(J5-Pin_6)*%
X190500000Y-96520000D03*
%TO.P,J5,7,Pin_7*%
%TO.N,Net-(J5-Pin_7)*%
X190500000Y-93980000D03*
%TO.P,J5,8,Pin_8*%
%TO.N,Net-(J5-Pin_8)*%
X190500000Y-91440000D03*
%TO.P,J5,9,Pin_9*%
%TO.N,Net-(J5-Pin_9)*%
X190500000Y-88900000D03*
%TO.P,J5,10,Pin_10*%
%TO.N,Net-(J5-Pin_10)*%
X190500000Y-86360000D03*
%TO.P,J5,11,Pin_11*%
%TO.N,Net-(J5-Pin_11)*%
X190500000Y-83820000D03*
%TO.P,J5,12,Pin_12*%
%TO.N,Net-(J5-Pin_12)*%
X190500000Y-81280000D03*
%TO.P,J5,13,Pin_13*%
%TO.N,Net-(J5-Pin_13)*%
X190500000Y-78740000D03*
%TO.P,J5,14,Pin_14*%
%TO.N,Net-(J5-Pin_14)*%
X190500000Y-76200000D03*
%TO.P,J5,15,Pin_15*%
%TO.N,Net-(J5-Pin_15)*%
X190500000Y-73660000D03*
%TO.P,J5,16,Pin_16*%
%TO.N,Net-(J5-Pin_16)*%
X190500000Y-71120000D03*
%TD*%
D14*
%TO.P,J6,1,Pin_1*%
%TO.N,VCC*%
X193040000Y-109220000D03*
D15*
%TO.P,J6,2,Pin_2*%
X193040000Y-106680000D03*
%TO.P,J6,3,Pin_3*%
X193040000Y-104140000D03*
%TO.P,J6,4,Pin_4*%
X193040000Y-101600000D03*
%TO.P,J6,5,Pin_5*%
X193040000Y-99060000D03*
%TO.P,J6,6,Pin_6*%
X193040000Y-96520000D03*
%TO.P,J6,7,Pin_7*%
X193040000Y-93980000D03*
%TO.P,J6,8,Pin_8*%
X193040000Y-91440000D03*
%TO.P,J6,9,Pin_9*%
X193040000Y-88900000D03*
%TO.P,J6,10,Pin_10*%
X193040000Y-86360000D03*
%TO.P,J6,11,Pin_11*%
X193040000Y-83820000D03*
%TO.P,J6,12,Pin_12*%
X193040000Y-81280000D03*
%TO.P,J6,13,Pin_13*%
X193040000Y-78740000D03*
%TO.P,J6,14,Pin_14*%
X193040000Y-76200000D03*
%TO.P,J6,15,Pin_15*%
X193040000Y-73660000D03*
%TO.P,J6,16,Pin_16*%
X193040000Y-71120000D03*
%TD*%
D18*
%TO.P,H4,1*%
%TO.N,N/C*%
X193040000Y-116840000D03*
%TD*%
%TO.P,H2,1*%
%TO.N,N/C*%
X167640000Y-116840000D03*
%TD*%
D19*
%TO.N,VCC*%
X193040000Y-96520000D02*
X193040000Y-99060000D01*
X193040000Y-99060000D02*
X193040000Y-101600000D01*
X193040000Y-91440000D02*
X193040000Y-93980000D01*
X193040000Y-83820000D02*
X193040000Y-86360000D01*
X186309000Y-62611000D02*
X193040000Y-69342000D01*
X193040000Y-110744000D02*
X193040000Y-109220000D01*
X186055000Y-117729000D02*
X193040000Y-110744000D01*
X193040000Y-101600000D02*
X193040000Y-104140000D01*
X193040000Y-88900000D02*
X193040000Y-91440000D01*
X182880000Y-62611000D02*
X186309000Y-62611000D01*
X193040000Y-109220000D02*
X193040000Y-106680000D01*
X193040000Y-86360000D02*
X193040000Y-88900000D01*
X193040000Y-73660000D02*
X193040000Y-76200000D01*
X193040000Y-76200000D02*
X193040000Y-78740000D01*
X193040000Y-106680000D02*
X193040000Y-104140000D01*
X182880000Y-117729000D02*
X186055000Y-117729000D01*
X193040000Y-81280000D02*
X193040000Y-83820000D01*
X193040000Y-93980000D02*
X193040000Y-96520000D01*
X193040000Y-69342000D02*
X193040000Y-71120000D01*
X193040000Y-71120000D02*
X193040000Y-73660000D01*
X193040000Y-78740000D02*
X193040000Y-81280000D01*
D20*
%TO.N,Net-(J5-Pin_1)*%
X188468000Y-108712000D02*
X188976000Y-109220000D01*
X187452000Y-91440000D02*
X188468000Y-92456000D01*
X184150000Y-91440000D02*
X187452000Y-91440000D01*
X188468000Y-92456000D02*
X188468000Y-108712000D01*
X188976000Y-109220000D02*
X190500000Y-109220000D01*
%TO.N,Net-(J5-Pin_9)*%
X185376000Y-83862528D02*
X190413472Y-88900000D01*
X190413472Y-88900000D02*
X190500000Y-88900000D01*
X176530000Y-73660000D02*
X176530000Y-72136000D01*
X185376000Y-71838000D02*
X185376000Y-83862528D01*
X184702000Y-71164000D02*
X185376000Y-71838000D01*
X176530000Y-72136000D02*
X177502000Y-71164000D01*
X177502000Y-71164000D02*
X184702000Y-71164000D01*
%TO.N,Net-(J5-Pin_10)*%
X174958000Y-72195168D02*
X174958000Y-75644000D01*
X185372000Y-70564000D02*
X176589168Y-70564000D01*
X188722000Y-86360000D02*
X185976000Y-83614000D01*
X175514000Y-76200000D02*
X174958000Y-75644000D01*
X190500000Y-86360000D02*
X188722000Y-86360000D01*
X176589168Y-70564000D02*
X174958000Y-72195168D01*
X176530000Y-76200000D02*
X175514000Y-76200000D01*
X185976000Y-71168000D02*
X185372000Y-70564000D01*
X185976000Y-83614000D02*
X185976000Y-71168000D01*
%TO.N,Net-(J5-Pin_11)*%
X176340640Y-69964000D02*
X186068000Y-69964000D01*
X188214000Y-83820000D02*
X190500000Y-83820000D01*
X175514000Y-78740000D02*
X174358000Y-77584000D01*
X186576000Y-70472000D02*
X186576000Y-82182000D01*
X186068000Y-69964000D02*
X186576000Y-70472000D01*
X186576000Y-82182000D02*
X188214000Y-83820000D01*
X174358000Y-77584000D02*
X174358000Y-71946640D01*
X176530000Y-78740000D02*
X175514000Y-78740000D01*
X174358000Y-71946640D02*
X176340640Y-69964000D01*
%TO.N,Net-(J5-Pin_12)*%
X176092112Y-69364000D02*
X173758000Y-71698112D01*
X174752000Y-81280000D02*
X176530000Y-81280000D01*
X190500000Y-81280000D02*
X188722000Y-81280000D01*
X188722000Y-81280000D02*
X187176000Y-79734000D01*
X186712000Y-69364000D02*
X176092112Y-69364000D01*
X187176000Y-79734000D02*
X187176000Y-69828000D01*
X187176000Y-69828000D02*
X186712000Y-69364000D01*
X173758000Y-80286000D02*
X174752000Y-81280000D01*
X173758000Y-71698112D02*
X173758000Y-80286000D01*
%TO.N,Net-(J5-Pin_13)*%
X173158000Y-82734000D02*
X173158000Y-71449584D01*
X187776000Y-77286000D02*
X189230000Y-78740000D01*
X189230000Y-78740000D02*
X190500000Y-78740000D01*
X176530000Y-83820000D02*
X174244000Y-83820000D01*
X173158000Y-71449584D02*
X175843584Y-68764000D01*
X187776000Y-69412000D02*
X187776000Y-77286000D01*
X174244000Y-83820000D02*
X173158000Y-82734000D01*
X175843584Y-68764000D02*
X187128000Y-68764000D01*
X187128000Y-68764000D02*
X187776000Y-69412000D01*
%TO.N,Net-(J5-Pin_14)*%
X188376000Y-68828528D02*
X187711472Y-68164000D01*
X190500000Y-76200000D02*
X189230000Y-76200000D01*
X189230000Y-76200000D02*
X188376000Y-75346000D01*
X188376000Y-75346000D02*
X188376000Y-68828528D01*
X172558000Y-71201056D02*
X172558000Y-84928000D01*
X173990000Y-86360000D02*
X176530000Y-86360000D01*
X187711472Y-68164000D02*
X175595056Y-68164000D01*
X175595056Y-68164000D02*
X172558000Y-71201056D01*
X172558000Y-84928000D02*
X173990000Y-86360000D01*
%TO.N,Net-(J5-Pin_15)*%
X173482000Y-88900000D02*
X176530000Y-88900000D01*
X188976000Y-72898000D02*
X188976000Y-68580000D01*
X187960000Y-67564000D02*
X175346528Y-67564000D01*
X188976000Y-68580000D02*
X187960000Y-67564000D01*
X175346528Y-67564000D02*
X171958000Y-70952528D01*
X171958000Y-87376000D02*
X173482000Y-88900000D01*
X171958000Y-70952528D02*
X171958000Y-87376000D01*
X189738000Y-73660000D02*
X188976000Y-72898000D01*
X190500000Y-73660000D02*
X189738000Y-73660000D01*
%TO.N,Net-(J5-Pin_16)*%
X171358000Y-70704000D02*
X175260000Y-66802000D01*
X176530000Y-91440000D02*
X173990000Y-91440000D01*
X173990000Y-91440000D02*
X171358000Y-88808000D01*
X175260000Y-66802000D02*
X188046528Y-66802000D01*
X188046528Y-66802000D02*
X190500000Y-69255472D01*
X190500000Y-69255472D02*
X190500000Y-71120000D01*
X171358000Y-88808000D02*
X171358000Y-70704000D01*
%TO.N,SCK*%
X170688000Y-91100000D02*
X167640000Y-91100000D01*
X170758000Y-76016000D02*
X170688000Y-76086000D01*
X167640000Y-75240000D02*
X169982000Y-75240000D01*
X170688000Y-76086000D02*
X170688000Y-91100000D01*
X169982000Y-75240000D02*
X170758000Y-76016000D01*
X172634000Y-91100000D02*
X170688000Y-91100000D01*
X174498000Y-92964000D02*
X172634000Y-91100000D01*
X176530000Y-101600000D02*
X174498000Y-99568000D01*
X174498000Y-99568000D02*
X174498000Y-92964000D01*
%TO.N,MISO*%
X178308000Y-103632000D02*
X177546000Y-102870000D01*
X172974000Y-96266000D02*
X171308000Y-94600000D01*
X177546000Y-102870000D02*
X173482000Y-102870000D01*
X173482000Y-102870000D02*
X172974000Y-102362000D01*
X171308000Y-94600000D02*
X167640000Y-94600000D01*
X176530000Y-106680000D02*
X177800000Y-106680000D01*
X177800000Y-106680000D02*
X178308000Y-106172000D01*
X172974000Y-102362000D02*
X172974000Y-96266000D01*
X178308000Y-106172000D02*
X178308000Y-103632000D01*
%TO.N,MOSI*%
X166426000Y-82240000D02*
X165354000Y-83312000D01*
X171958000Y-102616000D02*
X171958000Y-99568000D01*
X173482000Y-104140000D02*
X171958000Y-102616000D01*
X170490000Y-98100000D02*
X167640000Y-98100000D01*
X166172000Y-98100000D02*
X167640000Y-98100000D01*
X171958000Y-99568000D02*
X170490000Y-98100000D01*
X165354000Y-83312000D02*
X165354000Y-97282000D01*
X165354000Y-97282000D02*
X166172000Y-98100000D01*
X167640000Y-82240000D02*
X166426000Y-82240000D01*
X176530000Y-104140000D02*
X173482000Y-104140000D01*
%TO.N,INTA0*%
X179070000Y-96520000D02*
X179070000Y-107188000D01*
X171902000Y-105100000D02*
X167640000Y-105100000D01*
X184150000Y-93980000D02*
X181610000Y-93980000D01*
X174498000Y-108458000D02*
X173228000Y-107188000D01*
X177800000Y-108458000D02*
X174498000Y-108458000D01*
X179070000Y-107188000D02*
X177800000Y-108458000D01*
X181610000Y-93980000D02*
X179070000Y-96520000D01*
X173228000Y-106426000D02*
X171902000Y-105100000D01*
X173228000Y-107188000D02*
X173228000Y-106426000D01*
%TO.N,INTB0*%
X173828000Y-109058000D02*
X178048528Y-109058000D01*
X173370000Y-108600000D02*
X173828000Y-109058000D01*
X179670000Y-107436528D02*
X179670000Y-98460000D01*
X181610000Y-96520000D02*
X184150000Y-96520000D01*
X167640000Y-108600000D02*
X173370000Y-108600000D01*
X178048528Y-109058000D02*
X179670000Y-107436528D01*
X179670000Y-98460000D02*
X181610000Y-96520000D01*
%TD*%
%TA.AperFunction,Conductor*%
%TO.N,GND*%
G36*
X195830000Y-108784498D02*
G01*
X195722315Y-108735320D01*
X195615763Y-108720000D01*
X195544237Y-108720000D01*
X195437685Y-108735320D01*
X195330000Y-108784498D01*
X195330000Y-107115501D01*
X195437685Y-107164680D01*
X195544237Y-107180000D01*
X195615763Y-107180000D01*
X195722315Y-107164680D01*
X195830000Y-107115501D01*
X195830000Y-108784498D01*
G37*
%TD.AperFunction*%
%TA.AperFunction,Conductor*%
G36*
X184400000Y-106364314D02*
G01*
X184388045Y-106352359D01*
X184275148Y-106294835D01*
X184181481Y-106280000D01*
X184118519Y-106280000D01*
X184024852Y-106294835D01*
X183911955Y-106352359D01*
X183900000Y-106364314D01*
X183900000Y-104455686D01*
X183911955Y-104467641D01*
X184024852Y-104525165D01*
X184118519Y-104540000D01*
X184181481Y-104540000D01*
X184275148Y-104525165D01*
X184388045Y-104467641D01*
X184400000Y-104455685D01*
X184400000Y-106364314D01*
G37*
%TD.AperFunction*%
%TA.AperFunction,Conductor*%
G36*
X195830000Y-106244498D02*
G01*
X195722315Y-106195320D01*
X195615763Y-106180000D01*
X195544237Y-106180000D01*
X195437685Y-106195320D01*
X195330000Y-106244498D01*
X195330000Y-104575501D01*
X195437685Y-104624680D01*
X195544237Y-104640000D01*
X195615763Y-104640000D01*
X195722315Y-104624680D01*
X195830000Y-104575501D01*
X195830000Y-106244498D01*
G37*
%TD.AperFunction*%
%TA.AperFunction,Conductor*%
G36*
X184400000Y-103824314D02*
G01*
X184388045Y-103812359D01*
X184275148Y-103754835D01*
X184181481Y-103740000D01*
X184118519Y-103740000D01*
X184024852Y-103754835D01*
X183911955Y-103812359D01*
X183900000Y-103824314D01*
X183900000Y-101915686D01*
X183911955Y-101927641D01*
X184024852Y-101985165D01*
X184118519Y-102000000D01*
X184181481Y-102000000D01*
X184275148Y-101985165D01*
X184388045Y-101927641D01*
X184400000Y-101915685D01*
X184400000Y-103824314D01*
G37*
%TD.AperFunction*%
%TA.AperFunction,Conductor*%
G36*
X195830000Y-103704498D02*
G01*
X195722315Y-103655320D01*
X195615763Y-103640000D01*
X195544237Y-103640000D01*
X195437685Y-103655320D01*
X195330000Y-103704498D01*
X195330000Y-102035501D01*
X195437685Y-102084680D01*
X195544237Y-102100000D01*
X195615763Y-102100000D01*
X195722315Y-102084680D01*
X195830000Y-102035501D01*
X195830000Y-103704498D01*
G37*
%TD.AperFunction*%
%TA.AperFunction,Conductor*%
G36*
X184424207Y-71892185D02*
G01*
X184444849Y-71908819D01*
X184631181Y-72095150D01*
X184664666Y-72156473D01*
X184667500Y-72182831D01*
X184667500Y-72282405D01*
X184647815Y-72349444D01*
X184595011Y-72395199D01*
X184525853Y-72405143D01*
X184511407Y-72402180D01*
X184378091Y-72366458D01*
X184378089Y-72366457D01*
X184378087Y-72366457D01*
X184378085Y-72366456D01*
X184378081Y-72366456D01*
X184150002Y-72346502D01*
X184149998Y-72346502D01*
X183921918Y-72366456D01*
X183921910Y-72366457D01*
X183700761Y-72425714D01*
X183700750Y-72425718D01*
X183493254Y-72522475D01*
X183493252Y-72522476D01*
X183493249Y-72522477D01*
X183493251Y-72522477D01*
X183305700Y-72653802D01*
X183305698Y-72653803D01*
X183305695Y-72653806D01*
X183143806Y-72815695D01*
X183143803Y-72815698D01*
X183143802Y-72815700D01*
X183138877Y-72822734D01*
X183012476Y-73003252D01*
X183012475Y-73003254D01*
X182915718Y-73210750D01*
X182915714Y-73210761D01*
X182856457Y-73431910D01*
X182856456Y-73431918D01*
X182836502Y-73659998D01*
X182836502Y-73660001D01*
X182856456Y-73888081D01*
X182856457Y-73888089D01*
X182915714Y-74109238D01*
X182915718Y-74109249D01*
X183012475Y-74316745D01*
X183012477Y-74316749D01*
X183143802Y-74504300D01*
X183305700Y-74666198D01*
X183493251Y-74797523D01*
X183536345Y-74817618D01*
X183588783Y-74863788D01*
X183607936Y-74930981D01*
X183587721Y-74997863D01*
X183536347Y-75042380D01*
X183493252Y-75062476D01*
X183493249Y-75062477D01*
X183493251Y-75062477D01*
X183305700Y-75193802D01*
X183305698Y-75193803D01*
X183305695Y-75193806D01*
X183143806Y-75355695D01*
X183143803Y-75355698D01*
X183143802Y-75355700D01*
X183138877Y-75362734D01*
X183012476Y-75543252D01*
X183012475Y-75543254D01*
X182915718Y-75750750D01*
X182915714Y-75750761D01*
X182856457Y-75971910D01*
X182856456Y-75971918D01*
X182836502Y-76199998D01*
X182836502Y-76200001D01*
X182856456Y-76428081D01*
X182856457Y-76428089D01*
X182915714Y-76649238D01*
X182915718Y-76649249D01*
X183011958Y-76855636D01*
X183012477Y-76856749D01*
X183143802Y-77044300D01*
X183305700Y-77206198D01*
X183493251Y-77337523D01*
X183536345Y-77357618D01*
X183588783Y-77403788D01*
X183607936Y-77470981D01*
X183587721Y-77537863D01*
X183536347Y-77582380D01*
X183493252Y-77602476D01*
X183493249Y-77602477D01*
X183493251Y-77602477D01*
X183305700Y-77733802D01*
X183305698Y-77733803D01*
X183305695Y-77733806D01*
X183143806Y-77895695D01*
X183143803Y-77895698D01*
X183143802Y-77895700D01*
X183138877Y-77902734D01*
X183012476Y-78083252D01*
X183012475Y-78083254D01*
X182915718Y-78290750D01*
X182915714Y-78290761D01*
X182856457Y-78511910D01*
X182856456Y-78511918D01*
X182836502Y-78739998D01*
X182836502Y-78740001D01*
X182856456Y-78968081D01*
X182856457Y-78968089D01*
X182915714Y-79189238D01*
X182915718Y-79189249D01*
X183011288Y-79394200D01*
X183012477Y-79396749D01*
X183143802Y-79584300D01*
X183305700Y-79746198D01*
X183493250Y-79877522D01*
X183493251Y-79877523D01*
X183536345Y-79897618D01*
X183588784Y-79943791D01*
X183607936Y-80010984D01*
X183587720Y-80077865D01*
X183536345Y-80122382D01*
X183493251Y-80142476D01*
X183392965Y-80212698D01*
X183305700Y-80273802D01*
X183305698Y-80273803D01*
X183305695Y-80273806D01*
X183143806Y-80435695D01*
X183143803Y-80435698D01*
X183143802Y-80435700D01*
X183068641Y-80543041D01*
X183012476Y-80623252D01*
X183012475Y-80623254D01*
X182915718Y-80830750D01*
X182915714Y-80830761D01*
X182856457Y-81051910D01*
X182856456Y-81051918D01*
X182836502Y-81279998D01*
X182836502Y-81280001D01*
X182856456Y-81508081D01*
X182856457Y-81508089D01*
X182915714Y-81729238D01*
X182915718Y-81729249D01*
X183011961Y-81935643D01*
X183012477Y-81936749D01*
X183143802Y-82124300D01*
X183305700Y-82286198D01*
X183452756Y-82389168D01*
X183493251Y-82417523D01*
X183536345Y-82437618D01*
X183588784Y-82483791D01*
X183607936Y-82550984D01*
X183587720Y-82617865D01*
X183536345Y-82662382D01*
X183493251Y-82682476D01*
X183392965Y-82752698D01*
X183305700Y-82813802D01*
X183305698Y-82813803D01*
X183305695Y-82813806D01*
X183143806Y-82975695D01*
X183143803Y-82975698D01*
X183143802Y-82975700D01*
X183062497Y-83091815D01*
X183012476Y-83163252D01*
X183012475Y-83163254D01*
X182915718Y-83370750D01*
X182915714Y-83370761D01*
X182856457Y-83591910D01*
X182856456Y-83591918D01*
X182836502Y-83819998D01*
X182836502Y-83820001D01*
X182856456Y-84048081D01*
X182856457Y-84048089D01*
X182915714Y-84269238D01*
X182915718Y-84269249D01*
X183011288Y-84474200D01*
X183012477Y-84476749D01*
X183143802Y-84664300D01*
X183305700Y-84826198D01*
X183493250Y-84957522D01*
X183493251Y-84957523D01*
X183536345Y-84977618D01*
X183588784Y-85023791D01*
X183607936Y-85090984D01*
X183587720Y-85157865D01*
X183536345Y-85202382D01*
X183493251Y-85222476D01*
X183392965Y-85292698D01*
X183305700Y-85353802D01*
X183305698Y-85353803D01*
X183305695Y-85353806D01*
X183143806Y-85515695D01*
X183143803Y-85515698D01*
X183143802Y-85515700D01*
X183062497Y-85631815D01*
X183012476Y-85703252D01*
X183012475Y-85703254D01*
X182915718Y-85910750D01*
X182915714Y-85910761D01*
X182856457Y-86131910D01*
X182856456Y-86131918D01*
X182836502Y-86359998D01*
X182836502Y-86360001D01*
X182856456Y-86588081D01*
X182856457Y-86588089D01*
X182915714Y-86809238D01*
X182915718Y-86809249D01*
X183011288Y-87014200D01*
X183012477Y-87016749D01*
X183143802Y-87204300D01*
X183305700Y-87366198D01*
X183493251Y-87497523D01*
X183536345Y-87517618D01*
X183588784Y-87563791D01*
X183607936Y-87630984D01*
X183587720Y-87697865D01*
X183536345Y-87742382D01*
X183493251Y-87762476D01*
X183392965Y-87832698D01*
X183305700Y-87893802D01*
X183305698Y-87893803D01*
X183305695Y-87893806D01*
X183143806Y-88055695D01*
X183143803Y-88055698D01*
X183143802Y-88055700D01*
X183062497Y-88171815D01*
X183012476Y-88243252D01*
X183012475Y-88243254D01*
X182915718Y-88450750D01*
X182915714Y-88450761D01*
X182856457Y-88671910D01*
X182856456Y-88671918D01*
X182836502Y-88899998D01*
X182836502Y-88900001D01*
X182856456Y-89128081D01*
X182856457Y-89128089D01*
X182915714Y-89349238D01*
X182915718Y-89349249D01*
X183011601Y-89554870D01*
X183012477Y-89556749D01*
X183143802Y-89744300D01*
X183305700Y-89906198D01*
X183493250Y-90037522D01*
X183493251Y-90037523D01*
X183536345Y-90057618D01*
X183588784Y-90103791D01*
X183607936Y-90170984D01*
X183587720Y-90237865D01*
X183536345Y-90282382D01*
X183493251Y-90302476D01*
X183392965Y-90372698D01*
X183305700Y-90433802D01*
X183305698Y-90433803D01*
X183305695Y-90433806D01*
X183143806Y-90595695D01*
X183143803Y-90595698D01*
X183143802Y-90595700D01*
X183062497Y-90711815D01*
X183012476Y-90783252D01*
X183012475Y-90783254D01*
X182915718Y-90990750D01*
X182915714Y-90990761D01*
X182856457Y-91211910D01*
X182856456Y-91211918D01*
X182836502Y-91439998D01*
X182836502Y-91440001D01*
X182856456Y-91668081D01*
X182856457Y-91668089D01*
X182915714Y-91889238D01*
X182915718Y-91889249D01*
X183012475Y-92096745D01*
X183012477Y-92096749D01*
X183143802Y-92284300D01*
X183305700Y-92446198D01*
X183447348Y-92545381D01*
X183493251Y-92577523D01*
X183536345Y-92597618D01*
X183588784Y-92643791D01*
X183607936Y-92710984D01*
X183587720Y-92777865D01*
X183536345Y-92822382D01*
X183493251Y-92842476D01*
X183392965Y-92912698D01*
X183305700Y-92973802D01*
X183305698Y-92973803D01*
X183305695Y-92973806D01*
X183143803Y-93135698D01*
X183085739Y-93218623D01*
X183031163Y-93262248D01*
X182984164Y-93271500D01*
X181633279Y-93271500D01*
X181629535Y-93271387D01*
X181566909Y-93267599D01*
X181566904Y-93267599D01*
X181505198Y-93278907D01*
X181501496Y-93279470D01*
X181439202Y-93287034D01*
X181439199Y-93287035D01*
X181429483Y-93290719D01*
X181407885Y-93296739D01*
X181397672Y-93298611D01*
X181397668Y-93298612D01*
X181340450Y-93324364D01*
X181337015Y-93325786D01*
X181286300Y-93345021D01*
X181278322Y-93348047D01*
X181269773Y-93353948D01*
X181250239Y-93364965D01*
X181240777Y-93369224D01*
X181240771Y-93369227D01*
X181191389Y-93407915D01*
X181188375Y-93410132D01*
X181136727Y-93445784D01*
X181095123Y-93492744D01*
X181092556Y-93495471D01*
X178585480Y-96002548D01*
X178582753Y-96005115D01*
X178535782Y-96046728D01*
X178535780Y-96046731D01*
X178500138Y-96098367D01*
X178497920Y-96101382D01*
X178459223Y-96150777D01*
X178454962Y-96160243D01*
X178443947Y-96179774D01*
X178438048Y-96188320D01*
X178438044Y-96188328D01*
X178415794Y-96246995D01*
X178414361Y-96250454D01*
X178388610Y-96307670D01*
X178388609Y-96307673D01*
X178386737Y-96317889D01*
X178380715Y-96339494D01*
X178377035Y-96349198D01*
X178369470Y-96411490D01*
X178368908Y-96415179D01*
X178366208Y-96429921D01*
X178357598Y-96476903D01*
X178357598Y-96476908D01*
X178361387Y-96539544D01*
X178361500Y-96543289D01*
X178361500Y-102384167D01*
X178341815Y-102451206D01*
X178289011Y-102496961D01*
X178219853Y-102506905D01*
X178156297Y-102477880D01*
X178149819Y-102471849D01*
X178063452Y-102385482D01*
X178060884Y-102382754D01*
X178019271Y-102335783D01*
X177967628Y-102300136D01*
X177964611Y-102297916D01*
X177915227Y-102259225D01*
X177909235Y-102256528D01*
X177905760Y-102254964D01*
X177886216Y-102243941D01*
X177881210Y-102240486D01*
X177877677Y-102238047D01*
X177877672Y-102238044D01*
X177831346Y-102220475D01*
X177775644Y-102178297D01*
X177751588Y-102112699D01*
X177762521Y-102054367D01*
X177762431Y-102054335D01*
X177762629Y-102053789D01*
X177762942Y-102052119D01*
X177764284Y-102049243D01*
X177823543Y-101828087D01*
X177843498Y-101600000D01*
X177823543Y-101371913D01*
X177764284Y-101150757D01*
X177667523Y-100943251D01*
X177536198Y-100755700D01*
X177374300Y-100593802D01*
X177186749Y-100462477D01*
X177178889Y-100458812D01*
X177143655Y-100442382D01*
X177091215Y-100396210D01*
X177072063Y-100329017D01*
X177092278Y-100262136D01*
X177143655Y-100217618D01*
X177146882Y-100216112D01*
X177186749Y-100197523D01*
X177374300Y-100066198D01*
X177536198Y-99904300D01*
X177667523Y-99716749D01*
X177764284Y-99509243D01*
X177823543Y-99288087D01*
X177843498Y-99060000D01*
X177823543Y-98831913D01*
X177764284Y-98610757D01*
X177747222Y-98574168D01*
X177725736Y-98528091D01*
X177667523Y-98403251D01*
X177536198Y-98215700D01*
X177374300Y-98053802D01*
X177186749Y-97922477D01*
X177133596Y-97897691D01*
X177081158Y-97851519D01*
X177062007Y-97784325D01*
X177082223Y-97717444D01*
X177133600Y-97672927D01*
X177182483Y-97650133D01*
X177368820Y-97519657D01*
X177529657Y-97358820D01*
X177660134Y-97172482D01*
X177756265Y-96966326D01*
X177756269Y-96966317D01*
X177808872Y-96770000D01*
X176845686Y-96770000D01*
X176857641Y-96758045D01*
X176915165Y-96645148D01*
X176934986Y-96520000D01*
X176915165Y-96394852D01*
X176857641Y-96281955D01*
X176845686Y-96270000D01*
X177808872Y-96270000D01*
X177808872Y-96269999D01*
X177756269Y-96073682D01*
X177756265Y-96073673D01*
X177660134Y-95867517D01*
X177529657Y-95681179D01*
X177368820Y-95520342D01*
X177182481Y-95389865D01*
X177182479Y-95389864D01*
X177133599Y-95367071D01*
X177081159Y-95320899D01*
X177062007Y-95253706D01*
X177082223Y-95186824D01*
X177133599Y-95142307D01*
X177136520Y-95140945D01*
X177186749Y-95117523D01*
X177374300Y-94986198D01*
X177536198Y-94824300D01*
X177667523Y-94636749D01*
X177764284Y-94429243D01*
X177823543Y-94208087D01*
X177843498Y-93980000D01*
X177823543Y-93751913D01*
X177764284Y-93530757D01*
X177746558Y-93492744D01*
X177708036Y-93410132D01*
X177667523Y-93323251D01*
X177536198Y-93135700D01*
X177374300Y-92973802D01*
X177186749Y-92842477D01*
X177178889Y-92838812D01*
X177143655Y-92822382D01*
X177091215Y-92776210D01*
X177072063Y-92709017D01*
X177092278Y-92642136D01*
X177143655Y-92597618D01*
X177149756Y-92594773D01*
X177186749Y-92577523D01*
X177374300Y-92446198D01*
X177536198Y-92284300D01*
X177667523Y-92096749D01*
X177764284Y-91889243D01*
X177823543Y-91668087D01*
X177843498Y-91440000D01*
X177843497Y-91439994D01*
X177823543Y-91211918D01*
X177823543Y-91211913D01*
X177764284Y-90990757D01*
X177667523Y-90783251D01*
X177536198Y-90595700D01*
X177374300Y-90433802D01*
X177186749Y-90302477D01*
X177178889Y-90298812D01*
X177143655Y-90282382D01*
X177091215Y-90236210D01*
X177072063Y-90169017D01*
X177092278Y-90102136D01*
X177143655Y-90057618D01*
X177146882Y-90056112D01*
X177186749Y-90037523D01*
X177374300Y-89906198D01*
X177536198Y-89744300D01*
X177667523Y-89556749D01*
X177764284Y-89349243D01*
X177823543Y-89128087D01*
X177843498Y-88900000D01*
X177823543Y-88671913D01*
X177764284Y-88450757D01*
X177667523Y-88243251D01*
X177536198Y-88055700D01*
X177374300Y-87893802D01*
X177186749Y-87762477D01*
X177178889Y-87758812D01*
X177143655Y-87742382D01*
X177091215Y-87696210D01*
X177072063Y-87629017D01*
X177092278Y-87562136D01*
X177143655Y-87517618D01*
X177146882Y-87516112D01*
X177186749Y-87497523D01*
X177374300Y-87366198D01*
X177536198Y-87204300D01*
X177667523Y-87016749D01*
X177764284Y-86809243D01*
X177823543Y-86588087D01*
X177843498Y-86360000D01*
X177823543Y-86131913D01*
X177764284Y-85910757D01*
X177667523Y-85703251D01*
X177536198Y-85515700D01*
X177374300Y-85353802D01*
X177186749Y-85222477D01*
X177178889Y-85218812D01*
X177143655Y-85202382D01*
X177091215Y-85156210D01*
X177072063Y-85089017D01*
X177092278Y-85022136D01*
X177143655Y-84977618D01*
X177146882Y-84976112D01*
X177186749Y-84957523D01*
X177374300Y-84826198D01*
X177536198Y-84664300D01*
X177667523Y-84476749D01*
X177764284Y-84269243D01*
X177823543Y-84048087D01*
X177843498Y-83820000D01*
X177823543Y-83591913D01*
X177764284Y-83370757D01*
X177746869Y-83333411D01*
X177687051Y-83205130D01*
X177667523Y-83163251D01*
X177536198Y-82975700D01*
X177374300Y-82813802D01*
X177186749Y-82682477D01*
X177178889Y-82678812D01*
X177143655Y-82662382D01*
X177091215Y-82616210D01*
X177072063Y-82549017D01*
X177092278Y-82482136D01*
X177143655Y-82437618D01*
X177146882Y-82436112D01*
X177186749Y-82417523D01*
X177374300Y-82286198D01*
X177536198Y-82124300D01*
X177667523Y-81936749D01*
X177764284Y-81729243D01*
X177823543Y-81508087D01*
X177843498Y-81280000D01*
X177823543Y-81051913D01*
X177764284Y-80830757D01*
X177667523Y-80623251D01*
X177536198Y-80435700D01*
X177374300Y-80273802D01*
X177186749Y-80142477D01*
X177178889Y-80138812D01*
X177143655Y-80122382D01*
X177091215Y-80076210D01*
X177072063Y-80009017D01*
X177092278Y-79942136D01*
X177143655Y-79897618D01*
X177146882Y-79896112D01*
X177186749Y-79877523D01*
X177374300Y-79746198D01*
X177536198Y-79584300D01*
X177667523Y-79396749D01*
X177764284Y-79189243D01*
X177823543Y-78968087D01*
X177843498Y-78740000D01*
X177823543Y-78511913D01*
X177764284Y-78290757D01*
X177667523Y-78083251D01*
X177536198Y-77895700D01*
X177374300Y-77733802D01*
X177186749Y-77602477D01*
X177186743Y-77602474D01*
X177143653Y-77582380D01*
X177091214Y-77536207D01*
X177072063Y-77469014D01*
X177092280Y-77402133D01*
X177143654Y-77357618D01*
X177186749Y-77337523D01*
X177374300Y-77206198D01*
X177536198Y-77044300D01*
X177667523Y-76856749D01*
X177764284Y-76649243D01*
X177823543Y-76428087D01*
X177843498Y-76200000D01*
X177823543Y-75971913D01*
X177764284Y-75750757D01*
X177667523Y-75543251D01*
X177536198Y-75355700D01*
X177374300Y-75193802D01*
X177366628Y-75188430D01*
X177323006Y-75133853D01*
X177315814Y-75064355D01*
X177347338Y-75002001D01*
X177407568Y-74966588D01*
X177424489Y-74963570D01*
X177439201Y-74961989D01*
X177576204Y-74910889D01*
X177693261Y-74823261D01*
X177780889Y-74706204D01*
X177831989Y-74569201D01*
X177836462Y-74527598D01*
X177838499Y-74508654D01*
X177838500Y-74508637D01*
X177838500Y-72811362D01*
X177838499Y-72811345D01*
X177835157Y-72780270D01*
X177831989Y-72750799D01*
X177780889Y-72613796D01*
X177693261Y-72496739D01*
X177576204Y-72409111D01*
X177576202Y-72409110D01*
X177576204Y-72409110D01*
X177525849Y-72390329D01*
X177469915Y-72348458D01*
X177445499Y-72282993D01*
X177460351Y-72214720D01*
X177481499Y-72186470D01*
X177759151Y-71908818D01*
X177820474Y-71875334D01*
X177846832Y-71872500D01*
X184357168Y-71872500D01*
X184424207Y-71892185D01*
G37*
%TD.AperFunction*%
%TA.AperFunction,Conductor*%
G36*
X195830000Y-101164498D02*
G01*
X195722315Y-101115320D01*
X195615763Y-101100000D01*
X195544237Y-101100000D01*
X195437685Y-101115320D01*
X195330000Y-101164498D01*
X195330000Y-99495501D01*
X195437685Y-99544680D01*
X195544237Y-99560000D01*
X195615763Y-99560000D01*
X195722315Y-99544680D01*
X195830000Y-99495501D01*
X195830000Y-101164498D01*
G37*
%TD.AperFunction*%
%TA.AperFunction,Conductor*%
G36*
X195830000Y-98624498D02*
G01*
X195722315Y-98575320D01*
X195615763Y-98560000D01*
X195544237Y-98560000D01*
X195437685Y-98575320D01*
X195330000Y-98624498D01*
X195330000Y-96955501D01*
X195437685Y-97004680D01*
X195544237Y-97020000D01*
X195615763Y-97020000D01*
X195722315Y-97004680D01*
X195830000Y-96955501D01*
X195830000Y-98624498D01*
G37*
%TD.AperFunction*%
%TA.AperFunction,Conductor*%
G36*
X195830000Y-96084498D02*
G01*
X195722315Y-96035320D01*
X195615763Y-96020000D01*
X195544237Y-96020000D01*
X195437685Y-96035320D01*
X195330000Y-96084498D01*
X195330000Y-94415501D01*
X195437685Y-94464680D01*
X195544237Y-94480000D01*
X195615763Y-94480000D01*
X195722315Y-94464680D01*
X195830000Y-94415501D01*
X195830000Y-96084498D01*
G37*
%TD.AperFunction*%
%TA.AperFunction,Conductor*%
G36*
X195830000Y-93544498D02*
G01*
X195722315Y-93495320D01*
X195615763Y-93480000D01*
X195544237Y-93480000D01*
X195437685Y-93495320D01*
X195330000Y-93544498D01*
X195330000Y-91875501D01*
X195437685Y-91924680D01*
X195544237Y-91940000D01*
X195615763Y-91940000D01*
X195722315Y-91924680D01*
X195830000Y-91875501D01*
X195830000Y-93544498D01*
G37*
%TD.AperFunction*%
%TA.AperFunction,Conductor*%
G36*
X195830000Y-91004498D02*
G01*
X195722315Y-90955320D01*
X195615763Y-90940000D01*
X195544237Y-90940000D01*
X195437685Y-90955320D01*
X195330000Y-91004498D01*
X195330000Y-89335501D01*
X195437685Y-89384680D01*
X195544237Y-89400000D01*
X195615763Y-89400000D01*
X195722315Y-89384680D01*
X195830000Y-89335501D01*
X195830000Y-91004498D01*
G37*
%TD.AperFunction*%
%TA.AperFunction,Conductor*%
G36*
X195830000Y-88464498D02*
G01*
X195722315Y-88415320D01*
X195615763Y-88400000D01*
X195544237Y-88400000D01*
X195437685Y-88415320D01*
X195330000Y-88464498D01*
X195330000Y-86795501D01*
X195437685Y-86844680D01*
X195544237Y-86860000D01*
X195615763Y-86860000D01*
X195722315Y-86844680D01*
X195830000Y-86795501D01*
X195830000Y-88464498D01*
G37*
%TD.AperFunction*%
%TA.AperFunction,Conductor*%
G36*
X195830000Y-85924498D02*
G01*
X195722315Y-85875320D01*
X195615763Y-85860000D01*
X195544237Y-85860000D01*
X195437685Y-85875320D01*
X195330000Y-85924498D01*
X195330000Y-84255501D01*
X195437685Y-84304680D01*
X195544237Y-84320000D01*
X195615763Y-84320000D01*
X195722315Y-84304680D01*
X195830000Y-84255501D01*
X195830000Y-85924498D01*
G37*
%TD.AperFunction*%
%TA.AperFunction,Conductor*%
G36*
X195830000Y-83384498D02*
G01*
X195722315Y-83335320D01*
X195615763Y-83320000D01*
X195544237Y-83320000D01*
X195437685Y-83335320D01*
X195330000Y-83384498D01*
X195330000Y-81715501D01*
X195437685Y-81764680D01*
X195544237Y-81780000D01*
X195615763Y-81780000D01*
X195722315Y-81764680D01*
X195830000Y-81715501D01*
X195830000Y-83384498D01*
G37*
%TD.AperFunction*%
%TA.AperFunction,Conductor*%
G36*
X195830000Y-80844498D02*
G01*
X195722315Y-80795320D01*
X195615763Y-80780000D01*
X195544237Y-80780000D01*
X195437685Y-80795320D01*
X195330000Y-80844498D01*
X195330000Y-79175501D01*
X195437685Y-79224680D01*
X195544237Y-79240000D01*
X195615763Y-79240000D01*
X195722315Y-79224680D01*
X195830000Y-79175501D01*
X195830000Y-80844498D01*
G37*
%TD.AperFunction*%
%TA.AperFunction,Conductor*%
G36*
X195830000Y-78304498D02*
G01*
X195722315Y-78255320D01*
X195615763Y-78240000D01*
X195544237Y-78240000D01*
X195437685Y-78255320D01*
X195330000Y-78304498D01*
X195330000Y-76635501D01*
X195437685Y-76684680D01*
X195544237Y-76700000D01*
X195615763Y-76700000D01*
X195722315Y-76684680D01*
X195830000Y-76635501D01*
X195830000Y-78304498D01*
G37*
%TD.AperFunction*%
%TA.AperFunction,Conductor*%
G36*
X195830000Y-75764498D02*
G01*
X195722315Y-75715320D01*
X195615763Y-75700000D01*
X195544237Y-75700000D01*
X195437685Y-75715320D01*
X195330000Y-75764498D01*
X195330000Y-74095501D01*
X195437685Y-74144680D01*
X195544237Y-74160000D01*
X195615763Y-74160000D01*
X195722315Y-74144680D01*
X195830000Y-74095501D01*
X195830000Y-75764498D01*
G37*
%TD.AperFunction*%
%TA.AperFunction,Conductor*%
G36*
X195830000Y-73224498D02*
G01*
X195722315Y-73175320D01*
X195615763Y-73160000D01*
X195544237Y-73160000D01*
X195437685Y-73175320D01*
X195330000Y-73224498D01*
X195330000Y-71555501D01*
X195437685Y-71604680D01*
X195544237Y-71620000D01*
X195615763Y-71620000D01*
X195722315Y-71604680D01*
X195830000Y-71555501D01*
X195830000Y-73224498D01*
G37*
%TD.AperFunction*%
%TA.AperFunction,Conductor*%
G36*
X194311513Y-58420575D02*
G01*
X194374875Y-58423687D01*
X194462455Y-58427989D01*
X194688034Y-58439812D01*
X194693842Y-58440393D01*
X194873383Y-58467025D01*
X195070138Y-58498188D01*
X195075449Y-58499271D01*
X195256852Y-58544711D01*
X195417397Y-58587730D01*
X195444283Y-58594934D01*
X195449127Y-58596446D01*
X195627420Y-58660240D01*
X195806749Y-58729078D01*
X195810992Y-58730893D01*
X195983402Y-58812437D01*
X196153703Y-58899210D01*
X196157403Y-58901259D01*
X196321713Y-58999743D01*
X196481623Y-59103590D01*
X196484789Y-59105789D01*
X196639105Y-59220237D01*
X196787201Y-59340162D01*
X196789820Y-59342407D01*
X196931313Y-59470648D01*
X196933517Y-59472747D01*
X197067251Y-59606481D01*
X197069350Y-59608685D01*
X197197591Y-59750178D01*
X197199836Y-59752797D01*
X197319762Y-59900894D01*
X197434209Y-60055209D01*
X197436408Y-60058375D01*
X197540260Y-60218292D01*
X197638730Y-60382579D01*
X197640794Y-60386307D01*
X197727567Y-60556609D01*
X197809094Y-60728982D01*
X197810930Y-60733274D01*
X197879762Y-60912588D01*
X197943552Y-61090873D01*
X197945064Y-61095715D01*
X197995295Y-61283174D01*
X198040721Y-61464524D01*
X198041816Y-61469893D01*
X198072980Y-61666660D01*
X198099602Y-61846131D01*
X198100188Y-61851987D01*
X198112014Y-62077627D01*
X198119425Y-62228487D01*
X198119500Y-62231530D01*
X198119500Y-118108469D01*
X198119425Y-118111512D01*
X198112014Y-118262372D01*
X198100188Y-118488011D01*
X198099602Y-118493867D01*
X198072980Y-118673339D01*
X198041816Y-118870105D01*
X198040721Y-118875474D01*
X197995295Y-119056825D01*
X197945064Y-119244283D01*
X197943552Y-119249124D01*
X197879762Y-119427411D01*
X197810930Y-119606725D01*
X197809094Y-119611016D01*
X197727567Y-119783390D01*
X197640793Y-119953691D01*
X197638730Y-119957419D01*
X197540260Y-120121707D01*
X197436408Y-120281623D01*
X197434209Y-120284789D01*
X197319762Y-120439105D01*
X197199835Y-120587201D01*
X197197591Y-120589820D01*
X197069350Y-120731313D01*
X197067251Y-120733517D01*
X196933517Y-120867251D01*
X196931313Y-120869350D01*
X196789820Y-120997591D01*
X196787201Y-120999835D01*
X196639105Y-121119762D01*
X196484789Y-121234209D01*
X196481623Y-121236408D01*
X196321707Y-121340260D01*
X196157419Y-121438730D01*
X196153691Y-121440793D01*
X195983390Y-121527567D01*
X195811016Y-121609094D01*
X195806725Y-121610930D01*
X195627411Y-121679762D01*
X195449124Y-121743552D01*
X195444283Y-121745064D01*
X195256825Y-121795295D01*
X195075474Y-121840721D01*
X195070105Y-121841816D01*
X194873339Y-121872980D01*
X194693867Y-121899602D01*
X194688011Y-121900188D01*
X194462372Y-121912014D01*
X194311513Y-121919425D01*
X194308470Y-121919500D01*
X166371530Y-121919500D01*
X166368487Y-121919425D01*
X166217627Y-121912014D01*
X165991987Y-121900188D01*
X165986131Y-121899602D01*
X165806660Y-121872980D01*
X165609893Y-121841816D01*
X165604524Y-121840721D01*
X165423174Y-121795295D01*
X165235715Y-121745064D01*
X165230873Y-121743552D01*
X165052588Y-121679762D01*
X164873274Y-121610930D01*
X164868982Y-121609094D01*
X164696609Y-121527567D01*
X164526307Y-121440794D01*
X164522579Y-121438730D01*
X164358292Y-121340260D01*
X164198375Y-121236408D01*
X164195209Y-121234209D01*
X164040894Y-121119762D01*
X163892797Y-120999836D01*
X163890178Y-120997591D01*
X163748685Y-120869350D01*
X163746481Y-120867251D01*
X163612747Y-120733517D01*
X163610648Y-120731313D01*
X163556945Y-120672061D01*
X163482407Y-120589820D01*
X163480162Y-120587201D01*
X163360237Y-120439105D01*
X163245789Y-120284789D01*
X163243590Y-120281623D01*
X163139739Y-120121707D01*
X163109557Y-120071351D01*
X163041259Y-119957403D01*
X163039210Y-119953703D01*
X162952432Y-119783390D01*
X162932460Y-119741163D01*
X162870893Y-119610992D01*
X162869078Y-119606749D01*
X162800237Y-119427411D01*
X162736446Y-119249124D01*
X162734934Y-119244283D01*
X162701253Y-119118586D01*
X162684711Y-119056852D01*
X162639271Y-118875449D01*
X162638188Y-118870138D01*
X162607019Y-118673339D01*
X162601703Y-118637500D01*
X162580393Y-118493842D01*
X162579812Y-118488034D01*
X162567989Y-118262455D01*
X162563687Y-118174875D01*
X162560575Y-118111513D01*
X162560500Y-118108471D01*
X162560500Y-116840002D01*
X164326640Y-116840002D01*
X164346063Y-117198234D01*
X164404106Y-117552279D01*
X164404107Y-117552282D01*
X164500082Y-117897955D01*
X164500083Y-117897957D01*
X164632872Y-118231233D01*
X164632881Y-118231251D01*
X164701560Y-118360794D01*
X164789646Y-118526941D01*
X164800928Y-118548220D01*
X164800929Y-118548223D01*
X165002256Y-118845157D01*
X165002264Y-118845167D01*
X165182048Y-119056825D01*
X165234516Y-119118595D01*
X165494977Y-119365317D01*
X165780586Y-119582431D01*
X166087995Y-119767393D01*
X166087997Y-119767394D01*
X166087999Y-119767395D01*
X166088003Y-119767397D01*
X166387127Y-119905786D01*
X166413599Y-119918033D01*
X166753583Y-120032587D01*
X167103958Y-120109711D01*
X167460618Y-120148500D01*
X167460624Y-120148500D01*
X167819376Y-120148500D01*
X167819382Y-120148500D01*
X168176042Y-120109711D01*
X168526417Y-120032587D01*
X168866401Y-119918033D01*
X169192005Y-119767393D01*
X169499414Y-119582431D01*
X169785023Y-119365317D01*
X170045484Y-119118595D01*
X170277742Y-118845159D01*
X170394239Y-118673339D01*
X170479070Y-118548223D01*
X170479070Y-118548221D01*
X170479075Y-118548215D01*
X170647123Y-118231243D01*
X170779915Y-117897961D01*
X170789936Y-117861871D01*
X170826826Y-117729001D01*
X175794891Y-117729001D01*
X175815300Y-118014362D01*
X175876109Y-118293895D01*
X175976091Y-118561958D01*
X176113191Y-118813038D01*
X176113196Y-118813046D01*
X176219882Y-118955561D01*
X176219883Y-118955562D01*
X177115195Y-118060250D01*
X177137340Y-118111587D01*
X177243433Y-118254094D01*
X177379530Y-118368294D01*
X177469216Y-118413335D01*
X176573436Y-119309115D01*
X176715960Y-119415807D01*
X176715961Y-119415808D01*
X176967042Y-119552908D01*
X176967041Y-119552908D01*
X177235104Y-119652890D01*
X177514637Y-119713699D01*
X177799999Y-119734109D01*
X177800001Y-119734109D01*
X178085362Y-119713699D01*
X178364895Y-119652890D01*
X178632958Y-119552908D01*
X178884047Y-119415803D01*
X179026561Y-119309116D01*
X179026562Y-119309115D01*
X178133748Y-118416300D01*
X178143409Y-118412784D01*
X178291844Y-118315157D01*
X178413764Y-118185930D01*
X178485768Y-118061215D01*
X179380115Y-118955562D01*
X179380116Y-118955561D01*
X179486803Y-118813047D01*
X179623908Y-118561958D01*
X179723890Y-118293895D01*
X179784699Y-118014362D01*
X179805109Y-117729001D01*
X179805109Y-117728998D01*
X179784699Y-117443637D01*
X179723890Y-117164104D01*
X179623908Y-116896041D01*
X179486808Y-116644961D01*
X179486807Y-116644960D01*
X179380115Y-116502436D01*
X178484803Y-117397747D01*
X178462660Y-117346413D01*
X178356567Y-117203906D01*
X178220470Y-117089706D01*
X178130782Y-117044663D01*
X179026562Y-116148883D01*
X179026561Y-116148882D01*
X178884046Y-116042196D01*
X178884038Y-116042191D01*
X178632957Y-115905091D01*
X178632958Y-115905091D01*
X178364895Y-115805109D01*
X178085362Y-115744300D01*
X177800001Y-115723891D01*
X177799999Y-115723891D01*
X177514637Y-115744300D01*
X177235104Y-115805109D01*
X176967041Y-115905091D01*
X176715961Y-116042191D01*
X176715953Y-116042196D01*
X176573437Y-116148882D01*
X176573436Y-116148883D01*
X177466252Y-117041699D01*
X177456591Y-117045216D01*
X177308156Y-117142843D01*
X177186236Y-117272070D01*
X177114231Y-117396784D01*
X176219883Y-116502436D01*
X176219882Y-116502437D01*
X176113196Y-116644953D01*
X176113191Y-116644961D01*
X175976091Y-116896041D01*
X175876109Y-117164104D01*
X175815300Y-117443637D01*
X175794891Y-117728998D01*
X175794891Y-117729001D01*
X170826826Y-117729001D01*
X170826827Y-117728999D01*
X170875895Y-117552274D01*
X170933936Y-117198237D01*
X170953359Y-116840000D01*
X170951234Y-116800815D01*
X170933936Y-116481765D01*
X170933936Y-116481763D01*
X170875895Y-116127726D01*
X170832673Y-115972057D01*
X170779917Y-115782044D01*
X170779916Y-115782042D01*
X170755395Y-115720500D01*
X170647123Y-115448757D01*
X170479075Y-115131785D01*
X170479071Y-115131779D01*
X170479070Y-115131776D01*
X170277743Y-114834842D01*
X170277735Y-114834832D01*
X170045491Y-114561413D01*
X170045486Y-114561407D01*
X170045484Y-114561405D01*
X169785023Y-114314683D01*
X169785016Y-114314677D01*
X169785013Y-114314675D01*
X169717266Y-114263175D01*
X169499414Y-114097569D01*
X169192005Y-113912607D01*
X169192004Y-113912606D01*
X169192000Y-113912604D01*
X169191996Y-113912602D01*
X168866411Y-113761971D01*
X168866406Y-113761969D01*
X168866401Y-113761967D01*
X168698353Y-113705345D01*
X168526416Y-113647412D01*
X168176040Y-113570288D01*
X167819383Y-113531500D01*
X167819382Y-113531500D01*
X167460618Y-113531500D01*
X167460616Y-113531500D01*
X167103959Y-113570288D01*
X166753583Y-113647412D01*
X166490768Y-113735965D01*
X166413599Y-113761967D01*
X166413596Y-113761968D01*
X166413588Y-113761971D01*
X166088003Y-113912602D01*
X166087999Y-113912604D01*
X165859061Y-114050351D01*
X165780586Y-114097569D01*
X165692060Y-114164864D01*
X165494986Y-114314675D01*
X165494977Y-114314683D01*
X165234513Y-114561407D01*
X165234508Y-114561413D01*
X165002264Y-114834832D01*
X165002256Y-114834842D01*
X164800929Y-115131776D01*
X164800928Y-115131779D01*
X164632881Y-115448748D01*
X164632872Y-115448766D01*
X164500083Y-115782042D01*
X164500082Y-115782044D01*
X164404107Y-116127717D01*
X164404106Y-116127720D01*
X164346063Y-116481765D01*
X164326640Y-116839997D01*
X164326640Y-116840002D01*
X162560500Y-116840002D01*
X162560500Y-97325093D01*
X164641598Y-97325093D01*
X164648783Y-97364304D01*
X164652907Y-97386810D01*
X164653470Y-97390511D01*
X164661034Y-97452796D01*
X164661035Y-97452801D01*
X164664716Y-97462510D01*
X164670738Y-97484110D01*
X164672611Y-97494331D01*
X164698365Y-97551555D01*
X164699798Y-97555015D01*
X164722044Y-97613672D01*
X164722047Y-97613677D01*
X164723293Y-97615482D01*
X164727941Y-97622216D01*
X164738966Y-97641763D01*
X164743225Y-97651227D01*
X164781916Y-97700611D01*
X164784136Y-97703628D01*
X164819783Y-97755271D01*
X164819784Y-97755272D01*
X164819785Y-97755273D01*
X164866772Y-97796900D01*
X164869464Y-97799434D01*
X165654563Y-98584533D01*
X165657115Y-98587245D01*
X165698722Y-98634210D01*
X165698724Y-98634212D01*
X165698727Y-98634215D01*
X165698729Y-98634216D01*
X165698731Y-98634218D01*
X165750373Y-98669865D01*
X165753391Y-98672085D01*
X165802771Y-98710772D01*
X165802770Y-98710772D01*
X165802772Y-98710773D01*
X165802775Y-98710775D01*
X165812241Y-98715035D01*
X165831787Y-98726060D01*
X165840325Y-98731954D01*
X165899017Y-98754212D01*
X165902414Y-98755619D01*
X165937628Y-98771468D01*
X165959667Y-98781388D01*
X165959671Y-98781389D01*
X165969881Y-98783260D01*
X165991500Y-98789286D01*
X166001199Y-98792965D01*
X166001200Y-98792965D01*
X166001204Y-98792966D01*
X166010777Y-98794128D01*
X166074956Y-98821747D01*
X166103221Y-98855222D01*
X166224413Y-99065131D01*
X166224415Y-99065133D01*
X166384072Y-99265338D01*
X166519287Y-99390798D01*
X166571781Y-99439505D01*
X166783355Y-99583754D01*
X166783360Y-99583756D01*
X166783361Y-99583757D01*
X166783362Y-99583758D01*
X166905890Y-99642764D01*
X167014061Y-99694856D01*
X167014062Y-99694856D01*
X167014065Y-99694858D01*
X167108210Y-99723897D01*
X167132885Y-99731509D01*
X167191144Y-99770080D01*
X167219302Y-99834024D01*
X167208418Y-99903041D01*
X167161949Y-99955218D01*
X167132885Y-99968491D01*
X167014061Y-100005143D01*
X166783362Y-100116241D01*
X166783361Y-100116242D01*
X166571780Y-100260495D01*
X166384072Y-100434661D01*
X166224413Y-100634869D01*
X166096378Y-100856630D01*
X166002828Y-101094993D01*
X166002822Y-101095012D01*
X165945844Y-101344651D01*
X165945843Y-101344656D01*
X165926709Y-101599995D01*
X165926709Y-101600004D01*
X165945843Y-101855343D01*
X165945844Y-101855348D01*
X166002822Y-102104987D01*
X166002824Y-102104996D01*
X166002826Y-102105001D01*
X166096378Y-102343369D01*
X166224413Y-102565131D01*
X166318833Y-102683530D01*
X166384072Y-102765338D01*
X166547524Y-102916998D01*
X166571781Y-102939505D01*
X166783355Y-103083754D01*
X166783360Y-103083756D01*
X166783361Y-103083757D01*
X166783362Y-103083758D01*
X166894117Y-103137094D01*
X167014061Y-103194856D01*
X167014062Y-103194856D01*
X167014065Y-103194858D01*
X167108210Y-103223897D01*
X167132885Y-103231509D01*
X167191144Y-103270080D01*
X167219302Y-103334024D01*
X167208418Y-103403041D01*
X167161949Y-103455218D01*
X167132885Y-103468491D01*
X167014061Y-103505143D01*
X166783362Y-103616241D01*
X166783361Y-103616242D01*
X166571780Y-103760495D01*
X166384072Y-103934661D01*
X166224413Y-104134869D01*
X166096378Y-104356630D01*
X166002828Y-104594993D01*
X166002822Y-104595012D01*
X165945844Y-104844651D01*
X165945843Y-104844656D01*
X165926709Y-105099995D01*
X165926709Y-105100004D01*
X165945843Y-105355343D01*
X165945844Y-105355348D01*
X166002822Y-105604987D01*
X166002824Y-105604996D01*
X166002826Y-105605001D01*
X166096378Y-105843369D01*
X166224413Y-106065131D01*
X166316018Y-106180000D01*
X166384072Y-106265338D01*
X166561271Y-106429753D01*
X166571781Y-106439505D01*
X166783355Y-106583754D01*
X166783360Y-106583756D01*
X166783361Y-106583757D01*
X166783362Y-106583758D01*
X166905890Y-106642764D01*
X167014061Y-106694856D01*
X167014062Y-106694856D01*
X167014065Y-106694858D01*
X167093856Y-106719470D01*
X167132885Y-106731509D01*
X167191144Y-106770080D01*
X167219302Y-106834024D01*
X167208418Y-106903041D01*
X167161949Y-106955218D01*
X167132885Y-106968491D01*
X167014061Y-107005143D01*
X166783362Y-107116241D01*
X166783361Y-107116242D01*
X166571780Y-107260495D01*
X166384072Y-107434661D01*
X166224413Y-107634869D01*
X166096378Y-107856630D01*
X166002828Y-108094993D01*
X166002822Y-108095012D01*
X165945844Y-108344651D01*
X165945843Y-108344656D01*
X165926709Y-108599995D01*
X165926709Y-108600004D01*
X165945843Y-108855343D01*
X165945844Y-108855348D01*
X166002822Y-109104987D01*
X166002824Y-109104996D01*
X166002826Y-109105001D01*
X166096378Y-109343369D01*
X166224413Y-109565131D01*
X166353367Y-109726835D01*
X166384072Y-109765338D01*
X166551572Y-109920754D01*
X166571781Y-109939505D01*
X166783355Y-110083754D01*
X166783360Y-110083756D01*
X166783361Y-110083757D01*
X166783362Y-110083758D01*
X166905890Y-110142764D01*
X167014061Y-110194856D01*
X167014062Y-110194856D01*
X167014065Y-110194858D01*
X167258757Y-110270335D01*
X167258758Y-110270335D01*
X167258761Y-110270336D01*
X167511958Y-110308499D01*
X167511963Y-110308499D01*
X167511966Y-110308500D01*
X167511967Y-110308500D01*
X167768033Y-110308500D01*
X167768034Y-110308500D01*
X167768041Y-110308499D01*
X168021238Y-110270336D01*
X168021239Y-110270335D01*
X168021243Y-110270335D01*
X168265935Y-110194858D01*
X168496646Y-110083754D01*
X168708219Y-109939505D01*
X168894553Y-109766613D01*
X168895927Y-109765338D01*
X168895927Y-109765336D01*
X168895931Y-109765334D01*
X169055587Y-109565131D01*
X169167957Y-109370500D01*
X169218525Y-109322284D01*
X169275345Y-109308500D01*
X173025168Y-109308500D01*
X173092207Y-109328185D01*
X173112848Y-109344818D01*
X173310563Y-109542533D01*
X173313115Y-109545245D01*
X173354722Y-109592210D01*
X173354724Y-109592212D01*
X173354727Y-109592215D01*
X173406377Y-109627867D01*
X173409368Y-109630067D01*
X173458774Y-109668775D01*
X173468239Y-109673035D01*
X173487783Y-109684058D01*
X173496325Y-109689954D01*
X173554984Y-109712200D01*
X173558439Y-109713630D01*
X173558460Y-109713640D01*
X173615667Y-109739387D01*
X173615671Y-109739389D01*
X173625881Y-109741260D01*
X173647500Y-109747286D01*
X173657199Y-109750965D01*
X173719480Y-109758527D01*
X173723184Y-109759091D01*
X173738096Y-109761823D01*
X173784908Y-109770402D01*
X173784909Y-109770401D01*
X173784910Y-109770402D01*
X173847552Y-109766613D01*
X173851296Y-109766500D01*
X178025238Y-109766500D01*
X178028983Y-109766613D01*
X178033140Y-109766864D01*
X178091621Y-109770402D01*
X178153346Y-109759090D01*
X178157042Y-109758527D01*
X178219329Y-109750965D01*
X178229027Y-109747286D01*
X178250644Y-109741260D01*
X178260857Y-109739389D01*
X178318105Y-109713622D01*
X178321506Y-109712213D01*
X178380203Y-109689954D01*
X178388741Y-109684060D01*
X178408292Y-109673033D01*
X178417754Y-109668775D01*
X178467168Y-109630060D01*
X178470143Y-109627870D01*
X178521801Y-109592215D01*
X178563444Y-109545208D01*
X178565963Y-109542533D01*
X180154533Y-107953963D01*
X180157208Y-107951444D01*
X180204215Y-107909801D01*
X180239870Y-107858144D01*
X180242062Y-107855164D01*
X180280775Y-107805753D01*
X180285031Y-107796295D01*
X180296064Y-107776736D01*
X180301951Y-107768207D01*
X180301953Y-107768204D01*
X180301952Y-107768204D01*
X180301954Y-107768203D01*
X180324204Y-107709531D01*
X180325628Y-107706091D01*
X180351389Y-107648857D01*
X180353260Y-107638644D01*
X180359288Y-107617023D01*
X180362675Y-107608093D01*
X180362965Y-107607329D01*
X180370527Y-107545049D01*
X180371090Y-107541345D01*
X180382402Y-107479620D01*
X180381170Y-107459259D01*
X180378613Y-107416975D01*
X180378500Y-107413231D01*
X180378500Y-98804831D01*
X180398185Y-98737792D01*
X180414819Y-98717150D01*
X181867151Y-97264819D01*
X181928474Y-97231334D01*
X181954832Y-97228500D01*
X182984164Y-97228500D01*
X183051203Y-97248185D01*
X183085738Y-97281376D01*
X183143802Y-97364300D01*
X183305700Y-97526198D01*
X183493251Y-97657523D01*
X183536345Y-97677618D01*
X183588784Y-97723791D01*
X183607936Y-97790984D01*
X183587720Y-97857865D01*
X183536345Y-97902382D01*
X183493251Y-97922476D01*
X183392965Y-97992698D01*
X183305700Y-98053802D01*
X183305698Y-98053803D01*
X183305695Y-98053806D01*
X183143806Y-98215695D01*
X183143803Y-98215698D01*
X183143802Y-98215700D01*
X183085716Y-98298655D01*
X183012476Y-98403252D01*
X183012475Y-98403254D01*
X182915718Y-98610750D01*
X182915714Y-98610761D01*
X182856457Y-98831910D01*
X182856456Y-98831918D01*
X182836502Y-99059998D01*
X182836502Y-99060001D01*
X182856456Y-99288081D01*
X182856457Y-99288089D01*
X182915714Y-99509238D01*
X182915718Y-99509249D01*
X183012475Y-99716745D01*
X183012477Y-99716749D01*
X183143802Y-99904300D01*
X183305700Y-100066198D01*
X183493251Y-100197522D01*
X183493251Y-100197523D01*
X183546401Y-100222307D01*
X183598840Y-100268479D01*
X183617992Y-100335673D01*
X183597776Y-100402554D01*
X183546401Y-100447071D01*
X183497517Y-100469865D01*
X183311179Y-100600342D01*
X183150342Y-100761179D01*
X183019865Y-100947517D01*
X182923734Y-101153673D01*
X182923730Y-101153682D01*
X182871127Y-101349999D01*
X182871128Y-101350000D01*
X183834314Y-101350000D01*
X183822359Y-101361955D01*
X183764835Y-101474852D01*
X183745014Y-101600000D01*
X183764835Y-101725148D01*
X183822359Y-101838045D01*
X183834314Y-101850000D01*
X182871128Y-101850000D01*
X182923730Y-102046317D01*
X182923734Y-102046326D01*
X183019865Y-102252482D01*
X183150342Y-102438820D01*
X183311179Y-102599657D01*
X183497517Y-102730134D01*
X183556457Y-102757618D01*
X183608896Y-102803790D01*
X183628048Y-102870984D01*
X183607832Y-102937865D01*
X183556457Y-102982382D01*
X183497517Y-103009865D01*
X183311179Y-103140342D01*
X183150342Y-103301179D01*
X183019865Y-103487517D01*
X182923734Y-103693673D01*
X182923730Y-103693682D01*
X182871127Y-103889999D01*
X182871128Y-103890000D01*
X183834314Y-103890000D01*
X183822359Y-103901955D01*
X183764835Y-104014852D01*
X183745014Y-104140000D01*
X183764835Y-104265148D01*
X183822359Y-104378045D01*
X183834314Y-104390000D01*
X182871128Y-104390000D01*
X182923730Y-104586317D01*
X182923734Y-104586326D01*
X183019865Y-104792482D01*
X183150342Y-104978820D01*
X183311179Y-105139657D01*
X183497517Y-105270134D01*
X183556457Y-105297618D01*
X183608896Y-105343790D01*
X183628048Y-105410984D01*
X183607832Y-105477865D01*
X183556457Y-105522382D01*
X183497517Y-105549865D01*
X183311179Y-105680342D01*
X183150342Y-105841179D01*
X183019865Y-106027517D01*
X182923734Y-106233673D01*
X182923730Y-106233682D01*
X182871127Y-106429999D01*
X182871128Y-106430000D01*
X183834314Y-106430000D01*
X183822359Y-106441955D01*
X183764835Y-106554852D01*
X183745014Y-106680000D01*
X183764835Y-106805148D01*
X183822359Y-106918045D01*
X183834314Y-106930000D01*
X182871128Y-106930000D01*
X182923730Y-107126317D01*
X182923734Y-107126326D01*
X183019865Y-107332482D01*
X183150342Y-107518820D01*
X183311179Y-107679657D01*
X183497517Y-107810134D01*
X183703673Y-107906265D01*
X183703682Y-107906269D01*
X183899999Y-107958872D01*
X183900000Y-107958871D01*
X183900000Y-106995685D01*
X183911955Y-107007641D01*
X184024852Y-107065165D01*
X184118519Y-107080000D01*
X184181481Y-107080000D01*
X184275148Y-107065165D01*
X184388045Y-107007641D01*
X184400000Y-106995686D01*
X184400000Y-107958872D01*
X184596317Y-107906269D01*
X184596326Y-107906265D01*
X184802482Y-107810134D01*
X184988820Y-107679657D01*
X185149657Y-107518820D01*
X185280134Y-107332482D01*
X185376265Y-107126326D01*
X185376269Y-107126317D01*
X185428872Y-106930000D01*
X184465686Y-106930000D01*
X184477641Y-106918045D01*
X184535165Y-106805148D01*
X184554986Y-106680000D01*
X184535165Y-106554852D01*
X184477641Y-106441955D01*
X184465686Y-106430000D01*
X185428872Y-106430000D01*
X185428872Y-106429999D01*
X185376269Y-106233682D01*
X185376265Y-106233673D01*
X185280134Y-106027517D01*
X185149657Y-105841179D01*
X184988820Y-105680342D01*
X184802481Y-105549865D01*
X184802479Y-105549864D01*
X184743543Y-105522382D01*
X184691103Y-105476210D01*
X184671951Y-105409017D01*
X184692166Y-105342136D01*
X184743543Y-105297618D01*
X184802479Y-105270135D01*
X184802481Y-105270134D01*
X184988820Y-105139657D01*
X185149657Y-104978820D01*
X185280134Y-104792482D01*
X185376265Y-104586326D01*
X185376269Y-104586317D01*
X185428872Y-104390000D01*
X184465686Y-104390000D01*
X184477641Y-104378045D01*
X184535165Y-104265148D01*
X184554986Y-104140000D01*
X184535165Y-104014852D01*
X184477641Y-103901955D01*
X184465686Y-103890000D01*
X185428872Y-103890000D01*
X185428872Y-103889999D01*
X185376269Y-103693682D01*
X185376265Y-103693673D01*
X185280134Y-103487517D01*
X185149657Y-103301179D01*
X184988820Y-103140342D01*
X184802481Y-103009865D01*
X184802479Y-103009864D01*
X184743543Y-102982382D01*
X184691103Y-102936210D01*
X184671951Y-102869017D01*
X184692166Y-102802136D01*
X184743543Y-102757618D01*
X184802479Y-102730135D01*
X184802481Y-102730134D01*
X184988820Y-102599657D01*
X185149657Y-102438820D01*
X185280134Y-102252482D01*
X185376265Y-102046326D01*
X185376269Y-102046317D01*
X185428872Y-101850000D01*
X184465686Y-101850000D01*
X184477641Y-101838045D01*
X184535165Y-101725148D01*
X184554986Y-101600000D01*
X184535165Y-101474852D01*
X184477641Y-101361955D01*
X184465686Y-101350000D01*
X185428872Y-101350000D01*
X185428872Y-101349999D01*
X185376269Y-101153682D01*
X185376265Y-101153673D01*
X185280134Y-100947517D01*
X185149657Y-100761179D01*
X184988820Y-100600342D01*
X184802481Y-100469865D01*
X184802479Y-100469864D01*
X184753599Y-100447071D01*
X184701159Y-100400899D01*
X184682007Y-100333706D01*
X184702223Y-100266824D01*
X184753599Y-100222307D01*
X184756520Y-100220945D01*
X184806749Y-100197523D01*
X184994300Y-100066198D01*
X185156198Y-99904300D01*
X185287523Y-99716749D01*
X185384284Y-99509243D01*
X185443543Y-99288087D01*
X185463498Y-99060000D01*
X185443543Y-98831913D01*
X185384284Y-98610757D01*
X185367222Y-98574168D01*
X185345736Y-98528091D01*
X185287523Y-98403251D01*
X185156198Y-98215700D01*
X184994300Y-98053802D01*
X184806749Y-97922477D01*
X184798889Y-97918812D01*
X184763655Y-97902382D01*
X184711215Y-97856210D01*
X184692063Y-97789017D01*
X184712278Y-97722136D01*
X184763655Y-97677618D01*
X184766882Y-97676112D01*
X184806749Y-97657523D01*
X184994300Y-97526198D01*
X185156198Y-97364300D01*
X185287523Y-97176749D01*
X185384284Y-96969243D01*
X185443543Y-96748087D01*
X185460647Y-96552583D01*
X185463498Y-96520001D01*
X185463498Y-96519998D01*
X185448555Y-96349199D01*
X185443543Y-96291913D01*
X185384284Y-96070757D01*
X185287523Y-95863251D01*
X185156198Y-95675700D01*
X184994300Y-95513802D01*
X184806749Y-95382477D01*
X184798889Y-95378812D01*
X184763655Y-95362382D01*
X184711215Y-95316210D01*
X184692063Y-95249017D01*
X184712278Y-95182136D01*
X184763655Y-95137618D01*
X184766882Y-95136112D01*
X184806749Y-95117523D01*
X184994300Y-94986198D01*
X185156198Y-94824300D01*
X185287523Y-94636749D01*
X185384284Y-94429243D01*
X185443543Y-94208087D01*
X185463498Y-93980000D01*
X185443543Y-93751913D01*
X185384284Y-93530757D01*
X185366558Y-93492744D01*
X185328036Y-93410132D01*
X185287523Y-93323251D01*
X185156198Y-93135700D01*
X184994300Y-92973802D01*
X184806749Y-92842477D01*
X184798889Y-92838812D01*
X184763655Y-92822382D01*
X184711215Y-92776210D01*
X184692063Y-92709017D01*
X184712278Y-92642136D01*
X184763655Y-92597618D01*
X184769756Y-92594773D01*
X184806749Y-92577523D01*
X184994300Y-92446198D01*
X185156198Y-92284300D01*
X185214261Y-92201376D01*
X185268837Y-92157752D01*
X185315836Y-92148500D01*
X187107168Y-92148500D01*
X187174207Y-92168185D01*
X187194849Y-92184819D01*
X187723181Y-92713150D01*
X187756666Y-92774473D01*
X187759500Y-92800831D01*
X187759500Y-108688709D01*
X187759387Y-108692454D01*
X187755598Y-108755089D01*
X187755598Y-108755092D01*
X187766907Y-108816810D01*
X187767470Y-108820511D01*
X187775034Y-108882796D01*
X187775035Y-108882801D01*
X187778716Y-108892510D01*
X187784738Y-108914110D01*
X187786611Y-108924331D01*
X187812365Y-108981555D01*
X187813798Y-108985015D01*
X187836044Y-109043672D01*
X187836046Y-109043675D01*
X187841941Y-109052216D01*
X187852966Y-109071763D01*
X187857225Y-109081227D01*
X187895916Y-109130611D01*
X187898136Y-109133628D01*
X187933783Y-109185271D01*
X187933784Y-109185272D01*
X187933785Y-109185273D01*
X187980771Y-109226899D01*
X187983463Y-109229433D01*
X188458562Y-109704533D01*
X188461113Y-109707243D01*
X188502727Y-109754215D01*
X188526176Y-109770401D01*
X188554379Y-109789869D01*
X188557379Y-109792076D01*
X188606774Y-109830774D01*
X188606775Y-109830774D01*
X188606776Y-109830775D01*
X188616231Y-109835031D01*
X188635775Y-109846053D01*
X188644322Y-109851952D01*
X188644323Y-109851953D01*
X188644324Y-109851953D01*
X188644325Y-109851954D01*
X188703009Y-109874209D01*
X188706447Y-109875634D01*
X188763670Y-109901388D01*
X188773880Y-109903258D01*
X188795492Y-109909283D01*
X188805199Y-109912965D01*
X188859638Y-109919574D01*
X188867484Y-109920527D01*
X188871190Y-109921091D01*
X188892480Y-109924992D01*
X188932907Y-109932401D01*
X188932907Y-109932400D01*
X188932908Y-109932401D01*
X188995535Y-109928613D01*
X188999279Y-109928500D01*
X189017500Y-109928500D01*
X189084539Y-109948185D01*
X189130294Y-110000989D01*
X189141500Y-110052500D01*
X189141500Y-110118654D01*
X189148011Y-110179202D01*
X189148011Y-110179204D01*
X189197575Y-110312086D01*
X189199111Y-110316204D01*
X189286739Y-110433261D01*
X189403796Y-110520889D01*
X189508701Y-110560017D01*
X189535463Y-110569999D01*
X189540799Y-110571989D01*
X189568050Y-110574918D01*
X189601345Y-110578499D01*
X189601362Y-110578500D01*
X191398638Y-110578500D01*
X191398654Y-110578499D01*
X191426227Y-110575534D01*
X191459201Y-110571989D01*
X191464537Y-110569999D01*
X191502897Y-110555690D01*
X191596204Y-110520889D01*
X191596204Y-110520888D01*
X191596206Y-110520888D01*
X191596207Y-110520887D01*
X191691026Y-110449906D01*
X191695689Y-110446414D01*
X191761153Y-110421997D01*
X191829426Y-110436848D01*
X191844313Y-110446416D01*
X191848601Y-110449626D01*
X191848974Y-110449906D01*
X191890841Y-110505842D01*
X191895820Y-110575534D01*
X191862337Y-110636848D01*
X185715006Y-116784181D01*
X185653683Y-116817666D01*
X185627325Y-116820500D01*
X185012500Y-116820500D01*
X184945461Y-116800815D01*
X184899706Y-116748011D01*
X184888500Y-116696500D01*
X184888500Y-116180362D01*
X184888499Y-116180345D01*
X184882841Y-116127726D01*
X184881989Y-116119799D01*
X184830889Y-115982796D01*
X184743261Y-115865739D01*
X184626204Y-115778111D01*
X184626204Y-115778110D01*
X184489203Y-115727011D01*
X184428654Y-115720500D01*
X184428638Y-115720500D01*
X181331362Y-115720500D01*
X181331345Y-115720500D01*
X181270797Y-115727011D01*
X181270795Y-115727011D01*
X181133795Y-115778111D01*
X181016739Y-115865739D01*
X180929111Y-115982795D01*
X180878011Y-116119795D01*
X180878011Y-116119797D01*
X180871500Y-116180345D01*
X180871500Y-119277654D01*
X180878011Y-119338202D01*
X180878011Y-119338204D01*
X180906957Y-119415808D01*
X180929111Y-119475204D01*
X181016739Y-119592261D01*
X181133796Y-119679889D01*
X181270799Y-119730989D01*
X181298050Y-119733918D01*
X181331345Y-119737499D01*
X181331362Y-119737500D01*
X184428638Y-119737500D01*
X184428654Y-119737499D01*
X184455692Y-119734591D01*
X184489201Y-119730989D01*
X184626204Y-119679889D01*
X184743261Y-119592261D01*
X184830889Y-119475204D01*
X184881989Y-119338201D01*
X184885591Y-119304692D01*
X184888499Y-119277654D01*
X184888500Y-119277637D01*
X184888500Y-118761500D01*
X184908185Y-118694461D01*
X184960989Y-118648706D01*
X185012500Y-118637500D01*
X185973743Y-118637500D01*
X185993142Y-118639027D01*
X186007190Y-118641252D01*
X186077160Y-118637584D01*
X186080404Y-118637500D01*
X186102609Y-118637500D01*
X186102610Y-118637500D01*
X186124710Y-118635177D01*
X186127911Y-118634925D01*
X186197903Y-118631257D01*
X186211648Y-118627573D01*
X186230769Y-118624029D01*
X186244928Y-118622542D01*
X186311618Y-118600872D01*
X186314669Y-118599969D01*
X186382370Y-118581829D01*
X186395040Y-118575372D01*
X186413017Y-118567925D01*
X186426556Y-118563527D01*
X186487270Y-118528472D01*
X186490051Y-118526961D01*
X186552530Y-118495129D01*
X186563599Y-118486165D01*
X186579618Y-118475156D01*
X186591944Y-118468040D01*
X186644058Y-118421115D01*
X186646449Y-118419074D01*
X186663741Y-118405072D01*
X186679465Y-118389346D01*
X186681786Y-118387144D01*
X186733866Y-118340253D01*
X186742231Y-118328738D01*
X186754860Y-118313951D01*
X189914430Y-115154381D01*
X189975751Y-115120898D01*
X190045443Y-115125882D01*
X190101376Y-115167754D01*
X190125793Y-115233218D01*
X190111665Y-115300146D01*
X190032877Y-115448755D01*
X190032872Y-115448766D01*
X189900083Y-115782042D01*
X189900082Y-115782044D01*
X189804107Y-116127717D01*
X189804106Y-116127720D01*
X189746063Y-116481765D01*
X189726640Y-116839997D01*
X189726640Y-116840002D01*
X189746063Y-117198234D01*
X189804106Y-117552279D01*
X189804107Y-117552282D01*
X189900082Y-117897955D01*
X189900083Y-117897957D01*
X190032872Y-118231233D01*
X190032881Y-118231251D01*
X190101560Y-118360794D01*
X190189646Y-118526941D01*
X190200928Y-118548220D01*
X190200929Y-118548223D01*
X190402256Y-118845157D01*
X190402264Y-118845167D01*
X190582048Y-119056825D01*
X190634516Y-119118595D01*
X190894977Y-119365317D01*
X191180586Y-119582431D01*
X191487995Y-119767393D01*
X191487997Y-119767394D01*
X191487999Y-119767395D01*
X191488003Y-119767397D01*
X191787127Y-119905786D01*
X191813599Y-119918033D01*
X192153583Y-120032587D01*
X192503958Y-120109711D01*
X192860618Y-120148500D01*
X192860624Y-120148500D01*
X193219376Y-120148500D01*
X193219382Y-120148500D01*
X193576042Y-120109711D01*
X193926417Y-120032587D01*
X194266401Y-119918033D01*
X194592005Y-119767393D01*
X194899414Y-119582431D01*
X195185023Y-119365317D01*
X195445484Y-119118595D01*
X195677742Y-118845159D01*
X195794239Y-118673339D01*
X195879070Y-118548223D01*
X195879070Y-118548221D01*
X195879075Y-118548215D01*
X196047123Y-118231243D01*
X196179915Y-117897961D01*
X196189936Y-117861871D01*
X196226827Y-117728999D01*
X196275895Y-117552274D01*
X196333936Y-117198237D01*
X196353359Y-116840000D01*
X196351234Y-116800815D01*
X196333936Y-116481765D01*
X196333936Y-116481763D01*
X196275895Y-116127726D01*
X196232673Y-115972057D01*
X196179917Y-115782044D01*
X196179916Y-115782042D01*
X196155395Y-115720500D01*
X196047123Y-115448757D01*
X195879075Y-115131785D01*
X195879071Y-115131779D01*
X195879070Y-115131776D01*
X195677743Y-114834842D01*
X195677735Y-114834832D01*
X195445491Y-114561413D01*
X195445486Y-114561407D01*
X195445484Y-114561405D01*
X195185023Y-114314683D01*
X195185016Y-114314677D01*
X195185013Y-114314675D01*
X195117266Y-114263175D01*
X194899414Y-114097569D01*
X194592005Y-113912607D01*
X194592004Y-113912606D01*
X194592000Y-113912604D01*
X194591996Y-113912602D01*
X194266411Y-113761971D01*
X194266406Y-113761969D01*
X194266401Y-113761967D01*
X194098353Y-113705345D01*
X193926416Y-113647412D01*
X193576040Y-113570288D01*
X193219383Y-113531500D01*
X193219382Y-113531500D01*
X192860618Y-113531500D01*
X192860616Y-113531500D01*
X192503959Y-113570288D01*
X192153583Y-113647412D01*
X191890768Y-113735965D01*
X191813599Y-113761967D01*
X191813596Y-113761968D01*
X191813588Y-113761971D01*
X191503213Y-113905565D01*
X191434104Y-113915849D01*
X191370406Y-113887137D01*
X191332343Y-113828546D01*
X191331999Y-113758677D01*
X191363464Y-113705347D01*
X193624951Y-111443860D01*
X193639738Y-111431231D01*
X193651253Y-111422866D01*
X193698144Y-111370786D01*
X193700346Y-111368465D01*
X193716072Y-111352741D01*
X193730074Y-111335449D01*
X193732115Y-111333058D01*
X193779040Y-111280944D01*
X193786153Y-111268623D01*
X193797173Y-111252589D01*
X193806129Y-111241530D01*
X193837959Y-111179058D01*
X193839484Y-111176251D01*
X193874527Y-111115556D01*
X193878922Y-111102026D01*
X193886365Y-111084056D01*
X193892830Y-111071370D01*
X193910970Y-111003665D01*
X193911889Y-111000566D01*
X193933541Y-110933931D01*
X193933540Y-110933931D01*
X193933542Y-110933928D01*
X193935029Y-110919769D01*
X193938573Y-110900648D01*
X193942257Y-110886903D01*
X193945925Y-110816911D01*
X193946178Y-110813698D01*
X193948500Y-110791610D01*
X193948500Y-110769404D01*
X193948585Y-110766158D01*
X193952252Y-110696190D01*
X193952159Y-110695603D01*
X193952203Y-110695260D01*
X193951912Y-110689699D01*
X193952928Y-110689645D01*
X193961110Y-110626310D01*
X194006103Y-110572855D01*
X194031291Y-110560019D01*
X194136204Y-110520889D01*
X194242782Y-110441105D01*
X194308244Y-110416689D01*
X194376517Y-110431540D01*
X194391402Y-110441106D01*
X194487911Y-110513353D01*
X194487913Y-110513354D01*
X194622620Y-110563596D01*
X194622627Y-110563598D01*
X194682155Y-110569999D01*
X194682172Y-110570000D01*
X195330000Y-110570000D01*
X195330000Y-109655501D01*
X195437685Y-109704680D01*
X195544237Y-109720000D01*
X195615763Y-109720000D01*
X195722315Y-109704680D01*
X195830000Y-109655501D01*
X195830000Y-110570000D01*
X196477828Y-110570000D01*
X196477844Y-110569999D01*
X196537372Y-110563598D01*
X196537379Y-110563596D01*
X196672086Y-110513354D01*
X196672093Y-110513350D01*
X196787187Y-110427190D01*
X196787190Y-110427187D01*
X196873350Y-110312093D01*
X196873354Y-110312086D01*
X196923596Y-110177379D01*
X196923598Y-110177372D01*
X196929999Y-110117844D01*
X196930000Y-110117827D01*
X196930000Y-109470000D01*
X196013686Y-109470000D01*
X196039493Y-109429844D01*
X196080000Y-109291889D01*
X196080000Y-109148111D01*
X196039493Y-109010156D01*
X196013686Y-108970000D01*
X196930000Y-108970000D01*
X196930000Y-108322172D01*
X196929999Y-108322155D01*
X196923598Y-108262627D01*
X196923596Y-108262620D01*
X196873354Y-108127913D01*
X196873350Y-108127906D01*
X196787190Y-108012812D01*
X196787187Y-108012809D01*
X196672093Y-107926649D01*
X196672086Y-107926645D01*
X196540013Y-107877385D01*
X196484079Y-107835514D01*
X196459662Y-107770049D01*
X196474514Y-107701776D01*
X196495665Y-107673521D01*
X196618108Y-107551078D01*
X196753600Y-107357578D01*
X196853429Y-107143492D01*
X196853432Y-107143486D01*
X196910636Y-106930000D01*
X196013686Y-106930000D01*
X196039493Y-106889844D01*
X196080000Y-106751889D01*
X196080000Y-106608111D01*
X196039493Y-106470156D01*
X196013686Y-106430000D01*
X196910636Y-106430000D01*
X196910635Y-106429999D01*
X196853432Y-106216513D01*
X196853429Y-106216507D01*
X196753600Y-106002422D01*
X196753599Y-106002420D01*
X196618113Y-105808926D01*
X196618108Y-105808920D01*
X196451082Y-105641894D01*
X196264968Y-105511575D01*
X196221344Y-105456998D01*
X196214151Y-105387499D01*
X196245673Y-105325145D01*
X196264968Y-105308425D01*
X196451082Y-105178105D01*
X196618105Y-105011082D01*
X196753600Y-104817578D01*
X196853429Y-104603492D01*
X196853432Y-104603486D01*
X196910636Y-104390000D01*
X196013686Y-104390000D01*
X196039493Y-104349844D01*
X196080000Y-104211889D01*
X196080000Y-104068111D01*
X196039493Y-103930156D01*
X196013686Y-103890000D01*
X196910636Y-103890000D01*
X196910635Y-103889999D01*
X196853432Y-103676513D01*
X196853429Y-103676507D01*
X196753600Y-103462422D01*
X196753599Y-103462420D01*
X196618113Y-103268926D01*
X196618108Y-103268920D01*
X196451082Y-103101894D01*
X196264968Y-102971575D01*
X196221344Y-102916998D01*
X196214151Y-102847499D01*
X196245673Y-102785145D01*
X196264968Y-102768425D01*
X196451082Y-102638105D01*
X196618105Y-102471082D01*
X196753600Y-102277578D01*
X196853429Y-102063492D01*
X196853432Y-102063486D01*
X196910636Y-101850000D01*
X196013686Y-101850000D01*
X196039493Y-101809844D01*
X196080000Y-101671889D01*
X196080000Y-101528111D01*
X196039493Y-101390156D01*
X196013686Y-101350000D01*
X196910636Y-101350000D01*
X196910635Y-101349999D01*
X196853432Y-101136513D01*
X196853429Y-101136507D01*
X196753600Y-100922422D01*
X196753599Y-100922420D01*
X196618113Y-100728926D01*
X196618108Y-100728920D01*
X196451082Y-100561894D01*
X196264968Y-100431575D01*
X196221344Y-100376998D01*
X196214151Y-100307499D01*
X196245673Y-100245145D01*
X196264968Y-100228425D01*
X196451082Y-100098105D01*
X196618105Y-99931082D01*
X196753600Y-99737578D01*
X196853429Y-99523492D01*
X196853432Y-99523486D01*
X196910636Y-99310000D01*
X196013686Y-99310000D01*
X196039493Y-99269844D01*
X196080000Y-99131889D01*
X196080000Y-98988111D01*
X196039493Y-98850156D01*
X196013686Y-98810000D01*
X196910636Y-98810000D01*
X196910635Y-98809999D01*
X196853432Y-98596513D01*
X196853429Y-98596507D01*
X196753600Y-98382422D01*
X196753599Y-98382420D01*
X196618113Y-98188926D01*
X196618108Y-98188920D01*
X196451082Y-98021894D01*
X196264968Y-97891575D01*
X196221344Y-97836998D01*
X196214151Y-97767499D01*
X196245673Y-97705145D01*
X196264968Y-97688425D01*
X196451082Y-97558105D01*
X196618105Y-97391082D01*
X196753600Y-97197578D01*
X196853429Y-96983492D01*
X196853432Y-96983486D01*
X196910636Y-96770000D01*
X196013686Y-96770000D01*
X196039493Y-96729844D01*
X196080000Y-96591889D01*
X196080000Y-96448111D01*
X196039493Y-96310156D01*
X196013686Y-96270000D01*
X196910636Y-96270000D01*
X196910635Y-96269999D01*
X196853432Y-96056513D01*
X196853429Y-96056507D01*
X196753600Y-95842422D01*
X196753599Y-95842420D01*
X196618113Y-95648926D01*
X196618108Y-95648920D01*
X196451082Y-95481894D01*
X196264968Y-95351575D01*
X196221344Y-95296998D01*
X196214151Y-95227499D01*
X196245673Y-95165145D01*
X196264968Y-95148425D01*
X196451082Y-95018105D01*
X196618105Y-94851082D01*
X196753600Y-94657578D01*
X196853429Y-94443492D01*
X196853432Y-94443486D01*
X196910636Y-94230000D01*
X196013686Y-94230000D01*
X196039493Y-94189844D01*
X196080000Y-94051889D01*
X196080000Y-93908111D01*
X196039493Y-93770156D01*
X196013686Y-93730000D01*
X196910636Y-93730000D01*
X196910635Y-93729999D01*
X196853432Y-93516513D01*
X196853429Y-93516507D01*
X196753600Y-93302422D01*
X196753599Y-93302420D01*
X196618113Y-93108926D01*
X196618108Y-93108920D01*
X196451082Y-92941894D01*
X196264968Y-92811575D01*
X196221344Y-92756998D01*
X196214151Y-92687499D01*
X196245673Y-92625145D01*
X196264968Y-92608425D01*
X196451082Y-92478105D01*
X196618105Y-92311082D01*
X196753600Y-92117578D01*
X196853429Y-91903492D01*
X196853432Y-91903486D01*
X196910636Y-91690000D01*
X196013686Y-91690000D01*
X196039493Y-91649844D01*
X196080000Y-91511889D01*
X196080000Y-91368111D01*
X196039493Y-91230156D01*
X196013686Y-91190000D01*
X196910636Y-91190000D01*
X196910635Y-91189999D01*
X196853432Y-90976513D01*
X196853429Y-90976507D01*
X196753600Y-90762422D01*
X196753599Y-90762420D01*
X196618113Y-90568926D01*
X196618108Y-90568920D01*
X196451082Y-90401894D01*
X196264968Y-90271575D01*
X196221344Y-90216998D01*
X196214151Y-90147499D01*
X196245673Y-90085145D01*
X196264968Y-90068425D01*
X196451082Y-89938105D01*
X196618105Y-89771082D01*
X196753600Y-89577578D01*
X196853429Y-89363492D01*
X196853432Y-89363486D01*
X196910636Y-89150000D01*
X196013686Y-89150000D01*
X196039493Y-89109844D01*
X196080000Y-88971889D01*
X196080000Y-88828111D01*
X196039493Y-88690156D01*
X196013686Y-88650000D01*
X196910636Y-88650000D01*
X196910635Y-88649999D01*
X196853432Y-88436513D01*
X196853429Y-88436507D01*
X196753600Y-88222422D01*
X196753599Y-88222420D01*
X196618113Y-88028926D01*
X196618108Y-88028920D01*
X196451082Y-87861894D01*
X196264968Y-87731575D01*
X196221344Y-87676998D01*
X196214151Y-87607499D01*
X196245673Y-87545145D01*
X196264968Y-87528425D01*
X196451082Y-87398105D01*
X196618105Y-87231082D01*
X196753600Y-87037578D01*
X196853429Y-86823492D01*
X196853432Y-86823486D01*
X196910636Y-86610000D01*
X196013686Y-86610000D01*
X196039493Y-86569844D01*
X196080000Y-86431889D01*
X196080000Y-86288111D01*
X196039493Y-86150156D01*
X196013686Y-86110000D01*
X196910636Y-86110000D01*
X196910635Y-86109999D01*
X196853432Y-85896513D01*
X196853429Y-85896507D01*
X196753600Y-85682422D01*
X196753599Y-85682420D01*
X196618113Y-85488926D01*
X196618108Y-85488920D01*
X196451082Y-85321894D01*
X196264968Y-85191575D01*
X196221344Y-85136998D01*
X196214151Y-85067499D01*
X196245673Y-85005145D01*
X196264968Y-84988425D01*
X196451082Y-84858105D01*
X196618105Y-84691082D01*
X196753600Y-84497578D01*
X196853429Y-84283492D01*
X196853432Y-84283486D01*
X196910636Y-84070000D01*
X196013686Y-84070000D01*
X196039493Y-84029844D01*
X196080000Y-83891889D01*
X196080000Y-83748111D01*
X196039493Y-83610156D01*
X196013686Y-83570000D01*
X196910636Y-83570000D01*
X196910635Y-83569999D01*
X196853432Y-83356513D01*
X196853429Y-83356507D01*
X196753600Y-83142422D01*
X196753599Y-83142420D01*
X196618113Y-82948926D01*
X196618108Y-82948920D01*
X196451082Y-82781894D01*
X196264968Y-82651575D01*
X196221344Y-82596998D01*
X196214151Y-82527499D01*
X196245673Y-82465145D01*
X196264968Y-82448425D01*
X196451082Y-82318105D01*
X196618105Y-82151082D01*
X196753600Y-81957578D01*
X196853429Y-81743492D01*
X196853432Y-81743486D01*
X196910636Y-81530000D01*
X196013686Y-81530000D01*
X196039493Y-81489844D01*
X196080000Y-81351889D01*
X196080000Y-81208111D01*
X196039493Y-81070156D01*
X196013686Y-81030000D01*
X196910636Y-81030000D01*
X196910635Y-81029999D01*
X196853432Y-80816513D01*
X196853429Y-80816507D01*
X196753600Y-80602422D01*
X196753599Y-80602420D01*
X196618113Y-80408926D01*
X196618108Y-80408920D01*
X196451082Y-80241894D01*
X196264968Y-80111575D01*
X196221344Y-80056998D01*
X196214151Y-79987499D01*
X196245673Y-79925145D01*
X196264968Y-79908425D01*
X196451082Y-79778105D01*
X196618105Y-79611082D01*
X196753600Y-79417578D01*
X196853429Y-79203492D01*
X196853432Y-79203486D01*
X196910636Y-78990000D01*
X196013686Y-78990000D01*
X196039493Y-78949844D01*
X196080000Y-78811889D01*
X196080000Y-78668111D01*
X196039493Y-78530156D01*
X196013686Y-78490000D01*
X196910636Y-78490000D01*
X196910635Y-78489999D01*
X196853432Y-78276513D01*
X196853429Y-78276507D01*
X196753600Y-78062422D01*
X196753599Y-78062420D01*
X196618113Y-77868926D01*
X196618108Y-77868920D01*
X196451082Y-77701894D01*
X196264968Y-77571575D01*
X196221344Y-77516998D01*
X196214151Y-77447499D01*
X196245673Y-77385145D01*
X196264968Y-77368425D01*
X196451082Y-77238105D01*
X196618105Y-77071082D01*
X196753600Y-76877578D01*
X196853429Y-76663492D01*
X196853432Y-76663486D01*
X196910636Y-76450000D01*
X196013686Y-76450000D01*
X196039493Y-76409844D01*
X196080000Y-76271889D01*
X196080000Y-76128111D01*
X196039493Y-75990156D01*
X196013686Y-75950000D01*
X196910636Y-75950000D01*
X196910635Y-75949999D01*
X196853432Y-75736513D01*
X196853429Y-75736507D01*
X196753600Y-75522422D01*
X196753599Y-75522420D01*
X196618113Y-75328926D01*
X196618108Y-75328920D01*
X196451082Y-75161894D01*
X196264968Y-75031575D01*
X196221344Y-74976998D01*
X196214151Y-74907499D01*
X196245673Y-74845145D01*
X196264968Y-74828425D01*
X196451082Y-74698105D01*
X196618105Y-74531082D01*
X196753600Y-74337578D01*
X196853429Y-74123492D01*
X196853432Y-74123486D01*
X196910636Y-73910000D01*
X196013686Y-73910000D01*
X196039493Y-73869844D01*
X196080000Y-73731889D01*
X196080000Y-73588111D01*
X196039493Y-73450156D01*
X196013686Y-73410000D01*
X196910636Y-73410000D01*
X196910635Y-73409999D01*
X196853432Y-73196513D01*
X196853429Y-73196507D01*
X196753600Y-72982422D01*
X196753599Y-72982420D01*
X196618113Y-72788926D01*
X196618108Y-72788920D01*
X196451082Y-72621894D01*
X196264968Y-72491575D01*
X196221344Y-72436998D01*
X196214151Y-72367499D01*
X196245673Y-72305145D01*
X196264968Y-72288425D01*
X196451082Y-72158105D01*
X196618105Y-71991082D01*
X196753600Y-71797578D01*
X196853429Y-71583492D01*
X196853432Y-71583486D01*
X196910636Y-71370000D01*
X196013686Y-71370000D01*
X196039493Y-71329844D01*
X196080000Y-71191889D01*
X196080000Y-71048111D01*
X196039493Y-70910156D01*
X196013686Y-70870000D01*
X196910636Y-70870000D01*
X196910635Y-70869999D01*
X196853432Y-70656513D01*
X196853429Y-70656507D01*
X196753600Y-70442422D01*
X196753599Y-70442420D01*
X196618113Y-70248926D01*
X196618108Y-70248920D01*
X196451082Y-70081894D01*
X196257578Y-69946399D01*
X196043492Y-69846570D01*
X196043486Y-69846567D01*
X195830000Y-69789364D01*
X195830000Y-70684498D01*
X195722315Y-70635320D01*
X195615763Y-70620000D01*
X195544237Y-70620000D01*
X195437685Y-70635320D01*
X195330000Y-70684498D01*
X195330000Y-69789364D01*
X195329999Y-69789364D01*
X195116513Y-69846567D01*
X195116507Y-69846570D01*
X194902422Y-69946399D01*
X194902420Y-69946400D01*
X194708926Y-70081886D01*
X194708920Y-70081891D01*
X194541891Y-70248920D01*
X194541890Y-70248922D01*
X194415131Y-70429952D01*
X194360554Y-70473577D01*
X194291055Y-70480769D01*
X194228701Y-70449247D01*
X194209752Y-70426656D01*
X194115722Y-70282732D01*
X194115715Y-70282725D01*
X194115715Y-70282723D01*
X193981271Y-70136680D01*
X193950348Y-70074026D01*
X193948500Y-70052697D01*
X193948500Y-69423255D01*
X193950027Y-69403855D01*
X193952252Y-69389809D01*
X193948585Y-69319838D01*
X193948500Y-69316593D01*
X193948500Y-69294391D01*
X193948499Y-69294382D01*
X193946178Y-69272299D01*
X193945924Y-69269082D01*
X193942257Y-69199096D01*
X193938576Y-69185359D01*
X193935029Y-69166221D01*
X193934681Y-69162920D01*
X193933542Y-69152072D01*
X193911882Y-69085411D01*
X193910961Y-69082301D01*
X193906173Y-69064432D01*
X193892829Y-69014630D01*
X193886367Y-69001949D01*
X193878923Y-68983975D01*
X193874527Y-68970444D01*
X193839491Y-68909761D01*
X193837942Y-68906907D01*
X193827415Y-68886246D01*
X193806129Y-68844469D01*
X193797169Y-68833404D01*
X193786153Y-68817375D01*
X193779042Y-68805059D01*
X193779038Y-68805054D01*
X193732148Y-68752977D01*
X193730073Y-68750547D01*
X193716072Y-68733258D01*
X193700364Y-68717550D01*
X193698128Y-68715194D01*
X193651253Y-68663134D01*
X193639744Y-68654772D01*
X193624950Y-68642136D01*
X191806543Y-66823729D01*
X191773058Y-66762406D01*
X191778042Y-66692714D01*
X191819914Y-66636781D01*
X191885378Y-66612364D01*
X191933815Y-66618538D01*
X192153583Y-66692587D01*
X192503958Y-66769711D01*
X192860618Y-66808500D01*
X192860624Y-66808500D01*
X193219376Y-66808500D01*
X193219382Y-66808500D01*
X193576042Y-66769711D01*
X193926417Y-66692587D01*
X194266401Y-66578033D01*
X194592005Y-66427393D01*
X194899414Y-66242431D01*
X195185023Y-66025317D01*
X195445484Y-65778595D01*
X195677742Y-65505159D01*
X195769619Y-65369649D01*
X195879070Y-65208223D01*
X195879070Y-65208221D01*
X195879075Y-65208215D01*
X196047123Y-64891243D01*
X196179915Y-64557961D01*
X196275895Y-64212274D01*
X196333936Y-63858237D01*
X196350333Y-63555819D01*
X196353359Y-63500002D01*
X196353359Y-63499997D01*
X196336939Y-63197157D01*
X196333936Y-63141763D01*
X196275895Y-62787726D01*
X196226827Y-62610999D01*
X196179917Y-62442044D01*
X196179916Y-62442042D01*
X196047127Y-62108766D01*
X196047118Y-62108748D01*
X196012156Y-62042802D01*
X195879075Y-61791785D01*
X195879071Y-61791779D01*
X195879070Y-61791776D01*
X195677743Y-61494842D01*
X195677735Y-61494832D01*
X195445491Y-61221413D01*
X195445486Y-61221407D01*
X195445484Y-61221405D01*
X195185023Y-60974683D01*
X195185016Y-60974677D01*
X195185013Y-60974675D01*
X195103338Y-60912588D01*
X194899414Y-60757569D01*
X194592005Y-60572607D01*
X194592004Y-60572606D01*
X194592000Y-60572604D01*
X194591996Y-60572602D01*
X194266411Y-60421971D01*
X194266406Y-60421969D01*
X194266401Y-60421967D01*
X194100678Y-60366128D01*
X193926416Y-60307412D01*
X193576040Y-60230288D01*
X193219383Y-60191500D01*
X193219382Y-60191500D01*
X192860618Y-60191500D01*
X192860616Y-60191500D01*
X192503959Y-60230288D01*
X192153583Y-60307412D01*
X191930501Y-60382578D01*
X191813599Y-60421967D01*
X191813596Y-60421968D01*
X191813588Y-60421971D01*
X191488003Y-60572602D01*
X191487999Y-60572604D01*
X191342562Y-60660111D01*
X191180586Y-60757569D01*
X191092060Y-60824864D01*
X190894986Y-60974675D01*
X190894977Y-60974683D01*
X190634513Y-61221407D01*
X190634508Y-61221413D01*
X190402264Y-61494832D01*
X190402256Y-61494842D01*
X190200929Y-61791776D01*
X190200928Y-61791779D01*
X190032881Y-62108748D01*
X190032872Y-62108766D01*
X189900083Y-62442042D01*
X189900082Y-62442044D01*
X189804107Y-62787717D01*
X189804106Y-62787720D01*
X189746063Y-63141765D01*
X189726640Y-63499997D01*
X189726640Y-63500002D01*
X189746063Y-63858234D01*
X189788905Y-64119561D01*
X189795478Y-64159654D01*
X189804106Y-64212279D01*
X189804107Y-64212282D01*
X189900082Y-64557955D01*
X189900085Y-64557963D01*
X189915225Y-64595961D01*
X189921752Y-64665525D01*
X189889634Y-64727575D01*
X189829067Y-64762410D01*
X189759283Y-64758970D01*
X189712351Y-64729538D01*
X187008865Y-62026052D01*
X186996228Y-62011257D01*
X186987866Y-61999747D01*
X186935777Y-61952846D01*
X186933438Y-61950625D01*
X186917744Y-61934931D01*
X186917744Y-61934930D01*
X186917741Y-61934928D01*
X186900476Y-61920946D01*
X186898017Y-61918846D01*
X186845947Y-61871962D01*
X186845944Y-61871960D01*
X186833610Y-61864838D01*
X186817590Y-61853827D01*
X186806533Y-61844873D01*
X186806531Y-61844872D01*
X186806530Y-61844871D01*
X186744087Y-61813055D01*
X186741262Y-61811521D01*
X186680556Y-61776473D01*
X186680557Y-61776473D01*
X186680553Y-61776471D01*
X186680550Y-61776470D01*
X186667018Y-61772073D01*
X186649051Y-61764631D01*
X186636373Y-61758171D01*
X186603200Y-61749282D01*
X186568663Y-61740028D01*
X186565604Y-61739121D01*
X186532540Y-61728378D01*
X186498927Y-61717457D01*
X186484767Y-61715969D01*
X186465644Y-61712424D01*
X186459579Y-61710799D01*
X186451901Y-61708742D01*
X186381925Y-61705074D01*
X186378693Y-61704820D01*
X186373776Y-61704303D01*
X186356610Y-61702500D01*
X186356603Y-61702500D01*
X186334404Y-61702500D01*
X186331160Y-61702415D01*
X186261190Y-61698748D01*
X186261189Y-61698748D01*
X186261188Y-61698748D01*
X186247142Y-61700973D01*
X186227743Y-61702500D01*
X185012500Y-61702500D01*
X184945461Y-61682815D01*
X184899706Y-61630011D01*
X184888500Y-61578500D01*
X184888500Y-61062362D01*
X184888499Y-61062345D01*
X184885116Y-61030882D01*
X184881989Y-61001799D01*
X184830889Y-60864796D01*
X184743261Y-60747739D01*
X184626204Y-60660111D01*
X184489203Y-60609011D01*
X184428654Y-60602500D01*
X184428638Y-60602500D01*
X181331362Y-60602500D01*
X181331345Y-60602500D01*
X181270797Y-60609011D01*
X181270795Y-60609011D01*
X181133795Y-60660111D01*
X181016739Y-60747739D01*
X180929111Y-60864795D01*
X180878011Y-61001795D01*
X180878011Y-61001797D01*
X180871500Y-61062345D01*
X180871500Y-64159654D01*
X180878011Y-64220202D01*
X180878011Y-64220204D01*
X180906957Y-64297808D01*
X180929111Y-64357204D01*
X181016739Y-64474261D01*
X181133796Y-64561889D01*
X181270799Y-64612989D01*
X181298050Y-64615918D01*
X181331345Y-64619499D01*
X181331362Y-64619500D01*
X184428638Y-64619500D01*
X184428654Y-64619499D01*
X184455692Y-64616591D01*
X184489201Y-64612989D01*
X184626204Y-64561889D01*
X184743261Y-64474261D01*
X184830889Y-64357204D01*
X184881989Y-64220201D01*
X184885591Y-64186692D01*
X184888499Y-64159654D01*
X184888500Y-64159637D01*
X184888500Y-63643500D01*
X184908185Y-63576461D01*
X184960989Y-63530706D01*
X185012500Y-63519500D01*
X185881325Y-63519500D01*
X185948364Y-63539185D01*
X185969006Y-63555819D01*
X188310267Y-65897081D01*
X188343752Y-65958404D01*
X188338768Y-66028096D01*
X188296896Y-66084029D01*
X188231432Y-66108446D01*
X188207637Y-66107858D01*
X188155039Y-66101470D01*
X188151338Y-66100907D01*
X188089624Y-66089598D01*
X188089618Y-66089598D01*
X188026983Y-66093387D01*
X188023238Y-66093500D01*
X175283279Y-66093500D01*
X175279535Y-66093387D01*
X175216909Y-66089599D01*
X175216904Y-66089599D01*
X175155198Y-66100907D01*
X175151496Y-66101470D01*
X175089202Y-66109034D01*
X175089199Y-66109035D01*
X175079483Y-66112719D01*
X175057885Y-66118739D01*
X175047672Y-66120611D01*
X175047668Y-66120612D01*
X174990459Y-66146359D01*
X174987001Y-66147791D01*
X174928324Y-66170046D01*
X174928320Y-66170048D01*
X174919774Y-66175947D01*
X174900243Y-66186962D01*
X174890777Y-66191223D01*
X174841382Y-66229920D01*
X174838367Y-66232138D01*
X174786731Y-66267780D01*
X174786728Y-66267782D01*
X174745115Y-66314753D01*
X174742548Y-66317480D01*
X170873480Y-70186548D01*
X170870753Y-70189115D01*
X170823782Y-70230728D01*
X170823780Y-70230731D01*
X170788138Y-70282367D01*
X170785920Y-70285382D01*
X170747223Y-70334777D01*
X170742962Y-70344243D01*
X170731947Y-70363774D01*
X170726048Y-70372320D01*
X170726044Y-70372328D01*
X170703794Y-70430995D01*
X170702361Y-70434454D01*
X170676610Y-70491670D01*
X170676609Y-70491673D01*
X170674737Y-70501889D01*
X170668715Y-70523494D01*
X170665035Y-70533198D01*
X170657470Y-70595490D01*
X170656907Y-70599191D01*
X170645598Y-70660903D01*
X170645598Y-70660908D01*
X170649387Y-70723544D01*
X170649500Y-70727289D01*
X170649500Y-74603587D01*
X170629815Y-74670626D01*
X170577011Y-74716381D01*
X170507853Y-74726325D01*
X170455060Y-74705637D01*
X170403629Y-74670137D01*
X170400612Y-74667916D01*
X170351228Y-74629226D01*
X170351227Y-74629225D01*
X170345235Y-74626528D01*
X170341760Y-74624964D01*
X170322216Y-74613941D01*
X170317210Y-74610486D01*
X170313677Y-74608047D01*
X170313672Y-74608044D01*
X170255015Y-74585798D01*
X170251555Y-74584365D01*
X170194331Y-74558611D01*
X170194332Y-74558611D01*
X170184110Y-74556738D01*
X170162510Y-74550716D01*
X170152801Y-74547035D01*
X170152797Y-74547034D01*
X170152796Y-74547034D01*
X170090511Y-74539470D01*
X170086810Y-74538907D01*
X170025096Y-74527598D01*
X170025090Y-74527598D01*
X169962455Y-74531387D01*
X169958710Y-74531500D01*
X169472500Y-74531500D01*
X169405461Y-74511815D01*
X169359706Y-74459011D01*
X169348500Y-74407500D01*
X169348500Y-73991362D01*
X169348499Y-73991345D01*
X169345157Y-73960270D01*
X169341989Y-73930799D01*
X169334231Y-73910000D01*
X169319254Y-73869844D01*
X169290889Y-73793796D01*
X169203261Y-73676739D01*
X169086204Y-73589111D01*
X169083523Y-73588111D01*
X168949203Y-73538011D01*
X168888654Y-73531500D01*
X168888638Y-73531500D01*
X166391362Y-73531500D01*
X166391345Y-73531500D01*
X166330797Y-73538011D01*
X166330795Y-73538011D01*
X166193795Y-73589111D01*
X166076739Y-73676739D01*
X165989111Y-73793795D01*
X165938011Y-73930795D01*
X165938011Y-73930797D01*
X165931500Y-73991345D01*
X165931500Y-76488654D01*
X165938011Y-76549202D01*
X165938011Y-76549204D01*
X165988543Y-76684680D01*
X165989111Y-76686204D01*
X166076739Y-76803261D01*
X166193796Y-76890889D01*
X166330799Y-76941989D01*
X166358050Y-76944918D01*
X166391345Y-76948499D01*
X166391362Y-76948500D01*
X166879117Y-76948500D01*
X166946156Y-76968185D01*
X166991911Y-77020989D01*
X167001855Y-77090147D01*
X166972830Y-77153703D01*
X166932918Y-77184220D01*
X166783363Y-77256241D01*
X166783361Y-77256242D01*
X166571780Y-77400495D01*
X166384072Y-77574661D01*
X166224413Y-77774869D01*
X166096378Y-77996630D01*
X166002828Y-78234993D01*
X166002822Y-78235012D01*
X165945844Y-78484651D01*
X165945843Y-78484656D01*
X165926709Y-78739995D01*
X165926709Y-78740004D01*
X165945843Y-78995343D01*
X165945844Y-78995348D01*
X166002822Y-79244987D01*
X166002824Y-79244996D01*
X166002826Y-79245001D01*
X166096378Y-79483369D01*
X166224413Y-79705131D01*
X166353367Y-79866835D01*
X166384072Y-79905338D01*
X166535365Y-80045716D01*
X166571781Y-80079505D01*
X166783355Y-80223754D01*
X166783360Y-80223756D01*
X166783361Y-80223757D01*
X166783362Y-80223758D01*
X166894117Y-80277094D01*
X167014061Y-80334856D01*
X167014062Y-80334856D01*
X167014065Y-80334858D01*
X167108210Y-80363897D01*
X167132885Y-80371509D01*
X167191144Y-80410080D01*
X167219302Y-80474024D01*
X167208418Y-80543041D01*
X167161949Y-80595218D01*
X167132885Y-80608491D01*
X167014061Y-80645143D01*
X166783362Y-80756241D01*
X166783361Y-80756242D01*
X166571780Y-80900495D01*
X166384072Y-81074661D01*
X166224413Y-81274869D01*
X166096379Y-81496628D01*
X166051164Y-81611831D01*
X166012227Y-81664123D01*
X166007401Y-81667906D01*
X166004375Y-81670133D01*
X165952730Y-81705781D01*
X165952728Y-81705782D01*
X165911115Y-81752753D01*
X165908548Y-81755480D01*
X164869480Y-82794548D01*
X164866753Y-82797115D01*
X164819782Y-82838728D01*
X164819780Y-82838731D01*
X164784138Y-82890367D01*
X164781920Y-82893382D01*
X164743223Y-82942777D01*
X164738962Y-82952243D01*
X164727947Y-82971774D01*
X164722048Y-82980320D01*
X164722044Y-82980328D01*
X164699794Y-83038995D01*
X164698361Y-83042454D01*
X164672610Y-83099670D01*
X164672609Y-83099673D01*
X164670737Y-83109889D01*
X164664715Y-83131494D01*
X164661035Y-83141198D01*
X164653470Y-83203490D01*
X164652907Y-83207191D01*
X164641598Y-83268903D01*
X164641598Y-83268908D01*
X164645387Y-83331544D01*
X164645500Y-83335289D01*
X164645500Y-97258709D01*
X164645387Y-97262454D01*
X164641598Y-97325093D01*
X162560500Y-97325093D01*
X162560500Y-63500002D01*
X164326640Y-63500002D01*
X164346063Y-63858234D01*
X164388905Y-64119561D01*
X164395478Y-64159654D01*
X164404106Y-64212279D01*
X164404107Y-64212282D01*
X164500082Y-64557955D01*
X164500083Y-64557957D01*
X164632872Y-64891233D01*
X164632881Y-64891251D01*
X164800928Y-65208220D01*
X164800929Y-65208223D01*
X165002256Y-65505157D01*
X165002264Y-65505167D01*
X165234508Y-65778586D01*
X165234516Y-65778595D01*
X165494977Y-66025317D01*
X165780586Y-66242431D01*
X166087995Y-66427393D01*
X166087997Y-66427394D01*
X166087999Y-66427395D01*
X166088003Y-66427397D01*
X166413588Y-66578028D01*
X166413599Y-66578033D01*
X166753583Y-66692587D01*
X167103958Y-66769711D01*
X167460618Y-66808500D01*
X167460624Y-66808500D01*
X167819376Y-66808500D01*
X167819382Y-66808500D01*
X168176042Y-66769711D01*
X168526417Y-66692587D01*
X168866401Y-66578033D01*
X169192005Y-66427393D01*
X169499414Y-66242431D01*
X169785023Y-66025317D01*
X170045484Y-65778595D01*
X170277742Y-65505159D01*
X170369619Y-65369649D01*
X170479070Y-65208223D01*
X170479070Y-65208221D01*
X170479075Y-65208215D01*
X170647123Y-64891243D01*
X170779915Y-64557961D01*
X170875895Y-64212274D01*
X170933936Y-63858237D01*
X170950333Y-63555819D01*
X170953359Y-63500002D01*
X170953359Y-63499997D01*
X170936939Y-63197157D01*
X170933936Y-63141763D01*
X170875895Y-62787726D01*
X170826828Y-62611001D01*
X175794891Y-62611001D01*
X175815300Y-62896362D01*
X175876109Y-63175895D01*
X175976091Y-63443958D01*
X176113191Y-63695038D01*
X176113196Y-63695046D01*
X176219882Y-63837561D01*
X176219883Y-63837562D01*
X177115195Y-62942250D01*
X177137340Y-62993587D01*
X177243433Y-63136094D01*
X177379530Y-63250294D01*
X177469216Y-63295335D01*
X176573436Y-64191115D01*
X176715960Y-64297807D01*
X176715961Y-64297808D01*
X176967042Y-64434908D01*
X176967041Y-64434908D01*
X177235104Y-64534890D01*
X177514637Y-64595699D01*
X177799999Y-64616109D01*
X177800001Y-64616109D01*
X178085362Y-64595699D01*
X178364895Y-64534890D01*
X178632958Y-64434908D01*
X178884047Y-64297803D01*
X179026561Y-64191116D01*
X179026562Y-64191115D01*
X178133748Y-63298300D01*
X178143409Y-63294784D01*
X178291844Y-63197157D01*
X178413764Y-63067930D01*
X178485768Y-62943215D01*
X179380115Y-63837562D01*
X179380116Y-63837561D01*
X179486803Y-63695047D01*
X179623908Y-63443958D01*
X179723890Y-63175895D01*
X179784699Y-62896362D01*
X179805109Y-62611001D01*
X179805109Y-62610998D01*
X179784699Y-62325637D01*
X179723890Y-62046104D01*
X179623908Y-61778041D01*
X179486808Y-61526961D01*
X179486807Y-61526960D01*
X179380115Y-61384436D01*
X178484803Y-62279747D01*
X178462660Y-62228413D01*
X178356567Y-62085906D01*
X178220470Y-61971706D01*
X178130781Y-61926663D01*
X179026562Y-61030883D01*
X179026561Y-61030882D01*
X178884046Y-60924196D01*
X178884038Y-60924191D01*
X178632957Y-60787091D01*
X178632958Y-60787091D01*
X178364895Y-60687109D01*
X178085362Y-60626300D01*
X177800001Y-60605891D01*
X177799999Y-60605891D01*
X177514637Y-60626300D01*
X177235104Y-60687109D01*
X176967041Y-60787091D01*
X176715961Y-60924191D01*
X176715953Y-60924196D01*
X176573436Y-61030882D01*
X176573436Y-61030883D01*
X177466251Y-61923699D01*
X177456591Y-61927216D01*
X177308156Y-62024843D01*
X177186236Y-62154070D01*
X177114231Y-62278784D01*
X176219883Y-61384436D01*
X176219882Y-61384437D01*
X176113196Y-61526953D01*
X176113191Y-61526961D01*
X175976091Y-61778041D01*
X175876109Y-62046104D01*
X175815300Y-62325637D01*
X175794891Y-62610998D01*
X175794891Y-62611001D01*
X170826828Y-62611001D01*
X170826827Y-62610999D01*
X170779917Y-62442044D01*
X170779916Y-62442042D01*
X170647127Y-62108766D01*
X170647118Y-62108748D01*
X170612156Y-62042802D01*
X170479075Y-61791785D01*
X170479071Y-61791779D01*
X170479070Y-61791776D01*
X170277743Y-61494842D01*
X170277735Y-61494832D01*
X170045491Y-61221413D01*
X170045486Y-61221407D01*
X170045484Y-61221405D01*
X169785023Y-60974683D01*
X169785016Y-60974677D01*
X169785013Y-60974675D01*
X169703338Y-60912588D01*
X169499414Y-60757569D01*
X169192005Y-60572607D01*
X169192004Y-60572606D01*
X169192000Y-60572604D01*
X169191996Y-60572602D01*
X168866411Y-60421971D01*
X168866406Y-60421969D01*
X168866401Y-60421967D01*
X168700678Y-60366128D01*
X168526416Y-60307412D01*
X168176040Y-60230288D01*
X167819383Y-60191500D01*
X167819382Y-60191500D01*
X167460618Y-60191500D01*
X167460616Y-60191500D01*
X167103959Y-60230288D01*
X166753583Y-60307412D01*
X166530501Y-60382578D01*
X166413599Y-60421967D01*
X166413596Y-60421968D01*
X166413588Y-60421971D01*
X166088003Y-60572602D01*
X166087999Y-60572604D01*
X165942562Y-60660111D01*
X165780586Y-60757569D01*
X165692060Y-60824864D01*
X165494986Y-60974675D01*
X165494977Y-60974683D01*
X165234513Y-61221407D01*
X165234508Y-61221413D01*
X165002264Y-61494832D01*
X165002256Y-61494842D01*
X164800929Y-61791776D01*
X164800928Y-61791779D01*
X164632881Y-62108748D01*
X164632872Y-62108766D01*
X164500083Y-62442042D01*
X164500082Y-62442044D01*
X164404107Y-62787717D01*
X164404106Y-62787720D01*
X164346063Y-63141765D01*
X164326640Y-63499997D01*
X164326640Y-63500002D01*
X162560500Y-63500002D01*
X162560500Y-62231528D01*
X162560575Y-62228486D01*
X162564230Y-62154070D01*
X162567994Y-62077447D01*
X162579812Y-61851960D01*
X162580392Y-61846162D01*
X162607020Y-61666647D01*
X162638190Y-61469852D01*
X162639269Y-61464559D01*
X162684715Y-61283132D01*
X162734936Y-61095705D01*
X162736441Y-61090886D01*
X162800246Y-60912564D01*
X162869086Y-60733231D01*
X162870885Y-60729026D01*
X162952437Y-60556597D01*
X163039223Y-60386271D01*
X163041237Y-60382632D01*
X163139754Y-60218267D01*
X163243607Y-60058349D01*
X163245789Y-60055209D01*
X163360237Y-59900894D01*
X163480193Y-59752759D01*
X163482381Y-59750207D01*
X163610694Y-59608636D01*
X163612707Y-59606522D01*
X163746522Y-59472707D01*
X163748636Y-59470694D01*
X163890207Y-59342381D01*
X163892759Y-59340193D01*
X164040882Y-59220246D01*
X164195216Y-59105783D01*
X164198349Y-59103607D01*
X164358267Y-58999754D01*
X164522632Y-58901237D01*
X164526271Y-58899223D01*
X164696600Y-58812436D01*
X164869026Y-58730885D01*
X164873231Y-58729086D01*
X165052564Y-58660246D01*
X165230886Y-58596441D01*
X165235705Y-58594936D01*
X165423132Y-58544715D01*
X165604559Y-58499269D01*
X165609852Y-58498190D01*
X165806637Y-58467022D01*
X165986162Y-58440392D01*
X165991960Y-58439812D01*
X166217447Y-58427994D01*
X166316841Y-58423111D01*
X166368487Y-58420575D01*
X166371529Y-58420500D01*
X194308471Y-58420500D01*
X194311513Y-58420575D01*
G37*
%TD.AperFunction*%
%TD*%
M02*
