%TF.GenerationSoftware,KiCad,Pcbnew,7.0.6*%
%TF.CreationDate,2023-08-03T15:39:34-04:00*%
%TF.ProjectId,mcp23s17_uln2803_combo,6d637032-3373-4313-975f-756c6e323830,rev?*%
%TF.SameCoordinates,Original*%
%TF.FileFunction,Soldermask,Top*%
%TF.FilePolarity,Negative*%
%FSLAX46Y46*%
G04 Gerber Fmt 4.6, Leading zero omitted, Abs format (unit mm)*
G04 Created by KiCad (PCBNEW 7.0.6) date 2023-08-03 15:39:34*
%MOMM*%
%LPD*%
G01*
G04 APERTURE LIST*
%ADD10R,3.000000X3.000000*%
%ADD11C,3.000000*%
%ADD12R,2.400000X2.400000*%
%ADD13C,2.400000*%
%ADD14C,5.600000*%
%ADD15C,2.000000*%
%ADD16R,2.400000X1.600000*%
%ADD17O,2.400000X1.600000*%
%ADD18R,1.600000X1.600000*%
%ADD19O,1.600000X1.600000*%
%ADD20R,1.700000X1.700000*%
%ADD21O,1.700000X1.700000*%
G04 APERTURE END LIST*
D10*
%TO.C,J3*%
X167386000Y-123190000D03*
D11*
X162306000Y-123190000D03*
%TD*%
D12*
%TO.C,J4*%
X138542000Y-62231600D03*
D13*
X142042000Y-62231600D03*
X145542000Y-62231600D03*
%TD*%
D14*
%TO.C,H1*%
X121920000Y-62788800D03*
%TD*%
D15*
%TO.C,U1*%
X120878600Y-111734600D03*
X138023600Y-111734600D03*
X138023600Y-72237600D03*
X120878600Y-72237600D03*
%TD*%
D10*
%TO.C,J1*%
X162306000Y-61925200D03*
D11*
X167386000Y-61925200D03*
%TD*%
D14*
%TO.C,H3*%
X178003200Y-62433200D03*
%TD*%
D12*
%TO.C,J7*%
X131486000Y-123190000D03*
D13*
X134986000Y-123190000D03*
X138486000Y-123190000D03*
X141986000Y-123190000D03*
X145486000Y-123190000D03*
X148986000Y-123190000D03*
X152486000Y-123190000D03*
%TD*%
D16*
%TO.C,U3*%
X159766000Y-96774000D03*
D17*
X159766000Y-99314000D03*
X159766000Y-101854000D03*
X159766000Y-104394000D03*
X159766000Y-106934000D03*
X159766000Y-109474000D03*
X159766000Y-112014000D03*
X159766000Y-114554000D03*
X159766000Y-117094000D03*
X167386000Y-117094000D03*
X167386000Y-114554000D03*
X167386000Y-112014000D03*
X167386000Y-109474000D03*
X167386000Y-106934000D03*
X167386000Y-104394000D03*
X167386000Y-101854000D03*
X167386000Y-99314000D03*
X167386000Y-96774000D03*
%TD*%
D16*
%TO.C,U4*%
X159766000Y-71384000D03*
D17*
X159766000Y-73924000D03*
X159766000Y-76464000D03*
X159766000Y-79004000D03*
X159766000Y-81544000D03*
X159766000Y-84084000D03*
X159766000Y-86624000D03*
X159766000Y-89164000D03*
X159766000Y-91704000D03*
X167386000Y-91704000D03*
X167386000Y-89164000D03*
X167386000Y-86624000D03*
X167386000Y-84084000D03*
X167386000Y-81544000D03*
X167386000Y-79004000D03*
X167386000Y-76464000D03*
X167386000Y-73924000D03*
X167386000Y-71384000D03*
%TD*%
D18*
%TO.C,U2*%
X143002000Y-74676000D03*
D19*
X143002000Y-77216000D03*
X143002000Y-79756000D03*
X143002000Y-82296000D03*
X143002000Y-84836000D03*
X143002000Y-87376000D03*
X143002000Y-89916000D03*
X143002000Y-92456000D03*
X143002000Y-94996000D03*
X143002000Y-97536000D03*
X143002000Y-100076000D03*
X143002000Y-102616000D03*
X143002000Y-105156000D03*
X143002000Y-107696000D03*
X150622000Y-107696000D03*
X150622000Y-105156000D03*
X150622000Y-102616000D03*
X150622000Y-100076000D03*
X150622000Y-97536000D03*
X150622000Y-94996000D03*
X150622000Y-92456000D03*
X150622000Y-89916000D03*
X150622000Y-87376000D03*
X150622000Y-84836000D03*
X150622000Y-82296000D03*
X150622000Y-79756000D03*
X150622000Y-77216000D03*
X150622000Y-74676000D03*
%TD*%
D20*
%TO.C,J5*%
X177546000Y-111810800D03*
D21*
X177546000Y-109270800D03*
X177546000Y-106730800D03*
X177546000Y-104190800D03*
X177546000Y-101650800D03*
X177546000Y-99110800D03*
X177546000Y-96570800D03*
X177546000Y-94030800D03*
X177546000Y-91490800D03*
X177546000Y-88950800D03*
X177546000Y-86410800D03*
X177546000Y-83870800D03*
X177546000Y-81330800D03*
X177546000Y-78790800D03*
X177546000Y-76250800D03*
X177546000Y-73710800D03*
%TD*%
D20*
%TO.C,J6*%
X180086000Y-111810800D03*
D21*
X180086000Y-109270800D03*
X180086000Y-106730800D03*
X180086000Y-104190800D03*
X180086000Y-101650800D03*
X180086000Y-99110800D03*
X180086000Y-96570800D03*
X180086000Y-94030800D03*
X180086000Y-91490800D03*
X180086000Y-88950800D03*
X180086000Y-86410800D03*
X180086000Y-83870800D03*
X180086000Y-81330800D03*
X180086000Y-78790800D03*
X180086000Y-76250800D03*
X180086000Y-73710800D03*
%TD*%
D14*
%TO.C,H4*%
X178587400Y-122504200D03*
%TD*%
%TO.C,H2*%
X121259600Y-121361200D03*
%TD*%
M02*
