M48
; DRILL file {KiCad 7.0.6} date Thu Aug  3 15:39:26 2023
; FORMAT={-:-/ absolute / metric / decimal}
; #@! TF.CreationDate,2023-08-03T15:39:26-04:00
; #@! TF.GenerationSoftware,Kicad,Pcbnew,7.0.6
; #@! TF.FileFunction,Plated,1,2,PTH
FMAT,2
METRIC
; #@! TA.AperFunction,Plated,PTH,ViaDrill
T1C0.400
; #@! TA.AperFunction,Plated,PTH,ComponentDrill
T2C0.800
; #@! TA.AperFunction,Plated,PTH,ComponentDrill
T3C0.900
; #@! TA.AperFunction,Plated,PTH,ComponentDrill
T4C1.000
; #@! TA.AperFunction,Plated,PTH,ComponentDrill
T5C1.200
; #@! TA.AperFunction,Plated,PTH,ComponentDrill
T6C1.520
; #@! TA.AperFunction,Plated,PTH,ComponentDrill
T7C3.200
%
G90
G05
T1
X134.874Y-107.696
X134.911Y-98.298
X136.398Y-98.298
X136.398Y-105.156
X155.318Y-89.408
X155.391Y-98.355
X155.702Y-97.028
X155.956Y-91.186
X155.956Y-100.33
X156.269Y-101.854
X156.518Y-92.456
X157.734Y-93.98
X157.734Y-95.504
X169.164Y-72.644
X169.164Y-89.154
X169.418Y-97.028
X169.418Y-113.284
X170.185Y-75.438
X170.185Y-86.614
X170.434Y-99.314
X170.434Y-110.744
X171.185Y-84.074
X171.196Y-77.724
X171.433Y-101.854
X171.433Y-108.204
X172.466Y-83.82
X172.482Y-78.994
X172.72Y-101.6
X172.736Y-106.934
X173.482Y-76.454
X173.498Y-86.36
X173.736Y-109.474
X173.769Y-99.314
X174.498Y-74.168
X174.514Y-88.9
X174.752Y-96.52
X174.768Y-112.014
X175.514Y-71.374
X175.514Y-91.44
X175.768Y-114.554
X176.022Y-93.98
T2
X143.002Y-74.676
X143.002Y-77.216
X143.002Y-79.756
X143.002Y-82.296
X143.002Y-84.836
X143.002Y-87.376
X143.002Y-89.916
X143.002Y-92.456
X143.002Y-94.996
X143.002Y-97.536
X143.002Y-100.076
X143.002Y-102.616
X143.002Y-105.156
X143.002Y-107.696
X150.622Y-74.676
X150.622Y-77.216
X150.622Y-79.756
X150.622Y-82.296
X150.622Y-84.836
X150.622Y-87.376
X150.622Y-89.916
X150.622Y-92.456
X150.622Y-94.996
X150.622Y-97.536
X150.622Y-100.076
X150.622Y-102.616
X150.622Y-105.156
X150.622Y-107.696
X159.766Y-71.384
X159.766Y-73.924
X159.766Y-76.464
X159.766Y-79.004
X159.766Y-81.544
X159.766Y-84.084
X159.766Y-86.624
X159.766Y-89.164
X159.766Y-91.704
X159.766Y-96.774
X159.766Y-99.314
X159.766Y-101.854
X159.766Y-104.394
X159.766Y-106.934
X159.766Y-109.474
X159.766Y-112.014
X159.766Y-114.554
X159.766Y-117.094
X167.386Y-71.384
X167.386Y-73.924
X167.386Y-76.464
X167.386Y-79.004
X167.386Y-81.544
X167.386Y-84.084
X167.386Y-86.624
X167.386Y-89.164
X167.386Y-91.704
X167.386Y-96.774
X167.386Y-99.314
X167.386Y-101.854
X167.386Y-104.394
X167.386Y-106.934
X167.386Y-109.474
X167.386Y-112.014
X167.386Y-114.554
X167.386Y-117.094
T3
X120.879Y-72.238
X120.879Y-111.735
X138.024Y-72.238
X138.024Y-111.735
T4
X177.546Y-73.711
X177.546Y-76.251
X177.546Y-78.791
X177.546Y-81.331
X177.546Y-83.871
X177.546Y-86.411
X177.546Y-88.951
X177.546Y-91.491
X177.546Y-94.031
X177.546Y-96.571
X177.546Y-99.111
X177.546Y-101.651
X177.546Y-104.191
X177.546Y-106.731
X177.546Y-109.271
X177.546Y-111.811
X180.086Y-73.711
X180.086Y-76.251
X180.086Y-78.791
X180.086Y-81.331
X180.086Y-83.871
X180.086Y-86.411
X180.086Y-88.951
X180.086Y-91.491
X180.086Y-94.031
X180.086Y-96.571
X180.086Y-99.111
X180.086Y-101.651
X180.086Y-104.191
X180.086Y-106.731
X180.086Y-109.271
X180.086Y-111.811
T5
X131.486Y-123.19
X134.986Y-123.19
X138.486Y-123.19
X138.542Y-62.232
X141.986Y-123.19
X142.042Y-62.232
X145.486Y-123.19
X145.542Y-62.232
X148.986Y-123.19
X152.486Y-123.19
T6
X162.306Y-61.925
X162.306Y-123.19
X167.386Y-61.925
X167.386Y-123.19
T7
X121.26Y-121.361
X121.92Y-62.789
X178.003Y-62.433
X178.587Y-122.504
T0
M30
