%TF.GenerationSoftware,KiCad,Pcbnew,7.0.6*%
%TF.CreationDate,2023-08-03T15:39:34-04:00*%
%TF.ProjectId,mcp23s17_uln2803_combo,6d637032-3373-4313-975f-756c6e323830,rev?*%
%TF.SameCoordinates,Original*%
%TF.FileFunction,Copper,L1,Top*%
%TF.FilePolarity,Positive*%
%FSLAX46Y46*%
G04 Gerber Fmt 4.6, Leading zero omitted, Abs format (unit mm)*
G04 Created by KiCad (PCBNEW 7.0.6) date 2023-08-03 15:39:34*
%MOMM*%
%LPD*%
G01*
G04 APERTURE LIST*
%TA.AperFunction,ComponentPad*%
%ADD10R,3.000000X3.000000*%
%TD*%
%TA.AperFunction,ComponentPad*%
%ADD11C,3.000000*%
%TD*%
%TA.AperFunction,ComponentPad*%
%ADD12R,2.400000X2.400000*%
%TD*%
%TA.AperFunction,ComponentPad*%
%ADD13C,2.400000*%
%TD*%
%TA.AperFunction,ComponentPad*%
%ADD14C,5.600000*%
%TD*%
%TA.AperFunction,ComponentPad*%
%ADD15C,2.000000*%
%TD*%
%TA.AperFunction,ComponentPad*%
%ADD16R,2.400000X1.600000*%
%TD*%
%TA.AperFunction,ComponentPad*%
%ADD17O,2.400000X1.600000*%
%TD*%
%TA.AperFunction,ComponentPad*%
%ADD18R,1.600000X1.600000*%
%TD*%
%TA.AperFunction,ComponentPad*%
%ADD19O,1.600000X1.600000*%
%TD*%
%TA.AperFunction,ComponentPad*%
%ADD20R,1.700000X1.700000*%
%TD*%
%TA.AperFunction,ComponentPad*%
%ADD21O,1.700000X1.700000*%
%TD*%
%TA.AperFunction,ViaPad*%
%ADD22C,0.800000*%
%TD*%
%TA.AperFunction,Conductor*%
%ADD23C,1.200000*%
%TD*%
%TA.AperFunction,Conductor*%
%ADD24C,0.400000*%
%TD*%
%TA.AperFunction,Conductor*%
%ADD25C,0.800000*%
%TD*%
G04 APERTURE END LIST*
D10*
%TO.P,J3,1,Pin_1*%
%TO.N,VCC*%
X167386000Y-123190000D03*
D11*
%TO.P,J3,2,Pin_2*%
%TO.N,GND*%
X162306000Y-123190000D03*
%TD*%
D12*
%TO.P,J4,1,Pin_1*%
%TO.N,SCK*%
X138542000Y-62231600D03*
D13*
%TO.P,J4,2,Pin_2*%
%TO.N,MISO*%
X142042000Y-62231600D03*
%TO.P,J4,3,Pin_3*%
%TO.N,MOSI*%
X145542000Y-62231600D03*
%TD*%
D14*
%TO.P,H1,1*%
%TO.N,N/C*%
X121920000Y-62788800D03*
%TD*%
D15*
%TO.P,U1,1,VIN*%
%TO.N,VCC*%
X120878600Y-111734600D03*
%TO.P,U1,2,GND*%
%TO.N,GND*%
X138023600Y-111734600D03*
%TO.P,U1,3,GND*%
X138023600Y-72237600D03*
%TO.P,U1,4,VOUT*%
%TO.N,+5V*%
X120878600Y-72237600D03*
%TD*%
D10*
%TO.P,J1,1,Pin_1*%
%TO.N,+5V*%
X162306000Y-61925200D03*
D11*
%TO.P,J1,2,Pin_2*%
%TO.N,GND*%
X167386000Y-61925200D03*
%TD*%
D14*
%TO.P,H3,1*%
%TO.N,N/C*%
X178003200Y-62433200D03*
%TD*%
D12*
%TO.P,J7,1,Pin_1*%
%TO.N,SCK*%
X131486000Y-123190000D03*
D13*
%TO.P,J7,2,Pin_2*%
%TO.N,MISO*%
X134986000Y-123190000D03*
%TO.P,J7,3,Pin_3*%
%TO.N,MOSI*%
X138486000Y-123190000D03*
%TO.P,J7,4,Pin_4*%
%TO.N,CS0*%
X141986000Y-123190000D03*
%TO.P,J7,5,Pin_5*%
%TO.N,INTA0*%
X145486000Y-123190000D03*
%TO.P,J7,6,Pin_6*%
%TO.N,INTB0*%
X148986000Y-123190000D03*
%TO.P,J7,7,Pin_7*%
%TO.N,GND*%
X152486000Y-123190000D03*
%TD*%
D16*
%TO.P,U3,1,I1*%
%TO.N,Net-(U2-GPA0)*%
X159766000Y-96774000D03*
D17*
%TO.P,U3,2,I2*%
%TO.N,Net-(U2-GPA1)*%
X159766000Y-99314000D03*
%TO.P,U3,3,I3*%
%TO.N,Net-(U2-GPA2)*%
X159766000Y-101854000D03*
%TO.P,U3,4,I4*%
%TO.N,Net-(U2-GPA3)*%
X159766000Y-104394000D03*
%TO.P,U3,5,I5*%
%TO.N,Net-(U2-GPA4)*%
X159766000Y-106934000D03*
%TO.P,U3,6,I6*%
%TO.N,Net-(U2-GPA5)*%
X159766000Y-109474000D03*
%TO.P,U3,7,I7*%
%TO.N,Net-(U2-GPA6)*%
X159766000Y-112014000D03*
%TO.P,U3,8,I8*%
%TO.N,Net-(U2-GPA7)*%
X159766000Y-114554000D03*
%TO.P,U3,9,GND*%
%TO.N,GND*%
X159766000Y-117094000D03*
%TO.P,U3,10,COM*%
%TO.N,VCC*%
X167386000Y-117094000D03*
%TO.P,U3,11,O8*%
%TO.N,A7*%
X167386000Y-114554000D03*
%TO.P,U3,12,O7*%
%TO.N,A6*%
X167386000Y-112014000D03*
%TO.P,U3,13,O6*%
%TO.N,A5*%
X167386000Y-109474000D03*
%TO.P,U3,14,O5*%
%TO.N,A4*%
X167386000Y-106934000D03*
%TO.P,U3,15,O4*%
%TO.N,A3*%
X167386000Y-104394000D03*
%TO.P,U3,16,O3*%
%TO.N,A2*%
X167386000Y-101854000D03*
%TO.P,U3,17,O2*%
%TO.N,A1*%
X167386000Y-99314000D03*
%TO.P,U3,18,O1*%
%TO.N,A0*%
X167386000Y-96774000D03*
%TD*%
D16*
%TO.P,U4,1,I1*%
%TO.N,Net-(U2-GPB0)*%
X159766000Y-71384000D03*
D17*
%TO.P,U4,2,I2*%
%TO.N,Net-(U2-GPB1)*%
X159766000Y-73924000D03*
%TO.P,U4,3,I3*%
%TO.N,Net-(U2-GPB2)*%
X159766000Y-76464000D03*
%TO.P,U4,4,I4*%
%TO.N,Net-(U2-GPB3)*%
X159766000Y-79004000D03*
%TO.P,U4,5,I5*%
%TO.N,Net-(U2-GPB4)*%
X159766000Y-81544000D03*
%TO.P,U4,6,I6*%
%TO.N,Net-(U2-GPB5)*%
X159766000Y-84084000D03*
%TO.P,U4,7,I7*%
%TO.N,Net-(U2-GPB6)*%
X159766000Y-86624000D03*
%TO.P,U4,8,I8*%
%TO.N,Net-(U2-GPB7)*%
X159766000Y-89164000D03*
%TO.P,U4,9,GND*%
%TO.N,GND*%
X159766000Y-91704000D03*
%TO.P,U4,10,COM*%
%TO.N,VCC*%
X167386000Y-91704000D03*
%TO.P,U4,11,O8*%
%TO.N,B7*%
X167386000Y-89164000D03*
%TO.P,U4,12,O7*%
%TO.N,B6*%
X167386000Y-86624000D03*
%TO.P,U4,13,O6*%
%TO.N,B5*%
X167386000Y-84084000D03*
%TO.P,U4,14,O5*%
%TO.N,B4*%
X167386000Y-81544000D03*
%TO.P,U4,15,O4*%
%TO.N,B3*%
X167386000Y-79004000D03*
%TO.P,U4,16,O3*%
%TO.N,B2*%
X167386000Y-76464000D03*
%TO.P,U4,17,O2*%
%TO.N,B1*%
X167386000Y-73924000D03*
%TO.P,U4,18,O1*%
%TO.N,B0*%
X167386000Y-71384000D03*
%TD*%
D18*
%TO.P,U2,1,GPB0*%
%TO.N,Net-(U2-GPB0)*%
X143002000Y-74676000D03*
D19*
%TO.P,U2,2,GPB1*%
%TO.N,Net-(U2-GPB1)*%
X143002000Y-77216000D03*
%TO.P,U2,3,GPB2*%
%TO.N,Net-(U2-GPB2)*%
X143002000Y-79756000D03*
%TO.P,U2,4,GPB3*%
%TO.N,Net-(U2-GPB3)*%
X143002000Y-82296000D03*
%TO.P,U2,5,GPB4*%
%TO.N,Net-(U2-GPB4)*%
X143002000Y-84836000D03*
%TO.P,U2,6,GPB5*%
%TO.N,Net-(U2-GPB5)*%
X143002000Y-87376000D03*
%TO.P,U2,7,GPB6*%
%TO.N,Net-(U2-GPB6)*%
X143002000Y-89916000D03*
%TO.P,U2,8,GPB7*%
%TO.N,Net-(U2-GPB7)*%
X143002000Y-92456000D03*
%TO.P,U2,9,VDD*%
%TO.N,+5V*%
X143002000Y-94996000D03*
%TO.P,U2,10,VSS*%
%TO.N,GND*%
X143002000Y-97536000D03*
%TO.P,U2,11,~{CS}*%
%TO.N,CS0*%
X143002000Y-100076000D03*
%TO.P,U2,12,SCK*%
%TO.N,SCK*%
X143002000Y-102616000D03*
%TO.P,U2,13,SI*%
%TO.N,MOSI*%
X143002000Y-105156000D03*
%TO.P,U2,14,SO*%
%TO.N,MISO*%
X143002000Y-107696000D03*
%TO.P,U2,15,A0*%
%TO.N,GND*%
X150622000Y-107696000D03*
%TO.P,U2,16,A1*%
X150622000Y-105156000D03*
%TO.P,U2,17,A2*%
X150622000Y-102616000D03*
%TO.P,U2,18,~{RESET}*%
%TO.N,+5V*%
X150622000Y-100076000D03*
%TO.P,U2,19,INTB*%
%TO.N,INTB0*%
X150622000Y-97536000D03*
%TO.P,U2,20,INTA*%
%TO.N,INTA0*%
X150622000Y-94996000D03*
%TO.P,U2,21,GPA0*%
%TO.N,Net-(U2-GPA0)*%
X150622000Y-92456000D03*
%TO.P,U2,22,GPA1*%
%TO.N,Net-(U2-GPA1)*%
X150622000Y-89916000D03*
%TO.P,U2,23,GPA2*%
%TO.N,Net-(U2-GPA2)*%
X150622000Y-87376000D03*
%TO.P,U2,24,GPA3*%
%TO.N,Net-(U2-GPA3)*%
X150622000Y-84836000D03*
%TO.P,U2,25,GPA4*%
%TO.N,Net-(U2-GPA4)*%
X150622000Y-82296000D03*
%TO.P,U2,26,GPA5*%
%TO.N,Net-(U2-GPA5)*%
X150622000Y-79756000D03*
%TO.P,U2,27,GPA6*%
%TO.N,Net-(U2-GPA6)*%
X150622000Y-77216000D03*
%TO.P,U2,28,GPA7*%
%TO.N,Net-(U2-GPA7)*%
X150622000Y-74676000D03*
%TD*%
D20*
%TO.P,J5,1,Pin_1*%
%TO.N,A0*%
X177546000Y-111810800D03*
D21*
%TO.P,J5,2,Pin_2*%
%TO.N,A1*%
X177546000Y-109270800D03*
%TO.P,J5,3,Pin_3*%
%TO.N,A2*%
X177546000Y-106730800D03*
%TO.P,J5,4,Pin_4*%
%TO.N,A3*%
X177546000Y-104190800D03*
%TO.P,J5,5,Pin_5*%
%TO.N,A4*%
X177546000Y-101650800D03*
%TO.P,J5,6,Pin_6*%
%TO.N,A5*%
X177546000Y-99110800D03*
%TO.P,J5,7,Pin_7*%
%TO.N,A6*%
X177546000Y-96570800D03*
%TO.P,J5,8,Pin_8*%
%TO.N,A7*%
X177546000Y-94030800D03*
%TO.P,J5,9,Pin_9*%
%TO.N,B0*%
X177546000Y-91490800D03*
%TO.P,J5,10,Pin_10*%
%TO.N,B1*%
X177546000Y-88950800D03*
%TO.P,J5,11,Pin_11*%
%TO.N,B2*%
X177546000Y-86410800D03*
%TO.P,J5,12,Pin_12*%
%TO.N,B3*%
X177546000Y-83870800D03*
%TO.P,J5,13,Pin_13*%
%TO.N,B4*%
X177546000Y-81330800D03*
%TO.P,J5,14,Pin_14*%
%TO.N,B5*%
X177546000Y-78790800D03*
%TO.P,J5,15,Pin_15*%
%TO.N,B6*%
X177546000Y-76250800D03*
%TO.P,J5,16,Pin_16*%
%TO.N,B7*%
X177546000Y-73710800D03*
%TD*%
D20*
%TO.P,J6,1,Pin_1*%
%TO.N,VCC*%
X180086000Y-111810800D03*
D21*
%TO.P,J6,2,Pin_2*%
X180086000Y-109270800D03*
%TO.P,J6,3,Pin_3*%
X180086000Y-106730800D03*
%TO.P,J6,4,Pin_4*%
X180086000Y-104190800D03*
%TO.P,J6,5,Pin_5*%
X180086000Y-101650800D03*
%TO.P,J6,6,Pin_6*%
X180086000Y-99110800D03*
%TO.P,J6,7,Pin_7*%
X180086000Y-96570800D03*
%TO.P,J6,8,Pin_8*%
X180086000Y-94030800D03*
%TO.P,J6,9,Pin_9*%
X180086000Y-91490800D03*
%TO.P,J6,10,Pin_10*%
X180086000Y-88950800D03*
%TO.P,J6,11,Pin_11*%
X180086000Y-86410800D03*
%TO.P,J6,12,Pin_12*%
X180086000Y-83870800D03*
%TO.P,J6,13,Pin_13*%
X180086000Y-81330800D03*
%TO.P,J6,14,Pin_14*%
X180086000Y-78790800D03*
%TO.P,J6,15,Pin_15*%
X180086000Y-76250800D03*
%TO.P,J6,16,Pin_16*%
X180086000Y-73710800D03*
%TD*%
D14*
%TO.P,H4,1*%
%TO.N,N/C*%
X178587400Y-122504200D03*
%TD*%
%TO.P,H2,1*%
%TO.N,N/C*%
X121259600Y-121361200D03*
%TD*%
D22*
%TO.N,MISO*%
X134911500Y-98298000D03*
X134874000Y-107696000D03*
%TO.N,MOSI*%
X136398000Y-98298000D03*
X136398000Y-105156000D03*
%TO.N,Net-(U2-GPA0)*%
X156518000Y-92456000D03*
%TO.N,Net-(U2-GPA1)*%
X155956000Y-91186000D03*
%TO.N,Net-(U2-GPA2)*%
X155702000Y-97028000D03*
X155318000Y-89408000D03*
%TO.N,Net-(U2-GPA3)*%
X156269500Y-101854000D03*
%TO.N,Net-(U2-GPA4)*%
X155956000Y-100330000D03*
%TO.N,Net-(U2-GPA5)*%
X155390668Y-98355332D03*
%TO.N,Net-(U2-GPA6)*%
X157734000Y-95504000D03*
%TO.N,Net-(U2-GPA7)*%
X157734000Y-93980000D03*
%TO.N,B7*%
X169164000Y-89154000D03*
X169164000Y-72644000D03*
%TO.N,B6*%
X170185500Y-86614000D03*
X170185500Y-75438000D03*
%TO.N,B5*%
X171185000Y-84074000D03*
X171196000Y-77724000D03*
%TO.N,B3*%
X172466000Y-83820000D03*
X172482500Y-78994000D03*
%TO.N,B2*%
X173482000Y-76454000D03*
X173498500Y-86360000D03*
%TO.N,B1*%
X174498000Y-74168000D03*
X174514500Y-88900000D03*
%TO.N,B0*%
X175514000Y-71374000D03*
X175514000Y-91440000D03*
%TO.N,A7*%
X175768000Y-114554000D03*
X176022000Y-93980000D03*
%TO.N,A6*%
X174752000Y-96520000D03*
X174768500Y-112014000D03*
%TO.N,A5*%
X173736000Y-109474000D03*
X173769000Y-99314000D03*
%TO.N,A4*%
X172720000Y-101600000D03*
X172736500Y-106934000D03*
%TO.N,A2*%
X171433500Y-108204000D03*
X171433500Y-101854000D03*
%TO.N,A1*%
X170434000Y-110744000D03*
X170434000Y-99314000D03*
%TO.N,A0*%
X169418000Y-113284000D03*
X169418000Y-97028000D03*
%TD*%
D23*
%TO.N,GND*%
X152486000Y-123190000D02*
X162306000Y-123190000D01*
X162306000Y-119634000D02*
X162306000Y-123190000D01*
X159766000Y-117094000D02*
X162306000Y-119634000D01*
D24*
%TO.N,MISO*%
X143002000Y-113705472D02*
X143002000Y-107696000D01*
X134986000Y-121721472D02*
X143002000Y-113705472D01*
X134986000Y-123190000D02*
X134986000Y-121721472D01*
%TO.N,MOSI*%
X144526000Y-106680000D02*
X143002000Y-105156000D01*
X144526000Y-113030000D02*
X144526000Y-106680000D01*
X138486000Y-119070000D02*
X144526000Y-113030000D01*
X138486000Y-123190000D02*
X138486000Y-119070000D01*
%TO.N,CS0*%
X145126000Y-100930000D02*
X144272000Y-100076000D01*
X144272000Y-100076000D02*
X143002000Y-100076000D01*
X145126000Y-113278528D02*
X145126000Y-100930000D01*
X141986000Y-123190000D02*
X141986000Y-116418528D01*
X141986000Y-116418528D02*
X145126000Y-113278528D01*
D23*
%TO.N,VCC*%
X164592000Y-117094000D02*
X167386000Y-117094000D01*
X180086000Y-94030800D02*
X180086000Y-91490800D01*
X180086000Y-114427000D02*
X180086000Y-111810800D01*
X171323000Y-123190000D02*
X173990000Y-120523000D01*
X180086000Y-96570800D02*
X180086000Y-94030800D01*
X163576000Y-93726000D02*
X163576000Y-116078000D01*
X127127000Y-125984000D02*
X125349000Y-124206000D01*
X180086000Y-78790800D02*
X180086000Y-81330800D01*
X180086000Y-91490800D02*
X180086000Y-88950800D01*
X180086000Y-104190800D02*
X180086000Y-101650800D01*
X167386000Y-91704000D02*
X165598000Y-91704000D01*
X167386000Y-123190000D02*
X171323000Y-123190000D01*
X180086000Y-76250800D02*
X180086000Y-78790800D01*
X165598000Y-91704000D02*
X163576000Y-93726000D01*
X180086000Y-101650800D02*
X180086000Y-99110800D01*
X180086000Y-106730800D02*
X180086000Y-104190800D01*
X180086000Y-73710800D02*
X180086000Y-76250800D01*
X173990000Y-120523000D02*
X180086000Y-114427000D01*
X180086000Y-88950800D02*
X180086000Y-86410800D01*
X180086000Y-99110800D02*
X180086000Y-96570800D01*
X163576000Y-116078000D02*
X164592000Y-117094000D01*
X167386000Y-123190000D02*
X164592000Y-125984000D01*
X125349000Y-113792000D02*
X123291600Y-111734600D01*
X180086000Y-86410800D02*
X180086000Y-83870800D01*
X125349000Y-124206000D02*
X125349000Y-113792000D01*
X180086000Y-111810800D02*
X180086000Y-109270800D01*
X180086000Y-109270800D02*
X180086000Y-106730800D01*
X164592000Y-125984000D02*
X127127000Y-125984000D01*
X123291600Y-111734600D02*
X120878600Y-111734600D01*
X180086000Y-83870800D02*
X180086000Y-81330800D01*
X167386000Y-117094000D02*
X167386000Y-123190000D01*
%TO.N,GND*%
X143002000Y-97536000D02*
X145542000Y-97536000D01*
X150622000Y-102616000D02*
X150622000Y-105156000D01*
X145542000Y-97536000D02*
X150622000Y-102616000D01*
X150622000Y-107696000D02*
X150622000Y-105156000D01*
D24*
%TO.N,MISO*%
X134874000Y-107696000D02*
X134874000Y-98335500D01*
X134874000Y-98335500D02*
X134911500Y-98298000D01*
%TO.N,MOSI*%
X136398000Y-105156000D02*
X136398000Y-98298000D01*
D23*
%TO.N,+5V*%
X145542000Y-94996000D02*
X150622000Y-100076000D01*
X120878600Y-72237600D02*
X120878600Y-87096600D01*
X120878600Y-87096600D02*
X128778000Y-94996000D01*
X158464000Y-65532000D02*
X127584200Y-65532000D01*
X162306000Y-61925200D02*
X162102800Y-61925200D01*
X143002000Y-94996000D02*
X145542000Y-94996000D01*
X128778000Y-94996000D02*
X143002000Y-94996000D01*
X162102800Y-61925200D02*
X158480000Y-65548000D01*
X127584200Y-65532000D02*
X120878600Y-72237600D01*
X158480000Y-65548000D02*
X158464000Y-65532000D01*
D24*
%TO.N,Net-(U2-GPB0)*%
X159766000Y-71384000D02*
X159766000Y-69088000D01*
X143002000Y-67056000D02*
X143002000Y-74676000D01*
X159766000Y-69088000D02*
X157226000Y-66548000D01*
X157226000Y-66548000D02*
X143510000Y-66548000D01*
X143510000Y-66548000D02*
X143002000Y-67056000D01*
%TO.N,Net-(U2-GPB1)*%
X159766000Y-73924000D02*
X159366000Y-73924000D01*
X159366000Y-73924000D02*
X157988000Y-72546000D01*
X144942000Y-67148000D02*
X144272000Y-67818000D01*
X157988000Y-68834000D02*
X156302000Y-67148000D01*
X144272000Y-67818000D02*
X144272000Y-75946000D01*
X157988000Y-72546000D02*
X157988000Y-68834000D01*
X156302000Y-67148000D02*
X144942000Y-67148000D01*
X144272000Y-75946000D02*
X143002000Y-77216000D01*
%TO.N,Net-(U2-GPB2)*%
X156053472Y-67748000D02*
X145358000Y-67748000D01*
X144872000Y-68234000D02*
X144872000Y-77886000D01*
X157998000Y-76464000D02*
X157388000Y-75854000D01*
X144872000Y-77886000D02*
X143002000Y-79756000D01*
X157388000Y-69082528D02*
X156053472Y-67748000D01*
X157388000Y-75854000D02*
X157388000Y-69082528D01*
X159766000Y-76464000D02*
X157998000Y-76464000D01*
X145358000Y-67748000D02*
X144872000Y-68234000D01*
%TO.N,Net-(U2-GPB3)*%
X156718000Y-69342000D02*
X155724000Y-68348000D01*
X145472000Y-79826000D02*
X143002000Y-82296000D01*
X159766000Y-79004000D02*
X157998000Y-79004000D01*
X157998000Y-79004000D02*
X156718000Y-77724000D01*
X156718000Y-77724000D02*
X156718000Y-69342000D01*
X146536000Y-68348000D02*
X145472000Y-69412000D01*
X145472000Y-69412000D02*
X145472000Y-79826000D01*
X155724000Y-68348000D02*
X146536000Y-68348000D01*
%TO.N,Net-(U2-GPB4)*%
X157744000Y-81544000D02*
X156118000Y-79918000D01*
X146072000Y-81766000D02*
X143002000Y-84836000D01*
X156118000Y-69590528D02*
X155475472Y-68948000D01*
X156118000Y-79918000D02*
X156118000Y-69590528D01*
X146784528Y-68948000D02*
X146072000Y-69660528D01*
X159766000Y-81544000D02*
X157744000Y-81544000D01*
X146072000Y-69660528D02*
X146072000Y-81766000D01*
X155475472Y-68948000D02*
X146784528Y-68948000D01*
%TO.N,Net-(U2-GPB5)*%
X154892000Y-69548000D02*
X147622000Y-69548000D01*
X146672000Y-85230000D02*
X144526000Y-87376000D01*
X146672000Y-70498000D02*
X146672000Y-85230000D01*
X157490000Y-84084000D02*
X155518000Y-82112000D01*
X159766000Y-84084000D02*
X157490000Y-84084000D01*
X144526000Y-87376000D02*
X143002000Y-87376000D01*
X155518000Y-70174000D02*
X154892000Y-69548000D01*
X155518000Y-82112000D02*
X155518000Y-70174000D01*
X147622000Y-69548000D02*
X146672000Y-70498000D01*
%TO.N,Net-(U2-GPB6)*%
X154918000Y-70844000D02*
X154222000Y-70148000D01*
X154222000Y-70148000D02*
X148546000Y-70148000D01*
X154918000Y-84814000D02*
X154918000Y-70844000D01*
X156728000Y-86624000D02*
X154918000Y-84814000D01*
X147272000Y-85646000D02*
X143002000Y-89916000D01*
X147272000Y-71422000D02*
X147272000Y-85646000D01*
X159766000Y-86624000D02*
X156728000Y-86624000D01*
X148546000Y-70148000D02*
X147272000Y-71422000D01*
%TO.N,Net-(U2-GPB7)*%
X154318000Y-87262000D02*
X154318000Y-71260000D01*
X148794528Y-70748000D02*
X147872000Y-71670528D01*
X147872000Y-71670528D02*
X147872000Y-87586000D01*
X159766000Y-89164000D02*
X156220000Y-89164000D01*
X153806000Y-70748000D02*
X148794528Y-70748000D01*
X147872000Y-87586000D02*
X143002000Y-92456000D01*
X156220000Y-89164000D02*
X154318000Y-87262000D01*
X154318000Y-71260000D02*
X153806000Y-70748000D01*
%TO.N,Net-(U2-GPA0)*%
X156518000Y-92456000D02*
X154394500Y-92456000D01*
X154394500Y-92456000D02*
X150622000Y-92456000D01*
%TO.N,Net-(U2-GPA1)*%
X150622000Y-89916000D02*
X154686000Y-89916000D01*
X154686000Y-89916000D02*
X155956000Y-91186000D01*
%TO.N,Net-(U2-GPA2)*%
X155318000Y-89110528D02*
X153583472Y-87376000D01*
X155318000Y-89408000D02*
X155318000Y-89110528D01*
X156972000Y-100330000D02*
X156972000Y-98298000D01*
X156972000Y-98298000D02*
X155702000Y-97028000D01*
X156972000Y-100838000D02*
X156972000Y-100330000D01*
X159766000Y-101854000D02*
X157988000Y-101854000D01*
X157988000Y-101854000D02*
X156972000Y-100838000D01*
X153583472Y-87376000D02*
X150622000Y-87376000D01*
%TO.N,Net-(U2-GPA3)*%
X156972000Y-104394000D02*
X156464000Y-103886000D01*
X156269500Y-103691500D02*
X156269500Y-101854000D01*
X156464000Y-103886000D02*
X156269500Y-103691500D01*
X156972000Y-104394000D02*
X159766000Y-104394000D01*
%TO.N,Net-(U2-GPA4)*%
X155956000Y-106934000D02*
X155470000Y-106448000D01*
X159766000Y-106934000D02*
X155956000Y-106934000D01*
X155470000Y-106448000D02*
X155470000Y-100816000D01*
X155470000Y-100816000D02*
X155956000Y-100330000D01*
%TO.N,Net-(U2-GPA5)*%
X154870000Y-99060000D02*
X154870000Y-108388000D01*
X155956000Y-109474000D02*
X159766000Y-109474000D01*
X154870000Y-108388000D02*
X155956000Y-109474000D01*
X155390668Y-98355332D02*
X155390668Y-98539332D01*
X155390668Y-98539332D02*
X154870000Y-99060000D01*
%TO.N,Net-(U2-GPA6)*%
X154270000Y-96012000D02*
X154270000Y-110836000D01*
X154270000Y-110836000D02*
X155448000Y-112014000D01*
X157734000Y-95504000D02*
X154778000Y-95504000D01*
X154778000Y-95504000D02*
X154270000Y-96012000D01*
X155448000Y-112014000D02*
X159766000Y-112014000D01*
%TO.N,Net-(U2-GPA7)*%
X159766000Y-114554000D02*
X156464000Y-114554000D01*
X153670000Y-95250000D02*
X154940000Y-93980000D01*
X154940000Y-93980000D02*
X157734000Y-93980000D01*
X156464000Y-114554000D02*
X153670000Y-111760000D01*
X153670000Y-111760000D02*
X153670000Y-95250000D01*
D25*
%TO.N,B7*%
X169186000Y-72666000D02*
X169164000Y-72644000D01*
X169164000Y-89154000D02*
X169186000Y-89132000D01*
X169186000Y-89132000D02*
X169186000Y-72666000D01*
%TO.N,B6*%
X170185500Y-86614000D02*
X170185500Y-75438000D01*
%TO.N,B5*%
X171185000Y-77735000D02*
X171196000Y-77724000D01*
X171185000Y-84074000D02*
X171185000Y-77735000D01*
%TO.N,B3*%
X172482500Y-78994000D02*
X172482500Y-83803500D01*
X172482500Y-83803500D02*
X172466000Y-83820000D01*
%TO.N,B2*%
X173482000Y-86343500D02*
X173498500Y-86360000D01*
X173482000Y-76454000D02*
X173482000Y-86343500D01*
%TO.N,B1*%
X174498000Y-74168000D02*
X174498000Y-88883500D01*
X174498000Y-88883500D02*
X174514500Y-88900000D01*
%TO.N,B0*%
X175514000Y-71374000D02*
X175514000Y-91440000D01*
%TO.N,A7*%
X175768000Y-94234000D02*
X176022000Y-93980000D01*
X175768000Y-114554000D02*
X175768000Y-94234000D01*
%TO.N,A6*%
X174768500Y-112014000D02*
X174768500Y-96536500D01*
X174768500Y-96536500D02*
X174752000Y-96520000D01*
%TO.N,A5*%
X173736000Y-109474000D02*
X173736000Y-99347000D01*
X173736000Y-99347000D02*
X173769000Y-99314000D01*
%TO.N,A4*%
X172736500Y-101616500D02*
X172720000Y-101600000D01*
X172736500Y-106934000D02*
X172736500Y-101616500D01*
%TO.N,A2*%
X171433500Y-101854000D02*
X171433500Y-108204000D01*
%TO.N,A1*%
X170434000Y-99314000D02*
X170434000Y-110744000D01*
%TO.N,A0*%
X169418000Y-97028000D02*
X169418000Y-113284000D01*
%TD*%
%TA.AperFunction,Conductor*%
%TO.N,GND*%
G36*
X151961901Y-123492588D02*
G01*
X152058075Y-123617925D01*
X152183412Y-123714099D01*
X152276779Y-123752772D01*
X151472813Y-124556737D01*
X151608206Y-124649046D01*
X151652508Y-124703075D01*
X151660567Y-124772478D01*
X151629824Y-124835221D01*
X151570040Y-124871383D01*
X151538354Y-124875500D01*
X149948736Y-124875500D01*
X149881697Y-124855815D01*
X149835942Y-124803011D01*
X149825998Y-124733853D01*
X149855023Y-124670297D01*
X149878878Y-124649051D01*
X150054219Y-124529505D01*
X150218470Y-124377103D01*
X150241927Y-124355338D01*
X150241927Y-124355336D01*
X150241931Y-124355334D01*
X150401587Y-124155131D01*
X150529622Y-123933369D01*
X150623174Y-123695001D01*
X150623174Y-123695000D01*
X150624869Y-123690682D01*
X150626830Y-123691451D01*
X150660581Y-123640436D01*
X150724516Y-123612257D01*
X150793536Y-123623117D01*
X150845729Y-123669568D01*
X150855961Y-123689916D01*
X150950058Y-123929671D01*
X150950057Y-123929671D01*
X151077457Y-124150332D01*
X151119452Y-124202993D01*
X151119453Y-124202993D01*
X151923226Y-123399219D01*
X151961901Y-123492588D01*
G37*
%TD.AperFunction*%
%TA.AperFunction,Conductor*%
G36*
X150872000Y-107380314D02*
G01*
X150860045Y-107368359D01*
X150747148Y-107310835D01*
X150653481Y-107296000D01*
X150590519Y-107296000D01*
X150496852Y-107310835D01*
X150383955Y-107368359D01*
X150372000Y-107380314D01*
X150372000Y-105471686D01*
X150383955Y-105483641D01*
X150496852Y-105541165D01*
X150590519Y-105556000D01*
X150653481Y-105556000D01*
X150747148Y-105541165D01*
X150860045Y-105483641D01*
X150872000Y-105471685D01*
X150872000Y-107380314D01*
G37*
%TD.AperFunction*%
%TA.AperFunction,Conductor*%
G36*
X150872000Y-104840314D02*
G01*
X150860045Y-104828359D01*
X150747148Y-104770835D01*
X150653481Y-104756000D01*
X150590519Y-104756000D01*
X150496852Y-104770835D01*
X150383955Y-104828359D01*
X150372000Y-104840314D01*
X150372000Y-102931686D01*
X150383955Y-102943641D01*
X150496852Y-103001165D01*
X150590519Y-103016000D01*
X150653481Y-103016000D01*
X150747148Y-103001165D01*
X150860045Y-102943641D01*
X150872000Y-102931685D01*
X150872000Y-104840314D01*
G37*
%TD.AperFunction*%
%TA.AperFunction,Conductor*%
G36*
X142287302Y-66660185D02*
G01*
X142333057Y-66712989D01*
X142343001Y-66782147D01*
X142333338Y-66815392D01*
X142320610Y-66843670D01*
X142320609Y-66843673D01*
X142318737Y-66853889D01*
X142312715Y-66875494D01*
X142309035Y-66885198D01*
X142301470Y-66947490D01*
X142300907Y-66951191D01*
X142289598Y-67012903D01*
X142289598Y-67012908D01*
X142293387Y-67075544D01*
X142293500Y-67079289D01*
X142293500Y-73243500D01*
X142273815Y-73310539D01*
X142221011Y-73356294D01*
X142169500Y-73367500D01*
X142153345Y-73367500D01*
X142092797Y-73374011D01*
X142092795Y-73374011D01*
X141955795Y-73425111D01*
X141838739Y-73512739D01*
X141751111Y-73629795D01*
X141700011Y-73766795D01*
X141700011Y-73766797D01*
X141693500Y-73827345D01*
X141693500Y-75524654D01*
X141700011Y-75585202D01*
X141700011Y-75585204D01*
X141736189Y-75682198D01*
X141751111Y-75722204D01*
X141838739Y-75839261D01*
X141955796Y-75926889D01*
X142055110Y-75963931D01*
X142092793Y-75977987D01*
X142092799Y-75977989D01*
X142107499Y-75979569D01*
X142172048Y-76006305D01*
X142211897Y-76063696D01*
X142214393Y-76133521D01*
X142178742Y-76193611D01*
X142165377Y-76204425D01*
X142157700Y-76209802D01*
X142157696Y-76209805D01*
X141995806Y-76371695D01*
X141864476Y-76559252D01*
X141864475Y-76559254D01*
X141767718Y-76766750D01*
X141767714Y-76766761D01*
X141708457Y-76987910D01*
X141708456Y-76987918D01*
X141688502Y-77215998D01*
X141688502Y-77216001D01*
X141708456Y-77444081D01*
X141708457Y-77444089D01*
X141767714Y-77665238D01*
X141767718Y-77665249D01*
X141861751Y-77866904D01*
X141864477Y-77872749D01*
X141995802Y-78060300D01*
X142157700Y-78222198D01*
X142274801Y-78304193D01*
X142345251Y-78353523D01*
X142388345Y-78373618D01*
X142440784Y-78419791D01*
X142459936Y-78486984D01*
X142439720Y-78553865D01*
X142388345Y-78598382D01*
X142345251Y-78618476D01*
X142220126Y-78706090D01*
X142157700Y-78749802D01*
X142157698Y-78749803D01*
X142157695Y-78749806D01*
X141995806Y-78911695D01*
X141995803Y-78911698D01*
X141995802Y-78911700D01*
X141913767Y-79028856D01*
X141864476Y-79099252D01*
X141864475Y-79099254D01*
X141767718Y-79306750D01*
X141767714Y-79306761D01*
X141708457Y-79527910D01*
X141708456Y-79527918D01*
X141688502Y-79755998D01*
X141688502Y-79756001D01*
X141708456Y-79984081D01*
X141708457Y-79984089D01*
X141767714Y-80205238D01*
X141767718Y-80205249D01*
X141831423Y-80341865D01*
X141864477Y-80412749D01*
X141995802Y-80600300D01*
X142157700Y-80762198D01*
X142274801Y-80844193D01*
X142345251Y-80893523D01*
X142388345Y-80913618D01*
X142440784Y-80959791D01*
X142459936Y-81026984D01*
X142439720Y-81093865D01*
X142388345Y-81138382D01*
X142345251Y-81158476D01*
X142237223Y-81234119D01*
X142157700Y-81289802D01*
X142157698Y-81289803D01*
X142157695Y-81289806D01*
X141995806Y-81451695D01*
X141995803Y-81451698D01*
X141995802Y-81451700D01*
X141931174Y-81543998D01*
X141864476Y-81639252D01*
X141864475Y-81639254D01*
X141767718Y-81846750D01*
X141767714Y-81846761D01*
X141708457Y-82067910D01*
X141708456Y-82067918D01*
X141688502Y-82295998D01*
X141688502Y-82296001D01*
X141708456Y-82524081D01*
X141708457Y-82524089D01*
X141767714Y-82745238D01*
X141767718Y-82745249D01*
X141831423Y-82881865D01*
X141864477Y-82952749D01*
X141995802Y-83140300D01*
X142157700Y-83302198D01*
X142336294Y-83427251D01*
X142345251Y-83433523D01*
X142388345Y-83453618D01*
X142440784Y-83499791D01*
X142459936Y-83566984D01*
X142439720Y-83633865D01*
X142388345Y-83678382D01*
X142345251Y-83698476D01*
X142220126Y-83786090D01*
X142157700Y-83829802D01*
X142157698Y-83829803D01*
X142157695Y-83829806D01*
X141995806Y-83991695D01*
X141864476Y-84179252D01*
X141864475Y-84179254D01*
X141767718Y-84386750D01*
X141767714Y-84386761D01*
X141708457Y-84607910D01*
X141708456Y-84607918D01*
X141688502Y-84835998D01*
X141688502Y-84836001D01*
X141708456Y-85064081D01*
X141708457Y-85064089D01*
X141767714Y-85285238D01*
X141767718Y-85285249D01*
X141831423Y-85421865D01*
X141864477Y-85492749D01*
X141995802Y-85680300D01*
X142157700Y-85842198D01*
X142336294Y-85967251D01*
X142345251Y-85973523D01*
X142388345Y-85993618D01*
X142440784Y-86039791D01*
X142459936Y-86106984D01*
X142439720Y-86173865D01*
X142388345Y-86218382D01*
X142345251Y-86238476D01*
X142220126Y-86326090D01*
X142157700Y-86369802D01*
X142157698Y-86369803D01*
X142157695Y-86369806D01*
X141995806Y-86531695D01*
X141995803Y-86531698D01*
X141995802Y-86531700D01*
X141923359Y-86635159D01*
X141864476Y-86719252D01*
X141864475Y-86719254D01*
X141767718Y-86926750D01*
X141767714Y-86926761D01*
X141708457Y-87147910D01*
X141708456Y-87147918D01*
X141688502Y-87375998D01*
X141688502Y-87376001D01*
X141708456Y-87604081D01*
X141708457Y-87604089D01*
X141767714Y-87825238D01*
X141767718Y-87825249D01*
X141861551Y-88026475D01*
X141864477Y-88032749D01*
X141995802Y-88220300D01*
X142157700Y-88382198D01*
X142274801Y-88464193D01*
X142345251Y-88513523D01*
X142388345Y-88533618D01*
X142440784Y-88579791D01*
X142459936Y-88646984D01*
X142439720Y-88713865D01*
X142388345Y-88758382D01*
X142345251Y-88778476D01*
X142220126Y-88866090D01*
X142157700Y-88909802D01*
X142157698Y-88909803D01*
X142157695Y-88909806D01*
X141995806Y-89071695D01*
X141995803Y-89071698D01*
X141995802Y-89071700D01*
X141957197Y-89126834D01*
X141864476Y-89259252D01*
X141864475Y-89259254D01*
X141767718Y-89466750D01*
X141767714Y-89466761D01*
X141708457Y-89687910D01*
X141708456Y-89687918D01*
X141688502Y-89915998D01*
X141688502Y-89916001D01*
X141708456Y-90144081D01*
X141708457Y-90144089D01*
X141767714Y-90365238D01*
X141767718Y-90365249D01*
X141831423Y-90501865D01*
X141864477Y-90572749D01*
X141995802Y-90760300D01*
X142157700Y-90922198D01*
X142274801Y-91004193D01*
X142345251Y-91053523D01*
X142388345Y-91073618D01*
X142440784Y-91119791D01*
X142459936Y-91186984D01*
X142439720Y-91253865D01*
X142388345Y-91298382D01*
X142345251Y-91318476D01*
X142262587Y-91376359D01*
X142157700Y-91449802D01*
X142157698Y-91449803D01*
X142157695Y-91449806D01*
X141995806Y-91611695D01*
X141995803Y-91611698D01*
X141995802Y-91611700D01*
X141931174Y-91703998D01*
X141864476Y-91799252D01*
X141864475Y-91799254D01*
X141767718Y-92006750D01*
X141767714Y-92006761D01*
X141708457Y-92227910D01*
X141708456Y-92227918D01*
X141688502Y-92455998D01*
X141688502Y-92456001D01*
X141708456Y-92684081D01*
X141708457Y-92684089D01*
X141767714Y-92905238D01*
X141767718Y-92905249D01*
X141862377Y-93108246D01*
X141864477Y-93112749D01*
X141995802Y-93300300D01*
X142157700Y-93462198D01*
X142337626Y-93588184D01*
X142345251Y-93593523D01*
X142388345Y-93613618D01*
X142440784Y-93659791D01*
X142459936Y-93726984D01*
X142439720Y-93793865D01*
X142388345Y-93838382D01*
X142345250Y-93858477D01*
X142335830Y-93865074D01*
X142269624Y-93887402D01*
X142264705Y-93887500D01*
X129288518Y-93887500D01*
X129221479Y-93867815D01*
X129200837Y-93851181D01*
X122023419Y-86673763D01*
X121989934Y-86612440D01*
X121987100Y-86586082D01*
X121987100Y-73308201D01*
X122006785Y-73241162D01*
X122016810Y-73227670D01*
X122102773Y-73127019D01*
X122102776Y-73127016D01*
X122226840Y-72924563D01*
X122229641Y-72917802D01*
X122317704Y-72705197D01*
X122317704Y-72705196D01*
X122317705Y-72705194D01*
X122373135Y-72474311D01*
X122383521Y-72342346D01*
X122408404Y-72277061D01*
X122419450Y-72264404D01*
X122446249Y-72237605D01*
X136518459Y-72237605D01*
X136538985Y-72485329D01*
X136538987Y-72485338D01*
X136600012Y-72726317D01*
X136699866Y-72953964D01*
X136800164Y-73107482D01*
X137579149Y-72328496D01*
X137579927Y-72338865D01*
X137629487Y-72465141D01*
X137714065Y-72571199D01*
X137826147Y-72647616D01*
X137933899Y-72680853D01*
X137153542Y-73461209D01*
X137200368Y-73497655D01*
X137200370Y-73497656D01*
X137418985Y-73615964D01*
X137418996Y-73615969D01*
X137654106Y-73696683D01*
X137899307Y-73737600D01*
X138147893Y-73737600D01*
X138393093Y-73696683D01*
X138628203Y-73615969D01*
X138628214Y-73615964D01*
X138846828Y-73497657D01*
X138846831Y-73497655D01*
X138893656Y-73461209D01*
X138111831Y-72679384D01*
X138157738Y-72672465D01*
X138279957Y-72613607D01*
X138379398Y-72521340D01*
X138447225Y-72403860D01*
X138465099Y-72325547D01*
X139247034Y-73107482D01*
X139347331Y-72953969D01*
X139447187Y-72726317D01*
X139508212Y-72485338D01*
X139508214Y-72485329D01*
X139528741Y-72237605D01*
X139528741Y-72237594D01*
X139508214Y-71989870D01*
X139508212Y-71989861D01*
X139447187Y-71748882D01*
X139347331Y-71521230D01*
X139247034Y-71367716D01*
X138468049Y-72146701D01*
X138467273Y-72136335D01*
X138417713Y-72010059D01*
X138333135Y-71904001D01*
X138221053Y-71827584D01*
X138113300Y-71794347D01*
X138893657Y-71013990D01*
X138893656Y-71013989D01*
X138846829Y-70977543D01*
X138628214Y-70859235D01*
X138628203Y-70859230D01*
X138393093Y-70778516D01*
X138147893Y-70737600D01*
X137899307Y-70737600D01*
X137654106Y-70778516D01*
X137418996Y-70859230D01*
X137418990Y-70859232D01*
X137200361Y-70977549D01*
X137153542Y-71013988D01*
X137153542Y-71013990D01*
X137935368Y-71795815D01*
X137889462Y-71802735D01*
X137767243Y-71861593D01*
X137667802Y-71953860D01*
X137599975Y-72071340D01*
X137582101Y-72149652D01*
X136800163Y-71367716D01*
X136699867Y-71521232D01*
X136600012Y-71748882D01*
X136538987Y-71989861D01*
X136538985Y-71989870D01*
X136518459Y-72237594D01*
X136518459Y-72237605D01*
X122446249Y-72237605D01*
X128007036Y-66676819D01*
X128068360Y-66643334D01*
X128094718Y-66640500D01*
X142220263Y-66640500D01*
X142287302Y-66660185D01*
G37*
%TD.AperFunction*%
%TA.AperFunction,Conductor*%
G36*
X179857236Y-56794975D02*
G01*
X179957047Y-56799878D01*
X180010950Y-56802526D01*
X180233533Y-56814180D01*
X180239339Y-56814762D01*
X180364452Y-56833321D01*
X180421423Y-56841773D01*
X180473347Y-56849996D01*
X180615585Y-56872525D01*
X180620930Y-56873617D01*
X180740712Y-56903621D01*
X180803946Y-56919460D01*
X180989758Y-56969250D01*
X180994543Y-56970743D01*
X181174112Y-57034996D01*
X181348977Y-57102122D01*
X181352157Y-57103343D01*
X181356442Y-57105175D01*
X181529808Y-57187172D01*
X181615411Y-57230789D01*
X181699126Y-57273445D01*
X181702854Y-57275509D01*
X181867943Y-57374460D01*
X182027081Y-57477807D01*
X182030223Y-57479989D01*
X182185227Y-57594949D01*
X182332624Y-57714309D01*
X182335210Y-57716525D01*
X182477373Y-57845375D01*
X182479545Y-57847442D01*
X182546109Y-57914006D01*
X182612662Y-57980561D01*
X182614760Y-57982765D01*
X182743575Y-58124891D01*
X182745805Y-58127492D01*
X182865153Y-58274875D01*
X182907340Y-58331758D01*
X182980133Y-58429909D01*
X182982332Y-58433076D01*
X183085635Y-58592150D01*
X183184610Y-58757281D01*
X183186674Y-58761009D01*
X183272930Y-58930297D01*
X183354935Y-59103683D01*
X183356770Y-59107974D01*
X183425116Y-59286023D01*
X183489351Y-59465553D01*
X183490863Y-59470394D01*
X183540648Y-59656193D01*
X183586485Y-59839183D01*
X183587580Y-59844552D01*
X183618334Y-60038726D01*
X183645338Y-60220773D01*
X183645924Y-60226629D01*
X183657369Y-60445005D01*
X183665148Y-60603344D01*
X183665223Y-60606387D01*
X183665223Y-123747270D01*
X183665148Y-123750312D01*
X183657867Y-123898528D01*
X183646282Y-124119321D01*
X183645695Y-124125173D01*
X183619820Y-124299618D01*
X183589067Y-124493786D01*
X183587972Y-124499155D01*
X183543696Y-124675915D01*
X183494234Y-124860505D01*
X183492722Y-124865346D01*
X183430475Y-125039321D01*
X183362770Y-125215697D01*
X183360935Y-125219987D01*
X183281316Y-125388330D01*
X183196012Y-125555746D01*
X183193949Y-125559473D01*
X183097763Y-125719950D01*
X182995684Y-125877139D01*
X182993485Y-125880306D01*
X182881673Y-126031069D01*
X182763810Y-126176615D01*
X182761567Y-126179233D01*
X182636291Y-126317456D01*
X182634192Y-126319661D01*
X182502788Y-126451064D01*
X182500584Y-126453163D01*
X182362335Y-126578466D01*
X182359716Y-126580710D01*
X182214196Y-126698552D01*
X182063425Y-126810371D01*
X182060259Y-126812570D01*
X181903075Y-126914648D01*
X181742588Y-127010840D01*
X181738860Y-127012904D01*
X181571452Y-127098205D01*
X181403112Y-127177824D01*
X181398821Y-127179659D01*
X181222450Y-127247364D01*
X181048471Y-127309616D01*
X181043628Y-127311128D01*
X180859049Y-127360587D01*
X180682276Y-127404866D01*
X180676909Y-127405962D01*
X180482761Y-127436713D01*
X180308301Y-127462593D01*
X180302445Y-127463179D01*
X180077385Y-127474975D01*
X179933898Y-127482025D01*
X179930855Y-127482100D01*
X119586409Y-127482100D01*
X119583366Y-127482025D01*
X119429414Y-127474461D01*
X119235432Y-127464306D01*
X119229573Y-127463719D01*
X119104896Y-127445225D01*
X119056814Y-127438092D01*
X118881379Y-127410305D01*
X118876012Y-127409210D01*
X118703975Y-127366117D01*
X118534639Y-127320742D01*
X118529797Y-127319230D01*
X118361667Y-127259071D01*
X118198812Y-127196555D01*
X118194521Y-127194720D01*
X118032401Y-127118043D01*
X117877297Y-127039012D01*
X117873570Y-127036949D01*
X117768138Y-126973755D01*
X117719301Y-126944482D01*
X117707589Y-126936877D01*
X117573414Y-126849741D01*
X117570248Y-126847542D01*
X117425496Y-126740186D01*
X117290261Y-126630673D01*
X117287641Y-126628429D01*
X117155024Y-126508231D01*
X117152820Y-126506132D01*
X117030739Y-126384051D01*
X117028658Y-126381866D01*
X116908453Y-126249239D01*
X116906241Y-126246659D01*
X116796696Y-126111381D01*
X116689348Y-125966638D01*
X116687165Y-125963497D01*
X116592394Y-125817561D01*
X116533888Y-125719950D01*
X116499924Y-125663284D01*
X116497889Y-125659608D01*
X116418848Y-125504480D01*
X116384375Y-125431593D01*
X116342164Y-125342345D01*
X116340333Y-125338062D01*
X116339080Y-125334799D01*
X116277834Y-125175246D01*
X116217657Y-125007064D01*
X116216146Y-125002223D01*
X116198456Y-124936204D01*
X116170787Y-124832944D01*
X116127682Y-124660860D01*
X116126589Y-124655499D01*
X116125567Y-124649047D01*
X116098795Y-124480011D01*
X116098368Y-124477132D01*
X116073173Y-124307281D01*
X116072591Y-124301470D01*
X116062637Y-124111544D01*
X116054850Y-123953029D01*
X116054777Y-123950045D01*
X116054777Y-121361202D01*
X117946241Y-121361202D01*
X117965663Y-121719434D01*
X118023706Y-122073479D01*
X118023707Y-122073482D01*
X118119682Y-122419155D01*
X118119683Y-122419157D01*
X118252472Y-122752433D01*
X118252481Y-122752451D01*
X118281620Y-122807413D01*
X118414011Y-123057129D01*
X118420528Y-123069420D01*
X118420529Y-123069423D01*
X118621856Y-123366357D01*
X118621864Y-123366367D01*
X118854108Y-123639786D01*
X118854116Y-123639795D01*
X119114577Y-123886517D01*
X119400186Y-124103631D01*
X119707595Y-124288593D01*
X119707597Y-124288594D01*
X119707599Y-124288595D01*
X119707603Y-124288597D01*
X120033188Y-124439228D01*
X120033199Y-124439233D01*
X120373183Y-124553787D01*
X120723558Y-124630911D01*
X121080218Y-124669700D01*
X121080224Y-124669700D01*
X121438976Y-124669700D01*
X121438982Y-124669700D01*
X121795642Y-124630911D01*
X122146017Y-124553787D01*
X122486001Y-124439233D01*
X122811605Y-124288593D01*
X123119014Y-124103631D01*
X123404623Y-123886517D01*
X123665084Y-123639795D01*
X123897342Y-123366359D01*
X123954745Y-123281694D01*
X124013867Y-123194498D01*
X124067781Y-123150057D01*
X124137163Y-123141819D01*
X124199985Y-123172400D01*
X124236301Y-123232090D01*
X124240500Y-123264085D01*
X124240500Y-124103095D01*
X124238783Y-124123660D01*
X124238295Y-124126557D01*
X124238295Y-124126560D01*
X124240500Y-124219190D01*
X124240500Y-124258807D01*
X124241545Y-124269760D01*
X124241808Y-124274174D01*
X124243333Y-124338198D01*
X124243334Y-124338204D01*
X124251010Y-124373491D01*
X124252148Y-124380784D01*
X124255581Y-124416738D01*
X124255581Y-124416739D01*
X124273624Y-124478191D01*
X124274719Y-124482480D01*
X124288331Y-124545053D01*
X124288333Y-124545059D01*
X124302548Y-124578254D01*
X124305045Y-124585200D01*
X124315223Y-124619862D01*
X124323648Y-124636204D01*
X124344570Y-124676788D01*
X124346457Y-124680793D01*
X124371663Y-124739656D01*
X124371668Y-124739666D01*
X124391912Y-124769576D01*
X124395678Y-124775924D01*
X124412226Y-124808023D01*
X124451818Y-124858368D01*
X124454428Y-124861943D01*
X124490329Y-124914985D01*
X124515860Y-124940515D01*
X124520758Y-124946034D01*
X124543090Y-124974430D01*
X124543093Y-124974433D01*
X124591502Y-125016380D01*
X124594742Y-125019397D01*
X126270403Y-126695058D01*
X126283728Y-126710810D01*
X126285438Y-126713211D01*
X126285442Y-126713216D01*
X126352510Y-126777165D01*
X126380503Y-126805159D01*
X126380508Y-126805163D01*
X126380510Y-126805165D01*
X126388992Y-126812168D01*
X126392296Y-126815101D01*
X126421214Y-126842674D01*
X126438654Y-126859303D01*
X126466037Y-126876901D01*
X126469042Y-126878832D01*
X126475001Y-126883184D01*
X126502851Y-126906179D01*
X126559070Y-126936877D01*
X126562843Y-126939114D01*
X126616746Y-126973756D01*
X126650275Y-126987178D01*
X126656945Y-126990321D01*
X126688654Y-127007636D01*
X126749661Y-127027137D01*
X126753821Y-127028633D01*
X126767795Y-127034227D01*
X126813279Y-127052436D01*
X126848756Y-127059273D01*
X126855892Y-127061095D01*
X126864794Y-127063940D01*
X126890298Y-127072094D01*
X126920565Y-127075712D01*
X126953887Y-127079696D01*
X126958249Y-127080375D01*
X127021151Y-127092500D01*
X127057270Y-127092500D01*
X127064637Y-127092939D01*
X127071668Y-127093779D01*
X127100501Y-127097227D01*
X127164386Y-127092657D01*
X127168808Y-127092500D01*
X164489095Y-127092500D01*
X164509657Y-127094216D01*
X164512561Y-127094705D01*
X164603176Y-127092547D01*
X164605190Y-127092500D01*
X164644799Y-127092500D01*
X164644803Y-127092500D01*
X164644812Y-127092499D01*
X164644814Y-127092499D01*
X164649188Y-127092081D01*
X164655751Y-127091453D01*
X164660169Y-127091190D01*
X164724199Y-127089667D01*
X164759490Y-127081988D01*
X164766777Y-127080852D01*
X164802739Y-127077419D01*
X164864205Y-127059370D01*
X164868478Y-127058280D01*
X164874650Y-127056937D01*
X164931059Y-127044667D01*
X164964258Y-127030449D01*
X164971203Y-127027953D01*
X164974089Y-127027105D01*
X165005862Y-127017777D01*
X165062798Y-126988422D01*
X165066793Y-126986542D01*
X165071865Y-126984370D01*
X165125664Y-126961333D01*
X165155591Y-126941076D01*
X165161915Y-126937324D01*
X165194026Y-126920771D01*
X165244382Y-126881169D01*
X165247914Y-126878589D01*
X165300981Y-126842674D01*
X165326521Y-126817132D01*
X165332043Y-126812233D01*
X165358257Y-126791618D01*
X165360432Y-126789908D01*
X165360434Y-126789905D01*
X165360436Y-126789904D01*
X165393412Y-126751846D01*
X165402388Y-126741487D01*
X165405370Y-126738283D01*
X166908835Y-125234819D01*
X166970159Y-125201334D01*
X166996517Y-125198500D01*
X168934638Y-125198500D01*
X168934654Y-125198499D01*
X168961692Y-125195591D01*
X168995201Y-125191989D01*
X169132204Y-125140889D01*
X169249261Y-125053261D01*
X169336889Y-124936204D01*
X169387989Y-124799201D01*
X169392928Y-124753261D01*
X169394499Y-124738654D01*
X169394500Y-124738637D01*
X169394500Y-124422500D01*
X169414185Y-124355461D01*
X169466989Y-124309706D01*
X169518500Y-124298500D01*
X171220095Y-124298500D01*
X171240657Y-124300216D01*
X171243561Y-124300705D01*
X171334176Y-124298547D01*
X171336190Y-124298500D01*
X171375799Y-124298500D01*
X171375803Y-124298500D01*
X171375812Y-124298499D01*
X171375814Y-124298499D01*
X171380188Y-124298081D01*
X171386751Y-124297453D01*
X171391169Y-124297190D01*
X171455199Y-124295667D01*
X171490490Y-124287988D01*
X171497777Y-124286852D01*
X171533739Y-124283419D01*
X171595205Y-124265370D01*
X171599478Y-124264280D01*
X171605650Y-124262937D01*
X171662059Y-124250667D01*
X171695258Y-124236449D01*
X171702203Y-124233953D01*
X171705089Y-124233105D01*
X171736862Y-124223777D01*
X171793798Y-124194422D01*
X171797793Y-124192542D01*
X171856664Y-124167333D01*
X171886591Y-124147076D01*
X171892915Y-124143324D01*
X171925026Y-124126771D01*
X171975382Y-124087169D01*
X171978914Y-124084589D01*
X172031981Y-124048674D01*
X172057521Y-124023132D01*
X172063043Y-124018233D01*
X172074950Y-124008868D01*
X172091432Y-123995908D01*
X172091434Y-123995905D01*
X172091436Y-123995904D01*
X172125024Y-123957140D01*
X172133388Y-123947487D01*
X172136370Y-123944283D01*
X174811166Y-121269490D01*
X174811166Y-121269489D01*
X174812567Y-121268089D01*
X174812584Y-121268069D01*
X175868424Y-120212229D01*
X175929745Y-120178746D01*
X175999437Y-120183730D01*
X176055370Y-120225602D01*
X176079787Y-120291066D01*
X176064935Y-120359339D01*
X176050612Y-120380187D01*
X175949663Y-120499033D01*
X175949656Y-120499042D01*
X175748329Y-120795976D01*
X175748328Y-120795979D01*
X175580281Y-121112948D01*
X175580272Y-121112966D01*
X175447483Y-121446242D01*
X175447482Y-121446244D01*
X175351507Y-121791917D01*
X175351506Y-121791920D01*
X175293463Y-122145965D01*
X175274040Y-122504197D01*
X175274040Y-122504202D01*
X175293463Y-122862434D01*
X175311187Y-122970546D01*
X175347165Y-123190004D01*
X175351506Y-123216479D01*
X175351507Y-123216482D01*
X175447482Y-123562155D01*
X175447483Y-123562157D01*
X175580272Y-123895433D01*
X175580281Y-123895451D01*
X175610262Y-123952000D01*
X175738789Y-124194429D01*
X175748328Y-124212420D01*
X175748329Y-124212423D01*
X175949656Y-124509357D01*
X175949664Y-124509367D01*
X176178315Y-124778556D01*
X176181916Y-124782795D01*
X176442377Y-125029517D01*
X176727986Y-125246631D01*
X177035395Y-125431593D01*
X177035397Y-125431594D01*
X177035399Y-125431595D01*
X177035403Y-125431597D01*
X177303748Y-125555746D01*
X177360999Y-125582233D01*
X177700983Y-125696787D01*
X178051358Y-125773911D01*
X178408018Y-125812700D01*
X178408024Y-125812700D01*
X178766776Y-125812700D01*
X178766782Y-125812700D01*
X179123442Y-125773911D01*
X179473817Y-125696787D01*
X179813801Y-125582233D01*
X180139405Y-125431593D01*
X180446814Y-125246631D01*
X180732423Y-125029517D01*
X180992884Y-124782795D01*
X181225142Y-124509359D01*
X181370029Y-124295667D01*
X181426470Y-124212423D01*
X181426470Y-124212421D01*
X181426475Y-124212415D01*
X181594523Y-123895443D01*
X181727315Y-123562161D01*
X181823295Y-123216474D01*
X181881336Y-122862437D01*
X181900759Y-122504200D01*
X181898957Y-122470972D01*
X181889105Y-122289257D01*
X181881336Y-122145963D01*
X181823295Y-121791926D01*
X181772751Y-121609883D01*
X181727317Y-121446244D01*
X181727316Y-121446242D01*
X181726341Y-121443796D01*
X181656889Y-121269484D01*
X181594527Y-121112966D01*
X181594518Y-121112948D01*
X181592431Y-121109011D01*
X181426475Y-120795985D01*
X181426471Y-120795979D01*
X181426470Y-120795976D01*
X181225143Y-120499042D01*
X181225135Y-120499032D01*
X180992891Y-120225613D01*
X180992886Y-120225607D01*
X180948677Y-120183730D01*
X180732423Y-119978883D01*
X180732416Y-119978877D01*
X180732413Y-119978875D01*
X180655615Y-119920495D01*
X180446814Y-119761769D01*
X180139405Y-119576807D01*
X180139404Y-119576806D01*
X180139400Y-119576804D01*
X180139396Y-119576802D01*
X179813811Y-119426171D01*
X179813806Y-119426169D01*
X179813801Y-119426167D01*
X179605645Y-119356031D01*
X179473816Y-119311612D01*
X179123440Y-119234488D01*
X178766783Y-119195700D01*
X178766782Y-119195700D01*
X178408018Y-119195700D01*
X178408016Y-119195700D01*
X178051359Y-119234488D01*
X177700983Y-119311612D01*
X177438168Y-119400165D01*
X177360999Y-119426167D01*
X177360996Y-119426168D01*
X177360988Y-119426171D01*
X177035403Y-119576802D01*
X177035399Y-119576804D01*
X176889939Y-119664325D01*
X176727986Y-119761769D01*
X176650599Y-119820596D01*
X176477875Y-119951897D01*
X176412593Y-119976796D01*
X176344212Y-119962449D01*
X176294443Y-119913410D01*
X176279088Y-119845248D01*
X176303021Y-119779605D01*
X176315146Y-119765507D01*
X180797062Y-115283591D01*
X180812823Y-115270262D01*
X180815215Y-115268559D01*
X180879165Y-115201489D01*
X180907165Y-115173490D01*
X180914177Y-115164995D01*
X180917094Y-115161709D01*
X180961303Y-115115346D01*
X180980829Y-115084961D01*
X180985182Y-115079000D01*
X181008179Y-115051149D01*
X181038873Y-114994933D01*
X181041126Y-114991137D01*
X181075756Y-114937254D01*
X181089183Y-114903712D01*
X181092322Y-114897049D01*
X181109635Y-114865346D01*
X181129142Y-114804319D01*
X181130623Y-114800199D01*
X181154436Y-114740721D01*
X181161272Y-114705249D01*
X181163094Y-114698106D01*
X181174094Y-114663700D01*
X181181699Y-114600084D01*
X181182374Y-114595758D01*
X181194500Y-114532849D01*
X181194500Y-114496729D01*
X181194939Y-114489362D01*
X181195281Y-114486499D01*
X181199227Y-114453499D01*
X181194655Y-114389584D01*
X181194500Y-114385219D01*
X181194500Y-113164553D01*
X181214185Y-113097513D01*
X181244185Y-113065290D01*
X181299261Y-113024061D01*
X181386889Y-112907004D01*
X181437989Y-112770001D01*
X181443096Y-112722500D01*
X181444499Y-112709454D01*
X181444500Y-112709437D01*
X181444500Y-110912162D01*
X181444499Y-110912145D01*
X181441157Y-110881070D01*
X181437989Y-110851599D01*
X181435598Y-110845189D01*
X181397856Y-110744000D01*
X181386889Y-110714596D01*
X181299261Y-110597539D01*
X181244189Y-110556312D01*
X181202318Y-110500378D01*
X181194500Y-110457045D01*
X181194500Y-110094814D01*
X181214185Y-110027775D01*
X181214691Y-110026992D01*
X181226958Y-110008216D01*
X181284860Y-109919591D01*
X181375296Y-109713416D01*
X181430564Y-109495168D01*
X181435996Y-109429619D01*
X181449156Y-109270805D01*
X181449156Y-109270794D01*
X181430565Y-109046440D01*
X181430563Y-109046428D01*
X181425073Y-109024750D01*
X181375296Y-108828184D01*
X181288233Y-108629698D01*
X181284860Y-108622008D01*
X181214691Y-108514606D01*
X181194503Y-108447716D01*
X181194500Y-108446785D01*
X181194500Y-107554814D01*
X181214185Y-107487775D01*
X181214691Y-107486992D01*
X181284860Y-107379591D01*
X181375296Y-107173416D01*
X181430564Y-106955168D01*
X181439138Y-106851700D01*
X181449156Y-106730805D01*
X181449156Y-106730794D01*
X181430565Y-106506440D01*
X181430563Y-106506428D01*
X181375296Y-106288185D01*
X181374396Y-106286134D01*
X181317165Y-106155657D01*
X181284860Y-106082008D01*
X181214691Y-105974606D01*
X181194503Y-105907716D01*
X181194500Y-105906785D01*
X181194500Y-105014814D01*
X181214185Y-104947775D01*
X181214691Y-104946992D01*
X181284860Y-104839591D01*
X181375296Y-104633416D01*
X181430564Y-104415168D01*
X181439138Y-104311700D01*
X181449156Y-104190805D01*
X181449156Y-104190794D01*
X181430565Y-103966440D01*
X181430563Y-103966428D01*
X181375296Y-103748185D01*
X181374396Y-103746134D01*
X181288233Y-103549698D01*
X181284860Y-103542008D01*
X181214691Y-103434606D01*
X181194503Y-103367716D01*
X181194500Y-103366785D01*
X181194500Y-102474814D01*
X181214185Y-102407775D01*
X181214691Y-102406992D01*
X181221741Y-102396201D01*
X181284860Y-102299591D01*
X181375296Y-102093416D01*
X181430564Y-101875168D01*
X181439138Y-101771700D01*
X181449156Y-101650805D01*
X181449156Y-101650794D01*
X181430565Y-101426440D01*
X181430563Y-101426428D01*
X181401151Y-101310284D01*
X181375296Y-101208184D01*
X181312670Y-101065410D01*
X181284860Y-101002008D01*
X181214691Y-100894606D01*
X181194503Y-100827716D01*
X181194500Y-100826785D01*
X181194500Y-99934814D01*
X181214185Y-99867775D01*
X181214691Y-99866992D01*
X181284860Y-99759591D01*
X181375296Y-99553416D01*
X181430564Y-99335168D01*
X181432159Y-99315919D01*
X181449156Y-99110805D01*
X181449156Y-99110794D01*
X181430565Y-98886440D01*
X181430563Y-98886428D01*
X181401151Y-98770284D01*
X181375296Y-98668184D01*
X181319687Y-98541407D01*
X181284860Y-98462008D01*
X181214691Y-98354606D01*
X181194503Y-98287716D01*
X181194500Y-98286785D01*
X181194500Y-97394814D01*
X181214185Y-97327775D01*
X181214691Y-97326992D01*
X181284860Y-97219591D01*
X181375296Y-97013416D01*
X181430564Y-96795168D01*
X181432318Y-96773998D01*
X181449156Y-96570805D01*
X181449156Y-96570794D01*
X181430565Y-96346440D01*
X181430563Y-96346428D01*
X181421211Y-96309498D01*
X181375296Y-96128184D01*
X181320032Y-96002193D01*
X181284860Y-95922008D01*
X181214691Y-95814606D01*
X181194503Y-95747716D01*
X181194500Y-95746785D01*
X181194500Y-94854814D01*
X181214185Y-94787775D01*
X181214691Y-94786992D01*
X181221397Y-94776728D01*
X181284860Y-94679591D01*
X181375296Y-94473416D01*
X181430564Y-94255168D01*
X181432110Y-94236516D01*
X181449156Y-94030805D01*
X181449156Y-94030794D01*
X181430565Y-93806440D01*
X181430563Y-93806428D01*
X181405989Y-93709388D01*
X181375296Y-93588184D01*
X181311638Y-93443057D01*
X181284860Y-93382008D01*
X181214691Y-93274606D01*
X181194503Y-93207716D01*
X181194500Y-93206785D01*
X181194500Y-92314814D01*
X181214185Y-92247775D01*
X181214691Y-92246992D01*
X181225062Y-92231118D01*
X181284860Y-92139591D01*
X181375296Y-91933416D01*
X181430564Y-91715168D01*
X181430565Y-91715159D01*
X181449156Y-91490805D01*
X181449156Y-91490794D01*
X181430565Y-91266440D01*
X181430563Y-91266428D01*
X181375296Y-91048185D01*
X181374886Y-91047251D01*
X181309460Y-90898092D01*
X181284860Y-90842008D01*
X181214691Y-90734606D01*
X181194503Y-90667716D01*
X181194500Y-90666785D01*
X181194500Y-89774814D01*
X181214185Y-89707775D01*
X181214691Y-89706992D01*
X181225062Y-89691118D01*
X181284860Y-89599591D01*
X181375296Y-89393416D01*
X181430564Y-89175168D01*
X181430565Y-89175159D01*
X181449156Y-88950805D01*
X181449156Y-88950794D01*
X181430565Y-88726440D01*
X181430563Y-88726428D01*
X181375296Y-88508185D01*
X181374886Y-88507251D01*
X181292618Y-88319695D01*
X181284860Y-88302008D01*
X181214691Y-88194606D01*
X181194503Y-88127716D01*
X181194500Y-88126785D01*
X181194500Y-87234814D01*
X181214185Y-87167775D01*
X181214691Y-87166992D01*
X181219024Y-87160360D01*
X181284860Y-87059591D01*
X181375296Y-86853416D01*
X181430564Y-86635168D01*
X181430565Y-86635159D01*
X181449156Y-86410805D01*
X181449156Y-86410794D01*
X181430565Y-86186440D01*
X181430563Y-86186428D01*
X181375296Y-85968185D01*
X181374886Y-85967251D01*
X181292618Y-85779695D01*
X181284860Y-85762008D01*
X181214691Y-85654606D01*
X181194503Y-85587716D01*
X181194500Y-85586785D01*
X181194500Y-84694814D01*
X181214185Y-84627775D01*
X181214691Y-84626992D01*
X181220425Y-84618216D01*
X181284860Y-84519591D01*
X181375296Y-84313416D01*
X181430564Y-84095168D01*
X181430565Y-84095159D01*
X181449156Y-83870805D01*
X181449156Y-83870794D01*
X181430565Y-83646440D01*
X181430563Y-83646428D01*
X181375296Y-83428185D01*
X181374886Y-83427251D01*
X181292618Y-83239695D01*
X181284860Y-83222008D01*
X181214691Y-83114606D01*
X181194503Y-83047716D01*
X181194500Y-83046785D01*
X181194500Y-82154814D01*
X181214185Y-82087775D01*
X181214691Y-82086992D01*
X181220425Y-82078216D01*
X181284860Y-81979591D01*
X181375296Y-81773416D01*
X181430564Y-81555168D01*
X181430565Y-81555159D01*
X181449156Y-81330805D01*
X181449156Y-81330794D01*
X181430565Y-81106440D01*
X181430563Y-81106428D01*
X181375296Y-80888185D01*
X181374886Y-80887251D01*
X181292618Y-80699695D01*
X181284860Y-80682008D01*
X181214691Y-80574606D01*
X181194503Y-80507716D01*
X181194500Y-80506785D01*
X181194500Y-79614814D01*
X181214185Y-79547775D01*
X181214691Y-79546992D01*
X181220425Y-79538216D01*
X181284860Y-79439591D01*
X181375296Y-79233416D01*
X181430564Y-79015168D01*
X181430902Y-79011094D01*
X181449156Y-78790805D01*
X181449156Y-78790794D01*
X181430565Y-78566440D01*
X181430563Y-78566428D01*
X181375296Y-78348185D01*
X181374886Y-78347251D01*
X181298330Y-78172717D01*
X181284860Y-78142008D01*
X181214691Y-78034606D01*
X181194503Y-77967716D01*
X181194500Y-77966785D01*
X181194500Y-77074814D01*
X181214185Y-77007775D01*
X181214691Y-77006992D01*
X181284860Y-76899591D01*
X181375296Y-76693416D01*
X181430564Y-76475168D01*
X181430565Y-76475159D01*
X181449156Y-76250805D01*
X181449156Y-76250794D01*
X181430565Y-76026440D01*
X181430563Y-76026428D01*
X181418696Y-75979568D01*
X181375296Y-75808184D01*
X181299449Y-75635268D01*
X181284860Y-75602008D01*
X181214691Y-75494606D01*
X181194503Y-75427716D01*
X181194500Y-75426785D01*
X181194500Y-74534814D01*
X181214185Y-74467775D01*
X181214691Y-74466992D01*
X181221212Y-74457011D01*
X181284860Y-74359591D01*
X181375296Y-74153416D01*
X181430564Y-73935168D01*
X181430565Y-73935159D01*
X181449156Y-73710805D01*
X181449156Y-73710794D01*
X181430565Y-73486440D01*
X181430563Y-73486428D01*
X181400446Y-73367500D01*
X181375296Y-73268184D01*
X181284860Y-73062009D01*
X181268706Y-73037284D01*
X181195062Y-72924563D01*
X181161722Y-72873532D01*
X181161719Y-72873529D01*
X181161715Y-72873523D01*
X181009243Y-72707897D01*
X181009238Y-72707892D01*
X180831577Y-72569612D01*
X180831572Y-72569608D01*
X180633580Y-72462461D01*
X180633577Y-72462459D01*
X180633574Y-72462458D01*
X180633571Y-72462457D01*
X180633569Y-72462456D01*
X180420637Y-72389356D01*
X180198569Y-72352300D01*
X179973431Y-72352300D01*
X179751362Y-72389356D01*
X179538430Y-72462456D01*
X179538419Y-72462461D01*
X179340427Y-72569608D01*
X179340422Y-72569612D01*
X179162761Y-72707892D01*
X179162756Y-72707897D01*
X179010284Y-72873523D01*
X179010276Y-72873534D01*
X178919808Y-73012006D01*
X178866662Y-73057362D01*
X178797431Y-73066786D01*
X178734095Y-73037284D01*
X178712192Y-73012006D01*
X178621723Y-72873534D01*
X178621715Y-72873523D01*
X178469243Y-72707897D01*
X178469238Y-72707892D01*
X178291577Y-72569612D01*
X178291572Y-72569608D01*
X178093580Y-72462461D01*
X178093577Y-72462459D01*
X178093574Y-72462458D01*
X178093571Y-72462457D01*
X178093569Y-72462456D01*
X177880637Y-72389356D01*
X177658569Y-72352300D01*
X177433431Y-72352300D01*
X177211362Y-72389356D01*
X176998430Y-72462456D01*
X176998419Y-72462461D01*
X176800427Y-72569608D01*
X176800422Y-72569612D01*
X176622663Y-72707969D01*
X176557669Y-72733612D01*
X176489129Y-72720046D01*
X176438804Y-72671578D01*
X176422500Y-72610116D01*
X176422500Y-71424863D01*
X176422840Y-71418378D01*
X176424022Y-71407126D01*
X176427504Y-71374000D01*
X176407542Y-71184072D01*
X176348527Y-71002444D01*
X176253040Y-70837056D01*
X176125253Y-70695134D01*
X175970752Y-70582882D01*
X175796288Y-70505206D01*
X175796286Y-70505205D01*
X175609487Y-70465500D01*
X175418513Y-70465500D01*
X175231714Y-70505205D01*
X175057246Y-70582883D01*
X174902745Y-70695135D01*
X174774959Y-70837057D01*
X174679473Y-71002443D01*
X174679470Y-71002450D01*
X174625800Y-71167631D01*
X174620458Y-71184072D01*
X174600496Y-71374000D01*
X174600496Y-71374001D01*
X174605160Y-71418378D01*
X174605500Y-71424863D01*
X174605500Y-73135500D01*
X174585815Y-73202539D01*
X174533011Y-73248294D01*
X174481500Y-73259500D01*
X174402513Y-73259500D01*
X174215714Y-73299205D01*
X174128480Y-73338044D01*
X174047697Y-73374011D01*
X174041246Y-73376883D01*
X173886745Y-73489135D01*
X173758959Y-73631057D01*
X173663473Y-73796443D01*
X173663470Y-73796450D01*
X173618401Y-73935159D01*
X173604458Y-73978072D01*
X173600130Y-74019251D01*
X173584496Y-74168001D01*
X173589160Y-74212378D01*
X173589500Y-74218863D01*
X173589500Y-75421500D01*
X173569815Y-75488539D01*
X173517011Y-75534294D01*
X173465500Y-75545500D01*
X173386513Y-75545500D01*
X173199714Y-75585205D01*
X173025246Y-75662883D01*
X172870745Y-75775135D01*
X172742959Y-75917057D01*
X172647473Y-76082443D01*
X172647470Y-76082450D01*
X172588459Y-76264068D01*
X172588458Y-76264072D01*
X172577147Y-76371695D01*
X172568496Y-76454001D01*
X172573160Y-76498378D01*
X172573500Y-76504863D01*
X172573500Y-77961500D01*
X172553815Y-78028539D01*
X172501011Y-78074294D01*
X172449500Y-78085500D01*
X172387013Y-78085500D01*
X172243281Y-78116051D01*
X172173614Y-78110735D01*
X172117880Y-78068598D01*
X172093775Y-78003018D01*
X172093500Y-77994761D01*
X172093500Y-77900983D01*
X172097726Y-77868887D01*
X172098256Y-77866907D01*
X172098257Y-77866902D01*
X172099332Y-77846382D01*
X172101924Y-77796917D01*
X172102178Y-77793702D01*
X172106605Y-77751578D01*
X172109504Y-77724000D01*
X172108015Y-77709840D01*
X172107506Y-77690408D01*
X172108252Y-77676191D01*
X172097291Y-77606990D01*
X172096867Y-77603770D01*
X172089542Y-77534076D01*
X172089542Y-77534072D01*
X172085141Y-77520528D01*
X172080601Y-77501612D01*
X172078377Y-77487569D01*
X172053263Y-77422144D01*
X172052180Y-77419084D01*
X172039210Y-77379168D01*
X172030527Y-77352444D01*
X172023412Y-77340121D01*
X172015039Y-77322566D01*
X172009938Y-77309278D01*
X171971768Y-77250502D01*
X171970088Y-77247760D01*
X171935040Y-77187056D01*
X171925521Y-77176484D01*
X171913676Y-77161047D01*
X171906040Y-77149289D01*
X171905926Y-77149113D01*
X171856352Y-77099539D01*
X171854153Y-77097222D01*
X171807253Y-77045134D01*
X171795740Y-77036769D01*
X171780944Y-77024131D01*
X171770885Y-77014072D01*
X171712113Y-76975905D01*
X171709438Y-76974066D01*
X171652753Y-76932882D01*
X171652749Y-76932880D01*
X171639753Y-76927094D01*
X171622652Y-76917809D01*
X171610724Y-76910063D01*
X171610722Y-76910062D01*
X171591516Y-76902689D01*
X171545305Y-76884950D01*
X171542307Y-76883708D01*
X171478289Y-76855205D01*
X171464365Y-76852246D01*
X171445714Y-76846721D01*
X171432431Y-76841622D01*
X171432427Y-76841621D01*
X171363236Y-76830662D01*
X171360046Y-76830071D01*
X171291489Y-76815500D01*
X171291487Y-76815500D01*
X171277256Y-76815500D01*
X171257857Y-76813973D01*
X171243808Y-76811747D01*
X171224487Y-76812760D01*
X171156509Y-76796610D01*
X171108055Y-76746272D01*
X171094000Y-76688930D01*
X171094000Y-75488863D01*
X171094340Y-75482378D01*
X171095522Y-75471126D01*
X171099004Y-75438000D01*
X171079042Y-75248072D01*
X171020027Y-75066444D01*
X170924540Y-74901056D01*
X170796753Y-74759134D01*
X170642252Y-74646882D01*
X170467788Y-74569206D01*
X170467786Y-74569205D01*
X170280987Y-74529500D01*
X170218500Y-74529500D01*
X170151461Y-74509815D01*
X170105706Y-74457011D01*
X170094500Y-74405500D01*
X170094500Y-72747256D01*
X170096027Y-72727856D01*
X170097264Y-72720046D01*
X170098252Y-72713810D01*
X170094585Y-72643839D01*
X170094500Y-72640594D01*
X170094500Y-72618395D01*
X170094500Y-72618390D01*
X170092177Y-72596294D01*
X170091924Y-72593084D01*
X170088257Y-72523097D01*
X170084576Y-72509360D01*
X170081029Y-72490222D01*
X170080515Y-72485329D01*
X170079542Y-72476072D01*
X170057884Y-72409417D01*
X170056971Y-72406338D01*
X170038830Y-72338630D01*
X170032368Y-72325949D01*
X170024923Y-72307976D01*
X170020527Y-72294444D01*
X169985493Y-72233763D01*
X169983948Y-72230917D01*
X169952130Y-72168471D01*
X169943169Y-72157405D01*
X169932152Y-72141374D01*
X169925041Y-72129058D01*
X169925040Y-72129056D01*
X169913635Y-72116389D01*
X169878154Y-72076982D01*
X169876048Y-72074516D01*
X169862075Y-72057262D01*
X169846373Y-72041560D01*
X169844137Y-72039204D01*
X169797252Y-71987133D01*
X169792423Y-71982785D01*
X169792787Y-71982380D01*
X169782192Y-71972841D01*
X169775253Y-71965133D01*
X169718550Y-71923936D01*
X169715975Y-71921959D01*
X169661531Y-71877872D01*
X169661524Y-71877867D01*
X169648846Y-71871407D01*
X169632264Y-71861246D01*
X169620752Y-71852882D01*
X169556717Y-71824372D01*
X169553797Y-71822979D01*
X169491370Y-71791171D01*
X169477624Y-71787487D01*
X169459296Y-71780996D01*
X169446293Y-71775207D01*
X169446290Y-71775206D01*
X169392879Y-71763853D01*
X169377741Y-71760635D01*
X169374590Y-71759879D01*
X169306903Y-71741743D01*
X169306899Y-71741742D01*
X169292689Y-71740997D01*
X169273411Y-71738459D01*
X169259487Y-71735500D01*
X169204068Y-71735500D01*
X169137029Y-71715815D01*
X169091274Y-71663011D01*
X169080540Y-71600693D01*
X169099498Y-71384001D01*
X169099498Y-71383998D01*
X169093796Y-71318832D01*
X169079543Y-71155913D01*
X169020284Y-70934757D01*
X168923523Y-70727251D01*
X168792198Y-70539700D01*
X168630300Y-70377802D01*
X168442749Y-70246477D01*
X168442745Y-70246475D01*
X168235249Y-70149718D01*
X168235238Y-70149714D01*
X168014089Y-70090457D01*
X168014081Y-70090456D01*
X167843127Y-70075500D01*
X166928873Y-70075500D01*
X166757918Y-70090456D01*
X166757910Y-70090457D01*
X166536761Y-70149714D01*
X166536750Y-70149718D01*
X166329254Y-70246475D01*
X166329252Y-70246476D01*
X166329249Y-70246477D01*
X166329251Y-70246477D01*
X166141700Y-70377802D01*
X166141698Y-70377803D01*
X166141695Y-70377806D01*
X165979806Y-70539695D01*
X165848476Y-70727252D01*
X165848475Y-70727254D01*
X165751718Y-70934750D01*
X165751714Y-70934761D01*
X165692457Y-71155910D01*
X165692456Y-71155918D01*
X165672502Y-71383998D01*
X165672502Y-71384001D01*
X165692456Y-71612081D01*
X165692457Y-71612089D01*
X165751714Y-71833238D01*
X165751718Y-71833249D01*
X165848318Y-72040408D01*
X165848477Y-72040749D01*
X165979802Y-72228300D01*
X166141700Y-72390198D01*
X166328990Y-72521340D01*
X166329251Y-72521523D01*
X166372345Y-72541618D01*
X166424784Y-72587791D01*
X166443936Y-72654984D01*
X166423720Y-72721865D01*
X166372345Y-72766382D01*
X166329251Y-72786476D01*
X166227316Y-72857853D01*
X166141700Y-72917802D01*
X166141698Y-72917803D01*
X166141695Y-72917806D01*
X165979806Y-73079695D01*
X165979803Y-73079698D01*
X165979802Y-73079700D01*
X165897767Y-73196856D01*
X165848476Y-73267252D01*
X165848475Y-73267254D01*
X165751718Y-73474750D01*
X165751714Y-73474761D01*
X165692457Y-73695910D01*
X165692456Y-73695918D01*
X165672502Y-73923998D01*
X165672502Y-73924001D01*
X165692456Y-74152081D01*
X165692457Y-74152089D01*
X165751714Y-74373238D01*
X165751718Y-74373249D01*
X165833241Y-74548076D01*
X165848477Y-74580749D01*
X165979802Y-74768300D01*
X166141700Y-74930198D01*
X166299417Y-75040633D01*
X166329251Y-75061523D01*
X166372345Y-75081618D01*
X166424784Y-75127791D01*
X166443936Y-75194984D01*
X166423720Y-75261865D01*
X166372345Y-75306382D01*
X166329251Y-75326476D01*
X166204937Y-75413523D01*
X166141700Y-75457802D01*
X166141698Y-75457803D01*
X166141695Y-75457806D01*
X165979806Y-75619695D01*
X165979803Y-75619698D01*
X165979802Y-75619700D01*
X165908028Y-75722204D01*
X165848476Y-75807252D01*
X165848475Y-75807254D01*
X165751718Y-76014750D01*
X165751714Y-76014761D01*
X165692457Y-76235910D01*
X165692456Y-76235918D01*
X165672502Y-76463998D01*
X165672502Y-76464001D01*
X165692456Y-76692081D01*
X165692457Y-76692089D01*
X165751714Y-76913238D01*
X165751718Y-76913249D01*
X165848475Y-77120745D01*
X165848477Y-77120749D01*
X165979802Y-77308300D01*
X166141700Y-77470198D01*
X166319560Y-77594737D01*
X166329251Y-77601523D01*
X166372345Y-77621618D01*
X166424784Y-77667791D01*
X166443936Y-77734984D01*
X166423720Y-77801865D01*
X166372345Y-77846382D01*
X166329251Y-77866476D01*
X166279971Y-77900983D01*
X166141700Y-77997802D01*
X166141698Y-77997803D01*
X166141695Y-77997806D01*
X165979806Y-78159695D01*
X165979803Y-78159698D01*
X165979802Y-78159700D01*
X165897767Y-78276856D01*
X165848476Y-78347252D01*
X165848475Y-78347254D01*
X165751718Y-78554750D01*
X165751714Y-78554761D01*
X165692457Y-78775910D01*
X165692456Y-78775918D01*
X165672502Y-79003998D01*
X165672502Y-79004001D01*
X165692456Y-79232081D01*
X165692457Y-79232089D01*
X165751714Y-79453238D01*
X165751718Y-79453249D01*
X165848475Y-79660745D01*
X165848477Y-79660749D01*
X165979802Y-79848300D01*
X166141700Y-80010198D01*
X166329251Y-80141523D01*
X166372345Y-80161618D01*
X166424783Y-80207788D01*
X166443936Y-80274981D01*
X166423721Y-80341863D01*
X166372347Y-80386380D01*
X166329252Y-80406476D01*
X166258856Y-80455767D01*
X166141700Y-80537802D01*
X166141698Y-80537803D01*
X166141695Y-80537806D01*
X165979806Y-80699695D01*
X165979803Y-80699698D01*
X165979802Y-80699700D01*
X165898497Y-80815815D01*
X165848476Y-80887252D01*
X165848475Y-80887254D01*
X165751718Y-81094750D01*
X165751714Y-81094761D01*
X165692457Y-81315910D01*
X165692456Y-81315918D01*
X165672502Y-81543998D01*
X165672502Y-81544001D01*
X165692456Y-81772081D01*
X165692457Y-81772089D01*
X165751714Y-81993238D01*
X165751718Y-81993249D01*
X165847600Y-82198869D01*
X165848477Y-82200749D01*
X165979802Y-82388300D01*
X166141700Y-82550198D01*
X166319560Y-82674737D01*
X166329251Y-82681523D01*
X166372345Y-82701618D01*
X166424784Y-82747791D01*
X166443936Y-82814984D01*
X166423720Y-82881865D01*
X166372345Y-82926382D01*
X166329251Y-82946476D01*
X166204937Y-83033523D01*
X166141700Y-83077802D01*
X166141698Y-83077803D01*
X166141695Y-83077806D01*
X165979806Y-83239695D01*
X165979803Y-83239698D01*
X165979802Y-83239700D01*
X165898497Y-83355815D01*
X165848476Y-83427252D01*
X165848475Y-83427254D01*
X165751718Y-83634750D01*
X165751714Y-83634761D01*
X165692457Y-83855910D01*
X165692456Y-83855918D01*
X165672502Y-84083998D01*
X165672502Y-84084001D01*
X165692456Y-84312081D01*
X165692457Y-84312089D01*
X165751714Y-84533238D01*
X165751718Y-84533249D01*
X165847600Y-84738869D01*
X165848477Y-84740749D01*
X165979802Y-84928300D01*
X166141700Y-85090198D01*
X166299417Y-85200633D01*
X166329251Y-85221523D01*
X166372345Y-85241618D01*
X166424784Y-85287791D01*
X166443936Y-85354984D01*
X166423720Y-85421865D01*
X166372345Y-85466382D01*
X166329251Y-85486476D01*
X166204937Y-85573523D01*
X166141700Y-85617802D01*
X166141698Y-85617803D01*
X166141695Y-85617806D01*
X165979806Y-85779695D01*
X165979803Y-85779698D01*
X165979802Y-85779700D01*
X165898497Y-85895815D01*
X165848476Y-85967252D01*
X165848475Y-85967254D01*
X165751718Y-86174750D01*
X165751714Y-86174761D01*
X165692457Y-86395910D01*
X165692456Y-86395918D01*
X165672502Y-86623998D01*
X165672502Y-86624001D01*
X165692456Y-86852081D01*
X165692457Y-86852089D01*
X165751714Y-87073238D01*
X165751718Y-87073249D01*
X165842765Y-87268500D01*
X165848477Y-87280749D01*
X165979802Y-87468300D01*
X166141700Y-87630198D01*
X166322507Y-87756801D01*
X166329251Y-87761523D01*
X166372345Y-87781618D01*
X166424784Y-87827791D01*
X166443936Y-87894984D01*
X166423720Y-87961865D01*
X166372345Y-88006382D01*
X166329251Y-88026476D01*
X166218273Y-88104185D01*
X166141700Y-88157802D01*
X166141698Y-88157803D01*
X166141695Y-88157806D01*
X165979806Y-88319695D01*
X165979803Y-88319698D01*
X165979802Y-88319700D01*
X165898497Y-88435815D01*
X165848476Y-88507252D01*
X165848475Y-88507254D01*
X165751718Y-88714750D01*
X165751714Y-88714761D01*
X165692457Y-88935910D01*
X165692456Y-88935918D01*
X165672502Y-89163998D01*
X165672502Y-89164001D01*
X165692456Y-89392081D01*
X165692457Y-89392089D01*
X165751714Y-89613238D01*
X165751718Y-89613249D01*
X165844515Y-89812252D01*
X165848477Y-89820749D01*
X165979802Y-90008300D01*
X166141700Y-90170198D01*
X166305071Y-90284592D01*
X166329251Y-90301523D01*
X166372345Y-90321618D01*
X166424784Y-90367791D01*
X166443936Y-90434984D01*
X166423720Y-90501865D01*
X166372345Y-90546382D01*
X166329250Y-90566477D01*
X166322800Y-90570993D01*
X166320300Y-90572745D01*
X166319830Y-90573074D01*
X166253624Y-90595402D01*
X166248705Y-90595500D01*
X165700905Y-90595500D01*
X165680342Y-90593783D01*
X165679307Y-90593609D01*
X165677441Y-90593295D01*
X165677439Y-90593295D01*
X165615687Y-90594765D01*
X165584810Y-90595500D01*
X165545197Y-90595500D01*
X165543839Y-90595629D01*
X165534237Y-90596545D01*
X165529825Y-90596808D01*
X165465802Y-90598333D01*
X165465794Y-90598334D01*
X165444740Y-90602914D01*
X165430499Y-90606012D01*
X165423224Y-90607146D01*
X165387261Y-90610581D01*
X165375931Y-90613907D01*
X165325795Y-90628627D01*
X165321510Y-90629720D01*
X165258944Y-90643332D01*
X165258930Y-90643336D01*
X165225740Y-90657549D01*
X165218797Y-90660045D01*
X165184137Y-90670223D01*
X165127214Y-90699568D01*
X165123211Y-90701453D01*
X165064339Y-90726664D01*
X165034413Y-90746918D01*
X165028070Y-90750681D01*
X164995975Y-90767228D01*
X164945640Y-90806810D01*
X164942067Y-90809419D01*
X164893919Y-90842009D01*
X164889015Y-90845328D01*
X164863469Y-90870873D01*
X164857955Y-90875766D01*
X164829568Y-90898092D01*
X164829567Y-90898093D01*
X164787624Y-90946495D01*
X164784609Y-90949734D01*
X162864935Y-92869407D01*
X162849194Y-92882724D01*
X162846789Y-92884436D01*
X162846785Y-92884439D01*
X162782854Y-92951489D01*
X162754831Y-92979512D01*
X162747828Y-92987994D01*
X162744895Y-92991299D01*
X162700697Y-93037653D01*
X162700693Y-93037658D01*
X162681169Y-93068039D01*
X162676823Y-93073990D01*
X162666362Y-93086662D01*
X162653817Y-93101856D01*
X162623124Y-93158063D01*
X162620867Y-93161868D01*
X162586245Y-93215742D01*
X162586243Y-93215745D01*
X162572816Y-93249282D01*
X162569673Y-93255954D01*
X162552368Y-93287646D01*
X162552363Y-93287657D01*
X162532863Y-93348655D01*
X162531367Y-93352819D01*
X162507563Y-93412280D01*
X162500726Y-93447752D01*
X162498901Y-93454902D01*
X162487906Y-93489297D01*
X162480302Y-93552880D01*
X162479621Y-93557251D01*
X162467500Y-93620150D01*
X162467500Y-93656276D01*
X162467061Y-93663642D01*
X162462774Y-93699495D01*
X162462774Y-93699502D01*
X162467342Y-93763373D01*
X162467500Y-93767797D01*
X162467500Y-115975095D01*
X162465783Y-115995660D01*
X162465295Y-115998557D01*
X162465295Y-115998560D01*
X162467500Y-116091190D01*
X162467500Y-116130807D01*
X162468545Y-116141760D01*
X162468808Y-116146174D01*
X162470333Y-116210198D01*
X162470334Y-116210204D01*
X162478010Y-116245491D01*
X162479146Y-116252775D01*
X162482581Y-116288738D01*
X162482581Y-116288739D01*
X162500624Y-116350191D01*
X162501719Y-116354480D01*
X162515331Y-116417053D01*
X162515333Y-116417059D01*
X162525806Y-116441517D01*
X162529548Y-116450254D01*
X162532045Y-116457200D01*
X162542223Y-116491862D01*
X162557780Y-116522039D01*
X162571570Y-116548788D01*
X162573457Y-116552793D01*
X162598663Y-116611656D01*
X162598668Y-116611666D01*
X162618912Y-116641576D01*
X162622678Y-116647924D01*
X162639226Y-116680023D01*
X162678818Y-116730368D01*
X162681428Y-116733943D01*
X162717329Y-116786985D01*
X162742860Y-116812515D01*
X162747758Y-116818034D01*
X162770090Y-116846430D01*
X162770093Y-116846433D01*
X162818502Y-116888380D01*
X162821742Y-116891397D01*
X163735403Y-117805058D01*
X163748728Y-117820810D01*
X163750438Y-117823211D01*
X163750442Y-117823216D01*
X163817510Y-117887165D01*
X163845503Y-117915159D01*
X163845508Y-117915163D01*
X163845510Y-117915165D01*
X163853992Y-117922168D01*
X163857296Y-117925101D01*
X163903654Y-117969303D01*
X163931037Y-117986901D01*
X163934042Y-117988832D01*
X163940001Y-117993184D01*
X163967851Y-118016179D01*
X163967852Y-118016179D01*
X163967854Y-118016181D01*
X164024064Y-118046873D01*
X164027862Y-118049126D01*
X164033423Y-118052700D01*
X164081742Y-118083754D01*
X164081746Y-118083756D01*
X164115280Y-118097181D01*
X164121957Y-118100327D01*
X164153650Y-118117633D01*
X164153649Y-118117633D01*
X164153652Y-118117634D01*
X164153654Y-118117635D01*
X164197316Y-118131591D01*
X164214653Y-118137134D01*
X164218822Y-118138632D01*
X164278279Y-118162436D01*
X164301950Y-118166997D01*
X164313754Y-118169273D01*
X164320906Y-118171099D01*
X164331480Y-118174479D01*
X164355300Y-118182094D01*
X164355301Y-118182094D01*
X164355304Y-118182095D01*
X164397350Y-118187121D01*
X164418888Y-118189696D01*
X164423245Y-118190375D01*
X164486151Y-118202500D01*
X164522269Y-118202500D01*
X164529636Y-118202939D01*
X164536667Y-118203779D01*
X164565500Y-118207227D01*
X164629385Y-118202657D01*
X164633808Y-118202500D01*
X166153500Y-118202500D01*
X166220539Y-118222185D01*
X166266294Y-118274989D01*
X166277500Y-118326500D01*
X166277500Y-121057500D01*
X166257815Y-121124539D01*
X166205011Y-121170294D01*
X166153500Y-121181500D01*
X165837345Y-121181500D01*
X165776797Y-121188011D01*
X165776795Y-121188011D01*
X165639795Y-121239111D01*
X165522739Y-121326739D01*
X165435111Y-121443795D01*
X165384011Y-121580795D01*
X165384011Y-121580797D01*
X165377500Y-121641345D01*
X165377500Y-123579481D01*
X165357815Y-123646520D01*
X165341181Y-123667162D01*
X164169163Y-124839181D01*
X164107840Y-124872666D01*
X164081482Y-124875500D01*
X163658210Y-124875500D01*
X163591171Y-124855815D01*
X163545416Y-124803011D01*
X163541003Y-124778556D01*
X162639748Y-123877300D01*
X162649409Y-123873784D01*
X162797844Y-123776157D01*
X162919764Y-123646930D01*
X162991768Y-123522215D01*
X163886115Y-124416562D01*
X163886116Y-124416561D01*
X163992803Y-124274047D01*
X164129908Y-124022958D01*
X164229890Y-123754895D01*
X164290699Y-123475362D01*
X164311109Y-123190001D01*
X164311109Y-123189998D01*
X164290699Y-122904637D01*
X164229890Y-122625104D01*
X164129908Y-122357041D01*
X163992808Y-122105961D01*
X163992807Y-122105960D01*
X163886115Y-121963436D01*
X162990803Y-122858747D01*
X162968660Y-122807413D01*
X162862567Y-122664906D01*
X162726470Y-122550706D01*
X162636782Y-122505663D01*
X163532562Y-121609883D01*
X163532561Y-121609882D01*
X163390046Y-121503196D01*
X163390038Y-121503191D01*
X163138957Y-121366091D01*
X163138958Y-121366091D01*
X162870895Y-121266109D01*
X162591362Y-121205300D01*
X162306001Y-121184891D01*
X162305999Y-121184891D01*
X162020637Y-121205300D01*
X161741104Y-121266109D01*
X161473041Y-121366091D01*
X161221961Y-121503191D01*
X161221953Y-121503196D01*
X161079437Y-121609882D01*
X161079436Y-121609883D01*
X161972252Y-122502699D01*
X161962591Y-122506216D01*
X161814156Y-122603843D01*
X161692236Y-122733070D01*
X161620231Y-122857784D01*
X160725883Y-121963436D01*
X160725882Y-121963437D01*
X160619196Y-122105953D01*
X160619191Y-122105961D01*
X160482091Y-122357041D01*
X160382109Y-122625104D01*
X160321300Y-122904637D01*
X160300891Y-123189998D01*
X160300891Y-123190001D01*
X160321300Y-123475362D01*
X160382109Y-123754895D01*
X160482091Y-124022958D01*
X160619191Y-124274038D01*
X160619196Y-124274046D01*
X160725882Y-124416561D01*
X160725883Y-124416562D01*
X161621195Y-123521250D01*
X161643340Y-123572587D01*
X161749433Y-123715094D01*
X161885530Y-123829294D01*
X161975216Y-123874335D01*
X161069292Y-124780259D01*
X161062622Y-124810926D01*
X161013217Y-124860332D01*
X160953789Y-124875500D01*
X153433648Y-124875500D01*
X153366609Y-124855815D01*
X153320854Y-124803011D01*
X153310910Y-124733853D01*
X153339935Y-124670297D01*
X153363795Y-124649047D01*
X153499185Y-124556737D01*
X152695220Y-123752772D01*
X152788588Y-123714099D01*
X152913925Y-123617925D01*
X153010099Y-123492589D01*
X153048772Y-123399220D01*
X153852545Y-124202993D01*
X153894545Y-124150327D01*
X154021941Y-123929671D01*
X154115026Y-123692494D01*
X154115031Y-123692477D01*
X154171726Y-123444079D01*
X154190767Y-123190004D01*
X154190767Y-123189995D01*
X154171726Y-122935920D01*
X154115031Y-122687522D01*
X154115026Y-122687505D01*
X154021941Y-122450328D01*
X154021942Y-122450328D01*
X153894544Y-122229671D01*
X153852546Y-122177006D01*
X153048772Y-122980779D01*
X153010099Y-122887412D01*
X152913925Y-122762075D01*
X152788588Y-122665901D01*
X152695220Y-122627227D01*
X153499185Y-121823261D01*
X153338377Y-121713624D01*
X153338376Y-121713623D01*
X153108823Y-121603078D01*
X153108825Y-121603078D01*
X152865347Y-121527975D01*
X152865341Y-121527973D01*
X152613404Y-121490000D01*
X152358595Y-121490000D01*
X152106658Y-121527973D01*
X152106652Y-121527975D01*
X151863175Y-121603078D01*
X151633624Y-121713623D01*
X151633616Y-121713628D01*
X151472813Y-121823261D01*
X152276779Y-122627227D01*
X152183412Y-122665901D01*
X152058075Y-122762075D01*
X151961901Y-122887411D01*
X151923226Y-122980779D01*
X151119453Y-122177006D01*
X151077455Y-122229670D01*
X150950058Y-122450328D01*
X150855961Y-122690083D01*
X150813145Y-122745297D01*
X150747275Y-122768598D01*
X150679265Y-122752587D01*
X150630706Y-122702349D01*
X150625269Y-122689160D01*
X150624869Y-122689318D01*
X150570468Y-122550706D01*
X150529622Y-122446631D01*
X150401587Y-122224869D01*
X150241931Y-122024666D01*
X150241930Y-122024665D01*
X150241927Y-122024661D01*
X150086879Y-121880799D01*
X150054219Y-121850495D01*
X150049591Y-121847340D01*
X149842649Y-121706248D01*
X149842638Y-121706241D01*
X149611940Y-121595144D01*
X149611921Y-121595137D01*
X149367248Y-121519666D01*
X149367238Y-121519663D01*
X149114041Y-121481500D01*
X149114034Y-121481500D01*
X148857966Y-121481500D01*
X148857958Y-121481500D01*
X148604761Y-121519663D01*
X148604755Y-121519665D01*
X148360061Y-121595143D01*
X148129362Y-121706241D01*
X148129361Y-121706242D01*
X148129355Y-121706245D01*
X148129355Y-121706246D01*
X148118528Y-121713628D01*
X147917780Y-121850495D01*
X147730072Y-122024661D01*
X147570413Y-122224869D01*
X147442378Y-122446630D01*
X147351428Y-122678369D01*
X147308612Y-122733583D01*
X147242743Y-122756884D01*
X147174732Y-122740873D01*
X147126173Y-122690635D01*
X147120572Y-122678369D01*
X147070468Y-122550706D01*
X147029622Y-122446631D01*
X146901587Y-122224869D01*
X146741931Y-122024666D01*
X146741930Y-122024665D01*
X146741927Y-122024661D01*
X146586879Y-121880799D01*
X146554219Y-121850495D01*
X146549591Y-121847340D01*
X146342649Y-121706248D01*
X146342638Y-121706241D01*
X146111940Y-121595144D01*
X146111921Y-121595137D01*
X145867248Y-121519666D01*
X145867238Y-121519663D01*
X145614041Y-121481500D01*
X145614034Y-121481500D01*
X145357966Y-121481500D01*
X145357958Y-121481500D01*
X145104761Y-121519663D01*
X145104755Y-121519665D01*
X144860061Y-121595143D01*
X144629362Y-121706241D01*
X144629361Y-121706242D01*
X144629355Y-121706245D01*
X144629355Y-121706246D01*
X144618528Y-121713628D01*
X144417780Y-121850495D01*
X144230072Y-122024661D01*
X144070413Y-122224869D01*
X143942378Y-122446630D01*
X143851428Y-122678369D01*
X143808612Y-122733583D01*
X143742743Y-122756884D01*
X143674732Y-122740873D01*
X143626173Y-122690635D01*
X143620572Y-122678369D01*
X143570468Y-122550706D01*
X143529622Y-122446631D01*
X143401587Y-122224869D01*
X143241931Y-122024666D01*
X143241930Y-122024665D01*
X143241927Y-122024661D01*
X143086879Y-121880799D01*
X143054219Y-121850495D01*
X143049591Y-121847340D01*
X142842649Y-121706248D01*
X142842648Y-121706247D01*
X142842646Y-121706246D01*
X142842636Y-121706241D01*
X142764698Y-121668708D01*
X142712839Y-121621885D01*
X142694500Y-121556988D01*
X142694500Y-116763359D01*
X142714185Y-116696320D01*
X142730819Y-116675678D01*
X144169237Y-115237260D01*
X145610533Y-113795963D01*
X145613208Y-113793444D01*
X145660215Y-113751801D01*
X145695870Y-113700144D01*
X145698062Y-113697164D01*
X145736775Y-113647753D01*
X145741031Y-113638295D01*
X145752064Y-113618736D01*
X145757951Y-113610207D01*
X145757953Y-113610204D01*
X145757952Y-113610204D01*
X145757954Y-113610203D01*
X145780204Y-113551531D01*
X145781628Y-113548091D01*
X145807389Y-113490857D01*
X145809260Y-113480644D01*
X145815288Y-113459023D01*
X145817595Y-113452940D01*
X145818965Y-113449329D01*
X145826527Y-113387049D01*
X145827090Y-113383345D01*
X145838402Y-113321620D01*
X145838258Y-113319247D01*
X145834613Y-113258975D01*
X145834500Y-113255231D01*
X145834500Y-100953278D01*
X145834613Y-100949534D01*
X145838401Y-100886907D01*
X145827091Y-100825190D01*
X145826527Y-100821484D01*
X145822226Y-100786061D01*
X145818965Y-100759199D01*
X145815283Y-100749492D01*
X145809258Y-100727880D01*
X145807388Y-100717670D01*
X145789539Y-100678012D01*
X145781635Y-100660448D01*
X145780201Y-100656987D01*
X145770822Y-100632257D01*
X145757954Y-100598325D01*
X145752058Y-100589783D01*
X145741035Y-100570239D01*
X145736775Y-100560774D01*
X145698064Y-100511364D01*
X145695854Y-100508359D01*
X145683080Y-100489853D01*
X145660215Y-100456727D01*
X145660212Y-100456724D01*
X145660210Y-100456722D01*
X145613253Y-100415122D01*
X145610541Y-100412570D01*
X144789433Y-99591463D01*
X144786899Y-99588771D01*
X144745273Y-99541785D01*
X144745272Y-99541784D01*
X144745271Y-99541783D01*
X144693628Y-99506136D01*
X144690611Y-99503916D01*
X144641227Y-99465225D01*
X144635235Y-99462528D01*
X144631760Y-99460964D01*
X144612216Y-99449941D01*
X144607210Y-99446486D01*
X144603677Y-99444047D01*
X144603672Y-99444044D01*
X144545015Y-99421798D01*
X144541555Y-99420365D01*
X144484331Y-99394611D01*
X144484332Y-99394611D01*
X144474110Y-99392738D01*
X144452510Y-99386716D01*
X144442801Y-99383035D01*
X144442797Y-99383034D01*
X144442796Y-99383034D01*
X144380511Y-99375470D01*
X144376810Y-99374907D01*
X144315096Y-99363598D01*
X144315090Y-99363598D01*
X144252455Y-99367387D01*
X144248710Y-99367500D01*
X144167836Y-99367500D01*
X144100797Y-99347815D01*
X144066261Y-99314623D01*
X144065827Y-99314003D01*
X144008198Y-99231700D01*
X143846300Y-99069802D01*
X143658749Y-98938477D01*
X143605596Y-98913691D01*
X143553158Y-98867519D01*
X143534007Y-98800325D01*
X143554223Y-98733444D01*
X143605600Y-98688927D01*
X143654483Y-98666133D01*
X143840820Y-98535657D01*
X144001657Y-98374820D01*
X144132134Y-98188482D01*
X144228265Y-97982326D01*
X144228269Y-97982317D01*
X144280872Y-97786000D01*
X143317686Y-97786000D01*
X143329641Y-97774045D01*
X143387165Y-97661148D01*
X143406986Y-97536000D01*
X143387165Y-97410852D01*
X143329641Y-97297955D01*
X143317686Y-97286000D01*
X144280872Y-97286000D01*
X144280872Y-97285999D01*
X144228269Y-97089682D01*
X144228265Y-97089673D01*
X144132134Y-96883517D01*
X144001657Y-96697179D01*
X143840820Y-96536342D01*
X143654481Y-96405865D01*
X143654479Y-96405864D01*
X143605599Y-96383071D01*
X143553159Y-96336899D01*
X143534007Y-96269706D01*
X143554223Y-96202824D01*
X143605599Y-96158307D01*
X143658749Y-96133523D01*
X143668170Y-96126925D01*
X143734376Y-96104598D01*
X143739295Y-96104500D01*
X145031483Y-96104500D01*
X145098522Y-96124185D01*
X145119164Y-96140819D01*
X149321808Y-100343463D01*
X149353901Y-100399049D01*
X149387716Y-100525245D01*
X149482202Y-100727870D01*
X149484477Y-100732749D01*
X149615802Y-100920300D01*
X149777700Y-101082198D01*
X149942014Y-101197252D01*
X149965251Y-101213523D01*
X150018401Y-101238307D01*
X150070840Y-101284479D01*
X150089992Y-101351673D01*
X150069776Y-101418554D01*
X150018401Y-101463071D01*
X149969517Y-101485865D01*
X149783179Y-101616342D01*
X149622342Y-101777179D01*
X149491865Y-101963517D01*
X149395734Y-102169673D01*
X149395730Y-102169682D01*
X149343127Y-102365999D01*
X149343128Y-102366000D01*
X150306314Y-102366000D01*
X150294359Y-102377955D01*
X150236835Y-102490852D01*
X150217014Y-102616000D01*
X150236835Y-102741148D01*
X150294359Y-102854045D01*
X150306314Y-102866000D01*
X149343128Y-102866000D01*
X149395730Y-103062317D01*
X149395734Y-103062326D01*
X149491865Y-103268482D01*
X149622342Y-103454820D01*
X149783179Y-103615657D01*
X149969517Y-103746134D01*
X150028457Y-103773618D01*
X150080896Y-103819790D01*
X150100048Y-103886984D01*
X150079832Y-103953865D01*
X150028457Y-103998382D01*
X149969517Y-104025865D01*
X149783179Y-104156342D01*
X149622342Y-104317179D01*
X149491865Y-104503517D01*
X149395734Y-104709673D01*
X149395730Y-104709682D01*
X149343127Y-104905999D01*
X149343128Y-104906000D01*
X150306314Y-104906000D01*
X150294359Y-104917955D01*
X150236835Y-105030852D01*
X150217014Y-105156000D01*
X150236835Y-105281148D01*
X150294359Y-105394045D01*
X150306314Y-105406000D01*
X149343128Y-105406000D01*
X149395730Y-105602317D01*
X149395734Y-105602326D01*
X149491865Y-105808482D01*
X149622342Y-105994820D01*
X149783179Y-106155657D01*
X149969517Y-106286134D01*
X150028457Y-106313618D01*
X150080896Y-106359790D01*
X150100048Y-106426984D01*
X150079832Y-106493865D01*
X150028457Y-106538382D01*
X149969517Y-106565865D01*
X149783179Y-106696342D01*
X149622342Y-106857179D01*
X149491865Y-107043517D01*
X149395734Y-107249673D01*
X149395730Y-107249682D01*
X149343127Y-107445999D01*
X149343128Y-107446000D01*
X150306314Y-107446000D01*
X150294359Y-107457955D01*
X150236835Y-107570852D01*
X150217014Y-107696000D01*
X150236835Y-107821148D01*
X150294359Y-107934045D01*
X150306314Y-107946000D01*
X149343128Y-107946000D01*
X149395730Y-108142317D01*
X149395734Y-108142326D01*
X149491865Y-108348482D01*
X149622342Y-108534820D01*
X149783179Y-108695657D01*
X149969517Y-108826134D01*
X150175673Y-108922265D01*
X150175682Y-108922269D01*
X150371999Y-108974872D01*
X150372000Y-108974871D01*
X150372000Y-108011686D01*
X150383955Y-108023641D01*
X150496852Y-108081165D01*
X150590519Y-108096000D01*
X150653481Y-108096000D01*
X150747148Y-108081165D01*
X150860045Y-108023641D01*
X150872000Y-108011686D01*
X150872000Y-108974872D01*
X151068317Y-108922269D01*
X151068326Y-108922265D01*
X151274482Y-108826134D01*
X151460820Y-108695657D01*
X151621657Y-108534820D01*
X151752134Y-108348482D01*
X151848265Y-108142326D01*
X151848269Y-108142317D01*
X151900872Y-107946000D01*
X150937686Y-107946000D01*
X150949641Y-107934045D01*
X151007165Y-107821148D01*
X151026986Y-107696000D01*
X151007165Y-107570852D01*
X150949641Y-107457955D01*
X150937686Y-107446000D01*
X151900872Y-107446000D01*
X151900872Y-107445999D01*
X151848269Y-107249682D01*
X151848265Y-107249673D01*
X151752134Y-107043517D01*
X151621657Y-106857179D01*
X151460820Y-106696342D01*
X151274481Y-106565865D01*
X151274479Y-106565864D01*
X151215543Y-106538382D01*
X151163103Y-106492210D01*
X151143951Y-106425017D01*
X151164166Y-106358136D01*
X151215543Y-106313618D01*
X151274479Y-106286135D01*
X151274481Y-106286134D01*
X151460820Y-106155657D01*
X151621657Y-105994820D01*
X151752134Y-105808482D01*
X151848265Y-105602326D01*
X151848269Y-105602317D01*
X151900872Y-105406000D01*
X150937686Y-105406000D01*
X150949641Y-105394045D01*
X151007165Y-105281148D01*
X151026986Y-105156000D01*
X151007165Y-105030852D01*
X150949641Y-104917955D01*
X150937686Y-104906000D01*
X151900872Y-104906000D01*
X151900872Y-104905999D01*
X151848269Y-104709682D01*
X151848265Y-104709673D01*
X151752134Y-104503517D01*
X151621657Y-104317179D01*
X151460820Y-104156342D01*
X151274481Y-104025865D01*
X151274479Y-104025864D01*
X151215543Y-103998382D01*
X151163103Y-103952210D01*
X151143951Y-103885017D01*
X151164166Y-103818136D01*
X151215543Y-103773618D01*
X151274479Y-103746135D01*
X151274481Y-103746134D01*
X151460820Y-103615657D01*
X151621657Y-103454820D01*
X151752134Y-103268482D01*
X151848265Y-103062326D01*
X151848269Y-103062317D01*
X151900872Y-102866000D01*
X150937686Y-102866000D01*
X150949641Y-102854045D01*
X151007165Y-102741148D01*
X151026986Y-102616000D01*
X151007165Y-102490852D01*
X150949641Y-102377955D01*
X150937686Y-102366000D01*
X151900872Y-102366000D01*
X151900872Y-102365999D01*
X151848269Y-102169682D01*
X151848265Y-102169673D01*
X151752134Y-101963517D01*
X151621657Y-101777179D01*
X151460820Y-101616342D01*
X151274481Y-101485865D01*
X151274479Y-101485864D01*
X151225599Y-101463071D01*
X151173159Y-101416899D01*
X151154007Y-101349706D01*
X151174223Y-101282824D01*
X151225599Y-101238307D01*
X151278749Y-101213523D01*
X151466300Y-101082198D01*
X151628198Y-100920300D01*
X151759523Y-100732749D01*
X151856284Y-100525243D01*
X151915543Y-100304087D01*
X151935498Y-100076000D01*
X151915543Y-99847913D01*
X151856284Y-99626757D01*
X151842597Y-99597406D01*
X151771084Y-99444044D01*
X151759523Y-99419251D01*
X151628198Y-99231700D01*
X151466300Y-99069802D01*
X151278749Y-98938477D01*
X151235655Y-98918382D01*
X151183215Y-98872210D01*
X151164063Y-98805017D01*
X151184278Y-98738136D01*
X151235655Y-98693618D01*
X151238882Y-98692112D01*
X151278749Y-98673523D01*
X151466300Y-98542198D01*
X151628198Y-98380300D01*
X151759523Y-98192749D01*
X151856284Y-97985243D01*
X151915543Y-97764087D01*
X151935498Y-97536000D01*
X151915543Y-97307913D01*
X151856284Y-97086757D01*
X151842597Y-97057406D01*
X151816799Y-97002081D01*
X151759523Y-96879251D01*
X151628198Y-96691700D01*
X151466300Y-96529802D01*
X151278749Y-96398477D01*
X151273160Y-96395871D01*
X151235655Y-96378382D01*
X151183215Y-96332210D01*
X151164063Y-96265017D01*
X151184278Y-96198136D01*
X151235655Y-96153618D01*
X151238882Y-96152112D01*
X151278749Y-96133523D01*
X151466300Y-96002198D01*
X151628198Y-95840300D01*
X151759523Y-95652749D01*
X151856284Y-95445243D01*
X151915543Y-95224087D01*
X151935498Y-94996000D01*
X151915543Y-94767913D01*
X151856284Y-94546757D01*
X151842597Y-94517406D01*
X151765261Y-94351556D01*
X151759523Y-94339251D01*
X151628198Y-94151700D01*
X151466300Y-93989802D01*
X151278749Y-93858477D01*
X151235655Y-93838382D01*
X151183215Y-93792210D01*
X151164063Y-93725017D01*
X151184278Y-93658136D01*
X151235655Y-93613618D01*
X151244389Y-93609545D01*
X151278749Y-93593523D01*
X151466300Y-93462198D01*
X151628198Y-93300300D01*
X151686261Y-93217376D01*
X151740837Y-93173752D01*
X151787836Y-93164500D01*
X154351641Y-93164500D01*
X154472747Y-93164500D01*
X154539786Y-93184185D01*
X154585541Y-93236989D01*
X154595485Y-93306147D01*
X154566460Y-93369703D01*
X154549218Y-93386113D01*
X154521381Y-93407920D01*
X154518367Y-93410138D01*
X154466731Y-93445780D01*
X154466728Y-93445782D01*
X154425115Y-93492753D01*
X154422548Y-93495480D01*
X153185480Y-94732548D01*
X153182753Y-94735115D01*
X153135782Y-94776728D01*
X153135780Y-94776731D01*
X153100138Y-94828367D01*
X153097920Y-94831382D01*
X153059223Y-94880777D01*
X153054962Y-94890243D01*
X153043947Y-94909774D01*
X153038048Y-94918320D01*
X153038044Y-94918328D01*
X153015794Y-94976995D01*
X153014361Y-94980454D01*
X152988610Y-95037670D01*
X152988609Y-95037673D01*
X152986737Y-95047889D01*
X152980715Y-95069494D01*
X152977035Y-95079198D01*
X152969470Y-95141490D01*
X152968907Y-95145191D01*
X152957598Y-95206903D01*
X152957598Y-95206908D01*
X152961387Y-95269544D01*
X152961500Y-95273289D01*
X152961500Y-111736709D01*
X152961387Y-111740454D01*
X152957598Y-111803089D01*
X152957598Y-111803092D01*
X152968907Y-111864810D01*
X152969470Y-111868511D01*
X152973399Y-111900860D01*
X152977035Y-111930801D01*
X152980716Y-111940510D01*
X152986738Y-111962110D01*
X152988611Y-111972331D01*
X153014365Y-112029555D01*
X153015798Y-112033014D01*
X153036710Y-112088153D01*
X153038046Y-112091674D01*
X153038047Y-112091677D01*
X153043941Y-112100216D01*
X153054963Y-112119758D01*
X153059222Y-112129222D01*
X153059224Y-112129224D01*
X153059225Y-112129226D01*
X153097917Y-112178612D01*
X153100136Y-112181628D01*
X153135783Y-112233271D01*
X153135784Y-112233272D01*
X153135785Y-112233273D01*
X153182772Y-112274900D01*
X153185464Y-112277434D01*
X155946563Y-115038533D01*
X155949115Y-115041245D01*
X155990722Y-115088210D01*
X155990724Y-115088212D01*
X155990727Y-115088215D01*
X155990729Y-115088216D01*
X155990731Y-115088218D01*
X156042373Y-115123865D01*
X156045391Y-115126085D01*
X156094771Y-115164772D01*
X156094770Y-115164772D01*
X156094772Y-115164773D01*
X156094775Y-115164775D01*
X156104241Y-115169035D01*
X156123787Y-115180060D01*
X156132325Y-115185954D01*
X156191017Y-115208212D01*
X156194414Y-115209619D01*
X156229628Y-115225468D01*
X156251667Y-115235388D01*
X156251671Y-115235389D01*
X156261881Y-115237260D01*
X156283500Y-115243286D01*
X156293199Y-115246965D01*
X156355480Y-115254527D01*
X156359184Y-115255091D01*
X156374096Y-115257823D01*
X156420908Y-115266402D01*
X156420909Y-115266401D01*
X156420910Y-115266402D01*
X156483552Y-115262613D01*
X156487296Y-115262500D01*
X158200164Y-115262500D01*
X158267203Y-115282185D01*
X158301738Y-115315376D01*
X158359802Y-115398300D01*
X158521700Y-115560198D01*
X158657324Y-115655163D01*
X158709251Y-115691523D01*
X158762401Y-115716307D01*
X158814840Y-115762479D01*
X158833992Y-115829673D01*
X158813776Y-115896554D01*
X158762401Y-115941071D01*
X158713517Y-115963865D01*
X158527179Y-116094342D01*
X158366342Y-116255179D01*
X158235865Y-116441517D01*
X158139734Y-116647673D01*
X158139730Y-116647682D01*
X158087127Y-116843999D01*
X158087128Y-116844000D01*
X159450314Y-116844000D01*
X159438359Y-116855955D01*
X159380835Y-116968852D01*
X159361014Y-117094000D01*
X159380835Y-117219148D01*
X159438359Y-117332045D01*
X159450314Y-117344000D01*
X158087128Y-117344000D01*
X158139730Y-117540317D01*
X158139734Y-117540326D01*
X158235865Y-117746482D01*
X158366342Y-117932820D01*
X158527179Y-118093657D01*
X158713517Y-118224134D01*
X158919673Y-118320265D01*
X158919682Y-118320269D01*
X159139389Y-118379139D01*
X159139400Y-118379141D01*
X159309237Y-118394000D01*
X159516000Y-118394000D01*
X159516000Y-117409686D01*
X159527955Y-117421641D01*
X159640852Y-117479165D01*
X159734519Y-117494000D01*
X159797481Y-117494000D01*
X159891148Y-117479165D01*
X160004045Y-117421641D01*
X160016000Y-117409685D01*
X160016000Y-118394000D01*
X160222763Y-118394000D01*
X160392599Y-118379141D01*
X160392610Y-118379139D01*
X160612317Y-118320269D01*
X160612326Y-118320265D01*
X160818482Y-118224134D01*
X161004820Y-118093657D01*
X161165657Y-117932820D01*
X161296134Y-117746482D01*
X161392265Y-117540326D01*
X161392269Y-117540317D01*
X161444872Y-117344000D01*
X160081686Y-117344000D01*
X160093641Y-117332045D01*
X160151165Y-117219148D01*
X160170986Y-117094000D01*
X160151165Y-116968852D01*
X160093641Y-116855955D01*
X160081686Y-116844000D01*
X161444872Y-116844000D01*
X161444872Y-116843999D01*
X161392269Y-116647682D01*
X161392265Y-116647673D01*
X161296134Y-116441517D01*
X161165657Y-116255179D01*
X161004820Y-116094342D01*
X160818481Y-115963865D01*
X160818479Y-115963864D01*
X160769599Y-115941071D01*
X160717159Y-115894899D01*
X160698007Y-115827706D01*
X160718223Y-115760824D01*
X160769599Y-115716307D01*
X160822749Y-115691523D01*
X161010300Y-115560198D01*
X161172198Y-115398300D01*
X161303523Y-115210749D01*
X161400284Y-115003243D01*
X161459543Y-114782087D01*
X161479498Y-114554000D01*
X161459543Y-114325913D01*
X161400284Y-114104757D01*
X161303523Y-113897251D01*
X161172198Y-113709700D01*
X161010300Y-113547802D01*
X160822749Y-113416477D01*
X160822459Y-113416342D01*
X160779655Y-113396382D01*
X160727215Y-113350210D01*
X160708063Y-113283017D01*
X160728278Y-113216136D01*
X160779655Y-113171618D01*
X160784628Y-113169299D01*
X160822749Y-113151523D01*
X161010300Y-113020198D01*
X161172198Y-112858300D01*
X161303523Y-112670749D01*
X161400284Y-112463243D01*
X161459543Y-112242087D01*
X161479498Y-112014000D01*
X161475852Y-111972331D01*
X161472219Y-111930796D01*
X161459543Y-111785913D01*
X161400284Y-111564757D01*
X161303523Y-111357251D01*
X161172198Y-111169700D01*
X161010300Y-111007802D01*
X160822749Y-110876477D01*
X160785910Y-110859299D01*
X160779655Y-110856382D01*
X160727215Y-110810210D01*
X160708063Y-110743017D01*
X160728278Y-110676136D01*
X160779655Y-110631618D01*
X160791827Y-110625942D01*
X160822749Y-110611523D01*
X161010300Y-110480198D01*
X161172198Y-110318300D01*
X161303523Y-110130749D01*
X161400284Y-109923243D01*
X161459543Y-109702087D01*
X161479498Y-109474000D01*
X161459543Y-109245913D01*
X161400284Y-109024757D01*
X161377022Y-108974872D01*
X161352493Y-108922269D01*
X161303523Y-108817251D01*
X161172198Y-108629700D01*
X161010300Y-108467802D01*
X160822749Y-108336477D01*
X160779655Y-108316382D01*
X160727215Y-108270210D01*
X160708063Y-108203017D01*
X160728278Y-108136136D01*
X160779655Y-108091618D01*
X160782882Y-108090112D01*
X160822749Y-108071523D01*
X161010300Y-107940198D01*
X161172198Y-107778300D01*
X161303523Y-107590749D01*
X161400284Y-107383243D01*
X161459543Y-107162087D01*
X161479498Y-106934000D01*
X161459543Y-106705913D01*
X161400284Y-106484757D01*
X161303523Y-106277251D01*
X161172198Y-106089700D01*
X161010300Y-105927802D01*
X160822749Y-105796477D01*
X160779655Y-105776382D01*
X160727215Y-105730210D01*
X160708063Y-105663017D01*
X160728278Y-105596136D01*
X160779655Y-105551618D01*
X160782882Y-105550112D01*
X160822749Y-105531523D01*
X161010300Y-105400198D01*
X161172198Y-105238300D01*
X161303523Y-105050749D01*
X161400284Y-104843243D01*
X161459543Y-104622087D01*
X161479498Y-104394000D01*
X161459543Y-104165913D01*
X161400284Y-103944757D01*
X161303523Y-103737251D01*
X161172198Y-103549700D01*
X161010300Y-103387802D01*
X160822749Y-103256477D01*
X160779655Y-103236382D01*
X160727215Y-103190210D01*
X160708063Y-103123017D01*
X160728278Y-103056136D01*
X160779655Y-103011618D01*
X160782882Y-103010112D01*
X160822749Y-102991523D01*
X161010300Y-102860198D01*
X161172198Y-102698300D01*
X161303523Y-102510749D01*
X161400284Y-102303243D01*
X161459543Y-102082087D01*
X161479498Y-101854000D01*
X161459543Y-101625913D01*
X161400284Y-101404757D01*
X161374613Y-101349706D01*
X161339699Y-101274832D01*
X161303523Y-101197251D01*
X161172198Y-101009700D01*
X161010300Y-100847802D01*
X160822749Y-100716477D01*
X160822743Y-100716474D01*
X160779653Y-100696380D01*
X160727214Y-100650207D01*
X160708063Y-100583014D01*
X160728280Y-100516133D01*
X160779654Y-100471618D01*
X160822749Y-100451523D01*
X161010300Y-100320198D01*
X161172198Y-100158300D01*
X161303523Y-99970749D01*
X161400284Y-99763243D01*
X161459543Y-99542087D01*
X161479330Y-99315919D01*
X161479498Y-99314001D01*
X161479498Y-99313998D01*
X161472298Y-99231700D01*
X161459543Y-99085913D01*
X161400284Y-98864757D01*
X161388833Y-98840201D01*
X161320481Y-98693618D01*
X161303523Y-98657251D01*
X161172198Y-98469700D01*
X161010300Y-98307802D01*
X161002627Y-98302429D01*
X160959006Y-98247853D01*
X160951814Y-98178355D01*
X160983338Y-98116001D01*
X161043568Y-98080588D01*
X161060489Y-98077570D01*
X161075201Y-98075989D01*
X161212204Y-98024889D01*
X161329261Y-97937261D01*
X161416889Y-97820204D01*
X161467989Y-97683201D01*
X161471591Y-97649692D01*
X161474499Y-97622654D01*
X161474500Y-97622637D01*
X161474500Y-95925362D01*
X161474499Y-95925345D01*
X161470788Y-95890832D01*
X161467989Y-95864799D01*
X161459162Y-95841134D01*
X161433342Y-95771909D01*
X161416889Y-95727796D01*
X161329261Y-95610739D01*
X161212204Y-95523111D01*
X161212204Y-95523110D01*
X161075203Y-95472011D01*
X161014654Y-95465500D01*
X161014638Y-95465500D01*
X158755108Y-95465500D01*
X158688069Y-95445815D01*
X158642314Y-95393011D01*
X158631787Y-95354463D01*
X158627542Y-95314072D01*
X158568527Y-95132444D01*
X158473040Y-94967056D01*
X158395354Y-94880777D01*
X158345108Y-94824972D01*
X158314878Y-94761980D01*
X158323504Y-94692645D01*
X158345108Y-94659028D01*
X158386628Y-94612913D01*
X158473040Y-94516944D01*
X158568527Y-94351556D01*
X158627542Y-94169928D01*
X158647504Y-93980000D01*
X158627542Y-93790072D01*
X158568527Y-93608444D01*
X158473040Y-93443056D01*
X158345253Y-93301134D01*
X158190752Y-93188882D01*
X158016288Y-93111206D01*
X158016286Y-93111205D01*
X157829487Y-93071500D01*
X157638513Y-93071500D01*
X157451713Y-93111205D01*
X157451705Y-93111208D01*
X157446413Y-93113564D01*
X157377162Y-93122844D01*
X157313888Y-93093210D01*
X157276679Y-93034072D01*
X157277350Y-92964206D01*
X157288598Y-92938284D01*
X157352527Y-92827556D01*
X157411542Y-92645928D01*
X157431504Y-92456000D01*
X157411542Y-92266072D01*
X157352527Y-92084444D01*
X157257040Y-91919056D01*
X157129253Y-91777134D01*
X157043969Y-91715171D01*
X156974751Y-91664881D01*
X156885341Y-91625073D01*
X156832104Y-91579823D01*
X156811783Y-91512974D01*
X156817845Y-91473479D01*
X156849542Y-91375928D01*
X156869504Y-91186000D01*
X156849542Y-90996072D01*
X156790527Y-90814444D01*
X156695040Y-90649056D01*
X156567253Y-90507134D01*
X156412752Y-90394882D01*
X156238288Y-90317206D01*
X156238286Y-90317205D01*
X156238285Y-90317205D01*
X156084853Y-90284592D01*
X156023371Y-90251400D01*
X156022953Y-90250983D01*
X155979096Y-90207126D01*
X155945611Y-90145803D01*
X155950595Y-90076111D01*
X155974627Y-90036473D01*
X155984280Y-90025752D01*
X156057040Y-89944944D01*
X156060983Y-89938113D01*
X156111546Y-89889898D01*
X156169470Y-89877686D01*
X156169420Y-89876854D01*
X156175029Y-89876514D01*
X156175868Y-89876338D01*
X156176906Y-89876400D01*
X156176907Y-89876401D01*
X156176907Y-89876400D01*
X156176908Y-89876401D01*
X156239535Y-89872613D01*
X156243279Y-89872500D01*
X158200164Y-89872500D01*
X158267203Y-89892185D01*
X158301738Y-89925376D01*
X158359802Y-90008300D01*
X158521700Y-90170198D01*
X158685071Y-90284592D01*
X158709251Y-90301523D01*
X158762401Y-90326307D01*
X158814840Y-90372479D01*
X158833992Y-90439673D01*
X158813776Y-90506554D01*
X158762401Y-90551071D01*
X158713517Y-90573865D01*
X158527179Y-90704342D01*
X158366342Y-90865179D01*
X158235865Y-91051517D01*
X158139734Y-91257673D01*
X158139730Y-91257682D01*
X158087127Y-91453999D01*
X158087128Y-91454000D01*
X159450314Y-91454000D01*
X159438359Y-91465955D01*
X159380835Y-91578852D01*
X159361014Y-91704000D01*
X159380835Y-91829148D01*
X159438359Y-91942045D01*
X159450314Y-91954000D01*
X158087128Y-91954000D01*
X158139730Y-92150317D01*
X158139734Y-92150326D01*
X158235865Y-92356482D01*
X158366342Y-92542820D01*
X158527179Y-92703657D01*
X158713517Y-92834134D01*
X158919673Y-92930265D01*
X158919682Y-92930269D01*
X159139389Y-92989139D01*
X159139400Y-92989141D01*
X159309237Y-93004000D01*
X159516000Y-93004000D01*
X159516000Y-92019686D01*
X159527955Y-92031641D01*
X159640852Y-92089165D01*
X159734519Y-92104000D01*
X159797481Y-92104000D01*
X159891148Y-92089165D01*
X160004045Y-92031641D01*
X160016000Y-92019686D01*
X160016000Y-93004000D01*
X160222763Y-93004000D01*
X160392599Y-92989141D01*
X160392610Y-92989139D01*
X160612317Y-92930269D01*
X160612326Y-92930265D01*
X160818482Y-92834134D01*
X161004820Y-92703657D01*
X161165657Y-92542820D01*
X161296134Y-92356482D01*
X161392265Y-92150326D01*
X161392269Y-92150317D01*
X161444872Y-91954000D01*
X160081686Y-91954000D01*
X160093641Y-91942045D01*
X160151165Y-91829148D01*
X160170986Y-91704000D01*
X160151165Y-91578852D01*
X160093641Y-91465955D01*
X160081686Y-91454000D01*
X161444872Y-91454000D01*
X161444872Y-91453999D01*
X161392269Y-91257682D01*
X161392265Y-91257673D01*
X161296134Y-91051517D01*
X161165657Y-90865179D01*
X161004820Y-90704342D01*
X160818481Y-90573865D01*
X160818479Y-90573864D01*
X160769599Y-90551071D01*
X160717159Y-90504899D01*
X160698007Y-90437706D01*
X160718223Y-90370824D01*
X160769599Y-90326307D01*
X160822749Y-90301523D01*
X161010300Y-90170198D01*
X161172198Y-90008300D01*
X161303523Y-89820749D01*
X161400284Y-89613243D01*
X161459543Y-89392087D01*
X161479498Y-89164000D01*
X161477540Y-89141625D01*
X161473796Y-89098832D01*
X161459543Y-88935913D01*
X161400284Y-88714757D01*
X161399096Y-88712210D01*
X161306448Y-88513524D01*
X161303523Y-88507251D01*
X161172198Y-88319700D01*
X161010300Y-88157802D01*
X160822749Y-88026477D01*
X160779655Y-88006382D01*
X160727215Y-87960210D01*
X160708063Y-87893017D01*
X160728278Y-87826136D01*
X160779655Y-87781618D01*
X160789483Y-87777035D01*
X160822749Y-87761523D01*
X161010300Y-87630198D01*
X161172198Y-87468300D01*
X161303523Y-87280749D01*
X161400284Y-87073243D01*
X161459543Y-86852087D01*
X161479498Y-86624000D01*
X161477540Y-86601625D01*
X161470335Y-86519267D01*
X161459543Y-86395913D01*
X161400284Y-86174757D01*
X161399096Y-86172210D01*
X161306448Y-85973524D01*
X161303523Y-85967251D01*
X161172198Y-85779700D01*
X161010300Y-85617802D01*
X160822749Y-85486477D01*
X160779655Y-85466382D01*
X160727215Y-85420210D01*
X160708063Y-85353017D01*
X160728278Y-85286136D01*
X160779655Y-85241618D01*
X160782882Y-85240112D01*
X160822749Y-85221523D01*
X161010300Y-85090198D01*
X161172198Y-84928300D01*
X161303523Y-84740749D01*
X161400284Y-84533243D01*
X161459543Y-84312087D01*
X161479498Y-84084000D01*
X161459543Y-83855913D01*
X161400284Y-83634757D01*
X161399096Y-83632210D01*
X161306448Y-83433524D01*
X161303523Y-83427251D01*
X161172198Y-83239700D01*
X161010300Y-83077802D01*
X160822749Y-82946477D01*
X160779655Y-82926382D01*
X160727215Y-82880210D01*
X160708063Y-82813017D01*
X160728278Y-82746136D01*
X160779655Y-82701618D01*
X160782882Y-82700112D01*
X160822749Y-82681523D01*
X161010300Y-82550198D01*
X161172198Y-82388300D01*
X161303523Y-82200749D01*
X161400284Y-81993243D01*
X161459543Y-81772087D01*
X161479498Y-81544000D01*
X161459543Y-81315913D01*
X161400284Y-81094757D01*
X161399096Y-81092210D01*
X161306448Y-80893524D01*
X161303523Y-80887251D01*
X161172198Y-80699700D01*
X161010300Y-80537802D01*
X160822749Y-80406477D01*
X160779655Y-80386382D01*
X160727215Y-80340210D01*
X160708063Y-80273017D01*
X160728278Y-80206136D01*
X160779655Y-80161618D01*
X160782882Y-80160112D01*
X160822749Y-80141523D01*
X161010300Y-80010198D01*
X161172198Y-79848300D01*
X161303523Y-79660749D01*
X161400284Y-79453243D01*
X161459543Y-79232087D01*
X161479498Y-79004000D01*
X161459543Y-78775913D01*
X161400284Y-78554757D01*
X161399096Y-78552210D01*
X161306448Y-78353524D01*
X161303523Y-78347251D01*
X161172198Y-78159700D01*
X161010300Y-77997802D01*
X160822749Y-77866477D01*
X160779655Y-77846382D01*
X160727215Y-77800210D01*
X160708063Y-77733017D01*
X160728278Y-77666136D01*
X160779655Y-77621618D01*
X160782882Y-77620112D01*
X160822749Y-77601523D01*
X161010300Y-77470198D01*
X161172198Y-77308300D01*
X161303523Y-77120749D01*
X161400284Y-76913243D01*
X161459543Y-76692087D01*
X161479498Y-76464000D01*
X161459543Y-76235913D01*
X161400284Y-76014757D01*
X161303523Y-75807251D01*
X161172198Y-75619700D01*
X161010300Y-75457802D01*
X160822749Y-75326477D01*
X160779655Y-75306382D01*
X160727215Y-75260210D01*
X160708063Y-75193017D01*
X160728278Y-75126136D01*
X160779655Y-75081618D01*
X160782882Y-75080112D01*
X160822749Y-75061523D01*
X161010300Y-74930198D01*
X161172198Y-74768300D01*
X161303523Y-74580749D01*
X161400284Y-74373243D01*
X161459543Y-74152087D01*
X161479498Y-73924000D01*
X161459543Y-73695913D01*
X161400284Y-73474757D01*
X161303523Y-73267251D01*
X161172198Y-73079700D01*
X161010300Y-72917802D01*
X161002628Y-72912430D01*
X160959006Y-72857853D01*
X160951814Y-72788355D01*
X160983338Y-72726001D01*
X161043568Y-72690588D01*
X161060489Y-72687570D01*
X161075201Y-72685989D01*
X161212204Y-72634889D01*
X161329261Y-72547261D01*
X161416889Y-72430204D01*
X161467525Y-72294444D01*
X161467988Y-72293204D01*
X161467988Y-72293203D01*
X161467989Y-72293201D01*
X161471591Y-72259692D01*
X161474499Y-72232654D01*
X161474500Y-72232637D01*
X161474500Y-70535362D01*
X161474499Y-70535345D01*
X161471157Y-70504270D01*
X161467989Y-70474799D01*
X161416889Y-70337796D01*
X161329261Y-70220739D01*
X161212204Y-70133111D01*
X161075203Y-70082011D01*
X161014654Y-70075500D01*
X161014638Y-70075500D01*
X160598500Y-70075500D01*
X160531461Y-70055815D01*
X160485706Y-70003011D01*
X160474500Y-69951500D01*
X160474500Y-69111278D01*
X160474613Y-69107534D01*
X160478401Y-69044907D01*
X160467091Y-68983190D01*
X160466527Y-68979484D01*
X160458965Y-68917201D01*
X160458965Y-68917199D01*
X160455283Y-68907492D01*
X160449258Y-68885880D01*
X160447388Y-68875670D01*
X160421634Y-68818447D01*
X160420206Y-68815000D01*
X160397953Y-68756323D01*
X160397952Y-68756322D01*
X160392053Y-68747775D01*
X160381031Y-68728231D01*
X160376775Y-68718776D01*
X160376776Y-68718776D01*
X160362632Y-68700723D01*
X160338076Y-68669379D01*
X160335869Y-68666379D01*
X160317709Y-68640071D01*
X160300215Y-68614727D01*
X160253253Y-68573122D01*
X160250542Y-68570571D01*
X158543884Y-66863914D01*
X158510400Y-66802592D01*
X158515384Y-66732900D01*
X158557256Y-66676967D01*
X158606900Y-66657092D01*
X158606428Y-66654922D01*
X158612196Y-66653667D01*
X158612199Y-66653667D01*
X158629492Y-66649904D01*
X158647008Y-66647387D01*
X158664659Y-66646125D01*
X158685650Y-66640500D01*
X158740003Y-66625935D01*
X158742823Y-66625250D01*
X158819059Y-66608667D01*
X158835344Y-66601692D01*
X158852042Y-66595913D01*
X158869142Y-66591332D01*
X158939312Y-66557244D01*
X158941903Y-66556061D01*
X159013664Y-66525333D01*
X159028324Y-66515409D01*
X159043643Y-66506564D01*
X159059563Y-66498832D01*
X159122003Y-66452088D01*
X159124386Y-66450393D01*
X159125864Y-66449391D01*
X159188981Y-66406674D01*
X159201503Y-66394150D01*
X159214859Y-66382578D01*
X159229036Y-66371966D01*
X159281510Y-66314240D01*
X159283512Y-66312141D01*
X161625635Y-63970019D01*
X161686959Y-63936534D01*
X161713317Y-63933700D01*
X163854638Y-63933700D01*
X163854654Y-63933699D01*
X163881692Y-63930791D01*
X163915201Y-63927189D01*
X164052204Y-63876089D01*
X164169261Y-63788461D01*
X164256889Y-63671404D01*
X164307989Y-63534401D01*
X164312638Y-63491157D01*
X164314499Y-63473854D01*
X164314500Y-63473837D01*
X164314500Y-61925201D01*
X165380891Y-61925201D01*
X165401300Y-62210562D01*
X165462109Y-62490095D01*
X165562091Y-62758158D01*
X165699191Y-63009238D01*
X165699196Y-63009246D01*
X165805882Y-63151761D01*
X165805883Y-63151762D01*
X166701195Y-62256450D01*
X166723340Y-62307787D01*
X166829433Y-62450294D01*
X166965530Y-62564494D01*
X167055216Y-62609535D01*
X166159436Y-63505315D01*
X166301960Y-63612007D01*
X166301961Y-63612008D01*
X166553042Y-63749108D01*
X166553041Y-63749108D01*
X166821104Y-63849090D01*
X167100637Y-63909899D01*
X167385999Y-63930309D01*
X167386001Y-63930309D01*
X167671362Y-63909899D01*
X167950895Y-63849090D01*
X168218958Y-63749108D01*
X168470047Y-63612003D01*
X168612561Y-63505316D01*
X168612562Y-63505315D01*
X167719748Y-62612500D01*
X167729409Y-62608984D01*
X167877844Y-62511357D01*
X167999764Y-62382130D01*
X168071768Y-62257415D01*
X168966115Y-63151762D01*
X168966116Y-63151761D01*
X169072803Y-63009247D01*
X169209908Y-62758158D01*
X169309890Y-62490095D01*
X169322266Y-62433202D01*
X174689840Y-62433202D01*
X174709263Y-62791434D01*
X174767306Y-63145479D01*
X174767307Y-63145482D01*
X174863282Y-63491155D01*
X174863283Y-63491157D01*
X174996072Y-63824433D01*
X174996081Y-63824451D01*
X175164128Y-64141420D01*
X175164129Y-64141423D01*
X175365456Y-64438357D01*
X175365464Y-64438367D01*
X175597708Y-64711786D01*
X175597716Y-64711795D01*
X175858177Y-64958517D01*
X176143786Y-65175631D01*
X176451195Y-65360593D01*
X176451197Y-65360594D01*
X176451199Y-65360595D01*
X176451203Y-65360597D01*
X176776788Y-65511228D01*
X176776799Y-65511233D01*
X177116783Y-65625787D01*
X177467158Y-65702911D01*
X177823818Y-65741700D01*
X177823824Y-65741700D01*
X178182576Y-65741700D01*
X178182582Y-65741700D01*
X178539242Y-65702911D01*
X178889617Y-65625787D01*
X179229601Y-65511233D01*
X179555205Y-65360593D01*
X179862614Y-65175631D01*
X180148223Y-64958517D01*
X180408684Y-64711795D01*
X180640942Y-64438359D01*
X180816085Y-64180043D01*
X180842270Y-64141423D01*
X180842270Y-64141421D01*
X180842275Y-64141415D01*
X181010323Y-63824443D01*
X181143115Y-63491161D01*
X181146144Y-63480254D01*
X181224863Y-63196731D01*
X181239095Y-63145474D01*
X181297136Y-62791437D01*
X181309440Y-62564494D01*
X181316559Y-62433202D01*
X181316559Y-62433197D01*
X181301901Y-62162844D01*
X181297136Y-62074963D01*
X181239095Y-61720926D01*
X181167887Y-61464459D01*
X181143117Y-61375244D01*
X181143116Y-61375242D01*
X181010327Y-61041966D01*
X181010318Y-61041948D01*
X180842275Y-60724985D01*
X180842271Y-60724979D01*
X180842270Y-60724976D01*
X180640943Y-60428042D01*
X180640935Y-60428032D01*
X180408691Y-60154613D01*
X180408686Y-60154607D01*
X180352401Y-60101291D01*
X180148223Y-59907883D01*
X180148216Y-59907877D01*
X180148213Y-59907875D01*
X180064205Y-59844014D01*
X179862614Y-59690769D01*
X179555205Y-59505807D01*
X179555204Y-59505806D01*
X179555200Y-59505804D01*
X179555196Y-59505802D01*
X179229611Y-59355171D01*
X179229606Y-59355169D01*
X179229601Y-59355167D01*
X179063878Y-59299328D01*
X178889616Y-59240612D01*
X178539240Y-59163488D01*
X178182583Y-59124700D01*
X178182582Y-59124700D01*
X177823818Y-59124700D01*
X177823816Y-59124700D01*
X177467159Y-59163488D01*
X177116783Y-59240612D01*
X176883753Y-59319130D01*
X176776799Y-59355167D01*
X176776796Y-59355168D01*
X176776788Y-59355171D01*
X176451203Y-59505802D01*
X176451199Y-59505804D01*
X176300939Y-59596213D01*
X176143786Y-59690769D01*
X176117474Y-59710771D01*
X175858186Y-59907875D01*
X175858177Y-59907883D01*
X175597713Y-60154607D01*
X175597708Y-60154613D01*
X175365464Y-60428032D01*
X175365456Y-60428042D01*
X175164129Y-60724976D01*
X175164128Y-60724979D01*
X174996081Y-61041948D01*
X174996072Y-61041966D01*
X174863283Y-61375242D01*
X174863282Y-61375244D01*
X174767307Y-61720917D01*
X174767306Y-61720920D01*
X174709263Y-62074965D01*
X174689840Y-62433197D01*
X174689840Y-62433202D01*
X169322266Y-62433202D01*
X169370699Y-62210562D01*
X169391109Y-61925201D01*
X169391109Y-61925198D01*
X169370699Y-61639837D01*
X169309890Y-61360304D01*
X169209908Y-61092241D01*
X169072808Y-60841161D01*
X169072807Y-60841160D01*
X168966115Y-60698636D01*
X168070803Y-61593947D01*
X168048660Y-61542613D01*
X167942567Y-61400106D01*
X167806470Y-61285906D01*
X167716782Y-61240863D01*
X168612562Y-60345083D01*
X168612561Y-60345082D01*
X168470046Y-60238396D01*
X168470038Y-60238391D01*
X168218957Y-60101291D01*
X168218958Y-60101291D01*
X167950895Y-60001309D01*
X167671362Y-59940500D01*
X167386001Y-59920091D01*
X167385999Y-59920091D01*
X167100637Y-59940500D01*
X166821104Y-60001309D01*
X166553041Y-60101291D01*
X166301961Y-60238391D01*
X166301953Y-60238396D01*
X166159437Y-60345082D01*
X166159436Y-60345083D01*
X167052252Y-61237899D01*
X167042591Y-61241416D01*
X166894156Y-61339043D01*
X166772236Y-61468270D01*
X166700231Y-61592984D01*
X165805883Y-60698636D01*
X165805882Y-60698637D01*
X165699196Y-60841153D01*
X165699191Y-60841161D01*
X165562091Y-61092241D01*
X165462109Y-61360304D01*
X165401300Y-61639837D01*
X165380891Y-61925198D01*
X165380891Y-61925201D01*
X164314500Y-61925201D01*
X164314500Y-60376562D01*
X164314499Y-60376545D01*
X164311116Y-60345082D01*
X164307989Y-60315999D01*
X164256889Y-60178996D01*
X164169261Y-60061939D01*
X164052204Y-59974311D01*
X163915203Y-59923211D01*
X163854654Y-59916700D01*
X163854638Y-59916700D01*
X160757362Y-59916700D01*
X160757345Y-59916700D01*
X160696797Y-59923211D01*
X160696795Y-59923211D01*
X160559795Y-59974311D01*
X160442739Y-60061939D01*
X160355111Y-60178995D01*
X160304011Y-60315995D01*
X160304011Y-60315997D01*
X160297500Y-60376545D01*
X160297500Y-62111482D01*
X160277815Y-62178521D01*
X160261181Y-62199163D01*
X158073163Y-64387181D01*
X158011840Y-64420666D01*
X157985482Y-64423500D01*
X127687105Y-64423500D01*
X127666542Y-64421783D01*
X127665507Y-64421609D01*
X127663641Y-64421295D01*
X127663639Y-64421295D01*
X127571029Y-64423500D01*
X127531397Y-64423500D01*
X127530098Y-64423623D01*
X127520427Y-64424546D01*
X127516014Y-64424809D01*
X127451998Y-64426334D01*
X127416708Y-64434010D01*
X127409425Y-64435146D01*
X127396596Y-64436371D01*
X127373465Y-64438580D01*
X127373461Y-64438580D01*
X127373461Y-64438581D01*
X127312007Y-64456625D01*
X127307720Y-64457719D01*
X127302700Y-64458811D01*
X127245149Y-64471330D01*
X127245140Y-64471333D01*
X127211942Y-64485548D01*
X127205004Y-64488042D01*
X127170339Y-64498222D01*
X127113412Y-64527569D01*
X127109409Y-64529455D01*
X127050537Y-64554666D01*
X127020623Y-64574912D01*
X127014281Y-64578675D01*
X126982177Y-64595227D01*
X126982167Y-64595234D01*
X126931834Y-64634814D01*
X126928262Y-64637423D01*
X126875220Y-64673324D01*
X126875214Y-64673328D01*
X126849667Y-64698874D01*
X126844151Y-64703770D01*
X126815769Y-64726090D01*
X126815767Y-64726092D01*
X126773824Y-64774495D01*
X126770809Y-64777734D01*
X120851800Y-70696742D01*
X120790477Y-70730227D01*
X120773849Y-70732679D01*
X120742000Y-70735185D01*
X120641889Y-70743065D01*
X120641884Y-70743066D01*
X120641885Y-70743066D01*
X120411004Y-70798495D01*
X120411002Y-70798495D01*
X120191640Y-70889357D01*
X120191637Y-70889359D01*
X119989189Y-71013420D01*
X119989186Y-71013421D01*
X119808631Y-71167631D01*
X119654421Y-71348186D01*
X119654420Y-71348189D01*
X119530359Y-71550637D01*
X119530357Y-71550640D01*
X119439495Y-71770002D01*
X119439495Y-71770004D01*
X119384065Y-72000885D01*
X119365435Y-72237599D01*
X119384065Y-72474314D01*
X119439495Y-72705195D01*
X119439495Y-72705197D01*
X119530357Y-72924559D01*
X119530359Y-72924562D01*
X119654420Y-73127010D01*
X119654426Y-73127019D01*
X119740390Y-73227670D01*
X119768961Y-73291431D01*
X119770100Y-73308201D01*
X119770100Y-86993695D01*
X119768383Y-87014260D01*
X119767895Y-87017157D01*
X119767895Y-87017160D01*
X119770100Y-87109790D01*
X119770100Y-87149407D01*
X119771145Y-87160360D01*
X119771408Y-87164774D01*
X119772933Y-87228798D01*
X119772934Y-87228804D01*
X119780610Y-87264091D01*
X119781746Y-87271375D01*
X119785181Y-87307338D01*
X119785181Y-87307339D01*
X119803224Y-87368791D01*
X119804319Y-87373080D01*
X119817931Y-87435653D01*
X119817933Y-87435659D01*
X119832148Y-87468854D01*
X119834645Y-87475800D01*
X119844823Y-87510462D01*
X119851029Y-87522500D01*
X119874170Y-87567388D01*
X119876057Y-87571393D01*
X119901263Y-87630256D01*
X119901268Y-87630266D01*
X119921512Y-87660176D01*
X119925278Y-87666524D01*
X119941826Y-87698623D01*
X119981418Y-87748968D01*
X119984028Y-87752543D01*
X120015018Y-87798330D01*
X120019929Y-87805585D01*
X120045460Y-87831115D01*
X120050358Y-87836634D01*
X120072690Y-87865030D01*
X120072693Y-87865033D01*
X120121102Y-87906980D01*
X120124342Y-87909997D01*
X127921403Y-95707058D01*
X127934728Y-95722810D01*
X127936438Y-95725211D01*
X127936442Y-95725216D01*
X128003510Y-95789165D01*
X128031503Y-95817159D01*
X128031508Y-95817163D01*
X128031510Y-95817165D01*
X128039992Y-95824168D01*
X128043296Y-95827101D01*
X128058014Y-95841134D01*
X128089654Y-95871303D01*
X128117037Y-95888901D01*
X128120042Y-95890832D01*
X128126001Y-95895184D01*
X128153851Y-95918179D01*
X128203184Y-95945117D01*
X128210070Y-95948877D01*
X128213843Y-95951114D01*
X128267746Y-95985756D01*
X128301275Y-95999178D01*
X128307945Y-96002321D01*
X128339654Y-96019636D01*
X128400661Y-96039137D01*
X128404821Y-96040633D01*
X128412555Y-96043729D01*
X128464279Y-96064436D01*
X128499756Y-96071273D01*
X128506892Y-96073095D01*
X128515794Y-96075940D01*
X128541298Y-96084094D01*
X128571565Y-96087712D01*
X128604887Y-96091696D01*
X128609249Y-96092375D01*
X128672151Y-96104500D01*
X128708270Y-96104500D01*
X128715637Y-96104939D01*
X128722668Y-96105779D01*
X128751501Y-96109227D01*
X128815386Y-96104657D01*
X128819808Y-96104500D01*
X142264705Y-96104500D01*
X142331744Y-96124185D01*
X142335819Y-96126918D01*
X142345251Y-96133523D01*
X142398401Y-96158307D01*
X142450840Y-96204479D01*
X142469992Y-96271673D01*
X142449776Y-96338554D01*
X142398401Y-96383071D01*
X142349517Y-96405865D01*
X142163179Y-96536342D01*
X142002342Y-96697179D01*
X141871865Y-96883517D01*
X141775734Y-97089673D01*
X141775730Y-97089682D01*
X141723127Y-97285999D01*
X141723128Y-97286000D01*
X142686314Y-97286000D01*
X142674359Y-97297955D01*
X142616835Y-97410852D01*
X142597014Y-97536000D01*
X142616835Y-97661148D01*
X142674359Y-97774045D01*
X142686314Y-97786000D01*
X141723128Y-97786000D01*
X141775730Y-97982317D01*
X141775734Y-97982326D01*
X141871865Y-98188482D01*
X142002342Y-98374820D01*
X142163179Y-98535657D01*
X142349517Y-98666133D01*
X142398399Y-98688927D01*
X142450839Y-98735099D01*
X142469992Y-98802292D01*
X142449777Y-98869174D01*
X142398402Y-98913691D01*
X142345256Y-98938474D01*
X142345252Y-98938476D01*
X142339577Y-98942450D01*
X142157700Y-99069802D01*
X142157698Y-99069803D01*
X142157695Y-99069806D01*
X141995806Y-99231695D01*
X141995803Y-99231698D01*
X141995802Y-99231700D01*
X141938569Y-99313437D01*
X141864476Y-99419252D01*
X141864475Y-99419254D01*
X141767718Y-99626750D01*
X141767714Y-99626761D01*
X141708457Y-99847910D01*
X141708456Y-99847918D01*
X141688502Y-100075998D01*
X141688502Y-100076001D01*
X141708456Y-100304081D01*
X141708457Y-100304089D01*
X141767714Y-100525238D01*
X141767718Y-100525249D01*
X141862202Y-100727870D01*
X141864477Y-100732749D01*
X141995802Y-100920300D01*
X142157700Y-101082198D01*
X142322014Y-101197252D01*
X142345251Y-101213523D01*
X142388345Y-101233618D01*
X142440784Y-101279791D01*
X142459936Y-101346984D01*
X142439720Y-101413865D01*
X142388345Y-101458382D01*
X142345251Y-101478476D01*
X142220126Y-101566090D01*
X142157700Y-101609802D01*
X142157698Y-101609803D01*
X142157695Y-101609806D01*
X141995806Y-101771695D01*
X141864476Y-101959252D01*
X141864475Y-101959254D01*
X141767718Y-102166750D01*
X141767714Y-102166761D01*
X141708457Y-102387910D01*
X141708456Y-102387918D01*
X141688502Y-102615998D01*
X141688502Y-102616001D01*
X141708456Y-102844081D01*
X141708457Y-102844089D01*
X141767714Y-103065238D01*
X141767718Y-103065249D01*
X141826760Y-103191865D01*
X141864477Y-103272749D01*
X141995802Y-103460300D01*
X142157700Y-103622198D01*
X142334700Y-103746135D01*
X142345251Y-103753523D01*
X142388345Y-103773618D01*
X142440784Y-103819791D01*
X142459936Y-103886984D01*
X142439720Y-103953865D01*
X142388345Y-103998382D01*
X142345251Y-104018476D01*
X142220126Y-104106090D01*
X142157700Y-104149802D01*
X142157698Y-104149803D01*
X142157695Y-104149806D01*
X141995806Y-104311695D01*
X141864476Y-104499252D01*
X141864475Y-104499254D01*
X141767718Y-104706750D01*
X141767714Y-104706761D01*
X141708457Y-104927910D01*
X141708456Y-104927918D01*
X141688502Y-105155998D01*
X141688502Y-105156001D01*
X141708456Y-105384081D01*
X141708457Y-105384089D01*
X141767714Y-105605238D01*
X141767718Y-105605249D01*
X141826760Y-105731865D01*
X141864477Y-105812749D01*
X141995802Y-106000300D01*
X142157700Y-106162198D01*
X142334700Y-106286135D01*
X142345251Y-106293523D01*
X142388345Y-106313618D01*
X142440784Y-106359791D01*
X142459936Y-106426984D01*
X142439720Y-106493865D01*
X142388345Y-106538382D01*
X142345251Y-106558476D01*
X142220126Y-106646090D01*
X142157700Y-106689802D01*
X142157698Y-106689803D01*
X142157695Y-106689806D01*
X141995806Y-106851695D01*
X141864476Y-107039252D01*
X141864475Y-107039254D01*
X141767718Y-107246750D01*
X141767714Y-107246761D01*
X141708457Y-107467910D01*
X141708456Y-107467918D01*
X141688502Y-107695998D01*
X141688502Y-107696001D01*
X141708456Y-107924081D01*
X141708457Y-107924089D01*
X141767714Y-108145238D01*
X141767718Y-108145249D01*
X141826760Y-108271865D01*
X141864477Y-108352749D01*
X141995802Y-108540300D01*
X142157700Y-108702198D01*
X142219992Y-108745815D01*
X142240623Y-108760261D01*
X142284248Y-108814837D01*
X142293500Y-108861836D01*
X142293500Y-113360639D01*
X142273815Y-113427678D01*
X142257181Y-113448320D01*
X134501480Y-121204020D01*
X134498753Y-121206587D01*
X134451782Y-121248200D01*
X134451780Y-121248203D01*
X134416138Y-121299839D01*
X134413920Y-121302854D01*
X134375223Y-121352249D01*
X134370962Y-121361715D01*
X134359947Y-121381246D01*
X134354048Y-121389792D01*
X134354044Y-121389800D01*
X134331794Y-121448467D01*
X134330361Y-121451926D01*
X134304610Y-121509142D01*
X134304609Y-121509145D01*
X134302737Y-121519361D01*
X134296715Y-121540966D01*
X134293034Y-121550673D01*
X134293033Y-121550675D01*
X134291312Y-121564851D01*
X134263689Y-121629028D01*
X134222019Y-121661621D01*
X134129359Y-121706243D01*
X133917780Y-121850495D01*
X133730072Y-122024661D01*
X133570413Y-122224869D01*
X133442378Y-122446630D01*
X133433928Y-122468161D01*
X133391112Y-122523375D01*
X133325242Y-122546676D01*
X133257232Y-122530665D01*
X133208673Y-122480427D01*
X133194500Y-122422859D01*
X133194500Y-121941362D01*
X133194499Y-121941345D01*
X133191157Y-121910270D01*
X133187989Y-121880799D01*
X133176686Y-121850496D01*
X133154841Y-121791926D01*
X133136889Y-121743796D01*
X133049261Y-121626739D01*
X132932204Y-121539111D01*
X132902348Y-121527975D01*
X132795203Y-121488011D01*
X132734654Y-121481500D01*
X132734638Y-121481500D01*
X130237362Y-121481500D01*
X130237345Y-121481500D01*
X130176797Y-121488011D01*
X130176795Y-121488011D01*
X130039795Y-121539111D01*
X129922739Y-121626739D01*
X129835111Y-121743795D01*
X129784011Y-121880795D01*
X129784011Y-121880797D01*
X129777500Y-121941345D01*
X129777500Y-124438654D01*
X129784011Y-124499202D01*
X129784011Y-124499204D01*
X129835112Y-124636206D01*
X129865792Y-124677190D01*
X129890209Y-124742654D01*
X129875357Y-124810927D01*
X129825952Y-124860332D01*
X129766525Y-124875500D01*
X127637518Y-124875500D01*
X127570479Y-124855815D01*
X127549837Y-124839181D01*
X126493819Y-123783163D01*
X126460334Y-123721840D01*
X126457500Y-123695482D01*
X126457500Y-113894906D01*
X126459218Y-113874339D01*
X126459703Y-113871450D01*
X126459705Y-113871439D01*
X126457500Y-113778810D01*
X126457500Y-113739197D01*
X126456454Y-113728249D01*
X126456190Y-113723823D01*
X126455627Y-113700159D01*
X126454667Y-113659801D01*
X126453743Y-113655556D01*
X126446989Y-113624510D01*
X126445852Y-113617224D01*
X126442419Y-113581261D01*
X126424366Y-113519782D01*
X126423281Y-113515530D01*
X126409667Y-113452941D01*
X126395446Y-113419732D01*
X126392955Y-113412803D01*
X126382777Y-113378138D01*
X126353431Y-113321217D01*
X126351547Y-113317217D01*
X126336902Y-113283017D01*
X126326333Y-113258336D01*
X126313665Y-113239619D01*
X126306086Y-113228421D01*
X126302320Y-113222074D01*
X126285770Y-113189972D01*
X126246176Y-113139623D01*
X126243565Y-113136048D01*
X126207676Y-113083021D01*
X126207675Y-113083020D01*
X126207495Y-113082840D01*
X126182127Y-113057472D01*
X126177239Y-113051964D01*
X126154908Y-113023568D01*
X126142478Y-113012797D01*
X126106496Y-112981618D01*
X126103257Y-112978602D01*
X124859261Y-111734605D01*
X136518459Y-111734605D01*
X136538985Y-111982329D01*
X136538987Y-111982338D01*
X136600012Y-112223317D01*
X136699866Y-112450964D01*
X136800164Y-112604482D01*
X137579150Y-111825496D01*
X137579927Y-111835865D01*
X137629487Y-111962141D01*
X137714065Y-112068199D01*
X137826147Y-112144616D01*
X137933899Y-112177853D01*
X137153542Y-112958209D01*
X137200368Y-112994655D01*
X137200370Y-112994656D01*
X137418985Y-113112964D01*
X137418996Y-113112969D01*
X137654106Y-113193683D01*
X137899307Y-113234600D01*
X138147893Y-113234600D01*
X138393093Y-113193683D01*
X138628203Y-113112969D01*
X138628214Y-113112964D01*
X138846828Y-112994657D01*
X138846831Y-112994655D01*
X138893656Y-112958209D01*
X138111831Y-112176384D01*
X138157738Y-112169465D01*
X138279957Y-112110607D01*
X138379398Y-112018340D01*
X138447225Y-111900860D01*
X138465099Y-111822545D01*
X139247034Y-112604482D01*
X139347331Y-112450969D01*
X139447187Y-112223317D01*
X139508212Y-111982338D01*
X139508214Y-111982329D01*
X139528741Y-111734605D01*
X139528741Y-111734594D01*
X139508214Y-111486870D01*
X139508212Y-111486861D01*
X139447187Y-111245882D01*
X139347331Y-111018230D01*
X139247034Y-110864716D01*
X138468049Y-111643701D01*
X138467273Y-111633335D01*
X138417713Y-111507059D01*
X138333135Y-111401001D01*
X138221053Y-111324584D01*
X138113300Y-111291347D01*
X138893657Y-110510990D01*
X138893656Y-110510989D01*
X138846829Y-110474543D01*
X138628214Y-110356235D01*
X138628203Y-110356230D01*
X138393093Y-110275516D01*
X138147893Y-110234600D01*
X137899307Y-110234600D01*
X137654106Y-110275516D01*
X137418996Y-110356230D01*
X137418990Y-110356232D01*
X137200361Y-110474549D01*
X137153542Y-110510988D01*
X137153542Y-110510990D01*
X137935368Y-111292815D01*
X137889462Y-111299735D01*
X137767243Y-111358593D01*
X137667802Y-111450860D01*
X137599975Y-111568340D01*
X137582100Y-111646652D01*
X136800164Y-110864716D01*
X136699867Y-111018232D01*
X136600012Y-111245882D01*
X136538987Y-111486861D01*
X136538985Y-111486870D01*
X136518459Y-111734594D01*
X136518459Y-111734605D01*
X124859261Y-111734605D01*
X124148192Y-111023536D01*
X124134862Y-111007777D01*
X124133158Y-111005384D01*
X124133157Y-111005382D01*
X124066111Y-110941454D01*
X124047872Y-110923216D01*
X124038091Y-110913435D01*
X124029600Y-110906424D01*
X124026299Y-110903494D01*
X123979948Y-110859299D01*
X123979946Y-110859297D01*
X123967968Y-110851599D01*
X123949557Y-110839766D01*
X123943598Y-110835415D01*
X123915755Y-110812426D01*
X123915749Y-110812421D01*
X123859536Y-110781726D01*
X123855730Y-110779468D01*
X123801856Y-110744845D01*
X123799745Y-110744000D01*
X123785449Y-110738276D01*
X123768324Y-110731420D01*
X123761648Y-110728275D01*
X123729952Y-110710968D01*
X123729950Y-110710967D01*
X123729946Y-110710965D01*
X123710337Y-110704696D01*
X123668947Y-110691465D01*
X123664783Y-110689968D01*
X123605327Y-110666166D01*
X123605321Y-110666164D01*
X123569841Y-110659325D01*
X123562699Y-110657502D01*
X123528300Y-110646505D01*
X123464709Y-110638901D01*
X123460337Y-110638219D01*
X123416798Y-110629829D01*
X123397449Y-110626100D01*
X123397447Y-110626100D01*
X123361324Y-110626100D01*
X123353958Y-110625661D01*
X123318101Y-110621374D01*
X123318100Y-110621374D01*
X123254223Y-110625942D01*
X123249803Y-110626100D01*
X121949201Y-110626100D01*
X121882162Y-110606415D01*
X121868670Y-110596390D01*
X121768019Y-110510426D01*
X121768010Y-110510420D01*
X121565562Y-110386359D01*
X121565559Y-110386357D01*
X121346196Y-110295495D01*
X121115314Y-110240065D01*
X120937777Y-110226092D01*
X120878600Y-110221435D01*
X120878599Y-110221435D01*
X120641885Y-110240065D01*
X120411004Y-110295495D01*
X120411002Y-110295495D01*
X120191640Y-110386357D01*
X120191637Y-110386359D01*
X119989189Y-110510420D01*
X119989186Y-110510421D01*
X119808631Y-110664631D01*
X119654421Y-110845186D01*
X119654420Y-110845189D01*
X119530359Y-111047637D01*
X119530357Y-111047640D01*
X119439495Y-111267002D01*
X119439495Y-111267004D01*
X119384065Y-111497885D01*
X119365435Y-111734600D01*
X119384065Y-111971314D01*
X119439495Y-112202195D01*
X119439495Y-112202197D01*
X119530357Y-112421559D01*
X119530359Y-112421562D01*
X119654420Y-112624010D01*
X119654421Y-112624013D01*
X119654424Y-112624016D01*
X119808631Y-112804569D01*
X119896269Y-112879419D01*
X119989186Y-112958778D01*
X119989189Y-112958779D01*
X120191637Y-113082840D01*
X120191640Y-113082842D01*
X120411003Y-113173704D01*
X120411004Y-113173704D01*
X120411006Y-113173705D01*
X120641889Y-113229135D01*
X120878600Y-113247765D01*
X121115311Y-113229135D01*
X121346194Y-113173705D01*
X121346196Y-113173704D01*
X121346197Y-113173704D01*
X121565559Y-113082842D01*
X121565560Y-113082841D01*
X121565563Y-113082840D01*
X121768016Y-112958776D01*
X121828633Y-112907004D01*
X121868670Y-112872810D01*
X121932431Y-112844239D01*
X121949201Y-112843100D01*
X122781083Y-112843100D01*
X122848122Y-112862785D01*
X122868763Y-112879418D01*
X124204181Y-114214837D01*
X124237665Y-114276158D01*
X124240499Y-114302516D01*
X124240499Y-119458315D01*
X124220814Y-119525354D01*
X124168010Y-119571109D01*
X124098852Y-119581053D01*
X124035296Y-119552028D01*
X124013871Y-119527909D01*
X123897342Y-119356041D01*
X123897335Y-119356033D01*
X123897334Y-119356031D01*
X123665091Y-119082613D01*
X123665086Y-119082607D01*
X123665084Y-119082605D01*
X123404623Y-118835883D01*
X123404616Y-118835877D01*
X123404613Y-118835875D01*
X123336866Y-118784375D01*
X123119014Y-118618769D01*
X122811605Y-118433807D01*
X122811604Y-118433806D01*
X122811600Y-118433804D01*
X122811596Y-118433802D01*
X122486011Y-118283171D01*
X122486006Y-118283169D01*
X122486001Y-118283167D01*
X122305013Y-118222185D01*
X122146016Y-118168612D01*
X121795640Y-118091488D01*
X121438983Y-118052700D01*
X121438982Y-118052700D01*
X121080218Y-118052700D01*
X121080216Y-118052700D01*
X120723559Y-118091488D01*
X120373183Y-118168612D01*
X120110368Y-118257165D01*
X120033199Y-118283167D01*
X120033196Y-118283168D01*
X120033188Y-118283171D01*
X119707603Y-118433802D01*
X119707599Y-118433804D01*
X119478661Y-118571551D01*
X119400186Y-118618769D01*
X119311660Y-118686064D01*
X119114586Y-118835875D01*
X119114577Y-118835883D01*
X118854113Y-119082607D01*
X118854108Y-119082613D01*
X118621864Y-119356032D01*
X118621856Y-119356042D01*
X118420529Y-119652976D01*
X118420528Y-119652979D01*
X118252481Y-119969948D01*
X118252472Y-119969966D01*
X118119683Y-120303242D01*
X118119682Y-120303244D01*
X118023707Y-120648917D01*
X118023706Y-120648920D01*
X117965663Y-121002965D01*
X117946241Y-121361197D01*
X117946241Y-121361202D01*
X116054777Y-121361202D01*
X116054777Y-107696000D01*
X133960496Y-107696000D01*
X133980458Y-107885928D01*
X133980459Y-107885931D01*
X134039470Y-108067549D01*
X134039473Y-108067556D01*
X134134960Y-108232944D01*
X134262747Y-108374866D01*
X134417248Y-108487118D01*
X134591712Y-108564794D01*
X134778513Y-108604500D01*
X134969487Y-108604500D01*
X135156288Y-108564794D01*
X135330752Y-108487118D01*
X135485253Y-108374866D01*
X135613040Y-108232944D01*
X135708527Y-108067556D01*
X135767542Y-107885928D01*
X135787504Y-107696000D01*
X135767542Y-107506072D01*
X135708527Y-107324444D01*
X135614790Y-107162087D01*
X135613042Y-107159059D01*
X135609221Y-107153800D01*
X135610633Y-107152773D01*
X135584118Y-107097503D01*
X135582500Y-107077538D01*
X135582500Y-105929469D01*
X135602185Y-105862430D01*
X135654989Y-105816675D01*
X135724147Y-105806731D01*
X135780468Y-105832452D01*
X135781490Y-105831046D01*
X135786745Y-105834864D01*
X135786747Y-105834866D01*
X135941248Y-105947118D01*
X136115712Y-106024794D01*
X136302513Y-106064500D01*
X136493487Y-106064500D01*
X136680288Y-106024794D01*
X136854752Y-105947118D01*
X137009253Y-105834866D01*
X137137040Y-105692944D01*
X137232527Y-105527556D01*
X137291542Y-105345928D01*
X137311504Y-105156000D01*
X137291542Y-104966072D01*
X137232527Y-104784444D01*
X137159978Y-104658785D01*
X137137042Y-104619059D01*
X137133221Y-104613800D01*
X137134633Y-104612773D01*
X137108118Y-104557503D01*
X137106500Y-104537538D01*
X137106500Y-98916461D01*
X137126185Y-98849422D01*
X137133225Y-98840201D01*
X137133222Y-98840199D01*
X137137036Y-98834948D01*
X137137040Y-98834944D01*
X137232527Y-98669556D01*
X137291542Y-98487928D01*
X137311504Y-98298000D01*
X137291542Y-98108072D01*
X137232527Y-97926444D01*
X137137040Y-97761056D01*
X137009253Y-97619134D01*
X136854752Y-97506882D01*
X136680288Y-97429206D01*
X136680286Y-97429205D01*
X136493487Y-97389500D01*
X136302513Y-97389500D01*
X136115714Y-97429205D01*
X135941246Y-97506883D01*
X135786747Y-97619133D01*
X135757739Y-97651350D01*
X135748918Y-97661148D01*
X135746900Y-97663389D01*
X135687413Y-97700037D01*
X135617556Y-97698706D01*
X135562600Y-97663389D01*
X135560582Y-97661148D01*
X135522753Y-97619134D01*
X135460221Y-97573702D01*
X135408329Y-97536000D01*
X135368252Y-97506882D01*
X135193788Y-97429206D01*
X135193786Y-97429205D01*
X135006987Y-97389500D01*
X134816013Y-97389500D01*
X134629214Y-97429205D01*
X134454746Y-97506883D01*
X134300245Y-97619135D01*
X134172459Y-97761057D01*
X134076973Y-97926443D01*
X134076970Y-97926450D01*
X134018016Y-98107892D01*
X134017958Y-98108072D01*
X134009058Y-98192749D01*
X133998668Y-98291611D01*
X133997996Y-98298000D01*
X134017958Y-98487928D01*
X134017959Y-98487931D01*
X134076970Y-98669549D01*
X134076973Y-98669556D01*
X134148886Y-98794113D01*
X134165499Y-98856113D01*
X134165499Y-107077539D01*
X134145814Y-107144578D01*
X134138779Y-107153792D01*
X134138782Y-107153795D01*
X134134960Y-107159054D01*
X134039473Y-107324443D01*
X134039470Y-107324450D01*
X133986403Y-107487775D01*
X133980458Y-107506072D01*
X133960496Y-107696000D01*
X116054777Y-107696000D01*
X116054777Y-62788802D01*
X118606641Y-62788802D01*
X118626063Y-63147034D01*
X118684106Y-63501079D01*
X118684107Y-63501082D01*
X118780082Y-63846755D01*
X118780083Y-63846757D01*
X118912872Y-64180033D01*
X118912877Y-64180043D01*
X119067309Y-64471333D01*
X119080928Y-64497020D01*
X119080929Y-64497023D01*
X119282256Y-64793957D01*
X119282264Y-64793967D01*
X119422034Y-64958517D01*
X119514516Y-65067395D01*
X119774977Y-65314117D01*
X120060586Y-65531231D01*
X120367995Y-65716193D01*
X120367997Y-65716194D01*
X120367999Y-65716195D01*
X120368003Y-65716197D01*
X120693588Y-65866828D01*
X120693599Y-65866833D01*
X121033583Y-65981387D01*
X121383958Y-66058511D01*
X121740618Y-66097300D01*
X121740624Y-66097300D01*
X122099376Y-66097300D01*
X122099382Y-66097300D01*
X122456042Y-66058511D01*
X122806417Y-65981387D01*
X123146401Y-65866833D01*
X123472005Y-65716193D01*
X123779414Y-65531231D01*
X124065023Y-65314117D01*
X124325484Y-65067395D01*
X124557742Y-64793959D01*
X124706260Y-64574912D01*
X124759070Y-64497023D01*
X124759070Y-64497021D01*
X124759075Y-64497015D01*
X124927123Y-64180043D01*
X125059915Y-63846761D01*
X125066110Y-63824451D01*
X125125094Y-63612007D01*
X125155895Y-63501074D01*
X125159308Y-63480254D01*
X136833500Y-63480254D01*
X136840011Y-63540802D01*
X136840011Y-63540804D01*
X136866570Y-63612008D01*
X136891111Y-63677804D01*
X136978739Y-63794861D01*
X137095796Y-63882489D01*
X137232799Y-63933589D01*
X137260050Y-63936518D01*
X137293345Y-63940099D01*
X137293362Y-63940100D01*
X139790638Y-63940100D01*
X139790654Y-63940099D01*
X139817692Y-63937191D01*
X139851201Y-63933589D01*
X139988204Y-63882489D01*
X140105261Y-63794861D01*
X140192889Y-63677804D01*
X140243989Y-63540801D01*
X140248259Y-63501082D01*
X140250499Y-63480254D01*
X140250500Y-63480237D01*
X140250500Y-62998740D01*
X140270185Y-62931701D01*
X140322989Y-62885946D01*
X140392147Y-62876002D01*
X140455703Y-62905027D01*
X140489927Y-62953436D01*
X140498378Y-62974969D01*
X140498380Y-62974973D01*
X140543053Y-63052349D01*
X140626413Y-63196731D01*
X140755367Y-63358435D01*
X140786072Y-63396938D01*
X140941121Y-63540801D01*
X140973781Y-63571105D01*
X141185355Y-63715354D01*
X141185360Y-63715356D01*
X141185361Y-63715357D01*
X141185362Y-63715358D01*
X141307890Y-63774364D01*
X141416061Y-63826456D01*
X141416062Y-63826456D01*
X141416065Y-63826458D01*
X141660757Y-63901935D01*
X141660758Y-63901935D01*
X141660761Y-63901936D01*
X141913958Y-63940099D01*
X141913963Y-63940099D01*
X141913966Y-63940100D01*
X141913967Y-63940100D01*
X142170033Y-63940100D01*
X142170034Y-63940100D01*
X142193693Y-63936534D01*
X142423238Y-63901936D01*
X142423239Y-63901935D01*
X142423243Y-63901935D01*
X142667935Y-63826458D01*
X142898646Y-63715354D01*
X143110219Y-63571105D01*
X143297931Y-63396934D01*
X143457587Y-63196731D01*
X143585622Y-62974969D01*
X143676573Y-62743226D01*
X143719387Y-62688016D01*
X143785257Y-62664715D01*
X143853268Y-62680726D01*
X143901826Y-62730963D01*
X143907419Y-62743209D01*
X143998378Y-62974969D01*
X143998380Y-62974972D01*
X143998381Y-62974975D01*
X144055436Y-63073797D01*
X144126413Y-63196731D01*
X144255367Y-63358435D01*
X144286072Y-63396938D01*
X144441121Y-63540801D01*
X144473781Y-63571105D01*
X144685355Y-63715354D01*
X144685360Y-63715356D01*
X144685361Y-63715357D01*
X144685362Y-63715358D01*
X144807890Y-63774364D01*
X144916061Y-63826456D01*
X144916062Y-63826456D01*
X144916065Y-63826458D01*
X145160757Y-63901935D01*
X145160758Y-63901935D01*
X145160761Y-63901936D01*
X145413958Y-63940099D01*
X145413963Y-63940099D01*
X145413966Y-63940100D01*
X145413967Y-63940100D01*
X145670033Y-63940100D01*
X145670034Y-63940100D01*
X145693693Y-63936534D01*
X145923238Y-63901936D01*
X145923239Y-63901935D01*
X145923243Y-63901935D01*
X146167935Y-63826458D01*
X146398646Y-63715354D01*
X146610219Y-63571105D01*
X146797931Y-63396934D01*
X146957587Y-63196731D01*
X147085622Y-62974969D01*
X147179174Y-62736601D01*
X147236155Y-62486953D01*
X147240183Y-62433200D01*
X147255291Y-62231604D01*
X147255291Y-62231595D01*
X147236156Y-61976256D01*
X147236155Y-61976251D01*
X147236155Y-61976247D01*
X147179174Y-61726599D01*
X147085622Y-61488231D01*
X146957587Y-61266469D01*
X146797931Y-61066266D01*
X146797930Y-61066265D01*
X146797927Y-61066261D01*
X146642879Y-60922399D01*
X146610219Y-60892095D01*
X146535501Y-60841153D01*
X146398649Y-60747848D01*
X146398638Y-60747841D01*
X146167940Y-60636744D01*
X146167921Y-60636737D01*
X145923248Y-60561266D01*
X145923238Y-60561263D01*
X145670041Y-60523100D01*
X145670034Y-60523100D01*
X145413966Y-60523100D01*
X145413958Y-60523100D01*
X145160761Y-60561263D01*
X145160755Y-60561265D01*
X144916061Y-60636743D01*
X144685362Y-60747841D01*
X144685361Y-60747842D01*
X144473780Y-60892095D01*
X144286072Y-61066261D01*
X144126413Y-61266469D01*
X143998378Y-61488230D01*
X143907428Y-61719969D01*
X143864612Y-61775183D01*
X143798743Y-61798484D01*
X143730732Y-61782473D01*
X143682173Y-61732235D01*
X143676572Y-61719969D01*
X143667409Y-61696622D01*
X143585622Y-61488231D01*
X143457587Y-61266469D01*
X143297931Y-61066266D01*
X143297930Y-61066265D01*
X143297927Y-61066261D01*
X143142879Y-60922399D01*
X143110219Y-60892095D01*
X143035501Y-60841153D01*
X142898649Y-60747848D01*
X142898638Y-60747841D01*
X142667940Y-60636744D01*
X142667921Y-60636737D01*
X142423248Y-60561266D01*
X142423238Y-60561263D01*
X142170041Y-60523100D01*
X142170034Y-60523100D01*
X141913966Y-60523100D01*
X141913958Y-60523100D01*
X141660761Y-60561263D01*
X141660755Y-60561265D01*
X141416061Y-60636743D01*
X141185362Y-60747841D01*
X141185361Y-60747842D01*
X140973780Y-60892095D01*
X140786072Y-61066261D01*
X140626413Y-61266469D01*
X140498378Y-61488230D01*
X140489928Y-61509761D01*
X140447112Y-61564975D01*
X140381242Y-61588276D01*
X140313232Y-61572265D01*
X140264673Y-61522027D01*
X140250500Y-61464459D01*
X140250500Y-60982962D01*
X140250499Y-60982945D01*
X140247157Y-60951870D01*
X140243989Y-60922399D01*
X140192889Y-60785396D01*
X140105261Y-60668339D01*
X139988204Y-60580711D01*
X139851203Y-60529611D01*
X139790654Y-60523100D01*
X139790638Y-60523100D01*
X137293362Y-60523100D01*
X137293345Y-60523100D01*
X137232797Y-60529611D01*
X137232795Y-60529611D01*
X137095795Y-60580711D01*
X136978739Y-60668339D01*
X136891111Y-60785395D01*
X136840011Y-60922395D01*
X136840011Y-60922397D01*
X136833500Y-60982945D01*
X136833500Y-63480254D01*
X125159308Y-63480254D01*
X125213936Y-63147037D01*
X125233359Y-62788800D01*
X125213936Y-62430563D01*
X125155895Y-62076526D01*
X125112673Y-61920857D01*
X125059917Y-61730844D01*
X125059916Y-61730842D01*
X125058225Y-61726599D01*
X124984919Y-61542613D01*
X124927127Y-61397566D01*
X124927118Y-61397548D01*
X124915292Y-61375242D01*
X124759075Y-61080585D01*
X124759071Y-61080579D01*
X124759070Y-61080576D01*
X124557743Y-60783642D01*
X124557735Y-60783632D01*
X124325491Y-60510213D01*
X124325486Y-60510207D01*
X124256653Y-60445005D01*
X124065023Y-60263483D01*
X124065016Y-60263477D01*
X124065013Y-60263475D01*
X123953882Y-60178996D01*
X123779414Y-60046369D01*
X123472005Y-59861407D01*
X123472004Y-59861406D01*
X123472000Y-59861404D01*
X123471996Y-59861402D01*
X123146411Y-59710771D01*
X123146406Y-59710769D01*
X123146401Y-59710767D01*
X122980678Y-59654928D01*
X122806416Y-59596212D01*
X122456040Y-59519088D01*
X122099383Y-59480300D01*
X122099382Y-59480300D01*
X121740618Y-59480300D01*
X121740616Y-59480300D01*
X121383959Y-59519088D01*
X121033583Y-59596212D01*
X120792614Y-59677405D01*
X120693599Y-59710767D01*
X120693596Y-59710768D01*
X120693588Y-59710771D01*
X120368003Y-59861402D01*
X120367999Y-59861404D01*
X120180347Y-59974311D01*
X120060586Y-60046369D01*
X119988337Y-60101291D01*
X119774986Y-60263475D01*
X119774977Y-60263483D01*
X119514513Y-60510207D01*
X119514508Y-60510213D01*
X119282264Y-60783632D01*
X119282256Y-60783642D01*
X119080929Y-61080576D01*
X119080928Y-61080579D01*
X118912881Y-61397548D01*
X118912872Y-61397566D01*
X118780083Y-61730842D01*
X118780082Y-61730844D01*
X118684107Y-62076517D01*
X118684106Y-62076520D01*
X118626063Y-62430565D01*
X118606641Y-62788797D01*
X118606641Y-62788802D01*
X116054777Y-62788802D01*
X116054777Y-60605928D01*
X116054852Y-60602887D01*
X116062138Y-60454561D01*
X116074122Y-60226133D01*
X116074705Y-60220323D01*
X116100965Y-60043290D01*
X116132527Y-59844014D01*
X116133610Y-59838703D01*
X116178652Y-59658886D01*
X116179375Y-59656193D01*
X116229304Y-59469851D01*
X116230815Y-59465013D01*
X116294184Y-59287904D01*
X116363490Y-59107357D01*
X116365293Y-59103142D01*
X116446377Y-58931705D01*
X116447095Y-58930297D01*
X116533664Y-58760394D01*
X116535701Y-58756716D01*
X116633704Y-58593207D01*
X116738114Y-58432431D01*
X116740274Y-58429321D01*
X116854189Y-58275723D01*
X116974764Y-58126825D01*
X116976910Y-58124321D01*
X117104660Y-57983370D01*
X117106653Y-57981276D01*
X117241131Y-57846797D01*
X117243284Y-57844747D01*
X117384180Y-57717046D01*
X117386750Y-57714844D01*
X117535596Y-57594309D01*
X117689209Y-57480381D01*
X117692303Y-57478232D01*
X117853124Y-57373793D01*
X118016595Y-57275812D01*
X118020277Y-57273774D01*
X118191587Y-57186486D01*
X118362998Y-57105414D01*
X118367266Y-57103588D01*
X118547796Y-57034288D01*
X118724922Y-56970910D01*
X118729696Y-56969420D01*
X118918784Y-56918752D01*
X119098569Y-56873718D01*
X119103883Y-56872633D01*
X119303170Y-56841068D01*
X119480191Y-56814808D01*
X119486005Y-56814226D01*
X119718758Y-56802026D01*
X119811610Y-56797463D01*
X119862279Y-56794975D01*
X119865322Y-56794900D01*
X179854193Y-56794900D01*
X179857236Y-56794975D01*
G37*
%TD.AperFunction*%
%TD*%
M02*
