M48
; DRILL file {KiCad 7.0.6} date Sun Jul 16 21:51:46 2023
; FORMAT={-:-/ absolute / metric / decimal}
; #@! TF.CreationDate,2023-07-16T21:51:46-04:00
; #@! TF.GenerationSoftware,Kicad,Pcbnew,7.0.6
; #@! TF.FileFunction,Plated,1,2,PTH
FMAT,2
METRIC
; #@! TA.AperFunction,Plated,PTH,ViaDrill
T1C0.400
; #@! TA.AperFunction,Plated,PTH,ComponentDrill
T2C0.800
; #@! TA.AperFunction,Plated,PTH,ComponentDrill
T3C0.950
; #@! TA.AperFunction,Plated,PTH,ComponentDrill
T4C1.000
; #@! TA.AperFunction,Plated,PTH,ComponentDrill
T5C1.100
; #@! TA.AperFunction,Plated,PTH,ComponentDrill
T6C2.300
; #@! TA.AperFunction,Plated,PTH,ComponentDrill
T7C3.200
%
G90
G05
T1
X95.758Y-169.926
X99.314Y-122.936
X100.33Y-170.942
X100.584Y-169.089
X101.383Y-168.148
X103.087Y-106.426
X103.087Y-111.506
X104.648Y-169.888
X105.918Y-157.988
X106.369Y-159.963
X106.934Y-162.306
X106.934Y-163.576
X107.442Y-128.27
X109.982Y-126.492
X115.57Y-170.942
X117.639Y-135.382
X118.581Y-140.462
X118.618Y-132.334
X119.38Y-76.454
X119.38Y-77.978
X119.38Y-143.002
X119.596Y-134.62
X120.396Y-137.922
T2
X100.34Y-49.54
X100.34Y-52.08
X100.34Y-54.62
X100.34Y-57.16
X100.34Y-59.7
X100.34Y-62.24
X100.34Y-64.78
X100.34Y-67.32
X100.34Y-69.86
X100.34Y-72.4
X100.34Y-74.94
X100.34Y-77.48
X100.34Y-80.02
X100.34Y-82.56
X100.34Y-87.64
X100.34Y-90.18
X100.34Y-92.72
X100.34Y-95.26
X100.34Y-97.8
X100.34Y-100.34
X100.34Y-102.88
X100.34Y-105.42
X100.34Y-107.96
X100.34Y-110.5
X100.34Y-113.04
X100.34Y-115.58
X100.34Y-118.12
X100.34Y-120.66
X107.96Y-49.54
X107.96Y-52.08
X107.96Y-54.62
X107.96Y-57.16
X107.96Y-59.7
X107.96Y-62.24
X107.96Y-64.78
X107.96Y-67.32
X107.96Y-69.86
X107.96Y-72.4
X107.96Y-74.94
X107.96Y-77.48
X107.96Y-80.02
X107.96Y-82.56
X107.96Y-87.64
X107.96Y-90.18
X107.96Y-92.72
X107.96Y-95.26
X107.96Y-97.8
X107.96Y-100.34
X107.96Y-102.88
X107.96Y-105.42
X107.96Y-107.96
X107.96Y-110.5
X107.96Y-113.04
X107.96Y-115.58
X107.96Y-118.12
X107.96Y-120.66
T3
X95.778Y-41.871
X95.778Y-43.871
X98.278Y-41.871
X98.278Y-43.871
T4
X91.186Y-125.222
X91.186Y-127.762
X91.186Y-130.302
X91.186Y-132.842
X91.186Y-135.382
X91.186Y-137.922
X91.186Y-140.462
X91.186Y-143.002
X91.186Y-145.542
X91.186Y-148.082
X91.186Y-150.622
X91.186Y-153.162
X91.186Y-155.702
X91.186Y-158.242
X91.186Y-160.782
X93.716Y-125.222
X93.716Y-127.762
X93.716Y-130.302
X93.716Y-132.842
X93.716Y-135.382
X93.716Y-137.922
X93.716Y-140.462
X93.716Y-143.002
X93.716Y-145.542
X93.716Y-148.082
X93.716Y-150.622
X93.716Y-153.162
X93.716Y-155.702
X93.716Y-158.242
X93.716Y-160.782
X96.266Y-125.222
X96.266Y-127.762
X96.266Y-130.302
X96.266Y-132.842
X96.266Y-135.382
X96.266Y-137.922
X96.266Y-140.462
X96.266Y-143.002
X96.266Y-145.542
X96.266Y-148.082
X96.266Y-150.622
X96.266Y-153.162
X96.266Y-155.702
X96.266Y-158.242
X96.266Y-160.782
X111.677Y-125.222
X111.677Y-127.762
X111.677Y-130.302
X111.677Y-132.842
X111.677Y-135.382
X111.677Y-137.922
X111.677Y-140.462
X111.677Y-143.002
X111.677Y-145.542
X111.677Y-148.082
X111.677Y-150.622
X111.677Y-153.162
X111.677Y-155.702
X111.677Y-158.242
X111.677Y-160.782
X114.316Y-125.222
X114.316Y-127.762
X114.316Y-130.302
X114.316Y-132.842
X114.316Y-135.382
X114.316Y-137.922
X114.316Y-140.462
X114.316Y-143.002
X114.316Y-145.542
X114.316Y-148.082
X114.316Y-150.622
X114.316Y-153.162
X114.316Y-155.702
X114.316Y-158.242
X114.316Y-160.782
T5
X75.438Y-35.814
X75.438Y-44.704
X75.438Y-53.594
X75.438Y-62.484
X75.438Y-71.374
X75.438Y-80.264
X75.438Y-89.154
X75.438Y-98.044
X75.438Y-106.934
X75.438Y-115.824
X75.438Y-124.714
X75.438Y-133.604
X75.438Y-142.494
X75.438Y-151.384
X75.438Y-160.274
X75.438Y-169.164
X77.978Y-35.814
X77.978Y-44.704
X77.978Y-53.594
X77.978Y-62.484
X77.978Y-71.374
X77.978Y-80.264
X77.978Y-89.154
X77.978Y-98.044
X77.978Y-106.934
X77.978Y-115.824
X77.978Y-124.714
X77.978Y-133.604
X77.978Y-142.494
X77.978Y-151.384
X77.978Y-160.274
X77.978Y-169.164
X80.518Y-35.814
X80.518Y-44.704
X80.518Y-53.594
X80.518Y-62.484
X80.518Y-71.374
X80.518Y-80.264
X80.518Y-89.154
X80.518Y-98.044
X80.518Y-106.934
X80.518Y-115.824
X80.518Y-124.714
X80.518Y-133.604
X80.518Y-142.494
X80.518Y-151.384
X80.518Y-160.274
X80.518Y-169.164
X86.36Y-173.482
X88.9Y-173.482
X91.44Y-173.482
X93.98Y-173.482
X96.52Y-173.482
X99.06Y-173.482
X107.95Y-173.482
X110.49Y-173.482
X113.03Y-173.482
X115.57Y-173.482
X118.11Y-173.482
X120.65Y-173.482
X127.0Y-35.814
X127.0Y-44.704
X127.0Y-53.594
X127.0Y-62.484
X127.0Y-71.374
X127.0Y-80.264
X127.0Y-89.154
X127.0Y-98.044
X127.0Y-106.934
X127.0Y-115.824
X127.0Y-124.714
X127.0Y-133.604
X127.0Y-142.494
X127.0Y-151.384
X127.0Y-160.274
X127.0Y-169.164
X129.54Y-35.814
X129.54Y-44.704
X129.54Y-53.594
X129.54Y-62.484
X129.54Y-71.374
X129.54Y-80.264
X129.54Y-89.154
X129.54Y-98.044
X129.54Y-106.934
X129.54Y-115.824
X129.54Y-124.714
X129.54Y-133.604
X129.54Y-142.494
X129.54Y-151.384
X129.54Y-160.274
X129.54Y-169.164
X132.08Y-35.814
X132.08Y-44.704
X132.08Y-53.594
X132.08Y-62.484
X132.08Y-71.374
X132.08Y-80.264
X132.08Y-89.154
X132.08Y-98.044
X132.08Y-106.934
X132.08Y-115.824
X132.08Y-124.714
X132.08Y-133.604
X132.08Y-142.494
X132.08Y-151.384
X132.08Y-160.274
X132.08Y-169.164
T6
X91.028Y-39.011
X103.028Y-39.011
T7
X86.614Y-164.338
X89.662Y-52.832
X116.332Y-52.832
X120.904Y-164.084
T4
G00X108.118Y-40.618
M15
G01X108.118Y-38.418
M16
G05
G00X114.018Y-36.118
M15
G01X111.818Y-36.118
M16
G05
G00X114.218Y-42.418
M15
G01X111.618Y-42.418
M16
G05
T0
M30
