%TF.GenerationSoftware,KiCad,Pcbnew,7.0.6*%
%TF.CreationDate,2023-07-16T21:51:52-04:00*%
%TF.ProjectId,mcp23s17_breakout,6d637032-3373-4313-975f-627265616b6f,rev?*%
%TF.SameCoordinates,Original*%
%TF.FileFunction,Soldermask,Bot*%
%TF.FilePolarity,Negative*%
%FSLAX46Y46*%
G04 Gerber Fmt 4.6, Leading zero omitted, Abs format (unit mm)*
G04 Created by KiCad (PCBNEW 7.0.6) date 2023-07-16 21:51:52*
%MOMM*%
%LPD*%
G01*
G04 APERTURE LIST*
%ADD10C,5.600000*%
%ADD11R,2.100000X2.100000*%
%ADD12C,2.100000*%
%ADD13R,1.700000X1.700000*%
%ADD14O,1.700000X1.700000*%
%ADD15R,1.600000X1.600000*%
%ADD16O,1.600000X1.600000*%
%ADD17R,4.600000X2.000000*%
%ADD18O,4.200000X2.000000*%
%ADD19O,2.000000X4.200000*%
%ADD20C,1.600000*%
%ADD21C,4.000000*%
G04 APERTURE END LIST*
D10*
%TO.C,H2*%
X116332000Y-52832000D03*
%TD*%
D11*
%TO.C,IO13*%
X132080000Y-62484000D03*
D12*
X129540000Y-62484000D03*
X127000000Y-62484000D03*
%TD*%
D11*
%TO.C,IO11*%
X132080000Y-80264000D03*
D12*
X129540000Y-80264000D03*
X127000000Y-80264000D03*
%TD*%
D11*
%TO.C,IO23*%
X80518000Y-160274000D03*
D12*
X77978000Y-160274000D03*
X75438000Y-160274000D03*
%TD*%
D11*
%TO.C,IO3*%
X80518000Y-53594000D03*
D12*
X77978000Y-53594000D03*
X75438000Y-53594000D03*
%TD*%
D10*
%TO.C,H3*%
X86614000Y-164338000D03*
%TD*%
D13*
%TO.C,J7*%
X91186000Y-160782000D03*
D14*
X91186000Y-158242000D03*
X91186000Y-155702000D03*
X91186000Y-153162000D03*
X91186000Y-150622000D03*
X91186000Y-148082000D03*
X91186000Y-145542000D03*
X91186000Y-143002000D03*
X91186000Y-140462000D03*
X91186000Y-137922000D03*
X91186000Y-135382000D03*
X91186000Y-132842000D03*
X91186000Y-130302000D03*
X91186000Y-127762000D03*
X91186000Y-125222000D03*
%TD*%
D11*
%TO.C,IO4*%
X80518000Y-62484000D03*
D12*
X77978000Y-62484000D03*
X75438000Y-62484000D03*
%TD*%
D11*
%TO.C,IO19*%
X80518000Y-124714000D03*
D12*
X77978000Y-124714000D03*
X75438000Y-124714000D03*
%TD*%
D11*
%TO.C,IO9*%
X132080000Y-98044000D03*
D12*
X129540000Y-98044000D03*
X127000000Y-98044000D03*
%TD*%
D11*
%TO.C,IO2*%
X80518000Y-44704000D03*
D12*
X77978000Y-44704000D03*
X75438000Y-44704000D03*
%TD*%
D11*
%TO.C,IO32*%
X132080000Y-106934000D03*
D12*
X129540000Y-106934000D03*
X127000000Y-106934000D03*
%TD*%
D11*
%TO.C,IO16*%
X132080000Y-35814000D03*
D12*
X129540000Y-35814000D03*
X127000000Y-35814000D03*
%TD*%
D11*
%TO.C,IO27*%
X132080000Y-151384000D03*
D12*
X129540000Y-151384000D03*
X127000000Y-151384000D03*
%TD*%
D11*
%TO.C,IO17*%
X80518000Y-106934000D03*
D12*
X77978000Y-106934000D03*
X75438000Y-106934000D03*
%TD*%
D11*
%TO.C,IO29*%
X132080000Y-133604000D03*
D12*
X129540000Y-133604000D03*
X127000000Y-133604000D03*
%TD*%
D11*
%TO.C,IO1*%
X80518000Y-35814000D03*
D12*
X77978000Y-35814000D03*
X75438000Y-35814000D03*
%TD*%
D11*
%TO.C,IO18*%
X80518000Y-115824000D03*
D12*
X77978000Y-115824000D03*
X75438000Y-115824000D03*
%TD*%
D11*
%TO.C,IO5*%
X80518000Y-71374000D03*
D12*
X77978000Y-71374000D03*
X75438000Y-71374000D03*
%TD*%
D11*
%TO.C,IO8*%
X80518000Y-98044000D03*
D12*
X77978000Y-98044000D03*
X75438000Y-98044000D03*
%TD*%
D13*
%TO.C,U1*%
X111677300Y-160782000D03*
D14*
X111677300Y-158242000D03*
X111677300Y-155702000D03*
X111677300Y-153162000D03*
X111677300Y-150622000D03*
X111677300Y-148082000D03*
X111677300Y-145542000D03*
X111677300Y-143002000D03*
X111677300Y-140462000D03*
X111677300Y-137922000D03*
X111677300Y-135382000D03*
X111677300Y-132842000D03*
X111677300Y-130302000D03*
X111677300Y-127762000D03*
X111677300Y-125222000D03*
X93716000Y-125222000D03*
X93716000Y-127762000D03*
X93716000Y-130302000D03*
X93716000Y-132842000D03*
X93716000Y-135382000D03*
X93716000Y-137922000D03*
X93716000Y-140462000D03*
X93716000Y-143002000D03*
X93716000Y-145542000D03*
X93716000Y-148082000D03*
X93716000Y-150622000D03*
X93716000Y-153162000D03*
X93716000Y-155702000D03*
X93716000Y-158242000D03*
D13*
X93716000Y-160782000D03*
%TD*%
D11*
%TO.C,J1*%
X99060000Y-173482000D03*
D12*
X96520000Y-173482000D03*
X93980000Y-173482000D03*
X91440000Y-173482000D03*
X88900000Y-173482000D03*
X86360000Y-173482000D03*
%TD*%
D13*
%TO.C,J6*%
X96266000Y-160782000D03*
D14*
X96266000Y-158242000D03*
X96266000Y-155702000D03*
X96266000Y-153162000D03*
X96266000Y-150622000D03*
X96266000Y-148082000D03*
X96266000Y-145542000D03*
X96266000Y-143002000D03*
X96266000Y-140462000D03*
X96266000Y-137922000D03*
X96266000Y-135382000D03*
X96266000Y-132842000D03*
X96266000Y-130302000D03*
X96266000Y-127762000D03*
X96266000Y-125222000D03*
%TD*%
D11*
%TO.C,IO7*%
X80518000Y-89154000D03*
D12*
X77978000Y-89154000D03*
X75438000Y-89154000D03*
%TD*%
D11*
%TO.C,IO25*%
X132080000Y-169164000D03*
D12*
X129540000Y-169164000D03*
X127000000Y-169164000D03*
%TD*%
D11*
%TO.C,J2*%
X120650000Y-173482000D03*
D12*
X118110000Y-173482000D03*
X115570000Y-173482000D03*
X113030000Y-173482000D03*
X110490000Y-173482000D03*
X107950000Y-173482000D03*
%TD*%
D11*
%TO.C,IO21*%
X80518000Y-142494000D03*
D12*
X77978000Y-142494000D03*
X75438000Y-142494000D03*
%TD*%
D15*
%TO.C,U3*%
X100340000Y-87640000D03*
D16*
X100340000Y-90180000D03*
X100340000Y-92720000D03*
X100340000Y-95260000D03*
X100340000Y-97800000D03*
X100340000Y-100340000D03*
X100340000Y-102880000D03*
X100340000Y-105420000D03*
X100340000Y-107960000D03*
X100340000Y-110500000D03*
X100340000Y-113040000D03*
X100340000Y-115580000D03*
X100340000Y-118120000D03*
X100340000Y-120660000D03*
X107960000Y-120660000D03*
X107960000Y-118120000D03*
X107960000Y-115580000D03*
X107960000Y-113040000D03*
X107960000Y-110500000D03*
X107960000Y-107960000D03*
X107960000Y-105420000D03*
X107960000Y-102880000D03*
X107960000Y-100340000D03*
X107960000Y-97800000D03*
X107960000Y-95260000D03*
X107960000Y-92720000D03*
X107960000Y-90180000D03*
X107960000Y-87640000D03*
%TD*%
D15*
%TO.C,U2*%
X100340000Y-49540000D03*
D16*
X100340000Y-52080000D03*
X100340000Y-54620000D03*
X100340000Y-57160000D03*
X100340000Y-59700000D03*
X100340000Y-62240000D03*
X100340000Y-64780000D03*
X100340000Y-67320000D03*
X100340000Y-69860000D03*
X100340000Y-72400000D03*
X100340000Y-74940000D03*
X100340000Y-77480000D03*
X100340000Y-80020000D03*
X100340000Y-82560000D03*
X107960000Y-82560000D03*
X107960000Y-80020000D03*
X107960000Y-77480000D03*
X107960000Y-74940000D03*
X107960000Y-72400000D03*
X107960000Y-69860000D03*
X107960000Y-67320000D03*
X107960000Y-64780000D03*
X107960000Y-62240000D03*
X107960000Y-59700000D03*
X107960000Y-57160000D03*
X107960000Y-54620000D03*
X107960000Y-52080000D03*
X107960000Y-49540000D03*
%TD*%
D11*
%TO.C,IO31*%
X132080000Y-115824000D03*
D12*
X129540000Y-115824000D03*
X127000000Y-115824000D03*
%TD*%
D11*
%TO.C,IO24*%
X80518000Y-169164000D03*
D12*
X77978000Y-169164000D03*
X75438000Y-169164000D03*
%TD*%
D11*
%TO.C,IO14*%
X132080000Y-53594000D03*
D12*
X129540000Y-53594000D03*
X127000000Y-53594000D03*
%TD*%
D11*
%TO.C,IO15*%
X132080000Y-44704000D03*
D12*
X129540000Y-44704000D03*
X127000000Y-44704000D03*
%TD*%
D17*
%TO.C,J5*%
X112918000Y-42418000D03*
D18*
X112918000Y-36118000D03*
D19*
X108118000Y-39518000D03*
%TD*%
D11*
%TO.C,IO12*%
X132080000Y-71374000D03*
D12*
X129540000Y-71374000D03*
X127000000Y-71374000D03*
%TD*%
D11*
%TO.C,IO28*%
X132080000Y-142494000D03*
D12*
X129540000Y-142494000D03*
X127000000Y-142494000D03*
%TD*%
D13*
%TO.C,J4*%
X114316000Y-160782000D03*
D14*
X114316000Y-158242000D03*
X114316000Y-155702000D03*
X114316000Y-153162000D03*
X114316000Y-150622000D03*
X114316000Y-148082000D03*
X114316000Y-145542000D03*
X114316000Y-143002000D03*
X114316000Y-140462000D03*
X114316000Y-137922000D03*
X114316000Y-135382000D03*
X114316000Y-132842000D03*
X114316000Y-130302000D03*
X114316000Y-127762000D03*
X114316000Y-125222000D03*
%TD*%
D11*
%TO.C,IO20*%
X80518000Y-133604000D03*
D12*
X77978000Y-133604000D03*
X75438000Y-133604000D03*
%TD*%
D11*
%TO.C,IO30*%
X132080000Y-124714000D03*
D12*
X129540000Y-124714000D03*
X127000000Y-124714000D03*
%TD*%
D10*
%TO.C,H4*%
X120904000Y-164084000D03*
%TD*%
D11*
%TO.C,IO10*%
X132080000Y-89154000D03*
D12*
X129540000Y-89154000D03*
X127000000Y-89154000D03*
%TD*%
D10*
%TO.C,H1*%
X89662000Y-52832000D03*
%TD*%
D15*
%TO.C,J3*%
X95778000Y-43871500D03*
D20*
X98278000Y-43871500D03*
X98278000Y-41871500D03*
X95778000Y-41871500D03*
D21*
X91028000Y-39011500D03*
X103028000Y-39011500D03*
%TD*%
D11*
%TO.C,IO26*%
X132080000Y-160274000D03*
D12*
X129540000Y-160274000D03*
X127000000Y-160274000D03*
%TD*%
D11*
%TO.C,IO6*%
X80518000Y-80264000D03*
D12*
X77978000Y-80264000D03*
X75438000Y-80264000D03*
%TD*%
D11*
%TO.C,IO22*%
X80518000Y-151384000D03*
D12*
X77978000Y-151384000D03*
X75438000Y-151384000D03*
%TD*%
M02*
