M48
; DRILL file {KiCad 7.0.6} date Thu Aug  3 15:11:39 2023
; FORMAT={-:-/ absolute / metric / decimal}
; #@! TF.CreationDate,2023-08-03T15:11:39-04:00
; #@! TF.GenerationSoftware,Kicad,Pcbnew,7.0.6
; #@! TF.FileFunction,Plated,1,2,PTH
FMAT,2
METRIC
; #@! TA.AperFunction,Plated,PTH,ComponentDrill
T1C0.700
; #@! TA.AperFunction,Plated,PTH,ComponentDrill
T2C0.800
; #@! TA.AperFunction,Plated,PTH,ComponentDrill
T3C0.900
; #@! TA.AperFunction,Plated,PTH,ComponentDrill
T4C1.000
; #@! TA.AperFunction,Plated,PTH,ComponentDrill
T5C1.100
; #@! TA.AperFunction,Plated,PTH,ComponentDrill
T6C1.200
; #@! TA.AperFunction,Plated,PTH,ComponentDrill
T7C1.520
; #@! TA.AperFunction,Plated,PTH,ComponentDrill
T8C3.200
%
G90
G05
T1
X176.276Y-38.1
X176.295Y-44.901
X176.295Y-51.824
X176.295Y-58.748
X176.295Y-65.671
X176.295Y-72.595
X176.295Y-79.518
X176.295Y-86.442
X176.295Y-93.365
X176.295Y-100.289
X176.295Y-107.213
X176.295Y-114.136
X176.295Y-121.06
X176.295Y-127.983
X176.295Y-134.907
X176.295Y-141.83
X183.896Y-38.1
X183.915Y-44.901
X183.915Y-51.824
X183.915Y-58.748
X183.915Y-65.671
X183.915Y-72.595
X183.915Y-79.518
X183.915Y-86.442
X183.915Y-93.365
X183.915Y-100.289
X183.915Y-107.213
X183.915Y-114.136
X183.915Y-121.06
X183.915Y-127.983
X183.915Y-134.907
X183.915Y-141.83
T2
X144.78Y-53.848
X144.78Y-56.388
X144.78Y-58.928
X144.78Y-61.468
X144.78Y-64.008
X144.78Y-66.548
X144.78Y-69.088
X144.78Y-71.628
X144.78Y-74.168
X144.78Y-76.708
X144.78Y-79.248
X144.78Y-81.788
X144.78Y-84.328
X144.78Y-86.868
X152.4Y-53.848
X152.4Y-56.388
X152.4Y-58.928
X152.4Y-61.468
X152.4Y-64.008
X152.4Y-66.548
X152.4Y-69.088
X152.4Y-71.628
X152.4Y-74.168
X152.4Y-76.708
X152.4Y-79.248
X152.4Y-81.788
X152.4Y-84.328
X152.4Y-86.868
T3
X134.112Y-91.948
X134.112Y-131.445
X151.257Y-91.948
X151.257Y-131.445
T4
X191.135Y-74.295
X191.135Y-76.835
X191.135Y-79.375
X191.135Y-81.915
X191.135Y-84.455
X191.135Y-86.995
X191.135Y-89.535
X191.135Y-92.075
X191.135Y-94.615
X191.135Y-97.155
X191.135Y-99.695
X191.135Y-102.235
X191.135Y-104.775
X191.135Y-107.315
X191.135Y-109.855
X191.135Y-112.395
X193.675Y-74.295
X193.675Y-76.835
X193.675Y-79.375
X193.675Y-81.915
X193.675Y-84.455
X193.675Y-86.995
X193.675Y-89.535
X193.675Y-92.075
X193.675Y-94.615
X193.675Y-97.155
X193.675Y-99.695
X193.675Y-102.235
X193.675Y-104.775
X193.675Y-107.315
X193.675Y-109.855
X193.675Y-112.395
T5
X162.56Y-41.275
X162.56Y-48.218
X162.56Y-55.16
X162.56Y-62.103
X162.56Y-69.046
X162.56Y-75.988
X162.56Y-82.931
X162.56Y-89.874
X162.56Y-96.816
X162.56Y-103.759
X162.56Y-110.702
X162.56Y-117.644
X162.56Y-124.587
X162.56Y-131.53
X162.56Y-138.472
X162.56Y-145.415
X165.1Y-41.275
X165.1Y-48.218
X165.1Y-55.16
X165.1Y-62.103
X165.1Y-69.046
X165.1Y-75.988
X165.1Y-82.931
X165.1Y-89.874
X165.1Y-96.816
X165.1Y-103.759
X165.1Y-110.702
X165.1Y-117.644
X165.1Y-124.587
X165.1Y-131.53
X165.1Y-138.472
X165.1Y-145.415
X167.64Y-41.275
X167.64Y-48.218
X167.64Y-55.16
X167.64Y-62.103
X167.64Y-69.046
X167.64Y-75.988
X167.64Y-82.931
X167.64Y-89.874
X167.64Y-96.816
X167.64Y-103.759
X167.64Y-110.702
X167.64Y-117.644
X167.64Y-124.587
X167.64Y-131.53
X167.64Y-138.472
X167.64Y-145.415
X173.355Y-41.439
X173.355Y-48.362
X173.355Y-55.286
X173.355Y-62.21
X173.355Y-69.133
X173.355Y-76.057
X173.355Y-82.98
X173.355Y-89.904
X173.355Y-96.827
X173.355Y-103.751
X173.355Y-110.674
X173.355Y-117.598
X173.355Y-124.521
X173.355Y-131.445
X173.355Y-138.369
X173.355Y-145.292
X183.515Y-41.439
X183.515Y-48.362
X183.515Y-55.286
X183.515Y-62.21
X183.515Y-69.133
X183.515Y-76.057
X183.515Y-82.98
X183.515Y-89.904
X183.515Y-96.827
X183.515Y-103.751
X183.515Y-110.674
X183.515Y-117.598
X183.515Y-124.521
X183.515Y-131.445
X183.515Y-138.369
X183.515Y-145.292
T6
X133.604Y-47.244
X133.604Y-50.744
X133.604Y-54.244
X133.604Y-65.024
X133.604Y-68.524
X133.604Y-72.024
X133.604Y-75.524
X133.604Y-79.024
X133.604Y-82.524
X133.604Y-86.024
T7
X147.32Y-38.608
X147.828Y-144.272
X152.4Y-38.608
X152.908Y-144.272
T8
X134.0Y-40.538
X134.0Y-142.392
X192.5Y-40.183
X192.5Y-143.764
T0
M30
