%TF.GenerationSoftware,KiCad,Pcbnew,7.0.6*%
%TF.CreationDate,2023-08-03T15:11:43-04:00*%
%TF.ProjectId,mcp23s17_mosfet_combo,6d637032-3373-4313-975f-6d6f73666574,rev?*%
%TF.SameCoordinates,Original*%
%TF.FileFunction,Copper,L2,Bot*%
%TF.FilePolarity,Positive*%
%FSLAX46Y46*%
G04 Gerber Fmt 4.6, Leading zero omitted, Abs format (unit mm)*
G04 Created by KiCad (PCBNEW 7.0.6) date 2023-08-03 15:11:43*
%MOMM*%
%LPD*%
G01*
G04 APERTURE LIST*
%TA.AperFunction,ComponentPad*%
%ADD10C,1.400000*%
%TD*%
%TA.AperFunction,ComponentPad*%
%ADD11O,1.400000X1.400000*%
%TD*%
%TA.AperFunction,ComponentPad*%
%ADD12R,3.000000X3.000000*%
%TD*%
%TA.AperFunction,ComponentPad*%
%ADD13C,3.000000*%
%TD*%
%TA.AperFunction,ComponentPad*%
%ADD14R,1.700000X1.700000*%
%TD*%
%TA.AperFunction,ComponentPad*%
%ADD15O,1.700000X1.700000*%
%TD*%
%TA.AperFunction,ComponentPad*%
%ADD16R,1.905000X2.000000*%
%TD*%
%TA.AperFunction,ComponentPad*%
%ADD17O,1.905000X2.000000*%
%TD*%
%TA.AperFunction,ComponentPad*%
%ADD18R,2.200000X2.200000*%
%TD*%
%TA.AperFunction,ComponentPad*%
%ADD19O,2.200000X2.200000*%
%TD*%
%TA.AperFunction,ComponentPad*%
%ADD20C,2.400000*%
%TD*%
%TA.AperFunction,ComponentPad*%
%ADD21R,2.400000X2.400000*%
%TD*%
%TA.AperFunction,ComponentPad*%
%ADD22C,5.600000*%
%TD*%
%TA.AperFunction,ComponentPad*%
%ADD23C,2.000000*%
%TD*%
%TA.AperFunction,ComponentPad*%
%ADD24R,1.600000X1.600000*%
%TD*%
%TA.AperFunction,ComponentPad*%
%ADD25O,1.600000X1.600000*%
%TD*%
%TA.AperFunction,Conductor*%
%ADD26C,1.200000*%
%TD*%
%TA.AperFunction,Conductor*%
%ADD27C,0.400000*%
%TD*%
%TA.AperFunction,Conductor*%
%ADD28C,0.800000*%
%TD*%
G04 APERTURE END LIST*
D10*
%TO.P,R16,1*%
%TO.N,/MOSFETS/IN_B7*%
X176276000Y-38100000D03*
D11*
%TO.P,R16,2*%
%TO.N,Net-(Q16-G)*%
X183896000Y-38100000D03*
%TD*%
D12*
%TO.P,J1,1,Pin_1*%
%TO.N,VCC*%
X147320000Y-38608000D03*
D13*
%TO.P,J1,2,Pin_2*%
%TO.N,GND*%
X152400000Y-38608000D03*
%TD*%
D14*
%TO.P,J5,1,Pin_1*%
%TO.N,A0*%
X191135000Y-112395000D03*
D15*
%TO.P,J5,2,Pin_2*%
%TO.N,A1*%
X191135000Y-109855000D03*
%TO.P,J5,3,Pin_3*%
%TO.N,A2*%
X191135000Y-107315000D03*
%TO.P,J5,4,Pin_4*%
%TO.N,A3*%
X191135000Y-104775000D03*
%TO.P,J5,5,Pin_5*%
%TO.N,A4*%
X191135000Y-102235000D03*
%TO.P,J5,6,Pin_6*%
%TO.N,A5*%
X191135000Y-99695000D03*
%TO.P,J5,7,Pin_7*%
%TO.N,A6*%
X191135000Y-97155000D03*
%TO.P,J5,8,Pin_8*%
%TO.N,A7*%
X191135000Y-94615000D03*
%TO.P,J5,9,Pin_9*%
%TO.N,B0*%
X191135000Y-92075000D03*
%TO.P,J5,10,Pin_10*%
%TO.N,B1*%
X191135000Y-89535000D03*
%TO.P,J5,11,Pin_11*%
%TO.N,B2*%
X191135000Y-86995000D03*
%TO.P,J5,12,Pin_12*%
%TO.N,B3*%
X191135000Y-84455000D03*
%TO.P,J5,13,Pin_13*%
%TO.N,B4*%
X191135000Y-81915000D03*
%TO.P,J5,14,Pin_14*%
%TO.N,B5*%
X191135000Y-79375000D03*
%TO.P,J5,15,Pin_15*%
%TO.N,B6*%
X191135000Y-76835000D03*
%TO.P,J5,16,Pin_16*%
%TO.N,B7*%
X191135000Y-74295000D03*
%TD*%
D14*
%TO.P,J6,1,Pin_1*%
%TO.N,VCC*%
X193675000Y-74295000D03*
D15*
%TO.P,J6,2,Pin_2*%
X193675000Y-76835000D03*
%TO.P,J6,3,Pin_3*%
X193675000Y-79375000D03*
%TO.P,J6,4,Pin_4*%
X193675000Y-81915000D03*
%TO.P,J6,5,Pin_5*%
X193675000Y-84455000D03*
%TO.P,J6,6,Pin_6*%
X193675000Y-86995000D03*
%TO.P,J6,7,Pin_7*%
X193675000Y-89535000D03*
%TO.P,J6,8,Pin_8*%
X193675000Y-92075000D03*
%TO.P,J6,9,Pin_9*%
X193675000Y-94615000D03*
%TO.P,J6,10,Pin_10*%
X193675000Y-97155000D03*
%TO.P,J6,11,Pin_11*%
X193675000Y-99695000D03*
%TO.P,J6,12,Pin_12*%
X193675000Y-102235000D03*
%TO.P,J6,13,Pin_13*%
X193675000Y-104775000D03*
%TO.P,J6,14,Pin_14*%
X193675000Y-107315000D03*
%TO.P,J6,15,Pin_15*%
X193675000Y-109855000D03*
%TO.P,J6,16,Pin_16*%
X193675000Y-112395000D03*
%TD*%
D10*
%TO.P,R15,1*%
%TO.N,/MOSFETS/IN_B6*%
X176295000Y-44900650D03*
D11*
%TO.P,R15,2*%
%TO.N,Net-(Q15-G)*%
X183915000Y-44900650D03*
%TD*%
D10*
%TO.P,R14,1*%
%TO.N,/MOSFETS/IN_B5*%
X176295000Y-51824198D03*
D11*
%TO.P,R14,2*%
%TO.N,Net-(Q14-G)*%
X183915000Y-51824198D03*
%TD*%
D10*
%TO.P,R13,1*%
%TO.N,/MOSFETS/IN_B4*%
X176295000Y-58747746D03*
D11*
%TO.P,R13,2*%
%TO.N,Net-(Q13-G)*%
X183915000Y-58747746D03*
%TD*%
D10*
%TO.P,R12,1*%
%TO.N,/MOSFETS/IN_B3*%
X176295000Y-65671294D03*
D11*
%TO.P,R12,2*%
%TO.N,Net-(Q12-G)*%
X183915000Y-65671294D03*
%TD*%
D10*
%TO.P,R11,1*%
%TO.N,/MOSFETS/IN_B2*%
X176295000Y-72594842D03*
D11*
%TO.P,R11,2*%
%TO.N,Net-(Q11-G)*%
X183915000Y-72594842D03*
%TD*%
D10*
%TO.P,R10,1*%
%TO.N,/MOSFETS/IN_B1*%
X176295000Y-79518390D03*
D11*
%TO.P,R10,2*%
%TO.N,Net-(Q10-G)*%
X183915000Y-79518390D03*
%TD*%
D10*
%TO.P,R9,1*%
%TO.N,/MOSFETS/IN_B0*%
X176295000Y-86441938D03*
D11*
%TO.P,R9,2*%
%TO.N,Net-(Q9-G)*%
X183915000Y-86441938D03*
%TD*%
D10*
%TO.P,R8,1*%
%TO.N,/MOSFETS/IN_A7*%
X176295000Y-93365486D03*
D11*
%TO.P,R8,2*%
%TO.N,Net-(Q8-G)*%
X183915000Y-93365486D03*
%TD*%
D10*
%TO.P,R7,1*%
%TO.N,/MOSFETS/IN_A6*%
X176295000Y-100289034D03*
D11*
%TO.P,R7,2*%
%TO.N,Net-(Q7-G)*%
X183915000Y-100289034D03*
%TD*%
D10*
%TO.P,R6,1*%
%TO.N,/MOSFETS/IN_A5*%
X176295000Y-107212582D03*
D11*
%TO.P,R6,2*%
%TO.N,Net-(Q6-G)*%
X183915000Y-107212582D03*
%TD*%
D10*
%TO.P,R5,1*%
%TO.N,/MOSFETS/IN_A4*%
X176295000Y-114136130D03*
D11*
%TO.P,R5,2*%
%TO.N,Net-(Q5-G)*%
X183915000Y-114136130D03*
%TD*%
D10*
%TO.P,R4,1*%
%TO.N,/MOSFETS/IN_A3*%
X176295000Y-121059678D03*
D11*
%TO.P,R4,2*%
%TO.N,Net-(Q4-G)*%
X183915000Y-121059678D03*
%TD*%
D10*
%TO.P,R3,1*%
%TO.N,/MOSFETS/IN_A2*%
X176295000Y-127983226D03*
D11*
%TO.P,R3,2*%
%TO.N,Net-(Q3-G)*%
X183915000Y-127983226D03*
%TD*%
D10*
%TO.P,R2,1*%
%TO.N,/MOSFETS/IN_A1*%
X176295000Y-134906774D03*
D11*
%TO.P,R2,2*%
%TO.N,Net-(Q2-G)*%
X183915000Y-134906774D03*
%TD*%
D10*
%TO.P,R1,1*%
%TO.N,/MOSFETS/IN_A0*%
X176295000Y-141830322D03*
D11*
%TO.P,R1,2*%
%TO.N,Net-(Q1-G)*%
X183915000Y-141830322D03*
%TD*%
D16*
%TO.P,Q16,1,G*%
%TO.N,Net-(Q16-G)*%
X162560000Y-41275000D03*
D17*
%TO.P,Q16,2,D*%
%TO.N,B7*%
X165100000Y-41275000D03*
%TO.P,Q16,3,S*%
%TO.N,GND*%
X167640000Y-41275000D03*
%TD*%
D16*
%TO.P,Q15,1,G*%
%TO.N,Net-(Q15-G)*%
X162560000Y-48217666D03*
D17*
%TO.P,Q15,2,D*%
%TO.N,B6*%
X165100000Y-48217666D03*
%TO.P,Q15,3,S*%
%TO.N,GND*%
X167640000Y-48217666D03*
%TD*%
D16*
%TO.P,Q14,1,G*%
%TO.N,Net-(Q14-G)*%
X162560000Y-55160332D03*
D17*
%TO.P,Q14,2,D*%
%TO.N,B5*%
X165100000Y-55160332D03*
%TO.P,Q14,3,S*%
%TO.N,GND*%
X167640000Y-55160332D03*
%TD*%
D16*
%TO.P,Q13,1,G*%
%TO.N,Net-(Q13-G)*%
X162560000Y-62102998D03*
D17*
%TO.P,Q13,2,D*%
%TO.N,B4*%
X165100000Y-62102998D03*
%TO.P,Q13,3,S*%
%TO.N,GND*%
X167640000Y-62102998D03*
%TD*%
D16*
%TO.P,Q12,1,G*%
%TO.N,Net-(Q12-G)*%
X162560000Y-69045664D03*
D17*
%TO.P,Q12,2,D*%
%TO.N,B3*%
X165100000Y-69045664D03*
%TO.P,Q12,3,S*%
%TO.N,GND*%
X167640000Y-69045664D03*
%TD*%
D16*
%TO.P,Q11,1,G*%
%TO.N,Net-(Q11-G)*%
X162560000Y-75988330D03*
D17*
%TO.P,Q11,2,D*%
%TO.N,B2*%
X165100000Y-75988330D03*
%TO.P,Q11,3,S*%
%TO.N,GND*%
X167640000Y-75988330D03*
%TD*%
D16*
%TO.P,Q10,1,G*%
%TO.N,Net-(Q10-G)*%
X162560000Y-82930996D03*
D17*
%TO.P,Q10,2,D*%
%TO.N,B1*%
X165100000Y-82930996D03*
%TO.P,Q10,3,S*%
%TO.N,GND*%
X167640000Y-82930996D03*
%TD*%
D16*
%TO.P,Q9,1,G*%
%TO.N,Net-(Q9-G)*%
X162560000Y-89873662D03*
D17*
%TO.P,Q9,2,D*%
%TO.N,B0*%
X165100000Y-89873662D03*
%TO.P,Q9,3,S*%
%TO.N,GND*%
X167640000Y-89873662D03*
%TD*%
D16*
%TO.P,Q8,1,G*%
%TO.N,Net-(Q8-G)*%
X162560000Y-96816328D03*
D17*
%TO.P,Q8,2,D*%
%TO.N,A7*%
X165100000Y-96816328D03*
%TO.P,Q8,3,S*%
%TO.N,GND*%
X167640000Y-96816328D03*
%TD*%
D16*
%TO.P,Q7,1,G*%
%TO.N,Net-(Q7-G)*%
X162560000Y-103758994D03*
D17*
%TO.P,Q7,2,D*%
%TO.N,A6*%
X165100000Y-103758994D03*
%TO.P,Q7,3,S*%
%TO.N,GND*%
X167640000Y-103758994D03*
%TD*%
D16*
%TO.P,Q6,1,G*%
%TO.N,Net-(Q6-G)*%
X162560000Y-110701660D03*
D17*
%TO.P,Q6,2,D*%
%TO.N,A5*%
X165100000Y-110701660D03*
%TO.P,Q6,3,S*%
%TO.N,GND*%
X167640000Y-110701660D03*
%TD*%
D16*
%TO.P,Q5,1,G*%
%TO.N,Net-(Q5-G)*%
X162560000Y-117644326D03*
D17*
%TO.P,Q5,2,D*%
%TO.N,A4*%
X165100000Y-117644326D03*
%TO.P,Q5,3,S*%
%TO.N,GND*%
X167640000Y-117644326D03*
%TD*%
D16*
%TO.P,Q4,1,G*%
%TO.N,Net-(Q4-G)*%
X162560000Y-124586992D03*
D17*
%TO.P,Q4,2,D*%
%TO.N,A3*%
X165100000Y-124586992D03*
%TO.P,Q4,3,S*%
%TO.N,GND*%
X167640000Y-124586992D03*
%TD*%
D16*
%TO.P,Q3,1,G*%
%TO.N,Net-(Q3-G)*%
X162560000Y-131529658D03*
D17*
%TO.P,Q3,2,D*%
%TO.N,A2*%
X165100000Y-131529658D03*
%TO.P,Q3,3,S*%
%TO.N,GND*%
X167640000Y-131529658D03*
%TD*%
D16*
%TO.P,Q2,1,G*%
%TO.N,Net-(Q2-G)*%
X162560000Y-138472324D03*
D17*
%TO.P,Q2,2,D*%
%TO.N,A1*%
X165100000Y-138472324D03*
%TO.P,Q2,3,S*%
%TO.N,GND*%
X167640000Y-138472324D03*
%TD*%
%TO.P,Q1,3,S*%
%TO.N,GND*%
X167640000Y-145415000D03*
%TO.P,Q1,2,D*%
%TO.N,A0*%
X165100000Y-145415000D03*
D16*
%TO.P,Q1,1,G*%
%TO.N,Net-(Q1-G)*%
X162560000Y-145415000D03*
%TD*%
D18*
%TO.P,D16,1,K*%
%TO.N,VCC*%
X173355000Y-41438876D03*
D19*
%TO.P,D16,2,A*%
%TO.N,B7*%
X183515000Y-41438876D03*
%TD*%
D18*
%TO.P,D15,1,K*%
%TO.N,VCC*%
X173355000Y-48362424D03*
D19*
%TO.P,D15,2,A*%
%TO.N,B6*%
X183515000Y-48362424D03*
%TD*%
D18*
%TO.P,D14,1,K*%
%TO.N,VCC*%
X173355000Y-55285972D03*
D19*
%TO.P,D14,2,A*%
%TO.N,B5*%
X183515000Y-55285972D03*
%TD*%
D18*
%TO.P,D13,1,K*%
%TO.N,VCC*%
X173355000Y-62209520D03*
D19*
%TO.P,D13,2,A*%
%TO.N,B4*%
X183515000Y-62209520D03*
%TD*%
D18*
%TO.P,D12,1,K*%
%TO.N,VCC*%
X173355000Y-69133068D03*
D19*
%TO.P,D12,2,A*%
%TO.N,B3*%
X183515000Y-69133068D03*
%TD*%
D18*
%TO.P,D11,1,K*%
%TO.N,VCC*%
X173355000Y-76056616D03*
D19*
%TO.P,D11,2,A*%
%TO.N,B2*%
X183515000Y-76056616D03*
%TD*%
D18*
%TO.P,D10,1,K*%
%TO.N,VCC*%
X173355000Y-82980164D03*
D19*
%TO.P,D10,2,A*%
%TO.N,B1*%
X183515000Y-82980164D03*
%TD*%
D18*
%TO.P,D9,1,K*%
%TO.N,VCC*%
X173355000Y-89903712D03*
D19*
%TO.P,D9,2,A*%
%TO.N,B0*%
X183515000Y-89903712D03*
%TD*%
D18*
%TO.P,D8,1,K*%
%TO.N,VCC*%
X173355000Y-96827260D03*
D19*
%TO.P,D8,2,A*%
%TO.N,A7*%
X183515000Y-96827260D03*
%TD*%
D18*
%TO.P,D7,1,K*%
%TO.N,VCC*%
X173355000Y-103750808D03*
D19*
%TO.P,D7,2,A*%
%TO.N,A6*%
X183515000Y-103750808D03*
%TD*%
D18*
%TO.P,D6,1,K*%
%TO.N,VCC*%
X173355000Y-110674356D03*
D19*
%TO.P,D6,2,A*%
%TO.N,A5*%
X183515000Y-110674356D03*
%TD*%
D18*
%TO.P,D5,1,K*%
%TO.N,VCC*%
X173355000Y-117597904D03*
D19*
%TO.P,D5,2,A*%
%TO.N,A4*%
X183515000Y-117597904D03*
%TD*%
%TO.P,D4,2,A*%
%TO.N,A3*%
X183515000Y-124521452D03*
D18*
%TO.P,D4,1,K*%
%TO.N,VCC*%
X173355000Y-124521452D03*
%TD*%
D19*
%TO.P,D3,2,A*%
%TO.N,A2*%
X183515000Y-131445000D03*
D18*
%TO.P,D3,1,K*%
%TO.N,VCC*%
X173355000Y-131445000D03*
%TD*%
D19*
%TO.P,D2,2,A*%
%TO.N,A1*%
X183515000Y-138368548D03*
D18*
%TO.P,D2,1,K*%
%TO.N,VCC*%
X173355000Y-138368548D03*
%TD*%
%TO.P,D1,1,K*%
%TO.N,VCC*%
X173355000Y-145292102D03*
D19*
%TO.P,D1,2,A*%
%TO.N,A0*%
X183515000Y-145292102D03*
%TD*%
D13*
%TO.P,J3,2,Pin_2*%
%TO.N,GND*%
X147828000Y-144272000D03*
D12*
%TO.P,J3,1,Pin_1*%
%TO.N,VCC*%
X152908000Y-144272000D03*
%TD*%
D20*
%TO.P,J7,7,Pin_7*%
%TO.N,GND*%
X133604000Y-86024000D03*
%TO.P,J7,6,Pin_6*%
%TO.N,INTB0*%
X133604000Y-82524000D03*
%TO.P,J7,5,Pin_5*%
%TO.N,INTA0*%
X133604000Y-79024000D03*
%TO.P,J7,4,Pin_4*%
%TO.N,CS0*%
X133604000Y-75524000D03*
%TO.P,J7,3,Pin_3*%
%TO.N,MOSI*%
X133604000Y-72024000D03*
%TO.P,J7,2,Pin_2*%
%TO.N,MISO*%
X133604000Y-68524000D03*
D21*
%TO.P,J7,1,Pin_1*%
%TO.N,SCK*%
X133604000Y-65024000D03*
%TD*%
%TO.P,J4,1,Pin_1*%
%TO.N,SCK*%
X133604000Y-47244000D03*
D20*
%TO.P,J4,2,Pin_2*%
%TO.N,MISO*%
X133604000Y-50744000D03*
%TO.P,J4,3,Pin_3*%
%TO.N,MOSI*%
X133604000Y-54244000D03*
%TD*%
D22*
%TO.P,H1,1*%
%TO.N,N/C*%
X134000000Y-40538400D03*
%TD*%
D23*
%TO.P,U1,1,VIN*%
%TO.N,VCC*%
X134112000Y-131445000D03*
%TO.P,U1,2,GND*%
%TO.N,GND*%
X151257000Y-131445000D03*
%TO.P,U1,3,GND*%
X151257000Y-91948000D03*
%TO.P,U1,4,VOUT*%
%TO.N,+5V*%
X134112000Y-91948000D03*
%TD*%
D22*
%TO.P,H3,1*%
%TO.N,N/C*%
X192500000Y-40182800D03*
%TD*%
D24*
%TO.P,U2,1,GPB0*%
%TO.N,/MOSFETS/IN_B0*%
X144780000Y-53848000D03*
D25*
%TO.P,U2,2,GPB1*%
%TO.N,/MOSFETS/IN_B1*%
X144780000Y-56388000D03*
%TO.P,U2,3,GPB2*%
%TO.N,/MOSFETS/IN_B2*%
X144780000Y-58928000D03*
%TO.P,U2,4,GPB3*%
%TO.N,/MOSFETS/IN_B3*%
X144780000Y-61468000D03*
%TO.P,U2,5,GPB4*%
%TO.N,/MOSFETS/IN_B4*%
X144780000Y-64008000D03*
%TO.P,U2,6,GPB5*%
%TO.N,/MOSFETS/IN_B5*%
X144780000Y-66548000D03*
%TO.P,U2,7,GPB6*%
%TO.N,/MOSFETS/IN_B6*%
X144780000Y-69088000D03*
%TO.P,U2,8,GPB7*%
%TO.N,/MOSFETS/IN_B7*%
X144780000Y-71628000D03*
%TO.P,U2,9,VDD*%
%TO.N,+5V*%
X144780000Y-74168000D03*
%TO.P,U2,10,VSS*%
%TO.N,GND*%
X144780000Y-76708000D03*
%TO.P,U2,11,~{CS}*%
%TO.N,CS0*%
X144780000Y-79248000D03*
%TO.P,U2,12,SCK*%
%TO.N,SCK*%
X144780000Y-81788000D03*
%TO.P,U2,13,SI*%
%TO.N,MOSI*%
X144780000Y-84328000D03*
%TO.P,U2,14,SO*%
%TO.N,MISO*%
X144780000Y-86868000D03*
%TO.P,U2,15,A0*%
%TO.N,GND*%
X152400000Y-86868000D03*
%TO.P,U2,16,A1*%
X152400000Y-84328000D03*
%TO.P,U2,17,A2*%
X152400000Y-81788000D03*
%TO.P,U2,18,~{RESET}*%
%TO.N,+5V*%
X152400000Y-79248000D03*
%TO.P,U2,19,INTB*%
%TO.N,INTB0*%
X152400000Y-76708000D03*
%TO.P,U2,20,INTA*%
%TO.N,INTA0*%
X152400000Y-74168000D03*
%TO.P,U2,21,GPA0*%
%TO.N,/MOSFETS/IN_A0*%
X152400000Y-71628000D03*
%TO.P,U2,22,GPA1*%
%TO.N,/MOSFETS/IN_A1*%
X152400000Y-69088000D03*
%TO.P,U2,23,GPA2*%
%TO.N,/MOSFETS/IN_A2*%
X152400000Y-66548000D03*
%TO.P,U2,24,GPA3*%
%TO.N,/MOSFETS/IN_A3*%
X152400000Y-64008000D03*
%TO.P,U2,25,GPA4*%
%TO.N,/MOSFETS/IN_A4*%
X152400000Y-61468000D03*
%TO.P,U2,26,GPA5*%
%TO.N,/MOSFETS/IN_A5*%
X152400000Y-58928000D03*
%TO.P,U2,27,GPA6*%
%TO.N,/MOSFETS/IN_A6*%
X152400000Y-56388000D03*
%TO.P,U2,28,GPA7*%
%TO.N,/MOSFETS/IN_A7*%
X152400000Y-53848000D03*
%TD*%
D22*
%TO.P,H4,1*%
%TO.N,N/C*%
X192500000Y-143764000D03*
%TD*%
%TO.P,H2,1*%
%TO.N,N/C*%
X134000000Y-142392400D03*
%TD*%
D26*
%TO.N,VCC*%
X187960000Y-144272000D02*
X187960000Y-139192000D01*
X184912000Y-147320000D02*
X187960000Y-144272000D01*
X173355000Y-35687000D02*
X173228000Y-35560000D01*
X173355000Y-41438876D02*
X173355000Y-35687000D01*
X173228000Y-35560000D02*
X184404000Y-35560000D01*
X171704000Y-35560000D02*
X173228000Y-35560000D01*
X193675000Y-52451000D02*
X193675000Y-74295000D01*
X186944000Y-45720000D02*
X193675000Y-52451000D01*
X186944000Y-38100000D02*
X186944000Y-45720000D01*
X184404000Y-35560000D02*
X186944000Y-38100000D01*
X173355000Y-147193000D02*
X173228000Y-147320000D01*
X173228000Y-147320000D02*
X184912000Y-147320000D01*
X171327102Y-147320000D02*
X173228000Y-147320000D01*
X173355000Y-145292102D02*
X173355000Y-147193000D01*
X147320000Y-36576000D02*
X147320000Y-38608000D01*
X171704000Y-35560000D02*
X148336000Y-35560000D01*
X148336000Y-35560000D02*
X147320000Y-36576000D01*
X152908000Y-141224000D02*
X152908000Y-144272000D01*
X143129000Y-131445000D02*
X152908000Y-141224000D01*
X134112000Y-131445000D02*
X143129000Y-131445000D01*
D27*
%TO.N,CS0*%
X141732000Y-79248000D02*
X144780000Y-79248000D01*
X133604000Y-75524000D02*
X138008000Y-75524000D01*
X138008000Y-75524000D02*
X141732000Y-79248000D01*
%TO.N,MOSI*%
X141732000Y-87376000D02*
X141732000Y-85852000D01*
X139700000Y-89408000D02*
X141732000Y-87376000D01*
X131064000Y-88392000D02*
X132080000Y-89408000D01*
X141732000Y-85852000D02*
X143256000Y-84328000D01*
X132080000Y-89408000D02*
X139700000Y-89408000D01*
X131064000Y-71628000D02*
X131064000Y-88392000D01*
X143256000Y-84328000D02*
X144780000Y-84328000D01*
D26*
%TO.N,+5V*%
X152400000Y-79248000D02*
X148336000Y-79248000D01*
X148336000Y-79248000D02*
X148336000Y-76200000D01*
X148336000Y-89916000D02*
X148336000Y-79248000D01*
X148336000Y-76200000D02*
X146304000Y-74168000D01*
X146304000Y-74168000D02*
X144780000Y-74168000D01*
X146304000Y-91948000D02*
X148336000Y-89916000D01*
X134112000Y-91948000D02*
X146304000Y-91948000D01*
D27*
%TO.N,MOSI*%
X131460000Y-72024000D02*
X133604000Y-72024000D01*
X131064000Y-55372000D02*
X131064000Y-71628000D01*
X131064000Y-71628000D02*
X131460000Y-72024000D01*
X132192000Y-54244000D02*
X131064000Y-55372000D01*
X133604000Y-54244000D02*
X132192000Y-54244000D01*
%TO.N,MISO*%
X137104000Y-50744000D02*
X133604000Y-50744000D01*
X138176000Y-51816000D02*
X137104000Y-50744000D01*
X138176000Y-67564000D02*
X138176000Y-51816000D01*
X133604000Y-68524000D02*
X137216000Y-68524000D01*
X137216000Y-68524000D02*
X138176000Y-67564000D01*
D26*
%TO.N,VCC*%
X193675000Y-97155000D02*
X193675000Y-99695000D01*
X193675000Y-94615000D02*
X193675000Y-97155000D01*
X193675000Y-92075000D02*
X193675000Y-94615000D01*
X193675000Y-89535000D02*
X193675000Y-92075000D01*
X193675000Y-86995000D02*
X193675000Y-89535000D01*
X193675000Y-84455000D02*
X193675000Y-86995000D01*
X193675000Y-81915000D02*
X193675000Y-84455000D01*
X193675000Y-79375000D02*
X193675000Y-81915000D01*
X193675000Y-76835000D02*
X193675000Y-79375000D01*
X193675000Y-74295000D02*
X193675000Y-76835000D01*
X193675000Y-99695000D02*
X193675000Y-102235000D01*
X193675000Y-102235000D02*
X193675000Y-104775000D01*
X193675000Y-107315000D02*
X193675000Y-104775000D01*
X193675000Y-109855000D02*
X193675000Y-107315000D01*
X193675000Y-112395000D02*
X193675000Y-109855000D01*
X173355000Y-110674356D02*
X173355000Y-117597904D01*
X173355000Y-103750808D02*
X173355000Y-110674356D01*
X173355000Y-96827260D02*
X173355000Y-103750808D01*
X173355000Y-89903712D02*
X173355000Y-96827260D01*
X173355000Y-82980164D02*
X173355000Y-89903712D01*
X173355000Y-76056616D02*
X173355000Y-82980164D01*
X173355000Y-69133068D02*
X173355000Y-76056616D01*
X173355000Y-62209520D02*
X173355000Y-69133068D01*
X173355000Y-55285972D02*
X173355000Y-62209520D01*
X173355000Y-48362424D02*
X173355000Y-55285972D01*
X173355000Y-41438876D02*
X173355000Y-48362424D01*
X173355000Y-117597904D02*
X173355000Y-124521452D01*
X173355000Y-124521452D02*
X173355000Y-131445000D01*
X173355000Y-138368548D02*
X173355000Y-131445000D01*
X187960000Y-139192000D02*
X193675000Y-133477000D01*
X193675000Y-133477000D02*
X193675000Y-112395000D01*
X173355000Y-138368548D02*
X173355000Y-145292102D01*
X154432000Y-147320000D02*
X171327102Y-147320000D01*
X152908000Y-145796000D02*
X154432000Y-147320000D01*
X152908000Y-144272000D02*
X152908000Y-145796000D01*
D28*
%TO.N,A0*%
X191135000Y-114920001D02*
X191135000Y-112395000D01*
X189215001Y-116840000D02*
X191135000Y-114920001D01*
X189215001Y-118701855D02*
X189215001Y-116840000D01*
X188215000Y-119701856D02*
X189215001Y-118701855D01*
X188215000Y-124713000D02*
X188215000Y-119701856D01*
X187452000Y-125476000D02*
X188215000Y-124713000D01*
X187452000Y-130971428D02*
X187452000Y-125476000D01*
X186420000Y-132003428D02*
X187452000Y-130971428D01*
X186420000Y-142387102D02*
X186420000Y-132003428D01*
X183515000Y-145292102D02*
X186420000Y-142387102D01*
%TO.N,A1*%
X189865000Y-109855000D02*
X191135000Y-109855000D01*
X189420000Y-110300000D02*
X189865000Y-109855000D01*
X188215001Y-118287641D02*
X188215000Y-112716856D01*
X188215000Y-112716856D02*
X189420000Y-111511856D01*
X187215000Y-124223428D02*
X187215000Y-119287642D01*
X185420000Y-131589214D02*
X186420001Y-130589213D01*
X186420001Y-130589213D02*
X186420000Y-125018428D01*
X187215000Y-119287642D02*
X188215001Y-118287641D01*
X185420000Y-137668000D02*
X185420000Y-131589214D01*
X184719452Y-138368548D02*
X185420000Y-137668000D01*
X186420000Y-125018428D02*
X187215000Y-124223428D01*
X183515000Y-138368548D02*
X184719452Y-138368548D01*
X189420000Y-111511856D02*
X189420000Y-110300000D01*
%TO.N,A2*%
X184150000Y-131445000D02*
X183515000Y-131445000D01*
X185420000Y-130175000D02*
X184150000Y-131445000D01*
X185420000Y-124604214D02*
X185420000Y-130175000D01*
X186215000Y-123809214D02*
X185420000Y-124604214D01*
X186215000Y-118873428D02*
X186215000Y-123809214D01*
X188420000Y-111097642D02*
X187215000Y-112302642D01*
X187215000Y-117873428D02*
X186215000Y-118873428D01*
X188420000Y-107950000D02*
X188420000Y-111097642D01*
X187215000Y-112302642D02*
X187215000Y-117873428D01*
X189055000Y-107315000D02*
X188420000Y-107950000D01*
X191135000Y-107315000D02*
X189055000Y-107315000D01*
%TO.N,A3*%
X188595000Y-104775000D02*
X191135000Y-104775000D01*
X186215000Y-117459214D02*
X186215000Y-111888428D01*
X185215000Y-123395000D02*
X185215000Y-118459214D01*
X187420000Y-110683428D02*
X187420000Y-105950000D01*
X184088548Y-124521452D02*
X185215000Y-123395000D01*
X186215000Y-111888428D02*
X187420000Y-110683428D01*
X183515000Y-124521452D02*
X184088548Y-124521452D01*
X185215000Y-118459214D02*
X186215000Y-117459214D01*
X187420000Y-105950000D02*
X188595000Y-104775000D01*
%TO.N,A4*%
X187859236Y-102235000D02*
X191135000Y-102235000D01*
X186420000Y-103674236D02*
X187859236Y-102235000D01*
X185215000Y-111474214D02*
X186420000Y-110269214D01*
X185215000Y-117045000D02*
X185215000Y-111474214D01*
X186420000Y-110269214D02*
X186420000Y-103674236D01*
X184662096Y-117597904D02*
X185215000Y-117045000D01*
X183515000Y-117597904D02*
X184662096Y-117597904D01*
%TO.N,A5*%
X184600644Y-110674356D02*
X183515000Y-110674356D01*
X185420000Y-109855000D02*
X184600644Y-110674356D01*
X188985022Y-99695000D02*
X185420000Y-103260022D01*
X191135000Y-99695000D02*
X188985022Y-99695000D01*
X185420000Y-103260022D02*
X185420000Y-109855000D01*
%TO.N,B7*%
X185420000Y-41946876D02*
X184912000Y-41438876D01*
X185420000Y-47861786D02*
X185420000Y-41946876D01*
X186420001Y-48861787D02*
X185420000Y-47861786D01*
X186420000Y-54092544D02*
X186420001Y-48861787D01*
X187452000Y-55124544D02*
X186420000Y-54092544D01*
X187452000Y-61903878D02*
X187452000Y-55124544D01*
X188452001Y-62903879D02*
X187452000Y-61903878D01*
X188452000Y-67143212D02*
X188452001Y-62903879D01*
X189420002Y-68111214D02*
X188452000Y-67143212D01*
X189420001Y-72580001D02*
X189420002Y-68111214D01*
X191135000Y-74295000D02*
X189420001Y-72580001D01*
X183515000Y-41438876D02*
X184912000Y-41438876D01*
%TO.N,B6*%
X184506424Y-48362424D02*
X183515000Y-48362424D01*
X185420000Y-49276000D02*
X184506424Y-48362424D01*
X185420000Y-54506758D02*
X185420000Y-49276000D01*
X186420001Y-55506759D02*
X185420000Y-54506758D01*
X186420000Y-62286092D02*
X186420001Y-55506759D01*
X187452000Y-63318092D02*
X186420000Y-62286092D01*
X187452000Y-67557426D02*
X187452000Y-63318092D01*
X188420002Y-68525428D02*
X187452000Y-67557426D01*
X188420001Y-74120001D02*
X188420002Y-68525428D01*
X191135000Y-76835000D02*
X188420001Y-74120001D01*
%TO.N,B5*%
X185420000Y-55920972D02*
X184785000Y-55285972D01*
X185420000Y-62700306D02*
X185420000Y-55920972D01*
X186420000Y-63700306D02*
X185420000Y-62700306D01*
X186420000Y-67939640D02*
X186420000Y-63700306D01*
X187420001Y-68939641D02*
X186420000Y-67939640D01*
X187420002Y-74592356D02*
X187420001Y-68939641D01*
X187420000Y-74592358D02*
X187420002Y-74592356D01*
X188420002Y-75592360D02*
X187420000Y-74592358D01*
X188420001Y-78740000D02*
X188420002Y-75592360D01*
X189055001Y-79375000D02*
X188420001Y-78740000D01*
X191135000Y-79375000D02*
X189055001Y-79375000D01*
X183515000Y-55285972D02*
X184785000Y-55285972D01*
%TO.N,B4*%
X185420000Y-64114520D02*
X183515000Y-62209520D01*
X185420000Y-68353854D02*
X185420000Y-64114520D01*
X186420001Y-69353855D02*
X185420000Y-68353854D01*
X186420000Y-75006572D02*
X186420001Y-69353855D01*
X187420001Y-81280001D02*
X187420001Y-76006573D01*
X188055000Y-81915000D02*
X187420001Y-81280001D01*
X187420001Y-76006573D02*
X186420000Y-75006572D01*
X191135000Y-81915000D02*
X188055000Y-81915000D01*
%TO.N,B3*%
X185420000Y-69768068D02*
X184785000Y-69133068D01*
X185420000Y-75420786D02*
X185420000Y-69768068D01*
X186420001Y-76420787D02*
X185420000Y-75420786D01*
X186420000Y-82915000D02*
X186420001Y-76420787D01*
X187960000Y-84455000D02*
X186420000Y-82915000D01*
X191135000Y-84455000D02*
X187960000Y-84455000D01*
X183515000Y-69133068D02*
X184785000Y-69133068D01*
%TO.N,B2*%
X186420000Y-84470950D02*
X186420000Y-86360000D01*
X186420000Y-86360000D02*
X187055000Y-86995000D01*
X184641616Y-76056616D02*
X185420000Y-76835000D01*
X187055000Y-86995000D02*
X191135000Y-86995000D01*
X183515000Y-76056616D02*
X184641616Y-76056616D01*
X185420000Y-76835000D02*
X185420000Y-83470950D01*
X185420000Y-83470950D02*
X186420000Y-84470950D01*
%TO.N,B1*%
X185420000Y-88265000D02*
X185420000Y-84885164D01*
X185420000Y-84885164D02*
X183515000Y-82980164D01*
X186690000Y-89535000D02*
X185420000Y-88265000D01*
X191135000Y-89535000D02*
X186690000Y-89535000D01*
%TO.N,A6*%
X185420000Y-101845808D02*
X183515000Y-103750808D01*
X185420000Y-99060000D02*
X185420000Y-101845808D01*
X187325000Y-97155000D02*
X185420000Y-99060000D01*
X191135000Y-97155000D02*
X187325000Y-97155000D01*
%TO.N,A7*%
X185727260Y-94615000D02*
X183515000Y-96827260D01*
X191135000Y-94615000D02*
X185727260Y-94615000D01*
%TO.N,B0*%
X185686288Y-92075000D02*
X191135000Y-92075000D01*
X183515000Y-89903712D02*
X185686288Y-92075000D01*
%TD*%
%TA.AperFunction,Conductor*%
%TO.N,GND*%
G36*
X137730207Y-76252185D02*
G01*
X137750849Y-76268819D01*
X141214563Y-79732533D01*
X141217115Y-79735245D01*
X141258722Y-79782210D01*
X141258727Y-79782215D01*
X141310377Y-79817867D01*
X141313368Y-79820067D01*
X141362774Y-79858775D01*
X141372239Y-79863035D01*
X141391783Y-79874058D01*
X141400323Y-79879952D01*
X141400323Y-79879953D01*
X141400324Y-79879953D01*
X141400325Y-79879954D01*
X141458995Y-79902204D01*
X141462448Y-79903635D01*
X141481328Y-79912131D01*
X141519670Y-79929388D01*
X141529880Y-79931258D01*
X141551492Y-79937283D01*
X141561199Y-79940965D01*
X141615638Y-79947574D01*
X141623484Y-79948527D01*
X141627190Y-79949091D01*
X141648480Y-79952992D01*
X141688907Y-79960401D01*
X141688907Y-79960400D01*
X141688908Y-79960401D01*
X141751535Y-79956613D01*
X141755279Y-79956500D01*
X143614164Y-79956500D01*
X143681203Y-79976185D01*
X143715738Y-80009376D01*
X143773802Y-80092300D01*
X143935700Y-80254198D01*
X144112373Y-80377906D01*
X144123251Y-80385523D01*
X144166345Y-80405618D01*
X144218784Y-80451791D01*
X144237936Y-80518984D01*
X144217720Y-80585865D01*
X144166345Y-80630382D01*
X144123251Y-80650476D01*
X144022591Y-80720960D01*
X143935700Y-80781802D01*
X143935698Y-80781803D01*
X143935695Y-80781806D01*
X143773806Y-80943695D01*
X143773803Y-80943698D01*
X143773802Y-80943700D01*
X143732648Y-81002474D01*
X143642476Y-81131252D01*
X143642475Y-81131254D01*
X143545718Y-81338750D01*
X143545714Y-81338761D01*
X143486457Y-81559910D01*
X143486456Y-81559918D01*
X143466502Y-81787998D01*
X143466502Y-81788001D01*
X143486456Y-82016081D01*
X143486457Y-82016089D01*
X143545714Y-82237238D01*
X143545718Y-82237249D01*
X143619937Y-82396412D01*
X143642477Y-82444749D01*
X143773802Y-82632300D01*
X143935700Y-82794198D01*
X144123251Y-82925523D01*
X144166345Y-82945618D01*
X144218783Y-82991788D01*
X144237936Y-83058981D01*
X144217721Y-83125863D01*
X144166347Y-83170380D01*
X144123252Y-83190476D01*
X144063140Y-83232567D01*
X143935700Y-83321802D01*
X143935698Y-83321803D01*
X143935695Y-83321806D01*
X143773803Y-83483698D01*
X143715739Y-83566623D01*
X143661163Y-83610248D01*
X143614164Y-83619500D01*
X143279279Y-83619500D01*
X143275535Y-83619387D01*
X143212909Y-83615599D01*
X143212904Y-83615599D01*
X143151198Y-83626907D01*
X143147496Y-83627470D01*
X143085202Y-83635034D01*
X143085199Y-83635035D01*
X143075483Y-83638719D01*
X143053885Y-83644739D01*
X143043672Y-83646611D01*
X143043668Y-83646612D01*
X142986450Y-83672364D01*
X142983015Y-83673786D01*
X142942012Y-83689338D01*
X142924322Y-83696047D01*
X142915773Y-83701948D01*
X142896239Y-83712965D01*
X142886777Y-83717224D01*
X142886771Y-83717227D01*
X142837389Y-83755915D01*
X142834375Y-83758132D01*
X142782727Y-83793784D01*
X142741123Y-83840744D01*
X142738556Y-83843471D01*
X141247479Y-85334549D01*
X141244752Y-85337116D01*
X141210738Y-85367251D01*
X141197785Y-85378727D01*
X141180673Y-85403517D01*
X141162138Y-85430368D01*
X141159920Y-85433382D01*
X141121223Y-85482777D01*
X141116962Y-85492243D01*
X141105947Y-85511774D01*
X141100048Y-85520320D01*
X141100044Y-85520328D01*
X141077794Y-85578995D01*
X141076361Y-85582454D01*
X141050610Y-85639670D01*
X141050609Y-85639673D01*
X141048737Y-85649889D01*
X141042715Y-85671494D01*
X141039035Y-85681198D01*
X141031470Y-85743490D01*
X141030907Y-85747191D01*
X141019598Y-85808903D01*
X141019598Y-85808908D01*
X141023387Y-85871544D01*
X141023500Y-85875289D01*
X141023500Y-87031168D01*
X141003815Y-87098207D01*
X140987181Y-87118849D01*
X139442849Y-88663181D01*
X139381526Y-88696666D01*
X139355168Y-88699500D01*
X132424832Y-88699500D01*
X132357793Y-88679815D01*
X132337151Y-88663181D01*
X131808819Y-88134849D01*
X131775334Y-88073526D01*
X131772500Y-88047168D01*
X131772500Y-86665955D01*
X131792185Y-86598916D01*
X131844989Y-86553161D01*
X131914147Y-86543217D01*
X131977703Y-86572242D01*
X132011928Y-86620653D01*
X132068058Y-86763671D01*
X132195457Y-86984332D01*
X132237452Y-87036993D01*
X133041226Y-86233218D01*
X133079901Y-86326588D01*
X133176075Y-86451925D01*
X133301412Y-86548099D01*
X133394779Y-86586772D01*
X132590813Y-87390737D01*
X132751623Y-87500375D01*
X132751624Y-87500376D01*
X132981176Y-87610921D01*
X132981174Y-87610921D01*
X133224652Y-87686024D01*
X133224658Y-87686026D01*
X133476595Y-87723999D01*
X133476604Y-87724000D01*
X133731396Y-87724000D01*
X133731404Y-87723999D01*
X133983341Y-87686026D01*
X133983347Y-87686024D01*
X134226824Y-87610921D01*
X134456381Y-87500373D01*
X134617185Y-87390737D01*
X133813220Y-86586772D01*
X133906588Y-86548099D01*
X134031925Y-86451925D01*
X134128099Y-86326589D01*
X134166773Y-86233219D01*
X134970545Y-87036993D01*
X135012545Y-86984327D01*
X135139941Y-86763671D01*
X135233026Y-86526494D01*
X135233031Y-86526477D01*
X135289726Y-86278079D01*
X135308767Y-86024004D01*
X135308767Y-86023995D01*
X135289726Y-85769920D01*
X135233031Y-85521522D01*
X135233026Y-85521505D01*
X135139941Y-85284328D01*
X135139942Y-85284328D01*
X135012544Y-85063671D01*
X134970545Y-85011005D01*
X134166772Y-85814778D01*
X134128099Y-85721412D01*
X134031925Y-85596075D01*
X133906588Y-85499901D01*
X133813218Y-85461226D01*
X134617185Y-84657261D01*
X134456377Y-84547624D01*
X134456376Y-84547623D01*
X134226823Y-84437078D01*
X134226825Y-84437078D01*
X134096695Y-84396938D01*
X134038436Y-84358367D01*
X134010278Y-84294422D01*
X134021162Y-84225406D01*
X134067631Y-84173229D01*
X134096695Y-84159956D01*
X134126232Y-84150845D01*
X134229918Y-84118864D01*
X134229925Y-84118860D01*
X134229935Y-84118858D01*
X134460646Y-84007754D01*
X134672219Y-83863505D01*
X134849723Y-83698806D01*
X134859927Y-83689338D01*
X134859927Y-83689336D01*
X134859931Y-83689334D01*
X135019587Y-83489131D01*
X135147622Y-83267369D01*
X135241174Y-83029001D01*
X135298155Y-82779353D01*
X135300390Y-82749527D01*
X135317291Y-82524004D01*
X135317291Y-82523995D01*
X135298156Y-82268656D01*
X135298155Y-82268651D01*
X135298155Y-82268647D01*
X135241174Y-82018999D01*
X135147622Y-81780631D01*
X135019587Y-81558869D01*
X134859931Y-81358666D01*
X134859930Y-81358665D01*
X134859927Y-81358661D01*
X134706394Y-81216205D01*
X134672219Y-81184495D01*
X134634540Y-81158806D01*
X134460649Y-81040248D01*
X134460638Y-81040241D01*
X134229940Y-80929144D01*
X134229921Y-80929137D01*
X134111116Y-80892491D01*
X134052857Y-80853921D01*
X134024699Y-80789977D01*
X134035581Y-80720960D01*
X134082050Y-80668783D01*
X134111116Y-80655509D01*
X134192575Y-80630382D01*
X134229935Y-80618858D01*
X134441411Y-80517017D01*
X134460638Y-80507758D01*
X134460638Y-80507757D01*
X134460646Y-80507754D01*
X134672219Y-80363505D01*
X134838170Y-80209525D01*
X134859927Y-80189338D01*
X134859927Y-80189336D01*
X134859931Y-80189334D01*
X135019587Y-79989131D01*
X135147622Y-79767369D01*
X135241174Y-79529001D01*
X135298155Y-79279353D01*
X135298637Y-79272923D01*
X135317291Y-79024004D01*
X135317291Y-79023995D01*
X135298156Y-78768656D01*
X135298155Y-78768651D01*
X135298155Y-78768647D01*
X135241174Y-78518999D01*
X135147622Y-78280631D01*
X135019587Y-78058869D01*
X134859931Y-77858666D01*
X134859930Y-77858665D01*
X134859927Y-77858661D01*
X134704231Y-77714198D01*
X134672219Y-77684495D01*
X134654297Y-77672276D01*
X134460649Y-77540248D01*
X134460638Y-77540241D01*
X134229940Y-77429144D01*
X134229921Y-77429137D01*
X134111116Y-77392491D01*
X134052857Y-77353921D01*
X134024699Y-77289977D01*
X134035581Y-77220960D01*
X134082050Y-77168783D01*
X134111116Y-77155509D01*
X134185151Y-77132672D01*
X134229935Y-77118858D01*
X134460646Y-77007754D01*
X134672219Y-76863505D01*
X134859931Y-76689334D01*
X135019587Y-76489131D01*
X135131957Y-76294500D01*
X135182525Y-76246284D01*
X135239345Y-76232500D01*
X137663168Y-76232500D01*
X137730207Y-76252185D01*
G37*
%TD.AperFunction*%
%TA.AperFunction,Conductor*%
G36*
X152650000Y-86552314D02*
G01*
X152638045Y-86540359D01*
X152525148Y-86482835D01*
X152431481Y-86468000D01*
X152368519Y-86468000D01*
X152274852Y-86482835D01*
X152161955Y-86540359D01*
X152150000Y-86552314D01*
X152150000Y-84643686D01*
X152161955Y-84655641D01*
X152274852Y-84713165D01*
X152368519Y-84728000D01*
X152431481Y-84728000D01*
X152525148Y-84713165D01*
X152638045Y-84655641D01*
X152650000Y-84643686D01*
X152650000Y-86552314D01*
G37*
%TD.AperFunction*%
%TA.AperFunction,Conductor*%
G36*
X131977703Y-83095508D02*
G01*
X132011926Y-83143914D01*
X132060378Y-83267369D01*
X132060380Y-83267372D01*
X132060381Y-83267375D01*
X132087191Y-83313811D01*
X132188413Y-83489131D01*
X132298285Y-83626907D01*
X132348072Y-83689338D01*
X132514189Y-83843471D01*
X132535781Y-83863505D01*
X132747355Y-84007754D01*
X132747360Y-84007756D01*
X132747361Y-84007757D01*
X132747362Y-84007758D01*
X132836726Y-84050793D01*
X132978065Y-84118858D01*
X133111303Y-84159956D01*
X133169563Y-84198526D01*
X133197720Y-84262471D01*
X133186837Y-84331488D01*
X133140369Y-84383664D01*
X133111305Y-84396938D01*
X132981173Y-84437079D01*
X132751624Y-84547623D01*
X132751616Y-84547628D01*
X132590813Y-84657261D01*
X133394779Y-85461227D01*
X133301412Y-85499901D01*
X133176075Y-85596075D01*
X133079901Y-85721411D01*
X133041227Y-85814779D01*
X132237453Y-85011006D01*
X132195455Y-85063670D01*
X132068058Y-85284328D01*
X132011928Y-85427346D01*
X131969112Y-85482560D01*
X131903242Y-85505861D01*
X131835232Y-85489850D01*
X131786673Y-85439612D01*
X131772500Y-85382044D01*
X131772500Y-83189221D01*
X131792185Y-83122182D01*
X131844989Y-83076427D01*
X131914147Y-83066483D01*
X131977703Y-83095508D01*
G37*
%TD.AperFunction*%
%TA.AperFunction,Conductor*%
G36*
X152650000Y-84012314D02*
G01*
X152638045Y-84000359D01*
X152525148Y-83942835D01*
X152431481Y-83928000D01*
X152368519Y-83928000D01*
X152274852Y-83942835D01*
X152161955Y-84000359D01*
X152150000Y-84012314D01*
X152150000Y-82103686D01*
X152161955Y-82115641D01*
X152274852Y-82173165D01*
X152368519Y-82188000D01*
X152431481Y-82188000D01*
X152525148Y-82173165D01*
X152638045Y-82115641D01*
X152650000Y-82103686D01*
X152650000Y-84012314D01*
G37*
%TD.AperFunction*%
%TA.AperFunction,Conductor*%
G36*
X147544698Y-34564185D02*
G01*
X147590453Y-34616989D01*
X147600397Y-34686147D01*
X147571372Y-34749703D01*
X147571369Y-34749706D01*
X147525618Y-34802502D01*
X147522603Y-34805741D01*
X146608935Y-35719407D01*
X146593194Y-35732724D01*
X146590789Y-35734436D01*
X146590785Y-35734439D01*
X146526854Y-35801489D01*
X146498831Y-35829512D01*
X146491828Y-35837994D01*
X146488895Y-35841299D01*
X146444697Y-35887653D01*
X146444693Y-35887658D01*
X146425169Y-35918039D01*
X146420823Y-35923990D01*
X146397821Y-35951851D01*
X146397817Y-35951856D01*
X146367124Y-36008063D01*
X146364867Y-36011868D01*
X146330245Y-36065742D01*
X146330243Y-36065745D01*
X146316816Y-36099282D01*
X146313673Y-36105954D01*
X146296368Y-36137646D01*
X146296363Y-36137657D01*
X146276863Y-36198655D01*
X146275367Y-36202819D01*
X146251563Y-36262280D01*
X146244726Y-36297752D01*
X146242901Y-36304902D01*
X146231906Y-36339297D01*
X146224302Y-36402880D01*
X146223621Y-36407251D01*
X146211500Y-36470150D01*
X146211500Y-36475500D01*
X146191815Y-36542539D01*
X146139011Y-36588294D01*
X146087500Y-36599500D01*
X145771345Y-36599500D01*
X145710797Y-36606011D01*
X145710795Y-36606011D01*
X145573795Y-36657111D01*
X145456739Y-36744739D01*
X145369111Y-36861795D01*
X145318011Y-36998795D01*
X145318011Y-36998797D01*
X145311500Y-37059345D01*
X145311500Y-40156654D01*
X145318011Y-40217202D01*
X145318011Y-40217204D01*
X145358987Y-40327061D01*
X145369111Y-40354204D01*
X145456739Y-40471261D01*
X145573796Y-40558889D01*
X145710799Y-40609989D01*
X145738050Y-40612918D01*
X145771345Y-40616499D01*
X145771362Y-40616500D01*
X148868638Y-40616500D01*
X148868654Y-40616499D01*
X148895692Y-40613591D01*
X148929201Y-40609989D01*
X149066204Y-40558889D01*
X149183261Y-40471261D01*
X149270889Y-40354204D01*
X149321989Y-40217201D01*
X149325971Y-40180163D01*
X149328499Y-40156654D01*
X149328500Y-40156637D01*
X149328500Y-37059362D01*
X149328499Y-37059345D01*
X149325116Y-37027882D01*
X149321989Y-36998799D01*
X149318786Y-36990212D01*
X149270888Y-36861793D01*
X149266637Y-36854008D01*
X149269322Y-36852541D01*
X149250226Y-36801353D01*
X149265074Y-36733079D01*
X149314477Y-36683671D01*
X149373910Y-36668500D01*
X151292905Y-36668500D01*
X151359944Y-36688185D01*
X151405699Y-36740989D01*
X151415643Y-36810147D01*
X151386618Y-36873703D01*
X151352331Y-36901332D01*
X151315966Y-36921188D01*
X151315953Y-36921196D01*
X151173437Y-37027882D01*
X151173436Y-37027883D01*
X152066252Y-37920699D01*
X152056591Y-37924216D01*
X151908156Y-38021843D01*
X151786236Y-38151070D01*
X151714231Y-38275784D01*
X150819883Y-37381436D01*
X150819882Y-37381437D01*
X150713196Y-37523953D01*
X150713191Y-37523961D01*
X150576091Y-37775041D01*
X150476109Y-38043104D01*
X150415300Y-38322637D01*
X150394891Y-38607998D01*
X150394891Y-38608001D01*
X150415300Y-38893362D01*
X150476109Y-39172895D01*
X150576091Y-39440958D01*
X150713191Y-39692038D01*
X150713196Y-39692046D01*
X150819882Y-39834561D01*
X150819883Y-39834562D01*
X151715195Y-38939250D01*
X151737340Y-38990587D01*
X151843433Y-39133094D01*
X151979530Y-39247294D01*
X152069216Y-39292335D01*
X151173436Y-40188115D01*
X151315960Y-40294807D01*
X151315961Y-40294808D01*
X151567042Y-40431908D01*
X151567041Y-40431908D01*
X151835104Y-40531890D01*
X152114637Y-40592699D01*
X152399999Y-40613109D01*
X152400001Y-40613109D01*
X152685362Y-40592699D01*
X152964895Y-40531890D01*
X153232958Y-40431908D01*
X153484047Y-40294803D01*
X153626561Y-40188116D01*
X153626562Y-40188115D01*
X152733748Y-39295300D01*
X152743409Y-39291784D01*
X152891844Y-39194157D01*
X153013764Y-39064930D01*
X153085768Y-38940215D01*
X153980115Y-39834562D01*
X153980116Y-39834561D01*
X154086803Y-39692047D01*
X154223908Y-39440958D01*
X154323890Y-39172895D01*
X154384699Y-38893362D01*
X154405109Y-38608001D01*
X154405109Y-38607998D01*
X154384699Y-38322637D01*
X154323890Y-38043104D01*
X154223908Y-37775041D01*
X154086808Y-37523961D01*
X154086807Y-37523960D01*
X153980115Y-37381436D01*
X153084803Y-38276747D01*
X153062660Y-38225413D01*
X152956567Y-38082906D01*
X152820470Y-37968706D01*
X152730782Y-37923663D01*
X153626562Y-37027883D01*
X153626561Y-37027882D01*
X153484046Y-36921196D01*
X153484033Y-36921188D01*
X153447669Y-36901332D01*
X153398263Y-36851927D01*
X153383411Y-36783655D01*
X153407828Y-36718190D01*
X153463761Y-36676318D01*
X153507095Y-36668500D01*
X171598151Y-36668500D01*
X172122500Y-36668500D01*
X172189539Y-36688185D01*
X172235294Y-36740989D01*
X172246500Y-36792500D01*
X172246500Y-39714977D01*
X172226815Y-39782016D01*
X172174011Y-39827771D01*
X172151017Y-39835653D01*
X172145800Y-39836885D01*
X172008795Y-39887987D01*
X171891739Y-39975615D01*
X171804111Y-40092671D01*
X171753011Y-40229672D01*
X171746500Y-40290221D01*
X171746500Y-42587530D01*
X171753011Y-42648078D01*
X171753011Y-42648080D01*
X171788866Y-42744207D01*
X171804111Y-42785080D01*
X171891739Y-42902137D01*
X172008796Y-42989765D01*
X172066371Y-43011239D01*
X172145794Y-43040864D01*
X172151009Y-43042096D01*
X172211727Y-43076667D01*
X172244115Y-43138577D01*
X172246499Y-43162774D01*
X172246499Y-46638525D01*
X172226814Y-46705564D01*
X172174010Y-46751319D01*
X172151018Y-46759201D01*
X172145797Y-46760434D01*
X172008795Y-46811535D01*
X171891739Y-46899163D01*
X171804111Y-47016219D01*
X171753011Y-47153219D01*
X171753011Y-47153221D01*
X171746500Y-47213769D01*
X171746500Y-49511078D01*
X171753011Y-49571626D01*
X171753011Y-49571628D01*
X171799413Y-49696032D01*
X171804111Y-49708628D01*
X171891739Y-49825685D01*
X172008796Y-49913313D01*
X172066371Y-49934787D01*
X172145794Y-49964412D01*
X172151009Y-49965644D01*
X172211727Y-50000215D01*
X172244115Y-50062125D01*
X172246499Y-50086322D01*
X172246499Y-53562073D01*
X172226814Y-53629112D01*
X172174010Y-53674867D01*
X172151018Y-53682749D01*
X172145797Y-53683982D01*
X172008795Y-53735083D01*
X171891739Y-53822711D01*
X171804111Y-53939767D01*
X171753011Y-54076767D01*
X171753011Y-54076769D01*
X171746500Y-54137317D01*
X171746500Y-56434626D01*
X171753011Y-56495174D01*
X171753011Y-56495176D01*
X171788866Y-56591303D01*
X171804111Y-56632176D01*
X171891739Y-56749233D01*
X172008796Y-56836861D01*
X172066371Y-56858335D01*
X172145794Y-56887960D01*
X172151009Y-56889192D01*
X172211727Y-56923763D01*
X172244115Y-56985673D01*
X172246499Y-57009870D01*
X172246499Y-60485621D01*
X172226814Y-60552660D01*
X172174010Y-60598415D01*
X172151018Y-60606297D01*
X172145797Y-60607530D01*
X172008795Y-60658631D01*
X171891739Y-60746259D01*
X171804111Y-60863315D01*
X171753011Y-61000315D01*
X171753011Y-61000317D01*
X171746500Y-61060865D01*
X171746500Y-63358174D01*
X171753011Y-63418722D01*
X171753011Y-63418724D01*
X171803425Y-63553886D01*
X171804111Y-63555724D01*
X171891739Y-63672781D01*
X172008796Y-63760409D01*
X172061080Y-63779910D01*
X172145794Y-63811508D01*
X172151009Y-63812740D01*
X172211727Y-63847311D01*
X172244115Y-63909221D01*
X172246499Y-63933418D01*
X172246499Y-67409169D01*
X172226814Y-67476208D01*
X172174010Y-67521963D01*
X172151018Y-67529845D01*
X172145797Y-67531078D01*
X172008795Y-67582179D01*
X171891739Y-67669807D01*
X171804111Y-67786863D01*
X171753011Y-67923863D01*
X171753011Y-67923865D01*
X171746500Y-67984413D01*
X171746500Y-70281722D01*
X171753011Y-70342270D01*
X171753011Y-70342272D01*
X171788866Y-70438399D01*
X171804111Y-70479272D01*
X171891739Y-70596329D01*
X172008796Y-70683957D01*
X172066371Y-70705431D01*
X172145794Y-70735056D01*
X172151009Y-70736288D01*
X172211727Y-70770859D01*
X172244115Y-70832769D01*
X172246499Y-70856966D01*
X172246499Y-74332717D01*
X172226814Y-74399756D01*
X172174010Y-74445511D01*
X172151018Y-74453393D01*
X172145797Y-74454626D01*
X172008795Y-74505727D01*
X171891739Y-74593355D01*
X171804111Y-74710411D01*
X171753011Y-74847411D01*
X171753011Y-74847413D01*
X171746500Y-74907961D01*
X171746500Y-77205270D01*
X171753011Y-77265818D01*
X171753011Y-77265820D01*
X171795308Y-77379218D01*
X171804111Y-77402820D01*
X171891739Y-77519877D01*
X172008796Y-77607505D01*
X172066371Y-77628979D01*
X172145794Y-77658604D01*
X172151009Y-77659836D01*
X172211727Y-77694407D01*
X172244115Y-77756317D01*
X172246499Y-77780514D01*
X172246499Y-81256265D01*
X172226814Y-81323304D01*
X172174010Y-81369059D01*
X172151018Y-81376941D01*
X172145797Y-81378174D01*
X172008795Y-81429275D01*
X171891739Y-81516903D01*
X171804111Y-81633959D01*
X171753011Y-81770959D01*
X171753011Y-81770961D01*
X171746500Y-81831509D01*
X171746500Y-84128818D01*
X171753011Y-84189366D01*
X171753011Y-84189368D01*
X171802119Y-84321028D01*
X171804111Y-84326368D01*
X171891739Y-84443425D01*
X172008796Y-84531053D01*
X172053224Y-84547624D01*
X172145794Y-84582152D01*
X172151009Y-84583384D01*
X172211727Y-84617955D01*
X172244115Y-84679865D01*
X172246499Y-84704062D01*
X172246499Y-88179813D01*
X172226814Y-88246852D01*
X172174010Y-88292607D01*
X172151018Y-88300489D01*
X172145797Y-88301722D01*
X172008795Y-88352823D01*
X171891739Y-88440451D01*
X171804111Y-88557507D01*
X171753011Y-88694507D01*
X171753011Y-88694509D01*
X171746500Y-88755057D01*
X171746500Y-91052366D01*
X171753011Y-91112914D01*
X171753011Y-91112916D01*
X171804111Y-91249916D01*
X171891739Y-91366973D01*
X172008796Y-91454601D01*
X172066371Y-91476075D01*
X172145794Y-91505700D01*
X172151009Y-91506932D01*
X172211727Y-91541503D01*
X172244115Y-91603413D01*
X172246499Y-91627610D01*
X172246499Y-95103361D01*
X172226814Y-95170400D01*
X172174010Y-95216155D01*
X172151018Y-95224037D01*
X172145797Y-95225270D01*
X172008795Y-95276371D01*
X171891739Y-95363999D01*
X171804111Y-95481055D01*
X171753011Y-95618055D01*
X171753011Y-95618057D01*
X171746500Y-95678605D01*
X171746500Y-97975914D01*
X171753011Y-98036462D01*
X171753011Y-98036464D01*
X171798308Y-98157905D01*
X171804111Y-98173464D01*
X171891739Y-98290521D01*
X172008796Y-98378149D01*
X172066371Y-98399623D01*
X172145794Y-98429248D01*
X172151009Y-98430480D01*
X172211727Y-98465051D01*
X172244115Y-98526961D01*
X172246499Y-98551158D01*
X172246499Y-102026909D01*
X172226814Y-102093948D01*
X172174010Y-102139703D01*
X172151018Y-102147585D01*
X172145797Y-102148818D01*
X172008795Y-102199919D01*
X171891739Y-102287547D01*
X171804111Y-102404603D01*
X171753011Y-102541603D01*
X171753011Y-102541605D01*
X171746500Y-102602153D01*
X171746500Y-104899462D01*
X171753011Y-104960010D01*
X171753011Y-104960012D01*
X171788866Y-105056139D01*
X171804111Y-105097012D01*
X171891739Y-105214069D01*
X172008796Y-105301697D01*
X172066371Y-105323171D01*
X172145794Y-105352796D01*
X172151009Y-105354028D01*
X172211727Y-105388599D01*
X172244115Y-105450509D01*
X172246499Y-105474706D01*
X172246499Y-108950457D01*
X172226814Y-109017496D01*
X172174010Y-109063251D01*
X172151018Y-109071133D01*
X172145797Y-109072366D01*
X172008795Y-109123467D01*
X171891739Y-109211095D01*
X171804111Y-109328151D01*
X171753011Y-109465151D01*
X171753011Y-109465153D01*
X171746500Y-109525701D01*
X171746500Y-111823010D01*
X171753011Y-111883558D01*
X171753011Y-111883560D01*
X171788866Y-111979687D01*
X171804111Y-112020560D01*
X171891739Y-112137617D01*
X172008796Y-112225245D01*
X172066371Y-112246719D01*
X172145794Y-112276344D01*
X172151009Y-112277576D01*
X172211727Y-112312147D01*
X172244115Y-112374057D01*
X172246499Y-112398254D01*
X172246499Y-115874005D01*
X172226814Y-115941044D01*
X172174010Y-115986799D01*
X172151018Y-115994681D01*
X172145797Y-115995914D01*
X172008795Y-116047015D01*
X171891739Y-116134643D01*
X171804111Y-116251699D01*
X171753011Y-116388699D01*
X171753011Y-116388701D01*
X171746500Y-116449249D01*
X171746500Y-118746558D01*
X171753011Y-118807106D01*
X171753011Y-118807108D01*
X171788866Y-118903235D01*
X171804111Y-118944108D01*
X171891739Y-119061165D01*
X172008796Y-119148793D01*
X172066371Y-119170267D01*
X172145794Y-119199892D01*
X172151009Y-119201124D01*
X172211727Y-119235695D01*
X172244115Y-119297605D01*
X172246499Y-119321802D01*
X172246499Y-122797553D01*
X172226814Y-122864592D01*
X172174010Y-122910347D01*
X172151018Y-122918229D01*
X172145797Y-122919462D01*
X172008795Y-122970563D01*
X171891739Y-123058191D01*
X171804111Y-123175247D01*
X171753011Y-123312247D01*
X171753011Y-123312249D01*
X171746500Y-123372797D01*
X171746500Y-125670106D01*
X171753011Y-125730654D01*
X171753011Y-125730656D01*
X171798388Y-125852312D01*
X171804111Y-125867656D01*
X171891739Y-125984713D01*
X172008796Y-126072341D01*
X172053409Y-126088981D01*
X172145794Y-126123440D01*
X172151009Y-126124672D01*
X172211727Y-126159243D01*
X172244115Y-126221153D01*
X172246499Y-126245350D01*
X172246499Y-129721101D01*
X172226814Y-129788140D01*
X172174010Y-129833895D01*
X172151018Y-129841777D01*
X172145797Y-129843010D01*
X172008795Y-129894111D01*
X171891739Y-129981739D01*
X171804111Y-130098795D01*
X171753011Y-130235795D01*
X171753011Y-130235797D01*
X171746500Y-130296345D01*
X171746500Y-132593654D01*
X171753011Y-132654202D01*
X171753011Y-132654204D01*
X171788866Y-132750331D01*
X171804111Y-132791204D01*
X171891739Y-132908261D01*
X172008796Y-132995889D01*
X172066371Y-133017363D01*
X172145794Y-133046988D01*
X172151009Y-133048220D01*
X172211727Y-133082791D01*
X172244115Y-133144701D01*
X172246499Y-133168898D01*
X172246499Y-136644649D01*
X172226814Y-136711688D01*
X172174010Y-136757443D01*
X172151018Y-136765325D01*
X172145797Y-136766558D01*
X172008795Y-136817659D01*
X171891739Y-136905287D01*
X171804111Y-137022343D01*
X171753011Y-137159343D01*
X171753011Y-137159345D01*
X171746500Y-137219893D01*
X171746500Y-139517202D01*
X171753011Y-139577750D01*
X171753011Y-139577752D01*
X171804111Y-139714752D01*
X171891739Y-139831809D01*
X172008796Y-139919437D01*
X172145799Y-139970537D01*
X172145803Y-139970537D01*
X172151008Y-139971768D01*
X172211726Y-140006338D01*
X172244116Y-140068246D01*
X172246500Y-140092446D01*
X172246500Y-143568203D01*
X172226815Y-143635242D01*
X172174011Y-143680997D01*
X172151017Y-143688879D01*
X172145800Y-143690111D01*
X172008795Y-143741213D01*
X171891739Y-143828841D01*
X171804111Y-143945897D01*
X171753011Y-144082897D01*
X171753011Y-144082899D01*
X171746500Y-144143447D01*
X171746500Y-146087500D01*
X171726815Y-146154539D01*
X171674011Y-146200294D01*
X171622500Y-146211500D01*
X169087346Y-146211500D01*
X169020307Y-146191815D01*
X168974552Y-146139011D01*
X168964608Y-146069853D01*
X168973790Y-146037691D01*
X169018507Y-145935744D01*
X169018508Y-145935740D01*
X169077599Y-145702395D01*
X169077599Y-145702394D01*
X169080697Y-145665000D01*
X168134852Y-145665000D01*
X168183559Y-145527953D01*
X168193877Y-145377114D01*
X168163116Y-145229085D01*
X168129910Y-145165000D01*
X169080697Y-145165000D01*
X169077599Y-145127605D01*
X169077599Y-145127604D01*
X169018508Y-144894259D01*
X168921813Y-144673815D01*
X168790156Y-144472300D01*
X168790148Y-144472289D01*
X168627126Y-144295202D01*
X168627116Y-144295193D01*
X168437168Y-144147350D01*
X168437159Y-144147344D01*
X168225468Y-144032784D01*
X168225454Y-144032778D01*
X167997791Y-143954619D01*
X167890000Y-143936633D01*
X167890000Y-144923316D01*
X167861181Y-144905791D01*
X167715596Y-144865000D01*
X167602378Y-144865000D01*
X167490217Y-144880416D01*
X167390000Y-144923946D01*
X167390000Y-143936633D01*
X167389999Y-143936633D01*
X167282208Y-143954619D01*
X167054545Y-144032778D01*
X167054531Y-144032784D01*
X166842840Y-144147344D01*
X166842831Y-144147350D01*
X166652883Y-144295193D01*
X166652873Y-144295202D01*
X166489851Y-144472289D01*
X166489843Y-144472300D01*
X166478881Y-144489078D01*
X166425732Y-144534432D01*
X166356501Y-144543852D01*
X166293166Y-144514347D01*
X166271266Y-144489071D01*
X166256886Y-144467060D01*
X166092900Y-144288924D01*
X165938559Y-144168795D01*
X165901832Y-144140209D01*
X165901827Y-144140206D01*
X165688894Y-144024973D01*
X165688891Y-144024972D01*
X165688888Y-144024970D01*
X165688882Y-144024968D01*
X165688880Y-144024967D01*
X165459886Y-143946352D01*
X165260080Y-143913011D01*
X165221062Y-143906500D01*
X164978938Y-143906500D01*
X164939920Y-143913011D01*
X164740113Y-143946352D01*
X164511119Y-144024967D01*
X164511105Y-144024973D01*
X164298172Y-144140206D01*
X164298169Y-144140208D01*
X164163755Y-144244827D01*
X164098761Y-144270469D01*
X164030221Y-144256902D01*
X163979896Y-144208434D01*
X163971415Y-144190315D01*
X163963389Y-144168796D01*
X163875761Y-144051739D01*
X163758704Y-143964111D01*
X163758703Y-143964110D01*
X163621703Y-143913011D01*
X163561154Y-143906500D01*
X163561138Y-143906500D01*
X161558862Y-143906500D01*
X161558845Y-143906500D01*
X161498297Y-143913011D01*
X161498295Y-143913011D01*
X161361295Y-143964111D01*
X161244239Y-144051739D01*
X161156611Y-144168795D01*
X161105511Y-144305795D01*
X161105511Y-144305797D01*
X161099000Y-144366345D01*
X161099000Y-146087500D01*
X161079315Y-146154539D01*
X161026511Y-146200294D01*
X160975000Y-146211500D01*
X154961910Y-146211500D01*
X154894871Y-146191815D01*
X154849116Y-146139011D01*
X154839172Y-146069853D01*
X154856842Y-146027191D01*
X154854638Y-146025988D01*
X154858884Y-146018210D01*
X154858889Y-146018204D01*
X154902554Y-145901135D01*
X154909987Y-145881207D01*
X154909988Y-145881204D01*
X154909989Y-145881201D01*
X154913811Y-145845652D01*
X154916499Y-145820654D01*
X154916500Y-145820637D01*
X154916500Y-142723362D01*
X154916499Y-142723345D01*
X154913116Y-142691882D01*
X154909989Y-142662799D01*
X154858889Y-142525796D01*
X154771261Y-142408739D01*
X154654204Y-142321111D01*
X154654204Y-142321110D01*
X154517203Y-142270011D01*
X154456654Y-142263500D01*
X154456638Y-142263500D01*
X154140500Y-142263500D01*
X154073461Y-142243815D01*
X154027706Y-142191011D01*
X154016500Y-142139500D01*
X154016500Y-141326906D01*
X154018218Y-141306339D01*
X154018703Y-141303450D01*
X154018705Y-141303439D01*
X154016500Y-141210810D01*
X154016500Y-141171197D01*
X154015454Y-141160249D01*
X154015190Y-141155823D01*
X154013667Y-141091801D01*
X154005988Y-141056506D01*
X154004852Y-141049224D01*
X154001419Y-141013261D01*
X153983366Y-140951782D01*
X153982281Y-140947530D01*
X153968667Y-140884941D01*
X153954447Y-140851735D01*
X153951955Y-140844803D01*
X153941777Y-140810138D01*
X153912418Y-140753191D01*
X153910543Y-140749210D01*
X153885332Y-140690336D01*
X153885329Y-140690331D01*
X153885328Y-140690329D01*
X153865088Y-140660426D01*
X153861321Y-140654078D01*
X153851814Y-140635637D01*
X153844771Y-140621974D01*
X153805178Y-140571627D01*
X153802573Y-140568058D01*
X153766679Y-140515024D01*
X153766671Y-140515015D01*
X153741135Y-140489479D01*
X153736236Y-140483960D01*
X153713911Y-140455571D01*
X153713909Y-140455570D01*
X153713908Y-140455568D01*
X153679816Y-140426027D01*
X153665503Y-140413624D01*
X153662264Y-140410608D01*
X152772634Y-139520978D01*
X161099000Y-139520978D01*
X161105511Y-139581526D01*
X161105511Y-139581528D01*
X161148588Y-139697019D01*
X161156611Y-139718528D01*
X161244239Y-139835585D01*
X161361296Y-139923213D01*
X161465705Y-139962156D01*
X161491475Y-139971768D01*
X161498299Y-139974313D01*
X161523739Y-139977048D01*
X161558845Y-139980823D01*
X161558862Y-139980824D01*
X163561138Y-139980824D01*
X163561154Y-139980823D01*
X163588192Y-139977915D01*
X163621701Y-139974313D01*
X163628525Y-139971768D01*
X163654292Y-139962157D01*
X163758704Y-139923213D01*
X163875761Y-139835585D01*
X163963389Y-139718528D01*
X163971413Y-139697014D01*
X164013281Y-139641084D01*
X164078745Y-139616666D01*
X164147018Y-139631517D01*
X164163754Y-139642495D01*
X164173356Y-139649969D01*
X164288992Y-139739973D01*
X164298170Y-139747116D01*
X164511112Y-139862354D01*
X164629660Y-139903052D01*
X164740113Y-139940971D01*
X164740115Y-139940971D01*
X164740117Y-139940972D01*
X164978938Y-139980824D01*
X164978939Y-139980824D01*
X165221061Y-139980824D01*
X165221062Y-139980824D01*
X165459883Y-139940972D01*
X165688888Y-139862354D01*
X165901830Y-139747116D01*
X166092900Y-139598400D01*
X166256886Y-139420264D01*
X166271266Y-139398252D01*
X166324410Y-139352895D01*
X166393641Y-139343470D01*
X166456978Y-139372969D01*
X166478883Y-139398247D01*
X166489848Y-139415030D01*
X166489851Y-139415034D01*
X166652873Y-139592121D01*
X166652883Y-139592130D01*
X166842831Y-139739973D01*
X166842840Y-139739979D01*
X167054531Y-139854539D01*
X167054545Y-139854545D01*
X167282207Y-139932703D01*
X167390000Y-139950690D01*
X167390000Y-138964007D01*
X167418819Y-138981533D01*
X167564404Y-139022324D01*
X167677622Y-139022324D01*
X167789783Y-139006908D01*
X167890000Y-138963377D01*
X167890000Y-139950689D01*
X167997792Y-139932703D01*
X168225454Y-139854545D01*
X168225468Y-139854539D01*
X168437159Y-139739979D01*
X168437168Y-139739973D01*
X168627116Y-139592130D01*
X168627126Y-139592121D01*
X168790148Y-139415034D01*
X168790156Y-139415023D01*
X168921813Y-139213508D01*
X169018508Y-138993064D01*
X169077599Y-138759719D01*
X169077599Y-138759718D01*
X169080697Y-138722324D01*
X168134852Y-138722324D01*
X168183559Y-138585277D01*
X168193877Y-138434438D01*
X168163116Y-138286409D01*
X168129910Y-138222324D01*
X169080697Y-138222324D01*
X169077599Y-138184929D01*
X169077599Y-138184928D01*
X169018508Y-137951583D01*
X168921813Y-137731139D01*
X168790156Y-137529624D01*
X168790148Y-137529613D01*
X168627126Y-137352526D01*
X168627116Y-137352517D01*
X168437168Y-137204674D01*
X168437159Y-137204668D01*
X168225468Y-137090108D01*
X168225454Y-137090102D01*
X167997791Y-137011943D01*
X167890000Y-136993957D01*
X167890000Y-137980640D01*
X167861181Y-137963115D01*
X167715596Y-137922324D01*
X167602378Y-137922324D01*
X167490217Y-137937740D01*
X167390000Y-137981270D01*
X167390000Y-136993957D01*
X167389999Y-136993957D01*
X167282208Y-137011943D01*
X167054545Y-137090102D01*
X167054531Y-137090108D01*
X166842840Y-137204668D01*
X166842831Y-137204674D01*
X166652883Y-137352517D01*
X166652873Y-137352526D01*
X166489851Y-137529613D01*
X166489843Y-137529624D01*
X166478881Y-137546402D01*
X166425732Y-137591756D01*
X166356501Y-137601176D01*
X166293166Y-137571671D01*
X166271266Y-137546395D01*
X166260302Y-137529613D01*
X166256886Y-137524384D01*
X166092900Y-137346248D01*
X165938559Y-137226119D01*
X165901832Y-137197533D01*
X165901827Y-137197530D01*
X165688894Y-137082297D01*
X165688891Y-137082296D01*
X165688888Y-137082294D01*
X165688882Y-137082292D01*
X165688880Y-137082291D01*
X165459886Y-137003676D01*
X165260080Y-136970335D01*
X165221062Y-136963824D01*
X164978938Y-136963824D01*
X164939920Y-136970335D01*
X164740113Y-137003676D01*
X164511119Y-137082291D01*
X164511105Y-137082297D01*
X164298172Y-137197530D01*
X164298169Y-137197532D01*
X164163755Y-137302151D01*
X164098761Y-137327793D01*
X164030221Y-137314226D01*
X163979896Y-137265758D01*
X163971415Y-137247639D01*
X163963389Y-137226120D01*
X163875761Y-137109063D01*
X163758704Y-137021435D01*
X163758703Y-137021435D01*
X163621703Y-136970335D01*
X163561154Y-136963824D01*
X163561138Y-136963824D01*
X161558862Y-136963824D01*
X161558845Y-136963824D01*
X161498297Y-136970335D01*
X161498295Y-136970335D01*
X161361295Y-137021435D01*
X161244239Y-137109063D01*
X161156611Y-137226119D01*
X161105511Y-137363119D01*
X161105511Y-137363121D01*
X161099000Y-137423669D01*
X161099000Y-139520978D01*
X152772634Y-139520978D01*
X144696661Y-131445005D01*
X149751859Y-131445005D01*
X149772385Y-131692729D01*
X149772387Y-131692738D01*
X149833412Y-131933717D01*
X149933266Y-132161364D01*
X150033564Y-132314882D01*
X150812550Y-131535896D01*
X150813327Y-131546265D01*
X150862887Y-131672541D01*
X150947465Y-131778599D01*
X151059547Y-131855016D01*
X151167299Y-131888253D01*
X150386942Y-132668609D01*
X150433768Y-132705055D01*
X150433770Y-132705056D01*
X150652385Y-132823364D01*
X150652396Y-132823369D01*
X150887506Y-132904083D01*
X151132707Y-132945000D01*
X151381293Y-132945000D01*
X151626493Y-132904083D01*
X151861603Y-132823369D01*
X151861614Y-132823364D01*
X152080228Y-132705057D01*
X152080231Y-132705055D01*
X152127056Y-132668609D01*
X152036759Y-132578312D01*
X161099000Y-132578312D01*
X161105511Y-132638860D01*
X161105511Y-132638862D01*
X161147087Y-132750328D01*
X161156611Y-132775862D01*
X161244239Y-132892919D01*
X161361296Y-132980547D01*
X161498299Y-133031647D01*
X161525550Y-133034576D01*
X161558845Y-133038157D01*
X161558862Y-133038158D01*
X163561138Y-133038158D01*
X163561154Y-133038157D01*
X163588192Y-133035249D01*
X163621701Y-133031647D01*
X163758704Y-132980547D01*
X163875761Y-132892919D01*
X163963389Y-132775862D01*
X163971413Y-132754348D01*
X164013281Y-132698418D01*
X164078745Y-132674000D01*
X164147018Y-132688851D01*
X164163754Y-132699829D01*
X164215373Y-132740006D01*
X164288992Y-132797307D01*
X164298170Y-132804450D01*
X164511112Y-132919688D01*
X164584843Y-132945000D01*
X164740113Y-132998305D01*
X164740115Y-132998305D01*
X164740117Y-132998306D01*
X164978938Y-133038158D01*
X164978939Y-133038158D01*
X165221061Y-133038158D01*
X165221062Y-133038158D01*
X165459883Y-132998306D01*
X165688888Y-132919688D01*
X165901830Y-132804450D01*
X166092900Y-132655734D01*
X166256886Y-132477598D01*
X166271266Y-132455586D01*
X166324410Y-132410229D01*
X166393641Y-132400804D01*
X166456978Y-132430303D01*
X166478883Y-132455581D01*
X166489848Y-132472364D01*
X166489851Y-132472368D01*
X166652873Y-132649455D01*
X166652883Y-132649464D01*
X166842831Y-132797307D01*
X166842840Y-132797313D01*
X167054531Y-132911873D01*
X167054545Y-132911879D01*
X167282207Y-132990037D01*
X167390000Y-133008024D01*
X167390000Y-132021341D01*
X167418819Y-132038867D01*
X167564404Y-132079658D01*
X167677622Y-132079658D01*
X167789783Y-132064242D01*
X167890000Y-132020711D01*
X167890000Y-133008023D01*
X167997792Y-132990037D01*
X168225454Y-132911879D01*
X168225468Y-132911873D01*
X168437159Y-132797313D01*
X168437168Y-132797307D01*
X168627116Y-132649464D01*
X168627126Y-132649455D01*
X168790148Y-132472368D01*
X168790156Y-132472357D01*
X168921813Y-132270842D01*
X169018508Y-132050398D01*
X169077599Y-131817053D01*
X169077599Y-131817052D01*
X169080697Y-131779658D01*
X168134852Y-131779658D01*
X168183559Y-131642611D01*
X168193877Y-131491772D01*
X168163116Y-131343743D01*
X168129910Y-131279658D01*
X169080697Y-131279658D01*
X169077599Y-131242263D01*
X169077599Y-131242262D01*
X169018508Y-131008917D01*
X168921813Y-130788473D01*
X168790156Y-130586958D01*
X168790148Y-130586947D01*
X168627126Y-130409860D01*
X168627116Y-130409851D01*
X168437168Y-130262008D01*
X168437159Y-130262002D01*
X168225468Y-130147442D01*
X168225454Y-130147436D01*
X167997791Y-130069277D01*
X167890000Y-130051291D01*
X167890000Y-131037974D01*
X167861181Y-131020449D01*
X167715596Y-130979658D01*
X167602378Y-130979658D01*
X167490217Y-130995074D01*
X167390000Y-131038604D01*
X167390000Y-130051291D01*
X167389999Y-130051291D01*
X167282208Y-130069277D01*
X167054545Y-130147436D01*
X167054531Y-130147442D01*
X166842840Y-130262002D01*
X166842831Y-130262008D01*
X166652883Y-130409851D01*
X166652873Y-130409860D01*
X166489851Y-130586947D01*
X166489843Y-130586958D01*
X166478881Y-130603736D01*
X166425732Y-130649090D01*
X166356501Y-130658510D01*
X166293166Y-130629005D01*
X166271266Y-130603729D01*
X166260302Y-130586947D01*
X166256886Y-130581718D01*
X166092900Y-130403582D01*
X165966196Y-130304964D01*
X165901832Y-130254867D01*
X165901827Y-130254864D01*
X165688894Y-130139631D01*
X165688891Y-130139630D01*
X165688888Y-130139628D01*
X165688882Y-130139626D01*
X165688880Y-130139625D01*
X165459886Y-130061010D01*
X165260080Y-130027669D01*
X165221062Y-130021158D01*
X164978938Y-130021158D01*
X164939920Y-130027669D01*
X164740113Y-130061010D01*
X164511119Y-130139625D01*
X164511105Y-130139631D01*
X164298172Y-130254864D01*
X164298169Y-130254866D01*
X164163755Y-130359485D01*
X164098761Y-130385127D01*
X164030221Y-130371560D01*
X163979896Y-130323092D01*
X163971415Y-130304973D01*
X163963389Y-130283454D01*
X163875761Y-130166397D01*
X163758704Y-130078769D01*
X163758703Y-130078769D01*
X163621703Y-130027669D01*
X163561154Y-130021158D01*
X163561138Y-130021158D01*
X161558862Y-130021158D01*
X161558845Y-130021158D01*
X161498297Y-130027669D01*
X161498295Y-130027669D01*
X161361295Y-130078769D01*
X161244239Y-130166397D01*
X161156611Y-130283453D01*
X161105511Y-130420453D01*
X161105511Y-130420455D01*
X161099000Y-130481003D01*
X161099000Y-132578312D01*
X152036759Y-132578312D01*
X151345231Y-131886784D01*
X151391138Y-131879865D01*
X151513357Y-131821007D01*
X151612798Y-131728740D01*
X151680625Y-131611260D01*
X151698499Y-131532947D01*
X152480434Y-132314882D01*
X152580731Y-132161369D01*
X152680587Y-131933717D01*
X152741612Y-131692738D01*
X152741614Y-131692729D01*
X152762141Y-131445005D01*
X152762141Y-131444994D01*
X152741614Y-131197270D01*
X152741612Y-131197261D01*
X152680587Y-130956282D01*
X152580731Y-130728630D01*
X152480434Y-130575116D01*
X151701449Y-131354101D01*
X151700673Y-131343735D01*
X151651113Y-131217459D01*
X151566535Y-131111401D01*
X151454453Y-131034984D01*
X151346700Y-131001747D01*
X152127057Y-130221390D01*
X152127056Y-130221389D01*
X152080229Y-130184943D01*
X151861614Y-130066635D01*
X151861603Y-130066630D01*
X151626493Y-129985916D01*
X151381293Y-129945000D01*
X151132707Y-129945000D01*
X150887506Y-129985916D01*
X150652396Y-130066630D01*
X150652390Y-130066632D01*
X150433761Y-130184949D01*
X150386942Y-130221388D01*
X150386942Y-130221390D01*
X151168768Y-131003215D01*
X151122862Y-131010135D01*
X151000643Y-131068993D01*
X150901202Y-131161260D01*
X150833375Y-131278740D01*
X150815501Y-131357052D01*
X150033563Y-130575116D01*
X149933267Y-130728632D01*
X149833412Y-130956282D01*
X149772387Y-131197261D01*
X149772385Y-131197270D01*
X149751859Y-131444994D01*
X149751859Y-131445005D01*
X144696661Y-131445005D01*
X143985592Y-130733936D01*
X143972262Y-130718177D01*
X143970558Y-130715784D01*
X143970557Y-130715782D01*
X143903511Y-130651854D01*
X143889500Y-130637844D01*
X143875491Y-130623835D01*
X143867000Y-130616824D01*
X143863699Y-130613894D01*
X143817348Y-130569699D01*
X143817346Y-130569697D01*
X143812306Y-130566458D01*
X143786957Y-130550166D01*
X143780998Y-130545815D01*
X143753155Y-130522826D01*
X143753149Y-130522821D01*
X143696936Y-130492126D01*
X143693130Y-130489868D01*
X143639256Y-130455245D01*
X143605724Y-130441820D01*
X143599048Y-130438675D01*
X143567352Y-130421368D01*
X143567350Y-130421367D01*
X143567346Y-130421365D01*
X143531328Y-130409851D01*
X143506347Y-130401865D01*
X143502183Y-130400368D01*
X143442727Y-130376566D01*
X143442721Y-130376564D01*
X143407241Y-130369725D01*
X143400099Y-130367902D01*
X143365700Y-130356905D01*
X143302109Y-130349301D01*
X143297737Y-130348619D01*
X143254198Y-130340229D01*
X143234849Y-130336500D01*
X143234847Y-130336500D01*
X143198724Y-130336500D01*
X143191358Y-130336061D01*
X143155501Y-130331774D01*
X143155500Y-130331774D01*
X143091623Y-130336342D01*
X143087203Y-130336500D01*
X135182601Y-130336500D01*
X135115562Y-130316815D01*
X135102070Y-130306790D01*
X135001419Y-130220826D01*
X135001410Y-130220820D01*
X134798962Y-130096759D01*
X134798959Y-130096757D01*
X134579596Y-130005895D01*
X134348714Y-129950465D01*
X134171177Y-129936492D01*
X134112000Y-129931835D01*
X134111999Y-129931835D01*
X133875285Y-129950465D01*
X133644404Y-130005895D01*
X133644402Y-130005895D01*
X133425040Y-130096757D01*
X133425037Y-130096759D01*
X133222589Y-130220820D01*
X133222586Y-130220821D01*
X133042031Y-130375031D01*
X132887821Y-130555586D01*
X132887820Y-130555589D01*
X132763759Y-130758037D01*
X132763757Y-130758040D01*
X132672895Y-130977402D01*
X132672895Y-130977404D01*
X132617465Y-131208285D01*
X132598835Y-131445000D01*
X132617465Y-131681714D01*
X132672895Y-131912595D01*
X132672895Y-131912597D01*
X132763757Y-132131959D01*
X132763759Y-132131962D01*
X132887820Y-132334410D01*
X132887821Y-132334413D01*
X132887824Y-132334416D01*
X133042031Y-132514969D01*
X133181797Y-132634340D01*
X133222586Y-132669178D01*
X133222589Y-132669179D01*
X133425037Y-132793240D01*
X133425040Y-132793242D01*
X133644403Y-132884104D01*
X133644404Y-132884104D01*
X133644406Y-132884105D01*
X133875289Y-132939535D01*
X134112000Y-132958165D01*
X134348711Y-132939535D01*
X134579594Y-132884105D01*
X134579596Y-132884104D01*
X134579597Y-132884104D01*
X134798959Y-132793242D01*
X134798960Y-132793241D01*
X134798963Y-132793240D01*
X135001416Y-132669176D01*
X135089861Y-132593637D01*
X135102070Y-132583210D01*
X135165831Y-132554639D01*
X135182601Y-132553500D01*
X142618483Y-132553500D01*
X142685522Y-132573185D01*
X142706164Y-132589819D01*
X151763181Y-141646836D01*
X151796666Y-141708159D01*
X151799500Y-141734517D01*
X151799500Y-142139500D01*
X151779815Y-142206539D01*
X151727011Y-142252294D01*
X151675500Y-142263500D01*
X151359345Y-142263500D01*
X151298797Y-142270011D01*
X151298795Y-142270011D01*
X151161795Y-142321111D01*
X151044739Y-142408739D01*
X150957111Y-142525795D01*
X150906011Y-142662795D01*
X150906011Y-142662797D01*
X150899500Y-142723345D01*
X150899500Y-145820654D01*
X150906011Y-145881202D01*
X150906011Y-145881204D01*
X150957109Y-146018198D01*
X150957111Y-146018204D01*
X151044739Y-146135261D01*
X151161796Y-146222889D01*
X151298799Y-146273989D01*
X151326050Y-146276918D01*
X151359345Y-146280499D01*
X151359362Y-146280500D01*
X151831587Y-146280500D01*
X151898626Y-146300185D01*
X151934275Y-146334995D01*
X151950913Y-146359577D01*
X151954679Y-146365924D01*
X151971228Y-146398025D01*
X152010818Y-146448368D01*
X152013428Y-146451943D01*
X152049329Y-146504985D01*
X152074860Y-146530515D01*
X152079758Y-146536034D01*
X152102090Y-146564430D01*
X152102093Y-146564433D01*
X152150501Y-146606379D01*
X152153726Y-146609381D01*
X153225742Y-147681398D01*
X153575406Y-148031062D01*
X153588730Y-148046813D01*
X153590438Y-148049212D01*
X153590442Y-148049216D01*
X153657489Y-148113146D01*
X153685504Y-148141161D01*
X153693987Y-148148165D01*
X153697301Y-148151106D01*
X153743654Y-148195303D01*
X153773630Y-148214567D01*
X153774032Y-148214825D01*
X153779994Y-148219178D01*
X153791873Y-148228986D01*
X153807851Y-148242179D01*
X153834573Y-148256770D01*
X153864064Y-148272873D01*
X153867850Y-148275119D01*
X153882009Y-148284218D01*
X153883205Y-148284987D01*
X153928958Y-148337792D01*
X153938899Y-148406951D01*
X153909872Y-148470506D01*
X153851093Y-148508278D01*
X153816162Y-148513300D01*
X136077501Y-148513300D01*
X132160935Y-148432266D01*
X132137969Y-148429636D01*
X132130246Y-148428011D01*
X131949892Y-148386969D01*
X131945000Y-148385643D01*
X131838253Y-148351969D01*
X131769313Y-148330221D01*
X131595895Y-148271115D01*
X131591538Y-148269445D01*
X131421060Y-148196614D01*
X131301160Y-148141161D01*
X131255459Y-148120024D01*
X131251655Y-148118104D01*
X131088443Y-148028532D01*
X130932124Y-147935272D01*
X130928876Y-147933195D01*
X130774711Y-147827703D01*
X130664041Y-147744851D01*
X130629137Y-147718720D01*
X130626448Y-147716587D01*
X130484198Y-147597191D01*
X130481915Y-147595178D01*
X130349647Y-147472608D01*
X130347466Y-147470485D01*
X130217520Y-147337636D01*
X130215194Y-147335123D01*
X130095643Y-147198463D01*
X129978502Y-147052465D01*
X129976184Y-147049385D01*
X129871675Y-146901122D01*
X129797612Y-146787584D01*
X129769556Y-146744575D01*
X129767366Y-146740951D01*
X129678917Y-146582561D01*
X129592825Y-146417124D01*
X129590838Y-146412927D01*
X129519318Y-146245895D01*
X129510085Y-146222889D01*
X129450103Y-146073432D01*
X129448426Y-146068700D01*
X129394546Y-145894428D01*
X129342877Y-145717069D01*
X129341589Y-145711792D01*
X129305778Y-145530596D01*
X129305283Y-145527953D01*
X129272233Y-145351646D01*
X129271430Y-145345860D01*
X129253673Y-145149987D01*
X129239288Y-144985315D01*
X129239054Y-144979926D01*
X129239054Y-142392402D01*
X130686641Y-142392402D01*
X130706063Y-142750634D01*
X130742072Y-142970276D01*
X130754393Y-143045436D01*
X130764106Y-143104679D01*
X130764107Y-143104682D01*
X130860082Y-143450355D01*
X130860083Y-143450357D01*
X130992872Y-143783633D01*
X130992881Y-143783651D01*
X131048953Y-143889413D01*
X131135440Y-144052546D01*
X131160928Y-144100620D01*
X131160929Y-144100623D01*
X131362256Y-144397557D01*
X131362264Y-144397567D01*
X131576131Y-144649351D01*
X131594516Y-144670995D01*
X131854977Y-144917717D01*
X131854984Y-144917722D01*
X131854986Y-144917724D01*
X131871086Y-144929963D01*
X132140586Y-145134831D01*
X132447995Y-145319793D01*
X132447997Y-145319794D01*
X132447999Y-145319795D01*
X132448003Y-145319797D01*
X132773588Y-145470428D01*
X132773599Y-145470433D01*
X133113583Y-145584987D01*
X133463958Y-145662111D01*
X133820618Y-145700900D01*
X133820624Y-145700900D01*
X134179376Y-145700900D01*
X134179382Y-145700900D01*
X134536042Y-145662111D01*
X134886417Y-145584987D01*
X135226401Y-145470433D01*
X135552005Y-145319793D01*
X135859414Y-145134831D01*
X136145023Y-144917717D01*
X136405484Y-144670995D01*
X136637742Y-144397559D01*
X136722873Y-144272001D01*
X145822891Y-144272001D01*
X145843300Y-144557362D01*
X145904109Y-144836895D01*
X146004091Y-145104958D01*
X146141191Y-145356038D01*
X146141196Y-145356046D01*
X146247882Y-145498561D01*
X146247883Y-145498562D01*
X147143195Y-144603249D01*
X147165340Y-144654587D01*
X147271433Y-144797094D01*
X147407530Y-144911294D01*
X147497216Y-144956335D01*
X146601436Y-145852115D01*
X146743960Y-145958807D01*
X146743961Y-145958808D01*
X146995042Y-146095908D01*
X146995041Y-146095908D01*
X147263104Y-146195890D01*
X147542637Y-146256699D01*
X147827999Y-146277109D01*
X147828001Y-146277109D01*
X148113362Y-146256699D01*
X148392895Y-146195890D01*
X148660958Y-146095908D01*
X148912047Y-145958803D01*
X149054561Y-145852116D01*
X149054562Y-145852115D01*
X148161748Y-144959300D01*
X148171409Y-144955784D01*
X148319844Y-144858157D01*
X148441764Y-144728930D01*
X148513768Y-144604215D01*
X149408115Y-145498562D01*
X149408116Y-145498561D01*
X149514803Y-145356047D01*
X149651908Y-145104958D01*
X149751890Y-144836895D01*
X149812699Y-144557362D01*
X149833109Y-144272001D01*
X149833109Y-144271998D01*
X149812699Y-143986637D01*
X149751890Y-143707104D01*
X149651908Y-143439041D01*
X149514808Y-143187961D01*
X149514807Y-143187960D01*
X149408115Y-143045436D01*
X148512803Y-143940747D01*
X148490660Y-143889413D01*
X148384567Y-143746906D01*
X148248470Y-143632706D01*
X148158782Y-143587663D01*
X149054562Y-142691883D01*
X149054561Y-142691882D01*
X148912046Y-142585196D01*
X148912038Y-142585191D01*
X148660957Y-142448091D01*
X148660958Y-142448091D01*
X148392895Y-142348109D01*
X148113362Y-142287300D01*
X147828001Y-142266891D01*
X147827999Y-142266891D01*
X147542637Y-142287300D01*
X147263104Y-142348109D01*
X146995041Y-142448091D01*
X146743961Y-142585191D01*
X146743953Y-142585196D01*
X146601437Y-142691882D01*
X146601436Y-142691883D01*
X147494252Y-143584699D01*
X147484591Y-143588216D01*
X147336156Y-143685843D01*
X147214236Y-143815070D01*
X147142231Y-143939784D01*
X146247883Y-143045436D01*
X146247882Y-143045437D01*
X146141196Y-143187953D01*
X146141191Y-143187961D01*
X146004091Y-143439041D01*
X145904109Y-143707104D01*
X145843300Y-143986637D01*
X145822891Y-144271998D01*
X145822891Y-144272001D01*
X136722873Y-144272001D01*
X136792848Y-144168795D01*
X136839070Y-144100623D01*
X136839070Y-144100621D01*
X136839075Y-144100615D01*
X137007123Y-143783643D01*
X137139915Y-143450361D01*
X137235895Y-143104674D01*
X137293936Y-142750637D01*
X137305589Y-142535694D01*
X137313359Y-142392402D01*
X137313359Y-142392397D01*
X137293936Y-142034165D01*
X137290104Y-142010789D01*
X137235895Y-141680126D01*
X137162399Y-141415419D01*
X137139917Y-141334444D01*
X137139916Y-141334442D01*
X137136913Y-141326906D01*
X137070511Y-141160249D01*
X137007127Y-141001166D01*
X137007118Y-141001148D01*
X136980955Y-140951799D01*
X136839075Y-140684185D01*
X136839071Y-140684179D01*
X136839070Y-140684176D01*
X136637743Y-140387242D01*
X136637735Y-140387232D01*
X136405491Y-140113813D01*
X136405486Y-140113807D01*
X136405484Y-140113805D01*
X136145023Y-139867083D01*
X136145016Y-139867077D01*
X136145013Y-139867075D01*
X136064885Y-139806164D01*
X135859414Y-139649969D01*
X135552005Y-139465007D01*
X135552004Y-139465006D01*
X135552000Y-139465004D01*
X135551996Y-139465002D01*
X135226411Y-139314371D01*
X135226406Y-139314369D01*
X135226401Y-139314367D01*
X135006967Y-139240431D01*
X134886416Y-139199812D01*
X134536040Y-139122688D01*
X134179383Y-139083900D01*
X134179382Y-139083900D01*
X133820618Y-139083900D01*
X133820616Y-139083900D01*
X133463959Y-139122688D01*
X133113583Y-139199812D01*
X132902886Y-139270805D01*
X132773599Y-139314367D01*
X132773596Y-139314368D01*
X132773588Y-139314371D01*
X132448003Y-139465002D01*
X132447999Y-139465004D01*
X132260616Y-139577749D01*
X132140586Y-139649969D01*
X132109133Y-139673879D01*
X131854986Y-139867075D01*
X131854977Y-139867083D01*
X131594513Y-140113807D01*
X131594508Y-140113813D01*
X131362264Y-140387232D01*
X131362256Y-140387242D01*
X131160929Y-140684176D01*
X131160928Y-140684179D01*
X130992881Y-141001148D01*
X130992872Y-141001166D01*
X130860083Y-141334442D01*
X130860082Y-141334444D01*
X130764107Y-141680117D01*
X130764106Y-141680120D01*
X130706063Y-142034165D01*
X130686641Y-142392397D01*
X130686641Y-142392402D01*
X129239054Y-142392402D01*
X129239054Y-125635646D01*
X161099000Y-125635646D01*
X161105511Y-125696194D01*
X161105511Y-125696196D01*
X161154218Y-125826780D01*
X161156611Y-125833196D01*
X161244239Y-125950253D01*
X161361296Y-126037881D01*
X161498299Y-126088981D01*
X161525550Y-126091910D01*
X161558845Y-126095491D01*
X161558862Y-126095492D01*
X163561138Y-126095492D01*
X163561154Y-126095491D01*
X163588192Y-126092583D01*
X163621701Y-126088981D01*
X163758704Y-126037881D01*
X163875761Y-125950253D01*
X163963389Y-125833196D01*
X163971413Y-125811682D01*
X164013281Y-125755752D01*
X164078745Y-125731334D01*
X164147018Y-125746185D01*
X164163756Y-125757165D01*
X164288992Y-125854641D01*
X164298170Y-125861784D01*
X164511112Y-125977022D01*
X164630026Y-126017845D01*
X164740113Y-126055639D01*
X164740115Y-126055639D01*
X164740117Y-126055640D01*
X164978938Y-126095492D01*
X164978939Y-126095492D01*
X165221061Y-126095492D01*
X165221062Y-126095492D01*
X165459883Y-126055640D01*
X165688888Y-125977022D01*
X165901830Y-125861784D01*
X166092900Y-125713068D01*
X166256886Y-125534932D01*
X166271266Y-125512920D01*
X166324410Y-125467563D01*
X166393641Y-125458138D01*
X166456978Y-125487637D01*
X166478883Y-125512915D01*
X166489848Y-125529698D01*
X166489851Y-125529702D01*
X166652873Y-125706789D01*
X166652883Y-125706798D01*
X166842831Y-125854641D01*
X166842840Y-125854647D01*
X167054531Y-125969207D01*
X167054545Y-125969213D01*
X167282207Y-126047371D01*
X167390000Y-126065358D01*
X167390000Y-125078675D01*
X167418819Y-125096201D01*
X167564404Y-125136992D01*
X167677622Y-125136992D01*
X167789783Y-125121576D01*
X167890000Y-125078045D01*
X167890000Y-126065357D01*
X167997792Y-126047371D01*
X168225454Y-125969213D01*
X168225468Y-125969207D01*
X168437159Y-125854647D01*
X168437168Y-125854641D01*
X168627116Y-125706798D01*
X168627126Y-125706789D01*
X168790148Y-125529702D01*
X168790156Y-125529691D01*
X168921813Y-125328176D01*
X169018508Y-125107732D01*
X169077599Y-124874387D01*
X169077599Y-124874386D01*
X169080697Y-124836992D01*
X168134852Y-124836992D01*
X168183559Y-124699945D01*
X168193877Y-124549106D01*
X168163116Y-124401077D01*
X168129910Y-124336992D01*
X169080697Y-124336992D01*
X169077599Y-124299597D01*
X169077599Y-124299596D01*
X169018508Y-124066251D01*
X168921813Y-123845807D01*
X168790156Y-123644292D01*
X168790148Y-123644281D01*
X168627126Y-123467194D01*
X168627116Y-123467185D01*
X168437168Y-123319342D01*
X168437159Y-123319336D01*
X168225468Y-123204776D01*
X168225454Y-123204770D01*
X167997791Y-123126611D01*
X167890000Y-123108625D01*
X167890000Y-124095308D01*
X167861181Y-124077783D01*
X167715596Y-124036992D01*
X167602378Y-124036992D01*
X167490217Y-124052408D01*
X167390000Y-124095938D01*
X167390000Y-123108625D01*
X167389999Y-123108625D01*
X167282208Y-123126611D01*
X167054545Y-123204770D01*
X167054531Y-123204776D01*
X166842840Y-123319336D01*
X166842831Y-123319342D01*
X166652883Y-123467185D01*
X166652873Y-123467194D01*
X166489851Y-123644281D01*
X166489843Y-123644292D01*
X166478881Y-123661070D01*
X166425732Y-123706424D01*
X166356501Y-123715844D01*
X166293166Y-123686339D01*
X166271266Y-123661063D01*
X166260302Y-123644281D01*
X166256886Y-123639052D01*
X166092900Y-123460916D01*
X165938559Y-123340787D01*
X165901832Y-123312201D01*
X165901827Y-123312198D01*
X165688894Y-123196965D01*
X165688891Y-123196964D01*
X165688888Y-123196962D01*
X165688882Y-123196960D01*
X165688880Y-123196959D01*
X165459886Y-123118344D01*
X165253081Y-123083835D01*
X165221062Y-123078492D01*
X164978938Y-123078492D01*
X164957712Y-123082034D01*
X164740113Y-123118344D01*
X164511119Y-123196959D01*
X164511105Y-123196965D01*
X164298172Y-123312198D01*
X164298169Y-123312200D01*
X164163755Y-123416819D01*
X164098761Y-123442461D01*
X164030221Y-123428894D01*
X163979896Y-123380426D01*
X163971415Y-123362307D01*
X163963389Y-123340788D01*
X163875761Y-123223731D01*
X163758704Y-123136103D01*
X163758703Y-123136102D01*
X163621703Y-123085003D01*
X163561154Y-123078492D01*
X163561138Y-123078492D01*
X161558862Y-123078492D01*
X161558845Y-123078492D01*
X161498297Y-123085003D01*
X161498295Y-123085003D01*
X161361295Y-123136103D01*
X161244239Y-123223731D01*
X161156611Y-123340787D01*
X161105511Y-123477787D01*
X161105511Y-123477789D01*
X161099000Y-123538337D01*
X161099000Y-125635646D01*
X129239054Y-125635646D01*
X129239054Y-118692980D01*
X161099000Y-118692980D01*
X161105511Y-118753528D01*
X161105511Y-118753530D01*
X161148179Y-118867924D01*
X161156611Y-118890530D01*
X161244239Y-119007587D01*
X161361296Y-119095215D01*
X161498299Y-119146315D01*
X161525550Y-119149244D01*
X161558845Y-119152825D01*
X161558862Y-119152826D01*
X163561138Y-119152826D01*
X163561154Y-119152825D01*
X163588192Y-119149917D01*
X163621701Y-119146315D01*
X163758704Y-119095215D01*
X163875761Y-119007587D01*
X163963389Y-118890530D01*
X163971413Y-118869016D01*
X164013281Y-118813086D01*
X164078745Y-118788668D01*
X164147018Y-118803519D01*
X164163754Y-118814497D01*
X164202631Y-118844757D01*
X164288992Y-118911975D01*
X164298170Y-118919118D01*
X164511112Y-119034356D01*
X164624875Y-119073411D01*
X164740113Y-119112973D01*
X164740115Y-119112973D01*
X164740117Y-119112974D01*
X164978938Y-119152826D01*
X164978939Y-119152826D01*
X165221061Y-119152826D01*
X165221062Y-119152826D01*
X165459883Y-119112974D01*
X165688888Y-119034356D01*
X165901830Y-118919118D01*
X166092900Y-118770402D01*
X166256886Y-118592266D01*
X166271266Y-118570254D01*
X166324410Y-118524897D01*
X166393641Y-118515472D01*
X166456978Y-118544971D01*
X166478883Y-118570249D01*
X166489848Y-118587032D01*
X166489851Y-118587036D01*
X166652873Y-118764123D01*
X166652883Y-118764132D01*
X166842831Y-118911975D01*
X166842840Y-118911981D01*
X167054531Y-119026541D01*
X167054545Y-119026547D01*
X167282207Y-119104705D01*
X167390000Y-119122692D01*
X167390000Y-118136009D01*
X167418819Y-118153535D01*
X167564404Y-118194326D01*
X167677622Y-118194326D01*
X167789783Y-118178910D01*
X167890000Y-118135379D01*
X167890000Y-119122691D01*
X167997792Y-119104705D01*
X168225454Y-119026547D01*
X168225468Y-119026541D01*
X168437159Y-118911981D01*
X168437168Y-118911975D01*
X168627116Y-118764132D01*
X168627126Y-118764123D01*
X168790148Y-118587036D01*
X168790156Y-118587025D01*
X168921813Y-118385510D01*
X169018508Y-118165066D01*
X169077599Y-117931721D01*
X169077599Y-117931720D01*
X169080697Y-117894326D01*
X168134852Y-117894326D01*
X168183559Y-117757279D01*
X168193877Y-117606440D01*
X168163116Y-117458411D01*
X168129910Y-117394326D01*
X169080697Y-117394326D01*
X169077599Y-117356931D01*
X169077599Y-117356930D01*
X169018508Y-117123585D01*
X168921813Y-116903141D01*
X168790156Y-116701626D01*
X168790148Y-116701615D01*
X168627126Y-116524528D01*
X168627116Y-116524519D01*
X168437168Y-116376676D01*
X168437159Y-116376670D01*
X168225468Y-116262110D01*
X168225454Y-116262104D01*
X167997791Y-116183945D01*
X167890000Y-116165959D01*
X167890000Y-117152642D01*
X167861181Y-117135117D01*
X167715596Y-117094326D01*
X167602378Y-117094326D01*
X167490217Y-117109742D01*
X167390000Y-117153272D01*
X167390000Y-116165959D01*
X167389999Y-116165959D01*
X167282208Y-116183945D01*
X167054545Y-116262104D01*
X167054531Y-116262110D01*
X166842840Y-116376670D01*
X166842831Y-116376676D01*
X166652883Y-116524519D01*
X166652873Y-116524528D01*
X166489851Y-116701615D01*
X166489843Y-116701626D01*
X166478881Y-116718404D01*
X166425732Y-116763758D01*
X166356501Y-116773178D01*
X166293166Y-116743673D01*
X166271266Y-116718397D01*
X166260302Y-116701615D01*
X166256886Y-116696386D01*
X166092900Y-116518250D01*
X165938559Y-116398121D01*
X165901832Y-116369535D01*
X165901827Y-116369532D01*
X165688894Y-116254299D01*
X165688891Y-116254298D01*
X165688888Y-116254296D01*
X165688882Y-116254294D01*
X165688880Y-116254293D01*
X165459886Y-116175678D01*
X165260080Y-116142337D01*
X165221062Y-116135826D01*
X164978938Y-116135826D01*
X164939920Y-116142337D01*
X164740113Y-116175678D01*
X164511119Y-116254293D01*
X164511105Y-116254299D01*
X164298172Y-116369532D01*
X164298169Y-116369534D01*
X164163755Y-116474153D01*
X164098761Y-116499795D01*
X164030221Y-116486228D01*
X163979896Y-116437760D01*
X163971415Y-116419641D01*
X163963389Y-116398122D01*
X163875761Y-116281065D01*
X163758704Y-116193437D01*
X163621703Y-116142337D01*
X163561154Y-116135826D01*
X163561138Y-116135826D01*
X161558862Y-116135826D01*
X161558845Y-116135826D01*
X161498297Y-116142337D01*
X161498295Y-116142337D01*
X161361295Y-116193437D01*
X161244239Y-116281065D01*
X161156611Y-116398121D01*
X161105511Y-116535121D01*
X161105511Y-116535123D01*
X161099000Y-116595671D01*
X161099000Y-118692980D01*
X129239054Y-118692980D01*
X129239054Y-111750314D01*
X161099000Y-111750314D01*
X161105511Y-111810862D01*
X161105511Y-111810864D01*
X161148588Y-111926355D01*
X161156611Y-111947864D01*
X161244239Y-112064921D01*
X161361296Y-112152549D01*
X161498299Y-112203649D01*
X161525550Y-112206578D01*
X161558845Y-112210159D01*
X161558862Y-112210160D01*
X163561138Y-112210160D01*
X163561154Y-112210159D01*
X163588192Y-112207251D01*
X163621701Y-112203649D01*
X163758704Y-112152549D01*
X163875761Y-112064921D01*
X163963389Y-111947864D01*
X163971413Y-111926350D01*
X164013281Y-111870420D01*
X164078745Y-111846002D01*
X164147018Y-111860853D01*
X164163756Y-111871833D01*
X164288992Y-111969309D01*
X164298170Y-111976452D01*
X164511112Y-112091690D01*
X164630026Y-112132513D01*
X164740113Y-112170307D01*
X164740115Y-112170307D01*
X164740117Y-112170308D01*
X164978938Y-112210160D01*
X164978939Y-112210160D01*
X165221061Y-112210160D01*
X165221062Y-112210160D01*
X165459883Y-112170308D01*
X165688888Y-112091690D01*
X165901830Y-111976452D01*
X166092900Y-111827736D01*
X166256886Y-111649600D01*
X166271266Y-111627588D01*
X166324410Y-111582231D01*
X166393641Y-111572806D01*
X166456978Y-111602305D01*
X166478883Y-111627583D01*
X166489848Y-111644366D01*
X166489851Y-111644370D01*
X166652873Y-111821457D01*
X166652883Y-111821466D01*
X166842831Y-111969309D01*
X166842840Y-111969315D01*
X167054531Y-112083875D01*
X167054545Y-112083881D01*
X167282207Y-112162039D01*
X167390000Y-112180026D01*
X167390000Y-111193343D01*
X167418819Y-111210869D01*
X167564404Y-111251660D01*
X167677622Y-111251660D01*
X167789783Y-111236244D01*
X167890000Y-111192713D01*
X167890000Y-112180025D01*
X167997792Y-112162039D01*
X168225454Y-112083881D01*
X168225468Y-112083875D01*
X168437159Y-111969315D01*
X168437168Y-111969309D01*
X168627116Y-111821466D01*
X168627126Y-111821457D01*
X168790148Y-111644370D01*
X168790156Y-111644359D01*
X168921813Y-111442844D01*
X169018508Y-111222400D01*
X169077599Y-110989055D01*
X169077599Y-110989054D01*
X169080697Y-110951660D01*
X168134852Y-110951660D01*
X168183559Y-110814613D01*
X168193877Y-110663774D01*
X168163116Y-110515745D01*
X168129910Y-110451660D01*
X169080697Y-110451660D01*
X169077599Y-110414265D01*
X169077599Y-110414264D01*
X169018508Y-110180919D01*
X168921813Y-109960475D01*
X168790156Y-109758960D01*
X168790148Y-109758949D01*
X168627126Y-109581862D01*
X168627116Y-109581853D01*
X168437168Y-109434010D01*
X168437159Y-109434004D01*
X168225468Y-109319444D01*
X168225454Y-109319438D01*
X167997791Y-109241279D01*
X167890000Y-109223293D01*
X167890000Y-110209976D01*
X167861181Y-110192451D01*
X167715596Y-110151660D01*
X167602378Y-110151660D01*
X167490217Y-110167076D01*
X167390000Y-110210606D01*
X167390000Y-109223293D01*
X167389999Y-109223293D01*
X167282208Y-109241279D01*
X167054545Y-109319438D01*
X167054531Y-109319444D01*
X166842840Y-109434004D01*
X166842831Y-109434010D01*
X166652883Y-109581853D01*
X166652873Y-109581862D01*
X166489851Y-109758949D01*
X166489843Y-109758960D01*
X166478881Y-109775738D01*
X166425732Y-109821092D01*
X166356501Y-109830512D01*
X166293166Y-109801007D01*
X166271266Y-109775731D01*
X166260302Y-109758949D01*
X166256886Y-109753720D01*
X166092900Y-109575584D01*
X165951021Y-109465155D01*
X165901832Y-109426869D01*
X165901827Y-109426866D01*
X165688894Y-109311633D01*
X165688891Y-109311632D01*
X165688888Y-109311630D01*
X165688882Y-109311628D01*
X165688880Y-109311627D01*
X165459886Y-109233012D01*
X165280767Y-109203122D01*
X165221062Y-109193160D01*
X164978938Y-109193160D01*
X164939920Y-109199671D01*
X164740113Y-109233012D01*
X164511119Y-109311627D01*
X164511105Y-109311633D01*
X164298172Y-109426866D01*
X164298169Y-109426868D01*
X164163755Y-109531487D01*
X164098761Y-109557129D01*
X164030221Y-109543562D01*
X163979896Y-109495094D01*
X163971415Y-109476975D01*
X163963389Y-109455456D01*
X163875761Y-109338399D01*
X163758704Y-109250771D01*
X163740923Y-109244139D01*
X163621703Y-109199671D01*
X163561154Y-109193160D01*
X163561138Y-109193160D01*
X161558862Y-109193160D01*
X161558845Y-109193160D01*
X161498297Y-109199671D01*
X161498295Y-109199671D01*
X161361295Y-109250771D01*
X161244239Y-109338399D01*
X161156611Y-109455455D01*
X161105511Y-109592455D01*
X161105511Y-109592457D01*
X161099000Y-109653005D01*
X161099000Y-111750314D01*
X129239054Y-111750314D01*
X129239054Y-104807648D01*
X161099000Y-104807648D01*
X161105511Y-104868196D01*
X161105511Y-104868198D01*
X161154438Y-104999371D01*
X161156611Y-105005198D01*
X161244239Y-105122255D01*
X161361296Y-105209883D01*
X161498299Y-105260983D01*
X161525550Y-105263912D01*
X161558845Y-105267493D01*
X161558862Y-105267494D01*
X163561138Y-105267494D01*
X163561154Y-105267493D01*
X163588192Y-105264585D01*
X163621701Y-105260983D01*
X163758704Y-105209883D01*
X163875761Y-105122255D01*
X163963389Y-105005198D01*
X163971413Y-104983684D01*
X164013281Y-104927754D01*
X164078745Y-104903336D01*
X164147018Y-104918187D01*
X164163754Y-104929165D01*
X164203383Y-104960010D01*
X164288992Y-105026643D01*
X164298170Y-105033786D01*
X164511112Y-105149024D01*
X164630026Y-105189847D01*
X164740113Y-105227641D01*
X164740115Y-105227641D01*
X164740117Y-105227642D01*
X164978938Y-105267494D01*
X164978939Y-105267494D01*
X165221061Y-105267494D01*
X165221062Y-105267494D01*
X165459883Y-105227642D01*
X165688888Y-105149024D01*
X165901830Y-105033786D01*
X166092900Y-104885070D01*
X166256886Y-104706934D01*
X166271266Y-104684922D01*
X166324410Y-104639565D01*
X166393641Y-104630140D01*
X166456978Y-104659639D01*
X166478883Y-104684917D01*
X166489848Y-104701700D01*
X166489851Y-104701704D01*
X166652873Y-104878791D01*
X166652883Y-104878800D01*
X166842831Y-105026643D01*
X166842840Y-105026649D01*
X167054531Y-105141209D01*
X167054545Y-105141215D01*
X167282207Y-105219373D01*
X167390000Y-105237360D01*
X167390000Y-104250677D01*
X167418819Y-104268203D01*
X167564404Y-104308994D01*
X167677622Y-104308994D01*
X167789783Y-104293578D01*
X167890000Y-104250047D01*
X167890000Y-105237359D01*
X167997792Y-105219373D01*
X168225454Y-105141215D01*
X168225468Y-105141209D01*
X168437159Y-105026649D01*
X168437168Y-105026643D01*
X168627116Y-104878800D01*
X168627126Y-104878791D01*
X168790148Y-104701704D01*
X168790156Y-104701693D01*
X168921813Y-104500178D01*
X169018508Y-104279734D01*
X169077599Y-104046389D01*
X169077599Y-104046388D01*
X169080697Y-104008994D01*
X168134852Y-104008994D01*
X168183559Y-103871947D01*
X168193877Y-103721108D01*
X168163116Y-103573079D01*
X168129910Y-103508994D01*
X169080697Y-103508994D01*
X169077599Y-103471599D01*
X169077599Y-103471598D01*
X169018508Y-103238253D01*
X168921813Y-103017809D01*
X168790156Y-102816294D01*
X168790148Y-102816283D01*
X168627126Y-102639196D01*
X168627116Y-102639187D01*
X168437168Y-102491344D01*
X168437159Y-102491338D01*
X168225468Y-102376778D01*
X168225454Y-102376772D01*
X167997791Y-102298613D01*
X167890000Y-102280627D01*
X167890000Y-103267310D01*
X167861181Y-103249785D01*
X167715596Y-103208994D01*
X167602378Y-103208994D01*
X167490217Y-103224410D01*
X167390000Y-103267940D01*
X167390000Y-102280627D01*
X167389999Y-102280627D01*
X167282208Y-102298613D01*
X167054545Y-102376772D01*
X167054531Y-102376778D01*
X166842840Y-102491338D01*
X166842831Y-102491344D01*
X166652883Y-102639187D01*
X166652873Y-102639196D01*
X166489851Y-102816283D01*
X166489843Y-102816294D01*
X166478881Y-102833072D01*
X166425732Y-102878426D01*
X166356501Y-102887846D01*
X166293166Y-102858341D01*
X166271266Y-102833065D01*
X166260302Y-102816283D01*
X166256886Y-102811054D01*
X166092900Y-102632918D01*
X165975584Y-102541607D01*
X165901832Y-102484203D01*
X165901827Y-102484200D01*
X165688894Y-102368967D01*
X165688891Y-102368966D01*
X165688888Y-102368964D01*
X165688882Y-102368962D01*
X165688880Y-102368961D01*
X165459886Y-102290346D01*
X165260080Y-102257005D01*
X165221062Y-102250494D01*
X164978938Y-102250494D01*
X164939920Y-102257005D01*
X164740113Y-102290346D01*
X164511119Y-102368961D01*
X164511105Y-102368967D01*
X164298172Y-102484200D01*
X164298169Y-102484202D01*
X164163755Y-102588821D01*
X164098761Y-102614463D01*
X164030221Y-102600896D01*
X163979896Y-102552428D01*
X163971415Y-102534309D01*
X163963389Y-102512790D01*
X163875761Y-102395733D01*
X163758704Y-102308105D01*
X163621703Y-102257005D01*
X163561154Y-102250494D01*
X163561138Y-102250494D01*
X161558862Y-102250494D01*
X161558845Y-102250494D01*
X161498297Y-102257005D01*
X161498295Y-102257005D01*
X161361295Y-102308105D01*
X161244239Y-102395733D01*
X161156611Y-102512789D01*
X161105511Y-102649789D01*
X161105511Y-102649791D01*
X161099000Y-102710339D01*
X161099000Y-104807648D01*
X129239054Y-104807648D01*
X129239054Y-97864982D01*
X161099000Y-97864982D01*
X161105511Y-97925530D01*
X161105511Y-97925532D01*
X161146887Y-98036461D01*
X161156611Y-98062532D01*
X161244239Y-98179589D01*
X161361296Y-98267217D01*
X161498299Y-98318317D01*
X161525550Y-98321246D01*
X161558845Y-98324827D01*
X161558862Y-98324828D01*
X163561138Y-98324828D01*
X163561154Y-98324827D01*
X163588192Y-98321919D01*
X163621701Y-98318317D01*
X163758704Y-98267217D01*
X163875761Y-98179589D01*
X163963389Y-98062532D01*
X163971413Y-98041018D01*
X164013281Y-97985088D01*
X164078745Y-97960670D01*
X164147018Y-97975521D01*
X164163754Y-97986499D01*
X164215373Y-98026676D01*
X164288992Y-98083977D01*
X164298170Y-98091120D01*
X164511112Y-98206358D01*
X164630026Y-98247181D01*
X164740113Y-98284975D01*
X164740115Y-98284975D01*
X164740117Y-98284976D01*
X164978938Y-98324828D01*
X164978939Y-98324828D01*
X165221061Y-98324828D01*
X165221062Y-98324828D01*
X165459883Y-98284976D01*
X165688888Y-98206358D01*
X165901830Y-98091120D01*
X166092900Y-97942404D01*
X166256886Y-97764268D01*
X166271266Y-97742256D01*
X166324410Y-97696899D01*
X166393641Y-97687474D01*
X166456978Y-97716973D01*
X166478883Y-97742251D01*
X166489848Y-97759034D01*
X166489851Y-97759038D01*
X166652873Y-97936125D01*
X166652883Y-97936134D01*
X166842831Y-98083977D01*
X166842840Y-98083983D01*
X167054531Y-98198543D01*
X167054545Y-98198549D01*
X167282207Y-98276707D01*
X167390000Y-98294694D01*
X167390000Y-97308011D01*
X167418819Y-97325537D01*
X167564404Y-97366328D01*
X167677622Y-97366328D01*
X167789783Y-97350912D01*
X167890000Y-97307381D01*
X167890000Y-98294693D01*
X167997792Y-98276707D01*
X168225454Y-98198549D01*
X168225468Y-98198543D01*
X168437159Y-98083983D01*
X168437168Y-98083977D01*
X168627116Y-97936134D01*
X168627126Y-97936125D01*
X168790148Y-97759038D01*
X168790156Y-97759027D01*
X168921813Y-97557512D01*
X169018508Y-97337068D01*
X169077599Y-97103723D01*
X169077599Y-97103722D01*
X169080697Y-97066328D01*
X168134852Y-97066328D01*
X168183559Y-96929281D01*
X168193877Y-96778442D01*
X168163116Y-96630413D01*
X168129910Y-96566328D01*
X169080697Y-96566328D01*
X169077599Y-96528933D01*
X169077599Y-96528932D01*
X169018508Y-96295587D01*
X168921813Y-96075143D01*
X168790156Y-95873628D01*
X168790148Y-95873617D01*
X168627126Y-95696530D01*
X168627116Y-95696521D01*
X168437168Y-95548678D01*
X168437159Y-95548672D01*
X168225468Y-95434112D01*
X168225454Y-95434106D01*
X167997791Y-95355947D01*
X167890000Y-95337961D01*
X167890000Y-96324644D01*
X167861181Y-96307119D01*
X167715596Y-96266328D01*
X167602378Y-96266328D01*
X167490217Y-96281744D01*
X167390000Y-96325274D01*
X167390000Y-95337961D01*
X167389999Y-95337961D01*
X167282208Y-95355947D01*
X167054545Y-95434106D01*
X167054531Y-95434112D01*
X166842840Y-95548672D01*
X166842831Y-95548678D01*
X166652883Y-95696521D01*
X166652873Y-95696530D01*
X166489851Y-95873617D01*
X166489843Y-95873628D01*
X166478881Y-95890406D01*
X166425732Y-95935760D01*
X166356501Y-95945180D01*
X166293166Y-95915675D01*
X166271266Y-95890399D01*
X166267739Y-95885000D01*
X166256886Y-95868388D01*
X166092900Y-95690252D01*
X166000144Y-95618057D01*
X165901832Y-95541537D01*
X165901827Y-95541534D01*
X165688894Y-95426301D01*
X165688891Y-95426300D01*
X165688888Y-95426298D01*
X165688882Y-95426296D01*
X165688880Y-95426295D01*
X165459886Y-95347680D01*
X165256808Y-95313793D01*
X165221062Y-95307828D01*
X164978938Y-95307828D01*
X164943192Y-95313793D01*
X164740113Y-95347680D01*
X164511119Y-95426295D01*
X164511105Y-95426301D01*
X164298172Y-95541534D01*
X164298169Y-95541536D01*
X164163755Y-95646155D01*
X164098761Y-95671797D01*
X164030221Y-95658230D01*
X163979896Y-95609762D01*
X163971415Y-95591643D01*
X163963389Y-95570124D01*
X163875761Y-95453067D01*
X163758704Y-95365439D01*
X163754843Y-95363999D01*
X163621703Y-95314339D01*
X163561154Y-95307828D01*
X163561138Y-95307828D01*
X161558862Y-95307828D01*
X161558845Y-95307828D01*
X161498297Y-95314339D01*
X161498295Y-95314339D01*
X161361295Y-95365439D01*
X161244239Y-95453067D01*
X161156611Y-95570123D01*
X161105511Y-95707123D01*
X161105511Y-95707125D01*
X161099000Y-95767673D01*
X161099000Y-97864982D01*
X129239054Y-97864982D01*
X129239054Y-88435092D01*
X130351598Y-88435092D01*
X130362907Y-88496810D01*
X130363470Y-88500511D01*
X130370392Y-88557507D01*
X130371035Y-88562801D01*
X130374716Y-88572510D01*
X130380738Y-88594110D01*
X130382611Y-88604331D01*
X130408365Y-88661555D01*
X130409798Y-88665015D01*
X130432044Y-88723672D01*
X130432046Y-88723675D01*
X130437941Y-88732216D01*
X130448966Y-88751763D01*
X130453225Y-88761227D01*
X130491916Y-88810611D01*
X130494136Y-88813628D01*
X130529783Y-88865271D01*
X130529784Y-88865272D01*
X130529785Y-88865273D01*
X130576772Y-88906900D01*
X130579464Y-88909434D01*
X131562563Y-89892533D01*
X131565115Y-89895245D01*
X131606722Y-89942210D01*
X131606728Y-89942216D01*
X131623768Y-89953978D01*
X131658377Y-89977867D01*
X131661368Y-89980067D01*
X131710774Y-90018775D01*
X131720239Y-90023035D01*
X131739783Y-90034058D01*
X131748325Y-90039954D01*
X131800067Y-90059577D01*
X131806984Y-90062200D01*
X131810439Y-90063630D01*
X131867667Y-90089387D01*
X131867671Y-90089389D01*
X131877881Y-90091260D01*
X131899500Y-90097286D01*
X131909199Y-90100965D01*
X131971480Y-90108527D01*
X131975184Y-90109091D01*
X131990096Y-90111823D01*
X132036908Y-90120402D01*
X132036909Y-90120401D01*
X132036910Y-90120402D01*
X132099552Y-90116613D01*
X132103296Y-90116500D01*
X139676710Y-90116500D01*
X139680455Y-90116613D01*
X139684612Y-90116864D01*
X139743093Y-90120402D01*
X139804818Y-90109090D01*
X139808514Y-90108527D01*
X139870801Y-90100965D01*
X139880499Y-90097286D01*
X139902116Y-90091260D01*
X139912329Y-90089389D01*
X139969577Y-90063622D01*
X139972978Y-90062213D01*
X140031675Y-90039954D01*
X140040213Y-90034060D01*
X140059764Y-90023033D01*
X140069226Y-90018775D01*
X140118640Y-89980060D01*
X140121615Y-89977870D01*
X140173273Y-89942215D01*
X140214916Y-89895208D01*
X140217435Y-89892533D01*
X142216533Y-87893435D01*
X142219208Y-87890916D01*
X142266215Y-87849273D01*
X142301870Y-87797615D01*
X142304067Y-87794631D01*
X142313888Y-87782097D01*
X142342775Y-87745226D01*
X142347033Y-87735764D01*
X142358060Y-87716213D01*
X142363954Y-87707675D01*
X142386213Y-87648978D01*
X142387622Y-87645577D01*
X142413389Y-87588329D01*
X142415260Y-87578116D01*
X142421288Y-87556495D01*
X142422495Y-87553313D01*
X142424965Y-87546801D01*
X142432527Y-87484521D01*
X142433090Y-87480817D01*
X142441007Y-87437616D01*
X142444402Y-87419092D01*
X142441507Y-87371237D01*
X142440613Y-87356447D01*
X142440500Y-87352703D01*
X142440500Y-86196832D01*
X142460185Y-86129793D01*
X142476819Y-86109151D01*
X143513152Y-85072819D01*
X143574475Y-85039334D01*
X143600833Y-85036500D01*
X143614164Y-85036500D01*
X143681203Y-85056185D01*
X143715738Y-85089376D01*
X143773802Y-85172300D01*
X143935700Y-85334198D01*
X144123251Y-85465523D01*
X144166345Y-85485618D01*
X144218783Y-85531788D01*
X144237936Y-85598981D01*
X144217721Y-85665863D01*
X144166347Y-85710380D01*
X144123252Y-85730476D01*
X144102026Y-85745339D01*
X143935700Y-85861802D01*
X143935698Y-85861803D01*
X143935695Y-85861806D01*
X143773806Y-86023695D01*
X143773803Y-86023698D01*
X143773802Y-86023700D01*
X143699515Y-86129793D01*
X143642476Y-86211252D01*
X143642475Y-86211254D01*
X143545718Y-86418750D01*
X143545714Y-86418761D01*
X143486457Y-86639910D01*
X143486456Y-86639918D01*
X143466502Y-86867998D01*
X143466502Y-86868001D01*
X143486456Y-87096081D01*
X143486457Y-87096089D01*
X143545714Y-87317238D01*
X143545718Y-87317249D01*
X143631110Y-87500373D01*
X143642477Y-87524749D01*
X143773802Y-87712300D01*
X143935700Y-87874198D01*
X144123251Y-88005523D01*
X144212560Y-88047168D01*
X144330750Y-88102281D01*
X144330752Y-88102281D01*
X144330757Y-88102284D01*
X144551913Y-88161543D01*
X144714832Y-88175796D01*
X144779998Y-88181498D01*
X144780000Y-88181498D01*
X144780002Y-88181498D01*
X144837021Y-88176509D01*
X145008087Y-88161543D01*
X145229243Y-88102284D01*
X145436749Y-88005523D01*
X145624300Y-87874198D01*
X145786198Y-87712300D01*
X145917523Y-87524749D01*
X146014284Y-87317243D01*
X146073543Y-87096087D01*
X146093498Y-86868000D01*
X146092522Y-86856849D01*
X146075821Y-86665955D01*
X146073543Y-86639913D01*
X146014284Y-86418757D01*
X145995070Y-86377553D01*
X145917524Y-86211254D01*
X145917523Y-86211252D01*
X145917523Y-86211251D01*
X145786198Y-86023700D01*
X145624300Y-85861802D01*
X145436749Y-85730477D01*
X145425003Y-85725000D01*
X145393655Y-85710382D01*
X145341215Y-85664210D01*
X145322063Y-85597017D01*
X145342278Y-85530136D01*
X145393655Y-85485618D01*
X145400213Y-85482560D01*
X145436749Y-85465523D01*
X145624300Y-85334198D01*
X145786198Y-85172300D01*
X145917523Y-84984749D01*
X146014284Y-84777243D01*
X146073543Y-84556087D01*
X146093498Y-84328000D01*
X146073543Y-84099913D01*
X146014284Y-83878757D01*
X146007171Y-83863504D01*
X145958036Y-83758132D01*
X145917523Y-83671251D01*
X145786198Y-83483700D01*
X145624300Y-83321802D01*
X145436749Y-83190477D01*
X145434055Y-83189221D01*
X145393655Y-83170382D01*
X145341215Y-83124210D01*
X145322063Y-83057017D01*
X145342278Y-82990136D01*
X145393655Y-82945618D01*
X145396882Y-82944112D01*
X145436749Y-82925523D01*
X145624300Y-82794198D01*
X145786198Y-82632300D01*
X145917523Y-82444749D01*
X146014284Y-82237243D01*
X146073543Y-82016087D01*
X146093498Y-81788000D01*
X146092007Y-81770963D01*
X146076674Y-81595702D01*
X146073543Y-81559913D01*
X146014284Y-81338757D01*
X145917523Y-81131251D01*
X145786198Y-80943700D01*
X145624300Y-80781802D01*
X145436749Y-80650477D01*
X145425938Y-80645436D01*
X145393655Y-80630382D01*
X145341215Y-80584210D01*
X145322063Y-80517017D01*
X145342278Y-80450136D01*
X145393655Y-80405618D01*
X145396882Y-80404112D01*
X145436749Y-80385523D01*
X145624300Y-80254198D01*
X145786198Y-80092300D01*
X145917523Y-79904749D01*
X146014284Y-79697243D01*
X146073543Y-79476087D01*
X146093498Y-79248000D01*
X146073543Y-79019913D01*
X146014284Y-78798757D01*
X146000245Y-78768651D01*
X145917524Y-78591254D01*
X145917523Y-78591252D01*
X145917523Y-78591251D01*
X145786198Y-78403700D01*
X145624300Y-78241802D01*
X145436749Y-78110477D01*
X145383596Y-78085691D01*
X145331158Y-78039519D01*
X145312007Y-77972325D01*
X145332223Y-77905444D01*
X145383600Y-77860927D01*
X145432483Y-77838133D01*
X145618820Y-77707657D01*
X145779657Y-77546820D01*
X145910134Y-77360482D01*
X146006265Y-77154326D01*
X146006269Y-77154317D01*
X146058872Y-76958000D01*
X145095686Y-76958000D01*
X145107641Y-76946045D01*
X145165165Y-76833148D01*
X145184986Y-76708000D01*
X145165165Y-76582852D01*
X145107641Y-76469955D01*
X145095686Y-76458000D01*
X146058872Y-76458000D01*
X146058872Y-76457999D01*
X146006269Y-76261682D01*
X146006265Y-76261673D01*
X145910134Y-76055517D01*
X145779657Y-75869179D01*
X145618820Y-75708342D01*
X145432481Y-75577865D01*
X145432479Y-75577864D01*
X145383599Y-75555071D01*
X145331159Y-75508899D01*
X145312007Y-75441706D01*
X145332223Y-75374824D01*
X145383599Y-75330307D01*
X145436749Y-75305523D01*
X145446170Y-75298925D01*
X145512376Y-75276598D01*
X145517295Y-75276500D01*
X145793483Y-75276500D01*
X145860522Y-75296185D01*
X145881164Y-75312819D01*
X147191180Y-76622835D01*
X147224665Y-76684158D01*
X147227499Y-76710516D01*
X147227499Y-79159854D01*
X147226237Y-79177501D01*
X147223719Y-79195013D01*
X147223718Y-79195015D01*
X147227430Y-79272923D01*
X147227500Y-79275873D01*
X147227500Y-89405482D01*
X147207815Y-89472521D01*
X147191181Y-89493163D01*
X145881163Y-90803181D01*
X145819840Y-90836666D01*
X145793482Y-90839500D01*
X135182601Y-90839500D01*
X135115562Y-90819815D01*
X135102070Y-90809790D01*
X135001419Y-90723826D01*
X135001410Y-90723820D01*
X134798962Y-90599759D01*
X134798959Y-90599757D01*
X134579596Y-90508895D01*
X134348714Y-90453465D01*
X134112000Y-90434835D01*
X133875285Y-90453465D01*
X133644404Y-90508895D01*
X133644402Y-90508895D01*
X133425040Y-90599757D01*
X133425037Y-90599759D01*
X133222589Y-90723820D01*
X133222586Y-90723821D01*
X133042031Y-90878031D01*
X132887821Y-91058586D01*
X132887820Y-91058589D01*
X132763759Y-91261037D01*
X132763757Y-91261040D01*
X132672895Y-91480402D01*
X132672895Y-91480404D01*
X132617465Y-91711285D01*
X132598835Y-91947999D01*
X132617465Y-92184714D01*
X132672895Y-92415595D01*
X132672895Y-92415597D01*
X132763757Y-92634959D01*
X132763759Y-92634962D01*
X132887820Y-92837410D01*
X132887821Y-92837413D01*
X132915873Y-92870257D01*
X133042031Y-93017969D01*
X133121931Y-93086210D01*
X133222586Y-93172178D01*
X133222589Y-93172179D01*
X133425037Y-93296240D01*
X133425040Y-93296242D01*
X133644403Y-93387104D01*
X133644404Y-93387104D01*
X133644406Y-93387105D01*
X133875289Y-93442535D01*
X134112000Y-93461165D01*
X134348711Y-93442535D01*
X134579594Y-93387105D01*
X134579596Y-93387104D01*
X134579597Y-93387104D01*
X134798959Y-93296242D01*
X134798960Y-93296241D01*
X134798963Y-93296240D01*
X135001416Y-93172176D01*
X135038183Y-93140773D01*
X135102070Y-93086210D01*
X135165831Y-93057639D01*
X135182601Y-93056500D01*
X146201095Y-93056500D01*
X146221657Y-93058216D01*
X146224561Y-93058705D01*
X146315176Y-93056547D01*
X146317190Y-93056500D01*
X146356799Y-93056500D01*
X146356803Y-93056500D01*
X146356812Y-93056499D01*
X146356814Y-93056499D01*
X146361188Y-93056081D01*
X146367751Y-93055453D01*
X146372169Y-93055190D01*
X146436199Y-93053667D01*
X146471490Y-93045988D01*
X146478777Y-93044852D01*
X146514739Y-93041419D01*
X146576205Y-93023370D01*
X146580478Y-93022280D01*
X146586650Y-93020937D01*
X146643059Y-93008667D01*
X146676258Y-92994449D01*
X146683203Y-92991953D01*
X146686089Y-92991105D01*
X146717862Y-92981777D01*
X146774798Y-92952422D01*
X146778793Y-92950542D01*
X146787333Y-92946885D01*
X146837664Y-92925333D01*
X146867591Y-92905076D01*
X146873915Y-92901324D01*
X146906026Y-92884771D01*
X146956382Y-92845169D01*
X146959914Y-92842589D01*
X147012981Y-92806674D01*
X147038521Y-92781132D01*
X147044043Y-92776233D01*
X147056967Y-92766069D01*
X147072432Y-92753908D01*
X147072434Y-92753905D01*
X147072436Y-92753904D01*
X147098528Y-92723791D01*
X147114388Y-92705487D01*
X147117370Y-92702283D01*
X147871648Y-91948005D01*
X149751859Y-91948005D01*
X149772385Y-92195729D01*
X149772387Y-92195738D01*
X149833412Y-92436717D01*
X149933266Y-92664364D01*
X150033564Y-92817882D01*
X150812550Y-92038896D01*
X150813327Y-92049265D01*
X150862887Y-92175541D01*
X150947465Y-92281599D01*
X151059547Y-92358016D01*
X151167299Y-92391253D01*
X150386942Y-93171609D01*
X150433768Y-93208055D01*
X150433770Y-93208056D01*
X150652385Y-93326364D01*
X150652396Y-93326369D01*
X150887506Y-93407083D01*
X151132707Y-93448000D01*
X151381293Y-93448000D01*
X151626493Y-93407083D01*
X151861603Y-93326369D01*
X151861614Y-93326364D01*
X152080228Y-93208057D01*
X152080231Y-93208055D01*
X152127056Y-93171609D01*
X151345231Y-92389784D01*
X151391138Y-92382865D01*
X151513357Y-92324007D01*
X151612798Y-92231740D01*
X151680625Y-92114260D01*
X151698499Y-92035947D01*
X152480434Y-92817882D01*
X152580731Y-92664369D01*
X152680587Y-92436717D01*
X152741612Y-92195738D01*
X152741614Y-92195729D01*
X152762141Y-91948005D01*
X152762141Y-91947994D01*
X152741614Y-91700270D01*
X152741612Y-91700261D01*
X152680587Y-91459282D01*
X152580731Y-91231630D01*
X152480434Y-91078116D01*
X151701449Y-91857101D01*
X151700673Y-91846735D01*
X151651113Y-91720459D01*
X151566535Y-91614401D01*
X151454453Y-91537984D01*
X151346700Y-91504747D01*
X151929131Y-90922316D01*
X161099000Y-90922316D01*
X161105511Y-90982864D01*
X161105511Y-90982866D01*
X161138794Y-91072097D01*
X161156611Y-91119866D01*
X161244239Y-91236923D01*
X161361296Y-91324551D01*
X161498299Y-91375651D01*
X161525550Y-91378580D01*
X161558845Y-91382161D01*
X161558862Y-91382162D01*
X163561138Y-91382162D01*
X163561154Y-91382161D01*
X163588192Y-91379253D01*
X163621701Y-91375651D01*
X163758704Y-91324551D01*
X163875761Y-91236923D01*
X163963389Y-91119866D01*
X163971413Y-91098352D01*
X164013281Y-91042422D01*
X164078745Y-91018004D01*
X164147018Y-91032855D01*
X164163754Y-91043833D01*
X164182705Y-91058584D01*
X164288992Y-91141311D01*
X164298170Y-91148454D01*
X164511112Y-91263692D01*
X164581633Y-91287902D01*
X164740113Y-91342309D01*
X164740115Y-91342309D01*
X164740117Y-91342310D01*
X164978938Y-91382162D01*
X164978939Y-91382162D01*
X165221061Y-91382162D01*
X165221062Y-91382162D01*
X165459883Y-91342310D01*
X165462744Y-91341328D01*
X165468707Y-91339280D01*
X165688888Y-91263692D01*
X165901830Y-91148454D01*
X166092900Y-90999738D01*
X166256886Y-90821602D01*
X166271266Y-90799590D01*
X166324410Y-90754233D01*
X166393641Y-90744808D01*
X166456978Y-90774307D01*
X166478883Y-90799585D01*
X166489848Y-90816368D01*
X166489851Y-90816372D01*
X166652873Y-90993459D01*
X166652883Y-90993468D01*
X166842831Y-91141311D01*
X166842840Y-91141317D01*
X167054531Y-91255877D01*
X167054545Y-91255883D01*
X167282207Y-91334041D01*
X167390000Y-91352028D01*
X167390000Y-90365345D01*
X167418819Y-90382871D01*
X167564404Y-90423662D01*
X167677622Y-90423662D01*
X167789783Y-90408246D01*
X167890000Y-90364715D01*
X167890000Y-91352027D01*
X167997792Y-91334041D01*
X168225454Y-91255883D01*
X168225468Y-91255877D01*
X168437159Y-91141317D01*
X168437168Y-91141311D01*
X168627116Y-90993468D01*
X168627126Y-90993459D01*
X168790148Y-90816372D01*
X168790156Y-90816361D01*
X168921813Y-90614846D01*
X169018508Y-90394402D01*
X169077599Y-90161057D01*
X169077599Y-90161056D01*
X169080697Y-90123662D01*
X168134852Y-90123662D01*
X168183559Y-89986615D01*
X168193877Y-89835776D01*
X168163116Y-89687747D01*
X168129910Y-89623662D01*
X169080697Y-89623662D01*
X169077599Y-89586267D01*
X169077599Y-89586266D01*
X169018508Y-89352921D01*
X168921813Y-89132477D01*
X168790156Y-88930962D01*
X168790148Y-88930951D01*
X168627126Y-88753864D01*
X168627116Y-88753855D01*
X168437168Y-88606012D01*
X168437159Y-88606006D01*
X168225468Y-88491446D01*
X168225454Y-88491440D01*
X167997791Y-88413281D01*
X167890000Y-88395295D01*
X167890000Y-89381978D01*
X167861181Y-89364453D01*
X167715596Y-89323662D01*
X167602378Y-89323662D01*
X167490217Y-89339078D01*
X167390000Y-89382608D01*
X167390000Y-88395295D01*
X167389999Y-88395295D01*
X167282208Y-88413281D01*
X167054545Y-88491440D01*
X167054531Y-88491446D01*
X166842840Y-88606006D01*
X166842831Y-88606012D01*
X166652883Y-88753855D01*
X166652873Y-88753864D01*
X166489851Y-88930951D01*
X166489843Y-88930962D01*
X166478881Y-88947740D01*
X166425732Y-88993094D01*
X166356501Y-89002514D01*
X166293166Y-88973009D01*
X166271266Y-88947733D01*
X166256886Y-88925722D01*
X166092900Y-88747586D01*
X165938559Y-88627457D01*
X165901832Y-88598871D01*
X165901827Y-88598868D01*
X165688894Y-88483635D01*
X165688891Y-88483634D01*
X165688888Y-88483632D01*
X165688882Y-88483630D01*
X165688880Y-88483629D01*
X165459886Y-88405014D01*
X165274349Y-88374054D01*
X165221062Y-88365162D01*
X164978938Y-88365162D01*
X164957682Y-88368709D01*
X164740113Y-88405014D01*
X164511119Y-88483629D01*
X164511105Y-88483635D01*
X164298172Y-88598868D01*
X164298169Y-88598870D01*
X164163755Y-88703489D01*
X164098761Y-88729131D01*
X164030221Y-88715564D01*
X163979896Y-88667096D01*
X163971415Y-88648977D01*
X163963389Y-88627458D01*
X163875761Y-88510401D01*
X163758704Y-88422773D01*
X163621703Y-88371673D01*
X163561154Y-88365162D01*
X163561138Y-88365162D01*
X161558862Y-88365162D01*
X161558845Y-88365162D01*
X161498297Y-88371673D01*
X161498295Y-88371673D01*
X161361295Y-88422773D01*
X161244239Y-88510401D01*
X161156611Y-88627457D01*
X161105511Y-88764457D01*
X161105511Y-88764459D01*
X161099000Y-88825007D01*
X161099000Y-90922316D01*
X151929131Y-90922316D01*
X152127057Y-90724390D01*
X152127056Y-90724389D01*
X152080229Y-90687943D01*
X151861614Y-90569635D01*
X151861603Y-90569630D01*
X151626493Y-90488916D01*
X151381293Y-90448000D01*
X151132707Y-90448000D01*
X150887506Y-90488916D01*
X150652396Y-90569630D01*
X150652390Y-90569632D01*
X150433761Y-90687949D01*
X150386942Y-90724388D01*
X150386942Y-90724390D01*
X151168768Y-91506215D01*
X151122862Y-91513135D01*
X151000643Y-91571993D01*
X150901202Y-91664260D01*
X150833375Y-91781740D01*
X150815500Y-91860052D01*
X150033564Y-91078116D01*
X149933267Y-91231632D01*
X149833412Y-91459282D01*
X149772387Y-91700261D01*
X149772385Y-91700270D01*
X149751859Y-91947994D01*
X149751859Y-91948005D01*
X147871648Y-91948005D01*
X149047062Y-90772591D01*
X149062823Y-90759262D01*
X149065215Y-90757559D01*
X149129165Y-90690489D01*
X149157165Y-90662490D01*
X149164177Y-90653995D01*
X149167094Y-90650709D01*
X149211303Y-90604346D01*
X149230829Y-90573961D01*
X149235182Y-90568000D01*
X149258179Y-90540149D01*
X149288873Y-90483933D01*
X149291126Y-90480137D01*
X149302021Y-90463185D01*
X149325756Y-90426254D01*
X149339183Y-90392712D01*
X149342322Y-90386049D01*
X149359635Y-90354346D01*
X149379142Y-90293319D01*
X149380623Y-90289199D01*
X149404436Y-90229721D01*
X149411272Y-90194249D01*
X149413094Y-90187106D01*
X149424094Y-90152700D01*
X149431695Y-90089114D01*
X149432377Y-90084742D01*
X149444500Y-90021849D01*
X149444500Y-89985730D01*
X149444939Y-89978363D01*
X149445281Y-89975500D01*
X149449227Y-89942500D01*
X149444658Y-89878615D01*
X149444500Y-89874191D01*
X149444500Y-80480500D01*
X149464185Y-80413461D01*
X149516989Y-80367706D01*
X149568500Y-80356500D01*
X151662705Y-80356500D01*
X151729744Y-80376185D01*
X151733819Y-80378918D01*
X151743251Y-80385523D01*
X151796401Y-80410307D01*
X151848840Y-80456479D01*
X151867992Y-80523673D01*
X151847776Y-80590554D01*
X151796401Y-80635071D01*
X151747517Y-80657865D01*
X151561179Y-80788342D01*
X151400342Y-80949179D01*
X151269865Y-81135517D01*
X151173734Y-81341673D01*
X151173730Y-81341682D01*
X151121127Y-81537999D01*
X151121128Y-81538000D01*
X152084314Y-81538000D01*
X152072359Y-81549955D01*
X152014835Y-81662852D01*
X151995014Y-81788000D01*
X152014835Y-81913148D01*
X152072359Y-82026045D01*
X152084314Y-82038000D01*
X151121128Y-82038000D01*
X151173730Y-82234317D01*
X151173734Y-82234326D01*
X151269865Y-82440482D01*
X151400342Y-82626820D01*
X151561179Y-82787657D01*
X151747517Y-82918134D01*
X151806457Y-82945618D01*
X151858896Y-82991790D01*
X151878048Y-83058984D01*
X151857832Y-83125865D01*
X151806457Y-83170382D01*
X151747517Y-83197865D01*
X151561179Y-83328342D01*
X151400342Y-83489179D01*
X151269865Y-83675517D01*
X151173734Y-83881673D01*
X151173730Y-83881682D01*
X151121127Y-84077999D01*
X151121128Y-84078000D01*
X152084314Y-84078000D01*
X152072359Y-84089955D01*
X152014835Y-84202852D01*
X151995014Y-84328000D01*
X152014835Y-84453148D01*
X152072359Y-84566045D01*
X152084314Y-84578000D01*
X151121128Y-84578000D01*
X151173730Y-84774317D01*
X151173734Y-84774326D01*
X151269865Y-84980482D01*
X151400342Y-85166820D01*
X151561179Y-85327657D01*
X151747517Y-85458134D01*
X151806457Y-85485618D01*
X151858896Y-85531790D01*
X151878048Y-85598984D01*
X151857832Y-85665865D01*
X151806457Y-85710382D01*
X151747517Y-85737865D01*
X151561179Y-85868342D01*
X151400342Y-86029179D01*
X151269865Y-86215517D01*
X151173734Y-86421673D01*
X151173730Y-86421682D01*
X151121127Y-86617999D01*
X151121128Y-86618000D01*
X152084314Y-86618000D01*
X152072359Y-86629955D01*
X152014835Y-86742852D01*
X151995014Y-86868000D01*
X152014835Y-86993148D01*
X152072359Y-87106045D01*
X152084314Y-87118000D01*
X151121128Y-87118000D01*
X151173730Y-87314317D01*
X151173734Y-87314326D01*
X151269865Y-87520482D01*
X151400342Y-87706820D01*
X151561179Y-87867657D01*
X151747517Y-87998134D01*
X151953673Y-88094265D01*
X151953682Y-88094269D01*
X152149999Y-88146872D01*
X152150000Y-88146871D01*
X152150000Y-87183686D01*
X152161955Y-87195641D01*
X152274852Y-87253165D01*
X152368519Y-87268000D01*
X152431481Y-87268000D01*
X152525148Y-87253165D01*
X152638045Y-87195641D01*
X152650000Y-87183686D01*
X152650000Y-88146872D01*
X152846317Y-88094269D01*
X152846326Y-88094265D01*
X153052482Y-87998134D01*
X153238820Y-87867657D01*
X153399657Y-87706820D01*
X153530134Y-87520482D01*
X153626265Y-87314326D01*
X153626269Y-87314317D01*
X153678872Y-87118000D01*
X152715686Y-87118000D01*
X152727641Y-87106045D01*
X152785165Y-86993148D01*
X152804986Y-86868000D01*
X152785165Y-86742852D01*
X152727641Y-86629955D01*
X152715686Y-86618000D01*
X153678872Y-86618000D01*
X153678872Y-86617999D01*
X153626269Y-86421682D01*
X153626265Y-86421673D01*
X153530134Y-86215517D01*
X153399657Y-86029179D01*
X153238820Y-85868342D01*
X153052481Y-85737865D01*
X153052479Y-85737864D01*
X152993543Y-85710382D01*
X152941103Y-85664210D01*
X152921951Y-85597017D01*
X152942166Y-85530136D01*
X152993543Y-85485618D01*
X153052479Y-85458135D01*
X153052481Y-85458134D01*
X153238820Y-85327657D01*
X153399657Y-85166820D01*
X153530134Y-84980482D01*
X153626265Y-84774326D01*
X153626269Y-84774317D01*
X153678872Y-84578000D01*
X152715686Y-84578000D01*
X152727641Y-84566045D01*
X152785165Y-84453148D01*
X152804986Y-84328000D01*
X152785165Y-84202852D01*
X152727641Y-84089955D01*
X152715686Y-84078000D01*
X153678872Y-84078000D01*
X153678872Y-84077999D01*
X153652519Y-83979650D01*
X161099000Y-83979650D01*
X161105511Y-84040198D01*
X161105511Y-84040200D01*
X161135672Y-84121061D01*
X161156611Y-84177200D01*
X161244239Y-84294257D01*
X161361296Y-84381885D01*
X161498299Y-84432985D01*
X161525550Y-84435914D01*
X161558845Y-84439495D01*
X161558862Y-84439496D01*
X163561138Y-84439496D01*
X163561154Y-84439495D01*
X163588192Y-84436587D01*
X163621701Y-84432985D01*
X163758704Y-84381885D01*
X163875761Y-84294257D01*
X163963389Y-84177200D01*
X163971413Y-84155686D01*
X164013281Y-84099756D01*
X164078745Y-84075338D01*
X164147018Y-84090189D01*
X164163756Y-84101169D01*
X164294397Y-84202852D01*
X164298170Y-84205788D01*
X164511112Y-84321026D01*
X164541587Y-84331488D01*
X164740113Y-84399643D01*
X164740115Y-84399643D01*
X164740117Y-84399644D01*
X164978938Y-84439496D01*
X164978939Y-84439496D01*
X165221061Y-84439496D01*
X165221062Y-84439496D01*
X165459883Y-84399644D01*
X165688888Y-84321026D01*
X165901830Y-84205788D01*
X166092900Y-84057072D01*
X166256886Y-83878936D01*
X166271266Y-83856924D01*
X166324410Y-83811567D01*
X166393641Y-83802142D01*
X166456978Y-83831641D01*
X166478883Y-83856919D01*
X166489848Y-83873702D01*
X166489851Y-83873706D01*
X166652873Y-84050793D01*
X166652883Y-84050802D01*
X166842831Y-84198645D01*
X166842840Y-84198651D01*
X167054531Y-84313211D01*
X167054545Y-84313217D01*
X167282207Y-84391375D01*
X167390000Y-84409362D01*
X167390000Y-83422679D01*
X167418819Y-83440205D01*
X167564404Y-83480996D01*
X167677622Y-83480996D01*
X167789783Y-83465580D01*
X167890000Y-83422049D01*
X167890000Y-84409361D01*
X167997792Y-84391375D01*
X168225454Y-84313217D01*
X168225468Y-84313211D01*
X168437159Y-84198651D01*
X168437168Y-84198645D01*
X168627116Y-84050802D01*
X168627126Y-84050793D01*
X168790148Y-83873706D01*
X168790156Y-83873695D01*
X168921813Y-83672180D01*
X169018508Y-83451736D01*
X169077599Y-83218391D01*
X169077599Y-83218390D01*
X169080697Y-83180996D01*
X168134852Y-83180996D01*
X168183559Y-83043949D01*
X168193877Y-82893110D01*
X168163116Y-82745081D01*
X168129910Y-82680996D01*
X169080697Y-82680996D01*
X169077599Y-82643601D01*
X169077599Y-82643600D01*
X169018508Y-82410255D01*
X168921813Y-82189811D01*
X168790156Y-81988296D01*
X168790148Y-81988285D01*
X168627126Y-81811198D01*
X168627116Y-81811189D01*
X168437168Y-81663346D01*
X168437159Y-81663340D01*
X168225468Y-81548780D01*
X168225454Y-81548774D01*
X167997791Y-81470615D01*
X167890000Y-81452629D01*
X167890000Y-82439312D01*
X167861181Y-82421787D01*
X167715596Y-82380996D01*
X167602378Y-82380996D01*
X167490217Y-82396412D01*
X167390000Y-82439942D01*
X167390000Y-81452629D01*
X167389999Y-81452629D01*
X167282208Y-81470615D01*
X167054545Y-81548774D01*
X167054531Y-81548780D01*
X166842840Y-81663340D01*
X166842831Y-81663346D01*
X166652883Y-81811189D01*
X166652873Y-81811198D01*
X166489851Y-81988285D01*
X166489843Y-81988296D01*
X166478881Y-82005074D01*
X166425732Y-82050428D01*
X166356501Y-82059848D01*
X166293166Y-82030343D01*
X166271266Y-82005067D01*
X166260302Y-81988285D01*
X166256886Y-81983056D01*
X166092900Y-81804920D01*
X165966196Y-81706302D01*
X165901832Y-81656205D01*
X165901827Y-81656202D01*
X165688894Y-81540969D01*
X165688891Y-81540968D01*
X165688888Y-81540966D01*
X165688882Y-81540964D01*
X165688880Y-81540963D01*
X165459886Y-81462348D01*
X165256401Y-81428393D01*
X165221062Y-81422496D01*
X164978938Y-81422496D01*
X164943599Y-81428393D01*
X164740113Y-81462348D01*
X164511119Y-81540963D01*
X164511105Y-81540969D01*
X164298172Y-81656202D01*
X164298169Y-81656204D01*
X164163755Y-81760823D01*
X164098761Y-81786465D01*
X164030221Y-81772898D01*
X163979896Y-81724430D01*
X163971415Y-81706311D01*
X163963389Y-81684792D01*
X163875761Y-81567735D01*
X163758704Y-81480107D01*
X163737998Y-81472384D01*
X163621703Y-81429007D01*
X163561154Y-81422496D01*
X163561138Y-81422496D01*
X161558862Y-81422496D01*
X161558845Y-81422496D01*
X161498297Y-81429007D01*
X161498295Y-81429007D01*
X161361295Y-81480107D01*
X161244239Y-81567735D01*
X161156611Y-81684791D01*
X161105511Y-81821791D01*
X161105511Y-81821793D01*
X161099000Y-81882341D01*
X161099000Y-83979650D01*
X153652519Y-83979650D01*
X153626269Y-83881682D01*
X153626265Y-83881673D01*
X153530134Y-83675517D01*
X153399657Y-83489179D01*
X153238820Y-83328342D01*
X153052481Y-83197865D01*
X153052479Y-83197864D01*
X152993543Y-83170382D01*
X152941103Y-83124210D01*
X152921951Y-83057017D01*
X152942166Y-82990136D01*
X152993543Y-82945618D01*
X153052479Y-82918135D01*
X153052481Y-82918134D01*
X153238820Y-82787657D01*
X153399657Y-82626820D01*
X153530134Y-82440482D01*
X153626265Y-82234326D01*
X153626269Y-82234317D01*
X153678872Y-82038000D01*
X152715686Y-82038000D01*
X152727641Y-82026045D01*
X152785165Y-81913148D01*
X152804986Y-81788000D01*
X152785165Y-81662852D01*
X152727641Y-81549955D01*
X152715686Y-81538000D01*
X153678872Y-81538000D01*
X153678872Y-81537999D01*
X153626269Y-81341682D01*
X153626265Y-81341673D01*
X153530134Y-81135517D01*
X153399657Y-80949179D01*
X153238820Y-80788342D01*
X153052481Y-80657865D01*
X153052479Y-80657864D01*
X153003599Y-80635071D01*
X152951159Y-80588899D01*
X152932007Y-80521706D01*
X152952223Y-80454824D01*
X153003599Y-80410307D01*
X153056749Y-80385523D01*
X153244300Y-80254198D01*
X153406198Y-80092300D01*
X153537523Y-79904749D01*
X153634284Y-79697243D01*
X153693543Y-79476087D01*
X153713498Y-79248000D01*
X153693543Y-79019913D01*
X153634284Y-78798757D01*
X153620245Y-78768651D01*
X153537524Y-78591254D01*
X153537523Y-78591252D01*
X153537523Y-78591251D01*
X153406198Y-78403700D01*
X153244300Y-78241802D01*
X153056749Y-78110477D01*
X153045003Y-78105000D01*
X153013655Y-78090382D01*
X152961215Y-78044210D01*
X152942063Y-77977017D01*
X152962278Y-77910136D01*
X153013655Y-77865618D01*
X153016882Y-77864112D01*
X153056749Y-77845523D01*
X153244300Y-77714198D01*
X153406198Y-77552300D01*
X153537523Y-77364749D01*
X153634284Y-77157243D01*
X153666508Y-77036984D01*
X161099000Y-77036984D01*
X161105511Y-77097532D01*
X161105511Y-77097534D01*
X161145690Y-77205254D01*
X161156611Y-77234534D01*
X161244239Y-77351591D01*
X161361296Y-77439219D01*
X161498299Y-77490319D01*
X161525550Y-77493248D01*
X161558845Y-77496829D01*
X161558862Y-77496830D01*
X163561138Y-77496830D01*
X163561154Y-77496829D01*
X163588192Y-77493921D01*
X163621701Y-77490319D01*
X163758704Y-77439219D01*
X163875761Y-77351591D01*
X163963389Y-77234534D01*
X163971413Y-77213020D01*
X164013281Y-77157090D01*
X164078745Y-77132672D01*
X164147018Y-77147523D01*
X164163754Y-77158501D01*
X164209465Y-77194080D01*
X164288992Y-77255979D01*
X164298170Y-77263122D01*
X164511112Y-77378360D01*
X164630026Y-77419183D01*
X164740113Y-77456977D01*
X164740115Y-77456977D01*
X164740117Y-77456978D01*
X164978938Y-77496830D01*
X164978939Y-77496830D01*
X165221061Y-77496830D01*
X165221062Y-77496830D01*
X165459883Y-77456978D01*
X165688888Y-77378360D01*
X165901830Y-77263122D01*
X166092900Y-77114406D01*
X166256886Y-76936270D01*
X166271266Y-76914258D01*
X166324410Y-76868901D01*
X166393641Y-76859476D01*
X166456978Y-76888975D01*
X166478883Y-76914253D01*
X166489848Y-76931036D01*
X166489851Y-76931040D01*
X166652873Y-77108127D01*
X166652883Y-77108136D01*
X166842831Y-77255979D01*
X166842840Y-77255985D01*
X167054531Y-77370545D01*
X167054545Y-77370551D01*
X167282207Y-77448709D01*
X167390000Y-77466696D01*
X167390000Y-76480013D01*
X167418819Y-76497539D01*
X167564404Y-76538330D01*
X167677622Y-76538330D01*
X167789783Y-76522914D01*
X167890000Y-76479383D01*
X167890000Y-77466695D01*
X167997792Y-77448709D01*
X168225454Y-77370551D01*
X168225468Y-77370545D01*
X168437159Y-77255985D01*
X168437168Y-77255979D01*
X168627116Y-77108136D01*
X168627126Y-77108127D01*
X168790148Y-76931040D01*
X168790158Y-76931027D01*
X168921813Y-76729514D01*
X169018508Y-76509070D01*
X169077599Y-76275725D01*
X169077599Y-76275724D01*
X169080697Y-76238330D01*
X168134852Y-76238330D01*
X168183559Y-76101283D01*
X168193877Y-75950444D01*
X168163116Y-75802415D01*
X168129910Y-75738330D01*
X169080697Y-75738330D01*
X169077599Y-75700935D01*
X169077599Y-75700934D01*
X169018508Y-75467589D01*
X168921813Y-75247145D01*
X168790156Y-75045630D01*
X168790148Y-75045619D01*
X168627126Y-74868532D01*
X168627116Y-74868523D01*
X168437168Y-74720680D01*
X168437159Y-74720674D01*
X168225468Y-74606114D01*
X168225454Y-74606108D01*
X167997791Y-74527949D01*
X167890000Y-74509963D01*
X167890000Y-75496646D01*
X167861181Y-75479121D01*
X167715596Y-75438330D01*
X167602378Y-75438330D01*
X167490217Y-75453746D01*
X167390000Y-75497276D01*
X167390000Y-74509963D01*
X167389999Y-74509963D01*
X167282208Y-74527949D01*
X167054545Y-74606108D01*
X167054531Y-74606114D01*
X166842840Y-74720674D01*
X166842831Y-74720680D01*
X166652883Y-74868523D01*
X166652873Y-74868532D01*
X166489851Y-75045619D01*
X166489843Y-75045630D01*
X166478881Y-75062408D01*
X166425732Y-75107762D01*
X166356501Y-75117182D01*
X166293166Y-75087677D01*
X166271266Y-75062401D01*
X166260302Y-75045619D01*
X166256886Y-75040390D01*
X166092900Y-74862254D01*
X165953173Y-74753500D01*
X165901832Y-74713539D01*
X165901827Y-74713536D01*
X165688894Y-74598303D01*
X165688891Y-74598302D01*
X165688888Y-74598300D01*
X165688882Y-74598298D01*
X165688880Y-74598297D01*
X165459886Y-74519682D01*
X165260080Y-74486341D01*
X165221062Y-74479830D01*
X164978938Y-74479830D01*
X164939920Y-74486341D01*
X164740113Y-74519682D01*
X164511119Y-74598297D01*
X164511105Y-74598303D01*
X164298172Y-74713536D01*
X164298169Y-74713538D01*
X164163755Y-74818157D01*
X164098761Y-74843799D01*
X164030221Y-74830232D01*
X163979896Y-74781764D01*
X163971415Y-74763645D01*
X163963389Y-74742126D01*
X163875761Y-74625069D01*
X163758704Y-74537441D01*
X163758704Y-74537440D01*
X163621703Y-74486341D01*
X163561154Y-74479830D01*
X163561138Y-74479830D01*
X161558862Y-74479830D01*
X161558845Y-74479830D01*
X161498297Y-74486341D01*
X161498295Y-74486341D01*
X161361295Y-74537441D01*
X161244239Y-74625069D01*
X161156611Y-74742125D01*
X161105511Y-74879125D01*
X161105511Y-74879127D01*
X161099000Y-74939675D01*
X161099000Y-77036984D01*
X153666508Y-77036984D01*
X153693543Y-76936087D01*
X153713498Y-76708000D01*
X153693543Y-76479913D01*
X153634284Y-76258757D01*
X153631219Y-76252185D01*
X153582256Y-76147181D01*
X153537523Y-76051251D01*
X153406198Y-75863700D01*
X153244300Y-75701802D01*
X153056749Y-75570477D01*
X153045003Y-75565000D01*
X153013655Y-75550382D01*
X152961215Y-75504210D01*
X152942063Y-75437017D01*
X152962278Y-75370136D01*
X153013655Y-75325618D01*
X153016882Y-75324112D01*
X153056749Y-75305523D01*
X153244300Y-75174198D01*
X153406198Y-75012300D01*
X153537523Y-74824749D01*
X153634284Y-74617243D01*
X153693543Y-74396087D01*
X153713498Y-74168000D01*
X153693543Y-73939913D01*
X153634284Y-73718757D01*
X153537523Y-73511251D01*
X153406198Y-73323700D01*
X153244300Y-73161802D01*
X153056749Y-73030477D01*
X153013655Y-73010382D01*
X152961215Y-72964210D01*
X152942063Y-72897017D01*
X152962278Y-72830136D01*
X153013655Y-72785618D01*
X153016882Y-72784112D01*
X153056749Y-72765523D01*
X153244300Y-72634198D01*
X153406198Y-72472300D01*
X153537523Y-72284749D01*
X153634284Y-72077243D01*
X153693543Y-71856087D01*
X153713498Y-71628000D01*
X153693543Y-71399913D01*
X153634284Y-71178757D01*
X153537523Y-70971251D01*
X153406198Y-70783700D01*
X153244300Y-70621802D01*
X153056749Y-70490477D01*
X153013655Y-70470382D01*
X152961215Y-70424210D01*
X152942063Y-70357017D01*
X152962278Y-70290136D01*
X153013655Y-70245618D01*
X153016882Y-70244112D01*
X153056749Y-70225523D01*
X153244129Y-70094318D01*
X161099000Y-70094318D01*
X161105511Y-70154866D01*
X161105511Y-70154868D01*
X161148588Y-70270359D01*
X161156611Y-70291868D01*
X161244239Y-70408925D01*
X161361296Y-70496553D01*
X161498299Y-70547653D01*
X161525550Y-70550582D01*
X161558845Y-70554163D01*
X161558862Y-70554164D01*
X163561138Y-70554164D01*
X163561154Y-70554163D01*
X163588192Y-70551255D01*
X163621701Y-70547653D01*
X163758704Y-70496553D01*
X163875761Y-70408925D01*
X163963389Y-70291868D01*
X163971413Y-70270354D01*
X164013281Y-70214424D01*
X164078745Y-70190006D01*
X164147018Y-70204857D01*
X164163756Y-70215837D01*
X164291802Y-70315500D01*
X164298170Y-70320456D01*
X164511112Y-70435694D01*
X164612154Y-70470382D01*
X164740113Y-70514311D01*
X164740115Y-70514311D01*
X164740117Y-70514312D01*
X164978938Y-70554164D01*
X164978939Y-70554164D01*
X165221061Y-70554164D01*
X165221062Y-70554164D01*
X165459883Y-70514312D01*
X165688888Y-70435694D01*
X165901830Y-70320456D01*
X166092900Y-70171740D01*
X166256886Y-69993604D01*
X166271266Y-69971592D01*
X166324410Y-69926235D01*
X166393641Y-69916810D01*
X166456978Y-69946309D01*
X166478883Y-69971587D01*
X166489848Y-69988370D01*
X166489851Y-69988374D01*
X166652873Y-70165461D01*
X166652883Y-70165470D01*
X166842831Y-70313313D01*
X166842840Y-70313319D01*
X167054531Y-70427879D01*
X167054545Y-70427885D01*
X167282207Y-70506043D01*
X167390000Y-70524030D01*
X167390000Y-69537347D01*
X167418819Y-69554873D01*
X167564404Y-69595664D01*
X167677622Y-69595664D01*
X167789783Y-69580248D01*
X167890000Y-69536717D01*
X167890000Y-70524029D01*
X167997792Y-70506043D01*
X168225454Y-70427885D01*
X168225468Y-70427879D01*
X168437159Y-70313319D01*
X168437168Y-70313313D01*
X168627116Y-70165470D01*
X168627126Y-70165461D01*
X168790148Y-69988374D01*
X168790156Y-69988363D01*
X168921813Y-69786848D01*
X169018508Y-69566404D01*
X169077599Y-69333059D01*
X169077599Y-69333058D01*
X169080697Y-69295664D01*
X168134852Y-69295664D01*
X168183559Y-69158617D01*
X168193877Y-69007778D01*
X168163116Y-68859749D01*
X168129910Y-68795664D01*
X169080697Y-68795664D01*
X169077599Y-68758269D01*
X169077599Y-68758268D01*
X169018508Y-68524923D01*
X168921813Y-68304479D01*
X168790156Y-68102964D01*
X168790148Y-68102953D01*
X168627126Y-67925866D01*
X168627116Y-67925857D01*
X168437168Y-67778014D01*
X168437159Y-67778008D01*
X168225468Y-67663448D01*
X168225454Y-67663442D01*
X167997791Y-67585283D01*
X167890000Y-67567297D01*
X167890000Y-68553980D01*
X167861181Y-68536455D01*
X167715596Y-68495664D01*
X167602378Y-68495664D01*
X167490217Y-68511080D01*
X167390000Y-68554610D01*
X167390000Y-67567297D01*
X167389999Y-67567297D01*
X167282208Y-67585283D01*
X167054545Y-67663442D01*
X167054531Y-67663448D01*
X166842840Y-67778008D01*
X166842831Y-67778014D01*
X166652883Y-67925857D01*
X166652873Y-67925866D01*
X166489851Y-68102953D01*
X166489843Y-68102964D01*
X166478881Y-68119742D01*
X166425732Y-68165096D01*
X166356501Y-68174516D01*
X166293166Y-68145011D01*
X166271266Y-68119735D01*
X166260302Y-68102953D01*
X166256886Y-68097724D01*
X166092900Y-67919588D01*
X165966196Y-67820970D01*
X165901832Y-67770873D01*
X165901827Y-67770870D01*
X165688894Y-67655637D01*
X165688891Y-67655636D01*
X165688888Y-67655634D01*
X165688882Y-67655632D01*
X165688880Y-67655631D01*
X165459886Y-67577016D01*
X165280767Y-67547126D01*
X165221062Y-67537164D01*
X164978938Y-67537164D01*
X164965185Y-67539459D01*
X164740113Y-67577016D01*
X164511119Y-67655631D01*
X164511105Y-67655637D01*
X164298172Y-67770870D01*
X164298169Y-67770872D01*
X164163755Y-67875491D01*
X164098761Y-67901133D01*
X164030221Y-67887566D01*
X163979896Y-67839098D01*
X163971415Y-67820979D01*
X163963389Y-67799460D01*
X163875761Y-67682403D01*
X163758704Y-67594775D01*
X163736754Y-67586588D01*
X163621703Y-67543675D01*
X163561154Y-67537164D01*
X163561138Y-67537164D01*
X161558862Y-67537164D01*
X161558845Y-67537164D01*
X161498297Y-67543675D01*
X161498295Y-67543675D01*
X161361295Y-67594775D01*
X161244239Y-67682403D01*
X161156611Y-67799459D01*
X161105511Y-67936459D01*
X161105511Y-67936461D01*
X161099000Y-67997009D01*
X161099000Y-70094318D01*
X153244129Y-70094318D01*
X153244300Y-70094198D01*
X153406198Y-69932300D01*
X153537523Y-69744749D01*
X153634284Y-69537243D01*
X153693543Y-69316087D01*
X153713498Y-69088000D01*
X153712485Y-69076427D01*
X153706479Y-69007778D01*
X153693543Y-68859913D01*
X153634284Y-68638757D01*
X153602835Y-68571315D01*
X153580772Y-68524000D01*
X153537523Y-68431251D01*
X153406198Y-68243700D01*
X153244300Y-68081802D01*
X153056749Y-67950477D01*
X153045312Y-67945144D01*
X153013655Y-67930382D01*
X152961215Y-67884210D01*
X152942063Y-67817017D01*
X152962278Y-67750136D01*
X153013655Y-67705618D01*
X153019589Y-67702851D01*
X153056749Y-67685523D01*
X153244300Y-67554198D01*
X153406198Y-67392300D01*
X153537523Y-67204749D01*
X153634284Y-66997243D01*
X153693543Y-66776087D01*
X153713498Y-66548000D01*
X153709979Y-66507783D01*
X153705018Y-66451070D01*
X153693543Y-66319913D01*
X153634284Y-66098757D01*
X153628430Y-66086204D01*
X153537524Y-65891254D01*
X153537523Y-65891252D01*
X153537523Y-65891251D01*
X153406198Y-65703700D01*
X153244300Y-65541802D01*
X153056749Y-65410477D01*
X153013655Y-65390382D01*
X152961215Y-65344210D01*
X152942063Y-65277017D01*
X152962278Y-65210136D01*
X153013655Y-65165618D01*
X153016882Y-65164112D01*
X153056749Y-65145523D01*
X153244300Y-65014198D01*
X153406198Y-64852300D01*
X153537523Y-64664749D01*
X153634284Y-64457243D01*
X153693543Y-64236087D01*
X153713498Y-64008000D01*
X153693543Y-63779913D01*
X153634284Y-63558757D01*
X153616591Y-63520815D01*
X153568985Y-63418722D01*
X153537523Y-63351251D01*
X153406198Y-63163700D01*
X153394150Y-63151652D01*
X161099000Y-63151652D01*
X161105511Y-63212200D01*
X161105511Y-63212202D01*
X161146469Y-63322011D01*
X161156611Y-63349202D01*
X161244239Y-63466259D01*
X161361296Y-63553887D01*
X161498299Y-63604987D01*
X161525550Y-63607916D01*
X161558845Y-63611497D01*
X161558862Y-63611498D01*
X163561138Y-63611498D01*
X163561154Y-63611497D01*
X163588192Y-63608589D01*
X163621701Y-63604987D01*
X163758704Y-63553887D01*
X163875761Y-63466259D01*
X163963389Y-63349202D01*
X163971413Y-63327688D01*
X164013281Y-63271758D01*
X164078745Y-63247340D01*
X164147018Y-63262191D01*
X164163756Y-63273171D01*
X164288992Y-63370647D01*
X164298170Y-63377790D01*
X164511112Y-63493028D01*
X164630026Y-63533851D01*
X164740113Y-63571645D01*
X164740115Y-63571645D01*
X164740117Y-63571646D01*
X164978938Y-63611498D01*
X164978939Y-63611498D01*
X165221061Y-63611498D01*
X165221062Y-63611498D01*
X165459883Y-63571646D01*
X165688888Y-63493028D01*
X165901830Y-63377790D01*
X166092900Y-63229074D01*
X166256886Y-63050938D01*
X166271266Y-63028926D01*
X166324410Y-62983569D01*
X166393641Y-62974144D01*
X166456978Y-63003643D01*
X166478883Y-63028921D01*
X166489848Y-63045704D01*
X166489851Y-63045708D01*
X166652873Y-63222795D01*
X166652883Y-63222804D01*
X166842831Y-63370647D01*
X166842840Y-63370653D01*
X167054531Y-63485213D01*
X167054545Y-63485219D01*
X167282207Y-63563377D01*
X167390000Y-63581364D01*
X167390000Y-62594681D01*
X167418819Y-62612207D01*
X167564404Y-62652998D01*
X167677622Y-62652998D01*
X167789783Y-62637582D01*
X167890000Y-62594051D01*
X167890000Y-63581363D01*
X167997792Y-63563377D01*
X168225454Y-63485219D01*
X168225468Y-63485213D01*
X168437159Y-63370653D01*
X168437168Y-63370647D01*
X168627116Y-63222804D01*
X168627126Y-63222795D01*
X168790148Y-63045708D01*
X168790156Y-63045697D01*
X168921813Y-62844182D01*
X169018508Y-62623738D01*
X169077599Y-62390393D01*
X169077599Y-62390392D01*
X169080697Y-62352998D01*
X168134852Y-62352998D01*
X168183559Y-62215951D01*
X168193877Y-62065112D01*
X168163116Y-61917083D01*
X168129910Y-61852998D01*
X169080697Y-61852998D01*
X169077599Y-61815603D01*
X169077599Y-61815602D01*
X169018508Y-61582257D01*
X168921813Y-61361813D01*
X168790156Y-61160298D01*
X168790148Y-61160287D01*
X168627126Y-60983200D01*
X168627116Y-60983191D01*
X168437168Y-60835348D01*
X168437159Y-60835342D01*
X168225468Y-60720782D01*
X168225454Y-60720776D01*
X167997791Y-60642617D01*
X167890000Y-60624631D01*
X167890000Y-61611314D01*
X167861181Y-61593789D01*
X167715596Y-61552998D01*
X167602378Y-61552998D01*
X167490217Y-61568414D01*
X167390000Y-61611944D01*
X167390000Y-60624631D01*
X167389999Y-60624631D01*
X167282208Y-60642617D01*
X167054545Y-60720776D01*
X167054531Y-60720782D01*
X166842840Y-60835342D01*
X166842831Y-60835348D01*
X166652883Y-60983191D01*
X166652873Y-60983200D01*
X166489851Y-61160287D01*
X166489843Y-61160298D01*
X166478881Y-61177076D01*
X166425732Y-61222430D01*
X166356501Y-61231850D01*
X166293166Y-61202345D01*
X166271266Y-61177069D01*
X166260302Y-61160287D01*
X166256886Y-61155058D01*
X166092900Y-60976922D01*
X165966196Y-60878304D01*
X165901832Y-60828207D01*
X165901827Y-60828204D01*
X165688894Y-60712971D01*
X165688891Y-60712970D01*
X165688888Y-60712968D01*
X165688882Y-60712966D01*
X165688880Y-60712965D01*
X165459886Y-60634350D01*
X165244535Y-60598415D01*
X165221062Y-60594498D01*
X164978938Y-60594498D01*
X164955465Y-60598415D01*
X164740113Y-60634350D01*
X164511119Y-60712965D01*
X164511105Y-60712971D01*
X164298172Y-60828204D01*
X164298169Y-60828206D01*
X164163755Y-60932825D01*
X164098761Y-60958467D01*
X164030221Y-60944900D01*
X163979896Y-60896432D01*
X163971415Y-60878313D01*
X163963389Y-60856794D01*
X163875761Y-60739737D01*
X163758704Y-60652109D01*
X163621703Y-60601009D01*
X163561154Y-60594498D01*
X163561138Y-60594498D01*
X161558862Y-60594498D01*
X161558845Y-60594498D01*
X161498297Y-60601009D01*
X161498295Y-60601009D01*
X161361295Y-60652109D01*
X161244239Y-60739737D01*
X161156611Y-60856793D01*
X161105511Y-60993793D01*
X161105511Y-60993795D01*
X161099000Y-61054343D01*
X161099000Y-63151652D01*
X153394150Y-63151652D01*
X153244300Y-63001802D01*
X153056749Y-62870477D01*
X153056743Y-62870474D01*
X153013653Y-62850380D01*
X152961214Y-62804207D01*
X152942063Y-62737014D01*
X152962280Y-62670133D01*
X153013654Y-62625618D01*
X153056749Y-62605523D01*
X153244300Y-62474198D01*
X153406198Y-62312300D01*
X153537523Y-62124749D01*
X153634284Y-61917243D01*
X153693543Y-61696087D01*
X153713498Y-61468000D01*
X153693543Y-61239913D01*
X153634284Y-61018757D01*
X153625685Y-61000317D01*
X153561801Y-60863316D01*
X153537523Y-60811251D01*
X153406198Y-60623700D01*
X153244300Y-60461802D01*
X153056749Y-60330477D01*
X153056743Y-60330474D01*
X153013653Y-60310380D01*
X152961214Y-60264207D01*
X152942063Y-60197014D01*
X152962280Y-60130133D01*
X153013654Y-60085618D01*
X153056749Y-60065523D01*
X153244300Y-59934198D01*
X153406198Y-59772300D01*
X153537523Y-59584749D01*
X153634284Y-59377243D01*
X153693543Y-59156087D01*
X153713498Y-58928000D01*
X153693543Y-58699913D01*
X153634284Y-58478757D01*
X153537523Y-58271251D01*
X153406198Y-58083700D01*
X153244300Y-57921802D01*
X153056749Y-57790477D01*
X153056743Y-57790474D01*
X153013653Y-57770380D01*
X152961214Y-57724207D01*
X152942063Y-57657014D01*
X152962280Y-57590133D01*
X153013654Y-57545618D01*
X153056749Y-57525523D01*
X153244300Y-57394198D01*
X153406198Y-57232300D01*
X153537523Y-57044749D01*
X153634284Y-56837243D01*
X153693543Y-56616087D01*
X153713498Y-56388000D01*
X153697836Y-56208986D01*
X161099000Y-56208986D01*
X161105511Y-56269534D01*
X161105511Y-56269536D01*
X161149697Y-56388000D01*
X161156611Y-56406536D01*
X161244239Y-56523593D01*
X161361296Y-56611221D01*
X161498299Y-56662321D01*
X161525550Y-56665250D01*
X161558845Y-56668831D01*
X161558862Y-56668832D01*
X163561138Y-56668832D01*
X163561154Y-56668831D01*
X163588192Y-56665923D01*
X163621701Y-56662321D01*
X163758704Y-56611221D01*
X163875761Y-56523593D01*
X163963389Y-56406536D01*
X163971413Y-56385022D01*
X164013281Y-56329092D01*
X164078745Y-56304674D01*
X164147018Y-56319525D01*
X164163756Y-56330505D01*
X164297509Y-56434610D01*
X164298170Y-56435124D01*
X164511112Y-56550362D01*
X164630026Y-56591185D01*
X164740113Y-56628979D01*
X164740115Y-56628979D01*
X164740117Y-56628980D01*
X164978938Y-56668832D01*
X164978939Y-56668832D01*
X165221061Y-56668832D01*
X165221062Y-56668832D01*
X165459883Y-56628980D01*
X165688888Y-56550362D01*
X165901830Y-56435124D01*
X166092900Y-56286408D01*
X166256886Y-56108272D01*
X166271266Y-56086260D01*
X166324410Y-56040903D01*
X166393641Y-56031478D01*
X166456978Y-56060977D01*
X166478883Y-56086255D01*
X166489848Y-56103038D01*
X166489851Y-56103042D01*
X166652873Y-56280129D01*
X166652883Y-56280138D01*
X166842831Y-56427981D01*
X166842840Y-56427987D01*
X167054531Y-56542547D01*
X167054545Y-56542553D01*
X167282207Y-56620711D01*
X167390000Y-56638698D01*
X167390000Y-55652015D01*
X167418819Y-55669541D01*
X167564404Y-55710332D01*
X167677622Y-55710332D01*
X167789783Y-55694916D01*
X167890000Y-55651385D01*
X167890000Y-56638697D01*
X167997792Y-56620711D01*
X168225454Y-56542553D01*
X168225468Y-56542547D01*
X168437159Y-56427987D01*
X168437168Y-56427981D01*
X168627116Y-56280138D01*
X168627126Y-56280129D01*
X168790148Y-56103042D01*
X168790156Y-56103031D01*
X168921813Y-55901516D01*
X169018508Y-55681072D01*
X169077599Y-55447727D01*
X169077599Y-55447726D01*
X169080697Y-55410332D01*
X168134852Y-55410332D01*
X168183559Y-55273285D01*
X168193877Y-55122446D01*
X168163116Y-54974417D01*
X168129910Y-54910332D01*
X169080697Y-54910332D01*
X169077599Y-54872937D01*
X169077599Y-54872936D01*
X169018508Y-54639591D01*
X168921813Y-54419147D01*
X168790156Y-54217632D01*
X168790148Y-54217621D01*
X168627126Y-54040534D01*
X168627116Y-54040525D01*
X168437168Y-53892682D01*
X168437159Y-53892676D01*
X168225468Y-53778116D01*
X168225454Y-53778110D01*
X167997791Y-53699951D01*
X167890000Y-53681965D01*
X167890000Y-54668648D01*
X167861181Y-54651123D01*
X167715596Y-54610332D01*
X167602378Y-54610332D01*
X167490217Y-54625748D01*
X167390000Y-54669278D01*
X167390000Y-53681965D01*
X167389999Y-53681965D01*
X167282208Y-53699951D01*
X167054545Y-53778110D01*
X167054531Y-53778116D01*
X166842840Y-53892676D01*
X166842831Y-53892682D01*
X166652883Y-54040525D01*
X166652873Y-54040534D01*
X166489851Y-54217621D01*
X166489843Y-54217632D01*
X166478881Y-54234410D01*
X166425732Y-54279764D01*
X166356501Y-54289184D01*
X166293166Y-54259679D01*
X166271266Y-54234403D01*
X166260302Y-54217621D01*
X166256886Y-54212392D01*
X166092900Y-54034256D01*
X165938559Y-53914127D01*
X165901832Y-53885541D01*
X165901827Y-53885538D01*
X165688894Y-53770305D01*
X165688891Y-53770304D01*
X165688888Y-53770302D01*
X165688882Y-53770300D01*
X165688880Y-53770299D01*
X165459886Y-53691684D01*
X165260080Y-53658343D01*
X165221062Y-53651832D01*
X164978938Y-53651832D01*
X164939920Y-53658343D01*
X164740113Y-53691684D01*
X164511119Y-53770299D01*
X164511105Y-53770305D01*
X164298172Y-53885538D01*
X164298169Y-53885540D01*
X164163755Y-53990159D01*
X164098761Y-54015801D01*
X164030221Y-54002234D01*
X163979896Y-53953766D01*
X163971415Y-53935647D01*
X163963389Y-53914128D01*
X163875761Y-53797071D01*
X163758704Y-53709443D01*
X163621703Y-53658343D01*
X163561154Y-53651832D01*
X163561138Y-53651832D01*
X161558862Y-53651832D01*
X161558845Y-53651832D01*
X161498297Y-53658343D01*
X161498295Y-53658343D01*
X161361295Y-53709443D01*
X161244239Y-53797071D01*
X161156611Y-53914127D01*
X161105511Y-54051127D01*
X161105511Y-54051129D01*
X161099000Y-54111677D01*
X161099000Y-56208986D01*
X153697836Y-56208986D01*
X153693543Y-56159913D01*
X153634284Y-55938757D01*
X153622896Y-55914336D01*
X153595736Y-55856091D01*
X153537523Y-55731251D01*
X153406198Y-55543700D01*
X153244300Y-55381802D01*
X153056749Y-55250477D01*
X153013655Y-55230382D01*
X152961215Y-55184210D01*
X152942063Y-55117017D01*
X152962278Y-55050136D01*
X153013655Y-55005618D01*
X153019754Y-55002774D01*
X153056749Y-54985523D01*
X153244300Y-54854198D01*
X153406198Y-54692300D01*
X153537523Y-54504749D01*
X153634284Y-54297243D01*
X153693543Y-54076087D01*
X153713498Y-53848000D01*
X153693543Y-53619913D01*
X153634284Y-53398757D01*
X153537523Y-53191251D01*
X153406198Y-53003700D01*
X153244300Y-52841802D01*
X153056749Y-52710477D01*
X153056745Y-52710475D01*
X152849249Y-52613718D01*
X152849238Y-52613714D01*
X152628089Y-52554457D01*
X152628081Y-52554456D01*
X152400002Y-52534502D01*
X152399998Y-52534502D01*
X152171918Y-52554456D01*
X152171910Y-52554457D01*
X151950761Y-52613714D01*
X151950750Y-52613718D01*
X151743254Y-52710475D01*
X151743252Y-52710476D01*
X151743249Y-52710477D01*
X151743251Y-52710477D01*
X151555700Y-52841802D01*
X151555698Y-52841803D01*
X151555695Y-52841806D01*
X151393806Y-53003695D01*
X151393803Y-53003698D01*
X151393802Y-53003700D01*
X151369617Y-53038240D01*
X151262476Y-53191252D01*
X151262475Y-53191254D01*
X151165718Y-53398750D01*
X151165714Y-53398761D01*
X151106457Y-53619910D01*
X151106456Y-53619918D01*
X151086502Y-53847998D01*
X151086502Y-53848001D01*
X151106456Y-54076081D01*
X151106457Y-54076089D01*
X151165714Y-54297238D01*
X151165718Y-54297249D01*
X151262475Y-54504745D01*
X151262477Y-54504749D01*
X151393802Y-54692300D01*
X151555700Y-54854198D01*
X151704620Y-54958473D01*
X151743251Y-54985523D01*
X151786345Y-55005618D01*
X151838784Y-55051791D01*
X151857936Y-55118984D01*
X151837720Y-55185865D01*
X151786345Y-55230382D01*
X151743251Y-55250476D01*
X151670761Y-55301235D01*
X151555700Y-55381802D01*
X151555698Y-55381803D01*
X151555695Y-55381806D01*
X151393806Y-55543695D01*
X151393803Y-55543698D01*
X151393802Y-55543700D01*
X151333969Y-55629150D01*
X151262476Y-55731252D01*
X151262475Y-55731254D01*
X151165718Y-55938750D01*
X151165714Y-55938761D01*
X151106457Y-56159910D01*
X151106456Y-56159918D01*
X151086502Y-56387998D01*
X151086502Y-56388001D01*
X151106456Y-56616081D01*
X151106457Y-56616089D01*
X151165714Y-56837238D01*
X151165718Y-56837249D01*
X151246213Y-57009870D01*
X151262477Y-57044749D01*
X151393802Y-57232300D01*
X151555700Y-57394198D01*
X151743250Y-57525522D01*
X151743251Y-57525523D01*
X151786345Y-57545618D01*
X151838784Y-57591791D01*
X151857936Y-57658984D01*
X151837720Y-57725865D01*
X151786345Y-57770382D01*
X151743251Y-57790476D01*
X151618126Y-57878090D01*
X151555700Y-57921802D01*
X151555698Y-57921803D01*
X151555695Y-57921806D01*
X151393806Y-58083695D01*
X151393803Y-58083698D01*
X151393802Y-58083700D01*
X151353548Y-58141189D01*
X151262476Y-58271252D01*
X151262475Y-58271254D01*
X151165718Y-58478750D01*
X151165714Y-58478761D01*
X151106457Y-58699910D01*
X151106456Y-58699918D01*
X151086502Y-58927998D01*
X151086502Y-58928001D01*
X151106456Y-59156081D01*
X151106457Y-59156089D01*
X151165714Y-59377238D01*
X151165718Y-59377249D01*
X151262475Y-59584745D01*
X151262477Y-59584749D01*
X151393802Y-59772300D01*
X151555700Y-59934198D01*
X151743250Y-60065523D01*
X151743251Y-60065523D01*
X151786345Y-60085618D01*
X151838784Y-60131791D01*
X151857936Y-60198984D01*
X151837720Y-60265865D01*
X151786345Y-60310382D01*
X151743251Y-60330476D01*
X151618126Y-60418090D01*
X151555700Y-60461802D01*
X151555698Y-60461803D01*
X151555695Y-60461806D01*
X151393806Y-60623695D01*
X151393803Y-60623698D01*
X151393802Y-60623700D01*
X151325824Y-60720782D01*
X151262476Y-60811252D01*
X151262475Y-60811254D01*
X151165718Y-61018750D01*
X151165714Y-61018761D01*
X151106457Y-61239910D01*
X151106456Y-61239918D01*
X151086502Y-61467998D01*
X151086502Y-61468001D01*
X151106456Y-61696081D01*
X151106457Y-61696089D01*
X151165714Y-61917238D01*
X151165718Y-61917249D01*
X151234668Y-62065112D01*
X151262477Y-62124749D01*
X151393802Y-62312300D01*
X151555700Y-62474198D01*
X151701815Y-62576509D01*
X151743251Y-62605523D01*
X151786345Y-62625618D01*
X151838784Y-62671791D01*
X151857936Y-62738984D01*
X151837720Y-62805865D01*
X151786345Y-62850382D01*
X151743251Y-62870476D01*
X151618126Y-62958090D01*
X151555700Y-63001802D01*
X151555698Y-63001803D01*
X151555695Y-63001806D01*
X151393806Y-63163695D01*
X151393803Y-63163698D01*
X151393802Y-63163700D01*
X151324838Y-63262191D01*
X151262476Y-63351252D01*
X151262475Y-63351254D01*
X151165718Y-63558750D01*
X151165714Y-63558761D01*
X151106457Y-63779910D01*
X151106456Y-63779918D01*
X151086502Y-64007998D01*
X151086502Y-64008001D01*
X151106456Y-64236081D01*
X151106457Y-64236089D01*
X151165714Y-64457238D01*
X151165718Y-64457249D01*
X151241939Y-64620705D01*
X151262477Y-64664749D01*
X151393802Y-64852300D01*
X151555700Y-65014198D01*
X151743250Y-65145523D01*
X151743251Y-65145523D01*
X151786345Y-65165618D01*
X151838784Y-65211791D01*
X151857936Y-65278984D01*
X151837720Y-65345865D01*
X151786345Y-65390382D01*
X151743251Y-65410476D01*
X151671612Y-65460639D01*
X151555700Y-65541802D01*
X151555698Y-65541803D01*
X151555695Y-65541806D01*
X151393806Y-65703695D01*
X151262476Y-65891252D01*
X151262475Y-65891254D01*
X151165718Y-66098750D01*
X151165714Y-66098761D01*
X151106457Y-66319910D01*
X151106456Y-66319918D01*
X151086502Y-66547998D01*
X151086502Y-66548001D01*
X151106456Y-66776081D01*
X151106457Y-66776089D01*
X151165714Y-66997238D01*
X151165718Y-66997249D01*
X151185768Y-67040246D01*
X151262477Y-67204749D01*
X151393802Y-67392300D01*
X151555700Y-67554198D01*
X151724681Y-67672520D01*
X151743251Y-67685523D01*
X151786345Y-67705618D01*
X151838784Y-67751791D01*
X151857936Y-67818984D01*
X151837720Y-67885865D01*
X151786345Y-67930382D01*
X151743251Y-67950476D01*
X151619294Y-68037273D01*
X151555700Y-68081802D01*
X151555698Y-68081803D01*
X151555695Y-68081806D01*
X151393806Y-68243695D01*
X151262476Y-68431252D01*
X151262475Y-68431254D01*
X151165718Y-68638750D01*
X151165714Y-68638761D01*
X151106457Y-68859910D01*
X151106456Y-68859918D01*
X151086502Y-69087998D01*
X151086502Y-69088001D01*
X151106456Y-69316081D01*
X151106457Y-69316089D01*
X151165714Y-69537238D01*
X151165718Y-69537249D01*
X151262475Y-69744745D01*
X151262477Y-69744749D01*
X151393802Y-69932300D01*
X151555700Y-70094198D01*
X151713737Y-70204857D01*
X151743251Y-70225523D01*
X151786345Y-70245618D01*
X151838784Y-70291791D01*
X151857936Y-70358984D01*
X151837720Y-70425865D01*
X151786345Y-70470382D01*
X151743251Y-70490476D01*
X151628704Y-70570684D01*
X151555700Y-70621802D01*
X151555698Y-70621803D01*
X151555695Y-70621806D01*
X151393806Y-70783695D01*
X151393803Y-70783698D01*
X151393802Y-70783700D01*
X151341314Y-70858661D01*
X151262476Y-70971252D01*
X151262475Y-70971254D01*
X151165718Y-71178750D01*
X151165714Y-71178761D01*
X151106457Y-71399910D01*
X151106456Y-71399918D01*
X151086502Y-71627998D01*
X151086502Y-71628001D01*
X151106456Y-71856081D01*
X151106457Y-71856089D01*
X151165714Y-72077238D01*
X151165718Y-72077249D01*
X151259956Y-72279343D01*
X151262477Y-72284749D01*
X151393802Y-72472300D01*
X151555700Y-72634198D01*
X151743250Y-72765522D01*
X151743251Y-72765523D01*
X151786345Y-72785618D01*
X151838784Y-72831791D01*
X151857936Y-72898984D01*
X151837720Y-72965865D01*
X151786345Y-73010382D01*
X151743251Y-73030476D01*
X151644585Y-73099564D01*
X151555700Y-73161802D01*
X151555698Y-73161803D01*
X151555695Y-73161806D01*
X151393806Y-73323695D01*
X151393803Y-73323698D01*
X151393802Y-73323700D01*
X151340054Y-73400460D01*
X151262476Y-73511252D01*
X151262475Y-73511254D01*
X151165718Y-73718750D01*
X151165714Y-73718761D01*
X151106457Y-73939910D01*
X151106456Y-73939918D01*
X151086502Y-74167998D01*
X151086502Y-74168001D01*
X151106456Y-74396081D01*
X151106457Y-74396089D01*
X151165714Y-74617238D01*
X151165718Y-74617249D01*
X151262475Y-74824745D01*
X151262477Y-74824749D01*
X151393802Y-75012300D01*
X151555700Y-75174198D01*
X151701802Y-75276500D01*
X151743251Y-75305523D01*
X151786345Y-75325618D01*
X151838784Y-75371791D01*
X151857936Y-75438984D01*
X151837720Y-75505865D01*
X151786345Y-75550382D01*
X151743251Y-75570476D01*
X151618126Y-75658090D01*
X151555700Y-75701802D01*
X151555698Y-75701803D01*
X151555695Y-75701806D01*
X151393806Y-75863695D01*
X151393803Y-75863698D01*
X151393802Y-75863700D01*
X151351925Y-75923507D01*
X151262476Y-76051252D01*
X151262475Y-76051254D01*
X151165718Y-76258750D01*
X151165714Y-76258761D01*
X151106457Y-76479910D01*
X151106456Y-76479918D01*
X151086502Y-76707998D01*
X151086502Y-76708001D01*
X151106456Y-76936081D01*
X151106457Y-76936089D01*
X151165714Y-77157238D01*
X151165718Y-77157249D01*
X151256341Y-77351590D01*
X151262477Y-77364749D01*
X151393802Y-77552300D01*
X151555700Y-77714198D01*
X151732367Y-77837902D01*
X151743251Y-77845523D01*
X151786345Y-77865618D01*
X151838784Y-77911791D01*
X151857936Y-77978984D01*
X151837720Y-78045865D01*
X151786345Y-78090382D01*
X151743250Y-78110477D01*
X151733830Y-78117074D01*
X151667624Y-78139402D01*
X151662705Y-78139500D01*
X149568500Y-78139500D01*
X149501461Y-78119815D01*
X149455706Y-78067011D01*
X149444500Y-78015500D01*
X149444500Y-76302906D01*
X149446218Y-76282339D01*
X149446703Y-76279450D01*
X149446705Y-76279439D01*
X149444500Y-76186810D01*
X149444500Y-76147197D01*
X149443454Y-76136249D01*
X149443190Y-76131823D01*
X149442961Y-76122182D01*
X149441667Y-76067801D01*
X149441380Y-76066483D01*
X149433989Y-76032510D01*
X149432852Y-76025224D01*
X149429419Y-75989261D01*
X149411366Y-75927782D01*
X149410281Y-75923530D01*
X149396667Y-75860941D01*
X149382446Y-75827732D01*
X149379955Y-75820803D01*
X149369777Y-75786138D01*
X149340431Y-75729217D01*
X149338547Y-75725217D01*
X149327548Y-75699533D01*
X149313333Y-75666336D01*
X149301432Y-75648753D01*
X149293086Y-75636421D01*
X149289320Y-75630074D01*
X149272770Y-75597972D01*
X149233176Y-75547623D01*
X149230565Y-75544048D01*
X149194676Y-75491021D01*
X149194675Y-75491020D01*
X149182776Y-75479121D01*
X149169127Y-75465472D01*
X149164239Y-75459964D01*
X149141908Y-75431568D01*
X149095326Y-75391204D01*
X149093496Y-75389618D01*
X149090257Y-75386602D01*
X147160592Y-73456936D01*
X147147262Y-73441177D01*
X147145558Y-73438784D01*
X147145557Y-73438782D01*
X147078511Y-73374854D01*
X147064415Y-73360759D01*
X147050491Y-73346835D01*
X147042000Y-73339824D01*
X147038699Y-73336894D01*
X146992348Y-73292699D01*
X146992346Y-73292697D01*
X146987306Y-73289458D01*
X146961957Y-73273166D01*
X146955998Y-73268815D01*
X146928155Y-73245826D01*
X146928149Y-73245821D01*
X146871936Y-73215126D01*
X146868130Y-73212868D01*
X146814256Y-73178245D01*
X146780724Y-73164820D01*
X146774048Y-73161675D01*
X146742352Y-73144368D01*
X146742350Y-73144367D01*
X146742346Y-73144365D01*
X146722737Y-73138096D01*
X146681347Y-73124865D01*
X146677183Y-73123368D01*
X146617727Y-73099566D01*
X146617721Y-73099564D01*
X146582241Y-73092725D01*
X146575099Y-73090902D01*
X146540700Y-73079905D01*
X146477109Y-73072301D01*
X146472737Y-73071619D01*
X146429198Y-73063229D01*
X146409849Y-73059500D01*
X146409847Y-73059500D01*
X146373724Y-73059500D01*
X146366358Y-73059061D01*
X146330501Y-73054774D01*
X146330500Y-73054774D01*
X146266623Y-73059342D01*
X146262203Y-73059500D01*
X145517295Y-73059500D01*
X145450256Y-73039815D01*
X145446170Y-73037074D01*
X145436749Y-73030477D01*
X145436745Y-73030475D01*
X145393655Y-73010382D01*
X145341215Y-72964210D01*
X145322063Y-72897017D01*
X145342278Y-72830136D01*
X145393655Y-72785618D01*
X145396882Y-72784112D01*
X145436749Y-72765523D01*
X145624300Y-72634198D01*
X145786198Y-72472300D01*
X145917523Y-72284749D01*
X146014284Y-72077243D01*
X146073543Y-71856087D01*
X146093498Y-71628000D01*
X146073543Y-71399913D01*
X146014284Y-71178757D01*
X145917523Y-70971251D01*
X145786198Y-70783700D01*
X145624300Y-70621802D01*
X145436749Y-70490477D01*
X145393655Y-70470382D01*
X145341215Y-70424210D01*
X145322063Y-70357017D01*
X145342278Y-70290136D01*
X145393655Y-70245618D01*
X145396882Y-70244112D01*
X145436749Y-70225523D01*
X145624300Y-70094198D01*
X145786198Y-69932300D01*
X145917523Y-69744749D01*
X146014284Y-69537243D01*
X146073543Y-69316087D01*
X146093498Y-69088000D01*
X146092485Y-69076427D01*
X146086479Y-69007778D01*
X146073543Y-68859913D01*
X146014284Y-68638757D01*
X145982835Y-68571315D01*
X145960772Y-68524000D01*
X145917523Y-68431251D01*
X145786198Y-68243700D01*
X145624300Y-68081802D01*
X145436749Y-67950477D01*
X145425312Y-67945144D01*
X145393655Y-67930382D01*
X145341215Y-67884210D01*
X145322063Y-67817017D01*
X145342278Y-67750136D01*
X145393655Y-67705618D01*
X145399589Y-67702851D01*
X145436749Y-67685523D01*
X145624300Y-67554198D01*
X145786198Y-67392300D01*
X145917523Y-67204749D01*
X146014284Y-66997243D01*
X146073543Y-66776087D01*
X146093498Y-66548000D01*
X146089979Y-66507783D01*
X146085018Y-66451070D01*
X146073543Y-66319913D01*
X146014284Y-66098757D01*
X146008430Y-66086204D01*
X145917524Y-65891254D01*
X145917523Y-65891252D01*
X145917523Y-65891251D01*
X145786198Y-65703700D01*
X145624300Y-65541802D01*
X145436749Y-65410477D01*
X145393655Y-65390382D01*
X145341215Y-65344210D01*
X145322063Y-65277017D01*
X145342278Y-65210136D01*
X145393655Y-65165618D01*
X145396882Y-65164112D01*
X145436749Y-65145523D01*
X145624300Y-65014198D01*
X145786198Y-64852300D01*
X145917523Y-64664749D01*
X146014284Y-64457243D01*
X146073543Y-64236087D01*
X146093498Y-64008000D01*
X146073543Y-63779913D01*
X146014284Y-63558757D01*
X145996591Y-63520815D01*
X145948985Y-63418722D01*
X145917523Y-63351251D01*
X145786198Y-63163700D01*
X145624300Y-63001802D01*
X145436749Y-62870477D01*
X145393655Y-62850382D01*
X145341215Y-62804210D01*
X145322063Y-62737017D01*
X145342278Y-62670136D01*
X145393655Y-62625618D01*
X145397687Y-62623738D01*
X145436749Y-62605523D01*
X145624300Y-62474198D01*
X145786198Y-62312300D01*
X145917523Y-62124749D01*
X146014284Y-61917243D01*
X146073543Y-61696087D01*
X146093498Y-61468000D01*
X146073543Y-61239913D01*
X146014284Y-61018757D01*
X146005685Y-61000317D01*
X145941801Y-60863316D01*
X145917523Y-60811251D01*
X145786198Y-60623700D01*
X145624300Y-60461802D01*
X145436749Y-60330477D01*
X145393655Y-60310382D01*
X145341215Y-60264210D01*
X145322063Y-60197017D01*
X145342278Y-60130136D01*
X145393655Y-60085618D01*
X145396882Y-60084112D01*
X145436749Y-60065523D01*
X145624300Y-59934198D01*
X145786198Y-59772300D01*
X145917523Y-59584749D01*
X146014284Y-59377243D01*
X146073543Y-59156087D01*
X146093498Y-58928000D01*
X146073543Y-58699913D01*
X146014284Y-58478757D01*
X145917523Y-58271251D01*
X145786198Y-58083700D01*
X145624300Y-57921802D01*
X145436749Y-57790477D01*
X145393655Y-57770382D01*
X145341215Y-57724210D01*
X145322063Y-57657017D01*
X145342278Y-57590136D01*
X145393655Y-57545618D01*
X145396882Y-57544112D01*
X145436749Y-57525523D01*
X145624300Y-57394198D01*
X145786198Y-57232300D01*
X145917523Y-57044749D01*
X146014284Y-56837243D01*
X146073543Y-56616087D01*
X146093498Y-56388000D01*
X146073543Y-56159913D01*
X146014284Y-55938757D01*
X146002896Y-55914336D01*
X145975736Y-55856091D01*
X145917523Y-55731251D01*
X145786198Y-55543700D01*
X145624300Y-55381802D01*
X145616627Y-55376429D01*
X145573006Y-55321853D01*
X145565814Y-55252355D01*
X145597338Y-55190001D01*
X145657568Y-55154588D01*
X145674489Y-55151570D01*
X145689201Y-55149989D01*
X145826204Y-55098889D01*
X145943261Y-55011261D01*
X146030889Y-54894204D01*
X146081989Y-54757201D01*
X146085591Y-54723692D01*
X146088499Y-54696654D01*
X146088500Y-54696637D01*
X146088500Y-52999362D01*
X146088499Y-52999345D01*
X146084431Y-52961516D01*
X146081989Y-52938799D01*
X146030889Y-52801796D01*
X145943261Y-52684739D01*
X145826204Y-52597111D01*
X145689203Y-52546011D01*
X145628654Y-52539500D01*
X145628638Y-52539500D01*
X143931362Y-52539500D01*
X143931345Y-52539500D01*
X143870797Y-52546011D01*
X143870795Y-52546011D01*
X143733795Y-52597111D01*
X143616739Y-52684739D01*
X143529111Y-52801795D01*
X143478011Y-52938795D01*
X143478011Y-52938797D01*
X143471500Y-52999345D01*
X143471500Y-54696654D01*
X143478011Y-54757202D01*
X143478011Y-54757204D01*
X143520656Y-54871535D01*
X143529111Y-54894204D01*
X143616739Y-55011261D01*
X143733796Y-55098889D01*
X143833110Y-55135931D01*
X143870793Y-55149987D01*
X143870799Y-55149989D01*
X143885499Y-55151569D01*
X143950048Y-55178305D01*
X143989897Y-55235696D01*
X143992393Y-55305521D01*
X143956742Y-55365611D01*
X143943377Y-55376425D01*
X143943371Y-55376431D01*
X143935696Y-55381805D01*
X143773806Y-55543695D01*
X143773803Y-55543698D01*
X143773802Y-55543700D01*
X143713969Y-55629150D01*
X143642476Y-55731252D01*
X143642475Y-55731254D01*
X143545718Y-55938750D01*
X143545714Y-55938761D01*
X143486457Y-56159910D01*
X143486456Y-56159918D01*
X143466502Y-56387998D01*
X143466502Y-56388001D01*
X143486456Y-56616081D01*
X143486457Y-56616089D01*
X143545714Y-56837238D01*
X143545718Y-56837249D01*
X143626213Y-57009870D01*
X143642477Y-57044749D01*
X143773802Y-57232300D01*
X143935700Y-57394198D01*
X144123251Y-57525523D01*
X144166345Y-57545618D01*
X144218784Y-57591791D01*
X144237936Y-57658984D01*
X144217720Y-57725865D01*
X144166345Y-57770382D01*
X144123251Y-57790476D01*
X143998126Y-57878090D01*
X143935700Y-57921802D01*
X143935698Y-57921803D01*
X143935695Y-57921806D01*
X143773806Y-58083695D01*
X143773803Y-58083698D01*
X143773802Y-58083700D01*
X143733548Y-58141189D01*
X143642476Y-58271252D01*
X143642475Y-58271254D01*
X143545718Y-58478750D01*
X143545714Y-58478761D01*
X143486457Y-58699910D01*
X143486456Y-58699918D01*
X143466502Y-58927998D01*
X143466502Y-58928001D01*
X143486456Y-59156081D01*
X143486457Y-59156089D01*
X143545714Y-59377238D01*
X143545718Y-59377249D01*
X143642475Y-59584745D01*
X143642477Y-59584749D01*
X143773802Y-59772300D01*
X143935700Y-59934198D01*
X144123251Y-60065523D01*
X144166345Y-60085618D01*
X144218784Y-60131791D01*
X144237936Y-60198984D01*
X144217720Y-60265865D01*
X144166345Y-60310382D01*
X144123251Y-60330476D01*
X143998126Y-60418090D01*
X143935700Y-60461802D01*
X143935698Y-60461803D01*
X143935695Y-60461806D01*
X143773806Y-60623695D01*
X143773803Y-60623698D01*
X143773802Y-60623700D01*
X143705824Y-60720782D01*
X143642476Y-60811252D01*
X143642475Y-60811254D01*
X143545718Y-61018750D01*
X143545714Y-61018761D01*
X143486457Y-61239910D01*
X143486456Y-61239918D01*
X143466502Y-61467998D01*
X143466502Y-61468001D01*
X143486456Y-61696081D01*
X143486457Y-61696089D01*
X143545714Y-61917238D01*
X143545718Y-61917249D01*
X143614668Y-62065112D01*
X143642477Y-62124749D01*
X143773802Y-62312300D01*
X143935700Y-62474198D01*
X144081815Y-62576509D01*
X144123251Y-62605523D01*
X144166345Y-62625618D01*
X144218784Y-62671791D01*
X144237936Y-62738984D01*
X144217720Y-62805865D01*
X144166345Y-62850382D01*
X144123251Y-62870476D01*
X143998126Y-62958090D01*
X143935700Y-63001802D01*
X143935698Y-63001803D01*
X143935695Y-63001806D01*
X143773806Y-63163695D01*
X143773803Y-63163698D01*
X143773802Y-63163700D01*
X143704838Y-63262191D01*
X143642476Y-63351252D01*
X143642475Y-63351254D01*
X143545718Y-63558750D01*
X143545714Y-63558761D01*
X143486457Y-63779910D01*
X143486456Y-63779918D01*
X143466502Y-64007998D01*
X143466502Y-64008001D01*
X143486456Y-64236081D01*
X143486457Y-64236089D01*
X143545714Y-64457238D01*
X143545718Y-64457249D01*
X143621939Y-64620705D01*
X143642477Y-64664749D01*
X143773802Y-64852300D01*
X143935700Y-65014198D01*
X144123251Y-65145523D01*
X144166345Y-65165618D01*
X144218784Y-65211791D01*
X144237936Y-65278984D01*
X144217720Y-65345865D01*
X144166345Y-65390382D01*
X144123251Y-65410476D01*
X144051612Y-65460639D01*
X143935700Y-65541802D01*
X143935698Y-65541803D01*
X143935695Y-65541806D01*
X143773806Y-65703695D01*
X143642476Y-65891252D01*
X143642475Y-65891254D01*
X143545718Y-66098750D01*
X143545714Y-66098761D01*
X143486457Y-66319910D01*
X143486456Y-66319918D01*
X143466502Y-66547998D01*
X143466502Y-66548001D01*
X143486456Y-66776081D01*
X143486457Y-66776089D01*
X143545714Y-66997238D01*
X143545718Y-66997249D01*
X143565768Y-67040246D01*
X143642477Y-67204749D01*
X143773802Y-67392300D01*
X143935700Y-67554198D01*
X144104681Y-67672520D01*
X144123251Y-67685523D01*
X144166345Y-67705618D01*
X144218784Y-67751791D01*
X144237936Y-67818984D01*
X144217720Y-67885865D01*
X144166345Y-67930382D01*
X144123251Y-67950476D01*
X143999294Y-68037273D01*
X143935700Y-68081802D01*
X143935698Y-68081803D01*
X143935695Y-68081806D01*
X143773806Y-68243695D01*
X143642476Y-68431252D01*
X143642475Y-68431254D01*
X143545718Y-68638750D01*
X143545714Y-68638761D01*
X143486457Y-68859910D01*
X143486456Y-68859918D01*
X143466502Y-69087998D01*
X143466502Y-69088001D01*
X143486456Y-69316081D01*
X143486457Y-69316089D01*
X143545714Y-69537238D01*
X143545718Y-69537249D01*
X143642475Y-69744745D01*
X143642477Y-69744749D01*
X143773802Y-69932300D01*
X143935700Y-70094198D01*
X144093737Y-70204857D01*
X144123251Y-70225523D01*
X144166345Y-70245618D01*
X144218784Y-70291791D01*
X144237936Y-70358984D01*
X144217720Y-70425865D01*
X144166345Y-70470382D01*
X144123251Y-70490476D01*
X144008704Y-70570684D01*
X143935700Y-70621802D01*
X143935698Y-70621803D01*
X143935695Y-70621806D01*
X143773806Y-70783695D01*
X143773803Y-70783698D01*
X143773802Y-70783700D01*
X143721314Y-70858661D01*
X143642476Y-70971252D01*
X143642475Y-70971254D01*
X143545718Y-71178750D01*
X143545714Y-71178761D01*
X143486457Y-71399910D01*
X143486456Y-71399918D01*
X143466502Y-71627998D01*
X143466502Y-71628001D01*
X143486456Y-71856081D01*
X143486457Y-71856089D01*
X143545714Y-72077238D01*
X143545718Y-72077249D01*
X143639956Y-72279343D01*
X143642477Y-72284749D01*
X143773802Y-72472300D01*
X143935700Y-72634198D01*
X144123251Y-72765523D01*
X144166345Y-72785618D01*
X144218784Y-72831791D01*
X144237936Y-72898984D01*
X144217720Y-72965865D01*
X144166345Y-73010382D01*
X144123251Y-73030476D01*
X144024585Y-73099564D01*
X143935700Y-73161802D01*
X143935698Y-73161803D01*
X143935695Y-73161806D01*
X143773806Y-73323695D01*
X143773803Y-73323698D01*
X143773802Y-73323700D01*
X143720054Y-73400460D01*
X143642476Y-73511252D01*
X143642475Y-73511254D01*
X143545718Y-73718750D01*
X143545714Y-73718761D01*
X143486457Y-73939910D01*
X143486456Y-73939918D01*
X143466502Y-74167998D01*
X143466502Y-74168001D01*
X143486456Y-74396081D01*
X143486457Y-74396089D01*
X143545714Y-74617238D01*
X143545718Y-74617249D01*
X143642475Y-74824745D01*
X143642477Y-74824749D01*
X143773802Y-75012300D01*
X143935700Y-75174198D01*
X144081802Y-75276500D01*
X144123251Y-75305523D01*
X144176401Y-75330307D01*
X144228840Y-75376479D01*
X144247992Y-75443673D01*
X144227776Y-75510554D01*
X144176401Y-75555071D01*
X144127517Y-75577865D01*
X143941179Y-75708342D01*
X143780342Y-75869179D01*
X143649865Y-76055517D01*
X143553734Y-76261673D01*
X143553730Y-76261682D01*
X143501127Y-76457999D01*
X143501128Y-76458000D01*
X144464314Y-76458000D01*
X144452359Y-76469955D01*
X144394835Y-76582852D01*
X144375014Y-76708000D01*
X144394835Y-76833148D01*
X144452359Y-76946045D01*
X144464314Y-76958000D01*
X143501128Y-76958000D01*
X143553730Y-77154317D01*
X143553734Y-77154326D01*
X143649865Y-77360482D01*
X143780342Y-77546820D01*
X143941179Y-77707657D01*
X144127517Y-77838133D01*
X144176399Y-77860927D01*
X144228839Y-77907099D01*
X144247992Y-77974292D01*
X144227777Y-78041174D01*
X144176402Y-78085691D01*
X144123256Y-78110474D01*
X144123252Y-78110476D01*
X144109915Y-78119815D01*
X143935700Y-78241802D01*
X143935698Y-78241803D01*
X143935695Y-78241806D01*
X143773803Y-78403698D01*
X143715739Y-78486623D01*
X143661163Y-78530248D01*
X143614164Y-78539500D01*
X142076832Y-78539500D01*
X142009793Y-78519815D01*
X141989151Y-78503181D01*
X140269303Y-76783333D01*
X138525434Y-75039464D01*
X138522900Y-75036772D01*
X138481273Y-74989785D01*
X138481272Y-74989784D01*
X138481271Y-74989783D01*
X138429628Y-74954136D01*
X138426611Y-74951916D01*
X138377227Y-74913225D01*
X138371235Y-74910528D01*
X138367760Y-74908964D01*
X138348216Y-74897941D01*
X138343210Y-74894486D01*
X138339677Y-74892047D01*
X138339672Y-74892044D01*
X138281015Y-74869798D01*
X138277555Y-74868365D01*
X138220331Y-74842611D01*
X138220332Y-74842611D01*
X138210110Y-74840738D01*
X138188510Y-74834716D01*
X138178801Y-74831035D01*
X138178797Y-74831034D01*
X138178796Y-74831034D01*
X138116511Y-74823470D01*
X138112810Y-74822907D01*
X138051096Y-74811598D01*
X138051090Y-74811598D01*
X137988455Y-74815387D01*
X137984710Y-74815500D01*
X135239345Y-74815500D01*
X135172306Y-74795815D01*
X135131958Y-74753500D01*
X135107080Y-74710411D01*
X135019587Y-74558869D01*
X134859931Y-74358666D01*
X134859930Y-74358665D01*
X134859927Y-74358661D01*
X134738988Y-74246448D01*
X134672219Y-74184495D01*
X134648025Y-74168000D01*
X134460649Y-74040248D01*
X134460638Y-74040241D01*
X134229940Y-73929144D01*
X134229921Y-73929137D01*
X134111116Y-73892491D01*
X134052857Y-73853921D01*
X134024699Y-73789977D01*
X134035581Y-73720960D01*
X134082050Y-73668783D01*
X134111116Y-73655509D01*
X134179268Y-73634486D01*
X134229935Y-73618858D01*
X134453378Y-73511254D01*
X134460638Y-73507758D01*
X134460638Y-73507757D01*
X134460646Y-73507754D01*
X134672219Y-73363505D01*
X134846929Y-73201398D01*
X134859927Y-73189338D01*
X134859927Y-73189336D01*
X134859931Y-73189334D01*
X135019587Y-72989131D01*
X135147622Y-72767369D01*
X135241174Y-72529001D01*
X135298155Y-72279353D01*
X135301104Y-72240007D01*
X135317291Y-72024004D01*
X135317291Y-72023995D01*
X135298156Y-71768656D01*
X135298155Y-71768651D01*
X135298155Y-71768647D01*
X135241174Y-71518999D01*
X135147622Y-71280631D01*
X135019587Y-71058869D01*
X134859931Y-70858666D01*
X134859930Y-70858665D01*
X134859927Y-70858661D01*
X134717679Y-70726676D01*
X134672219Y-70684495D01*
X134671428Y-70683956D01*
X134460649Y-70540248D01*
X134460638Y-70540241D01*
X134229940Y-70429144D01*
X134229924Y-70429138D01*
X134111115Y-70392490D01*
X134052856Y-70353919D01*
X134024698Y-70289975D01*
X134035582Y-70220958D01*
X134082051Y-70168781D01*
X134111115Y-70155508D01*
X134141783Y-70146048D01*
X134229918Y-70118864D01*
X134229925Y-70118860D01*
X134229935Y-70118858D01*
X134460646Y-70007754D01*
X134672219Y-69863505D01*
X134859931Y-69689334D01*
X135019587Y-69489131D01*
X135121046Y-69313398D01*
X135131958Y-69294500D01*
X135182525Y-69246284D01*
X135239345Y-69232500D01*
X137192710Y-69232500D01*
X137196455Y-69232613D01*
X137200612Y-69232864D01*
X137259093Y-69236402D01*
X137320818Y-69225090D01*
X137324514Y-69224527D01*
X137386801Y-69216965D01*
X137396499Y-69213286D01*
X137418116Y-69207260D01*
X137428329Y-69205389D01*
X137485577Y-69179622D01*
X137488978Y-69178213D01*
X137547675Y-69155954D01*
X137556213Y-69150060D01*
X137575764Y-69139033D01*
X137585226Y-69134775D01*
X137634640Y-69096060D01*
X137637615Y-69093870D01*
X137689273Y-69058215D01*
X137730916Y-69011208D01*
X137733435Y-69008533D01*
X138660533Y-68081435D01*
X138663208Y-68078916D01*
X138710215Y-68037273D01*
X138745870Y-67985615D01*
X138748067Y-67982631D01*
X138748096Y-67982595D01*
X138786775Y-67933226D01*
X138791033Y-67923764D01*
X138802060Y-67904213D01*
X138807954Y-67895675D01*
X138830213Y-67836978D01*
X138831622Y-67833577D01*
X138857389Y-67776329D01*
X138859260Y-67766116D01*
X138865288Y-67744495D01*
X138868965Y-67734801D01*
X138876527Y-67672514D01*
X138877091Y-67668815D01*
X138888402Y-67607093D01*
X138884613Y-67544454D01*
X138884500Y-67540709D01*
X138884500Y-51839295D01*
X138884613Y-51835551D01*
X138888402Y-51772908D01*
X138878061Y-51716479D01*
X138877091Y-51711184D01*
X138876527Y-51707480D01*
X138868965Y-51645199D01*
X138865286Y-51635500D01*
X138859260Y-51613881D01*
X138857389Y-51603671D01*
X138857387Y-51603667D01*
X138831634Y-51546447D01*
X138830200Y-51542984D01*
X138807954Y-51484325D01*
X138802058Y-51475783D01*
X138791035Y-51456239D01*
X138786775Y-51446774D01*
X138748067Y-51397368D01*
X138745867Y-51394377D01*
X138710215Y-51342727D01*
X138710210Y-51342722D01*
X138663245Y-51301115D01*
X138660533Y-51298563D01*
X137621434Y-50259464D01*
X137618900Y-50256772D01*
X137577273Y-50209785D01*
X137577272Y-50209784D01*
X137577271Y-50209783D01*
X137525628Y-50174136D01*
X137522611Y-50171916D01*
X137473227Y-50133225D01*
X137467235Y-50130528D01*
X137463760Y-50128964D01*
X137444216Y-50117941D01*
X137439210Y-50114486D01*
X137435677Y-50112047D01*
X137435672Y-50112044D01*
X137377015Y-50089798D01*
X137373555Y-50088365D01*
X137316331Y-50062611D01*
X137316332Y-50062611D01*
X137306110Y-50060738D01*
X137284510Y-50054716D01*
X137274801Y-50051035D01*
X137274797Y-50051034D01*
X137274796Y-50051034D01*
X137212511Y-50043470D01*
X137208810Y-50042907D01*
X137147096Y-50031598D01*
X137147090Y-50031598D01*
X137084455Y-50035387D01*
X137080710Y-50035500D01*
X135239345Y-50035500D01*
X135172306Y-50015815D01*
X135131958Y-49973500D01*
X135115661Y-49945273D01*
X135019587Y-49778869D01*
X134859931Y-49578666D01*
X134859930Y-49578665D01*
X134859927Y-49578661D01*
X134713029Y-49442361D01*
X134672219Y-49404495D01*
X134647789Y-49387839D01*
X134469555Y-49266320D01*
X161099000Y-49266320D01*
X161105511Y-49326868D01*
X161105511Y-49326870D01*
X161134465Y-49404495D01*
X161156611Y-49463870D01*
X161244239Y-49580927D01*
X161361296Y-49668555D01*
X161498299Y-49719655D01*
X161525550Y-49722584D01*
X161558845Y-49726165D01*
X161558862Y-49726166D01*
X163561138Y-49726166D01*
X163561154Y-49726165D01*
X163588192Y-49723257D01*
X163621701Y-49719655D01*
X163758704Y-49668555D01*
X163875761Y-49580927D01*
X163963389Y-49463870D01*
X163971413Y-49442356D01*
X164013281Y-49386426D01*
X164078745Y-49362008D01*
X164147018Y-49376859D01*
X164163754Y-49387837D01*
X164185155Y-49404495D01*
X164288992Y-49485315D01*
X164298170Y-49492458D01*
X164511112Y-49607696D01*
X164600756Y-49638471D01*
X164740113Y-49686313D01*
X164740115Y-49686313D01*
X164740117Y-49686314D01*
X164978938Y-49726166D01*
X164978939Y-49726166D01*
X165221061Y-49726166D01*
X165221062Y-49726166D01*
X165459883Y-49686314D01*
X165688888Y-49607696D01*
X165901830Y-49492458D01*
X166092900Y-49343742D01*
X166256886Y-49165606D01*
X166271266Y-49143594D01*
X166324410Y-49098237D01*
X166393641Y-49088812D01*
X166456978Y-49118311D01*
X166478883Y-49143589D01*
X166489848Y-49160372D01*
X166489851Y-49160376D01*
X166652873Y-49337463D01*
X166652883Y-49337472D01*
X166842831Y-49485315D01*
X166842840Y-49485321D01*
X167054531Y-49599881D01*
X167054545Y-49599887D01*
X167282207Y-49678045D01*
X167390000Y-49696032D01*
X167390000Y-48709349D01*
X167418819Y-48726875D01*
X167564404Y-48767666D01*
X167677622Y-48767666D01*
X167789783Y-48752250D01*
X167890000Y-48708719D01*
X167890000Y-49696031D01*
X167997792Y-49678045D01*
X168225454Y-49599887D01*
X168225468Y-49599881D01*
X168437159Y-49485321D01*
X168437168Y-49485315D01*
X168627116Y-49337472D01*
X168627126Y-49337463D01*
X168790148Y-49160376D01*
X168790156Y-49160365D01*
X168921813Y-48958850D01*
X169018508Y-48738406D01*
X169077599Y-48505061D01*
X169077599Y-48505060D01*
X169080697Y-48467666D01*
X168134852Y-48467666D01*
X168183559Y-48330619D01*
X168193877Y-48179780D01*
X168163116Y-48031751D01*
X168129910Y-47967666D01*
X169080697Y-47967666D01*
X169077599Y-47930271D01*
X169077599Y-47930270D01*
X169018508Y-47696925D01*
X168921813Y-47476481D01*
X168790156Y-47274966D01*
X168790148Y-47274955D01*
X168627126Y-47097868D01*
X168627116Y-47097859D01*
X168437168Y-46950016D01*
X168437159Y-46950010D01*
X168225468Y-46835450D01*
X168225454Y-46835444D01*
X167997791Y-46757285D01*
X167890000Y-46739299D01*
X167890000Y-47725982D01*
X167861181Y-47708457D01*
X167715596Y-47667666D01*
X167602378Y-47667666D01*
X167490217Y-47683082D01*
X167390000Y-47726612D01*
X167390000Y-46739299D01*
X167389999Y-46739299D01*
X167282208Y-46757285D01*
X167054545Y-46835444D01*
X167054531Y-46835450D01*
X166842840Y-46950010D01*
X166842831Y-46950016D01*
X166652883Y-47097859D01*
X166652873Y-47097868D01*
X166489851Y-47274955D01*
X166489843Y-47274966D01*
X166478881Y-47291744D01*
X166425732Y-47337098D01*
X166356501Y-47346518D01*
X166293166Y-47317013D01*
X166271266Y-47291737D01*
X166260302Y-47274955D01*
X166256886Y-47269726D01*
X166092900Y-47091590D01*
X165996065Y-47016220D01*
X165901832Y-46942875D01*
X165901827Y-46942872D01*
X165688894Y-46827639D01*
X165688891Y-46827638D01*
X165688888Y-46827636D01*
X165688882Y-46827634D01*
X165688880Y-46827633D01*
X165459886Y-46749018D01*
X165260080Y-46715677D01*
X165221062Y-46709166D01*
X164978938Y-46709166D01*
X164939920Y-46715677D01*
X164740113Y-46749018D01*
X164511119Y-46827633D01*
X164511105Y-46827639D01*
X164298172Y-46942872D01*
X164298169Y-46942874D01*
X164163755Y-47047493D01*
X164098761Y-47073135D01*
X164030221Y-47059568D01*
X163979896Y-47011100D01*
X163971415Y-46992981D01*
X163963389Y-46971462D01*
X163875761Y-46854405D01*
X163758704Y-46766777D01*
X163741698Y-46760434D01*
X163621703Y-46715677D01*
X163561154Y-46709166D01*
X163561138Y-46709166D01*
X161558862Y-46709166D01*
X161558845Y-46709166D01*
X161498297Y-46715677D01*
X161498295Y-46715677D01*
X161361295Y-46766777D01*
X161244239Y-46854405D01*
X161156611Y-46971461D01*
X161105511Y-47108461D01*
X161105511Y-47108463D01*
X161099000Y-47169011D01*
X161099000Y-49266320D01*
X134469555Y-49266320D01*
X134460649Y-49260248D01*
X134460638Y-49260241D01*
X134311082Y-49188220D01*
X134259222Y-49141398D01*
X134240909Y-49073971D01*
X134261957Y-49007347D01*
X134315683Y-48962679D01*
X134364883Y-48952500D01*
X134852638Y-48952500D01*
X134852654Y-48952499D01*
X134879692Y-48949591D01*
X134913201Y-48945989D01*
X135050204Y-48894889D01*
X135167261Y-48807261D01*
X135254889Y-48690204D01*
X135305989Y-48553201D01*
X135311014Y-48506463D01*
X135312499Y-48492654D01*
X135312500Y-48492637D01*
X135312500Y-45995362D01*
X135312499Y-45995345D01*
X135309157Y-45964270D01*
X135305989Y-45934799D01*
X135254889Y-45797796D01*
X135167261Y-45680739D01*
X135050204Y-45593111D01*
X134913203Y-45542011D01*
X134852654Y-45535500D01*
X134852638Y-45535500D01*
X132355362Y-45535500D01*
X132355345Y-45535500D01*
X132294797Y-45542011D01*
X132294795Y-45542011D01*
X132157795Y-45593111D01*
X132040739Y-45680739D01*
X131953111Y-45797795D01*
X131902011Y-45934795D01*
X131902011Y-45934797D01*
X131895500Y-45995345D01*
X131895500Y-48492654D01*
X131902011Y-48553202D01*
X131902011Y-48553204D01*
X131946271Y-48671865D01*
X131953111Y-48690204D01*
X132040739Y-48807261D01*
X132157796Y-48894889D01*
X132294799Y-48945989D01*
X132322050Y-48948918D01*
X132355345Y-48952499D01*
X132355362Y-48952500D01*
X132843117Y-48952500D01*
X132910156Y-48972185D01*
X132955911Y-49024989D01*
X132965855Y-49094147D01*
X132936830Y-49157703D01*
X132896918Y-49188220D01*
X132747363Y-49260241D01*
X132747361Y-49260242D01*
X132535780Y-49404495D01*
X132348072Y-49578661D01*
X132188413Y-49778869D01*
X132060378Y-50000630D01*
X131966828Y-50238993D01*
X131966822Y-50239012D01*
X131909844Y-50488651D01*
X131909843Y-50488656D01*
X131890709Y-50743995D01*
X131890709Y-50744004D01*
X131909843Y-50999343D01*
X131909844Y-50999348D01*
X131966822Y-51248987D01*
X131966824Y-51248996D01*
X131966826Y-51249001D01*
X132060378Y-51487369D01*
X132188413Y-51709131D01*
X132289229Y-51835551D01*
X132348072Y-51909338D01*
X132483352Y-52034858D01*
X132535781Y-52083505D01*
X132747355Y-52227754D01*
X132747360Y-52227756D01*
X132747361Y-52227757D01*
X132747362Y-52227758D01*
X132863152Y-52283519D01*
X132978061Y-52338856D01*
X132978062Y-52338856D01*
X132978065Y-52338858D01*
X133072210Y-52367897D01*
X133096885Y-52375509D01*
X133155144Y-52414080D01*
X133183302Y-52478024D01*
X133172418Y-52547041D01*
X133125949Y-52599218D01*
X133096885Y-52612491D01*
X132978061Y-52649143D01*
X132747362Y-52760241D01*
X132747361Y-52760242D01*
X132535780Y-52904495D01*
X132348072Y-53078661D01*
X132188413Y-53278869D01*
X132058567Y-53503767D01*
X132008000Y-53551983D01*
X131986498Y-53559318D01*
X131986829Y-53560380D01*
X131979670Y-53562610D01*
X131922454Y-53588361D01*
X131918995Y-53589794D01*
X131860328Y-53612044D01*
X131860320Y-53612048D01*
X131851774Y-53617947D01*
X131832243Y-53628962D01*
X131822777Y-53633223D01*
X131773382Y-53671920D01*
X131770367Y-53674138D01*
X131718731Y-53709780D01*
X131718728Y-53709782D01*
X131677115Y-53756753D01*
X131674548Y-53759480D01*
X130579480Y-54854548D01*
X130576753Y-54857115D01*
X130529782Y-54898728D01*
X130529780Y-54898731D01*
X130494138Y-54950367D01*
X130491920Y-54953382D01*
X130453223Y-55002777D01*
X130448962Y-55012243D01*
X130437947Y-55031774D01*
X130432048Y-55040320D01*
X130432044Y-55040328D01*
X130409794Y-55098995D01*
X130408361Y-55102454D01*
X130382610Y-55159670D01*
X130382609Y-55159673D01*
X130380737Y-55169889D01*
X130374715Y-55191494D01*
X130371035Y-55201198D01*
X130363470Y-55263490D01*
X130362907Y-55267191D01*
X130351598Y-55328903D01*
X130351598Y-55328908D01*
X130355387Y-55391544D01*
X130355500Y-55395289D01*
X130355500Y-71604709D01*
X130355387Y-71608454D01*
X130351598Y-71671091D01*
X130351598Y-71671093D01*
X130353469Y-71681302D01*
X130355500Y-71703654D01*
X130355500Y-88368709D01*
X130355387Y-88372454D01*
X130351598Y-88435089D01*
X130351598Y-88435092D01*
X129239054Y-88435092D01*
X129239054Y-40538402D01*
X130686641Y-40538402D01*
X130706063Y-40896634D01*
X130764106Y-41250679D01*
X130764107Y-41250682D01*
X130860082Y-41596355D01*
X130860083Y-41596357D01*
X130992872Y-41929633D01*
X130992877Y-41929643D01*
X131148373Y-42222940D01*
X131160928Y-42246620D01*
X131160929Y-42246623D01*
X131362256Y-42543557D01*
X131362264Y-42543567D01*
X131566064Y-42783499D01*
X131594516Y-42816995D01*
X131854977Y-43063717D01*
X132140586Y-43280831D01*
X132447995Y-43465793D01*
X132447997Y-43465794D01*
X132447999Y-43465795D01*
X132448003Y-43465797D01*
X132773588Y-43616428D01*
X132773599Y-43616433D01*
X133113583Y-43730987D01*
X133463958Y-43808111D01*
X133820618Y-43846900D01*
X133820624Y-43846900D01*
X134179376Y-43846900D01*
X134179382Y-43846900D01*
X134536042Y-43808111D01*
X134886417Y-43730987D01*
X135226401Y-43616433D01*
X135552005Y-43465793D01*
X135859414Y-43280831D01*
X136145023Y-43063717D01*
X136405484Y-42816995D01*
X136637742Y-42543559D01*
X136743721Y-42387252D01*
X136786842Y-42323654D01*
X161099000Y-42323654D01*
X161105511Y-42384202D01*
X161105511Y-42384204D01*
X161134302Y-42461392D01*
X161156611Y-42521204D01*
X161244239Y-42638261D01*
X161361296Y-42725889D01*
X161498299Y-42776989D01*
X161525550Y-42779918D01*
X161558845Y-42783499D01*
X161558862Y-42783500D01*
X163561138Y-42783500D01*
X163561154Y-42783499D01*
X163588192Y-42780591D01*
X163621701Y-42776989D01*
X163758704Y-42725889D01*
X163875761Y-42638261D01*
X163963389Y-42521204D01*
X163971413Y-42499690D01*
X164013281Y-42443760D01*
X164078745Y-42419342D01*
X164147018Y-42434193D01*
X164163756Y-42445173D01*
X164290161Y-42543559D01*
X164298170Y-42549792D01*
X164511112Y-42665030D01*
X164622011Y-42703102D01*
X164740113Y-42743647D01*
X164740115Y-42743647D01*
X164740117Y-42743648D01*
X164978938Y-42783500D01*
X164978939Y-42783500D01*
X165221061Y-42783500D01*
X165221062Y-42783500D01*
X165459883Y-42743648D01*
X165688888Y-42665030D01*
X165901830Y-42549792D01*
X166092900Y-42401076D01*
X166256886Y-42222940D01*
X166271266Y-42200928D01*
X166324410Y-42155571D01*
X166393641Y-42146146D01*
X166456978Y-42175645D01*
X166478883Y-42200923D01*
X166489848Y-42217706D01*
X166489851Y-42217710D01*
X166652873Y-42394797D01*
X166652883Y-42394806D01*
X166842831Y-42542649D01*
X166842840Y-42542655D01*
X167054531Y-42657215D01*
X167054545Y-42657221D01*
X167282207Y-42735379D01*
X167390000Y-42753366D01*
X167390000Y-41766683D01*
X167418819Y-41784209D01*
X167564404Y-41825000D01*
X167677622Y-41825000D01*
X167789783Y-41809584D01*
X167890000Y-41766053D01*
X167890000Y-42753365D01*
X167997792Y-42735379D01*
X168225454Y-42657221D01*
X168225468Y-42657215D01*
X168437159Y-42542655D01*
X168437168Y-42542649D01*
X168627116Y-42394806D01*
X168627126Y-42394797D01*
X168790148Y-42217710D01*
X168790156Y-42217699D01*
X168921813Y-42016184D01*
X169018508Y-41795740D01*
X169077599Y-41562395D01*
X169077599Y-41562394D01*
X169080697Y-41525000D01*
X168134852Y-41525000D01*
X168183559Y-41387953D01*
X168193877Y-41237114D01*
X168163116Y-41089085D01*
X168129910Y-41025000D01*
X169080697Y-41025000D01*
X169077599Y-40987605D01*
X169077599Y-40987604D01*
X169018508Y-40754259D01*
X168921813Y-40533815D01*
X168790156Y-40332300D01*
X168790148Y-40332289D01*
X168627126Y-40155202D01*
X168627116Y-40155193D01*
X168437168Y-40007350D01*
X168437159Y-40007344D01*
X168225468Y-39892784D01*
X168225454Y-39892778D01*
X167997791Y-39814619D01*
X167890000Y-39796633D01*
X167890000Y-40783316D01*
X167861181Y-40765791D01*
X167715596Y-40725000D01*
X167602378Y-40725000D01*
X167490217Y-40740416D01*
X167390000Y-40783946D01*
X167390000Y-39796633D01*
X167389999Y-39796633D01*
X167282208Y-39814619D01*
X167054545Y-39892778D01*
X167054531Y-39892784D01*
X166842840Y-40007344D01*
X166842831Y-40007350D01*
X166652883Y-40155193D01*
X166652873Y-40155202D01*
X166489851Y-40332289D01*
X166489843Y-40332300D01*
X166478881Y-40349078D01*
X166425732Y-40394432D01*
X166356501Y-40403852D01*
X166293166Y-40374347D01*
X166271266Y-40349071D01*
X166260302Y-40332289D01*
X166256886Y-40327060D01*
X166092900Y-40148924D01*
X165938559Y-40028795D01*
X165901832Y-40000209D01*
X165901827Y-40000206D01*
X165688894Y-39884973D01*
X165688891Y-39884972D01*
X165688888Y-39884970D01*
X165688882Y-39884968D01*
X165688880Y-39884967D01*
X165459886Y-39806352D01*
X165260080Y-39773011D01*
X165221062Y-39766500D01*
X164978938Y-39766500D01*
X164939920Y-39773011D01*
X164740113Y-39806352D01*
X164511119Y-39884967D01*
X164511105Y-39884973D01*
X164298172Y-40000206D01*
X164298169Y-40000208D01*
X164163755Y-40104827D01*
X164098761Y-40130469D01*
X164030221Y-40116902D01*
X163979896Y-40068434D01*
X163971415Y-40050315D01*
X163963389Y-40028796D01*
X163875761Y-39911739D01*
X163758704Y-39824111D01*
X163758704Y-39824110D01*
X163621703Y-39773011D01*
X163561154Y-39766500D01*
X163561138Y-39766500D01*
X161558862Y-39766500D01*
X161558845Y-39766500D01*
X161498297Y-39773011D01*
X161498295Y-39773011D01*
X161361295Y-39824111D01*
X161244239Y-39911739D01*
X161156611Y-40028795D01*
X161105511Y-40165795D01*
X161105511Y-40165797D01*
X161099000Y-40226345D01*
X161099000Y-42323654D01*
X136786842Y-42323654D01*
X136839070Y-42246623D01*
X136839070Y-42246621D01*
X136839075Y-42246615D01*
X137007123Y-41929643D01*
X137139915Y-41596361D01*
X137146110Y-41574051D01*
X137168729Y-41492581D01*
X137235895Y-41250674D01*
X137293936Y-40896637D01*
X137309783Y-40604349D01*
X137313359Y-40538402D01*
X137313359Y-40538397D01*
X137293936Y-40180165D01*
X137291581Y-40165799D01*
X137235895Y-39826126D01*
X137192673Y-39670457D01*
X137139917Y-39480444D01*
X137139916Y-39480442D01*
X137007127Y-39147166D01*
X137007118Y-39147148D01*
X136995292Y-39124842D01*
X136839075Y-38830185D01*
X136839071Y-38830179D01*
X136839070Y-38830176D01*
X136637743Y-38533242D01*
X136637735Y-38533232D01*
X136405491Y-38259813D01*
X136405486Y-38259807D01*
X136405484Y-38259805D01*
X136145023Y-38013083D01*
X136145016Y-38013077D01*
X136145013Y-38013075D01*
X136077266Y-37961575D01*
X135859414Y-37795969D01*
X135552005Y-37611007D01*
X135552004Y-37611006D01*
X135552000Y-37611004D01*
X135551996Y-37611002D01*
X135226411Y-37460371D01*
X135226406Y-37460369D01*
X135226401Y-37460367D01*
X135060678Y-37404528D01*
X134886416Y-37345812D01*
X134536040Y-37268688D01*
X134179383Y-37229900D01*
X134179382Y-37229900D01*
X133820618Y-37229900D01*
X133820616Y-37229900D01*
X133463959Y-37268688D01*
X133113583Y-37345812D01*
X132872620Y-37427003D01*
X132773599Y-37460367D01*
X132773596Y-37460368D01*
X132773588Y-37460371D01*
X132448003Y-37611002D01*
X132447999Y-37611004D01*
X132253983Y-37727740D01*
X132140586Y-37795969D01*
X132072140Y-37848000D01*
X131854986Y-38013075D01*
X131854977Y-38013083D01*
X131594513Y-38259807D01*
X131594508Y-38259813D01*
X131362264Y-38533232D01*
X131362256Y-38533242D01*
X131160929Y-38830176D01*
X131160928Y-38830179D01*
X130992881Y-39147148D01*
X130992872Y-39147166D01*
X130860083Y-39480442D01*
X130860082Y-39480444D01*
X130764107Y-39826117D01*
X130764106Y-39826120D01*
X130706063Y-40180165D01*
X130686641Y-40538397D01*
X130686641Y-40538402D01*
X129239054Y-40538402D01*
X129239054Y-38355528D01*
X129239129Y-38352486D01*
X129243681Y-38259807D01*
X129246547Y-38201465D01*
X129258365Y-37975970D01*
X129258945Y-37970166D01*
X129285577Y-37790624D01*
X129316747Y-37593832D01*
X129317822Y-37588559D01*
X129363226Y-37407298D01*
X129413507Y-37219649D01*
X129415007Y-37214844D01*
X129478729Y-37036752D01*
X129547657Y-36857190D01*
X129549487Y-36852915D01*
X129549664Y-36852541D01*
X129630889Y-36680804D01*
X129717836Y-36510161D01*
X129719854Y-36506517D01*
X129818162Y-36342498D01*
X129922282Y-36182169D01*
X129924428Y-36179079D01*
X130038596Y-36025141D01*
X130063732Y-35994100D01*
X130158918Y-35876554D01*
X130161104Y-35874003D01*
X130289014Y-35732874D01*
X130291015Y-35730773D01*
X130425360Y-35596429D01*
X130427461Y-35594428D01*
X130568509Y-35466589D01*
X130571033Y-35464425D01*
X130719838Y-35343925D01*
X130873471Y-35229981D01*
X130876572Y-35227827D01*
X131037426Y-35123366D01*
X131200800Y-35025441D01*
X131204502Y-35023392D01*
X131376029Y-34935994D01*
X131547218Y-34855025D01*
X131551401Y-34853237D01*
X131732445Y-34783739D01*
X131909067Y-34720541D01*
X131913833Y-34719053D01*
X132103831Y-34668142D01*
X132282674Y-34623342D01*
X132287989Y-34622257D01*
X132489218Y-34590385D01*
X132664255Y-34564419D01*
X132670078Y-34563836D01*
X132909852Y-34551269D01*
X132945816Y-34549502D01*
X133046101Y-34544575D01*
X133049144Y-34544500D01*
X147477659Y-34544500D01*
X147544698Y-34564185D01*
G37*
%TD.AperFunction*%
%TD*%
M02*
