%TF.GenerationSoftware,KiCad,Pcbnew,7.0.6*%
%TF.CreationDate,2023-08-03T15:11:44-04:00*%
%TF.ProjectId,mcp23s17_mosfet_combo,6d637032-3373-4313-975f-6d6f73666574,rev?*%
%TF.SameCoordinates,Original*%
%TF.FileFunction,Soldermask,Top*%
%TF.FilePolarity,Negative*%
%FSLAX46Y46*%
G04 Gerber Fmt 4.6, Leading zero omitted, Abs format (unit mm)*
G04 Created by KiCad (PCBNEW 7.0.6) date 2023-08-03 15:11:44*
%MOMM*%
%LPD*%
G01*
G04 APERTURE LIST*
%ADD10C,1.400000*%
%ADD11O,1.400000X1.400000*%
%ADD12R,3.000000X3.000000*%
%ADD13C,3.000000*%
%ADD14R,1.700000X1.700000*%
%ADD15O,1.700000X1.700000*%
%ADD16R,1.905000X2.000000*%
%ADD17O,1.905000X2.000000*%
%ADD18R,2.200000X2.200000*%
%ADD19O,2.200000X2.200000*%
%ADD20C,2.400000*%
%ADD21R,2.400000X2.400000*%
%ADD22C,5.600000*%
%ADD23C,2.000000*%
%ADD24R,1.600000X1.600000*%
%ADD25O,1.600000X1.600000*%
G04 APERTURE END LIST*
D10*
%TO.C,R16*%
X176276000Y-38100000D03*
D11*
X183896000Y-38100000D03*
%TD*%
D12*
%TO.C,J1*%
X147320000Y-38608000D03*
D13*
X152400000Y-38608000D03*
%TD*%
D14*
%TO.C,J5*%
X191135000Y-112395000D03*
D15*
X191135000Y-109855000D03*
X191135000Y-107315000D03*
X191135000Y-104775000D03*
X191135000Y-102235000D03*
X191135000Y-99695000D03*
X191135000Y-97155000D03*
X191135000Y-94615000D03*
X191135000Y-92075000D03*
X191135000Y-89535000D03*
X191135000Y-86995000D03*
X191135000Y-84455000D03*
X191135000Y-81915000D03*
X191135000Y-79375000D03*
X191135000Y-76835000D03*
X191135000Y-74295000D03*
%TD*%
D14*
%TO.C,J6*%
X193675000Y-74295000D03*
D15*
X193675000Y-76835000D03*
X193675000Y-79375000D03*
X193675000Y-81915000D03*
X193675000Y-84455000D03*
X193675000Y-86995000D03*
X193675000Y-89535000D03*
X193675000Y-92075000D03*
X193675000Y-94615000D03*
X193675000Y-97155000D03*
X193675000Y-99695000D03*
X193675000Y-102235000D03*
X193675000Y-104775000D03*
X193675000Y-107315000D03*
X193675000Y-109855000D03*
X193675000Y-112395000D03*
%TD*%
D10*
%TO.C,R15*%
X176295000Y-44900650D03*
D11*
X183915000Y-44900650D03*
%TD*%
D10*
%TO.C,R14*%
X176295000Y-51824198D03*
D11*
X183915000Y-51824198D03*
%TD*%
D10*
%TO.C,R13*%
X176295000Y-58747746D03*
D11*
X183915000Y-58747746D03*
%TD*%
D10*
%TO.C,R12*%
X176295000Y-65671294D03*
D11*
X183915000Y-65671294D03*
%TD*%
D10*
%TO.C,R11*%
X176295000Y-72594842D03*
D11*
X183915000Y-72594842D03*
%TD*%
D10*
%TO.C,R10*%
X176295000Y-79518390D03*
D11*
X183915000Y-79518390D03*
%TD*%
D10*
%TO.C,R9*%
X176295000Y-86441938D03*
D11*
X183915000Y-86441938D03*
%TD*%
D10*
%TO.C,R8*%
X176295000Y-93365486D03*
D11*
X183915000Y-93365486D03*
%TD*%
D10*
%TO.C,R7*%
X176295000Y-100289034D03*
D11*
X183915000Y-100289034D03*
%TD*%
D10*
%TO.C,R6*%
X176295000Y-107212582D03*
D11*
X183915000Y-107212582D03*
%TD*%
D10*
%TO.C,R5*%
X176295000Y-114136130D03*
D11*
X183915000Y-114136130D03*
%TD*%
D10*
%TO.C,R4*%
X176295000Y-121059678D03*
D11*
X183915000Y-121059678D03*
%TD*%
D10*
%TO.C,R3*%
X176295000Y-127983226D03*
D11*
X183915000Y-127983226D03*
%TD*%
D10*
%TO.C,R2*%
X176295000Y-134906774D03*
D11*
X183915000Y-134906774D03*
%TD*%
D10*
%TO.C,R1*%
X176295000Y-141830322D03*
D11*
X183915000Y-141830322D03*
%TD*%
D16*
%TO.C,Q16*%
X162560000Y-41275000D03*
D17*
X165100000Y-41275000D03*
X167640000Y-41275000D03*
%TD*%
D16*
%TO.C,Q15*%
X162560000Y-48217666D03*
D17*
X165100000Y-48217666D03*
X167640000Y-48217666D03*
%TD*%
D16*
%TO.C,Q14*%
X162560000Y-55160332D03*
D17*
X165100000Y-55160332D03*
X167640000Y-55160332D03*
%TD*%
D16*
%TO.C,Q13*%
X162560000Y-62102998D03*
D17*
X165100000Y-62102998D03*
X167640000Y-62102998D03*
%TD*%
D16*
%TO.C,Q12*%
X162560000Y-69045664D03*
D17*
X165100000Y-69045664D03*
X167640000Y-69045664D03*
%TD*%
D16*
%TO.C,Q11*%
X162560000Y-75988330D03*
D17*
X165100000Y-75988330D03*
X167640000Y-75988330D03*
%TD*%
D16*
%TO.C,Q10*%
X162560000Y-82930996D03*
D17*
X165100000Y-82930996D03*
X167640000Y-82930996D03*
%TD*%
D16*
%TO.C,Q9*%
X162560000Y-89873662D03*
D17*
X165100000Y-89873662D03*
X167640000Y-89873662D03*
%TD*%
D16*
%TO.C,Q8*%
X162560000Y-96816328D03*
D17*
X165100000Y-96816328D03*
X167640000Y-96816328D03*
%TD*%
D16*
%TO.C,Q7*%
X162560000Y-103758994D03*
D17*
X165100000Y-103758994D03*
X167640000Y-103758994D03*
%TD*%
D16*
%TO.C,Q6*%
X162560000Y-110701660D03*
D17*
X165100000Y-110701660D03*
X167640000Y-110701660D03*
%TD*%
D16*
%TO.C,Q5*%
X162560000Y-117644326D03*
D17*
X165100000Y-117644326D03*
X167640000Y-117644326D03*
%TD*%
D16*
%TO.C,Q4*%
X162560000Y-124586992D03*
D17*
X165100000Y-124586992D03*
X167640000Y-124586992D03*
%TD*%
D16*
%TO.C,Q3*%
X162560000Y-131529658D03*
D17*
X165100000Y-131529658D03*
X167640000Y-131529658D03*
%TD*%
D16*
%TO.C,Q2*%
X162560000Y-138472324D03*
D17*
X165100000Y-138472324D03*
X167640000Y-138472324D03*
%TD*%
%TO.C,Q1*%
X167640000Y-145415000D03*
X165100000Y-145415000D03*
D16*
X162560000Y-145415000D03*
%TD*%
D18*
%TO.C,D16*%
X173355000Y-41438876D03*
D19*
X183515000Y-41438876D03*
%TD*%
D18*
%TO.C,D15*%
X173355000Y-48362424D03*
D19*
X183515000Y-48362424D03*
%TD*%
D18*
%TO.C,D14*%
X173355000Y-55285972D03*
D19*
X183515000Y-55285972D03*
%TD*%
D18*
%TO.C,D13*%
X173355000Y-62209520D03*
D19*
X183515000Y-62209520D03*
%TD*%
D18*
%TO.C,D12*%
X173355000Y-69133068D03*
D19*
X183515000Y-69133068D03*
%TD*%
D18*
%TO.C,D11*%
X173355000Y-76056616D03*
D19*
X183515000Y-76056616D03*
%TD*%
D18*
%TO.C,D10*%
X173355000Y-82980164D03*
D19*
X183515000Y-82980164D03*
%TD*%
D18*
%TO.C,D9*%
X173355000Y-89903712D03*
D19*
X183515000Y-89903712D03*
%TD*%
D18*
%TO.C,D8*%
X173355000Y-96827260D03*
D19*
X183515000Y-96827260D03*
%TD*%
D18*
%TO.C,D7*%
X173355000Y-103750808D03*
D19*
X183515000Y-103750808D03*
%TD*%
D18*
%TO.C,D6*%
X173355000Y-110674356D03*
D19*
X183515000Y-110674356D03*
%TD*%
D18*
%TO.C,D5*%
X173355000Y-117597904D03*
D19*
X183515000Y-117597904D03*
%TD*%
%TO.C,D4*%
X183515000Y-124521452D03*
D18*
X173355000Y-124521452D03*
%TD*%
D19*
%TO.C,D3*%
X183515000Y-131445000D03*
D18*
X173355000Y-131445000D03*
%TD*%
D19*
%TO.C,D2*%
X183515000Y-138368548D03*
D18*
X173355000Y-138368548D03*
%TD*%
%TO.C,D1*%
X173355000Y-145292102D03*
D19*
X183515000Y-145292102D03*
%TD*%
D13*
%TO.C,J3*%
X147828000Y-144272000D03*
D12*
X152908000Y-144272000D03*
%TD*%
D20*
%TO.C,J7*%
X133604000Y-86024000D03*
X133604000Y-82524000D03*
X133604000Y-79024000D03*
X133604000Y-75524000D03*
X133604000Y-72024000D03*
X133604000Y-68524000D03*
D21*
X133604000Y-65024000D03*
%TD*%
%TO.C,J4*%
X133604000Y-47244000D03*
D20*
X133604000Y-50744000D03*
X133604000Y-54244000D03*
%TD*%
D22*
%TO.C,H1*%
X134000000Y-40538400D03*
%TD*%
D23*
%TO.C,U1*%
X134112000Y-131445000D03*
X151257000Y-131445000D03*
X151257000Y-91948000D03*
X134112000Y-91948000D03*
%TD*%
D22*
%TO.C,H3*%
X192500000Y-40182800D03*
%TD*%
D24*
%TO.C,U2*%
X144780000Y-53848000D03*
D25*
X144780000Y-56388000D03*
X144780000Y-58928000D03*
X144780000Y-61468000D03*
X144780000Y-64008000D03*
X144780000Y-66548000D03*
X144780000Y-69088000D03*
X144780000Y-71628000D03*
X144780000Y-74168000D03*
X144780000Y-76708000D03*
X144780000Y-79248000D03*
X144780000Y-81788000D03*
X144780000Y-84328000D03*
X144780000Y-86868000D03*
X152400000Y-86868000D03*
X152400000Y-84328000D03*
X152400000Y-81788000D03*
X152400000Y-79248000D03*
X152400000Y-76708000D03*
X152400000Y-74168000D03*
X152400000Y-71628000D03*
X152400000Y-69088000D03*
X152400000Y-66548000D03*
X152400000Y-64008000D03*
X152400000Y-61468000D03*
X152400000Y-58928000D03*
X152400000Y-56388000D03*
X152400000Y-53848000D03*
%TD*%
D22*
%TO.C,H4*%
X192500000Y-143764000D03*
%TD*%
%TO.C,H2*%
X134000000Y-142392400D03*
%TD*%
M02*
